G04 Layer_Physical_Order=1*
G04 Layer_Color=255*
%FSLAX44Y44*%
%MOMM*%
G71*
G01*
G75*
%ADD10R,0.6000X0.4000*%
%ADD11R,1.0500X1.0000*%
%ADD12R,2.2000X1.0500*%
%ADD13R,1.0000X1.0500*%
%ADD14R,1.0500X2.2000*%
%ADD15R,0.4000X0.6000*%
%ADD16O,0.8500X0.2500*%
%ADD17O,0.2500X0.8500*%
%ADD18R,3.5000X3.5000*%
G04:AMPARAMS|DCode=19|XSize=1.8mm|YSize=0.6mm|CornerRadius=0.15mm|HoleSize=0mm|Usage=FLASHONLY|Rotation=270.000|XOffset=0mm|YOffset=0mm|HoleType=Round|Shape=RoundedRectangle|*
%AMROUNDEDRECTD19*
21,1,1.8000,0.3000,0,0,270.0*
21,1,1.5000,0.6000,0,0,270.0*
1,1,0.3000,-0.1500,-0.7500*
1,1,0.3000,-0.1500,0.7500*
1,1,0.3000,0.1500,0.7500*
1,1,0.3000,0.1500,-0.7500*
%
%ADD19ROUNDEDRECTD19*%
G04:AMPARAMS|DCode=20|XSize=1.8mm|YSize=0.6mm|CornerRadius=0.15mm|HoleSize=0mm|Usage=FLASHONLY|Rotation=180.000|XOffset=0mm|YOffset=0mm|HoleType=Round|Shape=RoundedRectangle|*
%AMROUNDEDRECTD20*
21,1,1.8000,0.3000,0,0,180.0*
21,1,1.5000,0.6000,0,0,180.0*
1,1,0.3000,-0.7500,0.1500*
1,1,0.3000,0.7500,0.1500*
1,1,0.3000,0.7500,-0.1500*
1,1,0.3000,-0.7500,-0.1500*
%
%ADD20ROUNDEDRECTD20*%
%ADD21R,0.2500X0.2000*%
%ADD22R,0.2500X0.5000*%
%ADD23R,0.5000X0.5000*%
%ADD24R,0.5000X0.9000*%
%ADD25C,0.2540*%
%ADD26C,0.5000*%
%ADD27C,0.9000*%
%ADD28C,0.4500*%
%ADD29C,0.5000*%
D10*
X189700Y285300D02*
D03*
Y293300D02*
D03*
X165100Y45300D02*
D03*
Y53300D02*
D03*
Y32000D02*
D03*
Y24000D02*
D03*
X133300Y32000D02*
D03*
Y40000D02*
D03*
D11*
X199400Y243800D02*
D03*
D12*
X214650Y229050D02*
D03*
Y258550D02*
D03*
D13*
X165150Y66350D02*
D03*
D14*
X179900Y81600D02*
D03*
X150400D02*
D03*
D15*
X185000Y32000D02*
D03*
X177000D02*
D03*
X144700D02*
D03*
X153700D02*
D03*
D16*
X70200Y57300D02*
D03*
Y52300D02*
D03*
Y47300D02*
D03*
Y42300D02*
D03*
Y37300D02*
D03*
Y32300D02*
D03*
Y27300D02*
D03*
Y22300D02*
D03*
X118200D02*
D03*
Y27300D02*
D03*
Y32300D02*
D03*
Y37300D02*
D03*
Y42300D02*
D03*
Y47300D02*
D03*
Y52300D02*
D03*
Y57300D02*
D03*
D17*
X76700Y15800D02*
D03*
X81700D02*
D03*
X86700D02*
D03*
X91700D02*
D03*
X96700D02*
D03*
X101700D02*
D03*
X106700D02*
D03*
X111700D02*
D03*
Y63800D02*
D03*
X106700D02*
D03*
X101700D02*
D03*
X96700D02*
D03*
X91700D02*
D03*
X86700D02*
D03*
X81700D02*
D03*
X76700D02*
D03*
D18*
X94200Y39800D02*
D03*
D19*
X55500Y282200D02*
D03*
X66500D02*
D03*
X77500D02*
D03*
X88500D02*
D03*
X99500D02*
D03*
X110500D02*
D03*
X121500D02*
D03*
X132500D02*
D03*
X143500D02*
D03*
Y106200D02*
D03*
X132500D02*
D03*
X121500D02*
D03*
X110500D02*
D03*
X99500D02*
D03*
X88500D02*
D03*
X77500D02*
D03*
X66500D02*
D03*
X55500D02*
D03*
D20*
X178000Y254700D02*
D03*
Y243700D02*
D03*
Y232700D02*
D03*
Y221700D02*
D03*
Y210700D02*
D03*
Y199700D02*
D03*
Y188700D02*
D03*
Y177700D02*
D03*
Y166700D02*
D03*
Y155700D02*
D03*
Y144700D02*
D03*
Y133700D02*
D03*
X21000D02*
D03*
Y144700D02*
D03*
Y155700D02*
D03*
Y166700D02*
D03*
Y177700D02*
D03*
Y188700D02*
D03*
Y199700D02*
D03*
Y210700D02*
D03*
Y221700D02*
D03*
Y232700D02*
D03*
Y243700D02*
D03*
Y254700D02*
D03*
D21*
X171500Y293200D02*
D03*
Y289200D02*
D03*
D22*
X165000Y291200D02*
D03*
D23*
X244000Y148000D02*
D03*
Y126000D02*
D03*
X217600Y101000D02*
D03*
X244000D02*
D03*
X217600Y79000D02*
D03*
X244000Y54000D02*
D03*
X195000Y32000D02*
D03*
X217600Y54000D02*
D03*
X244000Y79000D02*
D03*
X217600Y126000D02*
D03*
X204600Y148000D02*
D03*
D24*
X244000Y11000D02*
D03*
X195000D02*
D03*
D25*
X91700Y42300D02*
Y63800D01*
X96700Y37300D02*
X118200D01*
X111700Y63800D02*
X112100Y63400D01*
X118000D01*
X76300D02*
X76700Y63800D01*
X70500Y63400D02*
X76300D01*
X70500D02*
X70900Y63800D01*
X70500Y15800D02*
X76700D01*
X165150Y53350D02*
Y66350D01*
X185000Y32000D02*
X195000D01*
X165100D02*
Y45300D01*
Y32000D02*
X177000D01*
X153700Y32000D02*
X165100D01*
X133300D02*
X144700D01*
X127400Y40000D02*
X133300D01*
X124700Y37300D02*
X127400Y40000D01*
X118200Y37300D02*
X124700D01*
X118200Y32300D02*
X133000D01*
D26*
X244000Y126000D02*
Y148000D01*
X217600Y126000D02*
X244000D01*
X217600Y101000D02*
X244000D01*
Y79000D02*
Y101000D01*
X217600Y79000D02*
X244000D01*
X217600Y54000D02*
Y79000D01*
Y54000D02*
X244000D01*
X195000Y32000D02*
X243670D01*
X244000Y11000D02*
Y54000D01*
X217600Y101000D02*
Y126000D01*
X204600Y148000D02*
X244000D01*
D27*
X197020Y11000D02*
X242000D01*
D28*
X118000Y63400D02*
D03*
X70500D02*
D03*
Y15800D02*
D03*
D29*
X83200Y50800D02*
D03*
X94200D02*
D03*
X105200D02*
D03*
X83200Y39800D02*
D03*
X94200D02*
D03*
X105200D02*
D03*
X83200Y28800D02*
D03*
X94200D02*
D03*
X105200D02*
D03*
M02*
