G04 Layer_Color=8388736*
%FSLAX44Y44*%
%MOMM*%
G71*
G01*
G75*
%ADD37R,1.2000X0.8000*%
%ADD43R,0.8000X1.2000*%
%ADD44R,0.8000X1.2000*%
%ADD64R,5.2950X17.5059*%
%ADD65R,3.7032X3.7032*%
%ADD66O,0.4532X1.0532*%
%ADD67O,1.0532X0.4532*%
%ADD68R,0.8032X0.6032*%
%ADD69R,0.6032X0.8032*%
%ADD70R,0.4032X0.4532*%
%ADD71R,0.7032X0.4532*%
%ADD72R,0.5282X0.5032*%
%ADD73R,0.5032X0.5282*%
%ADD74R,0.4532X0.7032*%
%ADD75R,0.4532X0.4032*%
%ADD76R,2.4032X1.2532*%
%ADD77R,1.2532X1.2032*%
G04:AMPARAMS|DCode=78|XSize=2.0032mm|YSize=0.8032mm|CornerRadius=0.2516mm|HoleSize=0mm|Usage=FLASHONLY|Rotation=180.000|XOffset=0mm|YOffset=0mm|HoleType=Round|Shape=RoundedRectangle|*
%AMROUNDEDRECTD78*
21,1,2.0032,0.3000,0,0,180.0*
21,1,1.5000,0.8032,0,0,180.0*
1,1,0.5032,-0.7500,0.1500*
1,1,0.5032,0.7500,0.1500*
1,1,0.5032,0.7500,-0.1500*
1,1,0.5032,-0.7500,-0.1500*
%
%ADD78ROUNDEDRECTD78*%
G04:AMPARAMS|DCode=79|XSize=2.0032mm|YSize=0.8032mm|CornerRadius=0.2516mm|HoleSize=0mm|Usage=FLASHONLY|Rotation=90.000|XOffset=0mm|YOffset=0mm|HoleType=Round|Shape=RoundedRectangle|*
%AMROUNDEDRECTD79*
21,1,2.0032,0.3000,0,0,90.0*
21,1,1.5000,0.8032,0,0,90.0*
1,1,0.5032,0.1500,0.7500*
1,1,0.5032,0.1500,-0.7500*
1,1,0.5032,-0.1500,-0.7500*
1,1,0.5032,-0.1500,0.7500*
%
%ADD79ROUNDEDRECTD79*%
%ADD80R,1.4532X1.2032*%
%ADD81C,0.8032*%
%ADD82C,2.4032*%
%ADD83C,0.6532*%
G36*
X59273Y24419D02*
X59404Y24393D01*
X59530Y24350D01*
X59649Y24292D01*
X59760Y24218D01*
X59860Y24130D01*
X59948Y24030D01*
X60022Y23919D01*
X60081Y23799D01*
X60124Y23673D01*
X60149Y23543D01*
X60158Y23410D01*
Y21410D01*
X60149Y21277D01*
X60124Y21146D01*
X60081Y21020D01*
X60022Y20901D01*
X59948Y20790D01*
X59860Y20690D01*
X59705Y20535D01*
X59760Y20498D01*
X59860Y20410D01*
X59948Y20310D01*
X60022Y20199D01*
X60081Y20080D01*
X60124Y19954D01*
X60149Y19823D01*
X60158Y19690D01*
Y15690D01*
X60149Y15557D01*
X60124Y15427D01*
X60081Y15301D01*
X60022Y15181D01*
X59948Y15071D01*
X59860Y14970D01*
X59760Y14883D01*
X59649Y14809D01*
X59530Y14750D01*
X59404Y14707D01*
X59273Y14681D01*
X59140Y14672D01*
X55140D01*
X55007Y14681D01*
X54876Y14707D01*
X54750Y14750D01*
X54631Y14809D01*
X54520Y14883D01*
X54420Y14970D01*
X54332Y15071D01*
X54258Y15181D01*
X54199Y15301D01*
X54156Y15427D01*
X54131Y15557D01*
X54122Y15690D01*
Y19690D01*
X54131Y19823D01*
X54156Y19954D01*
X54199Y20080D01*
X54258Y20199D01*
X54332Y20310D01*
X54420Y20410D01*
X54520Y20498D01*
X54575Y20535D01*
X54420Y20690D01*
X54332Y20790D01*
X54258Y20901D01*
X54199Y21020D01*
X54156Y21146D01*
X54131Y21277D01*
X54122Y21410D01*
Y23410D01*
X54131Y23543D01*
X54156Y23673D01*
X54199Y23799D01*
X54258Y23919D01*
X54332Y24030D01*
X54420Y24130D01*
X54520Y24218D01*
X54631Y24292D01*
X54750Y24350D01*
X54876Y24393D01*
X55007Y24419D01*
X55140Y24428D01*
X59140D01*
X59273Y24419D01*
D02*
G37*
G36*
X48383D02*
X48513Y24393D01*
X48640Y24350D01*
X48759Y24292D01*
X48870Y24218D01*
X48970Y24130D01*
X49058Y24030D01*
X49132Y23919D01*
X49191Y23799D01*
X49233Y23673D01*
X49260Y23543D01*
X49268Y23410D01*
Y21410D01*
X49260Y21277D01*
X49233Y21146D01*
X49191Y21020D01*
X49132Y20901D01*
X49058Y20790D01*
X48970Y20690D01*
X48815Y20535D01*
X48870Y20498D01*
X48970Y20410D01*
X49058Y20310D01*
X49132Y20199D01*
X49191Y20080D01*
X49233Y19954D01*
X49260Y19823D01*
X49268Y19690D01*
Y15690D01*
X49260Y15557D01*
X49233Y15427D01*
X49191Y15301D01*
X49132Y15181D01*
X49058Y15071D01*
X48970Y14970D01*
X48870Y14883D01*
X48759Y14809D01*
X48640Y14750D01*
X48513Y14707D01*
X48383Y14681D01*
X48250Y14672D01*
X44250D01*
X44117Y14681D01*
X43987Y14707D01*
X43860Y14750D01*
X43741Y14809D01*
X43630Y14883D01*
X43530Y14970D01*
X43442Y15071D01*
X43368Y15181D01*
X43309Y15301D01*
X43267Y15427D01*
X43240Y15557D01*
X43232Y15690D01*
Y19690D01*
X43240Y19823D01*
X43267Y19954D01*
X43309Y20080D01*
X43368Y20199D01*
X43442Y20310D01*
X43530Y20410D01*
X43630Y20498D01*
X43685Y20535D01*
X43530Y20690D01*
X43442Y20790D01*
X43368Y20901D01*
X43309Y21020D01*
X43267Y21146D01*
X43240Y21277D01*
X43232Y21410D01*
Y23410D01*
X43240Y23543D01*
X43267Y23673D01*
X43309Y23799D01*
X43368Y23919D01*
X43442Y24030D01*
X43530Y24130D01*
X43630Y24218D01*
X43741Y24292D01*
X43860Y24350D01*
X43987Y24393D01*
X44117Y24419D01*
X44250Y24428D01*
X48250D01*
X48383Y24419D01*
D02*
G37*
G36*
X67923Y75420D02*
X68053Y75394D01*
X68179Y75351D01*
X68299Y75292D01*
X68410Y75218D01*
X68510Y75130D01*
X68597Y75030D01*
X68671Y74919D01*
X68730Y74800D01*
X68773Y74674D01*
X68799Y74543D01*
X68808Y74410D01*
Y70410D01*
X68799Y70277D01*
X68773Y70146D01*
X68730Y70020D01*
X68671Y69901D01*
X68597Y69790D01*
X68510Y69690D01*
X68410Y69602D01*
X68299Y69528D01*
X68179Y69469D01*
X68053Y69426D01*
X67923Y69401D01*
X67790Y69392D01*
X63790D01*
X63657Y69401D01*
X63526Y69426D01*
X63400Y69469D01*
X63281Y69528D01*
X63170Y69602D01*
X63070Y69690D01*
X62982Y69790D01*
X62945Y69845D01*
X62790Y69690D01*
X62690Y69602D01*
X62579Y69528D01*
X62460Y69469D01*
X62334Y69426D01*
X62203Y69401D01*
X62070Y69392D01*
X60070D01*
X59937Y69401D01*
X59807Y69426D01*
X59681Y69469D01*
X59561Y69528D01*
X59450Y69602D01*
X59350Y69690D01*
X59262Y69790D01*
X59188Y69901D01*
X59130Y70020D01*
X59087Y70146D01*
X59061Y70277D01*
X59052Y70410D01*
Y74410D01*
X59061Y74543D01*
X59087Y74674D01*
X59130Y74800D01*
X59188Y74919D01*
X59262Y75030D01*
X59350Y75130D01*
X59450Y75218D01*
X59561Y75292D01*
X59681Y75351D01*
X59807Y75394D01*
X59937Y75420D01*
X60070Y75428D01*
X62070D01*
X62203Y75420D01*
X62334Y75394D01*
X62460Y75351D01*
X62579Y75292D01*
X62690Y75218D01*
X62790Y75130D01*
X62945Y74975D01*
X62982Y75030D01*
X63070Y75130D01*
X63170Y75218D01*
X63281Y75292D01*
X63400Y75351D01*
X63526Y75394D01*
X63657Y75420D01*
X63790Y75428D01*
X67790D01*
X67923Y75420D01*
D02*
G37*
G36*
X68123Y84679D02*
X68254Y84654D01*
X68380Y84611D01*
X68499Y84552D01*
X68610Y84478D01*
X68710Y84390D01*
X68798Y84290D01*
X68872Y84179D01*
X68931Y84060D01*
X68973Y83933D01*
X69000Y83803D01*
X69008Y83670D01*
Y79670D01*
X69000Y79537D01*
X68973Y79406D01*
X68931Y79280D01*
X68872Y79161D01*
X68798Y79050D01*
X68710Y78950D01*
X68610Y78862D01*
X68499Y78788D01*
X68380Y78729D01*
X68254Y78686D01*
X68123Y78660D01*
X67990Y78652D01*
X63990D01*
X63857Y78660D01*
X63727Y78686D01*
X63600Y78729D01*
X63481Y78788D01*
X63370Y78862D01*
X63270Y78950D01*
X63182Y79050D01*
X63146Y79105D01*
X62991Y78950D01*
X62891Y78862D01*
X62780Y78788D01*
X62660Y78729D01*
X62534Y78686D01*
X62403Y78660D01*
X62271Y78652D01*
X60271D01*
X60138Y78660D01*
X60007Y78686D01*
X59881Y78729D01*
X59762Y78788D01*
X59651Y78862D01*
X59551Y78950D01*
X59463Y79050D01*
X59389Y79161D01*
X59330Y79280D01*
X59287Y79406D01*
X59261Y79537D01*
X59253Y79670D01*
Y83670D01*
X59261Y83803D01*
X59287Y83933D01*
X59330Y84060D01*
X59389Y84179D01*
X59463Y84290D01*
X59551Y84390D01*
X59651Y84478D01*
X59762Y84552D01*
X59881Y84611D01*
X60007Y84654D01*
X60138Y84679D01*
X60271Y84688D01*
X62271D01*
X62403Y84679D01*
X62534Y84654D01*
X62660Y84611D01*
X62780Y84552D01*
X62891Y84478D01*
X62991Y84390D01*
X63146Y84235D01*
X63182Y84290D01*
X63270Y84390D01*
X63370Y84478D01*
X63481Y84552D01*
X63600Y84611D01*
X63727Y84654D01*
X63857Y84679D01*
X63990Y84688D01*
X67990D01*
X68123Y84679D01*
D02*
G37*
G36*
X50032Y83919D02*
X50163Y83893D01*
X50289Y83851D01*
X50409Y83792D01*
X50519Y83718D01*
X50619Y83630D01*
X50707Y83530D01*
X50781Y83419D01*
X50840Y83300D01*
X50883Y83174D01*
X50909Y83043D01*
X50918Y82910D01*
Y78910D01*
X50909Y78777D01*
X50883Y78646D01*
X50840Y78520D01*
X50781Y78401D01*
X50707Y78290D01*
X50619Y78190D01*
X50519Y78102D01*
X50409Y78028D01*
X50289Y77969D01*
X50163Y77927D01*
X50032Y77901D01*
X49899Y77892D01*
X47899D01*
D01*
X47899D01*
X47766Y77901D01*
X47636Y77927D01*
X47510Y77969D01*
X47390Y78028D01*
X47280Y78102D01*
X47179Y78190D01*
X47024Y78345D01*
X46988Y78290D01*
X46900Y78190D01*
X46800Y78102D01*
X46689Y78028D01*
X46570Y77969D01*
X46444Y77927D01*
X46313Y77901D01*
X46180Y77892D01*
X42180D01*
X42047Y77901D01*
X41916Y77927D01*
X41790Y77969D01*
X41671Y78028D01*
X41560Y78102D01*
X41460Y78190D01*
X41372Y78290D01*
X41298Y78401D01*
X41239Y78520D01*
X41196Y78646D01*
X41171Y78777D01*
X41162Y78910D01*
Y82910D01*
X41171Y83043D01*
X41196Y83174D01*
X41239Y83300D01*
X41298Y83419D01*
X41372Y83530D01*
X41460Y83630D01*
X41560Y83718D01*
X41671Y83792D01*
X41790Y83851D01*
X41916Y83893D01*
X42047Y83919D01*
X42180Y83928D01*
X46180D01*
X46313Y83919D01*
X46444Y83893D01*
X46570Y83851D01*
X46689Y83792D01*
X46800Y83718D01*
X46900Y83630D01*
X46988Y83530D01*
X47024Y83475D01*
X47179Y83630D01*
X47280Y83718D01*
X47390Y83792D01*
X47510Y83851D01*
X47636Y83893D01*
X47766Y83919D01*
X47899Y83928D01*
X49899D01*
X50032Y83919D01*
D02*
G37*
D37*
X244000Y193300D02*
D03*
Y206000D02*
D03*
D43*
X154300Y6000D02*
D03*
X141600Y6000D02*
D03*
X179700Y6000D02*
D03*
X52700D02*
D03*
X128900D02*
D03*
X167000D02*
D03*
X116200D02*
D03*
X78100D02*
D03*
X90800D02*
D03*
X103500D02*
D03*
X65400D02*
D03*
X40000D02*
D03*
D44*
X205000Y294000D02*
D03*
X217700Y294000D02*
D03*
D64*
X224345Y86700D02*
D03*
D65*
X155100Y60100D02*
D03*
D66*
X137600Y84100D02*
D03*
X142600D02*
D03*
X147600D02*
D03*
X152600D02*
D03*
X157600D02*
D03*
X162600D02*
D03*
X167600D02*
D03*
X172600D02*
D03*
Y36100D02*
D03*
X167600D02*
D03*
X162600D02*
D03*
X157600D02*
D03*
X152600D02*
D03*
X147600D02*
D03*
X142600D02*
D03*
X137600D02*
D03*
D67*
X179100Y77600D02*
D03*
Y72600D02*
D03*
Y67600D02*
D03*
Y62600D02*
D03*
Y57600D02*
D03*
Y52600D02*
D03*
Y47600D02*
D03*
Y42600D02*
D03*
X131100D02*
D03*
Y47600D02*
D03*
Y52600D02*
D03*
Y57600D02*
D03*
Y62600D02*
D03*
Y67600D02*
D03*
Y72600D02*
D03*
Y77600D02*
D03*
D68*
X116100Y18600D02*
D03*
Y26600D02*
D03*
X48090Y38400D02*
D03*
Y30400D02*
D03*
X64110Y63620D02*
D03*
Y55620D02*
D03*
X103510Y26600D02*
D03*
Y18600D02*
D03*
X90810Y26600D02*
D03*
Y18600D02*
D03*
X78150Y26600D02*
D03*
Y18600D02*
D03*
X189700Y293300D02*
D03*
Y285300D02*
D03*
D69*
X36180Y37420D02*
D03*
X28180D02*
D03*
X175310Y96710D02*
D03*
X183310D02*
D03*
X86420Y62590D02*
D03*
X94420D02*
D03*
X86370Y77680D02*
D03*
X94370D02*
D03*
D70*
X33290Y26500D02*
D03*
X37290D02*
D03*
D71*
X35290Y20000D02*
D03*
D72*
X38080Y71180D02*
D03*
Y66180D02*
D03*
Y61180D02*
D03*
Y56180D02*
D03*
X53330D02*
D03*
Y61180D02*
D03*
Y66180D02*
D03*
Y71180D02*
D03*
D73*
X43205Y56055D02*
D03*
X48205D02*
D03*
Y71305D02*
D03*
X43205D02*
D03*
D74*
X165000Y291200D02*
D03*
D75*
X171500Y289200D02*
D03*
Y293200D02*
D03*
D76*
X227650Y258550D02*
D03*
Y229050D02*
D03*
D77*
X212400Y243800D02*
D03*
D78*
X21000Y254700D02*
D03*
Y243700D02*
D03*
Y232700D02*
D03*
Y221700D02*
D03*
Y210700D02*
D03*
Y199700D02*
D03*
Y188700D02*
D03*
Y177700D02*
D03*
Y166700D02*
D03*
Y155700D02*
D03*
Y144700D02*
D03*
Y133700D02*
D03*
X178000D02*
D03*
Y144700D02*
D03*
Y155700D02*
D03*
Y166700D02*
D03*
Y177700D02*
D03*
Y188700D02*
D03*
Y199700D02*
D03*
Y210700D02*
D03*
Y221700D02*
D03*
Y232700D02*
D03*
Y243700D02*
D03*
Y254700D02*
D03*
D79*
X55500Y106200D02*
D03*
X66500D02*
D03*
X77500D02*
D03*
X88500D02*
D03*
X99500D02*
D03*
X110500D02*
D03*
X121500D02*
D03*
X132500D02*
D03*
X143500D02*
D03*
Y282200D02*
D03*
X132500D02*
D03*
X121500D02*
D03*
X110500D02*
D03*
X99500D02*
D03*
X88500D02*
D03*
X77500D02*
D03*
X66500D02*
D03*
X55500D02*
D03*
D80*
X110990Y62540D02*
D03*
Y77540D02*
D03*
D81*
X154300Y0D02*
D03*
Y8000D02*
D03*
X242000Y193300D02*
D03*
X250000D02*
D03*
X242000Y206000D02*
D03*
X250000D02*
D03*
X141600Y8000D02*
D03*
Y0D02*
D03*
X179700D02*
D03*
Y8000D02*
D03*
X52700Y0D02*
D03*
Y8000D02*
D03*
X128900Y0D02*
D03*
Y8000D02*
D03*
X167000Y0D02*
D03*
Y8000D02*
D03*
X116200Y0D02*
D03*
Y8000D02*
D03*
X205000Y300000D02*
D03*
Y292000D02*
D03*
X217700Y300000D02*
D03*
Y292000D02*
D03*
X78100Y0D02*
D03*
Y8000D02*
D03*
X90800Y0D02*
D03*
Y8000D02*
D03*
X103500Y0D02*
D03*
Y8000D02*
D03*
X65400Y0D02*
D03*
Y8000D02*
D03*
X40000Y0D02*
D03*
Y8000D02*
D03*
D82*
X235000Y285000D02*
D03*
X15000Y15000D02*
D03*
D83*
X191550Y214080D02*
D03*
M02*
