M48
;Layer_Color=9474304
;FILE_FORMAT=4:4
METRIC,LZ
;TYPE=PLATED
T1F00S00C0.2000
T2F00S00C0.6000
T3F00S00C2.2000
%
T01
X000061Y000263
X000111Y000363
X000211
X000161Y000463
X000061
X000111Y000563
X000211
X0002987Y0006186
X000261Y000663
X000161
X000061
X000111Y000763
X000211
X000161Y000863
X000261
X000211Y000963
X000111
X000061Y001063
X000161
X000211Y001163
X000111
X000061Y001263
X000161
X000361
X000345Y0012045
X000461Y001263
X0005221Y0012042
X000661Y001263
X000711Y001363
X0007455Y0014253
X0006589Y0014275
X0005707Y0014271
X000611Y001363
X0010471Y0014259
X001111Y001363
X001061Y001263
X0011709Y0012478
X0012454Y0012476
X0013246Y0008597
X0012602Y0007755
X0012073Y0006321
X0012085Y0005176
X0012153Y0004255
X0011501Y0004755
X001161Y000304
X0010351Y0003066
X0009081Y0003065
X0007816Y0003026
X000811Y000363
X000711Y000163
X000261Y000263
X0004076Y0004771
X00043703Y00075567
X000382Y0007724
X0005333Y0007678
X0007214Y0007245
X000861Y000863
X000961
X0013247Y0003767
X0014062Y0002662
X000061Y000863
X0014735Y0009219
X0015426Y0009882
X0016369Y0009373
X0017931Y0008965
X0017914Y0008105
X0018499Y0007255
X0018817Y0006702
X001961Y000663
X001905Y000588
X0019Y000424
X001961Y000463
X001877Y000316
X0019Y000227
X001911Y000163
X001929Y000076
X001773Y000248
X001726Y000291
X0016764Y0002452
X001627Y000289
X0015764Y0002606
X0014833Y000293
X0014791Y000228
X001441Y000491
X001551
X001661
Y000601
X001551
X001441
Y000711
X001551
X001661
X001911Y000763
X001961Y000863
X001941Y000958
X001961Y001063
X001911Y001163
X001861Y001263
X001961
X001911Y001363
X001711Y001163
X001648Y001137
X001461Y001263
X0014855Y0013996
X001561Y001463
X001461Y001663
X001511Y001763
X001611
X0016521Y0018658
X001564Y0018652
X0014728Y0018664
X0014679Y0020338
X0015657
X0016446Y0020247
X001911Y001963
X001961Y002063
Y002263
X001911Y002363
X001918Y002482
X001961Y002663
X0018994Y0027877
X001811Y002763
X0017376Y002785
X0016105Y0027708
X0015047Y002753
X0015532Y0028771
X0018211Y0029297
X001961Y002863
X002111Y002763
X002211
X0021076Y0022264
X002111Y002163
X00234788Y00216674
X002361Y001863
X002261
X002161
X002061
X001961
X002011Y001763
X002111
X002211
X002311
X002411
X002211Y001963
X001911Y001763
X001961Y001663
X001911Y001563
X001961Y001463
X001361Y001663
X001411Y001763
X001311
X0012209Y0016746
X0011564Y0016747
X001061Y001663
X0010041Y0016341
X001011Y001763
X001111
X0013864Y0018662
X001411Y002163
X001211
X001261Y002263
X001211Y002363
X001261Y002463
X001211Y002563
X001161Y002663
X001261
X001061
X000961
X0008842Y0026828
X000861Y002463
X000961
X000911Y002363
X000861Y002063
X000961
X001261
X000711Y002163
X000411
X000461Y002263
Y002063
X000411Y001963
X000461Y001863
X000061
Y001663
Y001463
X0004856Y0014297
X000911Y001563
X000711Y002563
X000611
X0005385Y002547
X0005381Y002437
X000461Y002663
X000361
X000411Y002763
X000311
X000361Y002863
X000461
X000161Y002663
X000061
T02
X0004Y0
Y00008
X000527
Y0
X000654
Y00008
X000781
Y0
X000908
Y00008
X001035
Y0
X001162
Y00008
X001289
Y0
X001416Y0
Y00008
X001543
Y0
X00167
Y00008
X001797
Y0
X00242Y001933
X0025
Y00206
X00242
X002177Y00292
Y003
X00205Y003
Y00292
T03
X00015Y00015
X00235Y00285
M30
