M48
;Layer_Color=9474304
;FILE_FORMAT=4:4
METRIC,LZ
;TYPE=PLATED
T1F00S00C0.2000
T2F00S00C0.6000
%
T01
X000065Y00017
X000135Y00031
X000205
X000296Y000322
X000231Y000217
X000248Y000139
X000457Y000197
X000512Y000146
X000762Y000147
X000751Y000215
X000607Y000342
X000578Y000391
X000613Y000441
X000572Y000482
X000466Y000436
X000336Y000497
X000259Y000481
X0001879Y0006175
X0003375Y0006415
X0003915
X000386Y000563
X000409Y000851
X000472Y000948
X000542Y000897
X000552Y00081
X000555Y00073
X000672Y000959
X000685Y001015
X000686Y001078
X00061Y001095
X00064Y001213
X00051Y001214
X000268Y00107
X000266Y001009
X000139Y001005
X0001385Y0011355
X000163Y001304
X000835Y00129
X001017Y001127
X001025Y001044
X001153Y001045
X001161Y001104
X00123544Y00114987
X001132Y001209
X00108Y00094
X00108Y00083
X00114Y00082801
X0012454Y00089474
X001314Y000888
X00129959Y00096143
X0012479Y0009897
X001419Y000996
X00141157Y00081122
X001419Y000664
X001352Y000677
X001362Y0006065
X001428Y000567
X001362Y0004965
Y0003865
X0014285Y0003965
X0014269Y0003415
X001312Y00032
X001233
X001252Y0003865
X001142
X001073Y000377
X001086Y000321
X001079Y000449
X001142Y0004965
X001252
Y0006065
X001142
X00101Y000739
X0008675Y000845
X00089798Y00090399
X000765Y00087
X00089Y00058
X000898Y000522
X000915Y000467
X000919Y000382
X001044Y000102
X001166Y000155
X001226Y000139
X001272Y000185
X001343
X001299Y00137
X001419Y001361
X001487Y001405
X001556Y0014
X001561Y001345
X001565Y001276
X00162Y00127089
X001621Y001211
X001618Y001153
X001622Y001086
X001638Y001016
X001519Y000997
X001577Y000932
X001599Y000851
X0015056Y0008778
X0014304Y0009206
X00159046Y0007275
X001624Y000679
X0016284Y0006236
X001613Y000567
X0016495Y0005245
X001675Y00059
Y00073
X001678Y000372
X001658Y000314
X001592Y000292
X001587Y000224
Y000156
X00164Y0001
X001605Y00003
X001675
X0014745Y00024857
X001565Y001504
X001564Y001603
X001562Y001698
X001564Y001796
X00175Y00183
X001815Y00185
X001885
X00195Y00185
X002
X00205
X0021
X00215
X0020075Y0020815
X002015Y002298
Y002462
X001943Y002453
X001864Y002454
X0020895Y0024175
X002165Y00241
X001667Y002324
X001583Y002013
X001376Y001889
X001389Y001762
X001377Y001629
X00134Y001566
X001185Y00199
X00115Y0022
X00094
X00087
X0008
X00077Y002299
X000706Y002327
X000533Y00232
X000501Y002289
X000456Y002338
X00031Y00234
X00017
X000205Y00227
X000063Y002279
Y002149
X00006Y002022
X000063Y001889
X000062Y001755
X000061Y001626
X000063Y001494
X000205Y00171
X000275
X00031Y00178
Y00192
X00017
Y00178
X00031Y00164
X000444Y001553
X000578Y00155
X000555Y00185
X000573Y002182
X000833Y0021
X000964Y002098
X000904Y001982
X000829Y001954
X000833Y001707
X000905Y00227
X001325
X00136Y00234
T02
X000127Y0
Y00008
X000381
Y0
X000635
Y00008
X000889
Y0
X001143
Y00008
X00127
Y0
X001397
Y00008
X00008Y000381
X0
Y000508
X00008
Y000635
X0
Y000762
X00008
Y000889
X0
X001524Y000081
Y000001
M30
