G04 Layer_Color=16711935*
%FSLAX44Y44*%
%MOMM*%
G71*
G01*
G75*
%ADD58C,0.6532*%
%ADD59C,0.7032*%
%ADD60R,1.3032X1.2032*%
%ADD61R,1.2032X2.0032*%
%ADD62R,1.2032X1.0032*%
%ADD63R,1.7032X1.2032*%
%ADD64O,0.4532X1.1032*%
%ADD65O,1.1032X0.4532*%
%ADD66R,4.4032X3.6032*%
%ADD67O,0.6032X1.1532*%
G36*
X64773Y156409D02*
X64903Y156383D01*
X65030Y156340D01*
X65149Y156281D01*
X65260Y156207D01*
X65360Y156119D01*
X65448Y156019D01*
X65522Y155908D01*
X65581Y155789D01*
X65623Y155663D01*
X65649Y155532D01*
X65658Y155399D01*
Y151399D01*
X65649Y151266D01*
X65623Y151136D01*
X65581Y151010D01*
X65522Y150890D01*
X65448Y150780D01*
X65360Y150680D01*
X65260Y150592D01*
X65205Y150555D01*
X65360Y150400D01*
X65448Y150300D01*
X65522Y150189D01*
X65581Y150070D01*
X65623Y149944D01*
X65649Y149813D01*
X65658Y149680D01*
Y147680D01*
X65649Y147547D01*
X65623Y147416D01*
X65581Y147290D01*
X65522Y147171D01*
X65448Y147060D01*
X65360Y146960D01*
X65260Y146872D01*
X65149Y146798D01*
X65030Y146739D01*
X64903Y146697D01*
X64773Y146671D01*
X64640Y146662D01*
X60640D01*
X60507Y146671D01*
X60377Y146697D01*
X60250Y146739D01*
X60131Y146798D01*
X60020Y146872D01*
X59920Y146960D01*
X59832Y147060D01*
X59758Y147171D01*
X59699Y147290D01*
X59657Y147416D01*
X59630Y147547D01*
X59622Y147680D01*
Y149680D01*
X59630Y149813D01*
X59657Y149944D01*
X59699Y150070D01*
X59758Y150189D01*
X59832Y150300D01*
X59920Y150400D01*
X60075Y150555D01*
X60020Y150592D01*
X59920Y150680D01*
X59832Y150780D01*
X59758Y150890D01*
X59699Y151010D01*
X59657Y151136D01*
X59630Y151266D01*
X59622Y151399D01*
Y155399D01*
X59630Y155532D01*
X59657Y155663D01*
X59699Y155789D01*
X59758Y155908D01*
X59832Y156019D01*
X59920Y156119D01*
X60020Y156207D01*
X60131Y156281D01*
X60250Y156340D01*
X60377Y156383D01*
X60507Y156409D01*
X60640Y156418D01*
X64640D01*
X64773Y156409D01*
D02*
G37*
G36*
X73583D02*
X73713Y156383D01*
X73840Y156340D01*
X73959Y156281D01*
X74070Y156207D01*
X74170Y156119D01*
X74258Y156019D01*
X74332Y155908D01*
X74391Y155789D01*
X74433Y155663D01*
X74460Y155532D01*
X74468Y155399D01*
Y151399D01*
X74460Y151266D01*
X74433Y151136D01*
X74391Y151010D01*
X74332Y150890D01*
X74258Y150780D01*
X74170Y150680D01*
X74070Y150592D01*
X74015Y150555D01*
X74170Y150400D01*
X74258Y150300D01*
X74332Y150189D01*
X74391Y150070D01*
X74433Y149944D01*
X74460Y149813D01*
X74468Y149680D01*
Y147680D01*
X74460Y147547D01*
X74433Y147416D01*
X74391Y147290D01*
X74332Y147171D01*
X74258Y147060D01*
X74170Y146960D01*
X74070Y146872D01*
X73959Y146798D01*
X73840Y146739D01*
X73713Y146697D01*
X73583Y146671D01*
X73450Y146662D01*
X69450D01*
X69317Y146671D01*
X69187Y146697D01*
X69060Y146739D01*
X68941Y146798D01*
X68830Y146872D01*
X68730Y146960D01*
X68642Y147060D01*
X68568Y147171D01*
X68509Y147290D01*
X68467Y147416D01*
X68441Y147547D01*
X68432Y147680D01*
Y149680D01*
X68441Y149813D01*
X68467Y149944D01*
X68509Y150070D01*
X68568Y150189D01*
X68642Y150300D01*
X68730Y150400D01*
X68885Y150555D01*
X68830Y150592D01*
X68730Y150680D01*
X68642Y150780D01*
X68568Y150890D01*
X68509Y151010D01*
X68467Y151136D01*
X68441Y151266D01*
X68432Y151399D01*
Y155399D01*
X68441Y155532D01*
X68467Y155663D01*
X68509Y155789D01*
X68568Y155908D01*
X68642Y156019D01*
X68730Y156119D01*
X68830Y156207D01*
X68941Y156281D01*
X69060Y156340D01*
X69187Y156383D01*
X69317Y156409D01*
X69450Y156418D01*
X73450D01*
X73583Y156409D01*
D02*
G37*
G36*
X47013D02*
X47144Y156383D01*
X47270Y156340D01*
X47389Y156281D01*
X47500Y156207D01*
X47600Y156119D01*
X47688Y156019D01*
X47762Y155908D01*
X47821Y155789D01*
X47863Y155663D01*
X47889Y155532D01*
X47898Y155399D01*
Y151399D01*
X47889Y151266D01*
X47863Y151136D01*
X47821Y151010D01*
X47762Y150890D01*
X47688Y150780D01*
X47600Y150680D01*
X47500Y150592D01*
X47445Y150555D01*
X47600Y150400D01*
X47688Y150300D01*
X47762Y150189D01*
X47821Y150070D01*
X47863Y149944D01*
X47889Y149813D01*
X47898Y149680D01*
Y147680D01*
X47889Y147547D01*
X47863Y147416D01*
X47821Y147290D01*
X47762Y147171D01*
X47688Y147060D01*
X47600Y146960D01*
X47500Y146872D01*
X47389Y146798D01*
X47270Y146739D01*
X47144Y146697D01*
X47013Y146671D01*
X46880Y146662D01*
X42880D01*
X42747Y146671D01*
X42617Y146697D01*
X42490Y146739D01*
X42371Y146798D01*
X42260Y146872D01*
X42160Y146960D01*
X42072Y147060D01*
X41998Y147171D01*
X41939Y147290D01*
X41897Y147416D01*
X41870Y147547D01*
X41862Y147680D01*
Y149680D01*
X41870Y149813D01*
X41897Y149944D01*
X41939Y150070D01*
X41998Y150189D01*
X42072Y150300D01*
X42160Y150400D01*
X42315Y150555D01*
X42260Y150592D01*
X42160Y150680D01*
X42072Y150780D01*
X41998Y150890D01*
X41939Y151010D01*
X41897Y151136D01*
X41870Y151266D01*
X41862Y151399D01*
Y155399D01*
X41870Y155532D01*
X41897Y155663D01*
X41939Y155789D01*
X41998Y155908D01*
X42072Y156019D01*
X42160Y156119D01*
X42260Y156207D01*
X42371Y156281D01*
X42490Y156340D01*
X42617Y156383D01*
X42747Y156409D01*
X42880Y156418D01*
X46880D01*
X47013Y156409D01*
D02*
G37*
G36*
X55653D02*
X55784Y156383D01*
X55910Y156340D01*
X56029Y156281D01*
X56140Y156207D01*
X56240Y156119D01*
X56328Y156019D01*
X56402Y155908D01*
X56461Y155789D01*
X56504Y155663D01*
X56529Y155532D01*
X56538Y155399D01*
Y151399D01*
X56529Y151266D01*
X56504Y151136D01*
X56461Y151010D01*
X56402Y150890D01*
X56328Y150780D01*
X56240Y150680D01*
X56140Y150592D01*
X56085Y150555D01*
X56240Y150400D01*
X56328Y150300D01*
X56402Y150189D01*
X56461Y150070D01*
X56504Y149944D01*
X56529Y149813D01*
X56538Y149680D01*
Y147680D01*
X56529Y147547D01*
X56504Y147416D01*
X56461Y147290D01*
X56402Y147171D01*
X56328Y147060D01*
X56240Y146960D01*
X56140Y146872D01*
X56029Y146798D01*
X55910Y146739D01*
X55784Y146697D01*
X55653Y146671D01*
X55520Y146662D01*
X51520D01*
X51387Y146671D01*
X51256Y146697D01*
X51130Y146739D01*
X51011Y146798D01*
X50900Y146872D01*
X50800Y146960D01*
X50712Y147060D01*
X50638Y147171D01*
X50579Y147290D01*
X50536Y147416D01*
X50511Y147547D01*
X50502Y147680D01*
Y149680D01*
X50511Y149813D01*
X50536Y149944D01*
X50579Y150070D01*
X50638Y150189D01*
X50712Y150300D01*
X50800Y150400D01*
X50955Y150555D01*
X50900Y150592D01*
X50800Y150680D01*
X50712Y150780D01*
X50638Y150890D01*
X50579Y151010D01*
X50536Y151136D01*
X50511Y151266D01*
X50502Y151399D01*
Y155399D01*
X50511Y155532D01*
X50536Y155663D01*
X50579Y155789D01*
X50638Y155908D01*
X50712Y156019D01*
X50800Y156119D01*
X50900Y156207D01*
X51011Y156281D01*
X51130Y156340D01*
X51256Y156383D01*
X51387Y156409D01*
X51520Y156418D01*
X55520D01*
X55653Y156409D01*
D02*
G37*
G36*
X151333Y202439D02*
X151463Y202414D01*
X151590Y202371D01*
X151709Y202312D01*
X151820Y202238D01*
X151920Y202150D01*
X152008Y202050D01*
X152082Y201939D01*
X152141Y201820D01*
X152184Y201693D01*
X152210Y201563D01*
X152218Y201430D01*
Y197430D01*
X152210Y197297D01*
X152184Y197167D01*
X152141Y197040D01*
X152082Y196921D01*
X152008Y196810D01*
X151920Y196710D01*
X151820Y196622D01*
X151765Y196586D01*
X151920Y196431D01*
X152008Y196330D01*
X152082Y196220D01*
X152141Y196100D01*
X152184Y195974D01*
X152210Y195844D01*
X152218Y195711D01*
Y193711D01*
X152210Y193578D01*
X152184Y193447D01*
X152141Y193321D01*
X152082Y193202D01*
X152008Y193091D01*
X151920Y192991D01*
X151820Y192903D01*
X151709Y192829D01*
X151590Y192770D01*
X151463Y192727D01*
X151333Y192701D01*
X151200Y192692D01*
X147200D01*
X147067Y192701D01*
X146937Y192727D01*
X146810Y192770D01*
X146691Y192829D01*
X146580Y192903D01*
X146480Y192991D01*
X146392Y193091D01*
X146318Y193202D01*
X146259Y193321D01*
X146216Y193447D01*
X146191Y193578D01*
X146182Y193711D01*
Y195711D01*
X146191Y195844D01*
X146216Y195974D01*
X146259Y196100D01*
X146318Y196220D01*
X146392Y196330D01*
X146480Y196431D01*
X146635Y196586D01*
X146580Y196622D01*
X146480Y196710D01*
X146392Y196810D01*
X146318Y196921D01*
X146259Y197040D01*
X146216Y197167D01*
X146191Y197297D01*
X146182Y197430D01*
Y201430D01*
X146191Y201563D01*
X146216Y201693D01*
X146259Y201820D01*
X146318Y201939D01*
X146392Y202050D01*
X146480Y202150D01*
X146580Y202238D01*
X146691Y202312D01*
X146810Y202371D01*
X146937Y202414D01*
X147067Y202439D01*
X147200Y202448D01*
X151200D01*
X151333Y202439D01*
D02*
G37*
G36*
X160143D02*
X160273Y202414D01*
X160400Y202371D01*
X160519Y202312D01*
X160630Y202238D01*
X160730Y202150D01*
X160818Y202050D01*
X160892Y201939D01*
X160951Y201820D01*
X160993Y201693D01*
X161019Y201563D01*
X161028Y201430D01*
Y197430D01*
X161019Y197297D01*
X160993Y197167D01*
X160951Y197040D01*
X160892Y196921D01*
X160818Y196810D01*
X160730Y196710D01*
X160630Y196622D01*
X160575Y196586D01*
X160730Y196431D01*
X160818Y196330D01*
X160892Y196220D01*
X160951Y196100D01*
X160993Y195974D01*
X161019Y195844D01*
X161028Y195711D01*
Y193711D01*
X161019Y193578D01*
X160993Y193447D01*
X160951Y193321D01*
X160892Y193202D01*
X160818Y193091D01*
X160730Y192991D01*
X160630Y192903D01*
X160519Y192829D01*
X160400Y192770D01*
X160273Y192727D01*
X160143Y192701D01*
X160010Y192692D01*
X156010D01*
X155877Y192701D01*
X155746Y192727D01*
X155620Y192770D01*
X155501Y192829D01*
X155390Y192903D01*
X155290Y192991D01*
X155202Y193091D01*
X155128Y193202D01*
X155069Y193321D01*
X155027Y193447D01*
X155001Y193578D01*
X154992Y193711D01*
Y195711D01*
X155001Y195844D01*
X155027Y195974D01*
X155069Y196100D01*
X155128Y196220D01*
X155202Y196330D01*
X155290Y196431D01*
X155445Y196586D01*
X155390Y196622D01*
X155290Y196710D01*
X155202Y196810D01*
X155128Y196921D01*
X155069Y197040D01*
X155027Y197167D01*
X155001Y197297D01*
X154992Y197430D01*
Y201430D01*
X155001Y201563D01*
X155027Y201693D01*
X155069Y201820D01*
X155128Y201939D01*
X155202Y202050D01*
X155290Y202150D01*
X155390Y202238D01*
X155501Y202312D01*
X155620Y202371D01*
X155746Y202414D01*
X155877Y202439D01*
X156010Y202448D01*
X160010D01*
X160143Y202439D01*
D02*
G37*
G36*
X133573D02*
X133703Y202414D01*
X133830Y202371D01*
X133949Y202312D01*
X134060Y202238D01*
X134160Y202150D01*
X134248Y202050D01*
X134322Y201939D01*
X134381Y201820D01*
X134424Y201693D01*
X134450Y201563D01*
X134458Y201430D01*
Y197430D01*
X134450Y197297D01*
X134424Y197167D01*
X134381Y197040D01*
X134322Y196921D01*
X134248Y196810D01*
X134160Y196710D01*
X134060Y196622D01*
X134005Y196586D01*
X134160Y196431D01*
X134248Y196330D01*
X134322Y196220D01*
X134381Y196100D01*
X134424Y195974D01*
X134450Y195844D01*
X134458Y195711D01*
Y193711D01*
X134450Y193578D01*
X134424Y193447D01*
X134381Y193321D01*
X134322Y193202D01*
X134248Y193091D01*
X134160Y192991D01*
X134060Y192903D01*
X133949Y192829D01*
X133830Y192770D01*
X133703Y192727D01*
X133573Y192701D01*
X133440Y192692D01*
X129440D01*
X129307Y192701D01*
X129177Y192727D01*
X129050Y192770D01*
X128931Y192829D01*
X128820Y192903D01*
X128720Y192991D01*
X128632Y193091D01*
X128558Y193202D01*
X128499Y193321D01*
X128456Y193447D01*
X128431Y193578D01*
X128422Y193711D01*
Y195711D01*
X128431Y195844D01*
X128456Y195974D01*
X128499Y196100D01*
X128558Y196220D01*
X128632Y196330D01*
X128720Y196431D01*
X128875Y196586D01*
X128820Y196622D01*
X128720Y196710D01*
X128632Y196810D01*
X128558Y196921D01*
X128499Y197040D01*
X128456Y197167D01*
X128431Y197297D01*
X128422Y197430D01*
Y201430D01*
X128431Y201563D01*
X128456Y201693D01*
X128499Y201820D01*
X128558Y201939D01*
X128632Y202050D01*
X128720Y202150D01*
X128820Y202238D01*
X128931Y202312D01*
X129050Y202371D01*
X129177Y202414D01*
X129307Y202439D01*
X129440Y202448D01*
X133440D01*
X133573Y202439D01*
D02*
G37*
G36*
X142213D02*
X142344Y202414D01*
X142470Y202371D01*
X142589Y202312D01*
X142700Y202238D01*
X142800Y202150D01*
X142888Y202050D01*
X142962Y201939D01*
X143021Y201820D01*
X143063Y201693D01*
X143090Y201563D01*
X143098Y201430D01*
Y197430D01*
X143090Y197297D01*
X143063Y197167D01*
X143021Y197040D01*
X142962Y196921D01*
X142888Y196810D01*
X142800Y196710D01*
X142700Y196622D01*
X142645Y196586D01*
X142800Y196431D01*
X142888Y196330D01*
X142962Y196220D01*
X143021Y196100D01*
X143063Y195974D01*
X143090Y195844D01*
X143098Y195711D01*
Y193711D01*
X143090Y193578D01*
X143063Y193447D01*
X143021Y193321D01*
X142962Y193202D01*
X142888Y193091D01*
X142800Y192991D01*
X142700Y192903D01*
X142589Y192829D01*
X142470Y192770D01*
X142344Y192727D01*
X142213Y192701D01*
X142080Y192692D01*
X138080D01*
X137947Y192701D01*
X137816Y192727D01*
X137690Y192770D01*
X137571Y192829D01*
X137460Y192903D01*
X137360Y192991D01*
X137272Y193091D01*
X137198Y193202D01*
X137139Y193321D01*
X137097Y193447D01*
X137071Y193578D01*
X137062Y193711D01*
Y195711D01*
X137071Y195844D01*
X137097Y195974D01*
X137139Y196100D01*
X137198Y196220D01*
X137272Y196330D01*
X137360Y196431D01*
X137515Y196586D01*
X137460Y196622D01*
X137360Y196710D01*
X137272Y196810D01*
X137198Y196921D01*
X137139Y197040D01*
X137097Y197167D01*
X137071Y197297D01*
X137062Y197430D01*
Y201430D01*
X137071Y201563D01*
X137097Y201693D01*
X137139Y201820D01*
X137198Y201939D01*
X137272Y202050D01*
X137360Y202150D01*
X137460Y202238D01*
X137571Y202312D01*
X137690Y202371D01*
X137816Y202414D01*
X137947Y202439D01*
X138080Y202448D01*
X142080D01*
X142213Y202439D01*
D02*
G37*
D58*
X118000Y63400D02*
D03*
X70500D02*
D03*
Y15800D02*
D03*
D59*
X83200Y50800D02*
D03*
X94200D02*
D03*
X105200D02*
D03*
X83200Y39800D02*
D03*
X94200D02*
D03*
X105200D02*
D03*
X83200Y28800D02*
D03*
X94200D02*
D03*
X105200D02*
D03*
D60*
X40100Y171950D02*
D03*
X76500D02*
D03*
D61*
X7300Y283200D02*
D03*
Y211200D02*
D03*
X109300D02*
D03*
Y283200D02*
D03*
D62*
X9300Y230700D02*
D03*
Y242700D02*
D03*
Y254700D02*
D03*
X107300D02*
D03*
Y242700D02*
D03*
Y230700D02*
D03*
D63*
X135000Y137750D02*
D03*
D64*
X145000Y149250D02*
D03*
X140000D02*
D03*
X135000D02*
D03*
X130000D02*
D03*
X125000D02*
D03*
Y126250D02*
D03*
X130000D02*
D03*
X135000D02*
D03*
X140000D02*
D03*
X145000D02*
D03*
D65*
X121000Y140250D02*
D03*
Y135250D02*
D03*
X149000D02*
D03*
Y140250D02*
D03*
D66*
X147500Y246000D02*
D03*
D67*
X166550Y274750D02*
D03*
X153850D02*
D03*
X141150D02*
D03*
X128450D02*
D03*
Y217250D02*
D03*
X141150D02*
D03*
X153850D02*
D03*
X166550D02*
D03*
M02*
