M48
;Layer_Color=9474304
;FILE_FORMAT=4:4
METRIC,LZ
;TYPE=PLATED
T1F00S00C0.2000
T2F00S00C0.6000
T3F00S00C2.2000
%
T01
X0002948Y000058
X000505Y000203
X000639Y00024
X000705Y000189
X000848Y000227
X000965Y000226
X0009081Y0003065
X001027Y000312
X001161Y000304
X0012153Y0004255
X0012164Y0005255
X0012139Y0006255
X00126Y000775
X0012584Y0008314
X00139Y000918
X0012454Y0012476
X0011709Y0012478
X0010471Y0014259
X000744Y001425
X00065767Y00142533
X00057133Y00142633
X000485Y001426
X000336Y001428
X000338Y001369
X000491Y001183
X0003879Y0010711
X000253Y001108
X0002035Y0009915
X000272Y000777
X000382Y0007724
X00043703Y00075567
X0005333Y0007678
X0007214Y0007245
X00077Y00087789
X000831Y001179
X000774Y00127
X0006879Y0012711
X00076003Y00044703
X0007816Y0003026
X0010092Y0004947
X0011501Y0004755
X001323Y00036
X0014062Y0002662
X0002987Y0006186
X000223Y000641
X0002379Y0005711
X000073Y000526
X0000379Y0007927
X001441Y000711
Y000601
Y000491
X001551
X001661
Y000601
X001551
Y000711
X001661
X001867Y000727
X0018817Y0006702
X001905Y000588
X00191Y0004117
X00187796Y00031645
X0019338Y0002218
X001913Y0000636
X0016764Y0002452
X001627Y000289
X0015764Y0002606
X0014755Y0003072
X001465Y000216
X0014735Y0009219
X0015426Y0009882
X001626Y00094699
X001648Y001137
X0014879Y0012711
X0014855Y0013996
X0015379Y0013711
X0019379
X0018879Y0012711
X0019379Y0011711
X001941Y000958
X0019379Y0007711
X0017914Y0008105
X0017931Y0008965
X0019379Y0015711
Y0017711
X0020379
X0021379
X0022379
X0023379
X0024379
X0022879Y0018711
X0021879
X0020879
X0019879
X0021379Y0019711
X0021076Y0022264
X0019155Y0021408
X0019379Y0023711
X001918Y002491
X0019016Y0026478
X001987Y002726
X002134Y002723
X002138Y00278199
X0018997Y0028284
X0017376Y002785
X0016105Y0027708
X0015047Y002753
X0015532Y0028771
X0015657Y0020338
X0016446Y0020247
X0016521Y0018658
X001564Y0018652
X0014728Y0018664
X0014679Y0020338
X00234788Y002174
X0023152Y0024805
X0012879Y0024711
X0011879
X0012379Y0025711
X0012879Y0026711
X0011879
X0010879
X0009879
X0008842Y0026828
X0008379Y0025711
X0006379
X0005385Y002547
X0005381Y002437
X0003379Y0023711
Y0021711
Y0019711
X0004879Y0020711
Y0018711
X0003379Y0015711
X0009379
X000963Y001491
X000879Y001451
X0010041Y0016341
X0010879Y0016711
X0011564Y0016747
X0012209Y0016746
X0012879Y0016711
X0013879
X0013864Y0018662
X0012879Y0020711
X0012379Y0021711
X0012879Y0022711
X0012379Y0023711
X0009879Y0024711
Y0022711
Y0020711
X0008879
X0008379Y0021711
Y0019711
X0009379
X0010379
X0011594Y0029422
X0004379Y0027711
X0003379
X0003879Y0026711
X0004879
T02
X0004Y0
Y00008
X000527
Y0
X000654
Y00008
X000781
Y0
X000908
Y00008
X001035
Y0
X001162
Y00008
X001289
Y0
X001416Y0
Y00008
X001543
Y0
X00167
Y00008
X001797
Y0
X00242Y001933
X0025
Y00206
X00242
X002177Y00292
Y003
X00205Y003
Y00292
T03
X00015Y00015
X00235Y00285
M30
