M48
;Layer_Color=9474304
;FILE_FORMAT=4:4
METRIC,LZ
;TYPE=PLATED
T1F00S00C0.1500
T2F00S00C0.2000
T3F00S00C0.6000
T4F00S00C2.2000
%
T01
X001929Y000076
X0019Y000318
T02
X00011Y00036
X00021
X00016Y00046
X00006
X00011Y00056
X00021
X0002987Y0006186
X00016Y00066
X00006
X00011Y00076
X00021
X00016Y00086
X00026
X00021Y00096
X00011
X00006Y00106
X00016
X00021Y00116
X00011
X00006Y00126
X00016
X000345Y0012045
X00046Y00126
X0005221Y0012042
X00061Y00136
X00071
X0007455Y0014253
X0006589Y0014275
X0005707Y0014271
X0010471Y0014259
X00111Y00136
X00106Y00126
X0011709Y0012478
X0012454Y0012476
X0013246Y0008597
X0012602Y0007755
X0012073Y0006321
X0012085Y0005176
X0012153Y0004255
X0011501Y0004755
X001161Y000304
X0010351Y0003066
X0009081Y0003065
X0007816Y0003026
X00081Y00036
X00071Y00016
X00031
X00026Y00026
X0004076Y0004771
X00043703Y00075567
X000382Y0007724
X0007214Y0007245
X00086Y00086
X00096
X0013247Y0003767
X0014062Y0002662
X00006Y00086
X0014735Y0009219
X0015426Y0009882
X0016369Y0009373
X0017931Y0008965
X0017914Y0008105
X0018499Y0007255
X0018817Y0006702
X00196Y00066
X00191Y00076
X00196Y00086
Y00106
X00191Y00116
X00186Y00126
X00196
X00191Y00136
X00166Y00126
X001648Y001137
X00171Y00116
X00146Y00126
X0014855Y0013996
X001441Y000711
X001551
X001661
Y000601
X001551
X001441
Y000491
X001551
X001661
X001627Y000289
X0015764Y0002606
X0016764Y0002452
X0017264Y0002902
X0014833Y000293
X0014791Y000228
X00191Y00016
X00196Y00046
Y00146
X00191Y00156
X00196Y00166
X00201Y00176
X00211
X00221
X00231
X00241
X00236Y00186
X00226
X00216
X00206
X00211Y00196
X00221
Y00216
X00211
X002049Y002028
X00196Y00206
X00191Y00216
X00196Y00226
X00191Y00236
Y00256
X00196Y00266
X0018994Y0027877
X00181Y00276
X0017376Y002785
X0016105Y0027708
X0015047Y002753
X0015532Y0028771
X0018211Y0029297
X00196Y00286
X00211Y00276
X00221
X00211Y00256
X00226Y00246
X00231Y00216
X00241
X00191Y00196
X0016446Y0020247
X0015657Y0020338
X0014679
X0014728Y0018664
X001564Y0018652
X0016521Y0018658
X00161Y00176
X00151
X00146Y00166
X00156
Y00146
X00136Y00166
X00141Y00176
X00131
X0012209Y0016746
X0011564Y0016747
X00106Y00166
X0010041Y0016341
X00101Y00176
X00111
X0013864Y0018662
X00141Y00216
X00121
X00126Y00226
X00121Y00236
X00126Y00246
X00121Y00256
X00116Y00266
X00106
X00096
X0008842Y0026828
X00086Y00246
X00096
X00091Y00236
X00086Y00206
X00096
X00126
Y00266
X00071Y00256
X00061
X0005385Y002547
X0005381Y002437
X00046Y00226
X00041Y00216
X00046Y00206
X00041Y00196
X00046Y00186
X00006
Y00166
Y00146
X0004856Y0014297
X00091Y00156
X00071Y00216
X00046Y00266
X00036
X00041Y00276
X00031
X00036Y00286
X00046
X00016Y00266
X00006
T03
X0004Y0
Y00008
X000527
Y0
X000654
Y00008
X000781
Y0
X000908
Y00008
X001035
Y0
X001162
Y00008
X001289
Y0
X001416Y0
Y00008
X001543
Y0
X00167
Y00008
X001797
Y0
X00242Y001933
X0025
Y00206
X00242
X002177Y00292
Y003
X00205Y003
Y00292
T04
X00015Y00015
X00235Y00285
M30
