G04*
G04 #@! TF.GenerationSoftware,Altium Limited,Altium Designer,18.1.1 (9)*
G04*
G04 Layer_Color=8388736*
%FSLAX44Y44*%
%MOMM*%
G71*
G01*
G75*
%ADD40R,0.8000X1.2000*%
%ADD41R,1.2000X0.8000*%
%ADD42R,1.2032X1.3032*%
%ADD43R,2.0032X1.2032*%
%ADD44R,1.0032X1.2032*%
%ADD45C,1.0032*%
%ADD46R,3.6032X4.4032*%
%ADD47O,1.1532X0.8032*%
%ADD48R,0.7032X0.4532*%
%ADD49R,0.4032X0.4532*%
%ADD50R,0.6032X0.8032*%
%ADD51O,1.1032X0.4532*%
%ADD52O,0.4532X1.1032*%
%ADD53R,1.7032X1.2032*%
%ADD54R,1.0532X0.9532*%
%ADD55R,0.8032X0.6032*%
%ADD56C,0.4532*%
G04:AMPARAMS|DCode=57|XSize=0.6532mm|YSize=0.4332mm|CornerRadius=0mm|HoleSize=0mm|Usage=FLASHONLY|Rotation=0.000|XOffset=0mm|YOffset=0mm|HoleType=Round|Shape=Octagon|*
%AMOCTAGOND57*
4,1,8,0.3266,-0.1083,0.3266,0.1083,0.2183,0.2166,-0.2183,0.2166,-0.3266,0.1083,-0.3266,-0.1083,-0.2183,-0.2166,0.2183,-0.2166,0.3266,-0.1083,0.0*
%
%ADD57OCTAGOND57*%

%ADD58R,2.2032X3.2032*%
%ADD59C,0.4232*%
%ADD60R,3.0032X3.0032*%
%ADD61O,0.4032X1.0532*%
%ADD62O,1.0532X0.4032*%
%ADD63C,0.8032*%
G36*
X153633Y182509D02*
X153764Y182484D01*
X153890Y182441D01*
X154009Y182382D01*
X154120Y182308D01*
X154220Y182220D01*
X154308Y182120D01*
X154382Y182009D01*
X154441Y181890D01*
X154483Y181763D01*
X154509Y181633D01*
X154518Y181500D01*
Y177500D01*
X154509Y177367D01*
X154483Y177236D01*
X154441Y177110D01*
X154382Y176991D01*
X154308Y176880D01*
X154220Y176780D01*
X154120Y176692D01*
X154009Y176618D01*
X153890Y176559D01*
X153764Y176516D01*
X153633Y176490D01*
X153500Y176482D01*
X151500D01*
X151367Y176490D01*
X151236Y176516D01*
X151110Y176559D01*
X150991Y176618D01*
X150880Y176692D01*
X150780Y176780D01*
X150428Y177132D01*
X150421Y177110D01*
X150362Y176991D01*
X150288Y176880D01*
X150201Y176780D01*
X150100Y176692D01*
X149990Y176618D01*
X149870Y176559D01*
X149744Y176516D01*
X149614Y176490D01*
X149481Y176482D01*
X145481D01*
X145348Y176490D01*
X145217Y176516D01*
X145091Y176559D01*
X144972Y176618D01*
X144861Y176692D01*
X144761Y176780D01*
X144673Y176880D01*
X144599Y176991D01*
X144540Y177110D01*
X144497Y177236D01*
X144471Y177367D01*
X144462Y177500D01*
Y181500D01*
X144471Y181633D01*
X144497Y181763D01*
X144540Y181890D01*
X144599Y182009D01*
X144673Y182120D01*
X144761Y182220D01*
X144861Y182308D01*
X144972Y182382D01*
X145091Y182441D01*
X145217Y182484D01*
X145348Y182509D01*
X145481Y182518D01*
X149481D01*
X149614Y182509D01*
X149744Y182484D01*
X149870Y182441D01*
X149990Y182382D01*
X150100Y182308D01*
X150201Y182220D01*
X150288Y182120D01*
X150362Y182009D01*
X150421Y181890D01*
X150428Y181868D01*
X150780Y182220D01*
X150880Y182308D01*
X150991Y182382D01*
X151110Y182441D01*
X151236Y182484D01*
X151367Y182509D01*
X151500Y182518D01*
X153500D01*
X153633Y182509D01*
D02*
G37*
G36*
Y172843D02*
X153764Y172817D01*
X153890Y172774D01*
X154009Y172715D01*
X154120Y172641D01*
X154220Y172553D01*
X154308Y172453D01*
X154382Y172342D01*
X154441Y172223D01*
X154483Y172097D01*
X154509Y171966D01*
X154518Y171833D01*
Y167833D01*
X154509Y167700D01*
X154483Y167570D01*
X154441Y167444D01*
X154382Y167324D01*
X154308Y167213D01*
X154220Y167113D01*
X154120Y167026D01*
X154009Y166952D01*
X153890Y166893D01*
X153764Y166850D01*
X153633Y166824D01*
X153500Y166815D01*
X151500D01*
X151367Y166824D01*
X151236Y166850D01*
X151110Y166893D01*
X150991Y166952D01*
X150880Y167026D01*
X150780Y167113D01*
X150428Y167465D01*
X150421Y167444D01*
X150362Y167324D01*
X150288Y167213D01*
X150201Y167113D01*
X150100Y167026D01*
X149990Y166952D01*
X149870Y166893D01*
X149744Y166850D01*
X149614Y166824D01*
X149481Y166815D01*
X145481D01*
X145348Y166824D01*
X145217Y166850D01*
X145091Y166893D01*
X144972Y166952D01*
X144861Y167026D01*
X144761Y167113D01*
X144673Y167213D01*
X144599Y167324D01*
X144540Y167444D01*
X144497Y167570D01*
X144471Y167700D01*
X144462Y167833D01*
Y171833D01*
X144471Y171966D01*
X144497Y172097D01*
X144540Y172223D01*
X144599Y172342D01*
X144673Y172453D01*
X144761Y172553D01*
X144861Y172641D01*
X144972Y172715D01*
X145091Y172774D01*
X145217Y172817D01*
X145348Y172843D01*
X145481Y172852D01*
X149481D01*
X149614Y172843D01*
X149744Y172817D01*
X149870Y172774D01*
X149990Y172715D01*
X150100Y172641D01*
X150201Y172553D01*
X150288Y172453D01*
X150362Y172342D01*
X150421Y172223D01*
X150428Y172202D01*
X150780Y172553D01*
X150880Y172641D01*
X150991Y172715D01*
X151110Y172774D01*
X151236Y172817D01*
X151367Y172843D01*
X151500Y172852D01*
X153500D01*
X153633Y172843D01*
D02*
G37*
G36*
Y163176D02*
X153764Y163150D01*
X153890Y163107D01*
X154009Y163048D01*
X154120Y162974D01*
X154220Y162887D01*
X154308Y162787D01*
X154382Y162676D01*
X154441Y162556D01*
X154483Y162430D01*
X154509Y162299D01*
X154518Y162167D01*
Y158167D01*
X154509Y158034D01*
X154483Y157903D01*
X154441Y157777D01*
X154382Y157658D01*
X154308Y157547D01*
X154220Y157447D01*
X154120Y157359D01*
X154009Y157285D01*
X153890Y157226D01*
X153764Y157183D01*
X153633Y157157D01*
X153500Y157149D01*
X151500D01*
X151367Y157157D01*
X151236Y157183D01*
X151110Y157226D01*
X150991Y157285D01*
X150880Y157359D01*
X150780Y157447D01*
X150428Y157798D01*
X150421Y157777D01*
X150362Y157658D01*
X150288Y157547D01*
X150201Y157447D01*
X150100Y157359D01*
X149990Y157285D01*
X149870Y157226D01*
X149744Y157183D01*
X149614Y157157D01*
X149481Y157149D01*
X145481D01*
X145348Y157157D01*
X145217Y157183D01*
X145091Y157226D01*
X144972Y157285D01*
X144861Y157359D01*
X144761Y157447D01*
X144673Y157547D01*
X144599Y157658D01*
X144540Y157777D01*
X144497Y157903D01*
X144471Y158034D01*
X144462Y158167D01*
Y162167D01*
X144471Y162299D01*
X144497Y162430D01*
X144540Y162556D01*
X144599Y162676D01*
X144673Y162787D01*
X144761Y162887D01*
X144861Y162974D01*
X144972Y163048D01*
X145091Y163107D01*
X145217Y163150D01*
X145348Y163176D01*
X145481Y163185D01*
X149481D01*
X149614Y163176D01*
X149744Y163150D01*
X149870Y163107D01*
X149990Y163048D01*
X150100Y162974D01*
X150201Y162887D01*
X150288Y162787D01*
X150362Y162676D01*
X150421Y162556D01*
X150428Y162535D01*
X150780Y162887D01*
X150880Y162974D01*
X150991Y163048D01*
X151110Y163107D01*
X151236Y163150D01*
X151367Y163176D01*
X151500Y163185D01*
X153500D01*
X153633Y163176D01*
D02*
G37*
G36*
Y153510D02*
X153764Y153483D01*
X153890Y153441D01*
X154009Y153382D01*
X154120Y153308D01*
X154220Y153220D01*
X154308Y153120D01*
X154382Y153009D01*
X154441Y152890D01*
X154483Y152764D01*
X154509Y152633D01*
X154518Y152500D01*
Y148500D01*
X154509Y148367D01*
X154483Y148237D01*
X154441Y148110D01*
X154382Y147991D01*
X154308Y147880D01*
X154220Y147780D01*
X154120Y147692D01*
X154009Y147618D01*
X153890Y147559D01*
X153764Y147516D01*
X153633Y147491D01*
X153500Y147482D01*
X151500D01*
X151367Y147491D01*
X151236Y147516D01*
X151110Y147559D01*
X150991Y147618D01*
X150880Y147692D01*
X150780Y147780D01*
X150428Y148132D01*
X150421Y148110D01*
X150362Y147991D01*
X150288Y147880D01*
X150201Y147780D01*
X150100Y147692D01*
X149990Y147618D01*
X149870Y147559D01*
X149744Y147516D01*
X149614Y147491D01*
X149481Y147482D01*
X145481D01*
X145348Y147491D01*
X145217Y147516D01*
X145091Y147559D01*
X144972Y147618D01*
X144861Y147692D01*
X144761Y147780D01*
X144673Y147880D01*
X144599Y147991D01*
X144540Y148110D01*
X144497Y148237D01*
X144471Y148367D01*
X144462Y148500D01*
Y152500D01*
X144471Y152633D01*
X144497Y152764D01*
X144540Y152890D01*
X144599Y153009D01*
X144673Y153120D01*
X144761Y153220D01*
X144861Y153308D01*
X144972Y153382D01*
X145091Y153441D01*
X145217Y153483D01*
X145348Y153510D01*
X145481Y153518D01*
X149481D01*
X149614Y153510D01*
X149744Y153483D01*
X149870Y153441D01*
X149990Y153382D01*
X150100Y153308D01*
X150201Y153220D01*
X150288Y153120D01*
X150362Y153009D01*
X150421Y152890D01*
X150428Y152868D01*
X150780Y153220D01*
X150880Y153308D01*
X150991Y153382D01*
X151110Y153441D01*
X151236Y153483D01*
X151367Y153510D01*
X151500Y153518D01*
X153500D01*
X153633Y153510D01*
D02*
G37*
G36*
X48833Y50409D02*
X48963Y50384D01*
X49090Y50341D01*
X49209Y50282D01*
X49320Y50208D01*
X49420Y50120D01*
X49508Y50020D01*
X49582Y49909D01*
X49641Y49790D01*
X49683Y49664D01*
X49710Y49533D01*
X49718Y49400D01*
Y45400D01*
X49710Y45267D01*
X49683Y45136D01*
X49641Y45010D01*
X49582Y44891D01*
X49508Y44780D01*
X49420Y44680D01*
X49320Y44592D01*
X49209Y44518D01*
X49090Y44459D01*
X48963Y44416D01*
X48833Y44391D01*
X48700Y44382D01*
X44700D01*
X44567Y44391D01*
X44436Y44416D01*
X44310Y44459D01*
X44191Y44518D01*
X44080Y44592D01*
X43980Y44680D01*
X43892Y44780D01*
X43818Y44891D01*
X43759Y45010D01*
X43752Y45032D01*
X43401Y44680D01*
X43300Y44592D01*
X43190Y44518D01*
X43070Y44459D01*
X42944Y44416D01*
X42814Y44391D01*
X42681Y44382D01*
X40681D01*
X40548Y44391D01*
X40417Y44416D01*
X40291Y44459D01*
X40171Y44518D01*
X40061Y44592D01*
X39961Y44680D01*
X39873Y44780D01*
X39799Y44891D01*
X39740Y45010D01*
X39697Y45136D01*
X39671Y45267D01*
X39662Y45400D01*
Y49400D01*
X39671Y49533D01*
X39697Y49664D01*
X39740Y49790D01*
X39799Y49909D01*
X39873Y50020D01*
X39961Y50120D01*
X40061Y50208D01*
X40171Y50282D01*
X40291Y50341D01*
X40417Y50384D01*
X40548Y50409D01*
X40681Y50418D01*
X42681D01*
X42814Y50409D01*
X42944Y50384D01*
X43070Y50341D01*
X43190Y50282D01*
X43300Y50208D01*
X43401Y50120D01*
X43752Y49768D01*
X43759Y49790D01*
X43818Y49909D01*
X43892Y50020D01*
X43980Y50120D01*
X44080Y50208D01*
X44191Y50282D01*
X44310Y50341D01*
X44436Y50384D01*
X44567Y50409D01*
X44700Y50418D01*
X48700D01*
X48833Y50409D01*
D02*
G37*
G36*
X54366Y8910D02*
X54497Y8884D01*
X54623Y8841D01*
X54742Y8782D01*
X54853Y8708D01*
X54953Y8620D01*
X55041Y8520D01*
X55115Y8409D01*
X55174Y8290D01*
X55217Y8163D01*
X55243Y8033D01*
X55251Y7900D01*
Y3900D01*
X55243Y3767D01*
X55217Y3636D01*
X55174Y3510D01*
X55115Y3391D01*
X55041Y3280D01*
X54953Y3180D01*
X54853Y3092D01*
X54742Y3018D01*
X54623Y2959D01*
X54497Y2916D01*
X54366Y2891D01*
X54233Y2882D01*
X52233D01*
X52100Y2891D01*
X51969Y2916D01*
X51843Y2959D01*
X51724Y3018D01*
X51613Y3092D01*
X51513Y3180D01*
X51162Y3532D01*
X51154Y3510D01*
X51095Y3391D01*
X51021Y3280D01*
X50934Y3180D01*
X50834Y3092D01*
X50723Y3018D01*
X50603Y2959D01*
X50477Y2916D01*
X50347Y2891D01*
X50214Y2882D01*
X46214D01*
X46081Y2891D01*
X45950Y2916D01*
X45824Y2959D01*
X45705Y3018D01*
X45594Y3092D01*
X45494Y3180D01*
X45406Y3280D01*
X45332Y3391D01*
X45273Y3510D01*
X45230Y3636D01*
X45204Y3767D01*
X45195Y3900D01*
Y7900D01*
X45204Y8033D01*
X45230Y8163D01*
X45273Y8290D01*
X45332Y8409D01*
X45406Y8520D01*
X45494Y8620D01*
X45594Y8708D01*
X45705Y8782D01*
X45824Y8841D01*
X45950Y8884D01*
X46081Y8910D01*
X46214Y8918D01*
X50214D01*
X50347Y8910D01*
X50477Y8884D01*
X50603Y8841D01*
X50723Y8782D01*
X50834Y8708D01*
X50934Y8620D01*
X51021Y8520D01*
X51095Y8409D01*
X51154Y8290D01*
X51162Y8268D01*
X51513Y8620D01*
X51613Y8708D01*
X51724Y8782D01*
X51843Y8841D01*
X51969Y8884D01*
X52100Y8910D01*
X52233Y8918D01*
X54233D01*
X54366Y8910D01*
D02*
G37*
G36*
X105233D02*
X105363Y8884D01*
X105489Y8841D01*
X105609Y8782D01*
X105720Y8708D01*
X105820Y8620D01*
X105907Y8520D01*
X105982Y8409D01*
X106040Y8290D01*
X106083Y8163D01*
X106109Y8033D01*
X106118Y7900D01*
Y3900D01*
X106109Y3767D01*
X106083Y3636D01*
X106040Y3510D01*
X105982Y3391D01*
X105907Y3280D01*
X105820Y3180D01*
X105720Y3092D01*
X105609Y3018D01*
X105489Y2959D01*
X105363Y2916D01*
X105233Y2891D01*
X105100Y2882D01*
X103100D01*
D01*
X103100D01*
X102967Y2891D01*
X102836Y2916D01*
X102710Y2959D01*
X102591Y3018D01*
X102480Y3092D01*
X102380Y3180D01*
X102028Y3532D01*
X102021Y3510D01*
X101962Y3391D01*
X101888Y3280D01*
X101800Y3180D01*
X101700Y3092D01*
X101589Y3018D01*
X101470Y2959D01*
X101344Y2916D01*
X101213Y2891D01*
X101080Y2882D01*
X97080D01*
X96947Y2891D01*
X96817Y2916D01*
X96691Y2959D01*
X96571Y3018D01*
X96461Y3092D01*
X96360Y3180D01*
X96273Y3280D01*
X96199Y3391D01*
X96140Y3510D01*
X96097Y3636D01*
X96071Y3767D01*
X96062Y3900D01*
Y7900D01*
X96071Y8033D01*
X96097Y8163D01*
X96140Y8290D01*
X96199Y8409D01*
X96273Y8520D01*
X96360Y8620D01*
X96461Y8708D01*
X96571Y8782D01*
X96691Y8841D01*
X96817Y8884D01*
X96947Y8910D01*
X97080Y8918D01*
X101080D01*
X101213Y8910D01*
X101344Y8884D01*
X101470Y8841D01*
X101589Y8782D01*
X101700Y8708D01*
X101800Y8620D01*
X101888Y8520D01*
X101962Y8409D01*
X102021Y8290D01*
X102028Y8268D01*
X102380Y8620D01*
X102480Y8708D01*
X102591Y8782D01*
X102710Y8841D01*
X102836Y8884D01*
X102967Y8910D01*
X103100Y8918D01*
X105100D01*
X105233Y8910D01*
D02*
G37*
G36*
X79799D02*
X79930Y8884D01*
X80056Y8841D01*
X80176Y8782D01*
X80286Y8708D01*
X80386Y8620D01*
X80474Y8520D01*
X80548Y8409D01*
X80607Y8290D01*
X80650Y8163D01*
X80676Y8033D01*
X80685Y7900D01*
Y3900D01*
X80676Y3767D01*
X80650Y3636D01*
X80607Y3510D01*
X80548Y3391D01*
X80474Y3280D01*
X80386Y3180D01*
X80286Y3092D01*
X80176Y3018D01*
X80056Y2959D01*
X79930Y2916D01*
X79799Y2891D01*
X79666Y2882D01*
X77666D01*
D01*
X77666D01*
X77533Y2891D01*
X77403Y2916D01*
X77277Y2959D01*
X77157Y3018D01*
X77047Y3092D01*
X76946Y3180D01*
X76595Y3532D01*
X76588Y3510D01*
X76529Y3391D01*
X76455Y3280D01*
X76367Y3180D01*
X76267Y3092D01*
X76156Y3018D01*
X76037Y2959D01*
X75911Y2916D01*
X75780Y2891D01*
X75647Y2882D01*
X71647D01*
X71514Y2891D01*
X71384Y2916D01*
X71257Y2959D01*
X71138Y3018D01*
X71027Y3092D01*
X70927Y3180D01*
X70839Y3280D01*
X70765Y3391D01*
X70706Y3510D01*
X70663Y3636D01*
X70637Y3767D01*
X70629Y3900D01*
Y7900D01*
X70637Y8033D01*
X70663Y8163D01*
X70706Y8290D01*
X70765Y8409D01*
X70839Y8520D01*
X70927Y8620D01*
X71027Y8708D01*
X71138Y8782D01*
X71257Y8841D01*
X71384Y8884D01*
X71514Y8910D01*
X71647Y8918D01*
X75647D01*
X75780Y8910D01*
X75911Y8884D01*
X76037Y8841D01*
X76156Y8782D01*
X76267Y8708D01*
X76367Y8620D01*
X76455Y8520D01*
X76529Y8409D01*
X76588Y8290D01*
X76595Y8268D01*
X76946Y8620D01*
X77047Y8708D01*
X77157Y8782D01*
X77277Y8841D01*
X77403Y8884D01*
X77533Y8910D01*
X77666Y8918D01*
X79666D01*
X79799Y8910D01*
D02*
G37*
G36*
X28933D02*
X29063Y8884D01*
X29189Y8841D01*
X29309Y8782D01*
X29420Y8708D01*
X29520Y8620D01*
X29608Y8520D01*
X29681Y8409D01*
X29741Y8290D01*
X29783Y8163D01*
X29809Y8033D01*
X29818Y7900D01*
Y3900D01*
X29809Y3767D01*
X29783Y3636D01*
X29741Y3510D01*
X29681Y3391D01*
X29608Y3280D01*
X29520Y3180D01*
X29420Y3092D01*
X29309Y3018D01*
X29189Y2959D01*
X29063Y2916D01*
X28933Y2891D01*
X28800Y2882D01*
X26800D01*
D01*
X26800D01*
X26667Y2891D01*
X26536Y2916D01*
X26410Y2959D01*
X26291Y3018D01*
X26180Y3092D01*
X26080Y3180D01*
X25728Y3532D01*
X25721Y3510D01*
X25662Y3391D01*
X25588Y3280D01*
X25500Y3180D01*
X25400Y3092D01*
X25289Y3018D01*
X25170Y2959D01*
X25044Y2916D01*
X24913Y2891D01*
X24780Y2882D01*
X20780D01*
X20647Y2891D01*
X20517Y2916D01*
X20391Y2959D01*
X20271Y3018D01*
X20161Y3092D01*
X20060Y3180D01*
X19973Y3280D01*
X19899Y3391D01*
X19840Y3510D01*
X19797Y3636D01*
X19771Y3767D01*
X19762Y3900D01*
Y7900D01*
X19771Y8033D01*
X19797Y8163D01*
X19840Y8290D01*
X19899Y8409D01*
X19973Y8520D01*
X20060Y8620D01*
X20161Y8708D01*
X20271Y8782D01*
X20391Y8841D01*
X20517Y8884D01*
X20647Y8910D01*
X20780Y8918D01*
X24780D01*
X24913Y8910D01*
X25044Y8884D01*
X25170Y8841D01*
X25289Y8782D01*
X25400Y8708D01*
X25500Y8620D01*
X25588Y8520D01*
X25662Y8409D01*
X25721Y8290D01*
X25728Y8268D01*
X26080Y8620D01*
X26180Y8708D01*
X26291Y8782D01*
X26410Y8841D01*
X26536Y8884D01*
X26667Y8910D01*
X26800Y8918D01*
X28800D01*
X28933Y8910D01*
D02*
G37*
D40*
X88900Y6000D02*
D03*
X63500Y6000D02*
D03*
X38100Y6000D02*
D03*
X12700Y6000D02*
D03*
X114300Y6000D02*
D03*
X127000Y6000D02*
D03*
X152400Y6100D02*
D03*
X139700Y6000D02*
D03*
D41*
X6000Y38100D02*
D03*
Y50800D02*
D03*
Y63500D02*
D03*
Y76200D02*
D03*
X6000Y88900D02*
D03*
D42*
X129350Y211700D02*
D03*
Y175300D02*
D03*
D43*
X18100Y244500D02*
D03*
X90100D02*
D03*
Y142500D02*
D03*
X18100D02*
D03*
D44*
X70600Y242500D02*
D03*
X58600D02*
D03*
X46600D02*
D03*
Y144500D02*
D03*
X58600D02*
D03*
X70600D02*
D03*
D45*
X76500Y33400D02*
D03*
X84500Y43100D02*
D03*
X66800Y38800D02*
D03*
X7200Y126600D02*
D03*
Y113550D02*
D03*
Y100500D02*
D03*
D46*
X180200Y214500D02*
D03*
D47*
X208950Y233550D02*
D03*
Y220850D02*
D03*
Y208150D02*
D03*
Y195450D02*
D03*
X151450D02*
D03*
Y208150D02*
D03*
Y220850D02*
D03*
Y233550D02*
D03*
D48*
X89200Y18200D02*
D03*
X63733D02*
D03*
X38267D02*
D03*
X12800D02*
D03*
D49*
X91200Y24700D02*
D03*
X87200D02*
D03*
X65733D02*
D03*
X61733D02*
D03*
X40267D02*
D03*
X36267D02*
D03*
X10800D02*
D03*
X14800D02*
D03*
D50*
X40700Y36900D02*
D03*
X48700D02*
D03*
X75700Y79500D02*
D03*
X67700D02*
D03*
X18100Y50600D02*
D03*
X26100D02*
D03*
X18100Y38300D02*
D03*
X26100D02*
D03*
D51*
X155900Y115000D02*
D03*
Y120000D02*
D03*
X127900D02*
D03*
Y115000D02*
D03*
D52*
X151900Y129000D02*
D03*
X146900Y129000D02*
D03*
X141900D02*
D03*
X136900D02*
D03*
X131900Y129000D02*
D03*
Y106000D02*
D03*
X136900D02*
D03*
X141900D02*
D03*
X146900D02*
D03*
X151900D02*
D03*
D53*
X141900Y117500D02*
D03*
D54*
X78200Y66600D02*
D03*
Y56100D02*
D03*
X64700D02*
D03*
Y66600D02*
D03*
D55*
X90900Y77700D02*
D03*
Y69700D02*
D03*
X25500Y14500D02*
D03*
Y22500D02*
D03*
X50750D02*
D03*
Y14500D02*
D03*
X76000Y22500D02*
D03*
Y14500D02*
D03*
X51500Y57200D02*
D03*
Y65200D02*
D03*
D56*
X24600Y67400D02*
D03*
D57*
X28750Y70650D02*
D03*
Y64150D02*
D03*
X20450Y70650D02*
D03*
Y64150D02*
D03*
D58*
X28300Y108700D02*
D03*
X88300D02*
D03*
D59*
X107000Y114400D02*
D03*
X111000D02*
D03*
X107000Y110400D02*
D03*
X111000D02*
D03*
X107000Y106400D02*
D03*
X111000D02*
D03*
X107000Y102400D02*
D03*
X111000D02*
D03*
D60*
X125200Y49650D02*
D03*
D61*
X107200Y73900D02*
D03*
X111200D02*
D03*
X115200D02*
D03*
X119200D02*
D03*
X123200D02*
D03*
X127200D02*
D03*
X131200D02*
D03*
X135200D02*
D03*
X139200D02*
D03*
X143200D02*
D03*
Y25400D02*
D03*
X139200D02*
D03*
X135200D02*
D03*
X131200D02*
D03*
X127200D02*
D03*
X123200D02*
D03*
X119200D02*
D03*
X115200D02*
D03*
X111200D02*
D03*
X107200D02*
D03*
D62*
X149450Y67650D02*
D03*
Y63650D02*
D03*
Y59650D02*
D03*
Y55650D02*
D03*
Y51650D02*
D03*
Y47650D02*
D03*
Y43650D02*
D03*
Y39650D02*
D03*
Y35650D02*
D03*
Y31650D02*
D03*
X100950D02*
D03*
Y35650D02*
D03*
Y39650D02*
D03*
Y43650D02*
D03*
Y47650D02*
D03*
Y51650D02*
D03*
Y55650D02*
D03*
Y59650D02*
D03*
Y63650D02*
D03*
Y67650D02*
D03*
D63*
X88900Y0D02*
D03*
Y8000D02*
D03*
X63500Y0D02*
D03*
Y8000D02*
D03*
X38100Y0D02*
D03*
Y8000D02*
D03*
X0Y38100D02*
D03*
X8000D02*
D03*
X12700Y8000D02*
D03*
Y0D02*
D03*
X8000Y50800D02*
D03*
X0D02*
D03*
X8000Y63500D02*
D03*
X0D02*
D03*
X114300Y8000D02*
D03*
Y0D02*
D03*
X8000Y76200D02*
D03*
X0D02*
D03*
X127000Y8000D02*
D03*
Y0D02*
D03*
X8000Y88900D02*
D03*
X0D02*
D03*
X152400Y100D02*
D03*
Y8100D02*
D03*
X139700Y0D02*
D03*
Y8000D02*
D03*
M02*
