G04 Layer_Physical_Order=1*
G04 Layer_Color=255*
%FSLAX44Y44*%
%MOMM*%
G71*
G01*
G75*
%ADD10R,0.6000X0.4000*%
%ADD11R,0.7500X0.8500*%
%ADD12R,1.2500X1.0000*%
%ADD13R,0.2500X0.5000*%
%ADD14R,0.2500X0.2000*%
%ADD15P,0.2828X4X90.0*%
%ADD16R,0.2000X0.2000*%
%ADD17R,0.2000X0.2000*%
%ADD18R,0.4000X0.6000*%
%ADD19R,0.5000X0.5000*%
%ADD20R,0.5000X0.9000*%
%ADD21R,2.2000X1.0500*%
%ADD22R,1.0500X1.0000*%
%ADD23C,0.2200*%
G04:AMPARAMS|DCode=24|XSize=0.45mm|YSize=0.23mm|CornerRadius=0mm|HoleSize=0mm|Usage=FLASHONLY|Rotation=0.000|XOffset=0mm|YOffset=0mm|HoleType=Round|Shape=Octagon|*
%AMOCTAGOND24*
4,1,8,0.2250,-0.0575,0.2250,0.0575,0.1675,0.1150,-0.1675,0.1150,-0.2250,0.0575,-0.2250,-0.0575,-0.1675,-0.1150,0.1675,-0.1150,0.2250,-0.0575,0.0*
%
%ADD24OCTAGOND24*%

%ADD25C,0.2500*%
%ADD26O,0.8500X0.2000*%
%ADD27O,0.2000X0.8500*%
%ADD28R,2.8000X2.8000*%
%ADD29C,0.6000*%
G04:AMPARAMS|DCode=30|XSize=1.8mm|YSize=0.6mm|CornerRadius=0.15mm|HoleSize=0mm|Usage=FLASHONLY|Rotation=270.000|XOffset=0mm|YOffset=0mm|HoleType=Round|Shape=RoundedRectangle|*
%AMROUNDEDRECTD30*
21,1,1.8000,0.3000,0,0,270.0*
21,1,1.5000,0.6000,0,0,270.0*
1,1,0.3000,-0.1500,-0.7500*
1,1,0.3000,-0.1500,0.7500*
1,1,0.3000,0.1500,0.7500*
1,1,0.3000,0.1500,-0.7500*
%
%ADD30ROUNDEDRECTD30*%
G04:AMPARAMS|DCode=31|XSize=1.8mm|YSize=0.6mm|CornerRadius=0.15mm|HoleSize=0mm|Usage=FLASHONLY|Rotation=180.000|XOffset=0mm|YOffset=0mm|HoleType=Round|Shape=RoundedRectangle|*
%AMROUNDEDRECTD31*
21,1,1.8000,0.3000,0,0,180.0*
21,1,1.5000,0.6000,0,0,180.0*
1,1,0.3000,-0.7500,0.1500*
1,1,0.3000,0.7500,0.1500*
1,1,0.3000,0.7500,-0.1500*
1,1,0.3000,-0.7500,-0.1500*
%
%ADD31ROUNDEDRECTD31*%
%ADD32C,0.1500*%
%ADD33C,0.2000*%
%ADD34C,0.3000*%
%ADD35C,0.4000*%
%ADD36C,0.5000*%
%ADD37C,0.9000*%
%ADD38C,0.1800*%
%ADD39C,0.2510*%
%ADD40C,0.4500*%
%ADD41C,0.5000*%
%ADD42R,1.2000X0.8000*%
%ADD43R,0.8000X1.2000*%
G36*
X46200Y22800D02*
X44200Y20800D01*
X42200Y22800D01*
Y24800D01*
X46200D01*
Y22800D01*
D02*
G37*
G36*
X172968Y24960D02*
Y22132D01*
X170140D01*
X168725Y23546D01*
X171554Y26375D01*
X172968Y24960D01*
D02*
G37*
G36*
X248983Y300000D02*
X249982Y299586D01*
Y221545D01*
X247838Y221119D01*
X246006Y219894D01*
X245994D01*
X244162Y221119D01*
X243270Y221296D01*
Y215900D01*
Y210504D01*
X244162Y210681D01*
X245994Y211906D01*
X246006D01*
X247838Y210681D01*
X249982Y210255D01*
Y208282D01*
X238000D01*
X237235Y207965D01*
X236918Y207200D01*
Y199200D01*
X237235Y198435D01*
X238000Y198118D01*
X249982D01*
Y185000D01*
X201401Y185000D01*
X202254Y53470D01*
X201359Y52569D01*
X196300D01*
X195955Y52500D01*
X192800D01*
Y51299D01*
X159432D01*
X159090Y51730D01*
X151650D01*
Y54270D01*
X158257D01*
X158235Y54381D01*
X157452Y55552D01*
X156682Y56067D01*
X156784Y56220D01*
X156939Y57000D01*
X156802Y57691D01*
X156808Y57819D01*
X157523Y58961D01*
X158954D01*
X159157Y58657D01*
X160232Y57939D01*
X161500Y57686D01*
X162768Y57939D01*
X163843Y58657D01*
X164080Y59011D01*
X165350Y58626D01*
Y55400D01*
X179850D01*
Y59361D01*
X180500D01*
X181280Y59516D01*
X181942Y59958D01*
X183687Y61703D01*
X184860Y61217D01*
Y60070D01*
X190400D01*
X195940D01*
Y63340D01*
X195480D01*
X194400Y63800D01*
Y69800D01*
X186400D01*
Y68839D01*
X185900D01*
X185120Y68684D01*
X184458Y68242D01*
X184458Y68242D01*
X181023Y64807D01*
X179850Y65293D01*
Y67400D01*
X165350D01*
X165350Y67400D01*
Y67400D01*
X164086Y67414D01*
X163980Y67484D01*
X163200Y67639D01*
X161182D01*
X160696Y68812D01*
X164177Y72293D01*
X165350Y71807D01*
Y70400D01*
X179850D01*
Y74361D01*
X181500D01*
X182280Y74516D01*
X182942Y74958D01*
X184345Y76361D01*
X186400D01*
Y75400D01*
X194400D01*
X194400Y81400D01*
X195480Y81860D01*
X195940D01*
Y85130D01*
X190400D01*
X184860D01*
Y81860D01*
X184860D01*
X185457Y80647D01*
X185415Y80439D01*
X183500D01*
X183500Y80439D01*
X182720Y80284D01*
X182058Y79842D01*
X182058Y79842D01*
X181120Y78904D01*
X179850Y79430D01*
Y82400D01*
X165350D01*
Y82400D01*
X164200Y82110D01*
X164080Y82085D01*
X163068Y82761D01*
X161800Y83014D01*
X160532Y82761D01*
X159457Y82043D01*
X158739Y80968D01*
X158486Y79700D01*
X158739Y78432D01*
X159457Y77357D01*
X160532Y76639D01*
X160888Y76568D01*
X161306Y75190D01*
X157912Y71796D01*
X156845Y72525D01*
X156939Y73000D01*
X156784Y73780D01*
X156342Y74442D01*
X155680Y74884D01*
X154900Y75039D01*
X153689D01*
Y77604D01*
X153993Y77807D01*
X154711Y78882D01*
X154964Y80150D01*
X154711Y81418D01*
X153993Y82493D01*
X152918Y83211D01*
X151650Y83464D01*
X150382Y83211D01*
X149307Y82493D01*
X148709Y81599D01*
X147964Y81631D01*
X147439Y81810D01*
Y84455D01*
X148708Y85724D01*
X148900Y85686D01*
X150168Y85938D01*
X151243Y86657D01*
X151961Y87732D01*
X152213Y89000D01*
X152400Y90186D01*
X153668Y90439D01*
X154743Y91157D01*
X155461Y92232D01*
X155714Y93500D01*
X155461Y94768D01*
X154743Y95843D01*
X153668Y96561D01*
X152400Y96814D01*
X151132Y96561D01*
X150057Y95843D01*
X149854Y95539D01*
X147390D01*
X147389Y95539D01*
X146609Y95384D01*
X145948Y94942D01*
X145948Y94942D01*
X144260Y93255D01*
X142828Y93618D01*
X142343Y94343D01*
X141268Y95061D01*
X140000Y95314D01*
X139036Y95122D01*
X138786Y95264D01*
X138298Y95724D01*
X138039Y96120D01*
X138214Y97000D01*
X137961Y98268D01*
X137243Y99343D01*
X137614Y100623D01*
X137976Y100694D01*
X139313Y101587D01*
X140206Y102924D01*
X140519Y104500D01*
Y110730D01*
X134900D01*
Y112000D01*
D01*
Y110730D01*
X129281D01*
Y104500D01*
X129594Y102924D01*
X130487Y101587D01*
X131824Y100694D01*
X132186Y100623D01*
X132557Y99343D01*
X131972Y98468D01*
X130900Y98329D01*
X130584Y98350D01*
X129960Y98869D01*
X129761Y99868D01*
X129043Y100943D01*
X127968Y101661D01*
X127927Y101670D01*
X127749Y101921D01*
X127445Y103060D01*
X127755Y103525D01*
X127949Y104500D01*
Y119500D01*
X127755Y120475D01*
X127202Y121302D01*
X126375Y121855D01*
X125400Y122049D01*
X122400D01*
X121425Y121855D01*
X120598Y121302D01*
X120045Y120475D01*
X119851Y119500D01*
Y104500D01*
X120045Y103525D01*
X120598Y102698D01*
X121425Y102145D01*
X122400Y101951D01*
X123619D01*
X123868Y101611D01*
X124182Y100681D01*
X123639Y99868D01*
X123433Y98832D01*
X123357Y98577D01*
X122270Y97700D01*
X117100D01*
Y89700D01*
X117100D01*
X117446Y88430D01*
X115958Y86942D01*
X115850Y86780D01*
X115787Y86734D01*
X114484Y86535D01*
X114305Y86579D01*
X112454Y88430D01*
X112980Y89700D01*
X114100D01*
Y97700D01*
X108100D01*
Y95139D01*
X101600D01*
Y97100D01*
X97549D01*
X97424Y98370D01*
X97768Y98438D01*
X98843Y99157D01*
X99561Y100232D01*
X99813Y101500D01*
X101019Y101951D01*
X103400D01*
X104375Y102145D01*
X105202Y102698D01*
X105755Y103525D01*
X105949Y104500D01*
Y119500D01*
X105755Y120475D01*
X105202Y121302D01*
X104375Y121855D01*
X103939Y121942D01*
Y124054D01*
X104243Y124257D01*
X104961Y125332D01*
X105214Y126600D01*
X104961Y127868D01*
X104243Y128943D01*
X103168Y129661D01*
X101900Y129914D01*
X100632Y129661D01*
X99557Y128943D01*
X98839Y127868D01*
X98586Y126600D01*
X98839Y125332D01*
X99557Y124257D01*
X99861Y124054D01*
Y121942D01*
X99425Y121855D01*
X98598Y121302D01*
X98045Y120475D01*
X97851Y119500D01*
Y105840D01*
X96581Y104797D01*
X96500Y104813D01*
X96219Y104758D01*
X94949Y105783D01*
Y119500D01*
X94755Y120475D01*
X94202Y121302D01*
X93375Y121855D01*
X92939Y121942D01*
Y123854D01*
X93243Y124057D01*
X93961Y125132D01*
X94214Y126400D01*
X93961Y127668D01*
X93243Y128743D01*
X92168Y129461D01*
X90900Y129714D01*
X89632Y129461D01*
X88557Y128743D01*
X87839Y127668D01*
X87586Y126400D01*
X87839Y125132D01*
X88557Y124057D01*
X88861Y123854D01*
Y121942D01*
X88425Y121855D01*
X87598Y121302D01*
X87045Y120475D01*
X86851Y119500D01*
Y104500D01*
X87045Y103525D01*
X87598Y102698D01*
X88425Y102145D01*
X89400Y101951D01*
X91981D01*
X93186Y101500D01*
X93438Y100232D01*
X94157Y99157D01*
X95232Y98438D01*
X95592Y98367D01*
X95600Y97100D01*
X95600Y97070D01*
Y93580D01*
X94330Y93054D01*
X94217Y93167D01*
X93555Y93609D01*
X92775Y93764D01*
X92600D01*
Y97100D01*
X86600D01*
Y91543D01*
X85427Y91057D01*
X83942Y92542D01*
X83280Y92984D01*
X82500Y93139D01*
X79800D01*
Y94668D01*
X79900Y94837D01*
X80839Y95658D01*
X81700Y95486D01*
X82968Y95739D01*
X84043Y96457D01*
X84761Y97532D01*
X85014Y98800D01*
X84761Y100068D01*
X84043Y101143D01*
X83602Y101438D01*
X83490Y101793D01*
X83388Y102967D01*
X83396Y102987D01*
X83755Y103525D01*
X83949Y104500D01*
Y119500D01*
X83755Y120475D01*
X83202Y121302D01*
X82375Y121855D01*
X81939Y121942D01*
Y123954D01*
X82243Y124157D01*
X82961Y125232D01*
X83214Y126500D01*
X82961Y127768D01*
X82243Y128843D01*
X81168Y129561D01*
X79900Y129814D01*
X78632Y129561D01*
X78601Y129541D01*
X77261Y129768D01*
X76543Y130843D01*
X75468Y131561D01*
X74200Y131814D01*
X72932Y131561D01*
X71857Y130843D01*
X71654Y130539D01*
X71200D01*
X70420Y130384D01*
X69758Y129942D01*
X69758Y129942D01*
X67458Y127642D01*
X67016Y126980D01*
X66861Y126200D01*
Y121942D01*
X66425Y121855D01*
X65598Y121302D01*
X65045Y120475D01*
X64851Y119500D01*
Y104500D01*
X65045Y103525D01*
X65598Y102698D01*
X66425Y102145D01*
X67400Y101951D01*
X70400D01*
X71375Y102145D01*
X71447Y102193D01*
X72157Y101143D01*
X71439Y100068D01*
X71186Y98800D01*
X71363Y97910D01*
X70623Y96640D01*
X70070D01*
Y91100D01*
X68800D01*
Y89830D01*
X64260D01*
Y85560D01*
X69617D01*
X69912Y84848D01*
X70023Y84290D01*
X69616Y83680D01*
X69461Y82900D01*
Y81750D01*
X66250D01*
Y77734D01*
X65655Y77139D01*
X60400D01*
Y78300D01*
X52400D01*
X52400Y72300D01*
X51321Y71840D01*
X50860D01*
Y68570D01*
X56400D01*
X61940D01*
Y71791D01*
X61940Y71840D01*
X62059Y73061D01*
X66250D01*
Y71250D01*
X75750D01*
Y71250D01*
X76750D01*
Y71250D01*
X86250D01*
X86250Y71250D01*
Y71250D01*
X87520Y71396D01*
X90157Y68759D01*
X89838Y67763D01*
X89651Y67469D01*
X88970Y67334D01*
X88308Y66892D01*
X88308Y66892D01*
X87520Y66104D01*
X86250Y66630D01*
Y68250D01*
X77020D01*
X76750Y68250D01*
X75750D01*
X75480Y68250D01*
X66250D01*
Y57750D01*
X75480D01*
X75750Y57750D01*
X76750D01*
X77020Y57750D01*
X79461D01*
Y51900D01*
X74200D01*
X73740Y52979D01*
Y53440D01*
X70470D01*
Y47900D01*
X67930D01*
Y53440D01*
X64660D01*
X64660Y53440D01*
X63475Y53646D01*
X63051Y54037D01*
X63044Y54314D01*
X63059Y54381D01*
X63761Y55432D01*
X64014Y56700D01*
X63761Y57968D01*
X63043Y59043D01*
X61968Y59761D01*
X60700Y60014D01*
X59432Y59761D01*
X58357Y59043D01*
X57639Y57968D01*
X57473Y57135D01*
X57095Y56878D01*
X56350Y56610D01*
X56169Y56595D01*
X55220Y57229D01*
X54215Y57429D01*
X53114Y58400D01*
X52861Y59668D01*
X52143Y60743D01*
X51068Y61461D01*
X50924Y61490D01*
X51049Y62760D01*
X55130D01*
Y66030D01*
X50860D01*
Y62798D01*
X50846Y62487D01*
X49846Y61705D01*
X49800Y61714D01*
X48532Y61461D01*
X47457Y60743D01*
X46739Y59668D01*
X46718Y59562D01*
X45339Y59144D01*
X44742Y59742D01*
X44080Y60184D01*
X43300Y60339D01*
X34781D01*
X34484Y60784D01*
X33744Y61278D01*
Y62524D01*
X33943Y62657D01*
X34661Y63732D01*
X34914Y65000D01*
X34661Y66268D01*
X34774Y66567D01*
X35375Y67486D01*
X36466Y67703D01*
X37623Y68477D01*
X38397Y69634D01*
X38669Y71000D01*
Y75800D01*
X38397Y77166D01*
X37623Y78323D01*
X36466Y79097D01*
X35175Y79354D01*
X34976Y79657D01*
X34586Y80561D01*
X35000Y80975D01*
Y81890D01*
X35265Y82219D01*
X35666D01*
X36800Y81058D01*
Y80975D01*
X37875Y79900D01*
X37878D01*
X37887Y79887D01*
X38879Y79224D01*
X40050Y78991D01*
X43578D01*
X43582Y78989D01*
X44850Y78736D01*
X46118Y78989D01*
X46122Y78991D01*
X48378D01*
X48382Y78989D01*
X49650Y78736D01*
X50918Y78989D01*
X51993Y79707D01*
X52711Y80782D01*
X52964Y82050D01*
X52711Y83318D01*
X51993Y84393D01*
X50918Y85111D01*
X49650Y85364D01*
X48382Y85111D01*
X48378Y85109D01*
X46122D01*
X46118Y85111D01*
X45221Y85290D01*
X44749Y86320D01*
X44721Y86586D01*
X44840Y86705D01*
Y87280D01*
X40050D01*
Y88550D01*
X38780D01*
Y92240D01*
X37105D01*
X35643Y90778D01*
X34060Y90565D01*
X33925Y90700D01*
X29575D01*
X29464Y90589D01*
X27650D01*
X27210Y90502D01*
X26226Y91061D01*
X25940Y91340D01*
Y94540D01*
X21670D01*
Y90000D01*
X19130D01*
Y94540D01*
X14860D01*
Y89319D01*
X13590Y89194D01*
X13219Y91062D01*
X11994Y92894D01*
X10162Y94119D01*
X9270Y94296D01*
Y88900D01*
X6730D01*
Y94296D01*
X5838Y94119D01*
X4006Y92894D01*
X3994D01*
X2162Y94119D01*
X0Y94549D01*
X-18Y94563D01*
Y179976D01*
X75Y180013D01*
X1252Y180187D01*
X1987Y179087D01*
X3324Y178194D01*
X4900Y177881D01*
X11130D01*
Y183500D01*
Y189119D01*
X4900D01*
X3324Y188806D01*
X1987Y187913D01*
X1252Y186813D01*
X75Y186987D01*
X-18Y187024D01*
Y300000D01*
X97577D01*
X97962Y298730D01*
X97487Y298413D01*
X96594Y297076D01*
X96281Y295500D01*
Y289270D01*
X101900D01*
Y288000D01*
X103170D01*
Y276381D01*
X103400D01*
X104976Y276694D01*
X106313Y277587D01*
X106636Y278072D01*
X108164D01*
X108487Y277587D01*
X109824Y276694D01*
X111400Y276381D01*
X111630D01*
Y288000D01*
X112900D01*
Y289270D01*
X118519D01*
Y295500D01*
X118206Y297076D01*
X117313Y298413D01*
X116838Y298730D01*
X117223Y300000D01*
X248983D01*
D02*
G37*
G36*
X70100Y22800D02*
X68100Y20800D01*
X66100Y22800D01*
Y24800D01*
X70100D01*
Y22800D01*
D02*
G37*
G36*
X48053Y44315D02*
X48358Y43858D01*
X53058Y39158D01*
X53058Y39158D01*
X53720Y38716D01*
X54500Y38561D01*
X54500Y38561D01*
X56952D01*
X57516Y37716D01*
X58839Y36832D01*
X59232Y36754D01*
X59500Y35406D01*
X58957Y35043D01*
X58239Y33968D01*
X57986Y32700D01*
X58239Y31432D01*
X58957Y30357D01*
X60032Y29639D01*
X61300Y29386D01*
X62568Y29639D01*
X63643Y30357D01*
X64361Y31432D01*
X64614Y32700D01*
X64361Y33968D01*
X63643Y35043D01*
X62568Y35761D01*
X62359Y37098D01*
X63284Y37716D01*
X63470Y37995D01*
X63937Y38090D01*
X64957Y38123D01*
X65832Y37539D01*
X67100Y37286D01*
X67460Y36991D01*
Y35770D01*
X72000D01*
Y33230D01*
X67460D01*
Y30886D01*
X66832Y30761D01*
X65757Y30043D01*
X65039Y28968D01*
X64786Y27700D01*
X65039Y26432D01*
X65423Y25857D01*
X65335Y25565D01*
X65018Y24800D01*
Y22800D01*
X65335Y22035D01*
X65416Y21954D01*
X65335Y21546D01*
X65018Y20781D01*
Y16781D01*
X65335Y16015D01*
X66100Y15698D01*
X70100D01*
X70204Y15741D01*
X70575D01*
X72060Y14256D01*
X71661Y12859D01*
X71435Y12765D01*
X71118Y12000D01*
Y0D01*
X68582D01*
Y12000D01*
X68265Y12765D01*
X67500Y13082D01*
X59500D01*
X58734Y12765D01*
X58418Y12000D01*
Y0D01*
X55882D01*
Y12000D01*
X55565Y12765D01*
X54800Y13082D01*
X52839D01*
Y15741D01*
X54046D01*
X54150Y15698D01*
X58150D01*
X58915Y16015D01*
X59232Y16781D01*
Y20781D01*
X58915Y21546D01*
X58834Y21954D01*
X58915Y22035D01*
X59232Y22800D01*
Y24800D01*
X58915Y25565D01*
X58189Y25866D01*
Y26250D01*
X58034Y27030D01*
X57592Y27692D01*
X55050Y30234D01*
Y36400D01*
X50550D01*
Y35519D01*
X50090Y34440D01*
X48550D01*
Y36900D01*
X46497D01*
X46300Y36939D01*
X43945D01*
X43942Y36942D01*
X43280Y37384D01*
X42500Y37539D01*
X41946D01*
X41743Y37843D01*
X40668Y38561D01*
X39400Y38814D01*
X38412Y38617D01*
X38300Y38639D01*
X37787D01*
X37217Y39727D01*
X37881Y40804D01*
X39118Y41050D01*
X40193Y41768D01*
X40326Y41968D01*
X41187Y42697D01*
X41954Y42291D01*
X42332Y42039D01*
X43600Y41786D01*
X44868Y42039D01*
X45943Y42757D01*
X46661Y43832D01*
X46731Y44181D01*
X47216Y44320D01*
X48053Y44315D01*
D02*
G37*
G36*
X32677Y78391D02*
X32577Y78323D01*
X31803Y77166D01*
X31531Y75800D01*
Y71000D01*
X31803Y69634D01*
X31854Y69558D01*
X31779Y69191D01*
X31210Y68236D01*
X30332Y68061D01*
X29257Y67343D01*
X28539Y66268D01*
X28286Y65000D01*
X28539Y63732D01*
X29257Y62657D01*
X29456Y62524D01*
Y61278D01*
X28716Y60784D01*
X27832Y59461D01*
X27522Y57900D01*
X27832Y56339D01*
X28716Y55016D01*
X30039Y54132D01*
X31600Y53822D01*
X32151Y53931D01*
X32777Y52761D01*
X31595Y51578D01*
X31039Y51468D01*
X29716Y50584D01*
X28832Y49261D01*
X28522Y47700D01*
X28526Y47680D01*
X27485Y46439D01*
X24846D01*
X24643Y46743D01*
X23568Y47461D01*
X22300Y47714D01*
X21032Y47461D01*
X19957Y46743D01*
X19239Y45668D01*
X18986Y44400D01*
X19239Y43132D01*
X19957Y42057D01*
X21032Y41339D01*
X20738Y40168D01*
X20486Y38900D01*
X20738Y37632D01*
X21457Y36557D01*
X22532Y35838D01*
X23800Y35586D01*
X25068Y35838D01*
X26143Y36557D01*
X26861Y37632D01*
X27114Y38900D01*
X26861Y40168D01*
X26245Y41091D01*
X26419Y41746D01*
X26756Y42361D01*
X29300D01*
X30080Y42516D01*
X30742Y42958D01*
X31604Y43820D01*
X32600Y43622D01*
X34161Y43932D01*
X34785Y42860D01*
X34789Y42843D01*
X35507Y41768D01*
X36582Y41050D01*
X36983Y40970D01*
X36858Y39700D01*
X29100D01*
Y33700D01*
X28021Y33240D01*
X27560D01*
Y29970D01*
X33100D01*
Y28700D01*
X34370D01*
Y24160D01*
X38640D01*
Y25806D01*
X39813Y26292D01*
X41173Y24933D01*
X41118Y24800D01*
Y22800D01*
X41121Y22791D01*
X41435Y21546D01*
X41118Y20781D01*
Y16781D01*
X41435Y16015D01*
X42200Y15698D01*
X46200D01*
X46304Y15741D01*
X48761D01*
Y13082D01*
X46800D01*
X46035Y12765D01*
X45718Y12000D01*
Y0D01*
X43182D01*
Y12000D01*
X42865Y12765D01*
X42100Y13082D01*
X37021D01*
X36320Y14143D01*
X36285Y14352D01*
X36514Y15500D01*
X36261Y16768D01*
X35543Y17843D01*
X34468Y18561D01*
X33200Y18814D01*
X31932Y18561D01*
X30857Y17843D01*
X30139Y16768D01*
X29886Y15500D01*
X30139Y14232D01*
X30213Y14120D01*
X29400Y13082D01*
X21400D01*
X20635Y12765D01*
X20317Y12000D01*
Y0D01*
X-18D01*
Y20306D01*
X0Y20318D01*
X12000D01*
X12765Y20635D01*
X12771Y20649D01*
X14256Y20960D01*
X14558Y20658D01*
X14558Y20658D01*
X15220Y20216D01*
X16000Y20061D01*
X16300D01*
Y19100D01*
X24300D01*
Y25100D01*
X16300D01*
X16300Y25100D01*
Y25100D01*
X15289Y25695D01*
X14142Y26842D01*
X13480Y27284D01*
X13082Y27363D01*
Y29400D01*
X12765Y30165D01*
X12000Y30482D01*
X0D01*
X-18Y30494D01*
Y33006D01*
X0Y33018D01*
X12000D01*
X12765Y33335D01*
X13082Y34100D01*
Y42100D01*
X12765Y42866D01*
X12000Y43183D01*
X0D01*
X-18Y43194D01*
Y45706D01*
X0Y45718D01*
X12000D01*
X12765Y46035D01*
X13082Y46800D01*
Y54800D01*
X12765Y55565D01*
X12000Y55882D01*
X0D01*
X-18Y55894D01*
Y71106D01*
X-0Y71118D01*
X12000D01*
X12765Y71434D01*
X13082Y72200D01*
Y73141D01*
X14600D01*
X14600Y73141D01*
X15771Y73374D01*
X16763Y74037D01*
X21437Y78712D01*
X22691Y78638D01*
X23467Y77606D01*
X23386Y77200D01*
X23639Y75932D01*
X24357Y74857D01*
X25432Y74139D01*
X26700Y73886D01*
X27968Y74139D01*
X29043Y74857D01*
X29761Y75932D01*
X30014Y77200D01*
X29809Y78231D01*
X30262Y79086D01*
X30599Y79501D01*
X31750D01*
X32182Y79587D01*
X32677Y78391D01*
D02*
G37*
G36*
X185165Y25763D02*
Y22935D01*
X182337D01*
X180922Y24349D01*
X183751Y27178D01*
X185165Y25763D01*
D02*
G37*
G36*
X106523Y34838D02*
X107238Y34123D01*
X107267Y34059D01*
X106788Y32789D01*
X103750D01*
X103750Y32789D01*
X102970Y32634D01*
X102308Y32192D01*
X102308Y32192D01*
X100358Y30242D01*
X99916Y29580D01*
X99761Y28800D01*
Y26646D01*
X99457Y26443D01*
X98739Y25368D01*
X98486Y24100D01*
X98739Y22832D01*
X99457Y21757D01*
X100532Y21039D01*
X101800Y20786D01*
X103068Y21039D01*
X104143Y21757D01*
X104861Y22832D01*
X105114Y24100D01*
X104861Y25368D01*
X104143Y26443D01*
X103839Y26646D01*
Y27955D01*
X104595Y28711D01*
X107361D01*
Y27500D01*
X107516Y26720D01*
X107958Y26058D01*
X108330Y25810D01*
X108630Y24716D01*
X108634Y24318D01*
X100158Y15842D01*
X99716Y15180D01*
X99561Y14400D01*
Y13082D01*
X97600D01*
X96835Y12765D01*
X96518Y12000D01*
Y0D01*
X93982D01*
Y12000D01*
X93665Y12765D01*
X92900Y13082D01*
X91959D01*
Y30000D01*
X91726Y31170D01*
X91063Y32163D01*
X91063Y32163D01*
X89855Y33371D01*
X91445Y34961D01*
X106257D01*
X106523Y34838D01*
D02*
G37*
G36*
X58150Y22800D02*
X56150Y20800D01*
X54150Y22800D01*
Y24800D01*
X58150D01*
Y22800D01*
D02*
G37*
G36*
X177224Y20704D02*
X174396Y17876D01*
X171567Y20704D01*
X174396D01*
Y23533D01*
X177224Y20704D01*
D02*
G37*
G36*
X189421Y21507D02*
X186593Y18679D01*
X183764Y21507D01*
X186593Y21507D01*
X186593Y24335D01*
X189421Y21507D01*
D02*
G37*
G36*
X158161Y36511D02*
Y34900D01*
X158316Y34120D01*
X158758Y33458D01*
X167944Y24272D01*
X167643Y23546D01*
X167960Y22781D01*
X167960Y22781D01*
X169374Y21367D01*
X169383Y21363D01*
X170485Y20704D01*
X170802Y19939D01*
X170802D01*
X173631Y17110D01*
X174396Y16793D01*
X174680Y16911D01*
X175531Y16337D01*
X175761Y16073D01*
Y13082D01*
X173800D01*
X173035Y12766D01*
X172718Y12000D01*
Y0D01*
X170182D01*
Y12000D01*
X169865Y12765D01*
X169100Y13082D01*
X165147D01*
X164240Y13960D01*
X164240Y14352D01*
Y18230D01*
X159700D01*
Y19500D01*
X158430D01*
Y25040D01*
X155160D01*
Y25040D01*
X154004Y24303D01*
X153727Y24360D01*
X153689Y24398D01*
Y34961D01*
X154900D01*
X155680Y35116D01*
X156342Y35558D01*
X156784Y36220D01*
X156879Y36699D01*
X156937Y36744D01*
X158161Y36511D01*
D02*
G37*
G36*
X192800Y45500D02*
X195955D01*
X196300Y45431D01*
X202306D01*
X202377Y34509D01*
X201482Y33608D01*
X198320D01*
X197778Y33500D01*
X192800D01*
Y28441D01*
X192712Y28000D01*
X192800Y27559D01*
Y22500D01*
X197778D01*
X198320Y22392D01*
X202456D01*
X202513Y13512D01*
X201038Y13219D01*
X199206Y11994D01*
X197981Y10162D01*
X197551Y8000D01*
X197981Y5838D01*
X199206Y4006D01*
Y3994D01*
X197981Y2162D01*
X197551Y0D01*
X195582D01*
Y12000D01*
X195265Y12765D01*
X194500Y13082D01*
X192539D01*
Y17600D01*
X192384Y18380D01*
X191942Y19042D01*
X191942Y19042D01*
X190203Y20781D01*
X190504Y21507D01*
X190187Y22273D01*
X190187Y22273D01*
X187358Y25101D01*
X186593Y25418D01*
X185961Y26531D01*
X186114Y27300D01*
X185861Y28568D01*
X185143Y29643D01*
X184068Y30361D01*
X182800Y30614D01*
X181532Y30361D01*
X180457Y29643D01*
X179739Y28568D01*
X179733Y28539D01*
X175545D01*
X168869Y35215D01*
Y36774D01*
X169173Y36977D01*
X169891Y38052D01*
X170144Y39320D01*
X169891Y40588D01*
X169173Y41663D01*
X168690Y41986D01*
X168272Y42612D01*
X165453Y45431D01*
X165979Y46701D01*
X192800D01*
Y45500D01*
D02*
G37*
G36*
X58150Y16781D02*
X54150D01*
Y20781D01*
X56150Y18781D01*
X58150Y20781D01*
Y16781D01*
D02*
G37*
G36*
X70100D02*
X66100D01*
Y20781D01*
X68100Y18781D01*
X70100Y20781D01*
Y16781D01*
D02*
G37*
G36*
X46200D02*
X42200D01*
Y20781D01*
X44200Y18781D01*
X46200Y20781D01*
Y16781D01*
D02*
G37*
%LPC*%
G36*
X133630Y123619D02*
X133400D01*
X131824Y123306D01*
X130487Y122413D01*
X129594Y121076D01*
X129281Y119500D01*
Y113270D01*
X133630D01*
Y123619D01*
D02*
G37*
G36*
X196400Y135114D02*
X195132Y134861D01*
X194057Y134143D01*
X193339Y133068D01*
X193086Y131800D01*
X193339Y130532D01*
X194057Y129457D01*
X195132Y128739D01*
X196400Y128486D01*
X197668Y128739D01*
X198743Y129457D01*
X199461Y130532D01*
X199714Y131800D01*
X199461Y133068D01*
X198743Y134143D01*
X197668Y134861D01*
X196400Y135114D01*
D02*
G37*
G36*
X19900Y143549D02*
X4900D01*
X3925Y143355D01*
X3098Y142802D01*
X2545Y141975D01*
X2351Y141000D01*
Y138000D01*
X2545Y137025D01*
X3098Y136198D01*
X3925Y135645D01*
X4900Y135451D01*
X19900D01*
X20875Y135645D01*
X21702Y136198D01*
X22255Y137025D01*
X22449Y138000D01*
Y141000D01*
X22255Y141975D01*
X21702Y142802D01*
X20875Y143355D01*
X19900Y143549D01*
D02*
G37*
G36*
X68000Y138214D02*
X66732Y137961D01*
X65657Y137243D01*
X64939Y136168D01*
X64686Y134900D01*
X64939Y133632D01*
X65657Y132557D01*
X66732Y131839D01*
X68000Y131586D01*
X69268Y131839D01*
X70343Y132557D01*
X71061Y133632D01*
X71314Y134900D01*
X71061Y136168D01*
X70343Y137243D01*
X69268Y137961D01*
X68000Y138214D01*
D02*
G37*
G36*
X117800Y130214D02*
X116532Y129961D01*
X115457Y129243D01*
X114739Y128168D01*
X114486Y126900D01*
X114739Y125632D01*
X115344Y124726D01*
X115105Y124083D01*
X114714Y123557D01*
X114400Y123619D01*
X114170D01*
Y113270D01*
X118519D01*
Y119500D01*
X118206Y121076D01*
X117331Y122385D01*
X117368Y122545D01*
X117746Y123455D01*
X117832Y123593D01*
X119068Y123839D01*
X120143Y124557D01*
X120861Y125632D01*
X121114Y126900D01*
X120861Y128168D01*
X120143Y129243D01*
X119068Y129961D01*
X117800Y130214D01*
D02*
G37*
G36*
X136400Y123619D02*
X136170D01*
Y113270D01*
X140519D01*
Y119500D01*
X140206Y121076D01*
X139313Y122413D01*
X137976Y123306D01*
X136400Y123619D01*
D02*
G37*
G36*
X48400D02*
X48170D01*
Y113270D01*
X52519D01*
Y119500D01*
X52206Y121076D01*
X51313Y122413D01*
X49976Y123306D01*
X48400Y123619D01*
D02*
G37*
G36*
X151600Y133114D02*
X150332Y132861D01*
X149257Y132143D01*
X148539Y131068D01*
X148286Y129800D01*
X148539Y128532D01*
X149257Y127457D01*
X150332Y126739D01*
X151600Y126486D01*
X152868Y126739D01*
X153943Y127457D01*
X154146Y127761D01*
X169955D01*
X176158Y121558D01*
X176158Y121558D01*
X176820Y121116D01*
X177600Y120961D01*
X177600Y120961D01*
X193354D01*
X193557Y120657D01*
X194632Y119939D01*
X195900Y119686D01*
X197168Y119939D01*
X198243Y120657D01*
X198961Y121732D01*
X199214Y123000D01*
X198961Y124268D01*
X198243Y125343D01*
X197168Y126061D01*
X195900Y126314D01*
X194632Y126061D01*
X193557Y125343D01*
X193354Y125039D01*
X178445D01*
X172242Y131242D01*
X171580Y131684D01*
X170800Y131839D01*
X154146D01*
X153943Y132143D01*
X152868Y132861D01*
X151600Y133114D01*
D02*
G37*
G36*
X145000Y126214D02*
X143732Y125961D01*
X142657Y125243D01*
X141939Y124168D01*
X141686Y122900D01*
X141939Y121632D01*
X142657Y120557D01*
X143732Y119839D01*
X145000Y119586D01*
X146268Y119839D01*
X147343Y120557D01*
X148061Y121632D01*
X148314Y122900D01*
X148061Y124168D01*
X147343Y125243D01*
X146268Y125961D01*
X145000Y126214D01*
D02*
G37*
G36*
X176900Y143549D02*
X161900D01*
X160925Y143355D01*
X160098Y142802D01*
X159545Y141975D01*
X159351Y141000D01*
Y138000D01*
X159545Y137025D01*
X160098Y136198D01*
X160925Y135645D01*
X161900Y135451D01*
X176900D01*
X177875Y135645D01*
X178702Y136198D01*
X179255Y137025D01*
X179449Y138000D01*
Y141000D01*
X179255Y141975D01*
X178702Y142802D01*
X177875Y143355D01*
X176900Y143549D01*
D02*
G37*
G36*
X19900Y165549D02*
X4900D01*
X3925Y165355D01*
X3098Y164802D01*
X2545Y163975D01*
X2351Y163000D01*
Y160000D01*
X2545Y159025D01*
X3098Y158198D01*
X3925Y157645D01*
X4900Y157451D01*
X19900D01*
X20875Y157645D01*
X21702Y158198D01*
X22255Y159025D01*
X22449Y160000D01*
Y163000D01*
X22255Y163975D01*
X21702Y164802D01*
X20875Y165355D01*
X19900Y165549D01*
D02*
G37*
G36*
X112200Y153914D02*
X110932Y153661D01*
X109857Y152943D01*
X109139Y151868D01*
X108886Y150600D01*
X109139Y149332D01*
X109857Y148257D01*
X110932Y147539D01*
X112200Y147286D01*
X113468Y147539D01*
X114543Y148257D01*
X115261Y149332D01*
X115514Y150600D01*
X115261Y151868D01*
X114543Y152943D01*
X113468Y153661D01*
X112200Y153914D01*
D02*
G37*
G36*
X97400Y166014D02*
X96132Y165761D01*
X95057Y165043D01*
X94914Y164829D01*
X93386D01*
X93243Y165043D01*
X92168Y165761D01*
X90900Y166014D01*
X89632Y165761D01*
X88557Y165043D01*
X88380Y164779D01*
X86853D01*
X86743Y164943D01*
X85668Y165661D01*
X84400Y165914D01*
X83132Y165661D01*
X82057Y164943D01*
X81339Y163868D01*
X81086Y162600D01*
X81339Y161332D01*
X82057Y160257D01*
X83132Y159539D01*
X84400Y159286D01*
X85668Y159539D01*
X86743Y160257D01*
X86920Y160521D01*
X88447D01*
X88557Y160357D01*
X89632Y159639D01*
X90900Y159386D01*
X92168Y159639D01*
X93243Y160357D01*
X93386Y160571D01*
X94914D01*
X95057Y160357D01*
X96132Y159639D01*
X97400Y159386D01*
X98668Y159639D01*
X99743Y160357D01*
X100461Y161432D01*
X100714Y162700D01*
X100461Y163968D01*
X99743Y165043D01*
X98668Y165761D01*
X97400Y166014D01*
D02*
G37*
G36*
X117375Y167689D02*
X116107Y167436D01*
X115032Y166718D01*
X114314Y165643D01*
X114061Y164375D01*
X114314Y163107D01*
X115032Y162032D01*
X116107Y161314D01*
X117375Y161061D01*
X118643Y161314D01*
X119718Y162032D01*
X120436Y163107D01*
X120689Y164375D01*
X120436Y165643D01*
X119718Y166718D01*
X118643Y167436D01*
X117375Y167689D01*
D02*
G37*
G36*
X47600Y153114D02*
X46332Y152861D01*
X45257Y152143D01*
X44539Y151068D01*
X44286Y149800D01*
X44539Y148532D01*
X45257Y147457D01*
X46332Y146739D01*
X47600Y146486D01*
X48868Y146739D01*
X49943Y147457D01*
X50661Y148532D01*
X50914Y149800D01*
X50661Y151068D01*
X49943Y152143D01*
X48868Y152861D01*
X47600Y153114D01*
D02*
G37*
G36*
X71900Y150214D02*
X70632Y149961D01*
X69557Y149243D01*
X68839Y148168D01*
X68586Y146900D01*
X68839Y145632D01*
X69557Y144557D01*
X70632Y143839D01*
X71900Y143586D01*
X73168Y143839D01*
X74243Y144557D01*
X74961Y145632D01*
X75214Y146900D01*
X74961Y148168D01*
X74243Y149243D01*
X73168Y149961D01*
X71900Y150214D01*
D02*
G37*
G36*
X138400Y145814D02*
X137132Y145561D01*
X136057Y144843D01*
X135339Y143768D01*
X135086Y142500D01*
X135339Y141232D01*
X136057Y140157D01*
X137132Y139439D01*
X138400Y139186D01*
X139668Y139439D01*
X140743Y140157D01*
X141461Y141232D01*
X141714Y142500D01*
X141461Y143768D01*
X140743Y144843D01*
X139668Y145561D01*
X138400Y145814D01*
D02*
G37*
G36*
X19900Y154549D02*
X4900D01*
X3925Y154355D01*
X3098Y153802D01*
X2545Y152975D01*
X2351Y152000D01*
Y149000D01*
X2545Y148025D01*
X3098Y147198D01*
X3925Y146645D01*
X4900Y146451D01*
X19900D01*
X20875Y146645D01*
X21702Y147198D01*
X22255Y148025D01*
X22449Y149000D01*
Y152000D01*
X22255Y152975D01*
X21702Y153802D01*
X20875Y154355D01*
X19900Y154549D01*
D02*
G37*
G36*
X84400Y150214D02*
X83132Y149961D01*
X82057Y149243D01*
X81339Y148168D01*
X81086Y146900D01*
X81339Y145632D01*
X82057Y144557D01*
X83132Y143839D01*
X84400Y143586D01*
X85668Y143839D01*
X86743Y144557D01*
X87461Y145632D01*
X87714Y146900D01*
X87461Y148168D01*
X86743Y149243D01*
X85668Y149961D01*
X84400Y150214D01*
D02*
G37*
G36*
X111630Y123619D02*
X111400D01*
X109824Y123306D01*
X108487Y122413D01*
X107594Y121076D01*
X107281Y119500D01*
Y113270D01*
X111630D01*
Y123619D01*
D02*
G37*
G36*
X61940Y66030D02*
X57670D01*
Y62760D01*
X61940D01*
Y66030D01*
D02*
G37*
G36*
X176800Y95514D02*
X175532Y95261D01*
X174457Y94543D01*
X173739Y93468D01*
X173486Y92200D01*
X173739Y90932D01*
X174457Y89857D01*
X175532Y89139D01*
X176800Y88886D01*
X178068Y89139D01*
X179143Y89857D01*
X179861Y90932D01*
X180114Y92200D01*
X179861Y93468D01*
X179143Y94543D01*
X178068Y95261D01*
X176800Y95514D01*
D02*
G37*
G36*
X187700Y95314D02*
X186432Y95061D01*
X185357Y94343D01*
X184639Y93268D01*
X184386Y92000D01*
X184639Y90732D01*
X184860Y90401D01*
Y87670D01*
X190400D01*
X195940D01*
Y90940D01*
X191804D01*
X190998Y91922D01*
X191014Y92000D01*
X190761Y93268D01*
X190043Y94343D01*
X188968Y95061D01*
X187700Y95314D01*
D02*
G37*
G36*
X195940Y57530D02*
X191670D01*
Y54260D01*
X195940D01*
Y57530D01*
D02*
G37*
G36*
X189130D02*
X184860D01*
Y54260D01*
X189130D01*
Y57530D01*
D02*
G37*
G36*
X42995Y92240D02*
X41320D01*
Y89820D01*
X44840D01*
Y90395D01*
X42995Y92240D01*
D02*
G37*
G36*
X182500Y108514D02*
X181232Y108261D01*
X180157Y107543D01*
X179439Y106468D01*
X179186Y105200D01*
X179439Y103932D01*
X180157Y102857D01*
X181232Y102139D01*
X182500Y101886D01*
X183768Y102139D01*
X184843Y102857D01*
X185561Y103932D01*
X185814Y105200D01*
X185561Y106468D01*
X184843Y107543D01*
X183768Y108261D01*
X182500Y108514D01*
D02*
G37*
G36*
X118519Y110730D02*
X114170D01*
Y100381D01*
X114400D01*
X115976Y100694D01*
X117313Y101587D01*
X118206Y102924D01*
X118519Y104500D01*
Y110730D01*
D02*
G37*
G36*
X45630Y123619D02*
X45400D01*
X43824Y123306D01*
X42487Y122413D01*
X41594Y121076D01*
X41281Y119500D01*
Y113270D01*
X45630D01*
Y123619D01*
D02*
G37*
G36*
X59400Y122049D02*
X56400D01*
X55425Y121855D01*
X54598Y121302D01*
X54045Y120475D01*
X53851Y119500D01*
Y104500D01*
X54045Y103525D01*
X54598Y102698D01*
X55425Y102145D01*
X56400Y101951D01*
X59400D01*
X60375Y102145D01*
X61202Y102698D01*
X61755Y103525D01*
X61949Y104500D01*
Y119500D01*
X61755Y120475D01*
X61202Y121302D01*
X60375Y121855D01*
X59400Y122049D01*
D02*
G37*
G36*
X111630Y110730D02*
X107281D01*
Y104500D01*
X107594Y102924D01*
X108487Y101587D01*
X109824Y100694D01*
X111400Y100381D01*
X111630D01*
Y110730D01*
D02*
G37*
G36*
X169700Y100614D02*
X168432Y100361D01*
X167357Y99643D01*
X166639Y98568D01*
X166386Y97300D01*
X166639Y96032D01*
X167357Y94957D01*
X168432Y94239D01*
X169700Y93986D01*
X170968Y94239D01*
X172043Y94957D01*
X172761Y96032D01*
X173014Y97300D01*
X172761Y98568D01*
X172043Y99643D01*
X170968Y100361D01*
X169700Y100614D01*
D02*
G37*
G36*
X63400Y101514D02*
X62132Y101261D01*
X61057Y100543D01*
X60339Y99468D01*
X60086Y98200D01*
X60339Y96932D01*
X61057Y95857D01*
X62132Y95139D01*
X63400Y94886D01*
X64260Y94181D01*
Y92370D01*
X67530D01*
Y96823D01*
X66656Y97910D01*
X66714Y98200D01*
X66461Y99468D01*
X65743Y100543D01*
X64668Y101261D01*
X63400Y101514D01*
D02*
G37*
G36*
X52519Y110730D02*
X48170D01*
Y100381D01*
X48400D01*
X49976Y100694D01*
X51313Y101587D01*
X52206Y102924D01*
X52519Y104500D01*
Y110730D01*
D02*
G37*
G36*
X45630D02*
X41281D01*
Y104500D01*
X41594Y102924D01*
X42487Y101587D01*
X43824Y100694D01*
X45400Y100381D01*
X45630D01*
Y110730D01*
D02*
G37*
G36*
X181019Y259230D02*
X170670D01*
Y254881D01*
X176900D01*
X178476Y255194D01*
X179813Y256087D01*
X180706Y257424D01*
X181019Y259000D01*
Y259230D01*
D02*
G37*
G36*
X168130D02*
X157781D01*
Y259000D01*
X158094Y257424D01*
X158987Y256087D01*
X160324Y255194D01*
X161900Y254881D01*
X168130D01*
Y259230D01*
D02*
G37*
G36*
X220930Y262930D02*
X208660D01*
Y256720D01*
X208660Y256410D01*
X207912Y255450D01*
X200700D01*
Y251539D01*
X179342D01*
X179255Y251975D01*
X178702Y252802D01*
X177875Y253355D01*
X176900Y253549D01*
X161900D01*
X160925Y253355D01*
X160098Y252802D01*
X159545Y251975D01*
X159351Y251000D01*
Y248000D01*
X159545Y247025D01*
X160098Y246198D01*
X160925Y245645D01*
X161900Y245451D01*
X176900D01*
X177875Y245645D01*
X178702Y246198D01*
X179255Y247025D01*
X179342Y247461D01*
X200700D01*
Y243450D01*
X207912D01*
X208660Y242490D01*
X208660Y242180D01*
Y235970D01*
X220930D01*
Y242490D01*
X213948D01*
X213200Y243450D01*
X213200Y243760D01*
Y255140D01*
X213200Y255450D01*
X213948Y256410D01*
X220930D01*
Y262930D01*
D02*
G37*
G36*
X176900Y266119D02*
X170670D01*
Y261770D01*
X181019D01*
Y262000D01*
X180706Y263576D01*
X179813Y264913D01*
X178476Y265806D01*
X176900Y266119D01*
D02*
G37*
G36*
X168130D02*
X161900D01*
X160324Y265806D01*
X158987Y264913D01*
X158094Y263576D01*
X157781Y262000D01*
Y261770D01*
X168130D01*
Y266119D01*
D02*
G37*
G36*
X235740Y262930D02*
X223470D01*
Y256410D01*
X235740D01*
Y262930D01*
D02*
G37*
G36*
X94500Y246014D02*
X93232Y245761D01*
X92157Y245043D01*
X91439Y243968D01*
X91186Y242700D01*
X91439Y241432D01*
X92157Y240357D01*
X93232Y239639D01*
X94500Y239386D01*
X95768Y239639D01*
X96843Y240357D01*
X97561Y241432D01*
X97814Y242700D01*
X97561Y243968D01*
X96843Y245043D01*
X95768Y245761D01*
X94500Y246014D01*
D02*
G37*
G36*
X235740Y242490D02*
X223470D01*
Y235970D01*
X235740D01*
Y242490D01*
D02*
G37*
G36*
X19900Y242549D02*
X4900D01*
X3925Y242355D01*
X3098Y241802D01*
X2545Y240975D01*
X2351Y240000D01*
Y237000D01*
X2545Y236025D01*
X3098Y235198D01*
X3925Y234645D01*
X4900Y234451D01*
X19900D01*
X20875Y234645D01*
X21702Y235198D01*
X22255Y236025D01*
X22449Y237000D01*
Y240000D01*
X22255Y240975D01*
X21702Y241802D01*
X20875Y242355D01*
X19900Y242549D01*
D02*
G37*
G36*
X94500Y258014D02*
X93232Y257761D01*
X92157Y257043D01*
X91439Y255968D01*
X91186Y254700D01*
X91439Y253432D01*
X92157Y252357D01*
X93232Y251639D01*
X94500Y251386D01*
X95768Y251639D01*
X96843Y252357D01*
X97561Y253432D01*
X97814Y254700D01*
X97561Y255968D01*
X96843Y257043D01*
X95768Y257761D01*
X94500Y258014D01*
D02*
G37*
G36*
X176900Y244119D02*
X170670D01*
Y239770D01*
X181019D01*
Y240000D01*
X180706Y241576D01*
X179813Y242913D01*
X178476Y243806D01*
X176900Y244119D01*
D02*
G37*
G36*
X168130D02*
X161900D01*
X160324Y243806D01*
X158987Y242913D01*
X158094Y241576D01*
X157781Y240000D01*
Y239770D01*
X168130D01*
Y244119D01*
D02*
G37*
G36*
X42600Y265714D02*
X41332Y265461D01*
X40257Y264743D01*
X40054Y264439D01*
X20452D01*
X19900Y264549D01*
X4900D01*
X3925Y264355D01*
X3098Y263802D01*
X2545Y262975D01*
X2351Y262000D01*
Y259000D01*
X2545Y258025D01*
X3098Y257198D01*
X3925Y256645D01*
X4900Y256451D01*
X19900D01*
X20875Y256645D01*
X21702Y257198D01*
X22255Y258025D01*
X22449Y259000D01*
Y260361D01*
X40054D01*
X40257Y260057D01*
X41332Y259339D01*
X41900Y259226D01*
X42041Y259197D01*
Y257903D01*
X41900Y257874D01*
X41332Y257761D01*
X40257Y257043D01*
X39539Y255968D01*
X39286Y254700D01*
X39369Y254284D01*
X39097Y253939D01*
X38261Y253348D01*
X37800Y253439D01*
X20452D01*
X19900Y253549D01*
X4900D01*
X3925Y253355D01*
X3098Y252802D01*
X2545Y251975D01*
X2351Y251000D01*
Y248000D01*
X2545Y247025D01*
X3098Y246198D01*
X3925Y245645D01*
X4900Y245451D01*
X19900D01*
X20875Y245645D01*
X21702Y246198D01*
X22255Y247025D01*
X22449Y248000D01*
Y249361D01*
X36955D01*
X39158Y247159D01*
X39086Y246800D01*
X39339Y245532D01*
X40057Y244457D01*
X41132Y243739D01*
X42400Y243486D01*
X43668Y243739D01*
X44743Y244457D01*
X45461Y245532D01*
X45714Y246800D01*
X45461Y248068D01*
X44743Y249143D01*
X43668Y249861D01*
X43135Y249967D01*
X43023Y250176D01*
X43698Y251605D01*
X43868Y251639D01*
X44943Y252357D01*
X45661Y253432D01*
X45914Y254700D01*
X45661Y255968D01*
X44943Y257043D01*
X43868Y257761D01*
X43300Y257874D01*
X43158Y257903D01*
Y259197D01*
X43300Y259226D01*
X43868Y259339D01*
X44943Y260057D01*
X45661Y261132D01*
X45914Y262400D01*
X45661Y263668D01*
X44943Y264743D01*
X43868Y265461D01*
X42600Y265714D01*
D02*
G37*
G36*
X48400Y298049D02*
X45400D01*
X44425Y297855D01*
X43598Y297302D01*
X43045Y296475D01*
X42851Y295500D01*
Y280500D01*
X43045Y279525D01*
X43598Y278698D01*
X44425Y278145D01*
X45400Y277951D01*
X48400D01*
X49375Y278145D01*
X50202Y278698D01*
X50755Y279525D01*
X50949Y280500D01*
Y295500D01*
X50755Y296475D01*
X50202Y297302D01*
X49375Y297855D01*
X48400Y298049D01*
D02*
G37*
G36*
X118519Y286730D02*
X114170D01*
Y276381D01*
X114400D01*
X115976Y276694D01*
X117313Y277587D01*
X118206Y278924D01*
X118519Y280500D01*
Y286730D01*
D02*
G37*
G36*
X100630D02*
X96281D01*
Y280500D01*
X96594Y278924D01*
X97487Y277587D01*
X98824Y276694D01*
X100400Y276381D01*
X100630D01*
Y286730D01*
D02*
G37*
G36*
X136400Y298049D02*
X133400D01*
X132425Y297855D01*
X131598Y297302D01*
X131045Y296475D01*
X130851Y295500D01*
Y291569D01*
X127949D01*
Y295500D01*
X127755Y296475D01*
X127202Y297302D01*
X126375Y297855D01*
X125400Y298049D01*
X122400D01*
X121425Y297855D01*
X120598Y297302D01*
X120045Y296475D01*
X119851Y295500D01*
Y280500D01*
X120045Y279525D01*
X120598Y278698D01*
X121425Y278145D01*
X122400Y277951D01*
X125400D01*
X126375Y278145D01*
X127202Y278698D01*
X127755Y279525D01*
X127949Y280500D01*
Y284431D01*
X130851D01*
Y280500D01*
X131045Y279525D01*
X131598Y278698D01*
X132425Y278145D01*
X133400Y277951D01*
X136400D01*
X137375Y278145D01*
X138202Y278698D01*
X138755Y279525D01*
X138949Y280500D01*
Y286231D01*
X178431D01*
Y280606D01*
X178412Y280565D01*
X177232Y279656D01*
X177206Y279653D01*
X176650Y279764D01*
X175382Y279511D01*
X174307Y278793D01*
X173589Y277718D01*
X173336Y276450D01*
X173589Y275182D01*
X174307Y274107D01*
X175382Y273389D01*
X176650Y273136D01*
X177918Y273389D01*
X178993Y274107D01*
X179711Y275182D01*
X179722Y275235D01*
X181100Y275653D01*
X186880Y269873D01*
Y269350D01*
X187152Y267984D01*
X187926Y266827D01*
X189083Y266053D01*
X190449Y265781D01*
X191815Y266053D01*
X192972Y266827D01*
X193746Y267984D01*
X194018Y269350D01*
Y271351D01*
X194934Y272264D01*
X195121Y272313D01*
X195532Y272039D01*
X196800Y271786D01*
X198068Y272039D01*
X198561Y272368D01*
X198861D01*
Y272509D01*
X199109Y272734D01*
X199143Y272757D01*
X199157Y272778D01*
X199678Y273251D01*
X200861Y272860D01*
Y272368D01*
X206861D01*
Y280368D01*
X205901D01*
Y282461D01*
X209600D01*
Y281500D01*
X217600D01*
Y287500D01*
X209600D01*
Y286539D01*
X203725D01*
X203450Y286814D01*
Y289761D01*
X206200D01*
X206980Y289916D01*
X207642Y290358D01*
X207745Y290461D01*
X209600D01*
Y289500D01*
X217600D01*
X217600Y289500D01*
Y289500D01*
X218497Y288719D01*
X220408Y286808D01*
X220408Y286808D01*
X221070Y286366D01*
X221850Y286211D01*
X223077D01*
X223218Y286000D01*
Y282000D01*
X223535Y281235D01*
X224300Y280918D01*
X226300D01*
X226309Y280921D01*
X227554Y281235D01*
X228320Y280918D01*
X232320D01*
X232377Y280941D01*
X234728D01*
X234732Y280939D01*
X236000Y280686D01*
X237268Y280939D01*
X237272Y280941D01*
X239428D01*
X239432Y280939D01*
X240700Y280686D01*
X241968Y280939D01*
X243043Y281657D01*
X243761Y282732D01*
X244014Y284000D01*
X243761Y285268D01*
X243043Y286343D01*
X241968Y287061D01*
X240700Y287314D01*
X239432Y287061D01*
X239428Y287059D01*
X237272D01*
X237268Y287061D01*
X236000Y287314D01*
X234732Y287061D01*
X234728Y287059D01*
X232377D01*
X232320Y287082D01*
X228320D01*
X227839Y287403D01*
Y289097D01*
X228320Y289418D01*
X232320D01*
X232377Y289441D01*
X233628D01*
X233632Y289439D01*
X234900Y289186D01*
X236168Y289439D01*
X236172Y289441D01*
X238728D01*
X238732Y289439D01*
X240000Y289186D01*
X241268Y289439D01*
X242343Y290157D01*
X243061Y291232D01*
X243314Y292500D01*
X243061Y293768D01*
X242343Y294843D01*
X241268Y295561D01*
X240000Y295814D01*
X238732Y295561D01*
X238728Y295559D01*
X236172D01*
X236168Y295561D01*
X234900Y295814D01*
X233632Y295561D01*
X233628Y295559D01*
X232377D01*
X232320Y295582D01*
X228320D01*
X227554Y295265D01*
X226309Y295579D01*
X226300Y295582D01*
X224300D01*
X223535Y295265D01*
X223218Y294500D01*
Y291562D01*
X221948Y291036D01*
X219042Y293942D01*
X218380Y294384D01*
X217600Y294539D01*
Y295500D01*
X209600D01*
Y294539D01*
X206900D01*
X206120Y294384D01*
X205458Y293942D01*
X205458Y293942D01*
X205355Y293839D01*
X201200D01*
X201003Y293800D01*
X198950D01*
Y285800D01*
X199236D01*
X199316Y285400D01*
X199758Y284738D01*
X201438Y283058D01*
X201822Y282801D01*
Y280368D01*
X200861D01*
Y277340D01*
X199678Y276949D01*
X199157Y277422D01*
X199143Y277443D01*
X199109Y277466D01*
X198861Y277691D01*
Y280368D01*
X192861D01*
Y275645D01*
X191688Y275159D01*
X185569Y281278D01*
Y286231D01*
X193300D01*
X193645Y286300D01*
X196950D01*
Y293300D01*
X193645D01*
X193300Y293369D01*
X183859D01*
X183561Y293568D01*
X182000Y293878D01*
X180439Y293568D01*
X180141Y293369D01*
X138949D01*
Y295500D01*
X138755Y296475D01*
X138202Y297302D01*
X137375Y297855D01*
X136400Y298049D01*
D02*
G37*
G36*
X92400D02*
X89400D01*
X88425Y297855D01*
X87598Y297302D01*
X87045Y296475D01*
X86851Y295500D01*
Y280500D01*
X87045Y279525D01*
X87598Y278698D01*
X88425Y278145D01*
X89400Y277951D01*
X92400D01*
X93375Y278145D01*
X94202Y278698D01*
X94755Y279525D01*
X94949Y280500D01*
Y295500D01*
X94755Y296475D01*
X94202Y297302D01*
X93375Y297855D01*
X92400Y298049D01*
D02*
G37*
G36*
X59400D02*
X56400D01*
X55425Y297855D01*
X54598Y297302D01*
X54045Y296475D01*
X53851Y295500D01*
Y280500D01*
X54045Y279525D01*
X54598Y278698D01*
X55425Y278145D01*
X56400Y277951D01*
X59400D01*
X60375Y278145D01*
X61202Y278698D01*
X61755Y279525D01*
X61949Y280500D01*
Y295500D01*
X61755Y296475D01*
X61202Y297302D01*
X60375Y297855D01*
X59400Y298049D01*
D02*
G37*
G36*
X235740Y271990D02*
X223470D01*
Y265470D01*
X235740D01*
Y271990D01*
D02*
G37*
G36*
X220930D02*
X208660D01*
Y265470D01*
X220930D01*
Y271990D01*
D02*
G37*
G36*
X81400Y298049D02*
X78400D01*
X77425Y297855D01*
X76598Y297302D01*
X76045Y296475D01*
X75851Y295500D01*
Y280500D01*
X76045Y279525D01*
X76598Y278698D01*
X77425Y278145D01*
X77661Y278098D01*
Y270446D01*
X77357Y270243D01*
X76639Y269168D01*
X76386Y267900D01*
X76639Y266632D01*
X77357Y265557D01*
X78432Y264839D01*
X79700Y264586D01*
X80968Y264839D01*
X82043Y265557D01*
X82761Y266632D01*
X83014Y267900D01*
X82761Y269168D01*
X82043Y270243D01*
X81739Y270446D01*
Y278018D01*
X82375Y278145D01*
X83202Y278698D01*
X83755Y279525D01*
X83949Y280500D01*
Y295500D01*
X83755Y296475D01*
X83202Y297302D01*
X82375Y297855D01*
X81400Y298049D01*
D02*
G37*
G36*
X151250Y280364D02*
X149982Y280111D01*
X148907Y279393D01*
X148189Y278318D01*
X147936Y277050D01*
X148189Y275782D01*
X148907Y274707D01*
X149982Y273989D01*
X151250Y273736D01*
X152518Y273989D01*
X153593Y274707D01*
X154311Y275782D01*
X154564Y277050D01*
X154311Y278318D01*
X153593Y279393D01*
X152518Y280111D01*
X151250Y280364D01*
D02*
G37*
G36*
X163950Y280164D02*
X162682Y279911D01*
X161607Y279193D01*
X160889Y278118D01*
X160636Y276850D01*
X160889Y275582D01*
X161607Y274507D01*
X162682Y273789D01*
X163950Y273536D01*
X165218Y273789D01*
X166293Y274507D01*
X167011Y275582D01*
X167264Y276850D01*
X167011Y278118D01*
X166293Y279193D01*
X165218Y279911D01*
X163950Y280164D01*
D02*
G37*
G36*
X70400Y298049D02*
X67400D01*
X66425Y297855D01*
X65598Y297302D01*
X65045Y296475D01*
X64851Y295500D01*
Y280500D01*
X65045Y279525D01*
X65598Y278698D01*
X66101Y278361D01*
X65839Y277968D01*
X65586Y276700D01*
X65839Y275432D01*
X66557Y274357D01*
X67632Y273639D01*
X68900Y273386D01*
X70168Y273639D01*
X71243Y274357D01*
X71961Y275432D01*
X72214Y276700D01*
X71961Y277968D01*
X71699Y278361D01*
X72202Y278698D01*
X72755Y279525D01*
X72949Y280500D01*
Y295500D01*
X72755Y296475D01*
X72202Y297302D01*
X71375Y297855D01*
X70400Y298049D01*
D02*
G37*
G36*
X168130Y193230D02*
X157781D01*
Y193000D01*
X158094Y191424D01*
X158987Y190087D01*
X160324Y189194D01*
X161900Y188881D01*
X168130D01*
Y193230D01*
D02*
G37*
G36*
X125100Y192514D02*
X123832Y192261D01*
X122757Y191543D01*
X122039Y190468D01*
X121786Y189200D01*
X122039Y187932D01*
X122757Y186857D01*
X123832Y186139D01*
X125100Y185886D01*
X126368Y186139D01*
X127443Y186857D01*
X128161Y187932D01*
X128414Y189200D01*
X128161Y190468D01*
X127443Y191543D01*
X126368Y192261D01*
X125100Y192514D01*
D02*
G37*
G36*
X19900Y189119D02*
X13670D01*
Y184770D01*
X24019D01*
Y185000D01*
X23706Y186576D01*
X22813Y187913D01*
X21476Y188806D01*
X19900Y189119D01*
D02*
G37*
G36*
X168130Y200119D02*
X161900D01*
X160324Y199806D01*
X158987Y198913D01*
X158094Y197576D01*
X157781Y196000D01*
Y195770D01*
X168130D01*
Y200119D01*
D02*
G37*
G36*
X176900D02*
X170670D01*
Y194500D01*
Y188881D01*
X176900D01*
X178476Y189194D01*
X179813Y190087D01*
X180062Y190460D01*
X181332Y191139D01*
X181856Y191034D01*
X182600Y190886D01*
X183868Y191139D01*
X184943Y191857D01*
X185661Y192932D01*
X185914Y194200D01*
X185661Y195468D01*
X184943Y196543D01*
X183868Y197261D01*
X182600Y197514D01*
X182035Y197401D01*
X181017Y197535D01*
X180339Y198125D01*
X179813Y198913D01*
X178476Y199806D01*
X176900Y200119D01*
D02*
G37*
G36*
X19900Y198549D02*
X4900D01*
X3925Y198355D01*
X3098Y197802D01*
X2545Y196975D01*
X2351Y196000D01*
Y193000D01*
X2545Y192025D01*
X3098Y191198D01*
X3925Y190645D01*
X4900Y190451D01*
X19900D01*
X20875Y190645D01*
X21702Y191198D01*
X22255Y192025D01*
X22449Y193000D01*
Y196000D01*
X22255Y196975D01*
X21702Y197802D01*
X20875Y198355D01*
X19900Y198549D01*
D02*
G37*
G36*
X182800Y178714D02*
X181532Y178461D01*
X180457Y177743D01*
X179739Y176668D01*
X179713Y176538D01*
X179494Y176379D01*
X178322Y176056D01*
X177875Y176355D01*
X176900Y176549D01*
X161900D01*
X160925Y176355D01*
X160098Y175802D01*
X159545Y174975D01*
X159351Y174000D01*
Y171000D01*
X159545Y170025D01*
X160098Y169198D01*
X160925Y168645D01*
X161900Y168451D01*
X176900D01*
X177875Y168645D01*
X178702Y169198D01*
X179255Y170025D01*
X179449Y171000D01*
Y172319D01*
X179789Y172568D01*
X180719Y172882D01*
X181532Y172339D01*
X182800Y172086D01*
X184068Y172339D01*
X185143Y173057D01*
X185861Y174132D01*
X186114Y175400D01*
X185861Y176668D01*
X185143Y177743D01*
X184068Y178461D01*
X182800Y178714D01*
D02*
G37*
G36*
X19900Y176549D02*
X4900D01*
X3925Y176355D01*
X3098Y175802D01*
X2545Y174975D01*
X2351Y174000D01*
Y171000D01*
X2545Y170025D01*
X3098Y169198D01*
X3925Y168645D01*
X4900Y168451D01*
X19900D01*
X20875Y168645D01*
X21702Y169198D01*
X22255Y170025D01*
X22449Y171000D01*
Y174000D01*
X22255Y174975D01*
X21702Y175802D01*
X20875Y176355D01*
X19900Y176549D01*
D02*
G37*
G36*
X62000Y172214D02*
X60732Y171961D01*
X59657Y171243D01*
X58939Y170168D01*
X58686Y168900D01*
X58939Y167632D01*
X59657Y166557D01*
X60732Y165839D01*
X62000Y165586D01*
X63268Y165839D01*
X64343Y166557D01*
X65061Y167632D01*
X65314Y168900D01*
X65061Y170168D01*
X64343Y171243D01*
X63268Y171961D01*
X62000Y172214D01*
D02*
G37*
G36*
X176900Y187549D02*
X161900D01*
X160925Y187355D01*
X160098Y186802D01*
X159545Y185975D01*
X159351Y185000D01*
Y182000D01*
X159545Y181025D01*
X160098Y180198D01*
X160925Y179645D01*
X161900Y179451D01*
X176900D01*
X177875Y179645D01*
X178702Y180198D01*
X179255Y181025D01*
X179308Y181291D01*
X179758Y181512D01*
X180685Y181705D01*
X181532Y181139D01*
X182800Y180886D01*
X184068Y181139D01*
X185143Y181857D01*
X185861Y182932D01*
X186114Y184200D01*
X185861Y185468D01*
X185143Y186543D01*
X184068Y187261D01*
X182800Y187514D01*
X181532Y187261D01*
X180457Y186543D01*
X180372Y186416D01*
X180350Y186407D01*
X178902Y186503D01*
X178702Y186802D01*
X177875Y187355D01*
X176900Y187549D01*
D02*
G37*
G36*
X139700Y187514D02*
X138432Y187261D01*
X137357Y186543D01*
X136639Y185468D01*
X136386Y184200D01*
X136639Y182932D01*
X137357Y181857D01*
X138432Y181139D01*
X139700Y180886D01*
X140968Y181139D01*
X142043Y181857D01*
X142761Y182932D01*
X143014Y184200D01*
X142761Y185468D01*
X142043Y186543D01*
X140968Y187261D01*
X139700Y187514D01*
D02*
G37*
G36*
X24019Y182230D02*
X13670D01*
Y177881D01*
X19900D01*
X21476Y178194D01*
X22813Y179087D01*
X23706Y180424D01*
X24019Y182000D01*
Y182230D01*
D02*
G37*
G36*
X135100Y202614D02*
X133832Y202361D01*
X132757Y201643D01*
X132039Y200568D01*
X131786Y199300D01*
X132039Y198032D01*
X132757Y196957D01*
X133832Y196239D01*
X135100Y195986D01*
X136368Y196239D01*
X137443Y196957D01*
X138161Y198032D01*
X138414Y199300D01*
X138161Y200568D01*
X137443Y201643D01*
X136368Y202361D01*
X135100Y202614D01*
D02*
G37*
G36*
X220930Y233430D02*
X208660D01*
Y226910D01*
X220930D01*
Y233430D01*
D02*
G37*
G36*
X19900Y231549D02*
X4900D01*
X3925Y231355D01*
X3098Y230802D01*
X2545Y229975D01*
X2351Y229000D01*
Y226000D01*
X2545Y225025D01*
X3098Y224198D01*
X3925Y223645D01*
X4900Y223451D01*
X19900D01*
X20875Y223645D01*
X21702Y224198D01*
X22255Y225025D01*
X22449Y226000D01*
Y229000D01*
X22255Y229975D01*
X21702Y230802D01*
X20875Y231355D01*
X19900Y231549D01*
D02*
G37*
G36*
X181019Y226230D02*
X170670D01*
Y221881D01*
X176900D01*
X178476Y222194D01*
X179813Y223087D01*
X180706Y224424D01*
X181019Y226000D01*
Y226230D01*
D02*
G37*
G36*
Y237230D02*
X169400D01*
X157781D01*
Y237000D01*
X158094Y235424D01*
X158987Y234087D01*
X159472Y233764D01*
Y232236D01*
X158987Y231913D01*
X158094Y230576D01*
X157781Y229000D01*
Y228770D01*
X169400D01*
X181019D01*
Y229000D01*
X180706Y230576D01*
X179813Y231913D01*
X179328Y232236D01*
Y233764D01*
X179813Y234087D01*
X180706Y235424D01*
X181019Y237000D01*
Y237230D01*
D02*
G37*
G36*
X42500Y234014D02*
X41232Y233761D01*
X40157Y233043D01*
X39439Y231968D01*
X39186Y230700D01*
X39439Y229432D01*
X40157Y228357D01*
X41232Y227639D01*
X42500Y227386D01*
X43768Y227639D01*
X44843Y228357D01*
X45561Y229432D01*
X45814Y230700D01*
X45561Y231968D01*
X44843Y233043D01*
X43768Y233761D01*
X42500Y234014D01*
D02*
G37*
G36*
X235740Y233430D02*
X223470D01*
Y226910D01*
X235740D01*
Y233430D01*
D02*
G37*
G36*
X19900Y220549D02*
X4900D01*
X3925Y220355D01*
X3098Y219802D01*
X2545Y218976D01*
X2351Y218000D01*
Y215000D01*
X2545Y214025D01*
X3098Y213198D01*
X3925Y212645D01*
X4900Y212451D01*
X19900D01*
X20875Y212645D01*
X21702Y213198D01*
X22255Y214025D01*
X22449Y215000D01*
Y218000D01*
X22255Y218976D01*
X21702Y219802D01*
X20875Y220355D01*
X19900Y220549D01*
D02*
G37*
G36*
X240730Y214630D02*
X236604D01*
X236781Y213738D01*
X238006Y211906D01*
X239838Y210681D01*
X240730Y210504D01*
Y214630D01*
D02*
G37*
G36*
X19900Y209549D02*
X4900D01*
X3925Y209355D01*
X3098Y208802D01*
X2545Y207976D01*
X2351Y207000D01*
Y204000D01*
X2545Y203025D01*
X3098Y202198D01*
X3925Y201645D01*
X4900Y201451D01*
X19900D01*
X20875Y201645D01*
X21702Y202198D01*
X22255Y203025D01*
X22449Y204000D01*
Y207000D01*
X22255Y207976D01*
X21702Y208802D01*
X20875Y209355D01*
X19900Y209549D01*
D02*
G37*
G36*
X168130Y226230D02*
X157781D01*
Y226000D01*
X158094Y224424D01*
X158987Y223087D01*
X160324Y222194D01*
X161900Y221881D01*
X168130D01*
Y226230D01*
D02*
G37*
G36*
X176900Y220549D02*
X161900D01*
X160925Y220355D01*
X160098Y219802D01*
X159545Y218976D01*
X159503Y218763D01*
X158394Y218133D01*
X158147Y218089D01*
X158119Y218091D01*
X157000Y218313D01*
X155732Y218061D01*
X154657Y217343D01*
X153938Y216268D01*
X153686Y215000D01*
X153938Y213731D01*
X154657Y212656D01*
X155732Y211938D01*
X156338Y211817D01*
X156300Y210614D01*
X155032Y210361D01*
X153957Y209643D01*
X153445Y208877D01*
X152141Y209065D01*
X151961Y209968D01*
X151243Y211043D01*
X150168Y211761D01*
X148900Y212014D01*
X147632Y211761D01*
X146557Y211043D01*
X145839Y209968D01*
X145586Y208700D01*
X145839Y207432D01*
X146557Y206357D01*
X147632Y205639D01*
X148900Y205386D01*
X149907Y205587D01*
X150559Y204756D01*
X150655Y204539D01*
X148358Y202242D01*
X147916Y201580D01*
X147761Y200800D01*
Y168800D01*
X147916Y168020D01*
X148358Y167358D01*
X148584Y167132D01*
X148362Y166427D01*
X148039Y165882D01*
X146932Y165661D01*
X145857Y164943D01*
X145139Y163868D01*
X144886Y162600D01*
X145139Y161332D01*
X145857Y160257D01*
X146932Y159539D01*
X148200Y159286D01*
X148451Y159336D01*
X148686Y159253D01*
X149661Y158282D01*
Y154299D01*
X149816Y153519D01*
X150258Y152858D01*
X153907Y149208D01*
X153786Y148600D01*
X154038Y147332D01*
X154757Y146257D01*
X155832Y145538D01*
X157100Y145286D01*
X158368Y145538D01*
X159443Y146257D01*
X160925Y146645D01*
X161900Y146451D01*
X176900D01*
X177875Y146645D01*
X177999Y146728D01*
X179607Y146607D01*
X180682Y145889D01*
X181950Y145636D01*
X183218Y145889D01*
X183584Y146133D01*
X184995Y145549D01*
X185039Y145332D01*
X185757Y144257D01*
X186832Y143539D01*
X188100Y143286D01*
X189368Y143539D01*
X190443Y144257D01*
X191161Y145332D01*
X191414Y146600D01*
X191161Y147868D01*
X190443Y148943D01*
X189368Y149661D01*
X188100Y149914D01*
X186832Y149661D01*
X186466Y149417D01*
X185055Y150001D01*
X185011Y150218D01*
X184293Y151293D01*
X183218Y152011D01*
X181950Y152264D01*
X180712Y152017D01*
X180672Y152011D01*
X180590Y152011D01*
X179323Y152631D01*
X179255Y152975D01*
X178702Y153802D01*
X177875Y154355D01*
X176900Y154549D01*
X161900D01*
X160925Y154355D01*
X160098Y153802D01*
X159545Y152975D01*
X159444Y152469D01*
X158967Y152111D01*
X158385Y151786D01*
X158081Y151718D01*
X157100Y151913D01*
X156991Y151892D01*
X154849Y154034D01*
X155632Y155039D01*
X156900Y154786D01*
X158168Y155039D01*
X159243Y155757D01*
X159929Y156783D01*
X159991Y156857D01*
X160925Y157645D01*
X161304Y157570D01*
X161900Y157451D01*
X176900D01*
X177875Y157645D01*
X178702Y158198D01*
X179255Y159025D01*
X179373Y159618D01*
X180328Y160126D01*
X180719Y160181D01*
X181232Y159839D01*
X182500Y159586D01*
X183768Y159839D01*
X184843Y160557D01*
X185561Y161632D01*
X185814Y162900D01*
X185561Y164168D01*
X184843Y165243D01*
X183768Y165961D01*
X182500Y166214D01*
X181232Y165961D01*
X180157Y165243D01*
X180046Y165077D01*
X179277Y164920D01*
X178448Y164972D01*
X177875Y165355D01*
X176900Y165549D01*
X161900D01*
X160925Y165355D01*
X160098Y164802D01*
X159545Y163975D01*
X159351Y163000D01*
Y161898D01*
X158203Y161183D01*
X158081Y161179D01*
X156900Y161414D01*
X156809Y161396D01*
X155539Y162438D01*
Y165100D01*
X155384Y165880D01*
X154942Y166542D01*
X151839Y169645D01*
Y199955D01*
X155941Y204058D01*
X156300Y203986D01*
X157568Y204239D01*
X158081Y204581D01*
X159351Y204000D01*
X159545Y203025D01*
X160098Y202198D01*
X160925Y201645D01*
X161900Y201451D01*
X176900D01*
X177875Y201645D01*
X178702Y202198D01*
X179255Y203025D01*
X179449Y204000D01*
Y207000D01*
X179255Y207976D01*
X178702Y208802D01*
X177875Y209355D01*
X176900Y209549D01*
X161900D01*
X160925Y209355D01*
X160463Y209046D01*
X159161Y209170D01*
X158888Y209277D01*
X158643Y209643D01*
X157568Y210361D01*
X156962Y210482D01*
X157000Y211686D01*
X158268Y211938D01*
X159343Y212656D01*
X160882Y212674D01*
X160925Y212645D01*
X161900Y212451D01*
X176900D01*
X177875Y212645D01*
X178617Y211613D01*
X179256Y210657D01*
X180332Y209938D01*
X181600Y209686D01*
X182868Y209938D01*
X183943Y210657D01*
X184661Y211731D01*
X184913Y213000D01*
X184661Y214268D01*
X183943Y215343D01*
X182868Y216061D01*
X181600Y216313D01*
X180719Y216138D01*
X179449Y216882D01*
Y218000D01*
X179255Y218976D01*
X178702Y219802D01*
X177875Y220355D01*
X176900Y220549D01*
D02*
G37*
G36*
X240730Y221296D02*
X239838Y221119D01*
X238006Y219894D01*
X236781Y218062D01*
X236604Y217170D01*
X240730D01*
Y221296D01*
D02*
G37*
%LPD*%
G36*
X232320Y290500D02*
X228320D01*
X230320Y292500D01*
X228320Y294500D01*
X232320D01*
Y290500D01*
D02*
G37*
G36*
X228300Y292500D02*
X226300Y290500D01*
X224300D01*
Y294500D01*
X226300D01*
X228300Y292500D01*
D02*
G37*
G36*
X228300Y284000D02*
X226300Y282000D01*
X224300D01*
Y286000D01*
X226300D01*
X228300Y284000D01*
D02*
G37*
G36*
X232320Y282000D02*
X228320D01*
X230320Y284000D01*
X228320Y286000D01*
X232320D01*
Y282000D01*
D02*
G37*
%LPC*%
G36*
X22800Y62914D02*
X21532Y62661D01*
X20457Y61943D01*
X19739Y60868D01*
X19486Y59600D01*
X19739Y58332D01*
X20457Y57257D01*
X21532Y56539D01*
X22800Y56286D01*
X24068Y56539D01*
X25143Y57257D01*
X25861Y58332D01*
X26114Y59600D01*
X25861Y60868D01*
X25143Y61943D01*
X24068Y62661D01*
X22800Y62914D01*
D02*
G37*
G36*
X31830Y27430D02*
X27560D01*
Y24160D01*
X31830D01*
Y27430D01*
D02*
G37*
G36*
X20300Y34414D02*
X19032Y34161D01*
X17957Y33443D01*
X17728Y33100D01*
X16300D01*
Y27100D01*
X24300D01*
Y33100D01*
X22872D01*
X22643Y33443D01*
X21568Y34161D01*
X20300Y34414D01*
D02*
G37*
G36*
X164240Y25040D02*
X160970D01*
Y20770D01*
X164240D01*
Y25040D01*
D02*
G37*
%LPD*%
D10*
X20300Y30100D02*
D03*
Y22100D02*
D03*
X33100Y28700D02*
D03*
Y36700D02*
D03*
X213600Y292500D02*
D03*
Y284500D02*
D03*
X20400Y82000D02*
D03*
Y90000D02*
D03*
X56400Y75300D02*
D03*
Y67300D02*
D03*
X190400Y78400D02*
D03*
Y86400D02*
D03*
Y66800D02*
D03*
Y58800D02*
D03*
D11*
X71000Y76500D02*
D03*
X81500D02*
D03*
Y63000D02*
D03*
X71000D02*
D03*
D12*
X172600Y76400D02*
D03*
Y61400D02*
D03*
D13*
X52800Y32900D02*
D03*
X194700Y289800D02*
D03*
D14*
X46300Y34900D02*
D03*
Y30900D02*
D03*
X201200Y287800D02*
D03*
Y291800D02*
D03*
D15*
X183397Y24703D02*
D03*
X187300Y20800D02*
D03*
X171200Y23900D02*
D03*
X175103Y19997D02*
D03*
D16*
X56150Y23300D02*
D03*
Y17781D02*
D03*
X44200Y23300D02*
D03*
Y17781D02*
D03*
X68100D02*
D03*
Y23300D02*
D03*
D17*
X225800Y292500D02*
D03*
X231320D02*
D03*
X225800Y284000D02*
D03*
X231320D02*
D03*
D18*
X120100Y93700D02*
D03*
X111100D02*
D03*
X98600Y93100D02*
D03*
X89600D02*
D03*
X151700Y19500D02*
D03*
X159700D02*
D03*
X77200Y47900D02*
D03*
X69200D02*
D03*
X80000Y34500D02*
D03*
X72000D02*
D03*
X79000Y20600D02*
D03*
X87000D02*
D03*
X76800Y91100D02*
D03*
X68800D02*
D03*
X203861Y276368D02*
D03*
X195861D02*
D03*
D19*
X245300Y165000D02*
D03*
Y143000D02*
D03*
X218900Y118000D02*
D03*
X245300D02*
D03*
X218900Y96000D02*
D03*
X245300Y71000D02*
D03*
X196300Y49000D02*
D03*
X218900Y71000D02*
D03*
X245300Y96000D02*
D03*
X218900Y143000D02*
D03*
X205900Y165000D02*
D03*
D20*
X245300Y28000D02*
D03*
X196300D02*
D03*
D21*
X222200Y264200D02*
D03*
Y234700D02*
D03*
D22*
X206950Y249450D02*
D03*
D23*
X41800Y49800D02*
D03*
Y53800D02*
D03*
X45800Y49800D02*
D03*
Y53800D02*
D03*
X49800Y49800D02*
D03*
Y53800D02*
D03*
X53800Y49800D02*
D03*
Y53800D02*
D03*
D24*
X31750Y82050D02*
D03*
Y88550D02*
D03*
X40050Y82050D02*
D03*
Y88550D02*
D03*
D25*
X35900Y85300D02*
D03*
D26*
X103150Y73000D02*
D03*
Y69000D02*
D03*
Y65000D02*
D03*
Y61000D02*
D03*
Y57000D02*
D03*
Y53000D02*
D03*
Y49000D02*
D03*
Y45000D02*
D03*
Y41000D02*
D03*
Y37000D02*
D03*
X151650D02*
D03*
Y41000D02*
D03*
Y45000D02*
D03*
Y49000D02*
D03*
Y53000D02*
D03*
Y57000D02*
D03*
Y61000D02*
D03*
Y65000D02*
D03*
Y69000D02*
D03*
Y73000D02*
D03*
D27*
X109400Y30750D02*
D03*
X113400D02*
D03*
X117400D02*
D03*
X121400D02*
D03*
X125400D02*
D03*
X129400D02*
D03*
X133400D02*
D03*
X137400D02*
D03*
X141400D02*
D03*
X145400D02*
D03*
Y79250D02*
D03*
X141400D02*
D03*
X137400D02*
D03*
X133400D02*
D03*
X129400D02*
D03*
X125400D02*
D03*
X121400D02*
D03*
X117400D02*
D03*
X113400D02*
D03*
X109400D02*
D03*
D28*
X127400Y55000D02*
D03*
D29*
X182000Y289800D02*
D03*
X60700Y49800D02*
D03*
X60400Y40600D02*
D03*
X31600Y57900D02*
D03*
X32600Y47700D02*
D03*
X0Y25400D02*
D03*
X8000D02*
D03*
X152400Y8000D02*
D03*
Y0D02*
D03*
X139700Y8000D02*
D03*
Y0D02*
D03*
X165100Y8000D02*
D03*
Y0D02*
D03*
X203200Y8000D02*
D03*
Y0D02*
D03*
X242000Y215900D02*
D03*
X250000D02*
D03*
X242000Y203200D02*
D03*
X250000D02*
D03*
X63500Y8000D02*
D03*
Y0D02*
D03*
X8000Y76200D02*
D03*
X0D02*
D03*
X8000Y88900D02*
D03*
X0D02*
D03*
X8000Y38100D02*
D03*
X0D02*
D03*
X8000Y50800D02*
D03*
X0D02*
D03*
X190500Y8000D02*
D03*
Y0D02*
D03*
X177800Y8000D02*
D03*
Y0D02*
D03*
X38100Y8000D02*
D03*
Y0D02*
D03*
X25400Y8000D02*
D03*
Y0D02*
D03*
X127000Y8000D02*
D03*
Y0D02*
D03*
X50800Y8000D02*
D03*
Y0D02*
D03*
X88900Y8000D02*
D03*
Y0D02*
D03*
X101600Y8000D02*
D03*
Y0D02*
D03*
X114300Y8000D02*
D03*
Y0D02*
D03*
X76200Y8000D02*
D03*
Y0D02*
D03*
D30*
X46900Y288000D02*
D03*
X57900D02*
D03*
X68900D02*
D03*
X79900D02*
D03*
X90900D02*
D03*
X101900D02*
D03*
X112900D02*
D03*
X123900D02*
D03*
X134900D02*
D03*
Y112000D02*
D03*
X123900D02*
D03*
X112900D02*
D03*
X101900D02*
D03*
X90900D02*
D03*
X79900D02*
D03*
X68900D02*
D03*
X57900D02*
D03*
X46900D02*
D03*
D31*
X169400Y260500D02*
D03*
Y249500D02*
D03*
Y238500D02*
D03*
Y227500D02*
D03*
Y216500D02*
D03*
Y205500D02*
D03*
Y194500D02*
D03*
Y183500D02*
D03*
Y172500D02*
D03*
Y161500D02*
D03*
Y150500D02*
D03*
Y139500D02*
D03*
X12400D02*
D03*
Y150500D02*
D03*
Y161500D02*
D03*
Y172500D02*
D03*
Y183500D02*
D03*
Y194500D02*
D03*
Y205500D02*
D03*
Y216500D02*
D03*
Y227500D02*
D03*
Y238500D02*
D03*
Y249500D02*
D03*
Y260500D02*
D03*
D32*
X188700Y28000D02*
X198100D01*
X197100Y15600D02*
Y39300D01*
X198300Y28000D02*
X198320D01*
X198100D02*
X198320D01*
D33*
X55800Y53800D02*
Y66700D01*
X93500Y41000D02*
X103150D01*
X12400Y262400D02*
X42600D01*
X31600Y58300D02*
X43300D01*
X79700Y267900D02*
Y289700D01*
X32200Y36600D02*
X38300D01*
X12400Y251400D02*
X37800D01*
X166830Y34370D02*
X174700Y26500D01*
X163000Y45000D02*
X166830Y41170D01*
X20300Y30100D02*
Y31100D01*
Y30100D02*
X20300Y30100D01*
X16000Y22100D02*
X20300D01*
X12700Y25400D02*
X16000Y22100D01*
X8000Y25400D02*
X12700D01*
X31600Y58300D02*
Y65000D01*
X60700Y49800D02*
Y56700D01*
X22300Y44400D02*
X29300D01*
X39400Y35500D02*
X42500D01*
X38300Y36600D02*
X39400Y35500D01*
Y29590D02*
Y35500D01*
X42500D02*
X43100Y34900D01*
X95800Y73000D02*
X103150D01*
X92800Y69000D02*
X103150D01*
X66500Y75100D02*
X68100Y76700D01*
X59000Y75100D02*
X66500D01*
X165400Y76400D02*
X172600D01*
X151650Y73000D02*
Y80150D01*
X183500Y78400D02*
X190400D01*
X181500Y76400D02*
X183500Y78400D01*
X172600Y76400D02*
X181500D01*
X172600Y61400D02*
X180500D01*
X185900Y66800D01*
X190400D01*
X146200Y57000D02*
X151650D01*
X213600Y292500D02*
X217600D01*
X221850Y288250D01*
X225800D01*
Y284000D02*
Y288250D01*
Y292500D01*
X201200Y291800D02*
X206200D01*
X206900Y292500D02*
X213600D01*
X206200Y291800D02*
X206900Y292500D01*
X158000Y69000D02*
X165400Y76400D01*
X139700Y8000D02*
Y13300D01*
X102400Y79950D02*
X108700D01*
X109400Y79250D01*
X151650Y69000D02*
X158000D01*
X151650Y45000D02*
X163000D01*
X151650Y41000D02*
X159000D01*
X145400Y15000D02*
X152400Y8000D01*
X139700Y13300D02*
X141400Y15000D01*
X44200Y47100D02*
X45800Y48700D01*
Y49800D01*
X43200Y47100D02*
X43600Y46700D01*
X53800Y49800D02*
X60700D01*
X49800Y45300D02*
Y49800D01*
Y45300D02*
X54500Y40600D01*
X60400D01*
X103150Y45000D02*
X109700D01*
X77400Y48600D02*
X81500D01*
X93510Y57000D02*
X103150D01*
X88100Y54900D02*
X90150Y56950D01*
X93460D01*
X93510Y57000D01*
X93910Y65000D02*
X103150D01*
X93460Y65450D02*
X93910Y65000D01*
X94600Y53000D02*
X103150D01*
X93600Y52800D02*
X94200Y53400D01*
X93600Y52700D02*
Y52800D01*
X97400Y49000D02*
X103150D01*
X94800Y46400D02*
X97400Y49000D01*
X89400Y46400D02*
X94800D01*
X90600Y37000D02*
X103150D01*
X86250Y32650D02*
X90600Y37000D01*
X103750Y30750D02*
X109400D01*
X101800Y28800D02*
X103750Y30750D01*
X101800Y24100D02*
Y28800D01*
X117400Y25900D02*
Y30750D01*
X121700Y15600D02*
X123150Y17050D01*
X121400Y23200D02*
Y30750D01*
X133400Y25490D02*
Y30750D01*
X60400Y40600D02*
X67100D01*
X31600Y57900D02*
Y58300D01*
X94200Y53400D02*
X94600Y53000D01*
X93500Y41000D02*
X93700Y41800D01*
X79000Y20600D02*
Y26400D01*
X68100Y23300D02*
Y27700D01*
X43200Y47100D02*
X44200D01*
X177800Y8000D02*
Y17300D01*
X175103Y19997D02*
X177800Y17300D01*
X190500Y8000D02*
Y17600D01*
X187300Y20800D02*
X190500Y17600D01*
X68100Y17780D02*
X71420D01*
X29300Y44400D02*
X32600Y47700D01*
X137400Y79250D02*
Y89400D01*
X140000Y92000D01*
X133400Y79250D02*
Y95500D01*
X44200Y17781D02*
X56150D01*
X50800Y8000D02*
Y17381D01*
X52800Y29600D02*
Y32900D01*
Y29600D02*
X56150Y26250D01*
Y23300D02*
Y26250D01*
X27650Y88550D02*
X31750D01*
X26700Y87600D02*
X27650Y88550D01*
X26700Y82000D02*
Y82050D01*
Y87600D01*
X68900Y126200D02*
X71200Y128500D01*
X133400Y95500D02*
X134900Y97000D01*
X177600Y123000D02*
X195900D01*
X79700Y289700D02*
X79900Y289900D01*
X37800Y251400D02*
X42400Y246800D01*
X71200Y128500D02*
X74200D01*
X32600Y47700D02*
Y49700D01*
X36700Y53800D01*
X41800D01*
X152400Y93500D02*
X152400Y93500D01*
X141400Y79250D02*
Y87390D01*
X145400Y79250D02*
Y85300D01*
X131600Y23689D02*
X133400Y25490D01*
X131600Y23300D02*
Y23689D01*
X114300Y8000D02*
Y22800D01*
X117400Y25900D01*
X118900Y20700D02*
X121400Y23200D01*
X123150Y17050D02*
Y19650D01*
X125400Y21900D01*
Y30750D01*
X136400Y22400D02*
X137100Y23100D01*
X141400Y15000D02*
Y30750D01*
X151650Y19550D02*
Y37000D01*
X145400Y15000D02*
Y30750D01*
X137400D02*
Y37300D01*
X129400Y30750D02*
Y37200D01*
X160200Y34900D02*
X171200Y23900D01*
X159000Y41000D02*
X160200Y39800D01*
Y34900D02*
Y39800D01*
X145400Y85300D02*
X148900Y88800D01*
Y89000D01*
X141400Y87390D02*
X144650Y90639D01*
Y90760D01*
X147389Y93500D01*
X152400D01*
X101900Y113900D02*
Y126600D01*
X79900Y113900D02*
Y126500D01*
X68900Y113900D02*
Y126200D01*
X90900Y113900D02*
Y126400D01*
X68900Y288000D02*
Y289900D01*
Y276700D02*
Y288000D01*
X113400Y79250D02*
Y84600D01*
X110400Y87600D02*
X113400Y84600D01*
X91900Y76900D02*
X95800Y73000D01*
X98600Y93100D02*
X110500D01*
X91900Y76900D02*
Y84500D01*
X88800Y87600D02*
X91900Y84500D01*
X86000Y87600D02*
X88800D01*
X82500Y91100D02*
X86000Y87600D01*
X76800Y91100D02*
X82500D01*
X88300Y73500D02*
X92800Y69000D01*
X88300Y73500D02*
Y81300D01*
X84400Y63200D02*
X87500D01*
X89750Y65450D01*
X93460D01*
X81500Y48600D02*
Y60300D01*
X84400Y63200D01*
X71500Y76700D02*
Y82900D01*
X73600Y85000D01*
X84357D01*
X84757Y84600D01*
X85000D01*
X88300Y81300D01*
X68100Y76700D02*
X71500D01*
X92775Y91725D02*
X93725Y90775D01*
X95100Y87600D02*
X110400D01*
X90975Y91725D02*
X92775D01*
X89600Y93100D02*
X90975Y91725D01*
X93725Y88975D02*
Y90775D01*
Y88975D02*
X95100Y87600D01*
X117400Y79250D02*
Y85500D01*
X120100Y88200D01*
Y93700D01*
X71420Y17780D02*
X76200Y13000D01*
X46300Y28700D02*
Y30900D01*
X44200Y23300D02*
Y24790D01*
X39400Y29590D02*
X44200Y24790D01*
X46300Y28700D02*
X47702Y27298D01*
X48298D01*
X43300Y58300D02*
X45800Y55800D01*
Y53800D02*
Y55800D01*
X49800Y53800D02*
Y58400D01*
X53800Y53800D02*
X55800D01*
Y66700D02*
X56400Y67300D01*
X170800Y129800D02*
X177600Y123000D01*
X151600Y129800D02*
X170800D01*
X169400Y249500D02*
X206900D01*
X169800Y64200D02*
X172600Y61400D01*
X163200Y65600D02*
X164600Y64200D01*
X169800D01*
X151650Y61000D02*
X151650Y61000D01*
X159500Y65600D02*
X163200D01*
X151650Y65000D02*
X158900D01*
X159500Y65600D01*
X151650Y61000D02*
X161500D01*
X116400Y72400D02*
X117400Y73400D01*
Y79250D01*
X121400Y61000D02*
Y79250D01*
X69200Y46300D02*
Y47900D01*
Y46300D02*
X73500Y42000D01*
X72000Y34500D02*
Y40500D01*
X73500Y42000D01*
X43600Y45100D02*
Y46700D01*
X41800Y48500D02*
X43200Y47100D01*
X41800Y48500D02*
Y49800D01*
X37850Y43350D02*
Y44111D01*
X43100Y34900D02*
X46300D01*
X125400Y79250D02*
X125500Y79350D01*
Y91500D01*
X129750Y79600D02*
Y95550D01*
X129400Y79250D02*
X129750Y79600D01*
X126700Y98600D02*
X129750Y95550D01*
X149800Y200800D02*
X156300Y207300D01*
X149800Y168800D02*
Y200800D01*
Y168800D02*
X153500Y165100D01*
Y160710D02*
Y165100D01*
X151700Y158910D02*
X153500Y160710D01*
X151700Y154299D02*
Y158910D01*
Y154299D02*
X157100Y148900D01*
Y148600D02*
Y148900D01*
X174700Y26500D02*
X181500D01*
X113400Y26200D02*
Y30750D01*
X101600Y8000D02*
Y14400D01*
X113400Y26200D01*
X201200Y286180D02*
Y287800D01*
Y286180D02*
X202880Y284500D01*
X203861Y276368D02*
Y283519D01*
X202880Y284500D02*
X213600D01*
X166830Y39320D02*
Y41170D01*
Y34370D02*
Y39320D01*
X181500Y26500D02*
X183100Y24900D01*
X183800D01*
D34*
X26700Y82050D02*
X31750D01*
X20400Y82000D02*
X20450Y82050D01*
X26700Y77200D02*
Y82000D01*
X76200Y8000D02*
Y13000D01*
X79000Y15800D01*
Y20600D01*
D35*
X20450Y82050D02*
X26700D01*
X88900Y8000D02*
Y30000D01*
X232000Y292500D02*
X234900D01*
X240000D01*
X40050Y82050D02*
X44850D01*
X49650D01*
X232000Y284000D02*
X236000D01*
X240700D01*
X80000Y34500D02*
X84400D01*
X86250Y32650D01*
X88900Y30000D01*
X8000Y76200D02*
X14600D01*
X20400Y82000D01*
D36*
X35100Y71000D02*
Y75800D01*
X245300Y143000D02*
Y165000D01*
X218900Y143000D02*
X245300D01*
X218900Y118000D02*
X245300D01*
Y96000D02*
Y118000D01*
X218900Y96000D02*
X245300D01*
X218900Y71000D02*
Y96000D01*
Y71000D02*
X245300D01*
X196300Y49000D02*
X244970D01*
X245300Y28000D02*
Y71000D01*
X218900Y118000D02*
Y143000D01*
X205900Y165000D02*
X245300D01*
X182000Y289800D02*
X193300D01*
X135000D02*
X182000D01*
Y279800D02*
Y289800D01*
Y279800D02*
X190449Y271351D01*
X123900Y288000D02*
X134900D01*
X190449Y269350D02*
Y271351D01*
D37*
X198320Y28000D02*
X243300D01*
D38*
X91900Y61000D02*
X103150D01*
X91700Y61200D02*
X91900Y61000D01*
X91700Y61200D02*
Y61200D01*
D39*
X151650Y49000D02*
X196200D01*
D40*
X182800Y27300D02*
D03*
X192000Y40000D02*
D03*
X197100Y15600D02*
D03*
X168600Y16400D02*
D03*
X241600Y276900D02*
D03*
X245600Y268900D02*
D03*
X241600Y260900D02*
D03*
X245600Y252900D02*
D03*
X241600Y244900D02*
D03*
X245600Y236900D02*
D03*
X241600Y228900D02*
D03*
X245600Y188900D02*
D03*
X237600Y252900D02*
D03*
X233600Y244900D02*
D03*
X237600Y188900D02*
D03*
X229600Y252900D02*
D03*
Y188900D02*
D03*
X221600D02*
D03*
X213600D02*
D03*
X205600Y236900D02*
D03*
X201600Y228900D02*
D03*
X205600Y188900D02*
D03*
X197600Y172900D02*
D03*
X193600Y164900D02*
D03*
X197600Y156900D02*
D03*
X193600Y148900D02*
D03*
X197600Y140900D02*
D03*
X193600Y116900D02*
D03*
X197600Y108900D02*
D03*
Y92900D02*
D03*
X189600Y156900D02*
D03*
X181600D02*
D03*
X169600Y276900D02*
D03*
X153600Y116900D02*
D03*
X157600Y108900D02*
D03*
X145600Y276900D02*
D03*
Y116900D02*
D03*
X149600Y108900D02*
D03*
X141600Y172900D02*
D03*
X129600Y260900D02*
D03*
Y228900D02*
D03*
Y212900D02*
D03*
X125600Y268900D02*
D03*
X121600Y260900D02*
D03*
X125600Y252900D02*
D03*
Y236900D02*
D03*
X121600Y228900D02*
D03*
X125600Y220900D02*
D03*
X121600Y212900D02*
D03*
X125600Y172900D02*
D03*
X117600Y268900D02*
D03*
Y252900D02*
D03*
Y236900D02*
D03*
X113600Y180900D02*
D03*
X109600Y268900D02*
D03*
X105600Y180900D02*
D03*
X109600Y172900D02*
D03*
X101600Y268900D02*
D03*
X97600Y260900D02*
D03*
X89600D02*
D03*
X85600Y252900D02*
D03*
X81600Y244900D02*
D03*
Y228900D02*
D03*
X85600Y220900D02*
D03*
X73600Y244900D02*
D03*
X77600Y236900D02*
D03*
X73600Y212900D02*
D03*
X77600Y204900D02*
D03*
X69600Y268900D02*
D03*
Y236900D02*
D03*
Y220900D02*
D03*
X65600Y196900D02*
D03*
X69600Y188900D02*
D03*
X65600Y180900D02*
D03*
X61600Y268900D02*
D03*
X57600Y260900D02*
D03*
X61600Y220900D02*
D03*
Y204900D02*
D03*
Y188900D02*
D03*
X53600Y268900D02*
D03*
X49600Y260900D02*
D03*
X53600Y252900D02*
D03*
X49600Y212900D02*
D03*
Y196900D02*
D03*
Y180900D02*
D03*
X45600Y268900D02*
D03*
Y236900D02*
D03*
Y220900D02*
D03*
X41600Y212900D02*
D03*
X45600Y204900D02*
D03*
X41600Y196900D02*
D03*
X45600Y188900D02*
D03*
X41600Y180900D02*
D03*
X45600Y156900D02*
D03*
Y140900D02*
D03*
X21600Y284900D02*
D03*
X17600Y276900D02*
D03*
Y68900D02*
D03*
Y4900D02*
D03*
X13600Y268900D02*
D03*
X9600Y116900D02*
D03*
X13600Y60900D02*
D03*
Y12900D02*
D03*
X9600Y4900D02*
D03*
X20300Y31100D02*
D03*
X31600Y65000D02*
D03*
X60700Y56700D02*
D03*
X35100Y71000D02*
D03*
X22300Y44400D02*
D03*
X23800Y38900D02*
D03*
X39400Y35500D02*
D03*
X151650Y80150D02*
D03*
X146200Y57000D02*
D03*
X26700Y82000D02*
D03*
Y77200D02*
D03*
X234900Y292500D02*
D03*
X240000D02*
D03*
X44850Y82050D02*
D03*
X49650D02*
D03*
X35100Y75800D02*
D03*
X236000Y284000D02*
D03*
X240700D02*
D03*
X152400Y93500D02*
D03*
X102400Y79950D02*
D03*
X109700Y45000D02*
D03*
X88100Y54900D02*
D03*
X91700Y61200D02*
D03*
X93600Y52700D02*
D03*
X89400Y46400D02*
D03*
X101800Y24100D02*
D03*
X121700Y15600D02*
D03*
X67100Y40600D02*
D03*
X93700Y41800D02*
D03*
X79000Y26400D02*
D03*
X68100Y27700D02*
D03*
X140000Y92000D02*
D03*
X61300Y32700D02*
D03*
X176800Y92200D02*
D03*
X187700Y92000D02*
D03*
X188100Y146600D02*
D03*
X101900Y126600D02*
D03*
X90900Y126400D02*
D03*
X79900Y126500D02*
D03*
X135100Y199300D02*
D03*
X47600Y149800D02*
D03*
X63400Y98200D02*
D03*
X112200Y150600D02*
D03*
X138400Y142500D02*
D03*
X134900Y97000D02*
D03*
X126700Y98600D02*
D03*
X94500Y254700D02*
D03*
Y242700D02*
D03*
X42600Y254700D02*
D03*
X42500Y230700D02*
D03*
X97400Y162700D02*
D03*
X90900D02*
D03*
X84400Y162600D02*
D03*
Y146900D02*
D03*
X117375Y164375D02*
D03*
X182800Y175400D02*
D03*
Y184200D02*
D03*
X182600Y194200D02*
D03*
X148900Y208700D02*
D03*
X125100Y189200D02*
D03*
X139700Y184200D02*
D03*
X182500Y162900D02*
D03*
X148200Y162600D02*
D03*
X156900Y158100D02*
D03*
X117800Y126900D02*
D03*
X195900Y123000D02*
D03*
X196400Y131800D02*
D03*
X68900Y276700D02*
D03*
X79700Y267900D02*
D03*
X42600Y262400D02*
D03*
X42400Y246800D02*
D03*
X71900Y146900D02*
D03*
X74200Y128500D02*
D03*
X68000Y134900D02*
D03*
X169700Y97300D02*
D03*
X182500Y105200D02*
D03*
X156300Y207300D02*
D03*
X176650Y276450D02*
D03*
X163950Y276850D02*
D03*
X151250Y277050D02*
D03*
X33200Y15500D02*
D03*
X161800Y79700D02*
D03*
X131600Y23300D02*
D03*
X118900Y20700D02*
D03*
X137100Y23100D02*
D03*
X137400Y37300D02*
D03*
X129400Y37200D02*
D03*
X160200Y39800D02*
D03*
X148900Y89000D02*
D03*
X96500Y101500D02*
D03*
X48298Y27298D02*
D03*
X49800Y58400D02*
D03*
X181950Y148950D02*
D03*
X157000Y215000D02*
D03*
X22800Y59600D02*
D03*
X74500Y98800D02*
D03*
X81700D02*
D03*
X145000Y122900D02*
D03*
X151600Y129800D02*
D03*
X62000Y168900D02*
D03*
X161500Y61000D02*
D03*
X162700Y54300D02*
D03*
X116400Y72400D02*
D03*
X73500Y42000D02*
D03*
X43600Y45100D02*
D03*
X37850Y44111D02*
D03*
X197600Y184600D02*
D03*
X125500Y91500D02*
D03*
X96500Y18300D02*
D03*
X157100Y148600D02*
D03*
X198300Y40500D02*
D03*
X181600Y213000D02*
D03*
X190449Y269350D02*
D03*
X196800Y275100D02*
D03*
X166830Y39320D02*
D03*
X181700Y54200D02*
D03*
X179900Y39500D02*
D03*
D41*
X116400Y66000D02*
D03*
X127400D02*
D03*
X116400Y55000D02*
D03*
X127400D02*
D03*
X138400D02*
D03*
X116400Y44000D02*
D03*
X127400D02*
D03*
X138400D02*
D03*
Y66000D02*
D03*
D42*
X6000Y25400D02*
D03*
X244000Y215900D02*
D03*
X244000Y203200D02*
D03*
X6000Y76200D02*
D03*
X6000Y88900D02*
D03*
Y38100D02*
D03*
Y50800D02*
D03*
D43*
X152400Y6000D02*
D03*
X139700D02*
D03*
X165100Y6000D02*
D03*
X203200D02*
D03*
X63500Y6000D02*
D03*
X190500Y6000D02*
D03*
X177800Y6000D02*
D03*
X38100Y6000D02*
D03*
X25400Y6000D02*
D03*
X127000Y6000D02*
D03*
X50800D02*
D03*
X88900D02*
D03*
X101600D02*
D03*
X114300Y6000D02*
D03*
X76200Y6000D02*
D03*
M02*
