G04 Layer_Physical_Order=2*
G04 Layer_Color=36540*
%FSLAX44Y44*%
%MOMM*%
G71*
G01*
G75*
%ADD33C,0.2000*%
%ADD34C,0.5000*%
%ADD35C,0.3000*%
%ADD40R,0.9000X0.9000*%
%ADD41R,0.9000X0.9000*%
%ADD42C,0.4500*%
%ADD43C,0.5000*%
G36*
X250000Y185000D02*
X201401Y185000D01*
X202595Y901D01*
X201700Y0D01*
X0D01*
Y300000D01*
X250000D01*
Y185000D01*
D02*
G37*
%LPC*%
G36*
X160200Y43114D02*
X158932Y42861D01*
X157857Y42143D01*
X157139Y41068D01*
X156886Y39800D01*
X157139Y38532D01*
X157857Y37457D01*
X158932Y36739D01*
X160200Y36486D01*
X161468Y36739D01*
X162543Y37457D01*
X162649Y37615D01*
X162675Y37626D01*
X164118Y37528D01*
X164487Y36977D01*
X165562Y36259D01*
X166830Y36006D01*
X168098Y36259D01*
X169173Y36977D01*
X169891Y38052D01*
X170144Y39320D01*
X169891Y40588D01*
X169173Y41663D01*
X168098Y42381D01*
X166830Y42634D01*
X165562Y42381D01*
X164487Y41663D01*
X164381Y41505D01*
X164354Y41494D01*
X162912Y41592D01*
X162543Y42143D01*
X161468Y42861D01*
X160200Y43114D01*
D02*
G37*
G36*
X13500Y56300D02*
X2500D01*
Y45300D01*
X13500D01*
Y56300D01*
D02*
G37*
G36*
X182800Y30614D02*
X181532Y30361D01*
X180457Y29643D01*
X179739Y28568D01*
X179486Y27300D01*
X179739Y26032D01*
X180457Y24957D01*
X181532Y24239D01*
X182800Y23986D01*
X184068Y24239D01*
X185143Y24957D01*
X185861Y26032D01*
X186114Y27300D01*
X185861Y28568D01*
X185143Y29643D01*
X184068Y30361D01*
X182800Y30614D01*
D02*
G37*
G36*
X13500Y43600D02*
X2500D01*
Y32600D01*
X13500D01*
Y43600D01*
D02*
G37*
G36*
X146200Y60314D02*
X144932Y60061D01*
X143857Y59343D01*
X143139Y58268D01*
X142886Y57000D01*
X143139Y55732D01*
X143857Y54657D01*
X144932Y53939D01*
X146200Y53686D01*
X147468Y53939D01*
X148543Y54657D01*
X149261Y55732D01*
X149514Y57000D01*
X149261Y58268D01*
X148543Y59343D01*
X147468Y60061D01*
X146200Y60314D01*
D02*
G37*
G36*
X13500Y81700D02*
X2500D01*
Y70700D01*
X13500D01*
Y81700D01*
D02*
G37*
G36*
X96500Y104813D02*
X95232Y104561D01*
X94157Y103843D01*
X93438Y102768D01*
X93186Y101500D01*
X93438Y100232D01*
X94157Y99157D01*
X94461Y98954D01*
Y93900D01*
X94616Y93120D01*
X95058Y92458D01*
X103096Y84420D01*
X102470Y83250D01*
X102400Y83264D01*
X101132Y83011D01*
X100057Y82293D01*
X99339Y81218D01*
X99086Y79950D01*
X99339Y78682D01*
X100057Y77607D01*
X101132Y76889D01*
X102400Y76636D01*
X103668Y76889D01*
X104743Y77607D01*
X105461Y78682D01*
X105585Y79306D01*
X106917Y79912D01*
X107461Y79522D01*
Y52300D01*
X107616Y51520D01*
X108058Y50858D01*
X109373Y49543D01*
X108955Y48165D01*
X108432Y48061D01*
X107357Y47343D01*
X106639Y46268D01*
X106386Y45000D01*
X106639Y43732D01*
X107357Y42657D01*
X108432Y41939D01*
X109700Y41686D01*
X110968Y41939D01*
X112043Y42657D01*
X112761Y43732D01*
X113014Y45000D01*
X112761Y46268D01*
X112613Y46491D01*
X113291Y47761D01*
X117755D01*
X119461Y46055D01*
Y37845D01*
X117458Y35842D01*
X117016Y35180D01*
X116861Y34400D01*
Y23246D01*
X116557Y23043D01*
X115839Y21968D01*
X115586Y20700D01*
X115839Y19432D01*
X116557Y18357D01*
X117632Y17639D01*
X118667Y17018D01*
X118414Y15750D01*
X118609Y14770D01*
X117912Y13500D01*
X108800D01*
Y2500D01*
X119800D01*
Y10796D01*
X121070Y11557D01*
X121500Y11327D01*
Y2500D01*
X132430D01*
X132500Y2500D01*
X133700Y2331D01*
Y2000D01*
X145700D01*
Y2331D01*
X146900Y2500D01*
X146970Y2500D01*
X157900D01*
Y13500D01*
X146970D01*
X146900Y13500D01*
X145700Y13669D01*
Y14000D01*
X133700D01*
Y13669D01*
X132500Y13500D01*
X132430Y13500D01*
X125545D01*
X124847Y14770D01*
X125042Y15750D01*
X124789Y17018D01*
X124071Y18093D01*
X122996Y18811D01*
X121961Y19432D01*
X122214Y20700D01*
X121961Y21968D01*
X121243Y23043D01*
X120939Y23246D01*
Y33555D01*
X122942Y35558D01*
X123384Y36220D01*
X123539Y37000D01*
Y46900D01*
X123384Y47680D01*
X122942Y48342D01*
X120042Y51242D01*
X119380Y51684D01*
X118600Y51839D01*
X112845D01*
X111539Y53145D01*
Y80900D01*
X111384Y81680D01*
X110942Y82342D01*
X110942Y82342D01*
X98539Y94745D01*
Y98954D01*
X98843Y99157D01*
X99561Y100232D01*
X99813Y101500D01*
X99561Y102768D01*
X98843Y103843D01*
X97768Y104561D01*
X96500Y104813D01*
D02*
G37*
G36*
X49800Y61714D02*
X48532Y61461D01*
X47457Y60743D01*
X46739Y59668D01*
X46486Y58400D01*
X46739Y57132D01*
X47457Y56057D01*
X48532Y55339D01*
X49800Y55086D01*
X51068Y55339D01*
X52143Y56057D01*
X52861Y57132D01*
X53114Y58400D01*
X52861Y59668D01*
X52143Y60743D01*
X51068Y61461D01*
X49800Y61714D01*
D02*
G37*
G36*
X116400Y75714D02*
X115132Y75461D01*
X114057Y74743D01*
X113339Y73668D01*
X113086Y72400D01*
X113339Y71132D01*
X114057Y70057D01*
X115132Y69339D01*
X116400Y69086D01*
X117668Y69339D01*
X118743Y70057D01*
X119461Y71132D01*
X119714Y72400D01*
X119461Y73668D01*
X118743Y74743D01*
X117668Y75461D01*
X116400Y75714D01*
D02*
G37*
G36*
X101800Y27414D02*
X100532Y27161D01*
X99457Y26443D01*
X98739Y25368D01*
X98486Y24100D01*
X98739Y22832D01*
X99457Y21757D01*
X100532Y21039D01*
X101800Y20786D01*
X103068Y21039D01*
X104143Y21757D01*
X104861Y22832D01*
X105114Y24100D01*
X104861Y25368D01*
X104143Y26443D01*
X103068Y27161D01*
X101800Y27414D01*
D02*
G37*
G36*
X69000Y13500D02*
X58000D01*
Y2500D01*
X69000D01*
Y13500D01*
D02*
G37*
G36*
X81700D02*
X70700D01*
Y2500D01*
X81700D01*
Y13500D01*
D02*
G37*
G36*
X33000Y19314D02*
X31732Y19061D01*
X30657Y18343D01*
X29938Y17268D01*
X29686Y16000D01*
X29931Y14770D01*
X29937Y14729D01*
X29234Y13500D01*
X19900D01*
Y2500D01*
X30900D01*
Y11128D01*
X32170Y11870D01*
X32600Y11627D01*
Y2500D01*
X43600D01*
Y13500D01*
X36766D01*
X36063Y14729D01*
X36069Y14770D01*
X36314Y16000D01*
X36061Y17268D01*
X35343Y18343D01*
X34268Y19061D01*
X33000Y19314D01*
D02*
G37*
G36*
X56300Y13500D02*
X45300D01*
Y2500D01*
X56300D01*
Y13500D01*
D02*
G37*
G36*
X94400D02*
X83400D01*
Y2500D01*
X94400D01*
Y13500D01*
D02*
G37*
G36*
X196000D02*
X185000D01*
Y2500D01*
X196000D01*
Y13500D01*
D02*
G37*
G36*
X13500Y30900D02*
X2500D01*
Y19900D01*
X13500D01*
Y30900D01*
D02*
G37*
G36*
X107100Y13500D02*
X96100D01*
Y2500D01*
X107100D01*
Y13500D01*
D02*
G37*
G36*
X183300D02*
X172300D01*
Y2500D01*
X183300D01*
Y13500D01*
D02*
G37*
G36*
X182000Y289639D02*
X109700D01*
X108920Y289484D01*
X108258Y289042D01*
X59700Y240484D01*
X45842Y254342D01*
X45914Y254700D01*
X45661Y255968D01*
X44943Y257043D01*
X43868Y257761D01*
X43158Y257903D01*
Y259197D01*
X43868Y259339D01*
X44943Y260057D01*
X45661Y261132D01*
X45914Y262400D01*
X45661Y263668D01*
X44943Y264743D01*
X43868Y265461D01*
X42600Y265714D01*
X41332Y265461D01*
X40257Y264743D01*
X39539Y263668D01*
X39286Y262400D01*
X39358Y262041D01*
X29758Y252442D01*
X29316Y251780D01*
X29161Y251000D01*
Y143402D01*
X29316Y142621D01*
X29758Y141960D01*
X63760Y107958D01*
X63760Y107958D01*
X64421Y107516D01*
X65202Y107361D01*
X103055D01*
X106661Y103755D01*
Y98047D01*
X106816Y97266D01*
X107258Y96605D01*
X129505Y74358D01*
X130166Y73916D01*
X130947Y73761D01*
X142911D01*
X148615Y68057D01*
X148615Y68057D01*
X149276Y67615D01*
X150056Y67460D01*
X154117D01*
X154603Y66287D01*
X152558Y64242D01*
X152116Y63580D01*
X151961Y62800D01*
Y45145D01*
X138150Y31334D01*
X136642Y32842D01*
X137267Y34013D01*
X137400Y33986D01*
X138668Y34239D01*
X139743Y34957D01*
X140461Y36032D01*
X140714Y37300D01*
X140461Y38568D01*
X139743Y39643D01*
X138668Y40361D01*
X137400Y40614D01*
X136132Y40361D01*
X135057Y39643D01*
X134339Y38568D01*
X134281Y38279D01*
X132859Y37641D01*
X132595Y37796D01*
X132461Y38468D01*
X131743Y39543D01*
X130668Y40261D01*
X129400Y40514D01*
X128132Y40261D01*
X127057Y39543D01*
X126339Y38468D01*
X126086Y37200D01*
X126339Y35932D01*
X127057Y34857D01*
X128132Y34139D01*
X129400Y33886D01*
X129759Y33958D01*
X136189Y27527D01*
X135833Y26168D01*
X135798Y26139D01*
X135212Y25747D01*
X133943Y25643D01*
X132868Y26361D01*
X131600Y26614D01*
X130332Y26361D01*
X129257Y25643D01*
X128538Y24568D01*
X128286Y23300D01*
X128538Y22032D01*
X129257Y20957D01*
X130332Y20238D01*
X131600Y19986D01*
X132868Y20238D01*
X133487Y20652D01*
X134757Y20757D01*
X135832Y20038D01*
X137100Y19786D01*
X138368Y20038D01*
X139443Y20757D01*
X140132Y21788D01*
X140170Y21834D01*
X141527Y22189D01*
X144958Y18758D01*
X145620Y18316D01*
X146400Y18161D01*
X146400Y18161D01*
X158755D01*
X162146Y14770D01*
X161620Y13500D01*
X159600D01*
Y2500D01*
X170600D01*
Y13500D01*
X167139D01*
Y14700D01*
X166984Y15480D01*
X166542Y16142D01*
X161042Y21642D01*
X160380Y22084D01*
X159600Y22239D01*
X147245D01*
X141034Y28450D01*
X155442Y42858D01*
X155884Y43520D01*
X156039Y44300D01*
X156039Y44300D01*
Y61955D01*
X158037Y63953D01*
X159024Y63144D01*
X158439Y62268D01*
X158186Y61000D01*
X158439Y59732D01*
X159157Y58657D01*
X160232Y57939D01*
X161500Y57686D01*
X162768Y57939D01*
X163843Y58657D01*
X164561Y59732D01*
X164814Y61000D01*
X164561Y62268D01*
X163945Y63190D01*
X164120Y63847D01*
X164457Y64460D01*
X171699D01*
X172479Y64615D01*
X173141Y65057D01*
X184442Y76358D01*
X184442Y76358D01*
X184884Y77020D01*
X185039Y77800D01*
Y88342D01*
X186309Y89021D01*
X186432Y88939D01*
X187700Y88686D01*
X188968Y88939D01*
X190043Y89657D01*
X190761Y90732D01*
X191014Y92000D01*
X190761Y93268D01*
X190043Y94343D01*
X188968Y95061D01*
X187700Y95314D01*
X186432Y95061D01*
X186309Y94979D01*
X185039Y95658D01*
Y98845D01*
X188192Y101998D01*
X188192Y101998D01*
X188634Y102659D01*
X188789Y103440D01*
X188789Y103440D01*
Y106960D01*
X188634Y107741D01*
X188192Y108402D01*
X188192Y108402D01*
X172252Y124342D01*
X171591Y124784D01*
X170810Y124939D01*
X147546D01*
X147343Y125243D01*
X146268Y125961D01*
X145000Y126214D01*
X143732Y125961D01*
X142657Y125243D01*
X141939Y124168D01*
X141686Y122900D01*
X141939Y121632D01*
X142657Y120557D01*
X143732Y119839D01*
X145000Y119586D01*
X146268Y119839D01*
X147343Y120557D01*
X147546Y120861D01*
X169966D01*
X181346Y109480D01*
X180954Y108076D01*
X180157Y107543D01*
X179439Y106468D01*
X179186Y105200D01*
X179439Y103932D01*
X179518Y103813D01*
X173969Y98263D01*
X172648Y98738D01*
X172043Y99643D01*
X170968Y100361D01*
X169700Y100614D01*
X168432Y100361D01*
X167357Y99643D01*
X166639Y98568D01*
X166386Y97300D01*
X166458Y96941D01*
X163858Y94342D01*
X163416Y93680D01*
X163261Y92900D01*
Y84018D01*
X161991Y82976D01*
X161800Y83014D01*
X160532Y82761D01*
X159457Y82043D01*
X158739Y80968D01*
X158486Y79700D01*
X158739Y78432D01*
X159457Y77357D01*
X160532Y76639D01*
X161800Y76386D01*
X162557Y76537D01*
X163115Y75493D01*
X162342Y74538D01*
X152144D01*
X151014Y75668D01*
X151640Y76838D01*
X151650Y76836D01*
X152918Y77089D01*
X153993Y77807D01*
X154711Y78882D01*
X154964Y80150D01*
X154711Y81418D01*
X153993Y82493D01*
X152918Y83211D01*
X151650Y83464D01*
X150382Y83211D01*
X149307Y82493D01*
X148589Y81418D01*
X148336Y80150D01*
X148338Y80140D01*
X147168Y79514D01*
X145340Y81342D01*
X144679Y81784D01*
X143898Y81939D01*
X131934D01*
X126654Y87219D01*
X127045Y88624D01*
X127843Y89157D01*
X128561Y90232D01*
X128813Y91500D01*
X128561Y92768D01*
X127843Y93843D01*
X127409Y94133D01*
X127677Y95481D01*
X127968Y95539D01*
X129043Y96257D01*
X129761Y97332D01*
X130014Y98600D01*
X129761Y99868D01*
X129043Y100943D01*
X127968Y101661D01*
X126700Y101914D01*
X125432Y101661D01*
X124357Y100943D01*
X123639Y99868D01*
X123386Y98600D01*
X123512Y97968D01*
X122342Y97342D01*
X119839Y99845D01*
Y115900D01*
Y124354D01*
X120143Y124557D01*
X120861Y125632D01*
X121114Y126900D01*
X120861Y128168D01*
X120143Y129243D01*
X119068Y129961D01*
X117800Y130214D01*
X117542Y130162D01*
X116917Y131333D01*
X141645Y156061D01*
X154354D01*
X154557Y155757D01*
X155632Y155039D01*
X156900Y154786D01*
X158168Y155039D01*
X159243Y155757D01*
X159961Y156832D01*
X160214Y158100D01*
X159961Y159368D01*
X159243Y160443D01*
X158168Y161161D01*
X156900Y161414D01*
X155632Y161161D01*
X154557Y160443D01*
X154354Y160139D01*
X151992D01*
X151277Y161306D01*
X151277Y161409D01*
X151514Y162600D01*
X151261Y163868D01*
X150543Y164943D01*
X149468Y165661D01*
X148612Y165832D01*
X148124Y166953D01*
X148111Y167128D01*
X154345Y173361D01*
X180254D01*
X180457Y173057D01*
X181532Y172339D01*
X182800Y172086D01*
X184068Y172339D01*
X185143Y173057D01*
X185861Y174132D01*
X186114Y175400D01*
X185861Y176668D01*
X185143Y177743D01*
X184068Y178461D01*
X182800Y178714D01*
X181532Y178461D01*
X180457Y177743D01*
X180254Y177439D01*
X153500D01*
X153500Y177439D01*
X152720Y177284D01*
X152058Y176842D01*
X152058Y176842D01*
X138409Y163193D01*
X137139Y163719D01*
Y180475D01*
X138409Y181154D01*
X138432Y181139D01*
X139700Y180886D01*
X140968Y181139D01*
X141735Y181651D01*
X173000D01*
X173976Y181845D01*
X174802Y182398D01*
X178232Y185828D01*
X179713Y185512D01*
X179716Y185507D01*
X179721Y185381D01*
X179486Y184200D01*
X179739Y182932D01*
X180457Y181857D01*
X181532Y181139D01*
X182800Y180886D01*
X184068Y181139D01*
X185143Y181857D01*
X185346Y182161D01*
X186000D01*
X186780Y182316D01*
X187442Y182758D01*
X196142Y191458D01*
X196584Y192120D01*
X196739Y192900D01*
Y270578D01*
X196771Y271212D01*
X197873Y272000D01*
X198068Y272039D01*
X199143Y272757D01*
X199861Y273832D01*
X200114Y275100D01*
X199861Y276368D01*
X199143Y277443D01*
X198068Y278161D01*
X196800Y278414D01*
X195532Y278161D01*
X193992Y278492D01*
X193992Y278492D01*
X183442Y289042D01*
X182780Y289484D01*
X182000Y289639D01*
D02*
G37*
G36*
X247500Y208700D02*
X236500D01*
Y197700D01*
X247500D01*
Y208700D01*
D02*
G37*
G36*
X182500Y166214D02*
X181232Y165961D01*
X180157Y165243D01*
X179439Y164168D01*
X179186Y162900D01*
X179439Y161632D01*
X180157Y160557D01*
X181232Y159839D01*
X182500Y159586D01*
X183768Y159839D01*
X184843Y160557D01*
X185561Y161632D01*
X185814Y162900D01*
X185561Y164168D01*
X184843Y165243D01*
X183768Y165961D01*
X182500Y166214D01*
D02*
G37*
G36*
X79700Y271214D02*
X78432Y270961D01*
X77357Y270243D01*
X76639Y269168D01*
X76386Y267900D01*
X76639Y266632D01*
X77357Y265557D01*
X78432Y264839D01*
X79700Y264586D01*
X80968Y264839D01*
X82043Y265557D01*
X82761Y266632D01*
X83014Y267900D01*
X82761Y269168D01*
X82043Y270243D01*
X80968Y270961D01*
X79700Y271214D01*
D02*
G37*
G36*
X240000Y295814D02*
X238732Y295561D01*
X237657Y294843D01*
X237243D01*
X236168Y295561D01*
X234900Y295814D01*
X233632Y295561D01*
X232557Y294843D01*
X231839Y293768D01*
X231586Y292500D01*
X231839Y291232D01*
X232557Y290157D01*
X233632Y289439D01*
X234900Y289186D01*
X236168Y289439D01*
X237243Y290157D01*
X237657D01*
X238732Y289439D01*
X240000Y289186D01*
X241268Y289439D01*
X242343Y290157D01*
X243061Y291232D01*
X243314Y292500D01*
X243061Y293768D01*
X242343Y294843D01*
X241268Y295561D01*
X240000Y295814D01*
D02*
G37*
G36*
X240700Y287314D02*
X239432Y287061D01*
X239403Y287042D01*
X238350Y286348D01*
X237297Y287042D01*
X237268Y287061D01*
X236000Y287314D01*
X234732Y287061D01*
X233657Y286343D01*
X232939Y285268D01*
X232686Y284000D01*
X232939Y282732D01*
X233657Y281657D01*
X234732Y280939D01*
X236000Y280686D01*
X237268Y280939D01*
X237297Y280958D01*
X238350Y281652D01*
X239403Y280958D01*
X239432Y280939D01*
X240700Y280686D01*
X241968Y280939D01*
X243043Y281657D01*
X243761Y282732D01*
X244014Y284000D01*
X243761Y285268D01*
X243043Y286343D01*
X241968Y287061D01*
X240700Y287314D01*
D02*
G37*
G36*
X68900Y280014D02*
X67632Y279761D01*
X66557Y279043D01*
X65839Y277968D01*
X65586Y276700D01*
X65839Y275432D01*
X66557Y274357D01*
X67632Y273639D01*
X68900Y273386D01*
X70168Y273639D01*
X71243Y274357D01*
X71961Y275432D01*
X72214Y276700D01*
X71961Y277968D01*
X71243Y279043D01*
X70168Y279761D01*
X68900Y280014D01*
D02*
G37*
G36*
X181950Y152264D02*
X180682Y152011D01*
X179607Y151293D01*
X178889Y150218D01*
X178636Y148950D01*
X178889Y147682D01*
X179607Y146607D01*
X180682Y145889D01*
X181950Y145636D01*
X183218Y145889D01*
X183584Y146133D01*
X184995Y145549D01*
X185039Y145332D01*
X185757Y144257D01*
X186832Y143539D01*
X188100Y143286D01*
X189368Y143539D01*
X190443Y144257D01*
X191161Y145332D01*
X191414Y146600D01*
X191161Y147868D01*
X190443Y148943D01*
X189368Y149661D01*
X188100Y149914D01*
X186832Y149661D01*
X186466Y149417D01*
X185055Y150001D01*
X185011Y150218D01*
X184293Y151293D01*
X183218Y152011D01*
X181950Y152264D01*
D02*
G37*
G36*
X195900Y126314D02*
X194632Y126061D01*
X193557Y125343D01*
X192839Y124268D01*
X192586Y123000D01*
X192839Y121732D01*
X193557Y120657D01*
X194632Y119939D01*
X195900Y119686D01*
X197168Y119939D01*
X198243Y120657D01*
X198961Y121732D01*
X199214Y123000D01*
X198961Y124268D01*
X198243Y125343D01*
X197168Y126061D01*
X195900Y126314D01*
D02*
G37*
G36*
X63400Y101514D02*
X62132Y101261D01*
X61057Y100543D01*
X60339Y99468D01*
X60086Y98200D01*
X60339Y96932D01*
X61057Y95857D01*
X62132Y95139D01*
X63400Y94886D01*
X64668Y95139D01*
X65743Y95857D01*
X66461Y96932D01*
X66714Y98200D01*
X66461Y99468D01*
X65743Y100543D01*
X64668Y101261D01*
X63400Y101514D01*
D02*
G37*
G36*
X81700Y102114D02*
X80432Y101861D01*
X79357Y101143D01*
X78806Y100318D01*
X78246Y100205D01*
X77955D01*
X77394Y100318D01*
X76843Y101143D01*
X75768Y101861D01*
X74500Y102114D01*
X73232Y101861D01*
X72157Y101143D01*
X71439Y100068D01*
X71186Y98800D01*
X71439Y97532D01*
X72157Y96457D01*
X72461Y96254D01*
Y93045D01*
X69955Y90539D01*
X27200D01*
X26420Y90384D01*
X25758Y89942D01*
X25758Y89942D01*
X23529Y87713D01*
X23498Y87692D01*
X23498Y87692D01*
X21008Y85202D01*
X20566Y84541D01*
X20411Y83760D01*
Y61874D01*
X19739Y60868D01*
X19486Y59600D01*
X19739Y58332D01*
X20457Y57257D01*
X21532Y56539D01*
X22800Y56286D01*
X24068Y56539D01*
X25143Y57257D01*
X25861Y58332D01*
X26114Y59600D01*
X25861Y60868D01*
X25143Y61943D01*
X24489Y62380D01*
Y73357D01*
X25759Y74074D01*
X26700Y73886D01*
X27968Y74139D01*
X29043Y74857D01*
X29761Y75932D01*
X30014Y77200D01*
X29761Y78468D01*
X29696Y78566D01*
X29077Y79600D01*
X29696Y80634D01*
X29761Y80732D01*
X30014Y82000D01*
X29761Y83268D01*
X29043Y84343D01*
X29041Y84344D01*
X28755Y85968D01*
X29130Y86461D01*
X43856D01*
X43981Y85191D01*
X43582Y85111D01*
X42507Y84393D01*
X41789Y83318D01*
X41536Y82050D01*
X41789Y80782D01*
X42507Y79707D01*
X43582Y78989D01*
X44850Y78736D01*
X46118Y78989D01*
X47193Y79707D01*
X47307D01*
X48382Y78989D01*
X49650Y78736D01*
X50918Y78989D01*
X51993Y79707D01*
X52711Y80782D01*
X52964Y82050D01*
X52711Y83318D01*
X51993Y84393D01*
X50918Y85111D01*
X50519Y85191D01*
X50644Y86461D01*
X70800D01*
X71580Y86616D01*
X72242Y87058D01*
X75942Y90758D01*
X76384Y91420D01*
X76539Y92200D01*
Y96254D01*
X76843Y96457D01*
X77394Y97282D01*
X77955Y97395D01*
X78246D01*
X78806Y97282D01*
X79357Y96457D01*
X79661Y96254D01*
Y88500D01*
X79816Y87720D01*
X80258Y87058D01*
X96061Y71255D01*
Y62445D01*
X94791Y62320D01*
X94761Y62468D01*
X94043Y63543D01*
X92968Y64261D01*
X91700Y64514D01*
X90432Y64261D01*
X89357Y63543D01*
X89154Y63239D01*
X81945D01*
X78742Y66442D01*
X78080Y66884D01*
X77300Y67039D01*
X37308D01*
X36923Y68309D01*
X37443Y68657D01*
X38161Y69732D01*
X38414Y71000D01*
X38161Y72268D01*
X38096Y72366D01*
X37477Y73400D01*
X38096Y74434D01*
X38161Y74532D01*
X38414Y75800D01*
X38161Y77068D01*
X37443Y78143D01*
X36368Y78861D01*
X35100Y79114D01*
X33832Y78861D01*
X32757Y78143D01*
X32039Y77068D01*
X31786Y75800D01*
X32039Y74532D01*
X32104Y74434D01*
X32723Y73400D01*
X32104Y72366D01*
X32039Y72268D01*
X31786Y71000D01*
X32039Y69732D01*
X32201Y69489D01*
X31840Y68783D01*
X31475Y68289D01*
X30332Y68061D01*
X29257Y67343D01*
X28539Y66268D01*
X28286Y65000D01*
X28539Y63732D01*
X29257Y62657D01*
X30332Y61939D01*
X31600Y61686D01*
X32868Y61939D01*
X33943Y62657D01*
X34146Y62961D01*
X76455D01*
X79658Y59758D01*
X80320Y59316D01*
X81100Y59161D01*
X81100Y59161D01*
X85921D01*
X86063Y58955D01*
X85757Y57243D01*
X85554Y56939D01*
X63966D01*
X63761Y57968D01*
X63043Y59043D01*
X61968Y59761D01*
X60700Y60014D01*
X59432Y59761D01*
X58357Y59043D01*
X57639Y57968D01*
X57386Y56700D01*
X57639Y55432D01*
X58357Y54357D01*
X59432Y53639D01*
X60700Y53386D01*
X61059Y53458D01*
X61720Y53016D01*
X62500Y52861D01*
X62500Y52861D01*
X84758D01*
X85517Y51734D01*
X85384Y51279D01*
X83708Y49602D01*
X83266Y48941D01*
X83191Y48565D01*
X74416Y39789D01*
X71451D01*
X70414Y40600D01*
X70161Y41868D01*
X69443Y42943D01*
X68368Y43661D01*
X67100Y43914D01*
X66741Y43842D01*
X65942Y44642D01*
X65280Y45084D01*
X64500Y45239D01*
X53145D01*
X47242Y51142D01*
X46580Y51584D01*
X45800Y51739D01*
X20400D01*
X19620Y51584D01*
X18958Y51142D01*
X18958Y51142D01*
X16058Y48242D01*
X15616Y47580D01*
X15461Y46800D01*
Y41900D01*
X15616Y41120D01*
X16058Y40458D01*
X17511Y39005D01*
Y32775D01*
X17239Y32368D01*
X16986Y31100D01*
X17239Y29832D01*
X17957Y28757D01*
X19032Y28038D01*
X20300Y27786D01*
X21568Y28038D01*
X22643Y28757D01*
X23361Y29832D01*
X23614Y31100D01*
X23361Y32368D01*
X22643Y33443D01*
X21934Y33917D01*
X21957Y34965D01*
X23041Y35737D01*
X23800Y35586D01*
X24158Y35658D01*
X32758Y27058D01*
X33419Y26616D01*
X34200Y26461D01*
X40000D01*
X40780Y26616D01*
X41442Y27058D01*
X45445Y31061D01*
X48055D01*
X58408Y20708D01*
X58408Y20708D01*
X59070Y20266D01*
X59850Y20111D01*
X81250D01*
X82030Y20266D01*
X82692Y20708D01*
X99542Y37558D01*
X99984Y38220D01*
X100139Y39000D01*
Y72100D01*
X99984Y72880D01*
X99542Y73542D01*
X99542Y73542D01*
X83739Y89345D01*
Y96254D01*
X84043Y96457D01*
X84761Y97532D01*
X85014Y98800D01*
X84761Y100068D01*
X84043Y101143D01*
X82968Y101861D01*
X81700Y102114D01*
D02*
G37*
G36*
X151600Y133114D02*
X150332Y132861D01*
X149257Y132143D01*
X148539Y131068D01*
X148286Y129800D01*
X148539Y128532D01*
X149257Y127457D01*
X150332Y126739D01*
X151600Y126486D01*
X152868Y126739D01*
X153943Y127457D01*
X154661Y128532D01*
X154914Y129800D01*
X154661Y131068D01*
X153943Y132143D01*
X152868Y132861D01*
X151600Y133114D01*
D02*
G37*
G36*
X152400Y96814D02*
X151132Y96561D01*
X150057Y95843D01*
X149339Y94768D01*
X149086Y93500D01*
X148900Y92313D01*
X147632Y92061D01*
X146557Y91343D01*
X145838Y90268D01*
X145586Y89000D01*
X145838Y87732D01*
X146557Y86657D01*
X147632Y85938D01*
X148900Y85686D01*
X150168Y85938D01*
X151243Y86657D01*
X151961Y87732D01*
X152213Y89000D01*
X152400Y90186D01*
X153668Y90439D01*
X154743Y91157D01*
X155461Y92232D01*
X155714Y93500D01*
X155461Y94768D01*
X154743Y95843D01*
X153668Y96561D01*
X152400Y96814D01*
D02*
G37*
G36*
X157100Y151913D02*
X155832Y151661D01*
X154757Y150943D01*
X154038Y149868D01*
X153786Y148600D01*
X154038Y147332D01*
X153355Y146069D01*
X138400D01*
X137034Y145797D01*
X135877Y145023D01*
X135103Y143866D01*
X134831Y142500D01*
X135103Y141134D01*
X135877Y139977D01*
X137034Y139203D01*
X138400Y138931D01*
X172622D01*
X182277Y129277D01*
X183434Y128503D01*
X184800Y128231D01*
X196400D01*
X197766Y128503D01*
X198923Y129277D01*
X199697Y130434D01*
X199969Y131800D01*
X199697Y133166D01*
X198923Y134323D01*
X197766Y135097D01*
X196400Y135369D01*
X186278D01*
X176623Y145023D01*
X175466Y145797D01*
X174100Y146069D01*
X160845D01*
X160161Y147332D01*
X160413Y148600D01*
X160161Y149868D01*
X159443Y150943D01*
X158368Y151661D01*
X157100Y151913D01*
D02*
G37*
G36*
X134900Y100314D02*
X133632Y100061D01*
X132557Y99343D01*
X131839Y98268D01*
X131586Y97000D01*
X131839Y95732D01*
X132557Y94657D01*
X133632Y93939D01*
X134900Y93686D01*
X135864Y93878D01*
X136114Y93736D01*
X136602Y93276D01*
X136861Y92880D01*
X136686Y92000D01*
X136939Y90732D01*
X137657Y89657D01*
X138732Y88939D01*
X140000Y88686D01*
X141268Y88939D01*
X142343Y89657D01*
X143061Y90732D01*
X143314Y92000D01*
X143061Y93268D01*
X142343Y94343D01*
X141268Y95061D01*
X140000Y95314D01*
X139036Y95122D01*
X138786Y95264D01*
X138298Y95724D01*
X138039Y96120D01*
X138214Y97000D01*
X137961Y98268D01*
X137243Y99343D01*
X136168Y100061D01*
X134900Y100314D01*
D02*
G37*
%LPD*%
G36*
X58258Y236158D02*
X82361Y212055D01*
Y166432D01*
X82309Y166377D01*
X81149Y166835D01*
X81039Y166969D01*
Y194200D01*
X80884Y194980D01*
X80442Y195642D01*
X45742Y230341D01*
X45814Y230700D01*
X45561Y231968D01*
X44843Y233043D01*
X43768Y233761D01*
X42500Y234014D01*
X41232Y233761D01*
X40157Y233043D01*
X39439Y231968D01*
X39186Y230700D01*
X39439Y229432D01*
X40157Y228357D01*
X41232Y227639D01*
X42500Y227386D01*
X42859Y227458D01*
X76961Y193355D01*
Y152300D01*
X77116Y151520D01*
X77558Y150858D01*
X80767Y147650D01*
Y146151D01*
X76355Y141739D01*
X64800D01*
X64800Y141739D01*
X64699Y141719D01*
X64073Y142890D01*
X66045Y144861D01*
X69354D01*
X69557Y144557D01*
X70632Y143839D01*
X71900Y143586D01*
X73168Y143839D01*
X74243Y144557D01*
X74961Y145632D01*
X75214Y146900D01*
X74961Y148168D01*
X74243Y149243D01*
X73168Y149961D01*
X71900Y150214D01*
X70632Y149961D01*
X69557Y149243D01*
X69354Y148939D01*
X65200D01*
X64420Y148784D01*
X63758Y148342D01*
X63758Y148342D01*
X57558Y142142D01*
X57116Y141480D01*
X56961Y140700D01*
Y128500D01*
X57055Y128025D01*
X55988Y127296D01*
X37339Y145945D01*
Y238855D01*
X42042Y243558D01*
X42400Y243486D01*
X43668Y243739D01*
X44743Y244457D01*
X45461Y245532D01*
X45714Y246800D01*
X45687Y246933D01*
X46858Y247558D01*
X58258Y236158D01*
D02*
G37*
G36*
X165454Y284291D02*
X165420Y284284D01*
X164758Y283842D01*
X164758Y283842D01*
X162508Y281592D01*
X162066Y280930D01*
X161911Y280150D01*
Y279396D01*
X161607Y279193D01*
X160889Y278118D01*
X160636Y276850D01*
X160889Y275582D01*
X161607Y274507D01*
X162682Y273789D01*
X163950Y273536D01*
X165218Y273789D01*
X166293Y274507D01*
X167011Y275582D01*
X167264Y276850D01*
X167011Y278118D01*
X166293Y279193D01*
X166272Y279411D01*
X167165Y280361D01*
X174367D01*
X174752Y279091D01*
X174307Y278793D01*
X173589Y277718D01*
X173336Y276450D01*
X173589Y275182D01*
X174307Y274107D01*
X174611Y273904D01*
Y245795D01*
X147458Y218642D01*
X147016Y217980D01*
X146861Y217200D01*
Y211246D01*
X146557Y211043D01*
X145839Y209968D01*
X145586Y208700D01*
X145839Y207432D01*
X146557Y206357D01*
X147632Y205639D01*
X148900Y205386D01*
X150168Y205639D01*
X151243Y206357D01*
X151755Y207123D01*
X153059Y206935D01*
X153239Y206032D01*
X153957Y204957D01*
X155032Y204239D01*
X156300Y203986D01*
X157568Y204239D01*
X158643Y204957D01*
X159361Y206032D01*
X159614Y207300D01*
X159361Y208568D01*
X158643Y209643D01*
X157568Y210361D01*
X156962Y210482D01*
X157000Y211686D01*
X158268Y211938D01*
X159343Y212656D01*
X160061Y213731D01*
X160313Y215000D01*
X160061Y216268D01*
X159343Y217343D01*
X158268Y218061D01*
X157000Y218313D01*
X155732Y218061D01*
X154657Y217343D01*
X153938Y216268D01*
X153686Y215000D01*
X153938Y213731D01*
X154657Y212656D01*
X155732Y211938D01*
X156338Y211817D01*
X156300Y210614D01*
X155032Y210361D01*
X153957Y209643D01*
X153445Y208877D01*
X152141Y209065D01*
X151961Y209968D01*
X151243Y211043D01*
X150939Y211246D01*
Y216355D01*
X178092Y243508D01*
X178534Y244170D01*
X178689Y244950D01*
Y273904D01*
X178993Y274107D01*
X179711Y275182D01*
X179964Y276450D01*
X179763Y277457D01*
X180594Y278109D01*
X180811Y278205D01*
X184011Y275005D01*
Y273905D01*
X183708Y273602D01*
X183266Y272940D01*
X183110Y272160D01*
Y268639D01*
X183266Y267859D01*
X183708Y267197D01*
X183811Y267094D01*
Y216842D01*
X182540Y216126D01*
X181600Y216313D01*
X180332Y216061D01*
X179256Y215343D01*
X178538Y214268D01*
X178286Y213000D01*
X178390Y212474D01*
X160355Y194439D01*
X150645D01*
X139542Y205542D01*
X138880Y205984D01*
X138100Y206139D01*
X133800D01*
X133800Y206139D01*
X133020Y205984D01*
X132358Y205542D01*
X132358Y205542D01*
X128858Y202042D01*
X128416Y201380D01*
X128261Y200600D01*
Y192431D01*
X126991Y191845D01*
X126368Y192261D01*
X125100Y192514D01*
X123832Y192261D01*
X122757Y191543D01*
X122039Y190468D01*
X121786Y189200D01*
X122039Y187932D01*
X122757Y186857D01*
X123832Y186139D01*
X125100Y185886D01*
X126368Y186139D01*
X126991Y186555D01*
X128261Y185969D01*
Y163534D01*
X116480Y151754D01*
X115076Y152146D01*
X114543Y152943D01*
X113468Y153661D01*
X112200Y153914D01*
X110932Y153661D01*
X109857Y152943D01*
X109139Y151868D01*
X108886Y150600D01*
X109139Y149332D01*
X109857Y148257D01*
X110654Y147724D01*
X111046Y146320D01*
X93449Y128723D01*
X93243Y128743D01*
X92168Y129461D01*
X90900Y129714D01*
X89632Y129461D01*
X88557Y128743D01*
X87839Y127668D01*
X87586Y126400D01*
X87803Y125309D01*
X87622Y124835D01*
X87041Y124039D01*
X85245D01*
X83142Y126142D01*
X83214Y126500D01*
X82961Y127768D01*
X82243Y128843D01*
X81168Y129561D01*
X79900Y129814D01*
X78632Y129561D01*
X78601Y129541D01*
X77261Y129768D01*
X76543Y130843D01*
X75468Y131561D01*
X75320Y131591D01*
X75445Y132861D01*
X79500D01*
X80280Y133016D01*
X80942Y133458D01*
X109820Y162336D01*
X114829D01*
X115032Y162032D01*
X116107Y161314D01*
X117375Y161061D01*
X118643Y161314D01*
X119718Y162032D01*
X120436Y163107D01*
X120689Y164375D01*
X120436Y165643D01*
X119718Y166718D01*
X118643Y167436D01*
X117375Y167689D01*
X116107Y167436D01*
X115032Y166718D01*
X114829Y166414D01*
X108975D01*
X108195Y166259D01*
X107533Y165817D01*
X88944Y147227D01*
X87565Y147645D01*
X87461Y148168D01*
X86743Y149243D01*
X85668Y149961D01*
X84400Y150214D01*
X84042Y150142D01*
X81039Y153145D01*
Y159526D01*
X81406Y159790D01*
X82309Y160088D01*
X83132Y159539D01*
X84400Y159286D01*
X85668Y159539D01*
X86743Y160257D01*
X86920Y160521D01*
X88447D01*
X88557Y160357D01*
X89632Y159639D01*
X90900Y159386D01*
X92168Y159639D01*
X93243Y160357D01*
X93386Y160571D01*
X94914D01*
X95057Y160357D01*
X96132Y159639D01*
X97400Y159386D01*
X98668Y159639D01*
X99743Y160357D01*
X100461Y161432D01*
X100714Y162700D01*
X100461Y163968D01*
X99743Y165043D01*
X99439Y165246D01*
Y239800D01*
X99284Y240580D01*
X98842Y241242D01*
X98842Y241242D01*
X97742Y242341D01*
X97814Y242700D01*
X97561Y243968D01*
X96843Y245043D01*
X95768Y245761D01*
X94500Y246014D01*
X93232Y245761D01*
X92157Y245043D01*
X91439Y243968D01*
X91186Y242700D01*
X91439Y241432D01*
X92157Y240357D01*
X93232Y239639D01*
X94500Y239386D01*
X95361Y238382D01*
Y165246D01*
X95057Y165043D01*
X93770Y165092D01*
X92939Y165914D01*
Y232900D01*
X92939Y232900D01*
X92784Y233680D01*
X92342Y234342D01*
X87939Y238745D01*
Y245255D01*
X94142Y251458D01*
X94500Y251386D01*
X95768Y251639D01*
X96843Y252357D01*
X97561Y253432D01*
X97814Y254700D01*
X97561Y255968D01*
X96843Y257043D01*
X95768Y257761D01*
X94500Y258014D01*
X93232Y257761D01*
X92157Y257043D01*
X91439Y255968D01*
X91186Y254700D01*
X91258Y254342D01*
X84458Y247542D01*
X84016Y246880D01*
X83861Y246100D01*
Y237900D01*
X84016Y237120D01*
X84458Y236458D01*
X88861Y232055D01*
Y165246D01*
X88557Y165043D01*
X87245Y165086D01*
X86439Y165877D01*
Y212900D01*
X86439Y212900D01*
X86284Y213680D01*
X85842Y214342D01*
X85842Y214342D01*
X62584Y237600D01*
X110545Y285561D01*
X165329D01*
X165454Y284291D01*
D02*
G37*
%LPC*%
G36*
X47600Y153114D02*
X46332Y152861D01*
X45257Y152143D01*
X44539Y151068D01*
X44286Y149800D01*
X44539Y148532D01*
X45257Y147457D01*
X46332Y146739D01*
X47600Y146486D01*
X48868Y146739D01*
X49943Y147457D01*
X50661Y148532D01*
X50914Y149800D01*
X50661Y151068D01*
X49943Y152143D01*
X48868Y152861D01*
X47600Y153114D01*
D02*
G37*
G36*
X62000Y172214D02*
X60732Y171961D01*
X59657Y171243D01*
X58939Y170168D01*
X58686Y168900D01*
X58939Y167632D01*
X59657Y166557D01*
X60732Y165839D01*
X62000Y165586D01*
X63268Y165839D01*
X64343Y166557D01*
X65061Y167632D01*
X65314Y168900D01*
X65061Y170168D01*
X64343Y171243D01*
X63268Y171961D01*
X62000Y172214D01*
D02*
G37*
G36*
X151250Y280364D02*
X149982Y280111D01*
X148907Y279393D01*
X148189Y278318D01*
X147936Y277050D01*
X148189Y275782D01*
X148907Y274707D01*
X149982Y273989D01*
X151250Y273736D01*
X152518Y273989D01*
X153593Y274707D01*
X154311Y275782D01*
X154564Y277050D01*
X154311Y278318D01*
X153593Y279393D01*
X152518Y280111D01*
X151250Y280364D01*
D02*
G37*
%LPD*%
D33*
X145000Y122900D02*
X170810D01*
X183000Y99690D02*
X186750Y103440D01*
Y106960D01*
X183000Y77800D02*
Y99690D01*
X170810Y122900D02*
X186750Y106960D01*
X171699Y66499D02*
X183000Y77800D01*
X64500Y43200D02*
X67100Y40600D01*
X52300Y43200D02*
X64500D01*
X45800Y49700D02*
X52300Y43200D01*
X20400Y49700D02*
X45800D01*
X17500Y46800D02*
X20400Y49700D01*
X17500Y41900D02*
Y46800D01*
Y41900D02*
X19550Y39850D01*
Y31850D02*
Y39850D01*
Y31850D02*
X20300Y31100D01*
X24310Y44400D02*
X28910Y39800D01*
X60300D01*
X22300Y44400D02*
X24310D01*
X60300Y39800D02*
X65350Y34750D01*
X31600Y65000D02*
X77300D01*
X60700Y56700D02*
X62500Y54900D01*
X22450Y59950D02*
Y83760D01*
X23800Y38900D02*
X34200Y28500D01*
X40000D01*
X44600Y33100D01*
X62500Y54900D02*
X88100D01*
X77300Y65000D02*
X81100Y61200D01*
X91700D01*
X91550Y50650D02*
X93600Y52700D01*
X80000Y28100D02*
X93700Y41800D01*
X79900Y126500D02*
X84400Y122000D01*
X104700D01*
X107500Y124800D01*
X84400Y162600D02*
Y212900D01*
X85900Y246100D02*
X94500Y254700D01*
Y242700D02*
X97400Y239800D01*
Y162700D02*
Y239800D01*
X79000Y152300D02*
X84400Y146900D01*
X79000Y152300D02*
Y194200D01*
X42500Y230700D02*
X79000Y194200D01*
X85900Y237900D02*
Y246100D01*
Y237900D02*
X90900Y232900D01*
Y162700D02*
Y232900D01*
X112200Y121400D02*
Y129500D01*
X140800Y158100D01*
X156900D01*
X107500Y124800D02*
Y129400D01*
X153500Y175400D01*
X182800D01*
X101900Y126600D02*
Y129500D01*
X135100Y162700D01*
Y199300D01*
X90900Y126400D02*
X94010D01*
X130300Y162690D01*
X62600Y132000D02*
Y137500D01*
X64800Y139700D01*
X77200D01*
X84400Y146900D01*
X65200D02*
X71900D01*
X59000Y140700D02*
X65200Y146900D01*
X59000Y128500D02*
Y140700D01*
X117800Y99000D02*
Y115900D01*
X68000Y134900D02*
X79500D01*
X108975Y164375D01*
X117375D01*
X35300Y239700D02*
X42400Y246800D01*
X35300Y145100D02*
Y239700D01*
X31200Y251000D02*
X42600Y262400D01*
X31200Y143402D02*
Y251000D01*
X143898Y79900D02*
X151299Y72499D01*
X165300Y92900D02*
X169700Y97300D01*
X143756Y75800D02*
X150056Y69499D01*
X168300Y89710D02*
X182500Y103910D01*
Y105200D01*
X130300Y200600D02*
X133800Y204100D01*
X130300Y162690D02*
Y200600D01*
X42600Y254700D02*
X59700Y237600D01*
X84400Y212900D01*
X148900Y208700D02*
Y217200D01*
X176650Y244950D01*
Y276450D01*
X59700Y237600D02*
X109700Y287600D01*
X182000D01*
X163950Y276850D02*
Y280150D01*
X166200Y282400D01*
X179500D01*
X186050Y275850D01*
X182600Y194200D02*
Y204000D01*
X182000Y287600D02*
X192550Y277050D01*
X165300Y82210D02*
X166050Y81460D01*
X165300Y82210D02*
Y92900D01*
X168300Y83453D02*
X169050Y82703D01*
X168300Y83453D02*
Y89710D01*
X169050Y74107D02*
Y82703D01*
X166050Y75350D02*
Y81460D01*
X131300Y23989D02*
X131600Y23689D01*
X146400Y20200D02*
X159600D01*
X129400Y37200D02*
X129400Y37200D01*
X118900Y34400D02*
X121500Y37000D01*
Y46900D01*
X109500Y52300D02*
X112000Y49800D01*
X118600D01*
X121500Y46900D01*
X22450Y59950D02*
X22800Y59600D01*
X22450Y83760D02*
X24940Y86250D01*
X24950D01*
X27200Y88500D01*
X70800D01*
X74500Y92200D01*
Y98800D01*
X81700Y88500D02*
Y98800D01*
X138150Y28450D02*
X154000Y44300D01*
X129400Y37200D02*
X138150Y28450D01*
X146400Y20200D01*
X85150Y48160D02*
X87640Y50650D01*
X91160D01*
X91160Y50650D01*
X91550D01*
X44600Y33100D02*
X48900D01*
X151299Y72499D02*
X163199D01*
X166050Y75350D01*
X150056Y69499D02*
X164442D01*
X169050Y74107D01*
X157699Y66499D02*
X171699D01*
X154000Y44300D02*
Y62800D01*
X157699Y66499D01*
X65350Y34750D02*
X77750D01*
X85150Y47640D02*
Y48160D01*
X67100Y40600D02*
X69950Y37750D01*
X75260D01*
X85150Y47640D01*
X77750Y34750D02*
X89400Y46400D01*
X182800Y184200D02*
X186000D01*
X194700Y192900D01*
X161200Y192400D02*
X181600Y212800D01*
X133800Y204100D02*
X138100D01*
X149800Y192400D01*
X161200D01*
X62600Y132000D02*
X75600Y119000D01*
X109800D01*
X112200Y121400D01*
X59000Y128500D02*
X71600Y115900D01*
X117800D01*
Y126900D01*
X35300Y145100D02*
X67800Y112600D01*
X117800Y99000D02*
X125300Y91500D01*
X125500D01*
X67800Y112600D02*
X107400D01*
X111700Y108300D01*
Y99289D02*
X131089Y79900D01*
X111700Y99289D02*
Y108300D01*
X131089Y79900D02*
X143898D01*
X108700Y98047D02*
X130947Y75800D01*
X143756D01*
X96500Y93900D02*
Y101500D01*
Y93900D02*
X109500Y80900D01*
Y52300D02*
Y80900D01*
X31200Y143402D02*
X65202Y109400D01*
X103900D01*
X108700Y104600D01*
Y98047D02*
Y104600D01*
X98100Y39000D02*
Y72100D01*
X81700Y88500D02*
X98100Y72100D01*
X59850Y22150D02*
X81250D01*
X48900Y33100D02*
X59850Y22150D01*
X81250D02*
X98100Y39000D01*
X181600Y212800D02*
Y213000D01*
X182600Y204000D02*
X185850Y207250D01*
X185150Y268639D02*
Y272160D01*
X186050Y273060D01*
Y275850D01*
X185850Y207250D02*
Y267939D01*
X185150Y268639D02*
X185850Y267939D01*
X192550Y273340D02*
Y277050D01*
Y273340D02*
X194700Y271190D01*
Y192900D02*
Y271190D01*
X165100Y8000D02*
Y14700D01*
X159600Y20200D02*
X165100Y14700D01*
X118900Y20700D02*
Y34400D01*
X131600Y23300D02*
Y23689D01*
D34*
X174100Y142500D02*
X184800Y131800D01*
X196400D01*
X138400Y142500D02*
X174100D01*
D35*
X139700Y184200D02*
X173000D01*
X178000Y189200D01*
X185699D02*
X190449Y193950D01*
X178000Y189200D02*
X185699D01*
X190449Y193950D02*
Y269350D01*
D40*
X8000Y88900D02*
D03*
D41*
X242000Y215900D02*
D03*
X12700Y8000D02*
D03*
X165100D02*
D03*
D42*
X192000Y40000D02*
D03*
X197100Y15600D02*
D03*
X20300Y31100D02*
D03*
X31600Y65000D02*
D03*
X60700Y56700D02*
D03*
X22300Y44400D02*
D03*
X23800Y38900D02*
D03*
X88100Y54900D02*
D03*
X91700Y61200D02*
D03*
X93600Y52700D02*
D03*
X89400Y46400D02*
D03*
X67100Y40600D02*
D03*
X93700Y41800D02*
D03*
X79000Y26400D02*
D03*
X101900Y126600D02*
D03*
X90900Y126400D02*
D03*
X79900Y126500D02*
D03*
X135100Y199300D02*
D03*
X138400Y142500D02*
D03*
X94500Y254700D02*
D03*
Y242700D02*
D03*
X42600Y254700D02*
D03*
X42500Y230700D02*
D03*
X97400Y162700D02*
D03*
X90900D02*
D03*
X84400Y162600D02*
D03*
Y146900D02*
D03*
X117375Y164375D02*
D03*
X182800Y175400D02*
D03*
Y184200D02*
D03*
X182600Y194200D02*
D03*
X148900Y208700D02*
D03*
X139700Y184200D02*
D03*
X156900Y158100D02*
D03*
X117800Y126900D02*
D03*
X196400Y131800D02*
D03*
X42600Y262400D02*
D03*
X42400Y246800D02*
D03*
X71900Y146900D02*
D03*
X68000Y134900D02*
D03*
X169700Y97300D02*
D03*
X182500Y105200D02*
D03*
X176650Y276450D02*
D03*
X163950Y276850D02*
D03*
X129400Y37200D02*
D03*
X96500Y101500D02*
D03*
X48298Y27298D02*
D03*
X22800Y59600D02*
D03*
X74500Y98800D02*
D03*
X81700D02*
D03*
X145000Y122900D02*
D03*
X162700Y54300D02*
D03*
X73500Y42000D02*
D03*
X197600Y184600D02*
D03*
X125500Y91500D02*
D03*
X96500Y18300D02*
D03*
X198300Y40500D02*
D03*
X181600Y213000D02*
D03*
X190449Y269350D02*
D03*
X181700Y54200D02*
D03*
X179900Y39500D02*
D03*
X168600Y16400D02*
D03*
X118900Y20700D02*
D03*
X131600Y23300D02*
D03*
X13200Y62800D02*
D03*
X9200Y118800D02*
D03*
X17200Y70800D02*
D03*
Y278800D02*
D03*
X21200Y286800D02*
D03*
X29200D02*
D03*
X45200Y142800D02*
D03*
X41200Y182800D02*
D03*
X45200Y190800D02*
D03*
X41200Y198800D02*
D03*
X45200Y206800D02*
D03*
X41200Y214800D02*
D03*
X45200Y238800D02*
D03*
Y270800D02*
D03*
X49200Y182800D02*
D03*
Y198800D02*
D03*
Y214800D02*
D03*
Y230800D02*
D03*
X53200Y254800D02*
D03*
X49200Y262800D02*
D03*
X53200Y270800D02*
D03*
X61200Y174800D02*
D03*
Y190800D02*
D03*
Y222800D02*
D03*
X57200Y262800D02*
D03*
X61200Y270800D02*
D03*
X65200Y182800D02*
D03*
X69200Y190800D02*
D03*
X65200Y198800D02*
D03*
Y214800D02*
D03*
X69200Y238800D02*
D03*
Y254800D02*
D03*
Y270800D02*
D03*
X77200Y206800D02*
D03*
X73200Y214800D02*
D03*
Y230800D02*
D03*
X77200Y238800D02*
D03*
X85200Y222800D02*
D03*
X81200Y230800D02*
D03*
Y246800D02*
D03*
X85200Y254800D02*
D03*
Y270800D02*
D03*
X101200Y142800D02*
D03*
X97200Y262800D02*
D03*
X101200Y270800D02*
D03*
X105200Y166800D02*
D03*
X109200Y174800D02*
D03*
X105200Y182800D02*
D03*
Y262800D02*
D03*
X113200Y182800D02*
D03*
X117200Y254800D02*
D03*
X113200Y262800D02*
D03*
X125200Y174800D02*
D03*
Y206800D02*
D03*
X121200Y214800D02*
D03*
X125200Y222800D02*
D03*
X121200Y230800D02*
D03*
X125200Y254800D02*
D03*
X121200Y262800D02*
D03*
X125200Y270800D02*
D03*
X129200Y214800D02*
D03*
Y230800D02*
D03*
X133200Y254800D02*
D03*
X129200Y262800D02*
D03*
X141200Y174800D02*
D03*
X149200Y110800D02*
D03*
X145200Y230800D02*
D03*
Y278800D02*
D03*
X157200Y110800D02*
D03*
X189200Y158800D02*
D03*
X197200Y62800D02*
D03*
Y78800D02*
D03*
Y94800D02*
D03*
X193200Y102800D02*
D03*
X197200Y110800D02*
D03*
Y142800D02*
D03*
X193200Y150800D02*
D03*
X197200Y158800D02*
D03*
X193200Y166800D02*
D03*
X197200Y174800D02*
D03*
X201200Y6800D02*
D03*
X205200Y190800D02*
D03*
X201200Y230800D02*
D03*
X205200Y238800D02*
D03*
X213200Y190800D02*
D03*
X221200D02*
D03*
X229200D02*
D03*
Y254800D02*
D03*
X237200Y190800D02*
D03*
Y238800D02*
D03*
X233200Y246800D02*
D03*
X237200Y254800D02*
D03*
Y270800D02*
D03*
X245200Y190800D02*
D03*
X241200Y230800D02*
D03*
X245200Y238800D02*
D03*
X241200Y246800D02*
D03*
X245200Y254800D02*
D03*
X241200Y262800D02*
D03*
X245200Y270800D02*
D03*
D43*
X138400Y44000D02*
D03*
X127400D02*
D03*
X116400D02*
D03*
X138400Y55000D02*
D03*
X127400D02*
D03*
X116400D02*
D03*
X138400Y66000D02*
D03*
X127400D02*
D03*
X116400D02*
D03*
M02*
