G04 Layer_Physical_Order=3*
G04 Layer_Color=16440176*
%FSLAX44Y44*%
%MOMM*%
G71*
G01*
G75*
%ADD36C,0.2000*%
%ADD37C,0.3000*%
%ADD39C,0.5000*%
%ADD41C,0.4000*%
%ADD45R,0.9000X0.9000*%
%ADD46R,0.9000X0.9000*%
%ADD50C,0.4500*%
%ADD51C,0.3000*%
D36*
X135300Y17900D02*
X139500Y22100D01*
X85689Y14800D02*
X149130D01*
X149560Y14900D02*
X153220Y18560D01*
X149230Y14900D02*
X149560D01*
X149130Y14800D02*
X149230Y14900D01*
X-11170Y43800D02*
X41900D01*
X-15000Y39970D02*
X-11170Y43800D01*
X-15000Y39500D02*
Y39970D01*
X65250Y8150D02*
Y40150D01*
Y8150D02*
X65400Y8000D01*
X65250Y40150D02*
X123920Y98820D01*
X171200Y96600D02*
Y107299D01*
X160400Y85800D02*
X171200Y96600D01*
X138848Y85800D02*
X160400D01*
X167000Y8000D02*
X176600Y17600D01*
Y71600D02*
X184200Y79200D01*
X78160Y22329D02*
Y30260D01*
X76500Y35900D02*
X83500D01*
X84600Y34800D01*
Y30400D02*
Y34800D01*
X90600Y20900D02*
Y24400D01*
Y20900D02*
X93600Y17900D01*
X135300D01*
X179700Y8000D02*
Y47000D01*
X184200Y51500D01*
X165210Y183164D02*
Y188310D01*
Y178510D02*
Y183164D01*
X70120Y186620D02*
X138640D01*
X48500Y165000D02*
X70120Y186620D01*
X48500Y142600D02*
Y165000D01*
X57133Y142633D02*
Y156733D01*
X80800Y180400D01*
X145300D01*
X147280Y182380D01*
Y186640D01*
X147300Y160600D02*
X165210Y178510D01*
X65767Y135633D02*
X68300Y133100D01*
X65767Y135633D02*
Y142533D01*
X156400Y180600D02*
Y186520D01*
X152100Y176300D02*
X156400Y180600D01*
X85300Y176300D02*
X152100D01*
X74400Y165400D02*
X85300Y176300D01*
X74400Y142500D02*
Y165400D01*
X153220Y18560D02*
Y24410D01*
X156420Y272450D02*
X161050Y277080D01*
X146790Y203380D02*
Y271620D01*
X156420Y272450D02*
X156570Y272300D01*
Y203380D02*
Y272300D01*
X164460Y269200D02*
X173760Y278500D01*
X164800Y113700D02*
X171200Y107299D01*
X95805Y141805D02*
X114600Y160600D01*
X147300D01*
X87300Y133100D02*
X95905Y141705D01*
X68300Y133100D02*
X87300D01*
X147560Y30070D02*
X153220Y24410D01*
X147560Y30070D02*
Y30350D01*
X162370Y94470D02*
X162600Y94699D01*
X126400Y90900D02*
X133748D01*
X138848Y85800D01*
X164460Y269200D02*
X165646Y268014D01*
Y202994D02*
Y268014D01*
X146790Y271620D02*
X150470Y275300D01*
X78160Y22329D02*
X85689Y14800D01*
X162600Y94699D02*
Y99700D01*
X157600Y104700D02*
X162600Y99700D01*
X123920Y98820D02*
X154260D01*
X119600Y104700D02*
X157600D01*
X74600Y110800D02*
X86526D01*
X49400Y136000D02*
X74600Y110800D01*
X86526D02*
X110026Y134300D01*
X177074D01*
X188000Y123374D01*
X38700Y136000D02*
X49400D01*
X52516Y128500D02*
X74016Y107000D01*
X88100D01*
X112300Y131200D01*
X43300Y128500D02*
X52516D01*
X112300Y131200D02*
X174800D01*
X184200Y121800D01*
Y79200D02*
Y121800D01*
X-7500Y83600D02*
Y98400D01*
Y83600D02*
X1100Y75000D01*
Y50500D02*
Y75000D01*
Y50500D02*
X4000Y47600D01*
X62500D01*
X119600Y104700D01*
X41900Y43800D02*
X52700Y33000D01*
Y8000D02*
Y33000D01*
X84600Y30400D02*
X90600Y24400D01*
X176600Y17600D02*
Y71600D01*
X184200Y51500D02*
X191900D01*
X188000Y79500D02*
Y123374D01*
X195731Y55331D02*
Y71769D01*
X191900Y51500D02*
X195731Y55331D01*
X188000Y79500D02*
X195731Y71769D01*
X107200Y47495D02*
X107400Y47695D01*
X107200Y39300D02*
X116100Y30400D01*
X107200Y39300D02*
Y47495D01*
X107400Y47695D02*
Y51505D01*
X107200Y71700D02*
X126400Y90900D01*
X107200Y51705D02*
X107400Y51505D01*
X107200Y51705D02*
Y71700D01*
D37*
X77000Y87789D02*
Y98300D01*
X76003Y44703D02*
X84497D01*
X96500Y22600D02*
Y32700D01*
X84497Y44703D02*
X96500Y32700D01*
X125840Y83140D02*
X129060D01*
X132300Y79900D01*
D39*
X169560D02*
X179310Y89650D01*
X132470Y79900D02*
X169560D01*
X24200Y133100D02*
X39800Y117500D01*
X40600Y118300D02*
X49100D01*
X83100Y117900D02*
Y120980D01*
X205000Y225300D02*
Y292000D01*
X26840Y287080D02*
X134405D01*
X173800Y177278D02*
Y194100D01*
X149542Y153020D02*
X173800Y177278D01*
X115140Y153020D02*
X149542D01*
X179310Y89650D02*
Y117050D01*
X171200Y125160D02*
X179310Y117050D01*
X155670Y125160D02*
X171200D01*
X104710Y142590D02*
X115140Y153020D01*
X181620Y278958D02*
Y288480D01*
Y278958D02*
X187979Y272600D01*
X173800Y194100D02*
X205000Y225300D01*
X83100Y120980D02*
X104710Y142590D01*
X7300Y52600D02*
X14230Y59530D01*
X242000Y206000D02*
Y220580D01*
X237440Y225140D02*
X242000Y220580D01*
X134405Y287080D02*
X141325Y294000D01*
X176100D01*
X181620Y288480D01*
X213400Y237281D02*
Y272300D01*
Y237281D02*
X225541Y225140D01*
X237440D01*
X187979Y272600D02*
X188079Y272700D01*
X198800D01*
X24200Y133100D02*
Y284440D01*
X132300Y26640D02*
Y36000D01*
X49100Y118300D02*
X69200Y98200D01*
X95200D01*
X145510Y115000D02*
X155670Y125160D01*
X95200Y98200D02*
X112000Y115000D01*
X145510D01*
X40000Y8000D02*
Y27000D01*
X31600Y35400D02*
X40000Y27000D01*
X96500Y22600D02*
X128260D01*
X132300Y26640D01*
Y36000D02*
Y79900D01*
X24200Y284440D02*
X26840Y287080D01*
X14230Y59530D02*
Y91930D01*
X40600Y118300D01*
X-6700Y35400D02*
X31600D01*
D41*
X-6700Y50900D02*
Y63400D01*
X-18100Y74800D02*
Y83200D01*
Y74800D02*
X-6700Y63400D01*
D45*
X179700Y8000D02*
D03*
X167000D02*
D03*
X242000Y191000D02*
D03*
X205000Y292000D02*
D03*
D46*
X242000Y206000D02*
D03*
X65400Y8000D02*
D03*
X52700D02*
D03*
X40000D02*
D03*
X-7000Y36000D02*
D03*
Y51000D02*
D03*
D50*
X139500Y22100D02*
D03*
X147550Y30720D02*
D03*
X-15000Y39500D02*
D03*
X78160Y30260D02*
D03*
X-18100Y83200D02*
D03*
X76500Y35900D02*
D03*
X165210Y183164D02*
D03*
X83100Y117900D02*
D03*
X48500Y142600D02*
D03*
X57133Y142633D02*
D03*
X65767Y142533D02*
D03*
X74400Y142500D02*
D03*
X191550Y214080D02*
D03*
X161050Y277080D02*
D03*
X173760Y278500D02*
D03*
X138640Y186620D02*
D03*
X147280Y186640D02*
D03*
X156400Y186520D02*
D03*
X146790Y203380D02*
D03*
X156570D02*
D03*
X104710Y142590D02*
D03*
X179310Y89650D02*
D03*
X116100Y30400D02*
D03*
X164800Y113700D02*
D03*
X77000Y87789D02*
D03*
X49100Y118300D02*
D03*
X7300Y52600D02*
D03*
X125840Y83140D02*
D03*
X154260Y98820D02*
D03*
X162600Y94699D02*
D03*
X132300Y36000D02*
D03*
X213400Y272300D02*
D03*
X165646Y202994D02*
D03*
X198800Y272700D02*
D03*
X150470Y275300D02*
D03*
X76003Y44703D02*
D03*
X-7500Y98400D02*
D03*
X38700Y136000D02*
D03*
X43300Y128500D02*
D03*
X96500Y22600D02*
D03*
X91600Y36300D02*
D03*
D51*
X236300Y188100D02*
D03*
M02*
