G04 Layer_Color=128*
%FSLAX44Y44*%
%MOMM*%
G71*
G01*
G75*
%ADD13R,0.6000X0.4000*%
%ADD14R,0.2000X0.2000*%
%ADD15R,0.2000X0.2000*%
%ADD16R,0.4000X0.6000*%
%ADD44C,0.4000*%
G04:AMPARAMS|DCode=45|XSize=0.47mm|YSize=0.25mm|CornerRadius=0mm|HoleSize=0mm|Usage=FLASHONLY|Rotation=180.000|XOffset=0mm|YOffset=0mm|HoleType=Round|Shape=Octagon|*
%AMOCTAGOND45*
4,1,8,-0.2350,0.0625,-0.2350,-0.0625,-0.1725,-0.1250,0.1725,-0.1250,0.2350,-0.0625,0.2350,0.0625,0.1725,0.1250,-0.1725,0.1250,-0.2350,0.0625,0.0*
%
%ADD45OCTAGOND45*%

%ADD46R,0.8500X0.7500*%
%ADD47R,3.0000X2.0000*%
G04:AMPARAMS|DCode=48|XSize=0.4mm|YSize=0.6mm|CornerRadius=0mm|HoleSize=0mm|Usage=FLASHONLY|Rotation=45.000|XOffset=0mm|YOffset=0mm|HoleType=Round|Shape=Rectangle|*
%AMROTATEDRECTD48*
4,1,4,0.0707,-0.3535,-0.3535,0.0707,-0.0707,0.3535,0.3535,-0.0707,0.0707,-0.3535,0.0*
%
%ADD48ROTATEDRECTD48*%

%ADD49O,0.4000X0.9500*%
%ADD50R,4.2000X3.4000*%
%ADD51R,1.0000X0.8000*%
%ADD52R,1.0000X1.8000*%
%ADD53R,1.1000X1.0000*%
%ADD54O,0.9000X0.2500*%
%ADD55O,0.2500X0.9000*%
%ADD56R,1.5000X1.0000*%
%ADD57R,1.1000X1.6500*%
G36*
X67990Y149239D02*
X65990Y151239D01*
X63990Y149239D01*
Y153239D01*
X67990D01*
Y149239D01*
D02*
G37*
G36*
X76800D02*
X74800Y151239D01*
X72800Y149239D01*
Y153239D01*
X76800D01*
Y149239D01*
D02*
G37*
G36*
X140640Y193390D02*
X138640Y195390D01*
X136640Y193390D01*
Y197390D01*
X140640D01*
Y193390D01*
D02*
G37*
G36*
X179870Y28000D02*
X175870D01*
Y32000D01*
X177870Y30000D01*
X179870Y32000D01*
Y28000D01*
D02*
G37*
G36*
X50230Y149239D02*
X48230Y151239D01*
X46230Y149239D01*
Y153239D01*
X50230D01*
Y149239D01*
D02*
G37*
G36*
X58870D02*
X56870Y151239D01*
X54870Y149239D01*
Y153239D01*
X58870D01*
Y149239D01*
D02*
G37*
G36*
X149280Y193390D02*
X147280Y195390D01*
X145280Y193390D01*
Y197390D01*
X149280D01*
Y193390D01*
D02*
G37*
G36*
X214290Y222640D02*
X216290Y220640D01*
X212290D01*
X212290Y224640D01*
X216290D01*
X214290Y222640D01*
D02*
G37*
G36*
X230940Y220640D02*
X226940D01*
X228940Y222640D01*
X226940Y224640D01*
X230940D01*
Y220640D01*
D02*
G37*
G36*
X193800Y251900D02*
X191800Y253900D01*
X189800Y251900D01*
Y255900D01*
X193800D01*
Y251900D01*
D02*
G37*
G36*
X158400Y193390D02*
X156400Y195390D01*
X154400Y193390D01*
Y197390D01*
X158400D01*
Y193390D01*
D02*
G37*
G36*
X167210D02*
X165210Y195390D01*
X163210Y193390D01*
Y197390D01*
X167210D01*
Y193390D01*
D02*
G37*
G36*
X231230Y213592D02*
X227230D01*
X229230Y215592D01*
X227230Y217592D01*
X231230D01*
Y213592D01*
D02*
G37*
D13*
X230200Y198000D02*
D03*
Y206000D02*
D03*
X177710Y47600D02*
D03*
Y55600D02*
D03*
X116000Y69480D02*
D03*
Y77480D02*
D03*
X177710Y66800D02*
D03*
Y74800D02*
D03*
D14*
X213290Y222640D02*
D03*
X218810D02*
D03*
X230230Y215592D02*
D03*
X224710D02*
D03*
X229940Y222640D02*
D03*
X224420D02*
D03*
D15*
X165210Y196390D02*
D03*
Y190870D02*
D03*
X156400Y196390D02*
D03*
Y190870D02*
D03*
X147280Y196390D02*
D03*
Y190870D02*
D03*
X56870Y152239D02*
D03*
Y146720D02*
D03*
X48230Y152239D02*
D03*
Y146720D02*
D03*
X65990Y152239D02*
D03*
Y146720D02*
D03*
X138640Y196390D02*
D03*
Y190870D02*
D03*
X74800Y152239D02*
D03*
Y146720D02*
D03*
X191800Y254900D02*
D03*
Y249380D02*
D03*
X177870Y29000D02*
D03*
Y34520D02*
D03*
D16*
X122560Y105500D02*
D03*
X130560D02*
D03*
X151510Y82380D02*
D03*
X159510D02*
D03*
X141980Y283980D02*
D03*
X133980D02*
D03*
D44*
X214550Y205950D02*
D03*
D45*
X210400Y209200D02*
D03*
Y202700D02*
D03*
X218700Y209200D02*
D03*
Y202700D02*
D03*
D46*
X185480Y97680D02*
D03*
Y108180D02*
D03*
X171980D02*
D03*
Y97680D02*
D03*
D47*
X43370Y45420D02*
D03*
Y105420D02*
D03*
D48*
X132393Y74843D02*
D03*
X138050Y80500D02*
D03*
D49*
X173750Y213210D02*
D03*
X161050D02*
D03*
X148350D02*
D03*
X135650D02*
D03*
Y270710D02*
D03*
X148350D02*
D03*
X161050D02*
D03*
X173750D02*
D03*
D50*
X154700Y241960D02*
D03*
D51*
X108250Y230710D02*
D03*
Y242710D02*
D03*
Y254710D02*
D03*
X10250D02*
D03*
Y242710D02*
D03*
Y230710D02*
D03*
D52*
X110250Y283210D02*
D03*
Y211210D02*
D03*
X8250D02*
D03*
Y283210D02*
D03*
D53*
X77450Y171960D02*
D03*
X41050D02*
D03*
D54*
X113090Y142590D02*
D03*
Y147590D02*
D03*
X141090D02*
D03*
Y142590D02*
D03*
D55*
X117090Y156590D02*
D03*
X122090D02*
D03*
X127090D02*
D03*
X132090D02*
D03*
X137090D02*
D03*
Y133590D02*
D03*
X132090D02*
D03*
X127090D02*
D03*
X122090D02*
D03*
X117090D02*
D03*
D56*
X127090Y145090D02*
D03*
D57*
X207460Y237620D02*
D03*
X240460D02*
D03*
X207340Y258760D02*
D03*
X240340D02*
D03*
M02*
