M48
;Layer_Color=9474304
;FILE_FORMAT=4:4
METRIC,LZ
;TYPE=PLATED
T1F00S00C0.1500
T2F00S00C0.2000
T5F00S00C0.6000
T6F00S00C2.2000
%
T01
X-00004Y00008
X-00009Y00018
X00001
X00006Y000276
X-00004Y00028
X-00014
Y00048
X-00034
X-00029Y00058
X-00044Y00068
X-00049Y00078
X-00039
X-00034Y00088
X-00044
X-00054
X-00059Y00098
X-00049
X-00044Y00108
X-00034
X-00024
X-00039Y00118
X-00044Y00128
X-00054
X-00059Y00138
X-00049
X-00039
X-00014Y00088
X00001Y000962
X00086Y00088
X00066Y00128
X00111Y00138
X00026Y00028
X00161Y00118
X00171
X00191Y00138
Y00158
Y00178
X00201
X00211
X00221
X00231
X00241
X00226Y00188
X00216
X00206
X00196
X00191Y00198
X00201
X00211
X00221
X00196Y00208
Y00228
X00191Y00238
X00211Y00278
X00221
X00226Y00268
X00146Y00168
X00156Y00148
X00136Y00168
X00106
X00091Y00158
X00081
X00091Y00198
X00101
X00096Y00208
X00086
X00126
X00131Y00198
X00141Y00218
X00126Y00228
X00121Y00238
X00126Y00248
X00121Y00258
X00091
X00096Y00268
Y00248
X00101Y00238
X00066Y00248
X00061Y00258
X00071
X00036Y00268
X00031Y00278
X00041
X00016Y00268
X00006
X-00004
X-00014
X-00024
X-00029Y00258
X-00019
X-00009
X00001
Y00278
X-00009
X-00034Y00248
X-00039Y00238
X-00044Y00228
X-00049Y00218
X-00044Y00208
X-00054
X-00059Y00198
X-00049
X-00039
X-00029
X-00024Y00188
X-00034
X-00039Y00178
X-00044Y00168
X-00054
X-00059Y00158
X-00049
X-00039
X-00044Y00148
X-00054
X-00014Y00168
X-00019Y00178
Y00218
X-00029
X00036Y00208
X00046
X00051Y00198
X00046Y00188
X00036
Y00148
X00031Y00238
T02
X-000143Y000395
X000073Y000526
X000223Y000641
X0002987Y0006186
X000272Y000777
X000362Y000801
X00043205Y00079605
X000484Y000824
X0005333Y0007938
X00077Y00087789
X000831Y001179
X000774Y00127
X000744Y001425
X00065767Y00142533
X00057133Y00142633
X000485Y001426
X000387Y00136
X000433Y001285
X000491Y001183
X000373Y001048
X00037Y000984
X000185Y001046
X000019Y001011
X-000075Y000984
X-000073Y001206
X000061Y001402
X0000379Y0007927
X-000181Y000832
X0002948Y000058
X000589Y000267
X000712Y00024
X0007816Y0003026
X000765Y000359
X00076003Y00044703
X000916Y000363
X0009081Y0003065
X001027Y000312
X001161Y000304
X001194Y000429
X0011501Y0004755
X0012164Y0005255
X0012139Y0006255
X00126Y000775
X0012584Y0008314
X00139Y000918
X0012454Y0012476
X0011709Y0012478
X0010471Y0014259
X001028Y000496
X000965Y000226
X000848Y000227
X001395Y000221
X001323Y00036
X0014755Y0003072
X001465Y000221
X0015764Y0002606
X001627Y000289
X0016764Y0002452
X001718Y000198
X0019338Y0002218
X00187796Y00031645
X00191Y0004117
X001952Y000456
X00191381Y0005843
X0018817Y0006702
X001867Y000727
X00183098Y0006245
X001661Y000601
Y000711
X001551
Y000601
Y000491
X001661
X001441
Y000601
Y000711
X0014735Y0009219
X0015426Y0009882
X001626Y00094699
X001648Y001137
X001941Y00108
Y000958
X00193Y000832
X0017914Y0008105
X0017931Y0008965
X001925Y001224
X001923Y001302
X0014855Y0013996
X001913Y0000636
X001928Y001471
X001932Y001674
X0016521Y00183164
X001564Y0018652
X0014728Y0018664
X0014679Y0020338
X0015657
X00165646Y00202994
X0019155Y0021408
X0021076Y0022264
X0023152Y0024805
X002134Y002723
X001988Y002727
X0019016Y0026478
X0018997Y0028284
X0017376Y002785
X0016105Y0027708
X0015047Y002753
X0015532Y0028771
X0011594Y0029422
X0008842Y0026828
X0005385Y002547
X0005381Y002437
X-00012Y0024334
X-000121Y002377
X-000216Y0023844
X-000159Y001544
X-000114Y001488
X000879Y001451
X000963Y001491
X0010041Y0016341
X0011564Y0016747
X0012209Y0016746
X0013864Y0018662
T05
X-000067Y000355
Y000509
X-000188Y000967
X-000353
X0004Y00008
X000527
X000654
X000781
X000908
X001035
X001162
X001289
X001416
X001543
X00167
X001797
X00242Y001933
Y00206
X002177Y00292
X00205
T06
X00015Y00015
X00235Y00285
M30
