G04 Layer_Color=8388736*
%FSLAX44Y44*%
%MOMM*%
G71*
G01*
G75*
%ADD76C,1.0032*%
%ADD77R,0.8032X0.6032*%
G04:AMPARAMS|DCode=78|XSize=0.6032mm|YSize=0.8032mm|CornerRadius=0mm|HoleSize=0mm|Usage=FLASHONLY|Rotation=302.000|XOffset=0mm|YOffset=0mm|HoleType=Round|Shape=Rectangle|*
%AMROTATEDRECTD78*
4,1,4,-0.5004,0.0430,0.1807,0.4686,0.5004,-0.0430,-0.1807,-0.4686,-0.5004,0.0430,0.0*
%
%ADD78ROTATEDRECTD78*%

G04:AMPARAMS|DCode=79|XSize=1.2032mm|YSize=1.0032mm|CornerRadius=0mm|HoleSize=0mm|Usage=FLASHONLY|Rotation=302.000|XOffset=0mm|YOffset=0mm|HoleType=Round|Shape=Rectangle|*
%AMROTATEDRECTD79*
4,1,4,-0.7442,0.2444,0.1066,0.7760,0.7442,-0.2444,-0.1066,-0.7760,-0.7442,0.2444,0.0*
%
%ADD79ROTATEDRECTD79*%

%ADD80R,0.6032X0.8032*%
%ADD81R,0.5032X0.5282*%
%ADD82R,0.5282X0.5032*%
%ADD83R,0.4532X0.7032*%
%ADD84R,0.4532X0.4032*%
%ADD85R,2.4032X1.2532*%
%ADD86R,1.2532X1.2032*%
G04:AMPARAMS|DCode=87|XSize=2.0032mm|YSize=0.8032mm|CornerRadius=0.2516mm|HoleSize=0mm|Usage=FLASHONLY|Rotation=180.000|XOffset=0mm|YOffset=0mm|HoleType=Round|Shape=RoundedRectangle|*
%AMROUNDEDRECTD87*
21,1,2.0032,0.3000,0,0,180.0*
21,1,1.5000,0.8032,0,0,180.0*
1,1,0.5032,-0.7500,0.1500*
1,1,0.5032,0.7500,0.1500*
1,1,0.5032,0.7500,-0.1500*
1,1,0.5032,-0.7500,-0.1500*
%
%ADD87ROUNDEDRECTD87*%
G04:AMPARAMS|DCode=88|XSize=2.0032mm|YSize=0.8032mm|CornerRadius=0.2516mm|HoleSize=0mm|Usage=FLASHONLY|Rotation=90.000|XOffset=0mm|YOffset=0mm|HoleType=Round|Shape=RoundedRectangle|*
%AMROUNDEDRECTD88*
21,1,2.0032,0.3000,0,0,90.0*
21,1,1.5000,0.8032,0,0,90.0*
1,1,0.5032,0.1500,0.7500*
1,1,0.5032,0.1500,-0.7500*
1,1,0.5032,-0.1500,-0.7500*
1,1,0.5032,-0.1500,0.7500*
%
%ADD88ROUNDEDRECTD88*%
%ADD89R,1.4532X1.2032*%
%ADD90C,0.4232*%
%ADD91O,1.0532X0.4532*%
%ADD92O,0.4532X1.0532*%
%ADD93R,3.7032X3.7032*%
%ADD94R,1.5532X0.6032*%
%ADD95O,0.8032X1.3032*%
%ADD96C,1.1032*%
%ADD97C,2.4032*%
%ADD98O,1.7532X1.2032*%
%ADD99O,1.1532X1.4532*%
G36*
X47233Y23929D02*
X47364Y23903D01*
X47490Y23860D01*
X47609Y23801D01*
X47720Y23727D01*
X47820Y23639D01*
X47908Y23539D01*
X47982Y23428D01*
X48041Y23309D01*
X48084Y23183D01*
X48109Y23052D01*
X48118Y22919D01*
Y20919D01*
X48109Y20786D01*
X48084Y20656D01*
X48041Y20530D01*
X47982Y20410D01*
X47908Y20300D01*
X47820Y20199D01*
X47468Y19848D01*
X47490Y19841D01*
X47609Y19782D01*
X47720Y19708D01*
X47820Y19620D01*
X47908Y19520D01*
X47982Y19409D01*
X48041Y19290D01*
X48084Y19164D01*
X48109Y19033D01*
X48118Y18900D01*
Y14900D01*
X48109Y14767D01*
X48084Y14636D01*
X48041Y14510D01*
X47982Y14391D01*
X47908Y14280D01*
X47820Y14180D01*
X47720Y14092D01*
X47609Y14018D01*
X47490Y13959D01*
X47364Y13916D01*
X47233Y13891D01*
X47100Y13882D01*
X43100D01*
X42967Y13891D01*
X42836Y13916D01*
X42710Y13959D01*
X42591Y14018D01*
X42480Y14092D01*
X42380Y14180D01*
X42292Y14280D01*
X42218Y14391D01*
X42159Y14510D01*
X42116Y14636D01*
X42091Y14767D01*
X42082Y14900D01*
Y18900D01*
X42091Y19033D01*
X42116Y19164D01*
X42159Y19290D01*
X42218Y19409D01*
X42292Y19520D01*
X42380Y19620D01*
X42480Y19708D01*
X42591Y19782D01*
X42710Y19841D01*
X42732Y19848D01*
X42380Y20199D01*
X42292Y20300D01*
X42218Y20410D01*
X42159Y20530D01*
X42116Y20656D01*
X42091Y20786D01*
X42082Y20919D01*
Y22919D01*
X42091Y23052D01*
X42116Y23183D01*
X42159Y23309D01*
X42218Y23428D01*
X42292Y23539D01*
X42380Y23639D01*
X42480Y23727D01*
X42591Y23801D01*
X42710Y23860D01*
X42836Y23903D01*
X42967Y23929D01*
X43100Y23938D01*
X47100D01*
X47233Y23929D01*
D02*
G37*
G36*
X69733Y23809D02*
X69864Y23784D01*
X69990Y23741D01*
X70109Y23682D01*
X70220Y23608D01*
X70320Y23520D01*
X70408Y23420D01*
X70482Y23309D01*
X70541Y23190D01*
X70584Y23063D01*
X70609Y22933D01*
X70618Y22800D01*
Y18800D01*
X70609Y18667D01*
X70584Y18536D01*
X70541Y18410D01*
X70482Y18291D01*
X70408Y18180D01*
X70320Y18080D01*
X70220Y17992D01*
X70109Y17918D01*
X69990Y17859D01*
X69968Y17852D01*
X70320Y17501D01*
X70408Y17400D01*
X70482Y17290D01*
X70541Y17170D01*
X70584Y17044D01*
X70609Y16913D01*
X70618Y16781D01*
Y14781D01*
X70609Y14648D01*
X70584Y14517D01*
X70541Y14391D01*
X70482Y14272D01*
X70408Y14161D01*
X70320Y14061D01*
X70220Y13973D01*
X70109Y13899D01*
X69990Y13840D01*
X69864Y13797D01*
X69733Y13771D01*
X69600Y13762D01*
X65600D01*
X65467Y13771D01*
X65336Y13797D01*
X65210Y13840D01*
X65091Y13899D01*
X64980Y13973D01*
X64880Y14061D01*
X64792Y14161D01*
X64718Y14272D01*
X64659Y14391D01*
X64616Y14517D01*
X64591Y14648D01*
X64582Y14781D01*
Y16781D01*
X64591Y16913D01*
X64616Y17044D01*
X64659Y17170D01*
X64718Y17290D01*
X64792Y17400D01*
X64880Y17501D01*
X65232Y17852D01*
X65210Y17859D01*
X65091Y17918D01*
X64980Y17992D01*
X64880Y18080D01*
X64792Y18180D01*
X64718Y18291D01*
X64659Y18410D01*
X64616Y18536D01*
X64591Y18667D01*
X64582Y18800D01*
Y22800D01*
X64591Y22933D01*
X64616Y23063D01*
X64659Y23190D01*
X64718Y23309D01*
X64792Y23420D01*
X64880Y23520D01*
X64980Y23608D01*
X65091Y23682D01*
X65210Y23741D01*
X65336Y23784D01*
X65467Y23809D01*
X65600Y23818D01*
X69600D01*
X69733Y23809D01*
D02*
G37*
G36*
X68123Y84679D02*
X68254Y84654D01*
X68380Y84611D01*
X68499Y84552D01*
X68610Y84478D01*
X68710Y84390D01*
X68798Y84290D01*
X68872Y84179D01*
X68931Y84060D01*
X68973Y83933D01*
X69000Y83803D01*
X69008Y83670D01*
Y79670D01*
X69000Y79537D01*
X68973Y79406D01*
X68931Y79280D01*
X68872Y79161D01*
X68798Y79050D01*
X68710Y78950D01*
X68610Y78862D01*
X68499Y78788D01*
X68380Y78729D01*
X68254Y78686D01*
X68123Y78660D01*
X67990Y78652D01*
X63990D01*
X63857Y78660D01*
X63727Y78686D01*
X63600Y78729D01*
X63481Y78788D01*
X63370Y78862D01*
X63270Y78950D01*
X63182Y79050D01*
X63108Y79161D01*
X63049Y79280D01*
X63042Y79302D01*
X62691Y78950D01*
X62590Y78862D01*
X62480Y78788D01*
X62360Y78729D01*
X62234Y78686D01*
X62104Y78660D01*
X61971Y78652D01*
X59971D01*
X59838Y78660D01*
X59707Y78686D01*
X59581Y78729D01*
X59461Y78788D01*
X59351Y78862D01*
X59251Y78950D01*
X59163Y79050D01*
X59089Y79161D01*
X59030Y79280D01*
X58987Y79406D01*
X58961Y79537D01*
X58952Y79670D01*
Y83670D01*
X58961Y83803D01*
X58987Y83933D01*
X59030Y84060D01*
X59089Y84179D01*
X59163Y84290D01*
X59251Y84390D01*
X59351Y84478D01*
X59461Y84552D01*
X59581Y84611D01*
X59707Y84654D01*
X59838Y84679D01*
X59971Y84688D01*
X61971D01*
X62104Y84679D01*
X62234Y84654D01*
X62360Y84611D01*
X62480Y84552D01*
X62590Y84478D01*
X62691Y84390D01*
X63042Y84038D01*
X63049Y84060D01*
X63108Y84179D01*
X63182Y84290D01*
X63270Y84390D01*
X63370Y84478D01*
X63481Y84552D01*
X63600Y84611D01*
X63727Y84654D01*
X63857Y84679D01*
X63990Y84688D01*
X67990D01*
X68123Y84679D01*
D02*
G37*
G36*
X205833Y281509D02*
X205963Y281483D01*
X206090Y281441D01*
X206209Y281382D01*
X206320Y281308D01*
X206420Y281220D01*
X206508Y281120D01*
X206582Y281009D01*
X206641Y280890D01*
X206684Y280763D01*
X206709Y280633D01*
X206718Y280500D01*
Y276500D01*
X206709Y276367D01*
X206684Y276236D01*
X206641Y276110D01*
X206582Y275991D01*
X206508Y275880D01*
X206420Y275780D01*
X206320Y275692D01*
X206209Y275618D01*
X206090Y275559D01*
X205963Y275516D01*
X205833Y275490D01*
X205700Y275482D01*
X201700D01*
X201567Y275490D01*
X201437Y275516D01*
X201310Y275559D01*
X201191Y275618D01*
X201080Y275692D01*
X200980Y275780D01*
X200892Y275880D01*
X200818Y275991D01*
X200759Y276110D01*
X200752Y276132D01*
X200401Y275780D01*
X200300Y275692D01*
X200190Y275618D01*
X200070Y275559D01*
X199944Y275516D01*
X199813Y275490D01*
X199681Y275482D01*
X197681D01*
X197548Y275490D01*
X197417Y275516D01*
X197291Y275559D01*
X197171Y275618D01*
X197061Y275692D01*
X196961Y275780D01*
X196873Y275880D01*
X196799Y275991D01*
X196740Y276110D01*
X196697Y276236D01*
X196671Y276367D01*
X196662Y276500D01*
Y280500D01*
X196671Y280633D01*
X196697Y280763D01*
X196740Y280890D01*
X196799Y281009D01*
X196873Y281120D01*
X196961Y281220D01*
X197061Y281308D01*
X197171Y281382D01*
X197291Y281441D01*
X197417Y281483D01*
X197548Y281509D01*
X197681Y281518D01*
X199681D01*
X199813Y281509D01*
X199944Y281483D01*
X200070Y281441D01*
X200190Y281382D01*
X200300Y281308D01*
X200401Y281220D01*
X200752Y280868D01*
X200759Y280890D01*
X200818Y281009D01*
X200892Y281120D01*
X200980Y281220D01*
X201080Y281308D01*
X201191Y281382D01*
X201310Y281441D01*
X201437Y281483D01*
X201567Y281509D01*
X201700Y281518D01*
X205700D01*
X205833Y281509D01*
D02*
G37*
G36*
Y269410D02*
X205963Y269384D01*
X206090Y269341D01*
X206209Y269282D01*
X206320Y269208D01*
X206420Y269120D01*
X206508Y269020D01*
X206582Y268909D01*
X206641Y268790D01*
X206684Y268664D01*
X206709Y268533D01*
X206718Y268400D01*
Y264400D01*
X206709Y264267D01*
X206684Y264137D01*
X206641Y264010D01*
X206582Y263891D01*
X206508Y263780D01*
X206420Y263680D01*
X206320Y263592D01*
X206209Y263518D01*
X206090Y263459D01*
X205963Y263417D01*
X205833Y263391D01*
X205700Y263382D01*
X201700D01*
X201567Y263391D01*
X201437Y263417D01*
X201310Y263459D01*
X201191Y263518D01*
X201080Y263592D01*
X200980Y263680D01*
X200892Y263780D01*
X200818Y263891D01*
X200759Y264010D01*
X200752Y264032D01*
X200401Y263680D01*
X200300Y263592D01*
X200190Y263518D01*
X200070Y263459D01*
X199944Y263417D01*
X199813Y263391D01*
X199681Y263382D01*
X197681D01*
X197548Y263391D01*
X197417Y263417D01*
X197291Y263459D01*
X197171Y263518D01*
X197061Y263592D01*
X196961Y263680D01*
X196873Y263780D01*
X196799Y263891D01*
X196740Y264010D01*
X196697Y264137D01*
X196671Y264267D01*
X196662Y264400D01*
Y268400D01*
X196671Y268533D01*
X196697Y268664D01*
X196740Y268790D01*
X196799Y268909D01*
X196873Y269020D01*
X196961Y269120D01*
X197061Y269208D01*
X197171Y269282D01*
X197291Y269341D01*
X197417Y269384D01*
X197548Y269410D01*
X197681Y269418D01*
X199681D01*
X199813Y269410D01*
X199944Y269384D01*
X200070Y269341D01*
X200190Y269282D01*
X200300Y269208D01*
X200401Y269120D01*
X200752Y268768D01*
X200759Y268790D01*
X200818Y268909D01*
X200892Y269020D01*
X200980Y269120D01*
X201080Y269208D01*
X201191Y269282D01*
X201310Y269341D01*
X201437Y269384D01*
X201567Y269410D01*
X201700Y269418D01*
X205700D01*
X205833Y269410D01*
D02*
G37*
D76*
X-9900Y133400D02*
D03*
X-6100Y146200D02*
D03*
X-3879Y159951D02*
D03*
D77*
X13000Y80700D02*
D03*
Y72700D02*
D03*
X34200Y18900D02*
D03*
Y26900D02*
D03*
X-7300Y114200D02*
D03*
Y106200D02*
D03*
X67000Y61000D02*
D03*
Y69000D02*
D03*
X103510Y26600D02*
D03*
Y18600D02*
D03*
X90810Y26600D02*
D03*
Y18600D02*
D03*
X78150Y26600D02*
D03*
Y18600D02*
D03*
X189700Y293300D02*
D03*
Y285300D02*
D03*
X48000Y31200D02*
D03*
Y39200D02*
D03*
X116100Y26600D02*
D03*
Y18600D02*
D03*
X-35700Y204240D02*
D03*
Y212240D02*
D03*
X-2600Y250040D02*
D03*
Y242040D02*
D03*
X-35800Y225240D02*
D03*
Y233240D02*
D03*
X-21600Y245140D02*
D03*
Y253140D02*
D03*
X27900Y90600D02*
D03*
Y98600D02*
D03*
X129800Y18900D02*
D03*
Y26900D02*
D03*
D78*
X-31820Y75792D02*
D03*
X-27580Y69008D02*
D03*
D79*
X-26100Y39500D02*
D03*
X-39348Y60701D02*
D03*
D80*
X154500Y19400D02*
D03*
X162500D02*
D03*
X183310Y96710D02*
D03*
X175310D02*
D03*
X86370Y77680D02*
D03*
X94370D02*
D03*
X86420Y62590D02*
D03*
X94420D02*
D03*
X19800Y49200D02*
D03*
X27800D02*
D03*
X64300Y47900D02*
D03*
X72300D02*
D03*
X-3100Y186800D02*
D03*
X-11100D02*
D03*
X6500Y96800D02*
D03*
X14500D02*
D03*
X68700Y34900D02*
D03*
X60700D02*
D03*
D81*
X43205Y73905D02*
D03*
X48205D02*
D03*
Y58655D02*
D03*
X43205D02*
D03*
D82*
X53330Y73780D02*
D03*
Y68780D02*
D03*
Y63780D02*
D03*
Y58780D02*
D03*
X38080D02*
D03*
Y63780D02*
D03*
Y68780D02*
D03*
Y73780D02*
D03*
D83*
X165000Y291200D02*
D03*
X34200Y37300D02*
D03*
X52500Y18900D02*
D03*
D84*
X171500Y289200D02*
D03*
Y293200D02*
D03*
X27700Y35300D02*
D03*
Y39300D02*
D03*
X59000Y20900D02*
D03*
Y16900D02*
D03*
D85*
X227650Y258550D02*
D03*
Y229050D02*
D03*
D86*
X212400Y243800D02*
D03*
D87*
X21000Y254800D02*
D03*
Y243800D02*
D03*
Y232800D02*
D03*
Y221800D02*
D03*
Y210800D02*
D03*
Y199800D02*
D03*
Y188800D02*
D03*
Y177800D02*
D03*
Y166800D02*
D03*
Y155800D02*
D03*
Y144800D02*
D03*
Y133800D02*
D03*
X178000D02*
D03*
Y144800D02*
D03*
Y155800D02*
D03*
Y166800D02*
D03*
Y177800D02*
D03*
Y188800D02*
D03*
Y199800D02*
D03*
Y210800D02*
D03*
Y221800D02*
D03*
Y232800D02*
D03*
Y243800D02*
D03*
Y254800D02*
D03*
D88*
X55500Y106300D02*
D03*
X66500D02*
D03*
X77500D02*
D03*
X88500D02*
D03*
X99500D02*
D03*
X110500D02*
D03*
X121500D02*
D03*
X132500D02*
D03*
X143500D02*
D03*
Y282300D02*
D03*
X132500D02*
D03*
X121500D02*
D03*
X110500D02*
D03*
X99500D02*
D03*
X88500D02*
D03*
X77500D02*
D03*
X66500D02*
D03*
X55500D02*
D03*
D89*
X110990Y62540D02*
D03*
Y77540D02*
D03*
D90*
X91500Y40500D02*
D03*
Y44500D02*
D03*
X95500Y40500D02*
D03*
Y44500D02*
D03*
X99500Y40500D02*
D03*
Y44500D02*
D03*
X103500Y40500D02*
D03*
Y44500D02*
D03*
D91*
X131100Y77600D02*
D03*
Y72600D02*
D03*
Y67600D02*
D03*
Y62600D02*
D03*
Y57600D02*
D03*
Y52600D02*
D03*
Y47600D02*
D03*
Y42600D02*
D03*
X179100D02*
D03*
Y47600D02*
D03*
Y52600D02*
D03*
Y57600D02*
D03*
Y62600D02*
D03*
Y67600D02*
D03*
Y72600D02*
D03*
Y77600D02*
D03*
D92*
X137600Y36100D02*
D03*
X142600D02*
D03*
X147600D02*
D03*
X152600D02*
D03*
X157600D02*
D03*
X162600D02*
D03*
X167600D02*
D03*
X172600D02*
D03*
Y84100D02*
D03*
X167600D02*
D03*
X162600D02*
D03*
X157600D02*
D03*
X152600D02*
D03*
X147600D02*
D03*
X142600D02*
D03*
X137600D02*
D03*
D93*
X155100Y60100D02*
D03*
D94*
X-27900Y135800D02*
D03*
Y142300D02*
D03*
Y148800D02*
D03*
Y155300D02*
D03*
Y161800D02*
D03*
D95*
X-2500Y229040D02*
D03*
X-12000D02*
D03*
X-21500D02*
D03*
X-2500Y203040D02*
D03*
X-12000D02*
D03*
X-21500D02*
D03*
D96*
X-6700Y35500D02*
D03*
Y50900D02*
D03*
X40000Y8000D02*
D03*
X179700D02*
D03*
X167000D02*
D03*
X154300D02*
D03*
X116200D02*
D03*
X217700Y292000D02*
D03*
X242000Y206000D02*
D03*
X141600Y8000D02*
D03*
X205000Y292000D02*
D03*
X242000Y193300D02*
D03*
X128900Y8000D02*
D03*
X103500D02*
D03*
X90800D02*
D03*
X78100D02*
D03*
X52700D02*
D03*
X65400D02*
D03*
X-18800Y96700D02*
D03*
X-35300D02*
D03*
D97*
X235000Y285000D02*
D03*
X15000Y15000D02*
D03*
D98*
X-54900Y113800D02*
D03*
Y183800D02*
D03*
D99*
X-27900Y123800D02*
D03*
Y173800D02*
D03*
M02*
