G04*
G04 #@! TF.GenerationSoftware,Altium Limited,Altium Designer,18.1.1 (9)*
G04*
G04 Layer_Color=128*
%FSLAX44Y44*%
%MOMM*%
G71*
G01*
G75*
%ADD16R,0.2000X0.2000*%
%ADD19R,0.6000X0.4000*%
%ADD20R,0.4000X0.6000*%
%ADD36R,0.2000X0.2000*%
%ADD80R,0.5000X0.2500*%
%ADD81R,0.2000X0.2500*%
%ADD82R,1.0000X1.8000*%
%ADD83R,0.3000X0.5000*%
%ADD84R,2.1500X1.2500*%
%ADD85R,0.4000X0.5000*%
%ADD86P,0.2828X4X180.0*%
%ADD87C,0.2500*%
G04:AMPARAMS|DCode=88|XSize=0.45mm|YSize=0.23mm|CornerRadius=0mm|HoleSize=0mm|Usage=FLASHONLY|Rotation=180.000|XOffset=0mm|YOffset=0mm|HoleType=Round|Shape=Octagon|*
%AMOCTAGOND88*
4,1,8,-0.2250,0.0575,-0.2250,-0.0575,-0.1675,-0.1150,0.1675,-0.1150,0.2250,-0.0575,0.2250,0.0575,0.1675,0.1150,-0.1675,0.1150,-0.2250,0.0575,0.0*
%
%ADD88OCTAGOND88*%

%ADD89R,0.8500X0.7500*%
%ADD90R,1.5000X1.0000*%
%ADD91O,0.2500X0.9000*%
%ADD92O,0.9000X0.2500*%
%ADD93R,4.2000X3.4000*%
%ADD94O,0.6000X0.9500*%
%ADD95R,3.0000X2.0000*%
%ADD96R,1.1000X1.6500*%
%ADD97R,1.1000X1.0000*%
%ADD98R,1.0000X1.8000*%
%ADD99R,1.0000X0.8000*%
%ADD100R,0.6000X0.6000*%
G36*
X-16200Y56781D02*
X-20200D01*
Y60781D01*
X-18200Y58781D01*
X-16200Y60781D01*
Y56781D01*
D02*
G37*
G36*
X58800Y19000D02*
X60800Y17000D01*
X56800D01*
Y21000D01*
X60800D01*
X58800Y19000D01*
D02*
G37*
G36*
X-16100Y73681D02*
X-18100Y75681D01*
X-20100Y73681D01*
Y77681D01*
X-16100D01*
Y73681D01*
D02*
G37*
G36*
X89900Y134180D02*
X85900D01*
Y138180D01*
X87900Y136180D01*
X89900Y138180D01*
Y134180D01*
D02*
G37*
G36*
X50500Y151400D02*
X48500Y153400D01*
X46500Y151400D01*
Y155400D01*
X50500D01*
Y151400D01*
D02*
G37*
G36*
X59133D02*
X57133Y153400D01*
X55133Y151400D01*
Y155400D01*
X59133D01*
Y151400D01*
D02*
G37*
G36*
X67767D02*
X65767Y153400D01*
X63767Y151400D01*
Y155400D01*
X67767D01*
Y151400D01*
D02*
G37*
G36*
X76400D02*
X74400Y153400D01*
X72400Y151400D01*
Y155400D01*
X76400D01*
Y151400D01*
D02*
G37*
G36*
X97300Y134180D02*
X93300D01*
Y138180D01*
X95300Y136180D01*
X97300Y138180D01*
Y134180D01*
D02*
G37*
G36*
X140640Y193390D02*
X138640Y195390D01*
X136640Y193390D01*
Y197390D01*
X140640D01*
Y193390D01*
D02*
G37*
G36*
X149280D02*
X147280Y195390D01*
X145280Y193390D01*
Y197390D01*
X149280D01*
Y193390D01*
D02*
G37*
G36*
X158400D02*
X156400Y195390D01*
X154400Y193390D01*
Y197390D01*
X158400D01*
Y193390D01*
D02*
G37*
G36*
X167210D02*
X165210Y195390D01*
X163210Y193390D01*
Y197390D01*
X167210D01*
Y193390D01*
D02*
G37*
G36*
X193800Y251900D02*
X191800Y253900D01*
X189800Y251900D01*
Y255900D01*
X193800D01*
Y251900D01*
D02*
G37*
G36*
X214290Y222640D02*
X216290Y220640D01*
X212290D01*
Y224640D01*
X216290D01*
X214290Y222640D01*
D02*
G37*
G36*
X198584Y221114D02*
X201413D01*
X198584Y218286D01*
X195756Y221114D01*
X198584Y223943D01*
Y221114D01*
D02*
G37*
G36*
X231230Y213592D02*
X227230D01*
X229230Y215592D01*
X227230Y217592D01*
X231230D01*
Y213592D01*
D02*
G37*
D16*
X-18100Y71161D02*
D03*
Y76681D02*
D03*
X-18200Y63300D02*
D03*
Y57781D02*
D03*
X95300Y140700D02*
D03*
Y135180D02*
D03*
X87900Y140700D02*
D03*
Y135180D02*
D03*
X48500Y148880D02*
D03*
Y154400D02*
D03*
X138640Y190870D02*
D03*
Y196390D02*
D03*
X57133Y148880D02*
D03*
Y154400D02*
D03*
X74400Y148880D02*
D03*
Y154400D02*
D03*
X65767Y148880D02*
D03*
Y154400D02*
D03*
X147280Y190870D02*
D03*
Y196390D02*
D03*
X156400Y190870D02*
D03*
Y196390D02*
D03*
X165210Y190870D02*
D03*
Y196390D02*
D03*
X191800Y249380D02*
D03*
Y254900D02*
D03*
D19*
X178400Y26000D02*
D03*
Y34000D02*
D03*
X19200Y99200D02*
D03*
Y107200D02*
D03*
X189970Y268950D02*
D03*
Y276950D02*
D03*
X133430Y81050D02*
D03*
Y72050D02*
D03*
X132700Y106600D02*
D03*
Y97600D02*
D03*
X230200Y206000D02*
D03*
Y198000D02*
D03*
X113150Y92550D02*
D03*
Y100550D02*
D03*
X113000Y76400D02*
D03*
Y68400D02*
D03*
X178000Y54000D02*
D03*
Y46000D02*
D03*
X147600Y98200D02*
D03*
Y106200D02*
D03*
X177710Y74800D02*
D03*
Y66800D02*
D03*
X-6300Y75900D02*
D03*
Y67900D02*
D03*
D20*
X159510Y82380D02*
D03*
X151510D02*
D03*
X141980Y283980D02*
D03*
X133980D02*
D03*
X95800Y22100D02*
D03*
X87800D02*
D03*
X7400Y58200D02*
D03*
X15400D02*
D03*
X160200Y65900D02*
D03*
X152200D02*
D03*
D36*
X57800Y19000D02*
D03*
X63320D02*
D03*
X218810Y222640D02*
D03*
X213290D02*
D03*
X224710Y215592D02*
D03*
X230230D02*
D03*
D80*
X30000Y98300D02*
D03*
D81*
X28000Y104800D02*
D03*
X32000D02*
D03*
D82*
X7600Y123500D02*
D03*
X32600D02*
D03*
D83*
X7300Y90700D02*
D03*
X12300D02*
D03*
X17300D02*
D03*
X22300D02*
D03*
X27300D02*
D03*
X7300Y68100D02*
D03*
X12300D02*
D03*
X17300D02*
D03*
X22300D02*
D03*
X27300D02*
D03*
D84*
X17300Y79400D02*
D03*
D85*
X72200Y137900D02*
D03*
X65700D02*
D03*
X59200D02*
D03*
Y118900D02*
D03*
X65700D02*
D03*
X72200D02*
D03*
D86*
X201780Y224310D02*
D03*
X197877Y220407D02*
D03*
D87*
X214550Y205950D02*
D03*
D88*
X210400Y209200D02*
D03*
Y202700D02*
D03*
X218700Y209200D02*
D03*
Y202700D02*
D03*
D89*
X185480Y97680D02*
D03*
Y108180D02*
D03*
X171980D02*
D03*
Y97680D02*
D03*
D90*
X127090Y145090D02*
D03*
D91*
X117090Y133590D02*
D03*
X122090D02*
D03*
X127090D02*
D03*
X132090D02*
D03*
X137090D02*
D03*
Y156590D02*
D03*
X132090D02*
D03*
X127090D02*
D03*
X122090D02*
D03*
X117090D02*
D03*
D92*
X141090Y142590D02*
D03*
Y147590D02*
D03*
X113090D02*
D03*
Y142590D02*
D03*
D93*
X154700Y241960D02*
D03*
D94*
X173750Y270710D02*
D03*
X161050D02*
D03*
X148350D02*
D03*
X135650D02*
D03*
Y213210D02*
D03*
X148350D02*
D03*
X161050D02*
D03*
X173750D02*
D03*
D95*
X57400Y97400D02*
D03*
Y37400D02*
D03*
D96*
X240340Y258760D02*
D03*
X207340D02*
D03*
X240460Y237620D02*
D03*
X207460D02*
D03*
D97*
X43260Y171820D02*
D03*
X79660D02*
D03*
D98*
X10460Y283070D02*
D03*
Y211070D02*
D03*
X112460D02*
D03*
Y283070D02*
D03*
D99*
X12460Y230570D02*
D03*
Y242570D02*
D03*
Y254570D02*
D03*
X110460D02*
D03*
Y242570D02*
D03*
Y230570D02*
D03*
D100*
X28300Y39300D02*
D03*
X6300D02*
D03*
M02*
