G04 Layer_Color=32896*
%FSLAX44Y44*%
%MOMM*%
G71*
G01*
G75*
%ADD34C,0.2000*%
%ADD38C,0.2500*%
%ADD39C,0.1200*%
%ADD69C,0.1500*%
%ADD70C,0.1000*%
%ADD71C,0.0800*%
D34*
X181700Y241610D02*
Y273960D01*
X179750D02*
X181700D01*
X127700D02*
X129650D01*
X127700Y241610D02*
Y273960D01*
Y209960D02*
Y242310D01*
Y209960D02*
X129650D01*
X181700D02*
Y242310D01*
X179750Y209960D02*
X181700D01*
X110090Y130590D02*
Y137340D01*
Y130590D02*
X111840D01*
X142340D02*
X144090D01*
Y137340D01*
Y152840D02*
Y159590D01*
X142340D02*
X144090D01*
X110090Y152840D02*
Y159590D01*
X111840D01*
X32300Y65900D02*
Y69600D01*
Y89200D02*
Y92900D01*
X2300Y65900D02*
Y69600D01*
Y89200D02*
Y92900D01*
D38*
X186950Y206960D02*
G03*
X186950Y206960I-1250J0D01*
G01*
X104840Y132090D02*
G03*
X104840Y132090I-1250J0D01*
G01*
D39*
X19400Y53200D02*
Y63200D01*
X3400Y53200D02*
X19400D01*
X3400D02*
Y63200D01*
X19400D01*
X83800Y17100D02*
Y27100D01*
X99800D01*
Y17100D02*
Y27100D01*
X83800Y17100D02*
X99800D01*
X164980Y91680D02*
X191980D01*
Y114680D01*
X164980D02*
X191980D01*
X164980Y91680D02*
Y114680D01*
X127700Y93600D02*
Y110600D01*
Y93600D02*
X137700D01*
X127700Y110600D02*
X137700D01*
Y93600D02*
Y110600D01*
X128430Y68050D02*
Y85050D01*
Y68050D02*
X138430D01*
X128430Y85050D02*
X138430D01*
Y68050D02*
Y85050D01*
X184970Y280950D02*
X194970D01*
Y264950D02*
Y280950D01*
X184970Y264950D02*
X194970D01*
X184970D02*
Y280950D01*
X24200Y95200D02*
Y111200D01*
X14200D02*
X24200D01*
X14200Y95200D02*
Y111200D01*
Y95200D02*
X24200D01*
X183400Y22000D02*
Y38000D01*
X173400D02*
X183400D01*
X173400Y22000D02*
Y38000D01*
Y22000D02*
X183400D01*
X545Y31399D02*
X-2400Y28453D01*
X-3578D01*
X-4756Y29632D01*
Y30810D01*
X-1811Y33755D01*
X-2989Y34933D02*
X-6524Y31399D01*
Y33755D01*
X-8880Y33755D01*
X-5345Y37289D01*
X-6524Y38467D02*
X-10058Y34933D01*
X-11825Y36700D01*
Y37878D01*
X-11236Y38467D01*
X-10058D01*
X-8291Y36700D01*
X-10058Y38467D01*
Y39646D01*
X-9469Y40235D01*
X-8291D01*
X-6524Y38467D01*
X-14181Y37878D02*
X-16537Y40235D01*
X-17127Y42002D02*
X-13592Y45536D01*
X-15359Y47303D01*
X-16537Y47303D01*
X-17716Y46125D01*
Y44947D01*
X-15948Y43180D01*
X-17127Y49071D02*
X-20661Y45536D01*
X-22428Y47303D01*
Y48481D01*
X-21839Y49071D01*
X-20661D01*
X-18894Y47303D01*
X-20661Y49071D01*
Y50249D01*
X-20072Y50838D01*
X-18894D01*
X-17127Y49071D01*
X-24784Y48481D02*
X-27141Y50838D01*
X-24784Y55550D02*
X-24784Y56728D01*
X-25963Y57906D01*
X-27141Y57906D01*
X-29497Y55550D01*
Y54372D01*
X-28319Y53194D01*
X-27141D01*
X-24784Y55550D01*
X-31264Y56139D02*
X-32442Y57317D01*
X-31853Y56728D01*
X-28319Y60263D01*
X-28319Y59085D01*
X-10080Y21055D02*
X-7723Y23411D01*
X-6545Y23411D01*
X-5367Y22233D01*
X-5367Y21055D01*
X-7723Y18699D01*
X-8902D01*
X-10080Y19877D01*
X-8313Y20466D02*
X-10669Y20466D01*
X-10080Y19877D02*
Y21055D01*
X-8902Y24589D02*
X-8902Y25767D01*
X-10080Y26946D01*
X-11258D01*
X-11847Y26356D01*
Y25178D01*
X-11258Y24589D01*
X-11847Y25178D01*
X-13025D01*
X-13614Y24589D01*
Y23411D01*
X-12436Y22233D01*
X-11258D01*
X-21272Y31069D02*
X-18916Y28713D01*
Y33425D01*
X-18327Y34014D01*
X-17148Y34014D01*
X-15970Y32836D01*
X-15970Y31658D01*
X-19505Y35192D02*
X-19505Y36370D01*
X-20683Y37549D01*
X-21861Y37549D01*
X-24217Y35192D01*
Y34014D01*
X-23039Y32836D01*
X-21861D01*
X-19505Y35192D01*
X-28341Y38138D02*
X-25984Y35782D01*
Y40494D01*
X-25395Y41083D01*
X-24217D01*
X-23039Y39905D01*
X-23039Y38727D01*
X-26574Y42261D02*
Y43439D01*
X-27752Y44617D01*
X-28930Y44617D01*
X-31286Y42261D01*
Y41083D01*
X-30108Y39905D01*
X-28930D01*
X-26574Y42261D01*
D69*
X206700Y199700D02*
G03*
X206700Y199700I-1000J0D01*
G01*
X77700Y117900D02*
G03*
X77700Y117900I-500J0D01*
G01*
X-12300Y62900D02*
X-300D01*
X-12300D02*
Y80900D01*
X-300D01*
Y62900D02*
Y80900D01*
X12460Y175570D02*
Y198570D01*
Y175570D02*
X34460D01*
X88460D02*
X110460D01*
X111460D01*
Y198570D01*
X110460Y295570D02*
Y298570D01*
X12460D02*
X110460D01*
X12460Y295570D02*
Y298570D01*
X219460Y229620D02*
Y245620D01*
X217460D02*
X219460D01*
X217460Y229620D02*
Y245620D01*
X215460D02*
X232460D01*
X215460Y229620D02*
X232460D01*
X219340Y250760D02*
Y266760D01*
X217340D02*
X219340D01*
X217340Y250760D02*
Y266760D01*
X215340D02*
X232340D01*
X215340Y250760D02*
X232340D01*
X128980Y277980D02*
Y289980D01*
X146980D01*
Y277980D02*
Y289980D01*
X128980Y277980D02*
X146980D01*
X35400Y82400D02*
X77400D01*
X35400D02*
Y83400D01*
X78400Y32400D02*
Y102400D01*
X36400Y105400D02*
Y111400D01*
X33400Y108400D02*
X39400D01*
X35400Y32400D02*
Y102400D01*
X75400D02*
X78400D01*
X35400D02*
X39400D01*
X35400Y32400D02*
X39400D01*
X75400D02*
X78400D01*
X171710Y61800D02*
X183710D01*
X171710D02*
Y79800D01*
X183710D01*
Y61800D02*
Y79800D01*
X146510Y76380D02*
Y88380D01*
X164510D01*
Y76380D02*
Y88380D01*
X146510Y76380D02*
X164510D01*
X141600Y111200D02*
X153600D01*
Y93200D02*
Y111200D01*
X141600Y93200D02*
X153600D01*
X141600D02*
Y111200D01*
X171710Y39870D02*
X183710D01*
X171710D02*
Y57870D01*
X183710D01*
Y39870D02*
Y57870D01*
X107000Y63400D02*
X119000D01*
X107000D02*
Y81400D01*
X119000D01*
Y63400D02*
Y81400D01*
X107150Y105550D02*
X119150D01*
Y87550D02*
Y105550D01*
X107150Y87550D02*
X119150D01*
X107150D02*
Y105550D01*
X209700Y212700D02*
X219700D01*
X209700Y198700D02*
X219700D01*
X224200Y193000D02*
X236200D01*
X224200D02*
Y211000D01*
X236200D01*
Y193000D02*
Y211000D01*
X56200Y123900D02*
Y132900D01*
X75200Y123900D02*
Y132900D01*
X15600Y130500D02*
X24600D01*
X15600Y116500D02*
X24600D01*
D70*
X2800Y96900D02*
G03*
X2800Y96900I-500J0D01*
G01*
D71*
X25000Y95300D02*
X35000D01*
Y108300D01*
X25000D02*
X35000D01*
X25000Y95300D02*
Y108300D01*
M02*
