M48
;Layer_Color=9474304
;FILE_FORMAT=4:4
METRIC,LZ
;TYPE=PLATED
T1F00S00C0.2000
T4F00S00C0.6000
T5F00S00C2.2000
%
T01
X-000143Y000395
X000073Y000526
X000223Y000641
X0002987Y0006186
X000272Y000777
X000362Y000801
X00043205Y000788
X0005333Y0007938
X00077Y00087789
X000831Y001179
X000774Y00127
X000744Y001425
X00065767Y00142533
X00057133Y00142633
X000485Y001426
X000387Y00136
X000433Y001285
X000491Y001183
X000373Y001048
X00037Y000984
X000223Y001121
X-000073Y001206
X-000075Y000984
X-000181Y000832
X0000379Y0007927
X000061Y001402
X0010471Y0014259
X0011709Y0012478
X0012454Y0012476
X0012584Y0008314
X00126Y000775
X0012139Y0006255
X0012164Y0005255
X0011501Y0004755
X001194Y000429
X001161Y000304
X001027Y000312
X0009081Y0003065
X0007816Y0003026
X000765Y000359
X00076003Y00044703
X000718Y0002405
X000848Y000227
X000965Y000226
X0010092Y0004947
X001323Y00036
X001395Y000221
X00139Y000918
X000589Y000267
X0002948Y000058
X001465Y000221
X0014755Y0003072
X0015764Y0002606
X001627Y000289
X0016764Y0002452
X001718Y000198
X0019338Y0002218
X00187796Y00031645
X00191Y0004117
X001952Y000456
X001905Y000588
X0018817Y0006702
X001867Y000727
X0017914Y0008105
X0017931Y0008965
X00193Y000832
X001941Y000958
Y00108
X001925Y001224
X001923Y001302
X001648Y001137
X001626Y00094699
X0015426Y0009882
X0014735Y0009219
X001441Y000711
Y000601
Y000491
X001551
X001661
Y000601
X001551
Y000711
X001661
X0014855Y0013996
X001913Y0000636
X001928Y001471
X001932Y001674
X0016521Y00183164
X001564Y0018652
X0014728Y0018664
X0014679Y0020338
X0015657
X00165646Y00202994
X0019155Y0021408
X0021076Y0022264
X00198Y002483
X0019016Y0026478
X001988Y002727
X002134Y002723
X0018997Y0028284
X0017376Y002785
X0016105Y0027708
X0015047Y002753
X0015532Y0028771
X0023152Y0024805
X0013864Y0018662
X0012209Y0016746
X0011564Y0016747
X0010041Y0016341
X000963Y001491
X000879Y001451
X-000114Y001488
X-000159Y001544
X-000121Y002377
X-00012Y0024334
X-000216Y0023844
X0005381Y002437
X0005385Y002547
X0008842Y0026828
X0011594Y0029422
T04
X-000067Y000355
Y000509
X0004Y00008
X000527
X000654
X000781
X000908
X001035
X001162
X001289
X001416
X001543
X00167
X001797
X00242Y001933
Y00206
X002177Y00292
X00205
T05
X00015Y00015
X00235Y00285
M30
