G04*
G04 #@! TF.GenerationSoftware,Altium Limited,Altium Designer,18.1.1 (9)*
G04*
G04 Layer_Physical_Order=3*
G04 Layer_Color=16440176*
%FSLAX44Y44*%
%MOMM*%
G71*
G01*
G75*
%ADD15C,0.2000*%
%ADD38R,0.8000X1.2000*%
%ADD39R,1.2000X0.8000*%
%ADD60C,0.5000*%
%ADD62C,0.3000*%
%ADD65C,0.6000*%
%ADD67C,0.4500*%
D15*
X165646Y202994D02*
Y268014D01*
X164460Y269200D02*
X165646Y268014D01*
X63900Y24000D02*
Y44200D01*
X63800Y44300D02*
X63900Y44200D01*
X58600Y19200D02*
Y45800D01*
Y19200D02*
X65400Y12400D01*
X58600Y45800D02*
X114600Y101800D01*
X138848Y85800D02*
X166500D01*
X133748Y90900D02*
X138848Y85800D01*
X126400Y90900D02*
X133748D01*
X179140Y177540D02*
X219000Y217400D01*
X234788D01*
X43703Y75567D02*
Y86897D01*
X31450Y99150D02*
X43703Y86897D01*
X153570Y94470D02*
X162370D01*
X162600Y94699D01*
X152700Y93600D02*
X153570Y94470D01*
X151280Y101800D02*
X154260Y98820D01*
X114600Y101800D02*
X151280D01*
X147560Y30070D02*
Y30350D01*
Y30070D02*
X153220Y24410D01*
X125840Y83140D02*
X129290D01*
X132290Y86140D01*
X107200Y71700D02*
X126400Y90900D01*
X107200Y39300D02*
Y71700D01*
X132290Y86140D02*
X132470Y85960D01*
X166500Y85800D02*
X171200Y90500D01*
X20350Y99150D02*
X31450D01*
X68300Y133100D02*
X87300D01*
X95905Y141705D01*
X114600Y160600D02*
X147300D01*
X95805Y141805D02*
X114600Y160600D01*
X164800Y113700D02*
X171200Y107299D01*
Y90500D02*
Y107299D01*
X107200Y39300D02*
X116100Y30400D01*
X132470Y79900D02*
Y85960D01*
X165210Y186580D02*
Y188310D01*
X164460Y269200D02*
X173760Y278500D01*
X156570Y203380D02*
Y272300D01*
X156420Y272450D02*
X156570Y272300D01*
X146790Y271620D02*
X150470Y275300D01*
X146790Y203380D02*
Y271620D01*
X156420Y272450D02*
X161050Y277080D01*
X153220Y18560D02*
Y24410D01*
X140620Y26620D02*
Y37460D01*
X145630Y42470D01*
X172020D01*
X175030Y45480D01*
Y68680D01*
X184860Y78510D01*
Y119680D01*
X179140Y125400D02*
X184860Y119680D01*
X179140Y125400D02*
Y177540D01*
X74400Y142500D02*
Y165400D01*
X85300Y176300D01*
X152100D01*
X156400Y180600D01*
Y186520D01*
X65767Y135633D02*
Y142533D01*
Y135633D02*
X68300Y133100D01*
X147300Y160600D02*
X165210Y178510D01*
Y186580D01*
X147280Y182380D02*
Y186640D01*
X145300Y180400D02*
X147280Y182380D01*
X80800Y180400D02*
X145300D01*
X57133Y156733D02*
X80800Y180400D01*
X57133Y142633D02*
Y156733D01*
X48500Y142600D02*
Y165000D01*
X70120Y186620D01*
X138640D01*
X149300Y97000D02*
X152700Y93600D01*
X116500Y97000D02*
X149300D01*
X63800Y44300D02*
X116500Y97000D01*
X65400Y8000D02*
Y12400D01*
X78160Y22329D02*
Y30260D01*
X151690Y17030D02*
X153220Y18560D01*
X83459Y17030D02*
X151690D01*
X78160Y22329D02*
X83459Y17030D01*
D38*
X179700Y6000D02*
D03*
X167000D02*
D03*
X154300D02*
D03*
X116200D02*
D03*
X128900D02*
D03*
X217700Y294000D02*
D03*
X205000Y294000D02*
D03*
X141600Y6000D02*
D03*
X103500D02*
D03*
X90800D02*
D03*
X78100D02*
D03*
X65400D02*
D03*
X52700D02*
D03*
X40000D02*
D03*
D39*
X244000Y206000D02*
D03*
Y193300D02*
D03*
D60*
X213400Y237281D02*
Y272300D01*
X211800Y235680D02*
X213400Y237281D01*
X211800Y235680D02*
X222340Y225140D01*
X176100Y294000D02*
X181620Y288480D01*
X141325Y294000D02*
X176100D01*
X134405Y287080D02*
X141325Y294000D01*
X24590Y142800D02*
X33600D01*
X24390Y143000D02*
X24590Y142800D01*
X222340Y225140D02*
X237440D01*
X242000Y220580D01*
Y206000D02*
Y220580D01*
X33220Y293460D02*
X69075D01*
X75455Y287080D01*
X14230Y104210D02*
X30470Y120450D01*
X14230Y59530D02*
Y104210D01*
X7300Y52600D02*
X14230Y59530D01*
X24200Y126720D02*
Y284440D01*
X64400Y103000D02*
X100000D01*
X25300Y110800D02*
Y111000D01*
X30470Y120450D02*
X46950D01*
X100000Y103000D02*
X112000Y115000D01*
X83100Y120980D02*
X104710Y142590D01*
X173800Y194100D02*
X205000Y225300D01*
X181620Y278958D02*
X187979Y272600D01*
X181620Y278958D02*
Y288480D01*
X187979Y272600D02*
X198700D01*
X104710Y142590D02*
X115140Y153020D01*
X112000Y115000D02*
X145510D01*
X155670Y125160D01*
X171200D01*
X179310Y117050D01*
Y89650D02*
Y117050D01*
X115140Y153020D02*
X149542D01*
X173800Y177278D01*
Y194100D01*
X24200Y126720D02*
X30470Y120450D01*
X24200Y284440D02*
X33220Y293460D01*
X75455Y287080D02*
X134405D01*
X205000Y225300D02*
Y292000D01*
X46950Y120450D02*
X49100Y118300D01*
X64400Y103000D01*
X83100Y117900D02*
Y120980D01*
D62*
X132300Y36000D02*
Y79730D01*
X132470Y79900D01*
X132300Y26640D02*
Y36000D01*
Y26640D02*
X132470Y26470D01*
X128900Y22900D02*
X132470Y26470D01*
X77000Y87789D02*
Y102600D01*
X169560Y79900D02*
X179310Y89650D01*
X132470Y79900D02*
X169560D01*
X93897Y44703D02*
X97200Y41400D01*
X76003Y44703D02*
X93897D01*
X97200Y22900D02*
Y41400D01*
Y22900D02*
X128900D01*
D65*
X179700Y0D02*
D03*
Y8000D02*
D03*
X167000Y0D02*
D03*
Y8000D02*
D03*
X154300Y0D02*
D03*
Y8000D02*
D03*
X116200Y0D02*
D03*
Y8000D02*
D03*
X128900Y0D02*
D03*
Y8000D02*
D03*
X217700Y300000D02*
D03*
Y292000D02*
D03*
X205000Y300000D02*
D03*
Y292000D02*
D03*
X141600Y0D02*
D03*
Y8000D02*
D03*
X250000Y206000D02*
D03*
X242000D02*
D03*
X250000Y193300D02*
D03*
X242000D02*
D03*
X103500Y0D02*
D03*
Y8000D02*
D03*
X90800Y0D02*
D03*
Y8000D02*
D03*
X78100Y0D02*
D03*
Y8000D02*
D03*
X65400Y0D02*
D03*
Y8000D02*
D03*
X52700Y0D02*
D03*
Y8000D02*
D03*
X40000Y0D02*
D03*
Y8000D02*
D03*
D67*
X165646Y202994D02*
D03*
X63900Y24000D02*
D03*
X213400Y272300D02*
D03*
X234788Y217400D02*
D03*
X43703Y75567D02*
D03*
X33600Y142800D02*
D03*
X132300Y36000D02*
D03*
X162600Y94699D02*
D03*
X154260Y98820D02*
D03*
X147550Y30720D02*
D03*
X125840Y83140D02*
D03*
X25300Y110800D02*
D03*
X7300Y52600D02*
D03*
X20350Y99150D02*
D03*
X49100Y118300D02*
D03*
X77000Y87789D02*
D03*
X198700Y272600D02*
D03*
X164800Y113700D02*
D03*
X116100Y30400D02*
D03*
X179310Y89650D02*
D03*
X104710Y142590D02*
D03*
X140620Y26620D02*
D03*
X165210Y186580D02*
D03*
X156570Y203380D02*
D03*
X146790D02*
D03*
X156400Y186520D02*
D03*
X147280Y186640D02*
D03*
X138640Y186620D02*
D03*
X173760Y278500D02*
D03*
X161050Y277080D02*
D03*
X150470Y275300D02*
D03*
X78160Y30260D02*
D03*
X191550Y214080D02*
D03*
X74400Y142500D02*
D03*
X65767Y142533D02*
D03*
X57133Y142633D02*
D03*
X48500Y142600D02*
D03*
X83100Y117900D02*
D03*
X76003Y44703D02*
D03*
X96500Y22600D02*
D03*
M02*
