G04 Layer_Color=32896*
%FSLAX44Y44*%
%MOMM*%
G71*
G01*
G75*
%ADD25C,0.2540*%
%ADD39C,0.2500*%
%ADD41C,0.2000*%
%ADD44C,0.1600*%
D25*
X147423Y221704D02*
X149963Y224243D01*
X155041D01*
X157580Y221704D01*
Y219165D01*
X155041Y216626D01*
X149963D01*
X147423Y214086D01*
Y211547D01*
X149963Y209008D01*
X155041D01*
X157580Y211547D01*
X142345Y224243D02*
Y209008D01*
X134727D01*
X132188Y211547D01*
Y214086D01*
X134727Y216626D01*
X142345D01*
X134727D01*
X132188Y219165D01*
Y221704D01*
X134727Y224243D01*
X142345D01*
X127110Y221704D02*
X124571Y224243D01*
X119492D01*
X116953Y221704D01*
Y219165D01*
X122031Y214086D01*
Y211547D02*
Y209008D01*
X138431Y221750D02*
X140970Y224289D01*
X146049D01*
X148588Y221750D01*
Y219211D01*
X146049Y216672D01*
X140970D01*
X138431Y214132D01*
Y211593D01*
X140970Y209054D01*
X146049D01*
X148588Y211593D01*
X133353Y224289D02*
Y209054D01*
X125735D01*
X123196Y211593D01*
Y214132D01*
X125735Y216672D01*
X133353D01*
X125735D01*
X123196Y219211D01*
Y221750D01*
X125735Y224289D01*
X133353D01*
X118118Y221750D02*
X115579Y224289D01*
X110500D01*
X107961Y221750D01*
Y219211D01*
X113040Y214132D01*
Y211593D02*
Y209054D01*
X129465Y221770D02*
X132004Y224309D01*
X137083D01*
X139622Y221770D01*
Y219231D01*
X137083Y216691D01*
X132004D01*
X129465Y214152D01*
Y211613D01*
X132004Y209074D01*
X137083D01*
X139622Y211613D01*
X124387Y224309D02*
Y209074D01*
X116769D01*
X114230Y211613D01*
Y214152D01*
X116769Y216691D01*
X124387D01*
X116769D01*
X114230Y219231D01*
Y221770D01*
X116769Y224309D01*
X124387D01*
X109152Y221770D02*
X106613Y224309D01*
X101534D01*
X98995Y221770D01*
Y219231D01*
X104073Y214152D01*
Y211613D02*
Y209074D01*
X120653Y221748D02*
X123193Y224287D01*
X128271D01*
X130810Y221748D01*
Y219209D01*
X128271Y216670D01*
X123193D01*
X120653Y214130D01*
Y211591D01*
X123193Y209052D01*
X128271D01*
X130810Y211591D01*
X115575Y224287D02*
Y209052D01*
X107957D01*
X105418Y211591D01*
Y214130D01*
X107957Y216670D01*
X115575D01*
X107957D01*
X105418Y219209D01*
Y221748D01*
X107957Y224287D01*
X115575D01*
X100340Y221748D02*
X97801Y224287D01*
X92722D01*
X90183Y221748D01*
Y219209D01*
X95261Y214130D01*
Y211591D02*
Y209052D01*
X42843Y175631D02*
X45382Y178171D01*
X50461D01*
X53000Y175631D01*
Y173092D01*
X50461Y170553D01*
X45382D01*
X42843Y168014D01*
Y165475D01*
X45382Y162935D01*
X50461D01*
X53000Y165475D01*
X37765Y178171D02*
Y162935D01*
X30147D01*
X27608Y165475D01*
Y168014D01*
X30147Y170553D01*
X37765D01*
X30147D01*
X27608Y173092D01*
Y175631D01*
X30147Y178171D01*
X37765D01*
X22530Y175631D02*
X19991Y178171D01*
X14912D01*
X12373Y175631D01*
Y173092D01*
X17451Y168014D01*
Y165475D02*
Y162935D01*
X34077Y175787D02*
X36616Y178326D01*
X41695D01*
X44234Y175787D01*
Y173248D01*
X41695Y170709D01*
X36616D01*
X34077Y168170D01*
Y165631D01*
X36616Y163091D01*
X41695D01*
X44234Y165631D01*
X28999Y178326D02*
Y163091D01*
X21381D01*
X18842Y165631D01*
Y168170D01*
X21381Y170709D01*
X28999D01*
X21381D01*
X18842Y173248D01*
Y175787D01*
X21381Y178326D01*
X28999D01*
X13764Y175787D02*
X11225Y178326D01*
X6146D01*
X3607Y175787D01*
Y173248D01*
X8686Y168170D01*
Y165631D02*
Y163091D01*
X51933Y175715D02*
X54472Y178255D01*
X59551D01*
X62090Y175715D01*
Y173176D01*
X59551Y170637D01*
X54472D01*
X51933Y168098D01*
Y165559D01*
X54472Y163019D01*
X59551D01*
X62090Y165559D01*
X46855Y178255D02*
Y163019D01*
X39237D01*
X36698Y165559D01*
Y168098D01*
X39237Y170637D01*
X46855D01*
X39237D01*
X36698Y173176D01*
Y175715D01*
X39237Y178255D01*
X46855D01*
X31620Y175715D02*
X29081Y178255D01*
X24002D01*
X21463Y175715D01*
Y173176D01*
X26542Y168098D01*
Y165559D02*
Y163019D01*
X60871Y175829D02*
X63411Y178368D01*
X68489D01*
X71028Y175829D01*
Y173290D01*
X68489Y170751D01*
X63411D01*
X60871Y168212D01*
Y165673D01*
X63411Y163133D01*
X68489D01*
X71028Y165673D01*
X55793Y178368D02*
Y163133D01*
X48175D01*
X45636Y165673D01*
Y168212D01*
X48175Y170751D01*
X55793D01*
X48175D01*
X45636Y173290D01*
Y175829D01*
X48175Y178368D01*
X55793D01*
X40558Y175829D02*
X38019Y178368D01*
X32940D01*
X30401Y175829D01*
Y173290D01*
X35480Y168212D01*
Y165673D02*
Y163133D01*
D39*
X159750Y150750D02*
G03*
X159750Y150750I-1250J0D01*
G01*
X179750Y211000D02*
G03*
X179750Y211000I-1250J0D01*
G01*
D41*
X9300Y175700D02*
X107300D01*
X9300D02*
Y298700D01*
X107300D01*
Y175700D02*
Y298700D01*
X150250Y123250D02*
X152000D01*
Y130000D01*
X118000Y123250D02*
X119750D01*
X118000D02*
Y130000D01*
Y145500D02*
Y152250D01*
X119750D01*
X150250D02*
X152000D01*
Y145500D02*
Y152250D01*
X172550Y214000D02*
X174500D01*
Y246350D01*
X120500Y214000D02*
X122450D01*
X120500D02*
Y246350D01*
Y245650D02*
Y278000D01*
X122450D01*
X172550D02*
X174500D01*
Y245650D02*
Y278000D01*
D44*
X134500Y195297D02*
Y186300D01*
X130001D01*
X128502Y187799D01*
Y193798D01*
X130001Y195297D01*
X134500D01*
X119505D02*
X125503D01*
Y190799D01*
X122504Y192298D01*
X121004D01*
X119505Y190799D01*
Y187799D01*
X121004Y186300D01*
X124003D01*
X125503Y187799D01*
X159512Y172065D02*
Y163068D01*
X155014D01*
X153514Y164568D01*
Y170566D01*
X155014Y172065D01*
X159512D01*
X150515Y170566D02*
X149015Y172065D01*
X146016D01*
X144517Y170566D01*
Y169066D01*
X146016Y167567D01*
X147516D01*
X146016D01*
X144517Y166067D01*
Y164568D01*
X146016Y163068D01*
X149015D01*
X150515Y164568D01*
X179324Y298049D02*
Y289052D01*
X174825D01*
X173326Y290551D01*
Y296550D01*
X174825Y298049D01*
X179324D01*
X165828Y289052D02*
Y298049D01*
X170327Y293550D01*
X164329D01*
M02*
