M48
;Layer_Color=9474304
;FILE_FORMAT=4:4
METRIC,LZ
;TYPE=PLATED
T1F00S00C0.2000
T2F00S00C0.6000
%
T01
X000096Y000049
X000176
X000136Y000129
X000332Y000155
X000394Y000355
X0003785Y00044111
X000436Y000451
X000498Y000584
X000607Y000567
X000671Y000406
X000735Y00042
X000681Y000277
X000613Y000327
X00048298Y00027298
X00079Y000264
X001018Y000241
X000965Y000183
X001189Y000207
X001217Y000156
X001316Y000233
X001371Y000231
X001374Y000373
X001384Y00044
Y00055
Y00066
X001274
X001164
X001164Y000724
X001164Y00055
X001274
Y00044
X001294Y000372
X001164Y00044
X001097Y00045
X000937Y000418
X000894Y000464
X000881Y000549
X000936Y000527
X000917Y000612
X001024Y0007995
X000965Y001015
X000817Y000988
X000745
X000634Y000982
X0004965Y0008205
X0004485
X000351Y000758
Y00071
X000316Y00065
X000228Y000596
X000136Y000609
X000176Y000689
X000267Y000772
Y00082
X000223Y000444
X000238Y000389
X000203Y000311
X000096Y001169
X000456Y001409
X00068Y001349
X000742Y001285
X000799Y001265
X000909Y001264
X001019Y001266
X001178Y001269
X001384Y001425
X001349Y00097
X001267Y000986
X001255Y000915
X0014Y00092
X001489Y00089
X001524Y000935
X0015165Y0008015
X001618Y000797
X001615Y00061
X001627Y000543
X001602Y000398
X0016683Y0003932
X001799Y000395
X00192Y0004
X001983Y000405
X001971Y000156
X001828Y000273
X001686Y000164
X001817Y000542
X001462Y00057
X001496Y001089
X001576
X001536Y001169
X001456
X00145Y001229
X001516Y001298
X001964Y001318
X001959Y00123
X001936Y001169
X001976Y001089
Y000929
X001877Y00092
X001768Y000922
X001697Y000973
X001825Y001052
X001976Y001409
X001936Y001489
X001881Y001466
X0018195Y0014895
X001816Y001569
X001825Y001629
X001828Y001754
Y001842
X001826Y001942
X001816Y00213
X00157Y00215
X001563Y002073
X001489Y002087
X001482Y001626
X001569Y001581
X001571Y001486
X001896Y001569
X001976
X001936Y001649
X001976Y001729
X001976Y001846
X002056Y001889
X002136
X002216
X002296
X002376
X002456
X002416Y002289
X002456Y002369
X002416Y002449
X002336
X002376Y002529
X002456
X002416Y002609
X002456Y002689
X002416Y002769
X002407Y00284
X00236
X002349Y002925
X0024
X002296Y002529
X002056Y002369
X002016Y002289
X001968Y002751
X00190449Y0026935
X0017665Y0027645
X001696Y002769
X0016395Y0027685
X0015125Y0027705
X001456Y002769
X001256Y002689
X001176
X001096
X001016
X000976Y002609
X000896
X000945Y002547
X000856Y002529
X000816Y002449
X000736
X000776Y002369
X000696
Y002209
X000616
Y002049
X000656Y001969
X000696Y001889
X000616
X000656Y001809
X00062Y001689
X000496Y001809
X000416
X000456Y001889
X000416Y001969
X000496
X000456Y002049
X000416Y002129
X000496
X000456Y002209
X000425Y002307
X000456Y002369
X000424Y002468
X000426Y002547
Y002624
X000496Y002609
X000576
X000616Y002689
X000696
X000689Y002767
X000797Y002679
X000536Y002689
X000456
X000536Y002529
X000945Y002427
X000816Y002289
X000856Y002209
X000736Y002129
X000776Y002049
X000844Y001626
X000909Y001627
X000974
X00117375Y00164375
X001096Y001729
X001056Y001809
X001136
X001251Y001892
X001256Y001729
X001416
X001397Y001842
X001351Y001993
X001296Y002129
X001216
X001256Y002209
X001216Y002289
X001296
X001256Y002369
X001176
Y002529
X001256
X001216Y002609
X001296
X000136Y002689
X000176Y002769
X000216Y002849
X000456Y001569
X000476Y001498
X000719Y001469
X000844
X001122Y001506
T02
X0Y000254
X00008
Y000381
X0
Y000508
X00008
Y000762
X0
Y000889
X00008
X000254Y00008
Y0
X000381
Y00008
X000508
Y0
X000635
Y00008
X000762
Y0
X000889
Y00008
X001016
Y0
X001143
Y00008
X00127
Y0
X001397
Y00008
X001524
Y0
X001651
Y00008
X001778
Y0
X001905
Y00008
X002032
Y0
X00242Y002032
X0025
Y002159
X00242
M30
