M48
;Layer_Color=9474304
;FILE_FORMAT=4:4
METRIC,LZ
;TYPE=PLATED
T1F00S00C0.2000
T2F00S00C0.6000
%
T01
X000065Y00017
X000202Y000145
X000231Y000218
X000205Y00031
X000135
X00026Y000444
X000317Y000466
X000378Y000563
X0003915Y0006415
X0003375
X0001879Y0006175
X000139Y001005
X000266Y001009
X000268Y00107
X0001385Y0011355
X000163Y001304
X00051Y001214
X00064Y001213
X00061Y001095
X000686Y001078
X000685Y001015
X000672Y000959
X0007721Y0008792
X0008675Y000845
X00089798Y00090399
X001043Y00091321
X00108Y00083
X00115Y00083
X0012454Y0008616
X00130199Y00087637
X00129959Y00096143
X0012479Y0009897
X001153Y001045
X001161Y001104
X00123544Y00114987
X001132Y001209
X001017Y001127
X001025Y001044
X00101Y000739
X001142Y0006065
Y0004965
X001073Y000513
X001079Y000449
X001073Y000377
X001086Y000321
X001142Y0003865
X001252
X001233Y00032
X001312
X001362Y0003865
Y0004965
Y0006065
X001428Y000567
X001419Y000664
X00141157Y00081122
X001419Y000996
Y001361
X001299Y00137
X000835Y00129
X000542Y000897
X000552Y00081
X000555Y00073
X000572Y000482
X000613Y000441
X000578Y000391
X000607Y000342
X000466Y000436
X000465Y000218
X000498Y000148
X00074742Y00013958
X000751Y000215
X000971Y000115
X001044Y000102
X001166Y000155
X001226Y000139
X001272Y000185
X001343
X001252Y0004965
Y0006065
X000908Y000526
X000909Y000471
X000919Y000386
X000409Y000851
X000472Y000948
X0014304Y0009206
X0015056Y0008778
X001599Y000851
X001577Y000932
X001519Y000997
X001638Y001016
X001622Y001086
X001618Y001153
X001621Y001211
X00162Y00127089
X001565Y001276
X001561Y001345
X001556Y0014
X001487Y001405
X00159046Y0007275
X001624Y000679
X0016284Y0006236
X001613Y000567
X0016495Y0005245
X001675Y00059
Y00073
X001623Y000328
X001587Y000224
X0014745Y00024857
X0014325Y0003535
X00164Y0001
X001605Y00003
X001675
X001565Y001504
X001564Y001603
X001562Y001698
X001564Y001796
X00175Y00183
X001815Y00185
X001885
X00195Y00185
X002
X00205
X0021
X00215
X0020075Y0020815
X002015Y002298
X0020895Y0024175
X002165Y00241
X001583Y002013
X001376Y001889
X001389Y001762
X001377Y001629
X00134Y001566
X001185Y00199
X00115Y0022
X00094
X00087
X0008
X00077Y002299
X000706Y002327
X000533Y00232
X000501Y002289
X000456Y002338
X00031Y00234
X00017
X000205Y00227
X000063Y002279
Y002149
X00006Y002022
X000063Y001889
X000062Y001755
X000061Y001626
X000063Y001494
X000205Y00171
X000275
X00031Y00178
Y00192
X00017
Y00178
X00031Y00164
X000444Y001553
X000578Y00155
X000555Y00185
X000573Y002182
X000833Y0021
X000964Y002098
X000904Y001982
X000829Y001954
X000833Y001707
X000905Y00227
X001325
X00136Y00234
T02
X000127Y0
Y00008
X000381
Y0
X000635
Y00008
X000889
Y0
X001143
Y00008
X00127
Y0
X001397
Y00008
X00008Y000381
X0
Y000508
X00008
Y000635
X0
Y000762
X00008
Y000889
X0
X001524Y000081
Y000001
M30
