G04*
G04 #@! TF.GenerationSoftware,Altium Limited,Altium Designer,18.1.1 (9)*
G04*
G04 Layer_Color=65535*
%FSLAX44Y44*%
%MOMM*%
G71*
G01*
G75*
%ADD10C,0.1000*%
%ADD11C,0.2500*%
%ADD12C,0.1500*%
%ADD13C,0.1200*%
%ADD14C,0.0800*%
%ADD15C,0.2000*%
D10*
X88300Y34300D02*
G03*
X88300Y34300I-500J0D01*
G01*
X33192Y74180D02*
G03*
X33192Y74180I-112J0D01*
G01*
D11*
X123350Y85100D02*
G03*
X123350Y85100I-1250J0D01*
G01*
D12*
X17243Y267700D02*
G03*
X17243Y267700I-4243J0D01*
G01*
X210400Y230800D02*
Y235800D01*
Y251800D02*
Y256800D01*
Y230800D02*
X214400D01*
X236400Y237800D02*
Y249800D01*
X210400Y256800D02*
X214400D01*
X21000Y261700D02*
Y282700D01*
Y105700D02*
Y125700D01*
Y105700D02*
X48000D01*
X150000D02*
X178000D01*
Y125700D01*
Y261700D02*
Y282700D01*
X21000D02*
X48000D01*
X150000D02*
X178000D01*
X62656Y39753D02*
X71141Y31268D01*
X83869Y43996D01*
X75384Y52481D02*
X83869Y43996D01*
X62656Y39753D02*
X75384Y52481D01*
X188310Y90710D02*
Y102710D01*
X170310D02*
X188310D01*
X170310Y90710D02*
Y102710D01*
Y90710D02*
X188310D01*
X81420Y56590D02*
Y68590D01*
Y56590D02*
X99420D01*
Y68590D01*
X81420D02*
X99420D01*
X81370Y71680D02*
Y83680D01*
Y71680D02*
X99370D01*
Y83680D01*
X81370D02*
X99370D01*
X58110Y50620D02*
X70110D01*
Y68620D01*
X58110D02*
X70110D01*
X58110Y50620D02*
Y68620D01*
D13*
X101990Y54540D02*
Y85540D01*
X119990D01*
Y54540D02*
Y85540D01*
X101990Y54540D02*
X119990D01*
X150500Y24400D02*
X166500D01*
Y14400D02*
Y24400D01*
X150500Y14400D02*
X166500D01*
X150500D02*
Y24400D01*
X121100Y14600D02*
Y30600D01*
X111100Y14600D02*
X121100D01*
X111100D02*
Y30600D01*
X121100D01*
X16200Y95600D02*
X32200D01*
Y85600D02*
Y95600D01*
X16200Y85600D02*
X32200D01*
X16200D02*
Y95600D01*
X108510Y14600D02*
Y30600D01*
X98510Y14600D02*
X108510D01*
X98510D02*
Y30600D01*
X108510D01*
X95810Y14600D02*
Y30600D01*
X85810Y14600D02*
X95810D01*
X85810D02*
Y30600D01*
X95810D01*
X83150Y14600D02*
Y30600D01*
X73150Y14600D02*
X83150D01*
X73150D02*
Y30600D01*
X83150D01*
X50100Y27200D02*
Y43200D01*
X60100D01*
Y27200D02*
Y43200D01*
X50100Y27200D02*
X60100D01*
X34400Y34600D02*
Y50600D01*
X44400D01*
Y34600D02*
Y50600D01*
X34400Y34600D02*
X44400D01*
X15000Y52900D02*
X31000D01*
Y42900D02*
Y52900D01*
X15000Y42900D02*
X31000D01*
X15000D02*
Y52900D01*
X46500Y15300D02*
X62500D01*
X46500D02*
Y25300D01*
X62500D01*
Y15300D02*
Y25300D01*
X194700Y281300D02*
Y297300D01*
X184700Y281300D02*
X194700D01*
X184700D02*
Y297300D01*
X194700D01*
D14*
X21864Y41607D02*
X31057Y32414D01*
X14793Y34536D02*
X21864Y41607D01*
X14793Y34536D02*
X23986Y25343D01*
X31057Y32414D01*
X162000Y286200D02*
X175000D01*
Y296200D01*
X162000D02*
X175000D01*
X162000Y286200D02*
Y296200D01*
X34080Y75180D02*
X57080D01*
Y52180D02*
Y75180D01*
X34080Y52180D02*
X57080D01*
X34080D02*
Y75180D01*
D15*
X128600Y82850D02*
Y86600D01*
X132350D01*
X177850D02*
X181600D01*
Y82850D02*
Y86600D01*
Y33600D02*
Y37350D01*
X177850Y33600D02*
X181600D01*
X128600D02*
Y37350D01*
Y33600D02*
X132350D01*
X145500Y269100D02*
X166000D01*
X145500Y219100D02*
Y269100D01*
Y219100D02*
X166000D01*
Y269100D01*
M02*
