G04*
G04 #@! TF.GenerationSoftware,Altium Limited,Altium Designer,18.1.1 (9)*
G04*
G04 Layer_Physical_Order=4*
G04 Layer_Color=16711680*
%FSLAX44Y44*%
%MOMM*%
G71*
G01*
G75*
%ADD11C,0.2500*%
%ADD12C,0.1500*%
%ADD15C,0.2000*%
%ADD21R,0.2000X0.2000*%
%ADD22R,0.2000X0.2000*%
%ADD23R,0.4000X0.6000*%
%ADD24R,0.6000X0.4000*%
%ADD38R,0.8000X1.2000*%
%ADD39R,1.2000X0.8000*%
%ADD60C,0.5000*%
%ADD62C,0.3000*%
%ADD65C,0.6000*%
%ADD66C,2.2000*%
%ADD67C,0.4500*%
%ADD68C,0.5000*%
G04:AMPARAMS|DCode=70|XSize=0.45mm|YSize=0.23mm|CornerRadius=0mm|HoleSize=0mm|Usage=FLASHONLY|Rotation=180.000|XOffset=0mm|YOffset=0mm|HoleType=Round|Shape=Octagon|*
%AMOCTAGOND70*
4,1,8,-0.2250,0.0575,-0.2250,-0.0575,-0.1675,-0.1150,0.1675,-0.1150,0.2250,-0.0575,0.2250,0.0575,0.1675,0.1150,-0.1675,0.1150,-0.2250,0.0575,0.0*
%
%ADD70OCTAGOND70*%

%ADD71C,0.2500*%
%ADD72R,2.1500X1.2500*%
%ADD73R,0.3000X0.5000*%
%ADD74R,0.8500X0.7500*%
%ADD75R,1.0000X1.8000*%
%ADD76R,0.4000X0.5000*%
%ADD77P,0.2828X4X180.0*%
%ADD78R,1.0000X0.8000*%
%ADD79R,1.0000X1.8000*%
%ADD80R,1.1000X1.0000*%
%ADD81O,0.6000X0.9500*%
%ADD82R,4.2000X3.4000*%
%ADD83O,0.9000X0.2500*%
%ADD84O,0.2500X0.9000*%
%ADD85R,1.5000X1.0000*%
%ADD86R,1.1000X1.6500*%
%ADD87R,3.0000X2.0000*%
G36*
X250000Y211191D02*
X244309D01*
Y228270D01*
X247060D01*
Y246970D01*
X233860D01*
Y228270D01*
X236968D01*
Y223023D01*
X235698Y222497D01*
X234041Y224154D01*
X233346Y224618D01*
X232527Y224781D01*
X232072D01*
X231782Y225482D01*
X230940Y225831D01*
X226940D01*
X226098Y225482D01*
X224921Y225831D01*
X224921Y225831D01*
X222921D01*
X222460Y225640D01*
X221615Y225538D01*
X220770Y225640D01*
X220309Y225831D01*
X218309D01*
X217467Y225482D01*
X217412Y225426D01*
X217132Y225482D01*
X216290Y225831D01*
X216290Y225831D01*
X212290D01*
X212120Y225760D01*
X212067Y225796D01*
X210760Y226056D01*
X209453Y225796D01*
X208345Y225055D01*
X207604Y223947D01*
X207344Y222640D01*
X207604Y221333D01*
X208345Y220225D01*
X209453Y219484D01*
X210760Y219224D01*
X212067Y219484D01*
X212120Y219520D01*
X212290Y219449D01*
X216290D01*
X216728Y218276D01*
Y212450D01*
X215471Y211420D01*
X214732Y211503D01*
X213345Y212890D01*
X211670D01*
Y209200D01*
X210400D01*
Y207930D01*
X205610D01*
Y207355D01*
X206344Y206621D01*
X205818Y205351D01*
X192041D01*
Y210762D01*
X192857Y210924D01*
X193965Y211665D01*
X194706Y212773D01*
X194883Y213664D01*
X198060Y216842D01*
X198165Y216737D01*
X198676Y216525D01*
X199007Y216388D01*
X199849Y216737D01*
X199849Y216737D01*
X202677Y219565D01*
X203026Y220407D01*
X204105Y220993D01*
X204105Y220993D01*
Y220993D01*
X205520Y222407D01*
X205868Y223249D01*
X205520Y224091D01*
X205520Y224091D01*
X204599Y225012D01*
Y226401D01*
X206469Y228270D01*
X214060D01*
Y233950D01*
X219820D01*
X221225Y234229D01*
X222416Y235025D01*
X225495Y238105D01*
X226291Y239295D01*
X226570Y240700D01*
Y253980D01*
X227681Y255090D01*
X233740D01*
Y249410D01*
X246940D01*
Y268110D01*
X233740D01*
Y262431D01*
X226160D01*
X224756Y262152D01*
X223565Y261356D01*
X220305Y258095D01*
X219509Y256905D01*
X219230Y255500D01*
Y242220D01*
X218300Y241290D01*
X214060D01*
Y246970D01*
X200860D01*
Y229438D01*
X200509Y229087D01*
X199989Y228310D01*
X199807Y227393D01*
Y225719D01*
X199593Y225505D01*
X199244Y224664D01*
X198169Y224079D01*
X198165Y224077D01*
Y224077D01*
X196257Y222169D01*
X196155Y222149D01*
X195296Y221574D01*
X191134Y217413D01*
X190243Y217236D01*
X189135Y216495D01*
X188394Y215387D01*
X188217Y214496D01*
X187516Y213794D01*
X186941Y212934D01*
X186739Y211920D01*
X186739Y211920D01*
Y204170D01*
X186739Y204170D01*
X186941Y203155D01*
X187516Y202295D01*
X188986Y200826D01*
X188986Y200826D01*
X189846Y200251D01*
X190860Y200049D01*
X190860Y200049D01*
X210400D01*
X211415Y200251D01*
X211713Y200450D01*
X212625D01*
X213750Y201575D01*
X214407Y202114D01*
X214550Y202086D01*
X214693Y202114D01*
X215350Y201575D01*
X216475Y200450D01*
X220925D01*
X221034Y200559D01*
X222900D01*
X223390Y200656D01*
X224363Y200107D01*
X224660Y199823D01*
Y199270D01*
X230200D01*
Y198000D01*
X231470D01*
Y193460D01*
X235123D01*
X235812Y193370D01*
X236509Y192509D01*
X236781Y191138D01*
X238006Y189306D01*
X239838Y188081D01*
X240730Y187904D01*
Y193300D01*
X243270D01*
Y187904D01*
X244162Y188081D01*
X245994Y189306D01*
X246006D01*
X247838Y188081D01*
X250000Y187652D01*
Y0D01*
X184891D01*
Y12000D01*
X184542Y12842D01*
X183700Y13191D01*
X175700D01*
X174858Y12842D01*
X174509Y12000D01*
Y0D01*
X172191D01*
Y12000D01*
X171842Y12842D01*
X171000Y13191D01*
X163000D01*
X162158Y12842D01*
X161809Y12000D01*
Y0D01*
X159491D01*
Y12000D01*
X159142Y12842D01*
X158300Y13191D01*
X150300D01*
X149458Y12842D01*
X149109Y12000D01*
Y0D01*
X146791D01*
Y12000D01*
X146442Y12842D01*
X145600Y13191D01*
X144221D01*
X144049Y14054D01*
X143475Y14914D01*
X134951Y23438D01*
Y33937D01*
X135456Y34693D01*
X135716Y36000D01*
X135456Y37307D01*
X134715Y38415D01*
X133607Y39156D01*
X132300Y39416D01*
X130993Y39156D01*
X129885Y38415D01*
X129144Y37307D01*
X128884Y36000D01*
X129144Y34693D01*
X129649Y33937D01*
Y22340D01*
X129649Y22340D01*
X129851Y21326D01*
X130426Y20466D01*
X136699Y14192D01*
X136758Y12842D01*
X136409Y12000D01*
Y0D01*
X134549D01*
X134549Y0D01*
X134119Y2162D01*
X132894Y3994D01*
Y4006D01*
X134119Y5838D01*
X134296Y6730D01*
X128900D01*
X123504D01*
X123681Y5838D01*
X124906Y4006D01*
Y3994D01*
X123681Y2162D01*
X123251Y0D01*
X123251Y0D01*
X121391D01*
Y12000D01*
X121042Y12842D01*
X120200Y13191D01*
X112200D01*
X111358Y12842D01*
X111009Y12000D01*
Y0D01*
X108691D01*
Y12000D01*
X108342Y12842D01*
X107500Y13191D01*
X99500D01*
X98658Y12842D01*
X98309Y12000D01*
Y0D01*
X95991D01*
Y12000D01*
X95642Y12842D01*
X94800Y13191D01*
X86800D01*
X85958Y12842D01*
X85609Y12000D01*
Y0D01*
X83291D01*
Y12000D01*
X82942Y12842D01*
X82100Y13191D01*
X74554D01*
X73917Y13470D01*
X73391Y14271D01*
Y17196D01*
X73656Y17593D01*
X73916Y18900D01*
X73656Y20207D01*
X72915Y21315D01*
X71807Y22056D01*
X70500Y22316D01*
X69193Y22056D01*
X68085Y21315D01*
X67344Y20207D01*
X67267Y19815D01*
X66183Y18893D01*
X65886Y18891D01*
X64181D01*
X63339Y18542D01*
X62990Y17700D01*
Y13700D01*
X61826Y13191D01*
X61400D01*
X60558Y12842D01*
X60209Y12000D01*
Y0D01*
X57891D01*
Y12000D01*
X57542Y12842D01*
X56700Y13191D01*
X48700D01*
X47858Y12842D01*
X47509Y12000D01*
Y0D01*
X45191D01*
Y12000D01*
X44842Y12842D01*
X44000Y13191D01*
X36000D01*
X35158Y12842D01*
X34809Y12000D01*
Y0D01*
X0D01*
Y300000D01*
X199809D01*
Y288000D01*
X200158Y287158D01*
X201000Y286809D01*
X209000D01*
X209842Y287158D01*
X210191Y288000D01*
Y300000D01*
X212051D01*
X212052Y300000D01*
X212481Y297838D01*
X213706Y296006D01*
Y295994D01*
X212481Y294161D01*
X212304Y293270D01*
X217700D01*
Y292000D01*
X218970D01*
Y286604D01*
X219862Y286781D01*
X221694Y288006D01*
X221910Y288005D01*
X223023Y286729D01*
X222796Y285000D01*
X223211Y281841D01*
X224431Y278898D01*
X226370Y276370D01*
X228898Y274431D01*
X231841Y273211D01*
X235000Y272796D01*
X238159Y273211D01*
X241102Y274431D01*
X243630Y276370D01*
X245569Y278898D01*
X246789Y281841D01*
X247204Y285000D01*
X246789Y288159D01*
X245569Y291102D01*
X243630Y293630D01*
X241102Y295569D01*
X238159Y296789D01*
X235000Y297204D01*
X231841Y296789D01*
X228898Y295569D01*
X226370Y293630D01*
X224431Y291102D01*
X223269Y291600D01*
X223349Y292000D01*
X222919Y294161D01*
X221694Y295994D01*
Y296006D01*
X222919Y297838D01*
X223349Y300000D01*
X223349Y300000D01*
X250000D01*
Y211191D01*
D02*
G37*
G36*
X204678Y223249D02*
X203263Y221835D01*
X200435D01*
Y224664D01*
X201849Y226078D01*
X204678Y223249D01*
D02*
G37*
G36*
X230940Y220640D02*
X226940D01*
X228940Y222640D01*
X226940Y224640D01*
X230940D01*
Y220640D01*
D02*
G37*
G36*
X226921Y222640D02*
X224921Y220640D01*
X222921D01*
Y224640D01*
X224921D01*
X226921Y222640D01*
D02*
G37*
G36*
X220309Y220640D02*
X218309D01*
X216309Y222640D01*
X218309Y224640D01*
X220309D01*
Y220640D01*
D02*
G37*
G36*
X214290Y222640D02*
X216290Y220640D01*
X212290D01*
Y224640D01*
X216290D01*
X214290Y222640D01*
D02*
G37*
G36*
X199007Y220407D02*
X201835D01*
X199007Y217579D01*
X196179Y220407D01*
X199007Y223235D01*
Y220407D01*
D02*
G37*
G36*
X231230Y213592D02*
X227230D01*
X229230Y215592D01*
X227230Y217592D01*
X231230D01*
Y213592D01*
D02*
G37*
G36*
X227211Y215592D02*
X225211Y213592D01*
X223211D01*
Y217592D01*
X225211D01*
X227211Y215592D01*
D02*
G37*
G36*
X72200Y13700D02*
X68200D01*
X70200Y15700D01*
X68200Y17700D01*
X72200D01*
Y13700D01*
D02*
G37*
G36*
X68181Y15700D02*
X66181Y13700D01*
X64181D01*
Y17700D01*
X66181D01*
X68181Y15700D01*
D02*
G37*
%LPC*%
G36*
X216430Y290730D02*
X212304D01*
X212481Y289838D01*
X213706Y288006D01*
X215538Y286781D01*
X216430Y286604D01*
Y290730D01*
D02*
G37*
G36*
X155320Y291126D02*
X154013Y290866D01*
X152905Y290125D01*
X152164Y289017D01*
X151904Y287710D01*
X151969Y287387D01*
X150703Y286121D01*
X145080D01*
Y288080D01*
X138880Y288080D01*
X138520Y289201D01*
Y289520D01*
X135250D01*
Y283980D01*
Y278440D01*
X138520D01*
Y278759D01*
X138880Y279880D01*
X139790Y279880D01*
X145080D01*
Y281839D01*
X151590D01*
X152409Y282002D01*
X153104Y282466D01*
X154997Y284359D01*
X155320Y284294D01*
X156627Y284554D01*
X157735Y285295D01*
X158476Y286403D01*
X158736Y287710D01*
X158476Y289017D01*
X157735Y290125D01*
X156627Y290866D01*
X155320Y291126D01*
D02*
G37*
G36*
X132710Y289520D02*
X129440D01*
Y285250D01*
X132710D01*
Y289520D01*
D02*
G37*
G36*
X120000Y294610D02*
X113730D01*
Y284340D01*
X120000D01*
Y294610D01*
D02*
G37*
G36*
X18000D02*
X11730D01*
Y284340D01*
X18000D01*
Y294610D01*
D02*
G37*
G36*
X111190D02*
X104920D01*
Y284340D01*
X111190D01*
Y294610D01*
D02*
G37*
G36*
X9190D02*
X2920D01*
Y284340D01*
X9190D01*
Y294610D01*
D02*
G37*
G36*
X132710Y282710D02*
X129440D01*
Y278440D01*
X132710D01*
Y282710D01*
D02*
G37*
G36*
X189970Y286256D02*
X188663Y285996D01*
X187555Y285255D01*
X186814Y284147D01*
X186554Y282840D01*
X186814Y281533D01*
X186957Y281320D01*
X186278Y280050D01*
X185870D01*
Y273850D01*
X194070D01*
Y280050D01*
X193662D01*
X192983Y281320D01*
X193126Y281533D01*
X193386Y282840D01*
X193126Y284147D01*
X192385Y285255D01*
X191277Y285996D01*
X189970Y286256D01*
D02*
G37*
G36*
X120000Y281800D02*
X113730D01*
Y271530D01*
X120000D01*
Y281800D01*
D02*
G37*
G36*
X111190D02*
X104920D01*
Y271530D01*
X111190D01*
Y281800D01*
D02*
G37*
G36*
X18000D02*
X11730D01*
Y271530D01*
X18000D01*
Y281800D01*
D02*
G37*
G36*
X9190D02*
X2920D01*
Y271530D01*
X9190D01*
Y281800D01*
D02*
G37*
G36*
X198700Y276015D02*
X197393Y275755D01*
X196284Y275015D01*
X195544Y273907D01*
X195284Y272600D01*
X195544Y271292D01*
X196284Y270184D01*
X197393Y269444D01*
X198700Y269184D01*
X200007Y269444D01*
X201115Y270184D01*
X201855Y271292D01*
X202115Y272600D01*
X201855Y273907D01*
X201115Y275015D01*
X200007Y275755D01*
X198700Y276015D01*
D02*
G37*
G36*
X88420Y271696D02*
X87113Y271436D01*
X86005Y270695D01*
X85264Y269587D01*
X85004Y268280D01*
X85264Y266973D01*
X86005Y265865D01*
X87113Y265124D01*
X88420Y264864D01*
X89727Y265124D01*
X90835Y265865D01*
X91576Y266973D01*
X91836Y268280D01*
X91576Y269587D01*
X90835Y270695D01*
X89727Y271436D01*
X88420Y271696D01*
D02*
G37*
G36*
X173760Y281916D02*
X172453Y281656D01*
X171345Y280915D01*
X170604Y279807D01*
X170344Y278500D01*
X170604Y277193D01*
X170778Y276933D01*
X170794Y275416D01*
X169888Y274060D01*
X169570Y272460D01*
Y268960D01*
X169888Y267360D01*
X170794Y266004D01*
X172150Y265098D01*
X173750Y264780D01*
X175350Y265098D01*
X176706Y266004D01*
X177612Y267360D01*
X177930Y268960D01*
Y272460D01*
X177612Y274060D01*
X176706Y275416D01*
X176736Y276924D01*
X176916Y277193D01*
X177176Y278500D01*
X176916Y279807D01*
X176175Y280915D01*
X175067Y281656D01*
X173760Y281916D01*
D02*
G37*
G36*
X161050Y280496D02*
X159743Y280236D01*
X158635Y279495D01*
X157894Y278387D01*
X157634Y277080D01*
X157894Y275773D01*
X158121Y275434D01*
X158094Y275416D01*
X157188Y274060D01*
X156870Y272460D01*
Y268960D01*
X157188Y267360D01*
X158094Y266004D01*
X159450Y265098D01*
X161050Y264780D01*
X162650Y265098D01*
X164006Y266004D01*
X164912Y267360D01*
X165230Y268960D01*
Y272460D01*
X164912Y274060D01*
X164006Y275416D01*
X163979Y275434D01*
X164206Y275773D01*
X164466Y277080D01*
X164206Y278387D01*
X163465Y279495D01*
X162357Y280236D01*
X161050Y280496D01*
D02*
G37*
G36*
X150470Y278716D02*
X149163Y278456D01*
X148055Y277715D01*
X147314Y276607D01*
X147279Y276427D01*
X146750Y276322D01*
X145394Y275416D01*
X144488Y274060D01*
X144170Y272460D01*
Y268960D01*
X144488Y267360D01*
X145394Y266004D01*
X146750Y265098D01*
X148350Y264780D01*
X149950Y265098D01*
X151306Y266004D01*
X152212Y267360D01*
X152530Y268960D01*
Y272460D01*
X152497Y272626D01*
X152885Y272885D01*
X153626Y273993D01*
X153886Y275300D01*
X153626Y276607D01*
X152885Y277715D01*
X151777Y278456D01*
X150470Y278716D01*
D02*
G37*
G36*
X135650Y276640D02*
X134050Y276322D01*
X132694Y275416D01*
X131788Y274060D01*
X131470Y272460D01*
Y268960D01*
X131788Y267360D01*
X132694Y266004D01*
X134050Y265098D01*
X135650Y264780D01*
X137250Y265098D01*
X138606Y266004D01*
X139512Y267360D01*
X139830Y268960D01*
Y272460D01*
X139512Y274060D01*
X138606Y275416D01*
X137250Y276322D01*
X135650Y276640D01*
D02*
G37*
G36*
X213400Y275716D02*
X212093Y275456D01*
X210985Y274715D01*
X210244Y273607D01*
X209984Y272300D01*
X210244Y270993D01*
X210985Y269885D01*
X211740Y269380D01*
X211354Y268110D01*
X200740D01*
Y261411D01*
X194461D01*
X194460Y261411D01*
X193446Y261210D01*
X192586Y260635D01*
X192586Y260635D01*
X189925Y257974D01*
X189351Y257115D01*
X189305Y256886D01*
X188958Y256742D01*
X188609Y255900D01*
Y251900D01*
X188958Y251058D01*
X188996Y250933D01*
X188644Y250407D01*
X188384Y249100D01*
X188478Y248627D01*
X179326Y239475D01*
X178751Y238615D01*
X178549Y237600D01*
X178549Y237600D01*
Y219861D01*
X177279Y219265D01*
X175912Y220179D01*
X175020Y220356D01*
Y213210D01*
Y206064D01*
X175912Y206241D01*
X177279Y207155D01*
X178549Y206559D01*
Y188498D01*
X160975Y170924D01*
X160401Y170065D01*
X160199Y169050D01*
X160199Y169050D01*
Y132148D01*
X147202Y119151D01*
X128000D01*
X128000Y119151D01*
X126986Y118949D01*
X126125Y118375D01*
X121102Y113351D01*
X106600D01*
X105585Y113149D01*
X104726Y112575D01*
X104725Y112574D01*
X97025Y104874D01*
X96451Y104015D01*
X96249Y103000D01*
X96249Y103000D01*
Y92898D01*
X85502Y82151D01*
X56050D01*
X56050Y82151D01*
X55035Y81949D01*
X54175Y81375D01*
X52914Y80113D01*
X52023Y79936D01*
X50915Y79195D01*
X50174Y78087D01*
X49914Y76780D01*
X50174Y75473D01*
X50915Y74365D01*
X52023Y73624D01*
X53330Y73364D01*
X54637Y73624D01*
X55745Y74365D01*
X56486Y75473D01*
X56663Y76364D01*
X57148Y76849D01*
X70582D01*
X70816Y75686D01*
X70793Y75579D01*
X69725Y74865D01*
X68984Y73757D01*
X68724Y72450D01*
X68984Y71143D01*
X69725Y70035D01*
X70833Y69294D01*
X72140Y69034D01*
X73447Y69294D01*
X74555Y70035D01*
X75296Y71143D01*
X75556Y72450D01*
X75296Y73757D01*
X74555Y74865D01*
X73487Y75579D01*
X73463Y75686D01*
X73698Y76849D01*
X86600D01*
X86600Y76849D01*
X87614Y77051D01*
X88475Y77625D01*
X100774Y89925D01*
X101349Y90786D01*
X101551Y91800D01*
Y101902D01*
X107698Y108049D01*
X122200D01*
X122200Y108049D01*
X123215Y108251D01*
X124074Y108826D01*
X129098Y113849D01*
X148300D01*
X148300Y113849D01*
X149314Y114051D01*
X150175Y114626D01*
X164725Y129176D01*
X165299Y130035D01*
X165501Y131050D01*
X165501Y131050D01*
Y167952D01*
X183074Y185525D01*
X183649Y186385D01*
X183851Y187400D01*
X183851Y187400D01*
Y236502D01*
X193668Y246319D01*
X194215Y246684D01*
X194379Y246930D01*
X194642Y247039D01*
X194952Y247788D01*
X194955Y247792D01*
X194956Y247798D01*
X194991Y247881D01*
Y247970D01*
X195215Y249100D01*
X194955Y250407D01*
X194604Y250933D01*
X194642Y251058D01*
X194991Y251900D01*
X194991Y251900D01*
Y255542D01*
X195558Y256110D01*
X200740D01*
Y249410D01*
X213940D01*
Y267697D01*
X213940Y268110D01*
X214574Y269118D01*
X214707Y269144D01*
X215815Y269885D01*
X216556Y270993D01*
X216816Y272300D01*
X216556Y273607D01*
X215815Y274715D01*
X214707Y275456D01*
X213400Y275716D01*
D02*
G37*
G36*
X194070Y272050D02*
X185870D01*
Y265850D01*
X185956D01*
X186762Y264868D01*
X186744Y264780D01*
X187004Y263473D01*
X187745Y262365D01*
X188853Y261624D01*
X190160Y261364D01*
X191467Y261624D01*
X192575Y262365D01*
X193316Y263473D01*
X193576Y264780D01*
X193501Y265156D01*
X194070Y265850D01*
X194070D01*
Y272050D01*
D02*
G37*
G36*
X53850Y258116D02*
X52543Y257856D01*
X51435Y257115D01*
X50694Y256007D01*
X50434Y254700D01*
X50694Y253393D01*
X51435Y252285D01*
X52543Y251544D01*
X53850Y251284D01*
X55157Y251544D01*
X56265Y252285D01*
X57006Y253393D01*
X57266Y254700D01*
X57006Y256007D01*
X56265Y257115D01*
X55157Y257856D01*
X53850Y258116D01*
D02*
G37*
G36*
X53810Y247116D02*
X52503Y246856D01*
X51395Y246115D01*
X50654Y245007D01*
X50394Y243700D01*
X50654Y242393D01*
X51395Y241285D01*
X52503Y240544D01*
X53810Y240284D01*
X55117Y240544D01*
X56225Y241285D01*
X56966Y242393D01*
X57226Y243700D01*
X56966Y245007D01*
X56225Y246115D01*
X55117Y246856D01*
X53810Y247116D01*
D02*
G37*
G36*
X18560Y247670D02*
X6360D01*
Y237470D01*
X18560D01*
Y247670D01*
D02*
G37*
G36*
X116560Y259670D02*
X104360D01*
Y256711D01*
X92370D01*
X91551Y256548D01*
X90856Y256084D01*
X62278Y227506D01*
X61391Y227481D01*
X60770Y227630D01*
X60714Y227714D01*
X32344Y256084D01*
X31649Y256548D01*
X30830Y256711D01*
X18560D01*
Y259670D01*
X6360D01*
Y249470D01*
X18560D01*
Y252429D01*
X29943D01*
X57059Y225313D01*
Y219965D01*
X55789Y219439D01*
X43144Y232084D01*
X42449Y232548D01*
X41630Y232711D01*
X18560D01*
Y235670D01*
X6360D01*
Y225470D01*
X18560D01*
Y228429D01*
X40743D01*
X53159Y216013D01*
Y162087D01*
X47663Y156591D01*
X46500D01*
X45658Y156242D01*
X45309Y155400D01*
Y151400D01*
X45658Y150558D01*
X45309Y149381D01*
X45309Y149381D01*
Y147381D01*
X45658Y146539D01*
X46120Y146347D01*
X46174Y145075D01*
X46085Y145015D01*
X45344Y143907D01*
X45084Y142600D01*
X45344Y141293D01*
X46085Y140185D01*
X47193Y139444D01*
X48500Y139184D01*
X49807Y139444D01*
X50915Y140185D01*
X51656Y141293D01*
X51916Y142600D01*
X51656Y143907D01*
X50915Y145015D01*
X50826Y145075D01*
X50880Y146347D01*
X51342Y146539D01*
X51691Y147381D01*
Y149381D01*
X51342Y150223D01*
X51286Y150278D01*
X51342Y150558D01*
X51691Y151400D01*
X51691Y151400D01*
Y154563D01*
X52769Y155641D01*
X52795Y155636D01*
X53943Y155019D01*
Y151400D01*
X54291Y150558D01*
X53943Y149381D01*
X53943Y149381D01*
Y147381D01*
X54291Y146539D01*
X54699Y146370D01*
X54758Y145075D01*
X54718Y145049D01*
X53978Y143940D01*
X53718Y142633D01*
X53978Y141326D01*
X54718Y140218D01*
X55826Y139478D01*
X56100Y139423D01*
Y134300D01*
X61330D01*
X62300Y134300D01*
X63570Y134300D01*
X67830D01*
X68800Y134300D01*
Y134300D01*
X69100D01*
Y134300D01*
X75300D01*
Y139263D01*
X75707Y139344D01*
X76815Y140085D01*
X77556Y141193D01*
X77816Y142500D01*
X77556Y143807D01*
X76815Y144915D01*
X76576Y145075D01*
X76617Y146280D01*
X77242Y146539D01*
X77591Y147381D01*
Y149381D01*
X77242Y150223D01*
X77186Y150278D01*
X77242Y150558D01*
X77591Y151400D01*
X77591Y151400D01*
Y155400D01*
X77242Y156242D01*
X76400Y156591D01*
X75237D01*
X69741Y162087D01*
Y215713D01*
X94457Y240429D01*
X103462D01*
X104360Y239531D01*
X104360Y237470D01*
X103239Y237110D01*
X102920D01*
Y231840D01*
X110460D01*
X118000D01*
Y237110D01*
X117681D01*
X116560Y237470D01*
X116560Y238380D01*
Y247670D01*
X104360D01*
Y244711D01*
X93570D01*
X92751Y244548D01*
X92056Y244084D01*
X67011Y219039D01*
X65741Y219565D01*
Y224913D01*
X93257Y252429D01*
X104360D01*
Y249470D01*
X116560D01*
Y259670D01*
D02*
G37*
G36*
X118000Y229300D02*
X111730D01*
Y224030D01*
X118000D01*
Y229300D01*
D02*
G37*
G36*
X109190D02*
X102920D01*
Y224030D01*
X109190D01*
Y229300D01*
D02*
G37*
G36*
X176800Y260060D02*
X132600D01*
Y223860D01*
X176800D01*
Y260060D01*
D02*
G37*
G36*
X172480Y220356D02*
X171588Y220179D01*
X169756Y218954D01*
X168531Y217122D01*
X168102Y214960D01*
Y214480D01*
X172480D01*
Y220356D01*
D02*
G37*
G36*
X120000Y222610D02*
X113730D01*
Y212340D01*
X120000D01*
Y222610D01*
D02*
G37*
G36*
X18000D02*
X11730D01*
Y212340D01*
X18000D01*
Y222610D01*
D02*
G37*
G36*
X111190D02*
X104920D01*
Y212340D01*
X111190D01*
Y222610D01*
D02*
G37*
G36*
X9190D02*
X2920D01*
Y212340D01*
X9190D01*
Y222610D01*
D02*
G37*
G36*
X148350Y219140D02*
X146750Y218822D01*
X145394Y217916D01*
X144488Y216560D01*
X144170Y214960D01*
Y214740D01*
X144146Y214724D01*
X141100Y211678D01*
X139830Y212204D01*
Y214960D01*
X139512Y216560D01*
X138606Y217916D01*
X137250Y218822D01*
X135650Y219140D01*
X134050Y218822D01*
X132694Y217916D01*
X131788Y216560D01*
X131470Y214960D01*
Y211460D01*
X131788Y209860D01*
X132694Y208504D01*
X134050Y207598D01*
X135457Y207318D01*
X135814Y207070D01*
X136497Y206192D01*
X136499Y206154D01*
Y198522D01*
X135798Y198232D01*
X135449Y197390D01*
Y193390D01*
X135798Y192548D01*
X135449Y191371D01*
X135449Y191371D01*
Y189371D01*
X135798Y188529D01*
X135826Y188438D01*
X135484Y187927D01*
X135224Y186620D01*
X135484Y185313D01*
X136225Y184205D01*
X137333Y183464D01*
X138640Y183204D01*
X139947Y183464D01*
X141055Y184205D01*
X141796Y185313D01*
X142056Y186620D01*
X141796Y187927D01*
X141454Y188438D01*
X141482Y188529D01*
X141831Y189371D01*
Y191371D01*
X141482Y192213D01*
X141426Y192268D01*
X141482Y192548D01*
X141831Y193390D01*
X141831Y193390D01*
Y197390D01*
X141482Y198232D01*
X140781Y198522D01*
Y205303D01*
X143941Y208463D01*
X145289Y208398D01*
X145793Y207845D01*
X145497Y206595D01*
X145453Y206516D01*
X144375Y205795D01*
X143634Y204687D01*
X143374Y203380D01*
X143634Y202073D01*
X144375Y200965D01*
X144649Y200782D01*
Y198319D01*
X144438Y198232D01*
X144089Y197390D01*
Y193390D01*
X144438Y192548D01*
X144089Y191371D01*
X144089Y191371D01*
Y189371D01*
X144438Y188529D01*
X144461Y188452D01*
X144124Y187947D01*
X143864Y186640D01*
X144124Y185333D01*
X144865Y184225D01*
X145973Y183484D01*
X147280Y183224D01*
X148587Y183484D01*
X149695Y184225D01*
X150436Y185333D01*
X150696Y186640D01*
X150436Y187947D01*
X150098Y188452D01*
X150122Y188529D01*
X150471Y189371D01*
Y191371D01*
X150122Y192213D01*
X150066Y192268D01*
X150122Y192548D01*
X150471Y193390D01*
X150471Y193390D01*
Y197390D01*
X150122Y198232D01*
X149280Y198581D01*
X148931D01*
Y200782D01*
X149205Y200965D01*
X149946Y202073D01*
X150206Y203380D01*
X149946Y204687D01*
X149205Y205795D01*
X148790Y206072D01*
X149059Y207421D01*
X149950Y207598D01*
X151306Y208504D01*
X152212Y209860D01*
X152530Y211460D01*
Y214960D01*
X152212Y216560D01*
X151306Y217916D01*
X149950Y218822D01*
X148350Y219140D01*
D02*
G37*
G36*
X209130Y212890D02*
X207455D01*
X205610Y211045D01*
Y210470D01*
X209130D01*
Y212890D01*
D02*
G37*
G36*
X161050Y219140D02*
X159450Y218822D01*
X158094Y217916D01*
X157188Y216560D01*
X156870Y214960D01*
Y211460D01*
X157188Y209860D01*
X158094Y208504D01*
X159450Y207598D01*
X161050Y207280D01*
X162650Y207598D01*
X164006Y208504D01*
X164912Y209860D01*
X165230Y211460D01*
Y214960D01*
X164912Y216560D01*
X164006Y217916D01*
X162650Y218822D01*
X161050Y219140D01*
D02*
G37*
G36*
X172480Y211940D02*
X168102D01*
Y211460D01*
X168531Y209298D01*
X169756Y207466D01*
X171588Y206241D01*
X172480Y206064D01*
Y211940D01*
D02*
G37*
G36*
X120000Y209800D02*
X113730D01*
Y199530D01*
X120000D01*
Y209800D01*
D02*
G37*
G36*
X111190D02*
X104920D01*
Y199530D01*
X111190D01*
Y209800D01*
D02*
G37*
G36*
X18000D02*
X11730D01*
Y199530D01*
X18000D01*
Y209800D01*
D02*
G37*
G36*
X9190D02*
X2920D01*
Y199530D01*
X9190D01*
Y209800D01*
D02*
G37*
G36*
X228930Y196730D02*
X224660D01*
Y193460D01*
X228930D01*
Y196730D01*
D02*
G37*
G36*
X165646Y206410D02*
X164339Y206150D01*
X163231Y205409D01*
X162490Y204301D01*
X162230Y202994D01*
X162490Y201687D01*
X163231Y200579D01*
X163424Y200450D01*
X163494Y199202D01*
X162946Y198654D01*
X162777Y198401D01*
X162368Y198232D01*
X162019Y197390D01*
Y193390D01*
X162368Y192548D01*
X162019Y191371D01*
X162019Y191371D01*
Y189371D01*
X162368Y188529D01*
X162404Y188410D01*
X162054Y187887D01*
X161794Y186580D01*
X162054Y185273D01*
X162795Y184165D01*
X163903Y183424D01*
X165210Y183164D01*
X166517Y183424D01*
X167625Y184165D01*
X168366Y185273D01*
X168626Y186580D01*
X168366Y187887D01*
X168016Y188410D01*
X168052Y188529D01*
X168401Y189371D01*
Y191371D01*
X168052Y192213D01*
X167996Y192268D01*
X168052Y192548D01*
X168401Y193390D01*
X168401Y193390D01*
Y197390D01*
X168052Y198232D01*
X167787Y198342D01*
Y200396D01*
X168061Y200579D01*
X168801Y201687D01*
X169061Y202994D01*
X168801Y204301D01*
X168061Y205409D01*
X166953Y206150D01*
X165646Y206410D01*
D02*
G37*
G36*
X156570Y206796D02*
X155263Y206536D01*
X154155Y205795D01*
X153414Y204687D01*
X153154Y203380D01*
X153414Y202073D01*
X154155Y200965D01*
X154429Y200782D01*
Y198581D01*
X154400D01*
X153558Y198232D01*
X153209Y197390D01*
Y193390D01*
X153558Y192548D01*
X153209Y191371D01*
X153209Y191371D01*
Y189371D01*
X153558Y188529D01*
X153607Y188369D01*
X153244Y187827D01*
X152984Y186520D01*
X153244Y185213D01*
X153985Y184105D01*
X155093Y183364D01*
X156400Y183104D01*
X157707Y183364D01*
X158815Y184105D01*
X159556Y185213D01*
X159816Y186520D01*
X159556Y187827D01*
X159193Y188369D01*
X159242Y188529D01*
X159591Y189371D01*
Y191371D01*
X159242Y192213D01*
X159186Y192268D01*
X159242Y192548D01*
X159591Y193390D01*
X159591Y193390D01*
Y197390D01*
X159242Y198232D01*
X158711Y198452D01*
Y200782D01*
X158985Y200965D01*
X159726Y202073D01*
X159986Y203380D01*
X159726Y204687D01*
X158985Y205795D01*
X157877Y206536D01*
X156570Y206796D01*
D02*
G37*
G36*
X86260Y177920D02*
X73060D01*
Y165720D01*
X86260D01*
Y177920D01*
D02*
G37*
G36*
X49860D02*
X36660D01*
Y165720D01*
X49860D01*
Y177920D01*
D02*
G37*
G36*
X115640Y170886D02*
X114333Y170626D01*
X113225Y169885D01*
X112484Y168777D01*
X112224Y167470D01*
X112484Y166163D01*
X113225Y165055D01*
X114333Y164314D01*
X114949Y164192D01*
Y160865D01*
X114876Y160757D01*
X114694Y159840D01*
Y153340D01*
X114876Y152423D01*
X115396Y151646D01*
X115979Y151256D01*
X115921Y150418D01*
X115768Y149986D01*
X109840D01*
X108923Y149804D01*
X108815Y149731D01*
X104267D01*
X102691Y151307D01*
Y160905D01*
X102825Y160995D01*
X103566Y162103D01*
X103826Y163410D01*
X103566Y164717D01*
X102825Y165825D01*
X101717Y166566D01*
X100410Y166826D01*
X99103Y166566D01*
X97995Y165825D01*
X97254Y164717D01*
X96994Y163410D01*
X97254Y162103D01*
X97995Y160995D01*
X98409Y160718D01*
Y153131D01*
X97139Y152349D01*
X96300Y152516D01*
X94993Y152256D01*
X93885Y151515D01*
X93144Y150407D01*
X92884Y149100D01*
X93144Y147793D01*
X93159Y147771D01*
Y143332D01*
X92458Y143042D01*
X91254Y143453D01*
X91060Y143786D01*
X91066Y143843D01*
X91316Y145100D01*
X91056Y146407D01*
X90315Y147515D01*
X89207Y148256D01*
X87900Y148516D01*
X86593Y148256D01*
X85485Y147515D01*
X84744Y146407D01*
X84484Y145100D01*
X84744Y143793D01*
X85117Y143235D01*
X85058Y143042D01*
X84709Y142200D01*
Y140200D01*
X85058Y139358D01*
X85114Y139302D01*
X85058Y139022D01*
X84709Y138180D01*
X84709Y138180D01*
Y134180D01*
X85058Y133338D01*
X85859Y133007D01*
Y132600D01*
X86022Y131781D01*
X86486Y131086D01*
X99586Y117986D01*
X100281Y117522D01*
X101100Y117359D01*
X119280D01*
X120099Y117522D01*
X120794Y117986D01*
X124217Y121409D01*
X124540Y121344D01*
X125847Y121604D01*
X126955Y122345D01*
X127696Y123453D01*
X127956Y124760D01*
X127696Y126067D01*
X127264Y126713D01*
X127709Y128017D01*
X127763Y128078D01*
X128007Y128126D01*
X128784Y128646D01*
X128826Y128709D01*
X130354D01*
X130396Y128646D01*
X131173Y128126D01*
X132090Y127944D01*
X133007Y128126D01*
X133784Y128646D01*
X133826Y128709D01*
X135354D01*
X135396Y128646D01*
X136173Y128126D01*
X137090Y127944D01*
X138007Y128126D01*
X138784Y128646D01*
X139304Y129423D01*
X139486Y130340D01*
Y136840D01*
X139304Y137757D01*
X138784Y138534D01*
X138201Y138924D01*
X138259Y139762D01*
X138412Y140194D01*
X143891D01*
X144429Y140093D01*
X145307Y139092D01*
X145394Y138653D01*
X146135Y137545D01*
X147243Y136804D01*
X148550Y136544D01*
X149857Y136804D01*
X150965Y137545D01*
X151706Y138653D01*
X151966Y139960D01*
X151706Y141267D01*
X150965Y142375D01*
X149857Y143116D01*
X148550Y143376D01*
X148227Y143311D01*
X147753Y143785D01*
X147446Y144269D01*
X147542Y145560D01*
X147910Y146111D01*
X147952Y146320D01*
X141090D01*
Y147590D01*
X139820D01*
Y151901D01*
X139364Y152724D01*
X139486Y153340D01*
Y159840D01*
X139304Y160757D01*
X138784Y161534D01*
X138007Y162054D01*
X137090Y162236D01*
X136173Y162054D01*
X135396Y161534D01*
X135354Y161471D01*
X133826D01*
X133784Y161534D01*
X133007Y162054D01*
X132090Y162236D01*
X131173Y162054D01*
X130396Y161534D01*
X130354Y161471D01*
X128826D01*
X128784Y161534D01*
X128007Y162054D01*
X127090Y162236D01*
X126173Y162054D01*
X125501Y161605D01*
X124984Y161726D01*
X124231Y162077D01*
Y164862D01*
X124505Y165045D01*
X125246Y166153D01*
X125506Y167460D01*
X125246Y168767D01*
X124505Y169875D01*
X123397Y170616D01*
X122090Y170876D01*
X120783Y170616D01*
X119675Y169875D01*
X119632Y169811D01*
X118105D01*
X118055Y169885D01*
X116947Y170626D01*
X115640Y170886D01*
D02*
G37*
G36*
X144340Y151454D02*
X142360D01*
Y148860D01*
X147952D01*
X147910Y149069D01*
X147072Y150322D01*
X145819Y151160D01*
X144340Y151454D01*
D02*
G37*
G36*
X14530Y148540D02*
X11260D01*
Y144270D01*
X14530D01*
Y148540D01*
D02*
G37*
G36*
X20340D02*
X17070D01*
Y143000D01*
Y137460D01*
X20340D01*
Y137779D01*
X20700Y138900D01*
X26900D01*
Y139129D01*
X33600D01*
X35005Y139409D01*
X36195Y140204D01*
X36991Y141395D01*
X37271Y142800D01*
X36991Y144205D01*
X36195Y145395D01*
X35005Y146191D01*
X33600Y146470D01*
X26900D01*
Y147100D01*
X20700D01*
X20340Y148221D01*
Y148540D01*
D02*
G37*
G36*
X14530Y141730D02*
X11260D01*
Y137460D01*
X14530D01*
Y141730D01*
D02*
G37*
G36*
X77400Y130415D02*
X76093Y130155D01*
X74985Y129415D01*
X74244Y128307D01*
X73984Y127000D01*
X74049Y126677D01*
X71452Y124080D01*
X70240Y123940D01*
X70240Y123940D01*
X70240Y123940D01*
X66970D01*
Y118900D01*
Y113860D01*
X70240D01*
Y115300D01*
X73513D01*
X74039Y114030D01*
X68509Y108500D01*
X52771D01*
Y118300D01*
X52491Y119705D01*
X51695Y120895D01*
X50505Y121691D01*
X49100Y121971D01*
X47695Y121691D01*
X46505Y120895D01*
X45709Y119705D01*
X45430Y118300D01*
Y108500D01*
X41300D01*
Y86300D01*
X72586D01*
X73500Y86300D01*
X74462Y85557D01*
X74585Y85374D01*
X75693Y84634D01*
X77000Y84374D01*
X78307Y84634D01*
X79415Y85374D01*
X80156Y86482D01*
X80416Y87789D01*
X80156Y89096D01*
X79415Y90204D01*
X78307Y90945D01*
X77000Y91205D01*
X75693Y90945D01*
X74770Y90328D01*
X74038Y90538D01*
X73500Y90867D01*
Y103109D01*
X85695Y115304D01*
X86491Y116495D01*
X86770Y117900D01*
X86491Y119305D01*
X85695Y120495D01*
X84505Y121291D01*
X83100Y121571D01*
X81695Y121291D01*
X80505Y120495D01*
X76570Y116561D01*
X75300Y117087D01*
Y121872D01*
X77077Y123648D01*
X77400Y123584D01*
X78707Y123844D01*
X79815Y124585D01*
X80555Y125693D01*
X80602Y125928D01*
X80771Y126180D01*
X80934Y127000D01*
X80771Y127819D01*
X80602Y128071D01*
X80555Y128307D01*
X79815Y129415D01*
X78707Y130155D01*
X77400Y130415D01*
D02*
G37*
G36*
X64430Y123940D02*
X61160D01*
Y122500D01*
X56100D01*
Y115300D01*
X61160D01*
Y113860D01*
X64430D01*
Y118900D01*
Y123940D01*
D02*
G37*
G36*
X38700Y133600D02*
X26500D01*
Y123128D01*
X10786Y107414D01*
X10761Y107377D01*
X9491Y107762D01*
Y113400D01*
X13700D01*
Y133600D01*
X1500D01*
Y113400D01*
X5209D01*
Y94300D01*
X4700D01*
Y88190D01*
X4010D01*
Y80670D01*
X17300D01*
X30590D01*
Y85660D01*
X31340D01*
Y89430D01*
X27300D01*
Y90700D01*
X26030D01*
Y95740D01*
X24441D01*
Y97200D01*
X24278Y98019D01*
X23814Y98714D01*
X23701Y98827D01*
X23766Y99150D01*
X23506Y100457D01*
X22765Y101565D01*
X21657Y102306D01*
X20350Y102566D01*
X19043Y102306D01*
X17935Y101565D01*
X17194Y100457D01*
X16934Y99150D01*
X17194Y97843D01*
X17935Y96735D01*
X19043Y95994D01*
X20159Y95772D01*
Y94300D01*
X14441D01*
Y105013D01*
X20679Y111251D01*
X21477Y110953D01*
X21908Y110683D01*
X22144Y109493D01*
X22885Y108385D01*
X23993Y107644D01*
X25300Y107384D01*
X26607Y107644D01*
X27715Y108385D01*
X28456Y109493D01*
X28716Y110800D01*
X28456Y112107D01*
X28440Y112130D01*
X29119Y113400D01*
X38700D01*
Y133600D01*
D02*
G37*
G36*
X152040Y109810D02*
X147770D01*
Y106540D01*
X152040D01*
Y109810D01*
D02*
G37*
G36*
X145230D02*
X140960D01*
Y106540D01*
X145230D01*
Y109810D01*
D02*
G37*
G36*
X164800Y117115D02*
X163493Y116855D01*
X162384Y116115D01*
X161644Y115007D01*
X161384Y113700D01*
X161644Y112393D01*
X162384Y111285D01*
X163043Y110845D01*
X163168Y110588D01*
X163279Y109564D01*
X163224Y109312D01*
X157926Y104014D01*
X157462Y103319D01*
X157299Y102500D01*
Y102346D01*
X156029Y101667D01*
X155567Y101976D01*
X154260Y102236D01*
X153310Y102047D01*
X152040Y102777D01*
Y104000D01*
X146500D01*
X140960D01*
Y102881D01*
X136997D01*
X136570Y103308D01*
Y107480D01*
X128370D01*
Y101280D01*
X132542D01*
X134072Y99750D01*
X133546Y98480D01*
X128370D01*
Y92280D01*
X130329D01*
Y88150D01*
X129330D01*
Y86233D01*
X128813Y85907D01*
X128060Y85686D01*
X127147Y86296D01*
X125840Y86556D01*
X125367Y86461D01*
X123030Y88798D01*
X123030Y92970D01*
X124151Y93330D01*
X124470D01*
Y96600D01*
X118930D01*
X113390D01*
Y93330D01*
X113709D01*
X114830Y92970D01*
X114830Y92060D01*
Y86770D01*
X119002D01*
X122459Y83313D01*
X122424Y83140D01*
X122684Y81833D01*
X123314Y80891D01*
X123124Y80202D01*
X122790Y79621D01*
X120100D01*
Y80580D01*
X111900D01*
X111900Y74380D01*
X110779Y74020D01*
X110460D01*
Y70750D01*
X116000D01*
X121540D01*
Y74020D01*
X121540D01*
X121260Y75290D01*
X121268Y75339D01*
X123415D01*
X123584Y75085D01*
X124693Y74344D01*
X126000Y74084D01*
X127307Y74344D01*
X128060Y74847D01*
X129210Y74390D01*
X129330Y74285D01*
Y72950D01*
X137530D01*
Y77122D01*
X140514Y80106D01*
X140978Y80800D01*
X141141Y81620D01*
Y89201D01*
X141415Y89385D01*
X142155Y90493D01*
X142415Y91800D01*
X142286Y92451D01*
X143173Y93170D01*
X143934Y92190D01*
X144194Y90883D01*
X144935Y89775D01*
X146043Y89034D01*
X146415Y88960D01*
X146970Y87920D01*
X146970Y87555D01*
Y83650D01*
X151510D01*
Y82380D01*
X152780D01*
Y76840D01*
X156050D01*
Y77159D01*
X156410Y78280D01*
X157320Y78280D01*
X162610D01*
Y78909D01*
X172980D01*
X173610Y77900D01*
Y71700D01*
X172489Y71340D01*
X172170D01*
Y68070D01*
X177710D01*
Y65530D01*
X172170D01*
Y62260D01*
X175913D01*
X176399Y61087D01*
X176196Y60884D01*
X175732Y60189D01*
X175569Y59370D01*
Y58700D01*
X173610D01*
X173610Y52500D01*
X172489Y52140D01*
X172170D01*
Y48870D01*
X177710D01*
X183250D01*
Y52140D01*
X182931D01*
X181810Y52500D01*
X181810Y53410D01*
Y58700D01*
X182998Y58899D01*
X186280D01*
X187099Y59062D01*
X187794Y59526D01*
X189684Y61416D01*
X190148Y62111D01*
X190311Y62930D01*
Y64422D01*
X190585Y64605D01*
X191326Y65713D01*
X191586Y67020D01*
X191326Y68327D01*
X190585Y69435D01*
X189477Y70176D01*
X189828Y71352D01*
X189855Y71393D01*
X190115Y72700D01*
X189855Y74007D01*
X189115Y75115D01*
X188007Y75855D01*
X187821Y75892D01*
Y92830D01*
X190830D01*
Y102060D01*
X190830Y103330D01*
X190830Y103800D01*
Y113030D01*
X180130D01*
Y103800D01*
X180130Y102530D01*
X180130Y102060D01*
Y93739D01*
X179310Y93066D01*
X178600Y92924D01*
X177440Y93694D01*
X177330Y93868D01*
Y102060D01*
X177330Y103330D01*
X177330Y103800D01*
Y113030D01*
X168765D01*
X168215Y113700D01*
X167955Y115007D01*
X167215Y116115D01*
X166107Y116855D01*
X164800Y117115D01*
D02*
G37*
G36*
X124470Y102410D02*
X120200D01*
Y99140D01*
X124470D01*
Y102410D01*
D02*
G37*
G36*
X117660D02*
X113390D01*
Y99140D01*
X117660D01*
Y102410D01*
D02*
G37*
G36*
X31340Y95740D02*
X28570D01*
Y91970D01*
X31340D01*
Y95740D01*
D02*
G37*
G36*
X150240Y81110D02*
X146970D01*
Y76840D01*
X150240D01*
Y81110D01*
D02*
G37*
G36*
X38200Y80656D02*
X36893Y80396D01*
X35785Y79655D01*
X35044Y78547D01*
X35026Y78455D01*
X34762Y78059D01*
X34599Y77240D01*
X34762Y76421D01*
X35026Y76025D01*
X35044Y75933D01*
X35785Y74825D01*
X36893Y74084D01*
X38200Y73824D01*
X39507Y74084D01*
X41013Y73563D01*
X41288Y73152D01*
X42396Y72412D01*
X43703Y72152D01*
X45010Y72412D01*
X46118Y73152D01*
X46859Y74260D01*
X47119Y75567D01*
X46859Y76874D01*
X46118Y77983D01*
X45010Y78723D01*
X43703Y78983D01*
X42607Y78765D01*
X41356Y78547D01*
X40615Y79655D01*
X39507Y80396D01*
X38200Y80656D01*
D02*
G37*
G36*
X114730Y68210D02*
X110460D01*
Y64940D01*
X114730D01*
Y68210D01*
D02*
G37*
G36*
X30590Y78130D02*
X17300D01*
X4010D01*
Y70610D01*
X4700D01*
Y64500D01*
X5159D01*
Y62300D01*
X4300D01*
Y54140D01*
X4144Y53907D01*
X3884Y52600D01*
X4144Y51293D01*
X4885Y50185D01*
X5993Y49444D01*
X7300Y49184D01*
X8607Y49444D01*
X9715Y50185D01*
X10456Y51293D01*
X10716Y52600D01*
X10657Y52895D01*
X10500Y54100D01*
X10500Y54100D01*
X10500Y54100D01*
Y62300D01*
X9441D01*
Y64500D01*
X18556D01*
X18884Y64100D01*
X18908Y63983D01*
X18534Y62809D01*
Y62809D01*
X18534Y62809D01*
X18534D01*
X18074Y62313D01*
X18046Y62300D01*
X17660Y62300D01*
X17573Y62300D01*
X12300D01*
Y54100D01*
X18500D01*
Y61139D01*
X18500Y61471D01*
X19231Y61693D01*
X19231Y61693D01*
X19232Y61693D01*
Y61693D01*
X20414Y61331D01*
X20993Y60944D01*
X22300Y60684D01*
X23607Y60944D01*
X24715Y61685D01*
X25298Y62557D01*
X26495Y62062D01*
X26454Y61860D01*
X26714Y60553D01*
X27455Y59445D01*
X28563Y58704D01*
X29870Y58444D01*
X31177Y58704D01*
X32285Y59445D01*
X32468Y59719D01*
X103753D01*
X107486Y55986D01*
X108181Y55522D01*
X109000Y55359D01*
X117960D01*
X118639Y54089D01*
X118484Y53857D01*
X118224Y52550D01*
X118484Y51243D01*
X119225Y50135D01*
X120333Y49394D01*
X121640Y49134D01*
X122947Y49394D01*
X124055Y50135D01*
X124796Y51243D01*
X125056Y52550D01*
X124796Y53857D01*
X124641Y54089D01*
X125320Y55359D01*
X129013D01*
X135459Y48913D01*
Y46600D01*
X135622Y45781D01*
X136086Y45086D01*
X144786Y36386D01*
X145481Y35922D01*
X146300Y35759D01*
X159713D01*
X160558Y34913D01*
Y31498D01*
X160285Y31315D01*
X159544Y30207D01*
X158086Y29387D01*
X157640Y29476D01*
X156333Y29216D01*
X155225Y28475D01*
X154484Y27367D01*
X154224Y26060D01*
X154484Y24753D01*
X155225Y23645D01*
X156333Y22904D01*
X157640Y22644D01*
X158947Y22904D01*
X160055Y23645D01*
X160796Y24753D01*
X162254Y25573D01*
X162700Y25484D01*
X163139Y25572D01*
X164224Y24520D01*
X164484Y23213D01*
X165225Y22105D01*
X166333Y21364D01*
X167640Y21104D01*
X168947Y21364D01*
X170055Y22105D01*
X170796Y23213D01*
X171056Y24520D01*
X170796Y25827D01*
X170055Y26935D01*
X168947Y27676D01*
X167640Y27936D01*
X167201Y27848D01*
X166115Y28900D01*
X165855Y30207D01*
X165115Y31315D01*
X164841Y31498D01*
Y35800D01*
X164678Y36620D01*
X164214Y37314D01*
X162114Y39414D01*
X161419Y39878D01*
X160600Y40041D01*
X147187D01*
X139741Y47487D01*
Y49800D01*
X139578Y50619D01*
X139114Y51314D01*
X131414Y59014D01*
X130719Y59478D01*
X129900Y59641D01*
X125003D01*
X124324Y60911D01*
X124546Y61243D01*
X124806Y62550D01*
X124546Y63857D01*
X123805Y64965D01*
X122697Y65706D01*
X121540Y65936D01*
Y68210D01*
X117270D01*
Y64940D01*
X117655D01*
X117696Y64865D01*
X118197Y63670D01*
X117974Y62550D01*
X118234Y61243D01*
X118456Y60911D01*
X117777Y59641D01*
X109887D01*
X106154Y63374D01*
X105459Y63838D01*
X104640Y64001D01*
X32468D01*
X32285Y64275D01*
X31177Y65016D01*
X29900Y65270D01*
Y70610D01*
X30590D01*
Y78130D01*
D02*
G37*
G36*
X115010Y50966D02*
X113703Y50706D01*
X112595Y49965D01*
X111854Y48857D01*
X111594Y47550D01*
X111854Y46243D01*
X112595Y45135D01*
X113703Y44394D01*
X115010Y44134D01*
X116317Y44394D01*
X117425Y45135D01*
X118166Y46243D01*
X118426Y47550D01*
X118166Y48857D01*
X117425Y49965D01*
X116317Y50706D01*
X115010Y50966D01*
D02*
G37*
G36*
X183250Y46330D02*
X178980D01*
Y43060D01*
X183250D01*
Y46330D01*
D02*
G37*
G36*
X176440D02*
X172170D01*
Y43060D01*
X176440D01*
Y46330D01*
D02*
G37*
G36*
X74940Y49940D02*
X58670D01*
Y38670D01*
X74940D01*
Y40498D01*
X75922Y41304D01*
X76003Y41287D01*
X77310Y41547D01*
X78418Y42288D01*
X79159Y43396D01*
X79419Y44703D01*
X79159Y46010D01*
X78418Y47118D01*
X77310Y47859D01*
X76003Y48119D01*
X75922Y48102D01*
X74940Y48908D01*
Y49940D01*
D02*
G37*
G36*
X121530Y45966D02*
X120223Y45706D01*
X119115Y44965D01*
X118374Y43857D01*
X118114Y42550D01*
X118374Y41243D01*
X119115Y40135D01*
X120223Y39394D01*
X121530Y39134D01*
X122837Y39394D01*
X123945Y40135D01*
X124686Y41243D01*
X124946Y42550D01*
X124686Y43857D01*
X123945Y44965D01*
X122837Y45706D01*
X121530Y45966D01*
D02*
G37*
G36*
X56130Y49940D02*
X39860D01*
Y38670D01*
X56130D01*
Y49940D01*
D02*
G37*
G36*
X102700Y34616D02*
X101393Y34356D01*
X100285Y33615D01*
X99544Y32507D01*
X99284Y31200D01*
X99544Y29893D01*
X100285Y28785D01*
X101393Y28044D01*
X102700Y27784D01*
X104007Y28044D01*
X105115Y28785D01*
X105855Y29893D01*
X106115Y31200D01*
X105855Y32507D01*
X105115Y33615D01*
X104007Y34356D01*
X102700Y34616D01*
D02*
G37*
G36*
X147550Y34136D02*
X146243Y33876D01*
X145135Y33135D01*
X144394Y32027D01*
X144134Y30720D01*
X144394Y29413D01*
X145135Y28305D01*
X146243Y27565D01*
X147550Y27305D01*
X148857Y27565D01*
X149965Y28305D01*
X150706Y29413D01*
X150966Y30720D01*
X150706Y32027D01*
X149965Y33135D01*
X148857Y33876D01*
X147550Y34136D01*
D02*
G37*
G36*
X116100Y33816D02*
X114793Y33556D01*
X113685Y32815D01*
X112944Y31707D01*
X112684Y30400D01*
X112944Y29093D01*
X113685Y27985D01*
X114793Y27244D01*
X116100Y26984D01*
X117407Y27244D01*
X118515Y27985D01*
X119256Y29093D01*
X119516Y30400D01*
X119256Y31707D01*
X118515Y32815D01*
X117407Y33556D01*
X116100Y33816D01*
D02*
G37*
G36*
X74940Y36130D02*
X58670D01*
Y24860D01*
X59778D01*
X60484Y24000D01*
X60744Y22693D01*
X61485Y21585D01*
X62593Y20844D01*
X63900Y20584D01*
X65207Y20844D01*
X66315Y21585D01*
X67056Y22693D01*
X67316Y24000D01*
X68021Y24860D01*
X74940D01*
Y26937D01*
X76210Y27534D01*
X76853Y27104D01*
X78160Y26844D01*
X79467Y27104D01*
X80575Y27845D01*
X81316Y28953D01*
X81576Y30260D01*
X81316Y31567D01*
X80575Y32675D01*
X79467Y33416D01*
X78160Y33676D01*
X76853Y33416D01*
X76210Y32986D01*
X74940Y33583D01*
Y36130D01*
D02*
G37*
G36*
X56130D02*
X39860D01*
Y24860D01*
X56130D01*
Y36130D01*
D02*
G37*
G36*
X140620Y30036D02*
X139313Y29776D01*
X138205Y29035D01*
X137464Y27927D01*
X137204Y26620D01*
X137464Y25313D01*
X138205Y24205D01*
X139313Y23464D01*
X140620Y23204D01*
X141927Y23464D01*
X142401Y23781D01*
X143276Y22970D01*
X143339Y22880D01*
X143084Y21600D01*
X143344Y20293D01*
X144085Y19185D01*
X145193Y18444D01*
X146500Y18184D01*
X147807Y18444D01*
X148915Y19185D01*
X149656Y20293D01*
X149916Y21600D01*
X149656Y22907D01*
X148915Y24015D01*
X147807Y24756D01*
X146500Y25016D01*
X145193Y24756D01*
X144719Y24439D01*
X143844Y25250D01*
X143781Y25340D01*
X144036Y26620D01*
X143776Y27927D01*
X143035Y29035D01*
X141927Y29776D01*
X140620Y30036D01*
D02*
G37*
G36*
X98900Y26200D02*
X92700D01*
Y18000D01*
X98900D01*
Y20175D01*
X98915Y20185D01*
X99655Y21293D01*
X99915Y22600D01*
X99655Y23907D01*
X98915Y25015D01*
X98900Y25025D01*
Y26200D01*
D02*
G37*
G36*
X90810Y34066D02*
X89503Y33806D01*
X88395Y33066D01*
X87655Y31957D01*
X87395Y30650D01*
X87655Y29343D01*
X88395Y28235D01*
X89503Y27495D01*
X89628Y27470D01*
X89503Y26200D01*
X84700D01*
Y26096D01*
X83493Y25856D01*
X82385Y25115D01*
X81644Y24007D01*
X81384Y22700D01*
X81644Y21393D01*
X82385Y20285D01*
X83493Y19544D01*
X84700Y19304D01*
Y18000D01*
X90900D01*
Y26021D01*
X90900Y26200D01*
X91255Y27323D01*
X92118Y27495D01*
X93226Y28235D01*
X93966Y29343D01*
X94226Y30650D01*
X93966Y31957D01*
X93226Y33066D01*
X92118Y33806D01*
X90810Y34066D01*
D02*
G37*
G36*
X130170Y13396D02*
Y9270D01*
X134296D01*
X134119Y10162D01*
X132894Y11994D01*
X131062Y13219D01*
X130170Y13396D01*
D02*
G37*
G36*
X127630D02*
X126738Y13219D01*
X124906Y11994D01*
X123681Y10162D01*
X123504Y9270D01*
X127630D01*
Y13396D01*
D02*
G37*
G36*
X15000Y27204D02*
X11841Y26789D01*
X8898Y25569D01*
X6370Y23630D01*
X4431Y21102D01*
X3211Y18159D01*
X2796Y15000D01*
X3211Y11841D01*
X4431Y8898D01*
X6370Y6370D01*
X8898Y4431D01*
X11841Y3211D01*
X15000Y2796D01*
X18159Y3211D01*
X21102Y4431D01*
X23630Y6370D01*
X25569Y8898D01*
X26789Y11841D01*
X27204Y15000D01*
X26789Y18159D01*
X25569Y21102D01*
X23630Y23630D01*
X21102Y25569D01*
X18159Y26789D01*
X15000Y27204D01*
D02*
G37*
%LPD*%
G36*
X193800Y251900D02*
X191800Y253900D01*
X189800Y251900D01*
Y255900D01*
X193800D01*
Y251900D01*
D02*
G37*
G36*
Y249881D02*
Y247881D01*
X189800D01*
Y249881D01*
X191800Y251881D01*
X193800Y249881D01*
D02*
G37*
G36*
X76400Y151400D02*
X74400Y153400D01*
X72400Y151400D01*
Y155400D01*
X76400D01*
Y151400D01*
D02*
G37*
G36*
X67767D02*
X65767Y153400D01*
X63767Y151400D01*
Y155400D01*
X67767D01*
Y151400D01*
D02*
G37*
G36*
X59133D02*
X57133Y153400D01*
X55133Y151400D01*
Y155400D01*
X59133D01*
Y151400D01*
D02*
G37*
G36*
X50500D02*
X48500Y153400D01*
X46500Y151400D01*
Y155400D01*
X50500D01*
Y151400D01*
D02*
G37*
G36*
X76400Y149381D02*
Y147381D01*
X72400D01*
Y149381D01*
X74400Y151381D01*
X76400Y149381D01*
D02*
G37*
G36*
X67767D02*
Y147381D01*
X63767D01*
Y149381D01*
X65767Y151381D01*
X67767Y149381D01*
D02*
G37*
G36*
X59133D02*
Y147381D01*
X55133D01*
Y149381D01*
X57133Y151381D01*
X59133Y149381D01*
D02*
G37*
G36*
X50500D02*
Y147381D01*
X46500D01*
Y149381D01*
X48500Y151381D01*
X50500Y149381D01*
D02*
G37*
G36*
X149280Y193390D02*
X147280Y195390D01*
X145280Y193390D01*
Y197390D01*
X149280D01*
Y193390D01*
D02*
G37*
G36*
X140640D02*
X138640Y195390D01*
X136640Y193390D01*
Y197390D01*
X140640D01*
Y193390D01*
D02*
G37*
G36*
X149280Y191371D02*
Y189371D01*
X145280D01*
Y191371D01*
X147280Y193371D01*
X149280Y191371D01*
D02*
G37*
G36*
X140640D02*
Y189371D01*
X136640D01*
Y191371D01*
X138640Y193371D01*
X140640Y191371D01*
D02*
G37*
G36*
X167210Y193390D02*
X165210Y195390D01*
X163210Y193390D01*
Y197390D01*
X167210D01*
Y193390D01*
D02*
G37*
G36*
Y191371D02*
Y189371D01*
X163210D01*
Y191371D01*
X165210Y193371D01*
X167210Y191371D01*
D02*
G37*
G36*
X158400Y193390D02*
X156400Y195390D01*
X154400Y193390D01*
Y197390D01*
X158400D01*
Y193390D01*
D02*
G37*
G36*
Y191371D02*
Y189371D01*
X154400D01*
Y191371D01*
X156400Y193371D01*
X158400Y191371D01*
D02*
G37*
G36*
X97300Y140200D02*
X95300Y138200D01*
X93300Y140200D01*
Y142200D01*
X97300D01*
Y140200D01*
D02*
G37*
G36*
X89900D02*
X87900Y138200D01*
X85900Y140200D01*
Y142200D01*
X89900D01*
Y140200D01*
D02*
G37*
G36*
X97300Y134180D02*
X93300D01*
Y138180D01*
X95300Y136180D01*
X97300Y138180D01*
Y134180D01*
D02*
G37*
G36*
X89900D02*
X85900D01*
Y138180D01*
X87900Y136180D01*
X89900Y138180D01*
Y134180D01*
D02*
G37*
D11*
X207460Y232650D02*
Y237620D01*
X202203Y227393D02*
X207460Y232650D01*
X202203Y223603D02*
Y227393D01*
D12*
X214550Y200780D02*
Y205950D01*
Y212760D01*
D15*
X171770Y66550D02*
X177710D01*
X165646Y198326D02*
Y202994D01*
X164460Y197140D02*
X165646Y198326D01*
X139000Y81620D02*
Y91800D01*
X133430Y76050D02*
X139000Y81620D01*
X230220Y206020D02*
Y215592D01*
X234788Y217400D02*
Y220378D01*
X119280Y119500D02*
X124540Y124760D01*
X101100Y119500D02*
X119280D01*
X88000Y132600D02*
X101100Y119500D01*
X67600Y216600D02*
X93570Y242570D01*
X67600Y161200D02*
Y216600D01*
Y161200D02*
X74400Y154400D01*
X63600Y225800D02*
X92370Y254570D01*
X63600Y160800D02*
Y225800D01*
Y160800D02*
X65767Y158633D01*
X30830Y254570D02*
X59200Y226200D01*
Y160200D02*
Y226200D01*
X57133Y158133D02*
X59200Y160200D01*
X41630Y230570D02*
X55300Y216900D01*
Y161200D02*
Y216900D01*
X48500Y154400D02*
X55300Y161200D01*
X36740Y77240D02*
X38200D01*
X191800Y249100D02*
Y249380D01*
X191800Y249380D01*
X213290Y222640D02*
X213350D01*
X210760D02*
X213290D01*
X109000Y57500D02*
X129900D01*
X186220Y72700D02*
X186700D01*
X185680Y73240D02*
X186220Y72700D01*
X158250Y83640D02*
X159510Y82380D01*
X158250Y83640D02*
Y96501D01*
X159440Y97691D02*
Y102500D01*
X158250Y96501D02*
X159440Y97691D01*
Y102500D02*
X165120Y108180D01*
X132470Y86010D02*
Y95380D01*
X118930Y89870D02*
X125840Y82960D01*
Y83140D01*
X143030Y100740D02*
X146500Y97270D01*
X136110Y100740D02*
X143030D01*
X132470Y104380D02*
X136110Y100740D01*
X146500Y97270D02*
X147350Y96420D01*
X190160Y264780D02*
Y268760D01*
X189970Y276950D02*
Y282840D01*
X12300Y105900D02*
X29900Y123500D01*
X12300Y90700D02*
Y105900D01*
X29900Y123500D02*
X32600D01*
X22300Y64100D02*
Y68100D01*
X7300Y52600D02*
Y68050D01*
X7350Y68100D01*
X20350Y99150D02*
X22300Y97200D01*
Y90700D02*
Y97200D01*
X7350Y90700D02*
Y123250D01*
X7600Y123500D01*
X72200Y121800D02*
X77400Y127000D01*
X72200Y118900D02*
Y121800D01*
Y140300D02*
X74400Y142500D01*
X72200Y137900D02*
Y140300D01*
X65700Y137900D02*
Y142467D01*
X57133Y142633D02*
X59200Y140567D01*
Y137900D02*
Y140567D01*
X77400Y127000D02*
X78793D01*
X95300Y135180D02*
Y135280D01*
Y130000D02*
Y135180D01*
X147350Y92190D02*
Y96420D01*
X95300Y148100D02*
X96300Y149100D01*
X95300Y140800D02*
Y148100D01*
X100550Y150420D02*
Y163270D01*
X100410Y163410D02*
X100550Y163270D01*
Y150420D02*
X103380Y147590D01*
X87900Y140700D02*
Y145100D01*
X88000Y132600D02*
Y135080D01*
X87900Y135180D02*
X88000Y135080D01*
X100520Y124780D02*
X117090D01*
X95300Y130000D02*
X100520Y124780D01*
X230200Y198000D02*
X237300D01*
X242000Y193300D01*
X226200Y206000D02*
X230200D01*
X222900Y202700D02*
X226200Y206000D01*
X233200D02*
X233200Y206000D01*
X242000D01*
X231200D02*
X233200D01*
X218700Y202700D02*
X222900D01*
X162700Y28900D02*
Y35800D01*
X160600Y37900D02*
X162700Y35800D01*
X129900Y57500D02*
X137600Y49800D01*
X104640Y61860D02*
X109000Y57500D01*
X151590Y283980D02*
X155320Y287710D01*
X141980Y283980D02*
X151590D01*
X165120Y108180D02*
X171980D01*
X104710Y142590D02*
X113090D01*
X145920D02*
X148550Y139960D01*
X141090Y142590D02*
X145920D01*
X117090Y124780D02*
Y133590D01*
X122090Y127210D02*
X124540Y124760D01*
X122090Y127210D02*
Y133590D01*
X115640Y167470D02*
X117090Y166020D01*
Y156590D02*
Y166020D01*
X122090Y156590D02*
Y167460D01*
X103380Y147590D02*
X113090D01*
X165210Y186580D02*
Y190870D01*
X145660Y213210D02*
X148350D01*
X138640Y206190D02*
X145660Y213210D01*
X138640Y196390D02*
Y206190D01*
X164460Y197140D02*
X165210Y196390D01*
X156570Y196560D02*
Y203380D01*
X156420Y196410D02*
X156570Y196560D01*
X146790Y196880D02*
Y203380D01*
Y196880D02*
X147280Y196390D01*
X156400Y186520D02*
Y190870D01*
X147280Y186640D02*
Y190870D01*
X138640Y186620D02*
Y190870D01*
X173760Y270720D02*
Y278500D01*
X173750Y270710D02*
X173760Y270720D01*
X161050Y270710D02*
Y277080D01*
X148350Y273180D02*
X150470Y275300D01*
X148350Y270710D02*
Y273180D01*
Y209520D02*
Y213210D01*
X152790Y66550D02*
X171770D01*
X172990Y47600D02*
X177710D01*
X171770Y48820D02*
X172990Y47600D01*
X188170Y62930D02*
Y67020D01*
X186280Y61040D02*
X188170Y62930D01*
X179380Y61040D02*
X186280D01*
X177710Y59370D02*
X179380Y61040D01*
X177710Y55600D02*
Y59370D01*
X116000Y69480D02*
X127030D01*
X116000Y77480D02*
X125950D01*
X149980Y80850D02*
X151510Y82380D01*
X149980Y69360D02*
Y80850D01*
Y69360D02*
X152790Y66550D01*
X177710D02*
Y66800D01*
X159510Y82380D02*
X160840Y81050D01*
X179140D01*
X178900Y74800D02*
X181260Y77160D01*
X177710Y74800D02*
X178900D01*
X181260Y77160D02*
X185680D01*
Y73240D02*
Y77160D01*
X218870Y218770D02*
X218900Y218740D01*
X218870Y209370D02*
Y218770D01*
X219351Y215592D02*
X224710D01*
X218810Y222640D02*
X218810Y222640D01*
X218870D01*
X224420D01*
X229940D02*
X229980Y222680D01*
X229940Y222640D02*
X232527D01*
X234788Y220378D01*
X171770Y48820D02*
Y66550D01*
X74400Y142500D02*
Y148880D01*
X65767Y142533D02*
Y148880D01*
X57133Y142633D02*
Y148880D01*
X48500Y142600D02*
Y148880D01*
X65767Y154400D02*
Y158633D01*
X92370Y254570D02*
X110460D01*
X93570Y242570D02*
X110460D01*
X57133Y154400D02*
Y158133D01*
X12460Y254570D02*
X30830D01*
X12460Y230570D02*
X41630D01*
X137600Y46600D02*
Y49800D01*
Y46600D02*
X146300Y37900D01*
X160600D01*
X65180Y8220D02*
Y16200D01*
Y8220D02*
X65400Y8000D01*
X70700Y16200D02*
Y18700D01*
X70500Y18900D02*
X70700Y18700D01*
X218870Y218770D02*
Y222640D01*
X185680Y77160D02*
Y97680D01*
X29870Y61860D02*
X104640D01*
X95800Y22100D02*
X96300Y22600D01*
X96500D01*
X87200Y22700D02*
X87800Y22100D01*
X84800Y22700D02*
X87200D01*
D21*
X57133Y154400D02*
D03*
Y148880D02*
D03*
X48500Y154400D02*
D03*
Y148880D02*
D03*
X74400Y154400D02*
D03*
Y148880D02*
D03*
X65767Y154400D02*
D03*
Y148880D02*
D03*
X147280Y196390D02*
D03*
Y190870D02*
D03*
X138640Y196390D02*
D03*
Y190870D02*
D03*
X156400Y196390D02*
D03*
Y190870D02*
D03*
X165210Y196390D02*
D03*
Y190870D02*
D03*
X191800Y254900D02*
D03*
Y249380D02*
D03*
X95300Y135180D02*
D03*
Y140700D02*
D03*
X87900Y135180D02*
D03*
Y140700D02*
D03*
D22*
X230230Y215592D02*
D03*
X224710D02*
D03*
X229940Y222640D02*
D03*
X224420D02*
D03*
X71200Y15700D02*
D03*
X65680D02*
D03*
X213290Y222640D02*
D03*
X218810D02*
D03*
D23*
X15400Y58200D02*
D03*
X7400D02*
D03*
X87800Y22100D02*
D03*
X95800D02*
D03*
X151510Y82380D02*
D03*
X159510D02*
D03*
X23800Y143000D02*
D03*
X15800D02*
D03*
X133980Y283980D02*
D03*
X141980D02*
D03*
D24*
X189970Y276950D02*
D03*
Y268950D02*
D03*
X133430Y76050D02*
D03*
Y85050D02*
D03*
X132470Y95380D02*
D03*
Y104380D02*
D03*
X118930Y97870D02*
D03*
Y89870D02*
D03*
X116000Y69480D02*
D03*
Y77480D02*
D03*
X177710Y47600D02*
D03*
Y55600D02*
D03*
X146500Y105270D02*
D03*
Y97270D02*
D03*
X230200Y198000D02*
D03*
Y206000D02*
D03*
X177710Y66800D02*
D03*
Y74800D02*
D03*
D38*
X179700Y6000D02*
D03*
X167000D02*
D03*
X154300D02*
D03*
X116200D02*
D03*
X128900D02*
D03*
X217700Y294000D02*
D03*
X205000Y294000D02*
D03*
X141600Y6000D02*
D03*
X103500D02*
D03*
X90800D02*
D03*
X78100D02*
D03*
X65400D02*
D03*
X52700D02*
D03*
X40000D02*
D03*
X179700D02*
D03*
X167000D02*
D03*
X154300D02*
D03*
X116200D02*
D03*
X128900D02*
D03*
X217700Y294000D02*
D03*
X205000Y294000D02*
D03*
X141600Y6000D02*
D03*
X103500D02*
D03*
X90800D02*
D03*
X78100D02*
D03*
X65400D02*
D03*
X52700D02*
D03*
X40000D02*
D03*
D39*
X244000Y206000D02*
D03*
Y193300D02*
D03*
D60*
X240638Y207362D02*
X242000Y206000D01*
X240460Y237620D02*
X240638Y237442D01*
Y207362D02*
Y237442D01*
X23800Y143000D02*
X24000Y142800D01*
X33600D01*
X51200Y104400D02*
X53900D01*
X49100Y106500D02*
X51200Y104400D01*
X49100Y106500D02*
Y118300D01*
X53900Y104400D02*
X55700D01*
X52200D02*
X53900D01*
Y98200D02*
Y104400D01*
X226160Y258760D02*
X240340D01*
X222900Y255500D02*
X226160Y258760D01*
X222900Y240700D02*
Y255500D01*
X219820Y237620D02*
X222900Y240700D01*
X207460Y237620D02*
X219820D01*
X62600Y97400D02*
X83100Y117900D01*
X56800Y97400D02*
X62600D01*
D62*
X148300Y116500D02*
X162850Y131050D01*
X128000Y116500D02*
X148300D01*
X122200Y110700D02*
X128000Y116500D01*
X106600Y110700D02*
X122200D01*
X98900Y103000D02*
X106600Y110700D01*
X98900Y91800D02*
Y103000D01*
X191800Y248200D02*
Y249100D01*
X181200Y237600D02*
X191800Y248200D01*
X132300Y22340D02*
X141600Y13040D01*
X132300Y22340D02*
Y36000D01*
X141600Y8000D02*
Y13040D01*
X86600Y79500D02*
X98900Y91800D01*
X56050Y79500D02*
X86600D01*
X53330Y76780D02*
X56050Y79500D01*
X197170Y219700D02*
X198300D01*
X191550Y214080D02*
X197170Y219700D01*
X194460Y258760D02*
X207340D01*
X190860Y202700D02*
X210400D01*
X191800Y254900D02*
Y256100D01*
X194460Y258760D01*
X162850Y131050D02*
Y169050D01*
X181200Y187400D01*
Y237600D01*
X189390Y204170D02*
Y211920D01*
X191550Y214080D01*
X189390Y204170D02*
X190860Y202700D01*
D65*
X179700Y0D02*
D03*
Y8000D02*
D03*
X167000Y0D02*
D03*
Y8000D02*
D03*
X154300Y0D02*
D03*
Y8000D02*
D03*
X116200Y0D02*
D03*
Y8000D02*
D03*
X128900Y0D02*
D03*
Y8000D02*
D03*
X217700Y300000D02*
D03*
Y292000D02*
D03*
X205000Y300000D02*
D03*
Y292000D02*
D03*
X141600Y0D02*
D03*
Y8000D02*
D03*
X250000Y206000D02*
D03*
X242000D02*
D03*
X250000Y193300D02*
D03*
X242000D02*
D03*
X103500Y0D02*
D03*
Y8000D02*
D03*
X90800Y0D02*
D03*
Y8000D02*
D03*
X78100Y0D02*
D03*
Y8000D02*
D03*
X65400Y0D02*
D03*
Y8000D02*
D03*
X52700Y0D02*
D03*
Y8000D02*
D03*
X40000Y0D02*
D03*
Y8000D02*
D03*
D66*
X235000Y285000D02*
D03*
X15000Y15000D02*
D03*
D67*
X165646Y202994D02*
D03*
X63900Y24000D02*
D03*
X139000Y91800D02*
D03*
X213800Y278199D02*
D03*
X213400Y272300D02*
D03*
X234788Y217400D02*
D03*
X43703Y75567D02*
D03*
X38200Y77240D02*
D03*
X191800Y249100D02*
D03*
X33800Y136900D02*
D03*
X33600Y142800D02*
D03*
X102700Y31200D02*
D03*
X121530Y42550D02*
D03*
X121640Y52550D02*
D03*
X132300Y36000D02*
D03*
X146500Y21600D02*
D03*
X187796Y31645D02*
D03*
X191000Y41170D02*
D03*
X186700Y72700D02*
D03*
X162600Y94699D02*
D03*
X154260Y98820D02*
D03*
X126000Y77500D02*
D03*
X121390Y62550D02*
D03*
X243790Y177110D02*
D03*
X233790D02*
D03*
X228790Y187110D02*
D03*
X223790Y177110D02*
D03*
X213790Y197110D02*
D03*
X218790Y187110D02*
D03*
X213790Y177110D02*
D03*
X208790Y187110D02*
D03*
X203790Y177110D02*
D03*
X193790Y237110D02*
D03*
X198790Y187110D02*
D03*
X193790Y177110D02*
D03*
Y157110D02*
D03*
Y137110D02*
D03*
Y117110D02*
D03*
Y77110D02*
D03*
X188790Y127110D02*
D03*
X153790Y137110D02*
D03*
X148790Y127110D02*
D03*
X138790Y167110D02*
D03*
X128790Y267110D02*
D03*
X123790Y257110D02*
D03*
X128790Y247110D02*
D03*
X123790Y237110D02*
D03*
X128790Y227110D02*
D03*
X123790Y217110D02*
D03*
X128790Y207110D02*
D03*
Y167110D02*
D03*
X118790Y267110D02*
D03*
Y247110D02*
D03*
X108790Y267110D02*
D03*
X103790Y197110D02*
D03*
X108790Y167110D02*
D03*
X98790Y267110D02*
D03*
Y247110D02*
D03*
Y227110D02*
D03*
Y207110D02*
D03*
X93790Y197110D02*
D03*
Y157110D02*
D03*
X83790Y257110D02*
D03*
Y217110D02*
D03*
X88790Y207110D02*
D03*
X83790Y197110D02*
D03*
X63790Y257110D02*
D03*
X68790Y127110D02*
D03*
X43790Y277110D02*
D03*
X48790Y267110D02*
D03*
Y207110D02*
D03*
Y187110D02*
D03*
X33790Y277110D02*
D03*
X38790Y267110D02*
D03*
X33790Y237110D02*
D03*
Y217110D02*
D03*
Y197110D02*
D03*
Y157110D02*
D03*
X38790Y107110D02*
D03*
X23790Y57110D02*
D03*
X147550Y30720D02*
D03*
X125840Y83140D02*
D03*
X190160Y264780D02*
D03*
X189970Y282840D02*
D03*
X25300Y110800D02*
D03*
X22300Y64100D02*
D03*
X7300Y52600D02*
D03*
X20350Y99150D02*
D03*
X77400Y127000D02*
D03*
X49100Y118300D02*
D03*
X77000Y87789D02*
D03*
X96300Y149100D02*
D03*
X87900Y145100D02*
D03*
X198700Y272600D02*
D03*
X193380Y22180D02*
D03*
X191300Y6360D02*
D03*
X190500Y58800D02*
D03*
X194100Y95800D02*
D03*
X162700Y28900D02*
D03*
X164800Y113700D02*
D03*
X116100Y30400D02*
D03*
X155320Y287710D02*
D03*
X147350Y92190D02*
D03*
X179310Y89650D02*
D03*
X104710Y142590D02*
D03*
X148550Y139960D02*
D03*
X117090Y124780D02*
D03*
X124540Y124760D02*
D03*
X115010Y47550D02*
D03*
X115640Y167470D02*
D03*
X122090Y167460D02*
D03*
X53810Y243700D02*
D03*
X53850Y254700D02*
D03*
X167640Y24520D02*
D03*
X29870Y61860D02*
D03*
X72140Y72450D02*
D03*
X140620Y26620D02*
D03*
X88420Y268280D02*
D03*
X100410Y163410D02*
D03*
X165210Y186580D02*
D03*
X156570Y203380D02*
D03*
X146790D02*
D03*
X156400Y186520D02*
D03*
X147280Y186640D02*
D03*
X138640Y186620D02*
D03*
X173760Y278500D02*
D03*
X161050Y277080D02*
D03*
X150470Y275300D02*
D03*
X188170Y67020D02*
D03*
X179140Y81050D02*
D03*
X78160Y30260D02*
D03*
X90810Y30650D02*
D03*
X157640Y26060D02*
D03*
X210760Y222640D02*
D03*
X53330Y76780D02*
D03*
X191550Y214080D02*
D03*
X74400Y142500D02*
D03*
X65767Y142533D02*
D03*
X57133Y142633D02*
D03*
X48500Y142600D02*
D03*
X83100Y117900D02*
D03*
X70500Y18900D02*
D03*
X76003Y44703D02*
D03*
X50500Y20300D02*
D03*
X96500Y22600D02*
D03*
X84800Y22700D02*
D03*
D68*
X27200Y77700D02*
D03*
X166100Y49100D02*
D03*
X155100D02*
D03*
X144100D02*
D03*
X155100Y60100D02*
D03*
X166100D02*
D03*
X144100D02*
D03*
Y71100D02*
D03*
X155100D02*
D03*
X166100D02*
D03*
X231520Y248050D02*
D03*
X115940Y294220D02*
D03*
X3790Y79270D02*
D03*
X100920Y49470D02*
D03*
X29480Y5800D02*
D03*
D70*
X218700Y202700D02*
D03*
Y209200D02*
D03*
X210400Y202700D02*
D03*
Y209200D02*
D03*
D71*
X214550Y205950D02*
D03*
D72*
X17300Y79400D02*
D03*
D73*
X27300Y68100D02*
D03*
X22300D02*
D03*
X17300D02*
D03*
X12300D02*
D03*
X7300D02*
D03*
X27300Y90700D02*
D03*
X22300D02*
D03*
X17300D02*
D03*
X12300D02*
D03*
X7300D02*
D03*
D74*
X171980Y97680D02*
D03*
Y108180D02*
D03*
X185480D02*
D03*
Y97680D02*
D03*
D75*
X32600Y123500D02*
D03*
X7600D02*
D03*
D76*
X72200Y118900D02*
D03*
X65700D02*
D03*
X59200D02*
D03*
Y137900D02*
D03*
X65700D02*
D03*
X72200D02*
D03*
D77*
X198300Y219700D02*
D03*
X202203Y223603D02*
D03*
D78*
X110460Y230570D02*
D03*
Y242570D02*
D03*
Y254570D02*
D03*
X12460D02*
D03*
Y242570D02*
D03*
Y230570D02*
D03*
D79*
X112460Y283070D02*
D03*
Y211070D02*
D03*
X10460D02*
D03*
Y283070D02*
D03*
D80*
X79660Y171820D02*
D03*
X43260D02*
D03*
D81*
X173750Y213210D02*
D03*
X161050D02*
D03*
X148350D02*
D03*
X135650D02*
D03*
Y270710D02*
D03*
X148350D02*
D03*
X161050D02*
D03*
X173750D02*
D03*
D82*
X154700Y241960D02*
D03*
D83*
X113090Y142590D02*
D03*
Y147590D02*
D03*
X141090D02*
D03*
Y142590D02*
D03*
D84*
X117090Y156590D02*
D03*
X122090D02*
D03*
X127090D02*
D03*
X132090D02*
D03*
X137090D02*
D03*
Y133590D02*
D03*
X132090D02*
D03*
X127090D02*
D03*
X122090D02*
D03*
X117090D02*
D03*
D85*
X127090Y145090D02*
D03*
D86*
X207340Y258760D02*
D03*
X240340D02*
D03*
X207460Y237620D02*
D03*
X240460D02*
D03*
D87*
X57400Y37400D02*
D03*
Y97400D02*
D03*
M02*
