G04 Layer_Color=65535*
%FSLAX44Y44*%
%MOMM*%
G71*
G01*
G75*
%ADD35C,0.1500*%
%ADD36C,0.2000*%
%ADD38C,0.2500*%
%ADD42C,0.1200*%
%ADD75C,0.0800*%
%ADD76C,0.1000*%
D35*
X17243Y267800D02*
G03*
X17243Y267800I-4243J0D01*
G01*
X-40929Y51184D02*
G03*
X-35057Y42036I14565J2891D01*
G01*
X232400Y189000D02*
X234900Y189200D01*
X235000Y186700D01*
X234900Y189200D02*
X235000Y186700D01*
X231200Y185200D02*
X234900Y189200D01*
X232700Y209600D02*
X235200Y209700D01*
Y211900D01*
Y209700D02*
Y211900D01*
X231100Y213000D02*
X235200Y209700D01*
X3000Y207040D02*
Y224540D01*
X-27500Y207040D02*
Y224540D01*
X-16100Y180800D02*
X1900D01*
X-16100D02*
Y192800D01*
X1900D01*
Y180800D02*
Y192800D01*
X-69400Y113800D02*
Y183800D01*
X-81300Y108600D02*
Y189100D01*
X-46400D02*
X-26000D01*
X-81300D02*
X-63900D01*
X-46400Y108600D02*
X-26000D01*
X-81300D02*
X-63900D01*
X-26000D02*
Y115300D01*
Y182300D02*
Y189100D01*
X59300Y53900D02*
X77300D01*
Y41900D02*
Y53900D01*
X59300Y41900D02*
X77300D01*
X59300D02*
Y53900D01*
X81420Y68590D02*
X99420D01*
Y56590D02*
Y68590D01*
X81420Y56590D02*
X99420D01*
X81420D02*
Y68590D01*
X81370Y83680D02*
X99370D01*
Y71680D02*
Y83680D01*
X81370Y71680D02*
X99370D01*
X81370D02*
Y83680D01*
X150000Y282800D02*
X178000D01*
X21000D02*
X48000D01*
X178000Y261800D02*
Y282800D01*
Y105800D02*
Y125800D01*
X150000Y105800D02*
X178000D01*
X21000D02*
X48000D01*
X21000D02*
Y125800D01*
Y261800D02*
Y282800D01*
X210400Y256800D02*
X214400D01*
X236400Y237800D02*
Y249800D01*
X210400Y230800D02*
X214400D01*
X210400Y251800D02*
Y256800D01*
Y230800D02*
Y235800D01*
X170310Y90710D02*
X188310D01*
X170310D02*
Y102710D01*
X188310D01*
Y90710D02*
Y102710D01*
X61000Y56000D02*
Y74000D01*
X73000D01*
Y56000D02*
Y74000D01*
X61000Y56000D02*
X73000D01*
X-32564Y55507D02*
X-27795Y47874D01*
X-37936Y49006D02*
X-32847Y52185D01*
X-35392Y50595D02*
X-30198Y47945D01*
X-35286Y44766D02*
X-30198Y47945D01*
X-35392Y50595D02*
X-35286Y44766D01*
X3000Y38000D02*
Y48000D01*
Y38000D02*
X7000D01*
X9000Y35000D01*
Y52000D01*
X7000Y48000D02*
X9000Y52000D01*
X3000Y48000D02*
X7000D01*
X-1000Y57000D02*
X3000D01*
X1000Y55000D02*
Y59000D01*
Y29000D02*
Y34000D01*
D36*
X128600Y33600D02*
X132350D01*
X128600D02*
Y37350D01*
X177850Y33600D02*
X181600D01*
Y37350D01*
Y82850D02*
Y86600D01*
X177850D02*
X181600D01*
X128600D02*
X132350D01*
X128600Y82850D02*
Y86600D01*
X166000Y219200D02*
Y269200D01*
X145500Y219200D02*
X166000D01*
X145500D02*
Y269200D01*
X166000D01*
D38*
X123350Y85100D02*
G03*
X123350Y85100I-1250J0D01*
G01*
D42*
X124800Y30900D02*
X134800D01*
X124800Y14900D02*
Y30900D01*
Y14900D02*
X134800D01*
Y30900D01*
X56700Y29900D02*
Y39900D01*
Y29900D02*
X72700D01*
Y39900D01*
X56700D02*
X72700D01*
X18500Y91800D02*
Y101800D01*
X2500D02*
X18500D01*
X2500Y91800D02*
Y101800D01*
Y91800D02*
X18500D01*
X22900Y102600D02*
X32900D01*
X22900Y86600D02*
Y102600D01*
Y86600D02*
X32900D01*
Y102600D01*
X-26600Y241140D02*
Y257140D01*
X-16600D01*
Y241140D02*
Y257140D01*
X-26600Y241140D02*
X-16600D01*
X-40800Y221240D02*
Y237240D01*
X-30800D01*
Y221240D02*
Y237240D01*
X-40800Y221240D02*
X-30800D01*
X2400Y238040D02*
Y254040D01*
X-7600Y238040D02*
X2400D01*
X-7600D02*
Y254040D01*
X2400D01*
X-40700Y200240D02*
Y216240D01*
X-30700D01*
Y200240D02*
Y216240D01*
X-40700Y200240D02*
X-30700D01*
X121100Y14600D02*
Y30600D01*
X111100Y14600D02*
X121100D01*
X111100D02*
Y30600D01*
X121100D01*
X43000Y27200D02*
Y43200D01*
X53000D01*
Y27200D02*
Y43200D01*
X43000Y27200D02*
X53000D01*
X15800Y54200D02*
X31800D01*
Y44200D02*
Y54200D01*
X15800Y44200D02*
X31800D01*
X15800D02*
Y54200D01*
X101990Y54540D02*
X119990D01*
Y85540D01*
X101990D02*
X119990D01*
X101990Y54540D02*
Y85540D01*
X194700Y281300D02*
Y297300D01*
X184700Y281300D02*
X194700D01*
X184700D02*
Y297300D01*
X194700D01*
X83150Y14600D02*
Y30600D01*
X73150Y14600D02*
X83150D01*
X73150D02*
Y30600D01*
X83150D01*
X95810Y14600D02*
Y30600D01*
X85810Y14600D02*
X95810D01*
X85810D02*
Y30600D01*
X95810D01*
X108510Y14600D02*
Y30600D01*
X98510Y14600D02*
X108510D01*
X98510D02*
Y30600D01*
X108510D01*
X-2300Y102200D02*
Y118200D01*
X-12300Y102200D02*
X-2300D01*
X-12300D02*
Y118200D01*
X-2300D01*
X150500Y24400D02*
X166500D01*
Y14400D02*
Y24400D01*
X150500Y14400D02*
X166500D01*
X150500D02*
Y24400D01*
X-29699Y81834D02*
X-21220Y68265D01*
X-29701Y62966D02*
X-21220Y68265D01*
X-38180Y76535D02*
X-29701Y62966D01*
X-38180Y76535D02*
X-29699Y81834D01*
X29200Y14900D02*
Y30900D01*
X39200D01*
Y14900D02*
Y30900D01*
X29200Y14900D02*
X39200D01*
X18000Y68700D02*
Y84700D01*
X8000Y68700D02*
X18000D01*
X8000D02*
Y84700D01*
X18000D01*
X215935Y184398D02*
X220934D01*
Y186897D01*
X220101Y187730D01*
X219268D01*
X218435Y186897D01*
Y184398D01*
Y186897D01*
X217602Y187730D01*
X216769D01*
X215935Y186897D01*
Y184398D01*
X217602Y190229D02*
Y191895D01*
X218435Y192728D01*
X220934D01*
Y190229D01*
X220101Y189396D01*
X219268Y190229D01*
Y192728D01*
X216769Y195227D02*
X217602D01*
Y194394D01*
Y196060D01*
Y195227D01*
X220101D01*
X220934Y196060D01*
X216769Y199393D02*
X217602D01*
Y198560D01*
Y200226D01*
Y199393D01*
X220101D01*
X220934Y200226D01*
Y205224D02*
Y203558D01*
X220101Y202725D01*
X218435D01*
X217602Y203558D01*
Y205224D01*
X218435Y206057D01*
X219268D01*
Y202725D01*
X217602Y207723D02*
X220934D01*
X219268D01*
X218435Y208556D01*
X217602Y209389D01*
Y210222D01*
Y212722D02*
X220101D01*
X220934Y213555D01*
Y216054D01*
X221767D01*
X222600Y215221D01*
Y214388D01*
X220934Y216054D02*
X217602D01*
X228095Y183039D02*
Y186371D01*
X226429Y193036D02*
X225596Y193869D01*
Y195535D01*
X226429Y196368D01*
X227262D01*
X228095Y195535D01*
Y194702D01*
Y195535D01*
X228928Y196368D01*
X229761D01*
X230594Y195535D01*
Y193869D01*
X229761Y193036D01*
X227262Y198034D02*
X230594Y199700D01*
X227262Y201366D01*
X225596Y203032D02*
Y206364D01*
X226429D01*
X229761Y203032D01*
X230594D01*
X228095Y213029D02*
Y216361D01*
X226429Y214695D02*
X229761D01*
D75*
X6000Y229040D02*
G03*
X6000Y229040I-1000J0D01*
G01*
X49500Y13900D02*
X62500D01*
Y23900D01*
X49500D02*
X62500D01*
X49500Y13900D02*
Y23900D01*
X24200Y42300D02*
X37200D01*
X24200Y32300D02*
Y42300D01*
Y32300D02*
X37200D01*
Y42300D01*
X162000Y286200D02*
Y296200D01*
X175000D01*
Y286200D02*
Y296200D01*
X162000Y286200D02*
X175000D01*
X34080Y54780D02*
Y77780D01*
Y54780D02*
X57080D01*
Y77780D01*
X34080D02*
X57080D01*
D76*
X88300Y34300D02*
G03*
X88300Y34300I-500J0D01*
G01*
X33192Y76780D02*
G03*
X33192Y76780I-112J0D01*
G01*
M02*
