G04 Layer_Color=8388736*
%FSLAX44Y44*%
%MOMM*%
G71*
G01*
G75*
%ADD45R,0.8032X0.6032*%
%ADD46R,1.2532X1.2032*%
%ADD47R,2.4032X1.2532*%
%ADD48R,1.2032X1.2532*%
%ADD49R,1.2532X2.4032*%
%ADD50R,0.6032X0.8032*%
%ADD51O,1.0532X0.4532*%
%ADD52O,0.4532X1.0532*%
%ADD53R,3.7032X3.7032*%
G04:AMPARAMS|DCode=54|XSize=2.0032mm|YSize=0.8032mm|CornerRadius=0.2516mm|HoleSize=0mm|Usage=FLASHONLY|Rotation=270.000|XOffset=0mm|YOffset=0mm|HoleType=Round|Shape=RoundedRectangle|*
%AMROUNDEDRECTD54*
21,1,2.0032,0.3000,0,0,270.0*
21,1,1.5000,0.8032,0,0,270.0*
1,1,0.5032,-0.1500,-0.7500*
1,1,0.5032,-0.1500,0.7500*
1,1,0.5032,0.1500,0.7500*
1,1,0.5032,0.1500,-0.7500*
%
%ADD54ROUNDEDRECTD54*%
G04:AMPARAMS|DCode=55|XSize=2.0032mm|YSize=0.8032mm|CornerRadius=0.2516mm|HoleSize=0mm|Usage=FLASHONLY|Rotation=180.000|XOffset=0mm|YOffset=0mm|HoleType=Round|Shape=RoundedRectangle|*
%AMROUNDEDRECTD55*
21,1,2.0032,0.3000,0,0,180.0*
21,1,1.5000,0.8032,0,0,180.0*
1,1,0.5032,-0.7500,0.1500*
1,1,0.5032,0.7500,0.1500*
1,1,0.5032,0.7500,-0.1500*
1,1,0.5032,-0.7500,-0.1500*
%
%ADD55ROUNDEDRECTD55*%
%ADD56R,0.4532X0.4032*%
%ADD57R,0.4532X0.7032*%
%ADD58C,0.6532*%
%ADD59C,0.7032*%
D45*
X189700Y285300D02*
D03*
Y293300D02*
D03*
X165100Y45300D02*
D03*
Y53300D02*
D03*
Y32000D02*
D03*
Y24000D02*
D03*
X133300Y32000D02*
D03*
Y40000D02*
D03*
D46*
X199400Y243800D02*
D03*
D47*
X214650Y229050D02*
D03*
Y258550D02*
D03*
D48*
X165150Y66350D02*
D03*
D49*
X179900Y81600D02*
D03*
X150400D02*
D03*
D50*
X185000Y32000D02*
D03*
X177000D02*
D03*
X144700D02*
D03*
X153700D02*
D03*
D51*
X70200Y57300D02*
D03*
Y52300D02*
D03*
Y47300D02*
D03*
Y42300D02*
D03*
Y37300D02*
D03*
Y32300D02*
D03*
Y27300D02*
D03*
Y22300D02*
D03*
X118200D02*
D03*
Y27300D02*
D03*
Y32300D02*
D03*
Y37300D02*
D03*
Y42300D02*
D03*
Y47300D02*
D03*
Y52300D02*
D03*
Y57300D02*
D03*
D52*
X76700Y15800D02*
D03*
X81700D02*
D03*
X86700D02*
D03*
X91700D02*
D03*
X96700D02*
D03*
X101700D02*
D03*
X106700D02*
D03*
X111700D02*
D03*
Y63800D02*
D03*
X106700D02*
D03*
X101700D02*
D03*
X96700D02*
D03*
X91700D02*
D03*
X86700D02*
D03*
X81700D02*
D03*
X76700D02*
D03*
D53*
X94200Y39800D02*
D03*
D54*
X55500Y282200D02*
D03*
X66500D02*
D03*
X77500D02*
D03*
X88500D02*
D03*
X99500D02*
D03*
X110500D02*
D03*
X121500D02*
D03*
X132500D02*
D03*
X143500D02*
D03*
Y106200D02*
D03*
X132500D02*
D03*
X121500D02*
D03*
X110500D02*
D03*
X99500D02*
D03*
X88500D02*
D03*
X77500D02*
D03*
X66500D02*
D03*
X55500D02*
D03*
D55*
X178000Y254700D02*
D03*
Y243700D02*
D03*
Y232700D02*
D03*
Y221700D02*
D03*
Y210700D02*
D03*
Y199700D02*
D03*
Y188700D02*
D03*
Y177700D02*
D03*
Y166700D02*
D03*
Y155700D02*
D03*
Y144700D02*
D03*
Y133700D02*
D03*
X21000D02*
D03*
Y144700D02*
D03*
Y155700D02*
D03*
Y166700D02*
D03*
Y177700D02*
D03*
Y188700D02*
D03*
Y199700D02*
D03*
Y210700D02*
D03*
Y221700D02*
D03*
Y232700D02*
D03*
Y243700D02*
D03*
Y254700D02*
D03*
D56*
X171500Y293200D02*
D03*
Y289200D02*
D03*
D57*
X165000Y291200D02*
D03*
D58*
X118000Y63400D02*
D03*
X70500D02*
D03*
Y15800D02*
D03*
D59*
X83200Y50800D02*
D03*
X94200D02*
D03*
X105200D02*
D03*
X83200Y39800D02*
D03*
X94200D02*
D03*
X105200D02*
D03*
X83200Y28800D02*
D03*
X94200D02*
D03*
X105200D02*
D03*
M02*
