G04 Layer_Color=128*
%FSLAX44Y44*%
%MOMM*%
G71*
G01*
G75*
%ADD15R,0.6000X0.4000*%
%ADD17R,0.4000X0.6000*%
%ADD21R,0.5000X0.2500*%
%ADD22R,0.2000X0.2500*%
%ADD43C,0.6000*%
%ADD45C,0.5000*%
G04:AMPARAMS|DCode=49|XSize=0.4mm|YSize=0.6mm|CornerRadius=0mm|HoleSize=0mm|Usage=FLASHONLY|Rotation=315.000|XOffset=0mm|YOffset=0mm|HoleType=Round|Shape=Rectangle|*
%AMROTATEDRECTD49*
4,1,4,-0.3535,-0.0707,0.0707,0.3535,0.3535,0.0707,-0.0707,-0.3535,-0.3535,-0.0707,0.0*
%
%ADD49ROTATEDRECTD49*%

%ADD50R,2.2000X1.0500*%
%ADD51R,1.0500X1.0000*%
%ADD52R,0.3250X0.3000*%
%ADD53R,0.3000X0.3250*%
%ADD54R,1.2500X1.0000*%
%ADD55R,0.5000X0.4000*%
%ADD56R,0.2000X0.2000*%
G36*
X130300Y106719D02*
X128300Y108719D01*
X126300Y106719D01*
Y110719D01*
X130300D01*
Y106719D01*
D02*
G37*
G36*
X63000Y96800D02*
X59000D01*
Y100800D01*
X61000Y98800D01*
X63000Y100800D01*
Y96800D01*
D02*
G37*
G36*
X139833Y106719D02*
X137833Y108719D01*
X135833Y106719D01*
Y110719D01*
X139833D01*
Y106719D01*
D02*
G37*
G36*
X158900D02*
X156900Y108719D01*
X154900Y106719D01*
Y110719D01*
X158900D01*
Y106719D01*
D02*
G37*
G36*
X149367D02*
X147367Y108719D01*
X145367Y106719D01*
Y110719D01*
X149367D01*
Y106719D01*
D02*
G37*
D15*
X165700Y177200D02*
D03*
Y168200D02*
D03*
X20000Y53600D02*
D03*
Y61600D02*
D03*
X130600Y62400D02*
D03*
Y54400D02*
D03*
X117700Y92300D02*
D03*
Y84300D02*
D03*
X117500Y66700D02*
D03*
Y74700D02*
D03*
X20300Y81200D02*
D03*
Y73200D02*
D03*
X33500Y99100D02*
D03*
Y107100D02*
D03*
X20250Y99100D02*
D03*
Y107100D02*
D03*
X7000D02*
D03*
Y99100D02*
D03*
X47400Y89300D02*
D03*
Y81300D02*
D03*
X109000Y111100D02*
D03*
Y103100D02*
D03*
X61500Y87000D02*
D03*
Y79000D02*
D03*
X100400Y40500D02*
D03*
Y32500D02*
D03*
D17*
X160800Y188700D02*
D03*
X168800D02*
D03*
X15100Y21800D02*
D03*
X23100D02*
D03*
X48400D02*
D03*
X40400D02*
D03*
X73500Y21500D02*
D03*
X65500D02*
D03*
X82980Y64900D02*
D03*
X74980D02*
D03*
X97100Y52600D02*
D03*
X105100D02*
D03*
X147400Y80200D02*
D03*
X155400D02*
D03*
X149500Y33900D02*
D03*
X157500D02*
D03*
X155200Y20500D02*
D03*
X147200D02*
D03*
X127800Y74900D02*
D03*
X135800D02*
D03*
X98000Y82200D02*
D03*
X107000D02*
D03*
X107000Y66700D02*
D03*
X98000D02*
D03*
X72500Y44000D02*
D03*
X80500D02*
D03*
X72500Y34300D02*
D03*
X80500D02*
D03*
X103600Y20800D02*
D03*
X95600D02*
D03*
X136100Y25900D02*
D03*
X128100D02*
D03*
D21*
X47000Y108100D02*
D03*
D22*
X45000Y101600D02*
D03*
X49000D02*
D03*
D43*
X144000Y239700D02*
D03*
X10000D02*
D03*
Y125700D02*
D03*
D45*
X35500Y182700D02*
D03*
X118500D02*
D03*
X122500Y139700D02*
D03*
X109500D02*
D03*
X96500D02*
D03*
X83500D02*
D03*
X70500D02*
D03*
X57500D02*
D03*
X44500D02*
D03*
X31500D02*
D03*
X38000Y151200D02*
D03*
X51000D02*
D03*
X64000D02*
D03*
X77000D02*
D03*
X90000D02*
D03*
X103000D02*
D03*
X116000D02*
D03*
X25000Y237200D02*
D03*
X38000D02*
D03*
X51000D02*
D03*
X64000D02*
D03*
X77000D02*
D03*
X90000D02*
D03*
X103000D02*
D03*
X116000D02*
D03*
X24000Y151200D02*
D03*
Y163200D02*
D03*
Y176200D02*
D03*
Y189200D02*
D03*
Y202200D02*
D03*
Y215200D02*
D03*
X129000Y237200D02*
D03*
X31500Y225700D02*
D03*
X44500D02*
D03*
X57500D02*
D03*
X70500D02*
D03*
X83500D02*
D03*
X96500D02*
D03*
X109500D02*
D03*
X122500D02*
D03*
X116000Y214200D02*
D03*
X103000D02*
D03*
X90000D02*
D03*
X77000D02*
D03*
X64000D02*
D03*
X51000D02*
D03*
X38000D02*
D03*
X44500Y162700D02*
D03*
X57500D02*
D03*
X70500D02*
D03*
X83500D02*
D03*
X96500D02*
D03*
X109500D02*
D03*
X44500Y202700D02*
D03*
X57500D02*
D03*
X70500D02*
D03*
X83500D02*
D03*
X96500D02*
D03*
X109500D02*
D03*
X103000Y174200D02*
D03*
X90000D02*
D03*
X51000D02*
D03*
X64000D02*
D03*
X77000D02*
D03*
X51000Y191200D02*
D03*
X64000D02*
D03*
X103000D02*
D03*
X90000D02*
D03*
X77000D02*
D03*
X129000Y128200D02*
D03*
X116000D02*
D03*
X103000D02*
D03*
X90000D02*
D03*
X77000D02*
D03*
X64000D02*
D03*
X51000D02*
D03*
X38000D02*
D03*
X25000D02*
D03*
X141500Y143700D02*
D03*
Y156700D02*
D03*
Y169700D02*
D03*
Y221700D02*
D03*
Y208700D02*
D03*
Y195700D02*
D03*
Y182700D02*
D03*
X12500Y143700D02*
D03*
Y156700D02*
D03*
Y169700D02*
D03*
Y221700D02*
D03*
Y208700D02*
D03*
Y195700D02*
D03*
Y182700D02*
D03*
X130000Y150200D02*
D03*
Y163200D02*
D03*
Y176200D02*
D03*
Y189200D02*
D03*
Y202200D02*
D03*
Y215200D02*
D03*
D49*
X178436Y193465D02*
D03*
X172072Y199828D02*
D03*
D50*
X206400Y190000D02*
D03*
Y219500D02*
D03*
X166500Y241400D02*
D03*
Y211900D02*
D03*
D51*
X191150Y204750D02*
D03*
X181750Y226650D02*
D03*
D52*
X52300Y49200D02*
D03*
Y44200D02*
D03*
Y39200D02*
D03*
Y34200D02*
D03*
X37050D02*
D03*
Y39200D02*
D03*
Y44200D02*
D03*
Y49200D02*
D03*
D53*
X47175Y34075D02*
D03*
X42175D02*
D03*
Y49325D02*
D03*
X47175D02*
D03*
D54*
X151600Y49500D02*
D03*
Y64500D02*
D03*
D55*
X73500Y107800D02*
D03*
Y101300D02*
D03*
Y94800D02*
D03*
X92500D02*
D03*
Y101300D02*
D03*
Y107800D02*
D03*
D56*
X61000Y97800D02*
D03*
Y103320D02*
D03*
X156900Y104200D02*
D03*
Y109719D02*
D03*
X147367Y104200D02*
D03*
Y109719D02*
D03*
X137833Y104200D02*
D03*
Y109719D02*
D03*
X128300Y104200D02*
D03*
Y109719D02*
D03*
M02*
