G04*
G04 #@! TF.GenerationSoftware,Altium Limited,Altium Designer,18.1.1 (9)*
G04*
G04 Layer_Color=65535*
%FSLAX44Y44*%
%MOMM*%
G71*
G01*
G75*
%ADD10C,0.2500*%
%ADD11C,0.1500*%
%ADD12C,0.1000*%
%ADD13C,0.0800*%
%ADD14C,0.2000*%
%ADD15C,0.1200*%
D10*
X146450Y245500D02*
G03*
X146450Y245500I-1250J0D01*
G01*
X166650Y104500D02*
G03*
X166650Y104500I-1250J0D01*
G01*
X93650Y61600D02*
G03*
X93650Y61600I-1250J0D01*
G01*
D11*
X34450Y61150D02*
G03*
X34450Y61150I-1000J0D01*
G01*
X2600Y242500D02*
X5600D01*
X2600Y144500D02*
Y242500D01*
Y144500D02*
X5600D01*
X102600Y143500D02*
X125600D01*
Y144500D01*
Y166500D01*
Y220500D02*
Y242500D01*
X102600D02*
X125600D01*
X19450Y60150D02*
X29450D01*
X19450Y74150D02*
X29450D01*
X93300Y87700D02*
Y90700D01*
Y126700D02*
Y130700D01*
X23300Y126700D02*
Y130700D01*
Y87700D02*
Y90700D01*
Y130700D02*
X93300D01*
X17300Y126700D02*
Y132700D01*
X14300Y129700D02*
X20300D01*
X23300Y87700D02*
X93300D01*
X42300Y130700D02*
X43300D01*
Y88700D02*
Y130700D01*
D12*
X117700Y98700D02*
G03*
X117700Y98700I-500J0D01*
G01*
D13*
X33267Y15200D02*
X43267D01*
X33267D02*
Y28200D01*
X43267D01*
Y15200D02*
Y28200D01*
X94200Y15200D02*
Y28200D01*
X84200D02*
X94200D01*
X84200Y15200D02*
Y28200D01*
Y15200D02*
X94200D01*
X68733D02*
Y28200D01*
X58733D02*
X68733D01*
X58733Y15200D02*
Y28200D01*
Y15200D02*
X68733D01*
X7800D02*
X17800D01*
X7800D02*
Y28200D01*
X17800D01*
Y15200D02*
Y28200D01*
D14*
X148200Y239550D02*
Y241500D01*
X180550D01*
X148200Y187500D02*
Y189450D01*
Y187500D02*
X180550D01*
X179850D02*
X212200D01*
Y189450D01*
Y239550D02*
Y241500D01*
X179850D02*
X212200D01*
X158900Y103000D02*
Y109750D01*
X157150Y103000D02*
X158900Y103000D01*
X124900D02*
X126650Y103000D01*
X124900Y103000D02*
Y109750D01*
Y125250D02*
Y132000D01*
X126650Y132000D01*
X158900Y125250D02*
Y132000D01*
X157150Y132000D02*
X158900Y132000D01*
X98200Y22650D02*
X102200D01*
X98200D02*
Y26650D01*
X148200Y22650D02*
X152200D01*
Y26650D01*
Y72650D02*
Y76650D01*
X148200D02*
X152200D01*
X98200D02*
X102200D01*
X98200Y72650D02*
Y76650D01*
D15*
X36900Y32100D02*
X52500D01*
X36900D02*
Y41700D01*
X52500D01*
Y32100D02*
Y41700D01*
X58700Y50600D02*
Y72200D01*
Y50600D02*
X84200D01*
Y72200D01*
X58700D02*
X84200D01*
X86100Y81500D02*
X95700D01*
X86100Y65900D02*
Y81500D01*
Y65900D02*
X95700D01*
Y81500D01*
X30500Y10500D02*
Y26500D01*
X20500Y10500D02*
X30500D01*
X20500D02*
Y26500D01*
X30500D01*
X63900Y84300D02*
X79500D01*
Y74700D02*
Y84300D01*
X63900Y74700D02*
X79500D01*
X63900D02*
Y84300D01*
X14100Y45600D02*
Y55600D01*
Y45600D02*
X30100D01*
Y55600D01*
X14100D02*
X30100D01*
X45750Y26500D02*
X55750D01*
X45750Y10500D02*
Y26500D01*
Y10500D02*
X55750D01*
Y26500D01*
X71000D02*
X81000D01*
X71000Y10500D02*
Y26500D01*
Y10500D02*
X81000D01*
Y26500D01*
X14100Y33300D02*
Y43300D01*
Y33300D02*
X30100D01*
Y43300D01*
X14100D02*
X30100D01*
X56300Y53400D02*
Y69000D01*
X46700Y53400D02*
X56300D01*
X46700D02*
Y69000D01*
X56300D01*
M02*
