G04 Layer_Color=128*
%FSLAX44Y44*%
%MOMM*%
G71*
G01*
G75*
%ADD10R,0.6000X0.4000*%
%ADD16R,0.2000X0.2000*%
%ADD17R,0.2000X0.2000*%
%ADD18R,0.4000X0.6000*%
%ADD29C,0.6000*%
%ADD44R,3.0000X2.0000*%
%ADD45O,0.2500X0.9000*%
%ADD46O,0.9000X0.2500*%
%ADD47R,1.4000X1.4000*%
%ADD48O,0.6000X0.9500*%
%ADD49R,4.2000X3.4000*%
%ADD50R,0.4000X0.5000*%
%ADD51R,1.1000X1.0000*%
%ADD52R,1.0000X1.8000*%
%ADD53R,1.0000X0.8000*%
%ADD54R,1.5000X1.0000*%
%ADD55R,0.3000X0.3250*%
%ADD56R,0.3250X0.3000*%
%ADD57R,0.5000X0.3000*%
%ADD58R,1.2500X2.1500*%
%ADD59R,1.8000X1.0000*%
%ADD60R,0.5000X0.2500*%
%ADD61R,0.2000X0.2500*%
G36*
X177000Y14200D02*
X173000D01*
Y18200D01*
X175000Y16200D01*
X177000Y18200D01*
Y14200D01*
D02*
G37*
G36*
X192300Y13880D02*
X188300D01*
Y17880D01*
X190300Y15880D01*
X192300Y17880D01*
Y13880D01*
D02*
G37*
G36*
X178800Y96181D02*
X174800D01*
Y100181D01*
X176800Y98181D01*
X178800Y100181D01*
Y96181D01*
D02*
G37*
G36*
X123600Y131800D02*
X125600Y129800D01*
X121600Y129800D01*
Y133800D01*
X125600D01*
X123600Y131800D01*
D02*
G37*
G36*
X189700Y96181D02*
X185700D01*
Y100181D01*
X187700Y98181D01*
X189700Y100181D01*
Y96181D01*
D02*
G37*
D10*
X167200Y65700D02*
D03*
Y73700D02*
D03*
X153600Y73800D02*
D03*
Y65800D02*
D03*
X117500Y81600D02*
D03*
Y89600D02*
D03*
X161700Y46300D02*
D03*
Y54300D02*
D03*
X35100Y82000D02*
D03*
Y90000D02*
D03*
X145400Y145700D02*
D03*
Y153700D02*
D03*
X187700Y46100D02*
D03*
Y54100D02*
D03*
X174600Y46100D02*
D03*
Y54100D02*
D03*
X102400Y71400D02*
D03*
Y63400D02*
D03*
Y87100D02*
D03*
Y95100D02*
D03*
X184600Y27200D02*
D03*
Y35200D02*
D03*
X162339Y29000D02*
D03*
Y21000D02*
D03*
D16*
X190300Y20400D02*
D03*
Y14880D02*
D03*
X175000Y20720D02*
D03*
Y15200D02*
D03*
X187700Y102700D02*
D03*
Y97181D02*
D03*
X176800Y102700D02*
D03*
Y97181D02*
D03*
D17*
X128120Y131800D02*
D03*
X122600Y131800D02*
D03*
D18*
X149300Y49700D02*
D03*
X141300D02*
D03*
X153370Y33200D02*
D03*
X145370D02*
D03*
X153370Y19800D02*
D03*
X145370D02*
D03*
X157900Y100800D02*
D03*
X149900D02*
D03*
X157900Y86900D02*
D03*
X165900D02*
D03*
X127900Y17800D02*
D03*
X135900D02*
D03*
X101600Y29500D02*
D03*
X93600D02*
D03*
X32800Y149800D02*
D03*
X40800D02*
D03*
X61600Y157300D02*
D03*
X53600D02*
D03*
X61600Y143500D02*
D03*
X53600D02*
D03*
X49900Y98200D02*
D03*
X57900D02*
D03*
X46400Y33700D02*
D03*
X54400D02*
D03*
X26100Y37400D02*
D03*
X18100D02*
D03*
X26100Y51500D02*
D03*
X18100D02*
D03*
X122684Y30900D02*
D03*
X114684D02*
D03*
X49700Y67000D02*
D03*
X57700D02*
D03*
X54500Y51500D02*
D03*
X46500D02*
D03*
X33200Y21200D02*
D03*
X25200D02*
D03*
D29*
X117375Y172075D02*
D03*
Y120075D02*
D03*
X127400Y122900D02*
D03*
X182500Y86600D02*
D03*
X177600Y78400D02*
D03*
X159400Y93500D02*
D03*
D44*
X218600Y210700D02*
D03*
Y270700D02*
D03*
D45*
X153000Y200450D02*
D03*
X158000D02*
D03*
X163000D02*
D03*
X168000D02*
D03*
Y172950D02*
D03*
X163000D02*
D03*
X158000D02*
D03*
X153000D02*
D03*
X185200Y115800D02*
D03*
X180200D02*
D03*
X175200D02*
D03*
X170200D02*
D03*
X165200D02*
D03*
Y138800D02*
D03*
X170200D02*
D03*
X175200D02*
D03*
X180200D02*
D03*
X185200D02*
D03*
D46*
X174250Y194200D02*
D03*
Y189200D02*
D03*
Y184200D02*
D03*
Y179200D02*
D03*
X146750D02*
D03*
Y184200D02*
D03*
Y189200D02*
D03*
Y194200D02*
D03*
X189200Y129800D02*
D03*
Y124800D02*
D03*
X161200D02*
D03*
Y129800D02*
D03*
D47*
X160500Y186700D02*
D03*
D48*
X176650Y224850D02*
D03*
X163950D02*
D03*
X151250D02*
D03*
X138550D02*
D03*
Y282350D02*
D03*
X151250D02*
D03*
X163950D02*
D03*
X176650D02*
D03*
D49*
X157600Y253600D02*
D03*
D50*
X97400Y137500D02*
D03*
X90900D02*
D03*
X84400D02*
D03*
Y156500D02*
D03*
X90900D02*
D03*
X97400D02*
D03*
D51*
X40100Y171950D02*
D03*
X76500D02*
D03*
D52*
X7300Y283200D02*
D03*
Y211200D02*
D03*
X109300D02*
D03*
Y283200D02*
D03*
D53*
X9300Y230700D02*
D03*
Y242700D02*
D03*
Y254700D02*
D03*
X107300D02*
D03*
Y242700D02*
D03*
Y230700D02*
D03*
D54*
X175200Y127300D02*
D03*
D55*
X122500Y142375D02*
D03*
X127500D02*
D03*
Y157625D02*
D03*
X122500D02*
D03*
D56*
X132625Y142500D02*
D03*
Y147500D02*
D03*
Y152500D02*
D03*
Y157500D02*
D03*
X117375D02*
D03*
Y152500D02*
D03*
Y147500D02*
D03*
Y142500D02*
D03*
D57*
X39000Y110700D02*
D03*
Y115700D02*
D03*
Y120700D02*
D03*
Y125700D02*
D03*
Y130700D02*
D03*
X61600Y110700D02*
D03*
Y115700D02*
D03*
Y120700D02*
D03*
Y125700D02*
D03*
Y130700D02*
D03*
D58*
X50300Y120700D02*
D03*
D59*
X15600Y129500D02*
D03*
Y104500D02*
D03*
D60*
X195700Y27400D02*
D03*
X173700Y28200D02*
D03*
D61*
X193700Y33900D02*
D03*
X197700D02*
D03*
X171700Y34700D02*
D03*
X175700D02*
D03*
M02*
