G04 Layer_Physical_Order=2*
G04 Layer_Color=36540*
%FSLAX44Y44*%
%MOMM*%
G71*
G01*
G75*
%ADD34C,0.1500*%
%ADD35C,0.2000*%
%ADD37C,0.3000*%
%ADD45R,0.9000X0.9000*%
%ADD46R,0.9000X0.9000*%
%ADD47C,0.4500*%
%ADD48C,0.5000*%
G36*
X220000Y180000D02*
X171000D01*
Y134443D01*
X169827Y133957D01*
X165789Y137995D01*
Y155440D01*
X165789Y155440D01*
X165634Y156220D01*
X165192Y156882D01*
X165192Y156882D01*
X162689Y159384D01*
Y171360D01*
X162534Y172141D01*
X162092Y172802D01*
X162092Y172802D01*
X158938Y175957D01*
X158743Y177257D01*
X159461Y178332D01*
X159714Y179600D01*
X159461Y180868D01*
X158743Y181943D01*
X157668Y182661D01*
X156400Y182914D01*
X155132Y182661D01*
X154409Y182178D01*
X153265Y182632D01*
X153139Y182741D01*
Y192300D01*
X152984Y193080D01*
X152542Y193742D01*
X152542Y193742D01*
X108042Y238242D01*
X107380Y238684D01*
X106600Y238839D01*
X74700D01*
X74700Y238839D01*
X73920Y238684D01*
X73258Y238242D01*
X73258Y238242D01*
X70958Y235942D01*
X70600Y236014D01*
X69332Y235761D01*
X68257Y235043D01*
X67539Y233968D01*
X67286Y232700D01*
X67539Y231432D01*
X68257Y230357D01*
X69332Y229639D01*
X70600Y229386D01*
X71868Y229639D01*
X72463Y230036D01*
X72658Y230014D01*
X73769Y229482D01*
X73939Y228632D01*
X74657Y227557D01*
X75732Y226839D01*
X77000Y226586D01*
X78268Y226839D01*
X79343Y227557D01*
X80061Y228632D01*
X80314Y229900D01*
X80061Y231168D01*
X79343Y232243D01*
X78268Y232961D01*
X77000Y233214D01*
X75732Y232961D01*
X75157Y232578D01*
X74348Y233564D01*
X75545Y234761D01*
X105755D01*
X123354Y217162D01*
X122868Y215989D01*
X97888D01*
X97385Y216492D01*
X96723Y216934D01*
X95943Y217089D01*
X86322D01*
X86255Y217134D01*
X85475Y217289D01*
X81125D01*
X81125Y217289D01*
X80345Y217134D01*
X80278Y217089D01*
X78950D01*
X78950Y217089D01*
X78170Y216934D01*
X77508Y216492D01*
X76005Y214989D01*
X60475D01*
X60442Y215023D01*
X59912Y216259D01*
X60361Y216932D01*
X60614Y218200D01*
X60361Y219468D01*
X59643Y220543D01*
X58568Y221261D01*
X57300Y221514D01*
X56032Y221261D01*
X54957Y220543D01*
X54239Y219468D01*
X53986Y218200D01*
X54194Y217157D01*
X54086Y216680D01*
X53512Y215733D01*
X53042Y215642D01*
X47143Y221541D01*
Y225756D01*
X47260Y225858D01*
X48413Y226318D01*
X49132Y225838D01*
X50400Y225586D01*
X51668Y225838D01*
X52743Y226556D01*
X53461Y227631D01*
X53686Y228763D01*
X54568Y228939D01*
X55643Y229657D01*
X56361Y230732D01*
X56614Y232000D01*
X56361Y233268D01*
X55643Y234343D01*
X54568Y235061D01*
X53300Y235314D01*
X52032Y235061D01*
X50957Y234343D01*
X50239Y233268D01*
X50179Y232967D01*
X49550Y232731D01*
X48471Y233511D01*
X48397Y233654D01*
X48165Y234818D01*
X47447Y235893D01*
X46372Y236611D01*
X45104Y236864D01*
X43836Y236611D01*
X42761Y235893D01*
X42043Y234818D01*
X41790Y233550D01*
X42043Y232282D01*
X42761Y231207D01*
X43065Y231004D01*
Y220696D01*
X43220Y219916D01*
X43662Y219254D01*
X50407Y212509D01*
X49881Y211239D01*
X25845D01*
X9542Y227542D01*
X9614Y227900D01*
X9361Y229168D01*
X8643Y230243D01*
X7568Y230961D01*
X6300Y231214D01*
X5032Y230961D01*
X3957Y230243D01*
X3239Y229168D01*
X2986Y227900D01*
X3239Y226632D01*
X3957Y225557D01*
X5032Y224839D01*
X6300Y224586D01*
X6658Y224658D01*
X22607Y208709D01*
X22081Y207439D01*
X16645D01*
X9542Y214541D01*
X9614Y214900D01*
X9361Y216168D01*
X8643Y217243D01*
X7568Y217961D01*
X6300Y218214D01*
X5032Y217961D01*
X3957Y217243D01*
X3239Y216168D01*
X2986Y214900D01*
X3239Y213632D01*
X3957Y212557D01*
X5032Y211839D01*
X6300Y211586D01*
X6658Y211658D01*
X12904Y205413D01*
X12418Y204239D01*
X8546D01*
X8343Y204543D01*
X7268Y205261D01*
X6000Y205514D01*
X4732Y205261D01*
X3657Y204543D01*
X2939Y203468D01*
X2686Y202200D01*
X2939Y200932D01*
X3657Y199857D01*
X4732Y199139D01*
X6000Y198886D01*
X7268Y199139D01*
X8343Y199857D01*
X8546Y200161D01*
X13018D01*
X13504Y198988D01*
X6658Y192142D01*
X6300Y192214D01*
X5032Y191961D01*
X3957Y191243D01*
X3239Y190168D01*
X2986Y188900D01*
X3239Y187632D01*
X3957Y186557D01*
X5032Y185839D01*
X6300Y185586D01*
X7568Y185839D01*
X8643Y186557D01*
X9361Y187632D01*
X9614Y188900D01*
X9542Y189258D01*
X17445Y197161D01*
X77419D01*
X77860Y196866D01*
X78640Y196711D01*
X78705D01*
X79658Y195758D01*
X79586Y195400D01*
X79839Y194132D01*
X80557Y193057D01*
X81632Y192339D01*
X82900Y192086D01*
X84168Y192339D01*
X85243Y193057D01*
X85961Y194132D01*
X86214Y195400D01*
X85961Y196668D01*
X85243Y197743D01*
X84168Y198461D01*
X84397Y199711D01*
X86005D01*
X87158Y198559D01*
X87086Y198200D01*
X87339Y196932D01*
X88057Y195857D01*
X89132Y195139D01*
X90400Y194886D01*
X91668Y195139D01*
X92743Y195857D01*
X93461Y196932D01*
X93714Y198200D01*
X93461Y199468D01*
X92743Y200543D01*
X91668Y201261D01*
X90463Y201501D01*
X90356Y201569D01*
X89943Y202091D01*
X90531Y203361D01*
X92000D01*
X92780Y203516D01*
X93442Y203958D01*
X95126Y205642D01*
X95132Y205638D01*
X96400Y205386D01*
X97668Y205638D01*
X98743Y206357D01*
X99461Y207432D01*
X99713Y208700D01*
X99461Y209968D01*
X99011Y210641D01*
X99541Y211876D01*
X99574Y211911D01*
X124363D01*
X146061Y190213D01*
Y186689D01*
X141443D01*
X140726Y187959D01*
X140914Y188900D01*
X140661Y190168D01*
X139943Y191243D01*
X138868Y191961D01*
X137600Y192214D01*
X136332Y191961D01*
X135257Y191243D01*
X134539Y190168D01*
X134286Y188900D01*
X134464Y188009D01*
X133724Y186739D01*
X84533D01*
X84533Y186739D01*
X83753Y186584D01*
X83091Y186142D01*
X83091Y186142D01*
X73608Y176659D01*
X73166Y175997D01*
X73011Y175217D01*
Y167283D01*
X73161Y166528D01*
Y146330D01*
X66920Y140089D01*
X60459D01*
X59789Y141062D01*
X59713Y141359D01*
X59839Y141995D01*
Y152454D01*
X60143Y152657D01*
X60861Y153732D01*
X61114Y155000D01*
X60861Y156268D01*
X60143Y157343D01*
X59068Y158061D01*
X57800Y158314D01*
X56532Y158061D01*
X55457Y157343D01*
X54739Y156268D01*
X54486Y155000D01*
X54739Y153732D01*
X55457Y152657D01*
X55761Y152454D01*
Y142840D01*
X53660Y140739D01*
X45282D01*
X44796Y141912D01*
X45842Y142958D01*
X45842Y142958D01*
X46284Y143620D01*
X46439Y144400D01*
Y152754D01*
X46743Y152957D01*
X47461Y154032D01*
X47714Y155300D01*
X47461Y156568D01*
X46743Y157643D01*
X45668Y158361D01*
X44400Y158614D01*
X43132Y158361D01*
X42057Y157643D01*
X41339Y156568D01*
X41086Y155300D01*
X41339Y154032D01*
X42057Y152957D01*
X42361Y152754D01*
Y145245D01*
X29308Y132192D01*
X28866Y131530D01*
X28711Y130750D01*
Y111130D01*
X28606Y110955D01*
X27801Y110283D01*
X27505Y110173D01*
X26800Y110314D01*
X25532Y110061D01*
X24457Y109343D01*
X23739Y108268D01*
X23486Y107000D01*
X23739Y105732D01*
X24457Y104657D01*
X24272Y103253D01*
X24257Y103243D01*
X23538Y102168D01*
X23286Y100900D01*
X23538Y99632D01*
X24257Y98557D01*
X25332Y97838D01*
X26600Y97586D01*
X27868Y97838D01*
X28943Y98557D01*
X29661Y99632D01*
X29914Y100900D01*
X29661Y102168D01*
X28943Y103243D01*
X29128Y104647D01*
X29143Y104657D01*
X29861Y105732D01*
X30044Y106649D01*
X31028Y107111D01*
X31340Y107149D01*
X38497Y99991D01*
Y93039D01*
X38652Y92259D01*
X39094Y91597D01*
X41051Y89640D01*
X41012Y89323D01*
X40551Y88344D01*
X39632Y88161D01*
X38557Y87443D01*
X37839Y86368D01*
X37586Y85100D01*
X37839Y83832D01*
X38557Y82757D01*
X39632Y82039D01*
X40900Y81786D01*
X42168Y82039D01*
X43243Y82757D01*
X43961Y83832D01*
X44144Y84751D01*
X45123Y85212D01*
X45440Y85251D01*
X49675Y81016D01*
X50337Y80574D01*
X51117Y80419D01*
X51117Y80419D01*
X55931D01*
X55976Y80371D01*
X56493Y79149D01*
X56038Y78468D01*
X55786Y77200D01*
X56038Y75932D01*
X56757Y74857D01*
X57832Y74138D01*
X59100Y73886D01*
X60368Y74138D01*
X61443Y74857D01*
X62161Y75932D01*
X62414Y77200D01*
X62161Y78468D01*
X61443Y79543D01*
X60368Y80261D01*
X59984Y80338D01*
X59566Y81716D01*
X61261Y83411D01*
X67250D01*
X68030Y83566D01*
X68692Y84008D01*
X75944Y91260D01*
X85777D01*
X86484Y90399D01*
X86737Y89131D01*
X86810Y89022D01*
X86806Y88952D01*
X86167Y87698D01*
X85482Y87561D01*
X84407Y86843D01*
X83689Y85768D01*
X83436Y84500D01*
X83689Y83232D01*
X84407Y82157D01*
X83805Y81032D01*
X77188Y74415D01*
X76746Y73753D01*
X76591Y72973D01*
Y62775D01*
X68455Y54639D01*
X54200D01*
X53420Y54484D01*
X52758Y54042D01*
X49255Y50539D01*
X43730D01*
X42950Y50384D01*
X42288Y49942D01*
X42288Y49942D01*
X39958Y47612D01*
X39516Y46950D01*
X39361Y46170D01*
Y42300D01*
X39516Y41520D01*
X39958Y40858D01*
X49161Y31655D01*
Y22656D01*
X48545Y22319D01*
X47891Y22145D01*
X46968Y22761D01*
X45700Y23014D01*
X44432Y22761D01*
X43357Y22043D01*
X42639Y20968D01*
X42386Y19700D01*
X42639Y18432D01*
X43357Y17357D01*
X44432Y16638D01*
X45700Y16386D01*
X46968Y16638D01*
X47253Y16829D01*
X48169Y15914D01*
X48139Y15868D01*
X47886Y14600D01*
X48139Y13332D01*
X48857Y12257D01*
X49932Y11539D01*
X51200Y11286D01*
X52468Y11539D01*
X53543Y12257D01*
X54261Y13332D01*
X54514Y14600D01*
X54261Y15868D01*
X53543Y16943D01*
X53239Y17146D01*
Y30718D01*
X54412Y31204D01*
X57108Y28508D01*
X57108Y28508D01*
X57770Y28066D01*
X58550Y27911D01*
X67425D01*
X68205Y28066D01*
X68867Y28508D01*
X71220Y30861D01*
X94755D01*
X104258Y21358D01*
X104920Y20916D01*
X105700Y20761D01*
X122055D01*
X123957Y18858D01*
X123886Y18500D01*
X124138Y17232D01*
X124857Y16157D01*
X125932Y15439D01*
X127200Y15186D01*
X128468Y15439D01*
X129543Y16157D01*
X130261Y17232D01*
X130271Y17282D01*
X131613Y17520D01*
X132057Y16857D01*
X133132Y16139D01*
X134400Y15886D01*
X135668Y16139D01*
X136743Y16857D01*
X137461Y17932D01*
X137713Y19200D01*
X137461Y20468D01*
X136949Y21235D01*
Y22800D01*
X136755Y23776D01*
X136202Y24603D01*
X132964Y27841D01*
X133006Y29107D01*
X133127Y29379D01*
X133543Y29657D01*
X134261Y30732D01*
X134514Y32000D01*
X134261Y33268D01*
X133543Y34343D01*
X132989Y34713D01*
Y63857D01*
X134259Y64573D01*
X135200Y64386D01*
X136468Y64639D01*
X137543Y65357D01*
X138838Y65132D01*
X139557Y64057D01*
X140632Y63338D01*
X141900Y63086D01*
X143168Y63338D01*
X144243Y64057D01*
X144446Y64361D01*
X150339D01*
X153661Y61039D01*
Y53800D01*
X153816Y53020D01*
X154258Y52358D01*
X156608Y50008D01*
X157270Y49566D01*
X158050Y49411D01*
X163648D01*
X163682Y49389D01*
X164950Y49136D01*
X166218Y49389D01*
X167293Y50107D01*
X168011Y51182D01*
X168263Y52450D01*
X168011Y53718D01*
X167293Y54793D01*
X166218Y55511D01*
X165693Y55616D01*
X164665Y56649D01*
X164558Y56981D01*
X164361Y57968D01*
X164311Y58044D01*
X164108Y59299D01*
X165183Y60017D01*
X165901Y61092D01*
X166154Y62360D01*
X165901Y63628D01*
X165358Y64441D01*
X165183Y64758D01*
X165190Y66226D01*
X165461Y66632D01*
X165713Y67900D01*
X165461Y69168D01*
X164743Y70243D01*
X163668Y70961D01*
X163218Y71051D01*
X162386Y71374D01*
X162296Y72430D01*
X162360Y72750D01*
X162108Y74018D01*
X161389Y75093D01*
X160314Y75811D01*
X159046Y76064D01*
X157778Y75811D01*
X156703Y75093D01*
X155985Y74018D01*
X155732Y72750D01*
X155785Y72485D01*
X154615Y71859D01*
X152599Y73875D01*
Y85234D01*
X152903Y85437D01*
X153621Y86512D01*
X153874Y87780D01*
X153621Y89048D01*
X152903Y90123D01*
X151828Y90841D01*
X150560Y91094D01*
X149292Y90841D01*
X148217Y90123D01*
X147499Y89048D01*
X147246Y87780D01*
X147422Y86898D01*
X146251Y86272D01*
X145079Y87445D01*
Y89514D01*
X145383Y89717D01*
X146101Y90792D01*
X146354Y92060D01*
X146101Y93328D01*
X145383Y94403D01*
X144308Y95121D01*
X143423Y95297D01*
X143249Y96144D01*
X143288Y96619D01*
X144243Y97257D01*
X144961Y98332D01*
X145214Y99600D01*
X144961Y100868D01*
X144776Y101146D01*
X145455Y102416D01*
X146661D01*
X148717Y100359D01*
X148586Y99700D01*
X148839Y98432D01*
X149557Y97357D01*
X150632Y96639D01*
X151900Y96386D01*
X153168Y96639D01*
X154243Y97357D01*
X154961Y98432D01*
X155214Y99700D01*
X154961Y100968D01*
X154243Y102043D01*
X153168Y102761D01*
X151900Y103014D01*
X151241Y102882D01*
X148662Y105462D01*
X148083Y105849D01*
X147400Y105984D01*
X138310D01*
X137627Y105849D01*
X137048Y105462D01*
X134838Y103252D01*
X134452Y102673D01*
X134316Y101990D01*
Y97407D01*
X133046Y97282D01*
X133020Y97411D01*
X132302Y98486D01*
X131227Y99204D01*
X129959Y99457D01*
X128691Y99204D01*
X127863Y100179D01*
X127851Y100238D01*
X127133Y101313D01*
X126058Y102031D01*
X124790Y102284D01*
X124208Y102168D01*
X123695Y102827D01*
X123521Y103326D01*
X123864Y103840D01*
X124019Y104620D01*
Y110530D01*
X123864Y111311D01*
X124057Y111776D01*
X124812Y111926D01*
X125887Y112644D01*
X126605Y113719D01*
X126858Y114987D01*
X126605Y116255D01*
X125887Y117330D01*
X125772Y117407D01*
X125692Y118708D01*
X127745Y120761D01*
X158854D01*
X159039Y119832D01*
X159473Y119181D01*
X159459Y117813D01*
X159358Y117496D01*
X158739Y116568D01*
X158486Y115300D01*
X158739Y114032D01*
X159457Y112957D01*
X160021Y112580D01*
X160124Y111153D01*
X160108Y111111D01*
X159857Y110943D01*
X159139Y109868D01*
X158886Y108600D01*
X159139Y107332D01*
X159857Y106257D01*
X160932Y105539D01*
X161415Y105442D01*
X161683Y104094D01*
X161457Y103943D01*
X160739Y102868D01*
X160486Y101600D01*
X160739Y100332D01*
X161457Y99257D01*
X162532Y98539D01*
X163800Y98286D01*
X165068Y98539D01*
X165944Y99124D01*
X166753Y98137D01*
X163855Y95239D01*
X160246D01*
X160043Y95543D01*
X158968Y96261D01*
X157700Y96514D01*
X156432Y96261D01*
X155357Y95543D01*
X154639Y94468D01*
X154386Y93200D01*
X154639Y91932D01*
X155357Y90857D01*
X156432Y90139D01*
X157700Y89886D01*
X158968Y90139D01*
X160043Y90857D01*
X160246Y91161D01*
X164700D01*
X165480Y91316D01*
X166142Y91758D01*
X169827Y95443D01*
X171000Y94957D01*
Y0D01*
X0D01*
Y250000D01*
X220000D01*
Y180000D01*
D02*
G37*
G36*
X135586Y176200D02*
X135839Y174932D01*
X136557Y173857D01*
X137024Y173545D01*
X137081Y173126D01*
X136910Y172094D01*
X136533Y171842D01*
X136533Y171842D01*
X130858Y166166D01*
X130416Y165505D01*
X130261Y164725D01*
Y158300D01*
X130416Y157520D01*
X130765Y156997D01*
X130686Y156600D01*
X130939Y155332D01*
X131657Y154257D01*
X132732Y153539D01*
X134000Y153286D01*
X135268Y153539D01*
X136343Y154257D01*
X136546Y154561D01*
X141100D01*
X141880Y154716D01*
X142542Y155158D01*
X152542Y165158D01*
X152542Y165158D01*
X152984Y165820D01*
X153111Y166461D01*
X153534Y166752D01*
X154409Y167088D01*
X154932Y166739D01*
X156200Y166486D01*
X157341Y166713D01*
X157572Y166669D01*
X158611Y165975D01*
Y164143D01*
X157341Y163426D01*
X156400Y163614D01*
X155132Y163361D01*
X154057Y162643D01*
X153339Y161568D01*
X153086Y160300D01*
X153339Y159032D01*
X154057Y157957D01*
X154361Y157754D01*
Y156510D01*
X154516Y155730D01*
X154958Y155069D01*
X155346Y154680D01*
X154955Y153276D01*
X154157Y152743D01*
X153439Y151668D01*
X153186Y150400D01*
X153439Y149132D01*
X154157Y148057D01*
X155232Y147339D01*
X156500Y147086D01*
X157441Y147274D01*
X158711Y146557D01*
Y143306D01*
X157441Y142679D01*
X156868Y143061D01*
X155600Y143314D01*
X154332Y143061D01*
X153257Y142343D01*
X153014Y141980D01*
X152626Y141914D01*
X151553Y142079D01*
X151043Y142843D01*
X149968Y143561D01*
X148700Y143814D01*
X147432Y143561D01*
X146357Y142843D01*
X145639Y141768D01*
X145386Y140500D01*
X145639Y139232D01*
X146056Y138607D01*
X145840Y138309D01*
X144304Y138352D01*
X144243Y138443D01*
X143168Y139161D01*
X141900Y139414D01*
X140632Y139161D01*
X139557Y138443D01*
X138839Y137368D01*
X138586Y136100D01*
X138773Y135159D01*
X138057Y133889D01*
X133206D01*
X132579Y135159D01*
X132961Y135732D01*
X133214Y137000D01*
X132961Y138268D01*
X132243Y139343D01*
X131168Y140061D01*
X129900Y140314D01*
X128632Y140061D01*
X127557Y139343D01*
X126839Y138268D01*
X126586Y137000D01*
X126839Y135732D01*
X127221Y135159D01*
X126594Y133889D01*
X94250D01*
X93470Y133734D01*
X92808Y133292D01*
X92808Y133292D01*
X83700Y124184D01*
X82642Y125242D01*
X81981Y125684D01*
X81200Y125839D01*
X72825D01*
X72339Y127012D01*
X87742Y142415D01*
X87742Y142416D01*
X88184Y143077D01*
X88339Y143857D01*
X88339Y143857D01*
Y165455D01*
X99495Y176611D01*
X134373D01*
X135586Y176200D01*
D02*
G37*
G36*
X122447Y71376D02*
X118738Y67667D01*
X118351Y67088D01*
X118216Y66405D01*
Y34580D01*
X118351Y33897D01*
X118738Y33318D01*
X119998Y32059D01*
X119986Y32000D01*
X120239Y30732D01*
X120581Y30219D01*
X119904Y28949D01*
X111846D01*
X111252Y30219D01*
X111661Y30832D01*
X111913Y32100D01*
X111661Y33368D01*
X110943Y34443D01*
X110598Y34674D01*
X110568Y34695D01*
X110471Y34909D01*
X110316Y36267D01*
X110318Y36272D01*
X110484Y36520D01*
X110639Y37300D01*
X110587Y37565D01*
X110613Y37700D01*
X110361Y38968D01*
X109643Y40043D01*
X108956Y40502D01*
X109167Y41838D01*
X109168Y41839D01*
X110243Y42557D01*
X110961Y43632D01*
X111214Y44900D01*
X110961Y46168D01*
X110243Y47243D01*
X109168Y47961D01*
X107900Y48214D01*
X106632Y47961D01*
X105557Y47243D01*
X104146Y47417D01*
X102614Y48949D01*
Y62091D01*
X113169Y72646D01*
X121921D01*
X122447Y71376D01*
D02*
G37*
G36*
X105745Y101871D02*
X112488Y95128D01*
X112488Y95128D01*
X116758Y90858D01*
X116758Y90858D01*
X117420Y90416D01*
X118200Y90261D01*
X120088D01*
X121226Y89474D01*
X121479Y88206D01*
X122197Y87131D01*
X122501Y86927D01*
Y83035D01*
X118835Y79369D01*
X117000D01*
X116671Y79915D01*
X116464Y80639D01*
X117061Y81532D01*
X117313Y82801D01*
X117061Y84069D01*
X116343Y85144D01*
X115268Y85862D01*
X114000Y86114D01*
X112732Y85862D01*
X111816Y85250D01*
X111657Y85144D01*
X110343Y85343D01*
X109268Y86061D01*
X108000Y86314D01*
X106732Y86061D01*
X105657Y85343D01*
X104939Y84268D01*
X104686Y83000D01*
X104939Y81732D01*
X105657Y80657D01*
X106732Y79939D01*
X108000Y79686D01*
X108505Y79787D01*
X108891Y79253D01*
X109071Y78604D01*
X105402Y74936D01*
X104305Y75126D01*
X103972Y75302D01*
X103343Y76243D01*
X102268Y76961D01*
X101996Y77016D01*
X101608Y78010D01*
X101553Y78399D01*
X101934Y78970D01*
X102090Y79750D01*
Y99425D01*
X102090Y99425D01*
X101934Y100205D01*
X101968Y100356D01*
X102617Y101469D01*
X103468Y101638D01*
X104543Y102357D01*
X105745Y101871D01*
D02*
G37*
G36*
X128911Y70996D02*
Y34379D01*
X128857Y34343D01*
X128139Y33268D01*
X127886Y32000D01*
X128139Y30732D01*
X128481Y30219D01*
X127864Y29060D01*
X126636D01*
X126019Y30219D01*
X126361Y30732D01*
X126614Y32000D01*
X126361Y33268D01*
X125643Y34343D01*
X124568Y35061D01*
X123300Y35314D01*
X123030Y35260D01*
X121784Y36303D01*
Y65666D01*
X127641Y71523D01*
X128911Y70996D01*
D02*
G37*
%LPC*%
G36*
X75100Y24814D02*
X73832Y24561D01*
X72757Y23843D01*
X72039Y22768D01*
X71786Y21500D01*
X72039Y20232D01*
X72757Y19157D01*
X73384Y18738D01*
X73773Y17960D01*
X73677Y17175D01*
X73239Y16518D01*
X72986Y15250D01*
X73239Y13982D01*
X73957Y12907D01*
X75032Y12189D01*
X76300Y11936D01*
X77568Y12189D01*
X78643Y12907D01*
X79361Y13982D01*
X79614Y15250D01*
X79361Y16518D01*
X78643Y17593D01*
X78016Y18012D01*
X77627Y18790D01*
X77723Y19576D01*
X78161Y20232D01*
X78414Y21500D01*
X78161Y22768D01*
X77443Y23843D01*
X76368Y24561D01*
X75100Y24814D01*
D02*
G37*
G36*
X23100Y25014D02*
X21832Y24761D01*
X20757Y24043D01*
X20038Y22968D01*
X19786Y21700D01*
X20038Y20432D01*
X20757Y19357D01*
X21832Y18638D01*
X23100Y18386D01*
X24368Y18638D01*
X25443Y19357D01*
X26161Y20432D01*
X26414Y21700D01*
X26161Y22968D01*
X25443Y24043D01*
X24368Y24761D01*
X23100Y25014D01*
D02*
G37*
G36*
X142850Y42964D02*
X141582Y42711D01*
X140507Y41993D01*
X139789Y40918D01*
X139536Y39650D01*
X139789Y38382D01*
X140128Y37874D01*
X140346Y36493D01*
X139628Y35418D01*
X139376Y34150D01*
X139628Y32882D01*
X140346Y31807D01*
X141422Y31089D01*
X142690Y30836D01*
X143958Y31089D01*
X145033Y31807D01*
X145751Y32882D01*
X146003Y34150D01*
X145751Y35418D01*
X145412Y35926D01*
X145193Y37307D01*
X145911Y38382D01*
X146164Y39650D01*
X145911Y40918D01*
X145193Y41993D01*
X144118Y42711D01*
X142850Y42964D01*
D02*
G37*
G36*
X30500Y35514D02*
X29232Y35261D01*
X28157Y34543D01*
X27438Y33468D01*
X27186Y32200D01*
X27438Y30932D01*
X28157Y29857D01*
X29232Y29139D01*
X30500Y28886D01*
X31768Y29139D01*
X32843Y29857D01*
X33561Y30932D01*
X33814Y32200D01*
X33561Y33468D01*
X32843Y34543D01*
X31768Y35261D01*
X30500Y35514D01*
D02*
G37*
G36*
X148500Y27214D02*
X147232Y26961D01*
X146157Y26243D01*
X145438Y25168D01*
X145186Y23900D01*
X145438Y22632D01*
X146157Y21557D01*
X147232Y20838D01*
X148500Y20586D01*
X149768Y20838D01*
X150843Y21557D01*
X151561Y22632D01*
X151813Y23900D01*
X151561Y25168D01*
X150843Y26243D01*
X149768Y26961D01*
X148500Y27214D01*
D02*
G37*
G36*
X117100Y19114D02*
X115832Y18861D01*
X114757Y18143D01*
X114038Y17068D01*
X113786Y15800D01*
X113991Y14770D01*
X113317Y13500D01*
X108800D01*
Y11771D01*
X107626Y11495D01*
X107530Y11515D01*
X106843Y12543D01*
X105768Y13261D01*
X104500Y13514D01*
X103232Y13261D01*
X102157Y12543D01*
X101439Y11468D01*
X101186Y10200D01*
X101439Y8932D01*
X102157Y7857D01*
X103232Y7139D01*
X104500Y6886D01*
X105768Y7139D01*
X106843Y7857D01*
X107530Y8885D01*
X107626Y8905D01*
X108800Y8629D01*
Y2500D01*
X119800D01*
Y13500D01*
X119800Y13500D01*
X120131Y14478D01*
X120161Y14532D01*
X120161Y14532D01*
X120413Y15800D01*
X120161Y17068D01*
X119443Y18143D01*
X118368Y18861D01*
X117100Y19114D01*
D02*
G37*
G36*
X69000Y13500D02*
X58000D01*
Y2500D01*
X69000D01*
Y13500D01*
D02*
G37*
G36*
X43600D02*
X32600D01*
Y2500D01*
X43600D01*
Y13500D01*
D02*
G37*
G36*
X18200D02*
X7200D01*
Y2500D01*
X18200D01*
Y13500D01*
D02*
G37*
G36*
X94400D02*
X83400D01*
Y2500D01*
X94400D01*
Y13500D01*
D02*
G37*
G36*
X24800Y17214D02*
X23532Y16961D01*
X22457Y16243D01*
X21739Y15168D01*
X21486Y13900D01*
X21739Y12632D01*
X22457Y11557D01*
X23532Y10839D01*
X24800Y10586D01*
X26068Y10839D01*
X27143Y11557D01*
X27861Y12632D01*
X28114Y13900D01*
X27861Y15168D01*
X27143Y16243D01*
X26068Y16961D01*
X24800Y17214D01*
D02*
G37*
G36*
X157900Y13500D02*
X146900D01*
Y2500D01*
X157900D01*
Y13500D01*
D02*
G37*
G36*
X145200D02*
X134200D01*
Y2500D01*
X145200D01*
Y13500D01*
D02*
G37*
G36*
X158300Y204614D02*
X157032Y204361D01*
X155957Y203643D01*
X155239Y202568D01*
X154986Y201300D01*
X155239Y200032D01*
X155957Y198957D01*
X157032Y198239D01*
X158300Y197986D01*
X159568Y198239D01*
X160643Y198957D01*
X161361Y200032D01*
X161614Y201300D01*
X161361Y202568D01*
X160643Y203643D01*
X159568Y204361D01*
X158300Y204614D01*
D02*
G37*
G36*
X6200Y178814D02*
X4932Y178561D01*
X3857Y177843D01*
X3139Y176768D01*
X2886Y175500D01*
X3139Y174232D01*
X3857Y173157D01*
X4932Y172439D01*
X6200Y172186D01*
X6558Y172258D01*
X22511Y156305D01*
Y150732D01*
X21337Y150246D01*
X9342Y162241D01*
X9414Y162600D01*
X9161Y163868D01*
X8443Y164943D01*
X7368Y165661D01*
X6100Y165914D01*
X4832Y165661D01*
X3757Y164943D01*
X3039Y163868D01*
X2786Y162600D01*
X3039Y161332D01*
X3757Y160257D01*
X4832Y159539D01*
X6100Y159286D01*
X6459Y159358D01*
X19511Y146305D01*
Y140020D01*
X18241Y139895D01*
X18184Y140180D01*
X17742Y140842D01*
X17742Y140842D01*
X9542Y149042D01*
X9614Y149400D01*
X9361Y150668D01*
X8643Y151743D01*
X7568Y152461D01*
X6300Y152714D01*
X5032Y152461D01*
X3957Y151743D01*
X3239Y150668D01*
X2986Y149400D01*
X3239Y148132D01*
X3957Y147057D01*
X5032Y146339D01*
X6300Y146086D01*
X6658Y146158D01*
X14261Y138555D01*
Y132946D01*
X13957Y132743D01*
X13239Y131668D01*
X12986Y130400D01*
X13239Y129132D01*
X13957Y128057D01*
X15032Y127339D01*
X16300Y127086D01*
X17568Y127339D01*
X18241Y127788D01*
X19477Y127258D01*
X19511Y127226D01*
Y122095D01*
X14209Y116792D01*
X13850Y116864D01*
X12582Y116611D01*
X11507Y115893D01*
X10789Y114818D01*
X10536Y113550D01*
X10789Y112282D01*
X11507Y111207D01*
X12582Y110489D01*
X13850Y110236D01*
X15118Y110489D01*
X15644Y110840D01*
X16453Y109853D01*
X12458Y105858D01*
X12016Y105197D01*
X11861Y104416D01*
Y103046D01*
X11557Y102843D01*
X10839Y101768D01*
X10586Y100500D01*
X10839Y99232D01*
X11557Y98157D01*
X12632Y97439D01*
X13900Y97186D01*
X15168Y97439D01*
X16243Y98157D01*
X16961Y99232D01*
X17214Y100500D01*
X16961Y101768D01*
X16243Y102843D01*
X16499Y104131D01*
X25992Y113624D01*
X26434Y114286D01*
X26589Y115066D01*
Y157150D01*
X26589Y157150D01*
X26434Y157930D01*
X25992Y158592D01*
X9442Y175142D01*
X9514Y175500D01*
X9261Y176768D01*
X8543Y177843D01*
X7468Y178561D01*
X6200Y178814D01*
D02*
G37*
G36*
X160000Y88513D02*
X158732Y88261D01*
X157657Y87543D01*
X156938Y86468D01*
X156686Y85200D01*
X156938Y83932D01*
X157657Y82857D01*
X158732Y82138D01*
X160000Y81886D01*
X161268Y82138D01*
X162343Y82857D01*
X163061Y83932D01*
X163313Y85200D01*
X163061Y86468D01*
X162343Y87543D01*
X161268Y88261D01*
X160000Y88513D01*
D02*
G37*
G36*
X200750Y211464D02*
X199482Y211211D01*
X198407Y210493D01*
X197689Y209418D01*
X197436Y208150D01*
X197689Y206882D01*
X198407Y205807D01*
X199482Y205089D01*
X200750Y204836D01*
X202018Y205089D01*
X203093Y205807D01*
X203811Y206882D01*
X204064Y208150D01*
X203811Y209418D01*
X203093Y210493D01*
X202018Y211211D01*
X200750Y211464D01*
D02*
G37*
G36*
X208950Y245064D02*
X207682Y244811D01*
X206607Y244093D01*
X205889Y243018D01*
X205636Y241750D01*
X205889Y240482D01*
X206607Y239407D01*
X207682Y238689D01*
X208950Y238436D01*
X210218Y238689D01*
X211293Y239407D01*
X212011Y240482D01*
X212264Y241750D01*
X212011Y243018D01*
X211293Y244093D01*
X210218Y244811D01*
X208950Y245064D01*
D02*
G37*
G36*
X166700Y235714D02*
X165432Y235461D01*
X164357Y234743D01*
X163639Y233668D01*
X163386Y232400D01*
X163639Y231132D01*
X164357Y230057D01*
X165432Y229339D01*
X166700Y229086D01*
X167968Y229339D01*
X169043Y230057D01*
X169761Y231132D01*
X170014Y232400D01*
X169761Y233668D01*
X169043Y234743D01*
X167968Y235461D01*
X166700Y235714D01*
D02*
G37*
G36*
X201500Y233114D02*
X200232Y232861D01*
X199157Y232143D01*
X198439Y231068D01*
X198186Y229800D01*
X198439Y228532D01*
X199157Y227457D01*
X200232Y226739D01*
X201500Y226486D01*
X202768Y226739D01*
X203843Y227457D01*
X204561Y228532D01*
X204814Y229800D01*
X204561Y231068D01*
X203843Y232143D01*
X202768Y232861D01*
X201500Y233114D01*
D02*
G37*
G36*
X13500Y81700D02*
X2500D01*
Y70700D01*
X13500D01*
Y81700D01*
D02*
G37*
G36*
X33600Y53014D02*
X32332Y52761D01*
X31257Y52043D01*
X30539Y50968D01*
X30286Y49700D01*
X30539Y48432D01*
X31257Y47357D01*
X32332Y46639D01*
X33600Y46386D01*
X34868Y46639D01*
X35943Y47357D01*
X36661Y48432D01*
X36914Y49700D01*
X36661Y50968D01*
X35943Y52043D01*
X34868Y52761D01*
X33600Y53014D01*
D02*
G37*
G36*
X25900Y51414D02*
X24632Y51161D01*
X23557Y50443D01*
X22838Y49368D01*
X22586Y48100D01*
X22838Y46832D01*
X23557Y45757D01*
X24632Y45038D01*
X25900Y44786D01*
X27168Y45038D01*
X28243Y45757D01*
X28961Y46832D01*
X29214Y48100D01*
X28961Y49368D01*
X28243Y50443D01*
X27168Y51161D01*
X25900Y51414D01*
D02*
G37*
G36*
X13500Y43600D02*
X2500D01*
Y32600D01*
X13500D01*
Y43600D01*
D02*
G37*
G36*
X38600Y59613D02*
X37332Y59361D01*
X36257Y58643D01*
X35538Y57568D01*
X35286Y56300D01*
X35538Y55032D01*
X36257Y53957D01*
X37332Y53239D01*
X38600Y52986D01*
X39868Y53239D01*
X40943Y53957D01*
X41661Y55032D01*
X41914Y56300D01*
X41661Y57568D01*
X40943Y58643D01*
X39868Y59361D01*
X38600Y59613D01*
D02*
G37*
G36*
X39150Y67464D02*
X37882Y67211D01*
X37369Y66869D01*
X36450Y66598D01*
X35531Y66869D01*
X35018Y67211D01*
X33750Y67464D01*
X32482Y67211D01*
X31407Y66493D01*
X30689Y65418D01*
X30436Y64150D01*
X30689Y62882D01*
X31407Y61807D01*
X32482Y61089D01*
X33750Y60836D01*
X35018Y61089D01*
X35531Y61431D01*
X36450Y61702D01*
X37369Y61431D01*
X37882Y61089D01*
X39150Y60836D01*
X40418Y61089D01*
X41493Y61807D01*
X42211Y62882D01*
X42464Y64150D01*
X42211Y65418D01*
X41493Y66493D01*
X40418Y67211D01*
X39150Y67464D01*
D02*
G37*
G36*
X13500Y69000D02*
X2500D01*
Y58000D01*
X13500D01*
Y61554D01*
X14770Y61679D01*
X14939Y60832D01*
X15657Y59757D01*
X16732Y59039D01*
X18000Y58786D01*
X19268Y59039D01*
X20343Y59757D01*
X21061Y60832D01*
X21314Y62100D01*
X21061Y63368D01*
X20343Y64443D01*
X19268Y65161D01*
X18000Y65413D01*
X16732Y65161D01*
X15657Y64443D01*
X14939Y63368D01*
X14770Y62521D01*
X13500Y62646D01*
Y69000D01*
D02*
G37*
G36*
X142800Y60013D02*
X141532Y59761D01*
X140457Y59043D01*
X139738Y57968D01*
X139486Y56700D01*
X139738Y55432D01*
X140457Y54357D01*
X141532Y53639D01*
X142800Y53386D01*
X144068Y53639D01*
X145143Y54357D01*
X145861Y55432D01*
X146113Y56700D01*
X145861Y57968D01*
X145143Y59043D01*
X144068Y59761D01*
X142800Y60013D01*
D02*
G37*
%LPD*%
D34*
X120000Y34580D02*
Y66405D01*
Y34580D02*
X122580Y32000D01*
X120000Y66405D02*
X138790Y85195D01*
X147400Y104200D02*
X151900Y99700D01*
X123560Y74430D02*
X136100Y86970D01*
X112430Y74430D02*
X123560D01*
X136100Y86970D02*
Y101990D01*
X138790Y85195D02*
Y96490D01*
X136100Y101990D02*
X138310Y104200D01*
X138790Y96490D02*
X141900Y99600D01*
X138310Y104200D02*
X147400D01*
X100830Y62830D02*
X112430Y74430D01*
X104140Y44900D02*
X107900D01*
X100830Y48210D02*
Y62830D01*
Y48210D02*
X104140Y44900D01*
D35*
X135840Y184650D02*
X148100D01*
X135790Y184700D02*
X135840Y184650D01*
X84533Y184700D02*
X135790D01*
X141450Y181650D02*
X144150Y178950D01*
X85726Y181650D02*
X141450D01*
X150560Y73030D02*
Y87780D01*
X143040Y86600D02*
X146360Y83280D01*
Y77230D02*
Y83280D01*
X143040Y86600D02*
Y92060D01*
X157700Y93200D02*
X164700D01*
X166900Y104700D02*
Y129300D01*
X160400Y122800D02*
X162100Y121100D01*
X126900Y122800D02*
X160400D01*
X170100Y98600D02*
Y130800D01*
X164700Y93200D02*
X170100Y98600D01*
X163800Y101600D02*
X166900Y104700D01*
X160750Y135450D02*
X166900Y129300D01*
X163750Y137150D02*
X170100Y130800D01*
X160750Y135450D02*
Y152160D01*
X156400Y156510D02*
X160750Y152160D01*
X163750Y137150D02*
Y155440D01*
X128790Y89620D02*
Y91234D01*
X126300Y93724D02*
X128790Y91234D01*
X122780Y93724D02*
X126300D01*
X124540Y82190D02*
Y89474D01*
X141900Y66400D02*
X151184D01*
X130790Y88800D02*
X131400D01*
X112700Y104500D02*
X115300D01*
X113930Y96570D02*
X121980Y104620D01*
X113800Y110400D02*
X116100D01*
X119150Y113360D02*
Y122700D01*
Y113360D02*
X121980Y110530D01*
X123544Y114987D02*
Y119444D01*
X86750Y81093D02*
Y84500D01*
X148700Y136890D02*
Y140500D01*
X143660Y131850D02*
X148700Y136890D01*
X94250Y131850D02*
X143660D01*
X95150Y128150D02*
X145450D01*
X155590Y140000D02*
X155600D01*
X158050Y51450D02*
X163950D01*
X155700Y53800D02*
X158050Y51450D01*
X155700Y53800D02*
Y61884D01*
X162400Y67900D02*
Y67930D01*
X163950Y51450D02*
X164950Y52450D01*
X128790Y89620D02*
X130200Y88210D01*
X121356Y92300D02*
X122780Y93724D01*
X118200Y92300D02*
X121356D01*
X156400Y175610D02*
Y179600D01*
X151100Y166600D02*
Y192300D01*
X144150Y174025D02*
Y178950D01*
X140525Y170400D02*
X144150Y174025D01*
X136450Y178650D02*
X138900Y176200D01*
X145450Y128150D02*
X151850Y134550D01*
X88000Y93300D02*
X90900Y90400D01*
X30750Y130750D02*
X44400Y144400D01*
X30750Y110622D02*
Y130750D01*
Y110622D02*
X40536Y100836D01*
X33750Y129507D02*
X42943Y138700D01*
X33750Y111865D02*
Y129507D01*
Y111865D02*
X46565Y99050D01*
X36750Y128265D02*
X44185Y135700D01*
X36750Y113107D02*
Y128265D01*
Y113107D02*
X47808Y102050D01*
X39750Y114350D02*
Y127022D01*
Y114350D02*
X49050Y105050D01*
X39750Y127022D02*
X45428Y132700D01*
X42750Y116550D02*
Y125779D01*
Y116550D02*
X49000Y110300D01*
X42750Y125779D02*
X46670Y129700D01*
X45750Y124537D02*
X47913Y126700D01*
X45750Y118050D02*
X49800Y114000D01*
X45750Y118050D02*
Y124537D01*
X47913Y126700D02*
X59475D01*
X46670Y129700D02*
X58233D01*
X45428Y132700D02*
X56990D01*
X44185Y135700D02*
X55748D01*
X42943Y138700D02*
X54505D01*
X44400Y144400D02*
Y155300D01*
X6100Y162600D02*
X21550Y147150D01*
X13850Y113550D02*
X21550Y121250D01*
Y147150D01*
X6200Y175500D02*
X24550Y157150D01*
X13900Y104416D02*
X24550Y115066D01*
Y157150D01*
X13900Y100500D02*
Y104416D01*
X121980Y104620D02*
Y110530D01*
X105800Y104700D02*
X113930Y96570D01*
X130200Y88210D02*
X130790Y88800D01*
X110680Y77330D02*
X119680D01*
X112900Y120600D02*
X113200Y120900D01*
X97010Y125150D02*
X116700D01*
X119150Y122700D01*
X130950Y32250D02*
Y71550D01*
X96950Y102525D02*
X100025Y99450D01*
X100026D01*
X100050Y99425D01*
Y79750D02*
Y99425D01*
X93450Y101782D02*
X97051Y98182D01*
Y81381D02*
Y98182D01*
X90450Y100230D02*
X94051Y96629D01*
Y84150D02*
Y96629D01*
X89798Y90399D02*
X90899D01*
X85475Y215250D02*
X85675Y215050D01*
X81125Y215250D02*
X85475D01*
X80925Y215050D02*
X81125Y215250D01*
X85675Y215050D02*
X95943D01*
X78950D02*
X80925D01*
X76850Y212950D02*
X78950Y215050D01*
X95300Y208700D02*
X96400D01*
X92000Y205400D02*
X95300Y208700D01*
X97043Y213950D02*
X125207D01*
X95943Y215050D02*
X97043Y213950D01*
X52850Y212950D02*
X76850D01*
X45104Y220696D02*
X52850Y212950D01*
X79550Y198750D02*
X82900Y195400D01*
X78640Y198750D02*
X79550D01*
X78190Y199200D02*
X78640Y198750D01*
X16600Y199200D02*
X78190D01*
X86784Y201816D02*
X90400Y198200D01*
X86717Y201750D02*
X86784Y201816D01*
X79883Y201750D02*
X86717D01*
X79433Y202200D02*
X79883Y201750D01*
X6000Y202200D02*
X79433D01*
X86125Y205400D02*
X92000D01*
X85475Y204750D02*
X86125Y205400D01*
X81125Y204750D02*
X85475D01*
X80475Y205400D02*
X81125Y204750D01*
X15800Y205400D02*
X80475D01*
X125207Y213950D02*
X148100Y191057D01*
Y173300D02*
Y184650D01*
X156400Y175610D02*
X160650Y171360D01*
Y158540D02*
Y171360D01*
X156400Y156510D02*
Y160300D01*
X137700Y162900D02*
X148100Y173300D01*
X160650Y158540D02*
X163750Y155440D01*
X151850Y134550D02*
Y136260D01*
X155590Y140000D01*
X141100Y156600D02*
X151100Y166600D01*
X137700Y162700D02*
Y162900D01*
X132300Y164725D02*
X137975Y170400D01*
X132300Y158300D02*
Y164725D01*
X86300Y166300D02*
X98650Y178650D01*
X86300Y143857D02*
Y166300D01*
X78050Y173974D02*
X85726Y181650D01*
X78050Y169625D02*
X78200Y169475D01*
Y144243D02*
Y169475D01*
X75050Y175217D02*
X84533Y184700D01*
X75050Y167283D02*
Y175217D01*
Y167283D02*
X75200Y167133D01*
X78050Y169625D02*
Y173974D01*
X83300Y145100D02*
Y171800D01*
Y145100D02*
X83300Y145100D01*
X75200Y145485D02*
Y167133D01*
X81630Y71730D02*
X94051Y84150D01*
X102200Y104700D02*
X105800D01*
X93450Y101782D02*
Y116117D01*
X90450Y100230D02*
Y118590D01*
X84750Y69080D02*
X97051Y81381D01*
X57200Y48000D02*
Y48200D01*
X54200Y52600D02*
X69300D01*
X50100Y48500D02*
X54200Y52600D01*
X43730Y48500D02*
X50100D01*
X57800Y39100D02*
X65680D01*
X60700Y34200D02*
X66200D01*
X40536Y93039D02*
Y100836D01*
X49000Y110300D02*
X61000D01*
X54505Y138700D02*
X57800Y141995D01*
Y155000D01*
X63525Y99050D02*
X66675Y95900D01*
X67200D01*
X51117Y82458D02*
X57425D01*
X40536Y93039D02*
X51117Y82458D01*
X64425Y105050D02*
X67175Y107800D01*
X68600D01*
X49050Y105050D02*
X64425D01*
X68300Y101700D02*
X68500D01*
X67521Y102479D02*
X68300Y101700D01*
X60417Y85450D02*
X67250D01*
X57425Y82458D02*
X60417Y85450D01*
X46565Y99050D02*
X63525D01*
X67765Y138050D02*
X75200Y145485D01*
X58097Y138050D02*
X67765D01*
X55748Y135700D02*
X58097Y138050D01*
X56990Y132700D02*
X59340Y135050D01*
X68660D01*
X68833Y134876D01*
X68833D01*
X78200Y144243D01*
X58233Y129700D02*
X60583Y132050D01*
X67417D01*
X68833Y130633D01*
X68833D01*
X83300Y145100D01*
X59475Y126700D02*
X61825Y129050D01*
X66175D01*
X68425Y126800D01*
X69242D01*
X86300Y143857D01*
X64000Y123800D02*
X81200D01*
X83700Y121300D01*
X65917Y117050D02*
X84050D01*
X64417Y118550D02*
X65917Y117050D01*
X57583Y118550D02*
X64417D01*
X56083Y117050D02*
X57583Y118550D01*
X55350Y117050D02*
X56083D01*
X64724Y114000D02*
X86300D01*
X63175Y115550D02*
X64724Y114000D01*
X58825Y115550D02*
X63175D01*
X57276Y114000D02*
X58825Y115550D01*
X49800Y114000D02*
X57276D01*
X75100Y93300D02*
X88000D01*
X67250Y85450D02*
X75100Y93300D01*
X67092Y102050D02*
X67521Y102479D01*
X45104Y220696D02*
Y233550D01*
X137975Y170400D02*
X140525D01*
X90450Y118590D02*
X97010Y125150D01*
X87450Y93850D02*
Y112850D01*
Y93850D02*
X88000Y93300D01*
X105467Y120600D02*
X112900D01*
X97450Y107375D02*
Y109525D01*
X96950Y106874D02*
X97450Y107375D01*
X96950Y102525D02*
Y106874D01*
X86300Y114000D02*
X87450Y112850D01*
X105117Y120950D02*
X105467Y120600D01*
X98283Y120950D02*
X105117D01*
X93450Y116117D02*
X98283Y120950D01*
X104225Y117600D02*
X106600D01*
X103875Y117950D02*
X104225Y117600D01*
X99525Y117950D02*
X103875D01*
X96450Y114875D02*
X99525Y117950D01*
X96450Y110525D02*
Y114875D01*
Y110525D02*
X97450Y109525D01*
X89000Y58000D02*
X89632Y58632D01*
X93260Y42450D02*
X96750Y45940D01*
X89539Y42450D02*
X93260D01*
X84750Y47239D02*
X89539Y42450D01*
X96750Y63400D02*
X110680Y77330D01*
X89632Y69332D02*
X100050Y79750D01*
X91500Y46700D02*
Y47200D01*
X106600Y117600D02*
X113800Y110400D01*
X113930Y96570D02*
X118200Y92300D01*
X95600Y32900D02*
X105700Y22800D01*
X70375Y32900D02*
X95600D01*
X81630Y55050D02*
Y71730D01*
X65680Y39100D02*
X81630Y55050D01*
X107300Y37700D02*
X107560D01*
X105700Y22800D02*
X122900D01*
X130950Y32250D02*
X131200Y32000D01*
X122580D02*
X123300D01*
X122900Y22800D02*
X127200Y18500D01*
X84750Y52750D02*
Y69080D01*
X78630Y61930D02*
Y72973D01*
X69300Y52600D02*
X78630Y61930D01*
X96750Y45940D02*
Y63400D01*
X53160Y35340D02*
X58550Y29950D01*
X67425D01*
X53160Y43960D02*
X57200Y48000D01*
X41400Y42300D02*
X51200Y32500D01*
X41400Y42300D02*
Y46170D01*
X53160Y35340D02*
Y43960D01*
X41400Y46170D02*
X43730Y48500D01*
X89632Y58632D02*
Y69332D01*
X47808Y102050D02*
X67092D01*
X134000Y156600D02*
X141100D01*
X132300Y158300D02*
X134000Y156600D01*
X148100Y184650D02*
Y191057D01*
X98650Y178650D02*
X136450D01*
X67425Y29950D02*
X70375Y32900D01*
X84750Y47239D02*
Y52750D01*
X91050Y47650D02*
X91500Y47200D01*
X130950Y71550D02*
X133870Y74470D01*
X143600D01*
X66200Y34200D02*
X84750Y52750D01*
X90900Y47500D02*
X91050Y47650D01*
X90800Y47600D02*
X90900Y47500D01*
X51000Y121400D02*
X55350Y117050D01*
X67521Y102479D02*
X67521D01*
X84050Y117050D02*
X95150Y128150D01*
X83700Y121300D02*
X94250Y131850D01*
X101700Y112700D02*
X104500D01*
X106600Y236800D02*
X151100Y192300D01*
X70600Y232700D02*
X74700Y236800D01*
X106600D01*
X107560Y37700D02*
X107880Y38020D01*
X108600Y37300D01*
X151184Y66400D02*
X155700Y61884D01*
X123544Y119444D02*
X126900Y122800D01*
X150560Y73030D02*
X157700Y65890D01*
X142800Y56700D02*
X142800D01*
X78630Y72973D02*
X86750Y81093D01*
X143600Y74470D02*
X146360Y77230D01*
X119680Y77330D02*
X124540Y82190D01*
X90899Y90399D02*
X90900Y90400D01*
X104500Y112700D02*
X112700Y104500D01*
X16300Y130400D02*
Y139400D01*
X6300Y149400D02*
X16300Y139400D01*
X108600Y37300D02*
X108600Y37300D01*
X108400Y37100D02*
X108600Y37300D01*
X6300Y214900D02*
X15800Y205400D01*
X6300Y227900D02*
X25000Y209200D01*
X6300Y188900D02*
X16600Y199200D01*
X25000Y209200D02*
X82500D01*
X83300Y210000D01*
X51200Y14600D02*
Y32500D01*
X157700Y65890D02*
X160360D01*
X162400Y67930D01*
D37*
X105520Y37700D02*
X107300D01*
X107400Y26400D02*
X130800D01*
X102500Y31300D02*
X107400Y26400D01*
X102500Y31300D02*
Y36080D01*
X134400Y19200D02*
Y22800D01*
X104820Y38400D02*
X105520Y37700D01*
X102500Y36080D02*
X104820Y38400D01*
X130800Y26400D02*
X134400Y22800D01*
D45*
X8000Y88900D02*
D03*
D46*
Y50800D02*
D03*
X127000Y8000D02*
D03*
D47*
X150560Y87780D02*
D03*
X143040Y92060D02*
D03*
X151900Y99700D02*
D03*
X157700Y93200D02*
D03*
X162100Y121100D02*
D03*
X163800Y101600D02*
D03*
X124540Y89474D02*
D03*
X141900Y66400D02*
D03*
X131400Y88800D02*
D03*
X115300Y104500D02*
D03*
X116100Y110400D02*
D03*
X123544Y114987D02*
D03*
X86750Y84500D02*
D03*
X175000Y183000D02*
D03*
X148700Y140500D02*
D03*
X155600Y140000D02*
D03*
X167500Y59000D02*
D03*
X162400Y67900D02*
D03*
X167500Y73000D02*
D03*
X164950Y52450D02*
D03*
X141900Y99600D02*
D03*
X156400Y179600D02*
D03*
X138900Y176200D02*
D03*
X108000Y94000D02*
D03*
X113200Y120900D02*
D03*
X89798Y90399D02*
D03*
X96400Y208700D02*
D03*
X93768Y220300D02*
D03*
X80000Y220600D02*
D03*
X87000D02*
D03*
X156400Y160300D02*
D03*
X137700Y162700D02*
D03*
X83300Y171800D02*
D03*
X102200Y104700D02*
D03*
X19400Y31000D02*
D03*
X57200Y48200D02*
D03*
X57800Y39100D02*
D03*
X60700Y34200D02*
D03*
X68500Y101700D02*
D03*
X55100Y72600D02*
D03*
X64000Y123800D02*
D03*
X61000Y110300D02*
D03*
X67200Y95900D02*
D03*
X76500Y87000D02*
D03*
X68600Y107800D02*
D03*
X50400Y228899D02*
D03*
X45104Y233550D02*
D03*
X89000Y58000D02*
D03*
X91500Y46700D02*
D03*
X107900Y44900D02*
D03*
X107300Y37700D02*
D03*
X131200Y32000D02*
D03*
X134400Y19200D02*
D03*
X123300Y32000D02*
D03*
X122600Y13900D02*
D03*
X127200Y18500D02*
D03*
X159200Y29200D02*
D03*
X158700Y22400D02*
D03*
X201500Y246200D02*
D03*
X194300Y245300D02*
D03*
X186400Y245400D02*
D03*
X13500Y31000D02*
D03*
X216500Y241000D02*
D03*
X188500Y185000D02*
D03*
X181500D02*
D03*
X167500Y3000D02*
D03*
X164000Y10000D02*
D03*
X160500Y3000D02*
D03*
X136000Y234000D02*
D03*
X132500Y227000D02*
D03*
X118500Y199000D02*
D03*
X115000Y220000D02*
D03*
X90500Y227000D02*
D03*
X83500Y129000D02*
D03*
X55500Y185000D02*
D03*
X31000Y234000D02*
D03*
Y192000D02*
D03*
Y178000D02*
D03*
X27500Y171000D02*
D03*
X31000Y164000D02*
D03*
X20500Y227000D02*
D03*
Y171000D02*
D03*
X17000Y234000D02*
D03*
Y192000D02*
D03*
Y178000D02*
D03*
X6500Y17000D02*
D03*
X158700Y15600D02*
D03*
X167800Y37200D02*
D03*
X51000Y121400D02*
D03*
X57800Y155000D02*
D03*
X44400Y155300D02*
D03*
X101700Y112700D02*
D03*
X70600Y232700D02*
D03*
X195000Y185000D02*
D03*
X200000D02*
D03*
X205000D02*
D03*
X210000D02*
D03*
X215000D02*
D03*
X142800Y56700D02*
D03*
X134000Y156600D02*
D03*
X6300Y227900D02*
D03*
Y214900D02*
D03*
X6000Y202200D02*
D03*
X6300Y188900D02*
D03*
X13900Y100500D02*
D03*
X13850Y113550D02*
D03*
X16300Y130400D02*
D03*
X6300Y149400D02*
D03*
X6100Y162600D02*
D03*
X6200Y175500D02*
D03*
X53300Y232000D02*
D03*
X83300Y210000D02*
D03*
X90400Y198200D02*
D03*
X82900Y195400D02*
D03*
X51200Y14600D02*
D03*
X165800Y31400D02*
D03*
D48*
X136200Y49650D02*
D03*
Y38650D02*
D03*
Y60650D02*
D03*
X125200Y38650D02*
D03*
X114200D02*
D03*
X125200Y49650D02*
D03*
X114200D02*
D03*
X125200Y60650D02*
D03*
X114200D02*
D03*
M02*
