G04 Layer_Color=16711935*
%FSLAX44Y44*%
%MOMM*%
G71*
G01*
G75*
%ADD66C,0.7800*%
%ADD67R,0.7800X0.5800*%
%ADD68R,0.5800X0.7800*%
%ADD83R,1.0800X1.0800*%
%ADD84R,1.0800X1.0800*%
%ADD85C,0.2000*%
%ADD86R,3.1800X2.1800*%
%ADD87O,1.0800X0.4300*%
%ADD88O,0.4300X1.0800*%
%ADD89R,1.6800X1.1800*%
%ADD90R,0.5050X0.4800*%
%ADD91R,0.4800X0.5050*%
%ADD92R,1.4300X2.3300*%
%ADD93R,0.6800X0.4800*%
%ADD94R,4.3800X3.5800*%
%ADD95O,0.7800X1.1300*%
%ADD96R,1.5800X1.5800*%
%ADD97R,1.1800X0.9800*%
%ADD98R,1.1800X1.9800*%
%ADD99R,1.2800X1.1800*%
%ADD100R,0.5800X0.6800*%
%ADD101R,0.3800X0.4300*%
%ADD102R,0.6800X0.4300*%
%ADD103R,1.9800X1.1800*%
G36*
X177118Y23114D02*
X177233Y23091D01*
X177345Y23053D01*
X177451Y23001D01*
X177549Y22935D01*
X177638Y22857D01*
X177715Y22768D01*
X177781Y22670D01*
X177833Y22565D01*
X177871Y22453D01*
X177894Y22337D01*
X177902Y22219D01*
Y20219D01*
X177894Y20102D01*
X177883Y20044D01*
X177871Y19986D01*
X177852Y19930D01*
X177833Y19874D01*
X177781Y19768D01*
X177715Y19670D01*
X177638Y19582D01*
X177145Y19089D01*
X177233Y19071D01*
X177317Y19043D01*
X177345Y19033D01*
X177451Y18981D01*
X177549Y18915D01*
X177638Y18838D01*
X177715Y18749D01*
X177781Y18651D01*
X177833Y18545D01*
X177843Y18517D01*
X177871Y18433D01*
X177890Y18337D01*
X177894Y18318D01*
X177902Y18200D01*
Y14200D01*
X177894Y14082D01*
X177871Y13967D01*
X177833Y13855D01*
X177781Y13749D01*
X177715Y13651D01*
X177638Y13562D01*
X177549Y13484D01*
X177451Y13419D01*
X177345Y13367D01*
X177233Y13329D01*
X177118Y13306D01*
X177000Y13298D01*
X173000D01*
X172882Y13306D01*
X172767Y13329D01*
X172655Y13367D01*
X172549Y13419D01*
X172451Y13484D01*
X172362Y13562D01*
X172285Y13651D01*
X172219Y13749D01*
X172167Y13855D01*
X172129Y13967D01*
X172106Y14082D01*
X172098Y14200D01*
Y18200D01*
X172106Y18318D01*
X172110Y18337D01*
X172129Y18433D01*
X172157Y18517D01*
X172167Y18545D01*
X172219Y18651D01*
X172285Y18749D01*
X172362Y18838D01*
X172451Y18915D01*
X172549Y18981D01*
X172655Y19033D01*
X172683Y19043D01*
X172767Y19071D01*
X172855Y19089D01*
X172362Y19582D01*
X172285Y19670D01*
X172219Y19768D01*
X172167Y19874D01*
X172129Y19986D01*
X172106Y20102D01*
X172098Y20219D01*
Y22219D01*
X172106Y22337D01*
X172129Y22453D01*
X172167Y22565D01*
X172219Y22670D01*
X172285Y22768D01*
X172362Y22857D01*
X172451Y22935D01*
X172549Y23001D01*
X172655Y23053D01*
X172767Y23091D01*
X172882Y23114D01*
X173000Y23121D01*
X177000D01*
X177118Y23114D01*
D02*
G37*
G36*
X192418Y22794D02*
X192533Y22771D01*
X192645Y22733D01*
X192751Y22681D01*
X192849Y22615D01*
X192938Y22538D01*
X193015Y22449D01*
X193081Y22351D01*
X193133Y22245D01*
X193171Y22133D01*
X193194Y22018D01*
X193202Y21900D01*
Y19900D01*
X193194Y19782D01*
X193183Y19724D01*
X193171Y19666D01*
X193152Y19611D01*
X193133Y19555D01*
X193081Y19449D01*
X193015Y19351D01*
X192938Y19262D01*
X192445Y18769D01*
X192476Y18763D01*
X192533Y18752D01*
X192589Y18733D01*
X192645Y18714D01*
X192751Y18662D01*
X192849Y18596D01*
X192938Y18518D01*
X193015Y18429D01*
X193081Y18331D01*
X193133Y18226D01*
X193152Y18170D01*
X193171Y18114D01*
X193183Y18056D01*
X193194Y17998D01*
X193202Y17880D01*
Y13880D01*
X193194Y13763D01*
X193171Y13647D01*
X193133Y13535D01*
X193081Y13429D01*
X193015Y13331D01*
X192938Y13243D01*
X192849Y13165D01*
X192751Y13099D01*
X192645Y13047D01*
X192533Y13009D01*
X192418Y12986D01*
X192300Y12979D01*
X188300D01*
X188182Y12986D01*
X188067Y13009D01*
X187955Y13047D01*
X187849Y13099D01*
X187751Y13165D01*
X187662Y13243D01*
X187584Y13331D01*
X187519Y13429D01*
X187467Y13535D01*
X187429Y13647D01*
X187406Y13763D01*
X187398Y13880D01*
Y17880D01*
X187406Y17998D01*
X187417Y18056D01*
X187429Y18114D01*
X187448Y18170D01*
X187467Y18226D01*
X187519Y18331D01*
X187584Y18429D01*
X187662Y18518D01*
X187751Y18596D01*
X187849Y18662D01*
X187955Y18714D01*
X188011Y18733D01*
X188067Y18752D01*
X188124Y18763D01*
X188155Y18769D01*
X187662Y19262D01*
X187584Y19351D01*
X187519Y19449D01*
X187467Y19555D01*
X187429Y19666D01*
X187406Y19782D01*
X187398Y19900D01*
Y21900D01*
X187406Y22018D01*
X187429Y22133D01*
X187467Y22245D01*
X187519Y22351D01*
X187584Y22449D01*
X187662Y22538D01*
X187751Y22615D01*
X187849Y22681D01*
X187955Y22733D01*
X188067Y22771D01*
X188182Y22794D01*
X188300Y22802D01*
X192300D01*
X192418Y22794D01*
D02*
G37*
G36*
X178918Y105094D02*
X179033Y105071D01*
X179145Y105033D01*
X179251Y104981D01*
X179349Y104916D01*
X179438Y104838D01*
X179515Y104749D01*
X179581Y104651D01*
X179633Y104545D01*
X179671Y104433D01*
X179694Y104318D01*
X179702Y104200D01*
Y102200D01*
X179694Y102082D01*
X179683Y102024D01*
X179671Y101966D01*
X179652Y101911D01*
X179633Y101855D01*
X179581Y101749D01*
X179515Y101651D01*
X179438Y101562D01*
X178945Y101069D01*
X179033Y101052D01*
X179117Y101024D01*
X179145Y101014D01*
X179251Y100962D01*
X179349Y100896D01*
X179438Y100818D01*
X179515Y100730D01*
X179581Y100632D01*
X179633Y100526D01*
X179643Y100497D01*
X179671Y100414D01*
X179690Y100317D01*
X179694Y100298D01*
X179702Y100181D01*
Y96181D01*
X179694Y96063D01*
X179671Y95947D01*
X179633Y95835D01*
X179581Y95730D01*
X179515Y95632D01*
X179438Y95543D01*
X179349Y95465D01*
X179251Y95400D01*
X179145Y95347D01*
X179033Y95309D01*
X178918Y95286D01*
X178800Y95279D01*
X174800D01*
X174682Y95286D01*
X174567Y95309D01*
X174455Y95347D01*
X174349Y95400D01*
X174251Y95465D01*
X174162Y95543D01*
X174084Y95632D01*
X174019Y95730D01*
X173967Y95835D01*
X173929Y95947D01*
X173906Y96063D01*
X173898Y96181D01*
Y100181D01*
X173906Y100298D01*
X173910Y100317D01*
X173929Y100414D01*
X173957Y100497D01*
X173967Y100526D01*
X174019Y100632D01*
X174084Y100730D01*
X174162Y100818D01*
X174251Y100896D01*
X174349Y100962D01*
X174455Y101014D01*
X174483Y101024D01*
X174567Y101052D01*
X174655Y101069D01*
X174162Y101562D01*
X174084Y101651D01*
X174019Y101749D01*
X173967Y101855D01*
X173929Y101966D01*
X173906Y102082D01*
X173898Y102200D01*
Y104200D01*
X173906Y104318D01*
X173929Y104433D01*
X173967Y104545D01*
X174019Y104651D01*
X174084Y104749D01*
X174162Y104838D01*
X174251Y104916D01*
X174349Y104981D01*
X174455Y105033D01*
X174567Y105071D01*
X174682Y105094D01*
X174800Y105102D01*
X178800D01*
X178918Y105094D01*
D02*
G37*
G36*
X129737Y134694D02*
X129853Y134671D01*
X129965Y134633D01*
X130070Y134581D01*
X130169Y134515D01*
X130257Y134438D01*
X130335Y134349D01*
X130400Y134251D01*
X130453Y134145D01*
X130491Y134033D01*
X130514Y133918D01*
X130521Y133800D01*
Y129800D01*
X130514Y129682D01*
X130491Y129566D01*
X130453Y129455D01*
X130400Y129349D01*
X130335Y129251D01*
X130257Y129162D01*
X130169Y129084D01*
X130070Y129019D01*
X129965Y128967D01*
X129853Y128929D01*
X129737Y128906D01*
X129619Y128898D01*
X127619D01*
X127502Y128906D01*
X127483Y128910D01*
X127386Y128929D01*
X127303Y128957D01*
X127274Y128967D01*
X127168Y129019D01*
X127070Y129084D01*
X126982Y129162D01*
X126489Y129655D01*
X126471Y129566D01*
X126443Y129483D01*
X126433Y129455D01*
X126381Y129349D01*
X126315Y129251D01*
X126238Y129162D01*
X126149Y129084D01*
X126051Y129019D01*
X125945Y128967D01*
X125917Y128957D01*
X125833Y128929D01*
X125737Y128910D01*
X125718Y128906D01*
X125600Y128898D01*
X121600D01*
X121482Y128906D01*
X121367Y128929D01*
X121255Y128967D01*
X121149Y129019D01*
X121051Y129084D01*
X120962Y129162D01*
X120884Y129251D01*
X120819Y129349D01*
X120767Y129455D01*
X120729Y129566D01*
X120706Y129682D01*
X120698Y129800D01*
Y133800D01*
X120706Y133918D01*
X120729Y134033D01*
X120767Y134145D01*
X120819Y134251D01*
X120884Y134349D01*
X120962Y134438D01*
X121051Y134515D01*
X121149Y134581D01*
X121255Y134633D01*
X121367Y134671D01*
X121482Y134694D01*
X121600Y134702D01*
X125600D01*
X125718Y134694D01*
X125737Y134690D01*
X125833Y134671D01*
X125917Y134643D01*
X125945Y134633D01*
X126051Y134581D01*
X126149Y134515D01*
X126238Y134438D01*
X126315Y134349D01*
X126381Y134251D01*
X126433Y134145D01*
X126443Y134117D01*
X126471Y134033D01*
X126489Y133945D01*
X126982Y134438D01*
X127070Y134515D01*
X127168Y134581D01*
X127274Y134633D01*
X127386Y134671D01*
X127502Y134694D01*
X127619Y134702D01*
X129619D01*
X129737Y134694D01*
D02*
G37*
G36*
X189818Y105094D02*
X189933Y105071D01*
X190045Y105033D01*
X190151Y104981D01*
X190249Y104916D01*
X190338Y104838D01*
X190415Y104749D01*
X190481Y104651D01*
X190533Y104545D01*
X190571Y104433D01*
X190594Y104318D01*
X190602Y104200D01*
Y102200D01*
X190594Y102082D01*
X190583Y102024D01*
X190571Y101966D01*
X190552Y101911D01*
X190533Y101855D01*
X190481Y101749D01*
X190415Y101651D01*
X190338Y101562D01*
X189845Y101069D01*
X189876Y101063D01*
X189933Y101052D01*
X189989Y101033D01*
X190045Y101014D01*
X190151Y100962D01*
X190249Y100896D01*
X190338Y100818D01*
X190415Y100730D01*
X190481Y100632D01*
X190533Y100526D01*
X190552Y100470D01*
X190571Y100414D01*
X190583Y100356D01*
X190594Y100298D01*
X190602Y100181D01*
Y96181D01*
X190594Y96063D01*
X190571Y95947D01*
X190533Y95835D01*
X190481Y95730D01*
X190415Y95632D01*
X190338Y95543D01*
X190249Y95465D01*
X190151Y95400D01*
X190045Y95347D01*
X189933Y95309D01*
X189818Y95286D01*
X189700Y95279D01*
X185700D01*
X185582Y95286D01*
X185467Y95309D01*
X185355Y95347D01*
X185249Y95400D01*
X185151Y95465D01*
X185062Y95543D01*
X184984Y95632D01*
X184919Y95730D01*
X184867Y95835D01*
X184829Y95947D01*
X184806Y96063D01*
X184798Y96181D01*
Y100181D01*
X184806Y100298D01*
X184817Y100356D01*
X184829Y100414D01*
X184848Y100470D01*
X184867Y100526D01*
X184919Y100632D01*
X184984Y100730D01*
X185062Y100818D01*
X185151Y100896D01*
X185249Y100962D01*
X185355Y101014D01*
X185411Y101033D01*
X185467Y101052D01*
X185524Y101063D01*
X185555Y101069D01*
X185062Y101562D01*
X184984Y101651D01*
X184919Y101749D01*
X184867Y101855D01*
X184829Y101967D01*
X184806Y102082D01*
X184798Y102200D01*
Y104200D01*
X184806Y104318D01*
X184829Y104433D01*
X184867Y104545D01*
X184919Y104651D01*
X184984Y104749D01*
X185062Y104838D01*
X185151Y104916D01*
X185249Y104981D01*
X185355Y105033D01*
X185467Y105071D01*
X185582Y105094D01*
X185700Y105102D01*
X189700D01*
X189818Y105094D01*
D02*
G37*
D66*
X117375Y172075D02*
D03*
Y120075D02*
D03*
X127400Y122900D02*
D03*
X182500Y86600D02*
D03*
X177600Y78400D02*
D03*
D67*
X145400Y145700D02*
D03*
Y153700D02*
D03*
X161700Y46300D02*
D03*
Y54300D02*
D03*
X35100Y82000D02*
D03*
Y90000D02*
D03*
X167200Y65700D02*
D03*
Y73700D02*
D03*
X102400Y71400D02*
D03*
Y63400D02*
D03*
Y87100D02*
D03*
Y95100D02*
D03*
X117500Y81600D02*
D03*
Y89600D02*
D03*
X153600Y73800D02*
D03*
Y65800D02*
D03*
X184600Y27200D02*
D03*
Y35200D02*
D03*
X187700Y54100D02*
D03*
Y46100D02*
D03*
X162339Y29000D02*
D03*
Y21000D02*
D03*
X174600Y54100D02*
D03*
Y46100D02*
D03*
D68*
X49900Y98200D02*
D03*
X57900D02*
D03*
X122684Y30900D02*
D03*
X114684D02*
D03*
X149300Y49700D02*
D03*
X141300D02*
D03*
X153370Y33200D02*
D03*
X145370D02*
D03*
X153370Y19800D02*
D03*
X145370D02*
D03*
X101600Y29500D02*
D03*
X93600D02*
D03*
X49700Y67000D02*
D03*
X57700D02*
D03*
X54400Y33700D02*
D03*
X46400D02*
D03*
X165900Y86900D02*
D03*
X157900D02*
D03*
X149900Y100800D02*
D03*
X157900D02*
D03*
X135900Y17800D02*
D03*
X127900D02*
D03*
X25200Y21200D02*
D03*
X33200D02*
D03*
X46500Y51500D02*
D03*
X54500D02*
D03*
X18100D02*
D03*
X26100D02*
D03*
X53600Y157300D02*
D03*
X61600D02*
D03*
X53600Y143500D02*
D03*
X61600D02*
D03*
X18100Y37400D02*
D03*
X26100D02*
D03*
X40800Y149800D02*
D03*
X32800D02*
D03*
D83*
X50800Y8000D02*
D03*
X8000Y25400D02*
D03*
X177800Y8000D02*
D03*
X8000Y50800D02*
D03*
Y38100D02*
D03*
Y88900D02*
D03*
X242000Y203200D02*
D03*
D84*
X127000Y8000D02*
D03*
X25400D02*
D03*
X190500D02*
D03*
X38100D02*
D03*
X8000Y76200D02*
D03*
X63500Y8000D02*
D03*
X242000Y215900D02*
D03*
X12700Y8000D02*
D03*
X114300D02*
D03*
X101600D02*
D03*
X165100D02*
D03*
X139700D02*
D03*
X152400D02*
D03*
X88900D02*
D03*
X76200D02*
D03*
D85*
X138400Y44000D02*
D03*
X127400D02*
D03*
X116400D02*
D03*
X138400Y55000D02*
D03*
X127400D02*
D03*
X116400D02*
D03*
X138400Y66000D02*
D03*
X127400D02*
D03*
X116400D02*
D03*
D86*
X218600Y270700D02*
D03*
Y210700D02*
D03*
D87*
X189200Y129800D02*
D03*
Y124800D02*
D03*
X161200D02*
D03*
Y129800D02*
D03*
X174250Y194200D02*
D03*
Y189200D02*
D03*
Y184200D02*
D03*
Y179200D02*
D03*
X146750D02*
D03*
Y184200D02*
D03*
Y189200D02*
D03*
Y194200D02*
D03*
D88*
X185200Y115800D02*
D03*
X180200D02*
D03*
X175200D02*
D03*
X170200D02*
D03*
X165200D02*
D03*
Y138800D02*
D03*
X170200D02*
D03*
X175200D02*
D03*
X180200D02*
D03*
X185200D02*
D03*
X153000Y200450D02*
D03*
X158000D02*
D03*
X163000D02*
D03*
X168000D02*
D03*
Y172950D02*
D03*
X163000D02*
D03*
X158000D02*
D03*
X153000D02*
D03*
D89*
X175200Y127300D02*
D03*
D90*
X117375Y142500D02*
D03*
Y147500D02*
D03*
Y152500D02*
D03*
Y157500D02*
D03*
X132625D02*
D03*
Y152500D02*
D03*
Y147500D02*
D03*
Y142500D02*
D03*
D91*
X122500Y157625D02*
D03*
X127500D02*
D03*
Y142375D02*
D03*
X122500D02*
D03*
D92*
X50300Y120700D02*
D03*
D93*
X61600Y130700D02*
D03*
Y125700D02*
D03*
Y120700D02*
D03*
Y115700D02*
D03*
Y110700D02*
D03*
X39000Y130700D02*
D03*
Y125700D02*
D03*
Y120700D02*
D03*
Y115700D02*
D03*
Y110700D02*
D03*
D94*
X157600Y253600D02*
D03*
D95*
X176650Y282350D02*
D03*
X163950D02*
D03*
X151250D02*
D03*
X138550D02*
D03*
Y224850D02*
D03*
X151250D02*
D03*
X163950D02*
D03*
X176650D02*
D03*
D96*
X160500Y186700D02*
D03*
D97*
X107300Y230700D02*
D03*
Y242700D02*
D03*
Y254700D02*
D03*
X9300D02*
D03*
Y242700D02*
D03*
Y230700D02*
D03*
D98*
X109300Y283200D02*
D03*
Y211200D02*
D03*
X7300D02*
D03*
Y283200D02*
D03*
D99*
X76500Y171950D02*
D03*
X40100D02*
D03*
D100*
X97400Y156500D02*
D03*
X90900D02*
D03*
X84400D02*
D03*
Y137500D02*
D03*
X90900D02*
D03*
X97400D02*
D03*
D101*
X197700Y33900D02*
D03*
X193700D02*
D03*
X175700Y34700D02*
D03*
X171700D02*
D03*
D102*
X195700Y27400D02*
D03*
X173700Y28200D02*
D03*
D103*
X15600Y104500D02*
D03*
Y129500D02*
D03*
M02*
