G04 Layer_Color=32896*
%FSLAX44Y44*%
%MOMM*%
G71*
G01*
G75*
%ADD32C,0.1500*%
%ADD33C,0.2000*%
%ADD62C,0.1000*%
%ADD63C,0.2500*%
%ADD64C,0.1200*%
%ADD65C,0.0800*%
D32*
X102900Y136500D02*
G03*
X102900Y136500I-500J0D01*
G01*
X196600Y255700D02*
X238600D01*
X196600D02*
Y256700D01*
X239600Y205700D02*
Y275700D01*
X197600Y278700D02*
Y284700D01*
X194600Y281700D02*
X200600D01*
X196600Y205700D02*
Y275700D01*
X236600D02*
X239600D01*
X196600D02*
X200600D01*
X196600Y205700D02*
X200600D01*
X236600D02*
X239600D01*
X81400Y142500D02*
Y151500D01*
X100400Y142500D02*
Y151500D01*
X9300Y295700D02*
Y298700D01*
X107300D01*
Y295700D02*
Y298700D01*
X108300Y175700D02*
Y198700D01*
X107300Y175700D02*
X108300D01*
X85300D02*
X107300D01*
X9300D02*
X31300D01*
X9300D02*
Y198700D01*
X8600Y112500D02*
Y121500D01*
X22600Y112500D02*
Y121500D01*
D33*
X144000Y203200D02*
X147750D01*
X144000Y199450D02*
Y203200D01*
Y170200D02*
Y173950D01*
Y170200D02*
X147750D01*
X173250D02*
X177000D01*
Y173950D01*
X173250Y203200D02*
X177000D01*
Y199450D02*
Y203200D01*
X184600Y253250D02*
Y285600D01*
X182650D02*
X184600D01*
X130600D02*
X132550D01*
X130600Y253250D02*
Y285600D01*
Y221600D02*
Y253950D01*
Y221600D02*
X132550D01*
X184600D02*
Y253950D01*
X182650Y221600D02*
X184600D01*
X192200Y135050D02*
Y141800D01*
X190450D02*
X192200D01*
X158200D02*
X159950D01*
X158200Y135050D02*
Y141800D01*
Y112800D02*
Y119550D01*
Y112800D02*
X159950D01*
X192200D02*
Y119550D01*
X190450Y112800D02*
X192200D01*
X36800Y105700D02*
X40500Y105700D01*
X60100D02*
X63800Y105700D01*
X36800Y135700D02*
X40500Y135700D01*
X60100D02*
X63800Y135700D01*
D62*
X112787Y141300D02*
G03*
X112787Y141300I-112J0D01*
G01*
X33300Y105700D02*
G03*
X33300Y105700I-500J0D01*
G01*
D63*
X146750Y209700D02*
G03*
X146750Y209700I-1250J0D01*
G01*
X189850Y218600D02*
G03*
X189850Y218600I-1250J0D01*
G01*
X199950Y140300D02*
G03*
X199950Y140300I-1250J0D01*
G01*
D64*
X162400Y61900D02*
Y77500D01*
Y61900D02*
X172000D01*
Y77500D01*
X162400D02*
X172000D01*
X158400Y62000D02*
Y77600D01*
X148800D02*
X158400D01*
X148800Y62000D02*
Y77600D01*
Y62000D02*
X158400D01*
X112700Y77800D02*
Y93400D01*
Y77800D02*
X122300D01*
Y93400D01*
X112700D02*
X122300D01*
X156900Y42500D02*
Y58100D01*
Y42500D02*
X166500D01*
Y58100D01*
X156900D02*
X166500D01*
X137500Y44900D02*
X153100D01*
Y54500D01*
X137500D02*
X153100D01*
X137500Y44900D02*
Y54500D01*
X141570Y28400D02*
X157170D01*
Y38000D01*
X141570D02*
X157170D01*
X141570Y28400D02*
Y38000D01*
Y15000D02*
X157170D01*
Y24600D01*
X141570D02*
X157170D01*
X141570Y15000D02*
Y24600D01*
X30300Y78200D02*
Y93800D01*
Y78200D02*
X39900D01*
Y93800D01*
X30300D02*
X39900D01*
X161900Y95800D02*
Y105800D01*
X145900Y95800D02*
X161900D01*
X145900D02*
Y105800D01*
X161900D01*
X153900Y81900D02*
Y91900D01*
X169900D01*
Y81900D02*
Y91900D01*
X153900Y81900D02*
X169900D01*
X123900Y12800D02*
Y22800D01*
X139900D01*
Y12800D02*
Y22800D01*
X123900Y12800D02*
X139900D01*
X89800Y24700D02*
X105400D01*
Y34300D01*
X89800D02*
X105400D01*
X89800Y24700D02*
Y34300D01*
X140600Y141900D02*
Y157500D01*
Y141900D02*
X150200D01*
Y157500D01*
X140600D02*
X150200D01*
X28800Y144800D02*
Y154800D01*
X44800D01*
Y144800D02*
Y154800D01*
X28800Y144800D02*
X44800D01*
X65600Y152300D02*
Y162300D01*
X49600Y152300D02*
X65600D01*
X49600D02*
Y162300D01*
X65600D01*
Y138500D02*
Y148500D01*
X49600Y138500D02*
X65600D01*
X49600D02*
Y148500D01*
X65600D01*
X46100Y103000D02*
X61700D01*
X46100Y93400D02*
Y103000D01*
Y93400D02*
X61700D01*
Y103000D01*
X182700Y42100D02*
X192700D01*
X182700D02*
Y58100D01*
X192700D01*
Y42100D02*
Y58100D01*
X169600Y42100D02*
X179600D01*
X169600D02*
Y58100D01*
X179600D01*
Y42100D02*
Y58100D01*
X42400Y28700D02*
Y38700D01*
X58400D01*
Y28700D02*
Y38700D01*
X42400Y28700D02*
X58400D01*
X30100Y32400D02*
Y42400D01*
X14100Y32400D02*
X30100D01*
X14100D02*
Y42400D01*
X30100D01*
Y46500D02*
Y56500D01*
X14100Y46500D02*
X30100D01*
X14100D02*
Y56500D01*
X30100D01*
X110884Y26100D02*
X126484D01*
Y35700D01*
X110884D02*
X126484D01*
X110884Y26100D02*
Y35700D01*
X45900Y71800D02*
X61500D01*
X45900Y62200D02*
Y71800D01*
Y62200D02*
X61500D01*
Y71800D01*
X107200Y59600D02*
Y75200D01*
X97600D02*
X107200D01*
X97600Y59600D02*
Y75200D01*
Y59600D02*
X107200D01*
X97600Y83300D02*
Y98900D01*
Y83300D02*
X107200D01*
Y98900D01*
X97600D02*
X107200D01*
X58500Y46500D02*
Y56500D01*
X42500Y46500D02*
X58500D01*
X42500D02*
Y56500D01*
X58500D01*
X37200Y16200D02*
Y26200D01*
X21200Y16200D02*
X37200D01*
X21200D02*
Y26200D01*
X37200D01*
X179600Y23200D02*
Y39200D01*
Y23200D02*
X189600D01*
Y39200D01*
X179600D02*
X189600D01*
X167339Y17000D02*
Y33000D01*
X157339D02*
X167339D01*
X157339Y17000D02*
Y33000D01*
Y17000D02*
X167339D01*
D65*
X113875Y139000D02*
X136075D01*
Y161000D01*
X113875D02*
X136075D01*
X113875Y139000D02*
X113875Y161000D01*
X190700Y24400D02*
Y37400D01*
X200700D01*
Y24400D02*
Y37400D01*
X190700Y24400D02*
X200700D01*
X168700Y25200D02*
Y38200D01*
X178700D01*
Y25200D02*
Y38200D01*
X168700Y25200D02*
X178700D01*
M02*
