G04*
G04 #@! TF.GenerationSoftware,Altium Limited,Altium Designer,18.1.1 (9)*
G04*
G04 Layer_Color=16711935*
%FSLAX44Y44*%
%MOMM*%
G71*
G01*
G75*
%ADD37R,1.2000X0.8000*%
%ADD38R,0.8000X1.2000*%
%ADD43R,0.8032X0.6032*%
%ADD44R,0.6032X0.8032*%
%ADD56C,0.8032*%
%ADD57C,2.4032*%
%ADD81R,5.3130X17.5129*%
%ADD82C,0.6032*%
G04:AMPARAMS|DCode=83|XSize=0.6732mm|YSize=0.4532mm|CornerRadius=0mm|HoleSize=0mm|Usage=FLASHONLY|Rotation=180.000|XOffset=0mm|YOffset=0mm|HoleType=Round|Shape=Octagon|*
%AMOCTAGOND83*
4,1,8,-0.3366,0.1133,-0.3366,-0.1133,-0.2233,-0.2266,0.2233,-0.2266,0.3366,-0.1133,0.3366,0.1133,0.2233,0.2266,-0.2233,0.2266,-0.3366,0.1133,0.0*
%
%ADD83OCTAGOND83*%

%ADD84R,1.0532X0.9532*%
%ADD85R,3.2032X2.2032*%
G04:AMPARAMS|DCode=86|XSize=0.6032mm|YSize=0.8032mm|CornerRadius=0mm|HoleSize=0mm|Usage=FLASHONLY|Rotation=45.000|XOffset=0mm|YOffset=0mm|HoleType=Round|Shape=Rectangle|*
%AMROTATEDRECTD86*
4,1,4,0.0707,-0.4972,-0.4972,0.0707,-0.0707,0.4972,0.4972,-0.0707,0.0707,-0.4972,0.0*
%
%ADD86ROTATEDRECTD86*%

%ADD87O,0.6032X1.1532*%
%ADD88R,4.4032X3.6032*%
%ADD89R,1.2032X1.0032*%
%ADD90R,1.2032X2.0032*%
%ADD91R,1.3032X1.2032*%
%ADD92O,1.1032X0.4532*%
%ADD93O,0.4532X1.1032*%
%ADD94R,1.7032X1.2032*%
G36*
X50363Y154249D02*
X50493Y154223D01*
X50620Y154180D01*
X50739Y154121D01*
X50850Y154047D01*
X50950Y153959D01*
X51038Y153859D01*
X51112Y153749D01*
X51171Y153629D01*
X51213Y153503D01*
X51240Y153372D01*
X51248Y153239D01*
Y149239D01*
X51240Y149107D01*
X51213Y148976D01*
X51171Y148850D01*
X51112Y148730D01*
X51038Y148620D01*
X50950Y148519D01*
X50850Y148432D01*
X50795Y148395D01*
X50950Y148240D01*
X51038Y148140D01*
X51112Y148029D01*
X51171Y147910D01*
X51213Y147783D01*
X51240Y147653D01*
X51248Y147520D01*
Y145520D01*
X51240Y145387D01*
X51213Y145257D01*
X51171Y145130D01*
X51112Y145011D01*
X51038Y144900D01*
X50950Y144800D01*
X50850Y144712D01*
X50739Y144638D01*
X50620Y144579D01*
X50493Y144537D01*
X50363Y144510D01*
X50230Y144502D01*
X46230D01*
X46097Y144510D01*
X45967Y144537D01*
X45840Y144579D01*
X45721Y144638D01*
X45610Y144712D01*
X45510Y144800D01*
X45422Y144900D01*
X45348Y145011D01*
X45289Y145130D01*
X45247Y145257D01*
X45220Y145387D01*
X45212Y145520D01*
Y147520D01*
X45220Y147653D01*
X45247Y147783D01*
X45289Y147910D01*
X45348Y148029D01*
X45422Y148140D01*
X45510Y148240D01*
X45665Y148395D01*
X45610Y148432D01*
X45510Y148519D01*
X45422Y148620D01*
X45348Y148730D01*
X45289Y148850D01*
X45247Y148976D01*
X45220Y149107D01*
X45212Y149239D01*
Y153239D01*
X45220Y153372D01*
X45247Y153503D01*
X45289Y153629D01*
X45348Y153749D01*
X45422Y153859D01*
X45510Y153959D01*
X45610Y154047D01*
X45721Y154121D01*
X45840Y154180D01*
X45967Y154223D01*
X46097Y154249D01*
X46230Y154258D01*
X50230D01*
X50363Y154249D01*
D02*
G37*
G36*
X59003D02*
X59134Y154223D01*
X59260Y154180D01*
X59379Y154121D01*
X59490Y154047D01*
X59590Y153959D01*
X59678Y153859D01*
X59752Y153749D01*
X59811Y153629D01*
X59854Y153503D01*
X59879Y153372D01*
X59888Y153239D01*
Y149239D01*
X59879Y149107D01*
X59854Y148976D01*
X59811Y148850D01*
X59752Y148730D01*
X59678Y148620D01*
X59590Y148519D01*
X59490Y148432D01*
X59435Y148395D01*
X59590Y148240D01*
X59678Y148140D01*
X59752Y148029D01*
X59811Y147910D01*
X59854Y147783D01*
X59879Y147653D01*
X59888Y147520D01*
Y145520D01*
X59879Y145387D01*
X59854Y145257D01*
X59811Y145130D01*
X59752Y145011D01*
X59678Y144900D01*
X59590Y144800D01*
X59490Y144712D01*
X59379Y144638D01*
X59260Y144579D01*
X59134Y144537D01*
X59003Y144510D01*
X58870Y144502D01*
X54870D01*
X54737Y144510D01*
X54606Y144537D01*
X54480Y144579D01*
X54361Y144638D01*
X54250Y144712D01*
X54150Y144800D01*
X54062Y144900D01*
X53988Y145011D01*
X53929Y145130D01*
X53886Y145257D01*
X53861Y145387D01*
X53852Y145520D01*
Y147520D01*
X53861Y147653D01*
X53886Y147783D01*
X53929Y147910D01*
X53988Y148029D01*
X54062Y148140D01*
X54150Y148240D01*
X54305Y148395D01*
X54250Y148432D01*
X54150Y148519D01*
X54062Y148620D01*
X53988Y148730D01*
X53929Y148850D01*
X53886Y148976D01*
X53861Y149107D01*
X53852Y149239D01*
Y153239D01*
X53861Y153372D01*
X53886Y153503D01*
X53929Y153629D01*
X53988Y153749D01*
X54062Y153859D01*
X54150Y153959D01*
X54250Y154047D01*
X54361Y154121D01*
X54480Y154180D01*
X54606Y154223D01*
X54737Y154249D01*
X54870Y154258D01*
X58870D01*
X59003Y154249D01*
D02*
G37*
G36*
X68123D02*
X68253Y154223D01*
X68380Y154180D01*
X68499Y154121D01*
X68610Y154047D01*
X68710Y153959D01*
X68798Y153859D01*
X68872Y153749D01*
X68931Y153629D01*
X68973Y153503D01*
X69000Y153372D01*
X69008Y153239D01*
Y149239D01*
X69000Y149107D01*
X68973Y148976D01*
X68931Y148850D01*
X68872Y148730D01*
X68798Y148620D01*
X68710Y148519D01*
X68610Y148432D01*
X68555Y148395D01*
X68710Y148240D01*
X68798Y148140D01*
X68872Y148029D01*
X68931Y147910D01*
X68973Y147783D01*
X69000Y147653D01*
X69008Y147520D01*
Y145520D01*
X69000Y145387D01*
X68973Y145257D01*
X68931Y145130D01*
X68872Y145011D01*
X68798Y144900D01*
X68710Y144800D01*
X68610Y144712D01*
X68499Y144638D01*
X68380Y144579D01*
X68253Y144537D01*
X68123Y144510D01*
X67990Y144502D01*
X63990D01*
X63857Y144510D01*
X63727Y144537D01*
X63600Y144579D01*
X63481Y144638D01*
X63370Y144712D01*
X63270Y144800D01*
X63182Y144900D01*
X63108Y145011D01*
X63049Y145130D01*
X63007Y145257D01*
X62980Y145387D01*
X62972Y145520D01*
Y147520D01*
X62980Y147653D01*
X63007Y147783D01*
X63049Y147910D01*
X63108Y148029D01*
X63182Y148140D01*
X63270Y148240D01*
X63425Y148395D01*
X63370Y148432D01*
X63270Y148519D01*
X63182Y148620D01*
X63108Y148730D01*
X63049Y148850D01*
X63007Y148976D01*
X62980Y149107D01*
X62972Y149239D01*
Y153239D01*
X62980Y153372D01*
X63007Y153503D01*
X63049Y153629D01*
X63108Y153749D01*
X63182Y153859D01*
X63270Y153959D01*
X63370Y154047D01*
X63481Y154121D01*
X63600Y154180D01*
X63727Y154223D01*
X63857Y154249D01*
X63990Y154258D01*
X67990D01*
X68123Y154249D01*
D02*
G37*
G36*
X76933D02*
X77063Y154223D01*
X77190Y154180D01*
X77309Y154121D01*
X77420Y154047D01*
X77520Y153959D01*
X77608Y153859D01*
X77682Y153749D01*
X77741Y153629D01*
X77783Y153503D01*
X77810Y153372D01*
X77818Y153239D01*
Y149239D01*
X77810Y149107D01*
X77783Y148976D01*
X77741Y148850D01*
X77682Y148730D01*
X77608Y148620D01*
X77520Y148519D01*
X77420Y148432D01*
X77365Y148395D01*
X77520Y148240D01*
X77608Y148140D01*
X77682Y148029D01*
X77741Y147910D01*
X77783Y147783D01*
X77810Y147653D01*
X77818Y147520D01*
Y145520D01*
X77810Y145387D01*
X77783Y145257D01*
X77741Y145130D01*
X77682Y145011D01*
X77608Y144900D01*
X77520Y144800D01*
X77420Y144712D01*
X77309Y144638D01*
X77190Y144579D01*
X77063Y144537D01*
X76933Y144510D01*
X76800Y144502D01*
X72800D01*
X72667Y144510D01*
X72537Y144537D01*
X72410Y144579D01*
X72291Y144638D01*
X72180Y144712D01*
X72080Y144800D01*
X71992Y144900D01*
X71918Y145011D01*
X71859Y145130D01*
X71817Y145257D01*
X71791Y145387D01*
X71782Y145520D01*
Y147520D01*
X71791Y147653D01*
X71817Y147783D01*
X71859Y147910D01*
X71918Y148029D01*
X71992Y148140D01*
X72080Y148240D01*
X72235Y148395D01*
X72180Y148432D01*
X72080Y148519D01*
X71992Y148620D01*
X71918Y148730D01*
X71859Y148850D01*
X71817Y148976D01*
X71791Y149107D01*
X71782Y149239D01*
Y153239D01*
X71791Y153372D01*
X71817Y153503D01*
X71859Y153629D01*
X71918Y153749D01*
X71992Y153859D01*
X72080Y153959D01*
X72180Y154047D01*
X72291Y154121D01*
X72410Y154180D01*
X72537Y154223D01*
X72667Y154249D01*
X72800Y154258D01*
X76800D01*
X76933Y154249D01*
D02*
G37*
G36*
X140773Y198400D02*
X140904Y198374D01*
X141030Y198331D01*
X141149Y198272D01*
X141260Y198198D01*
X141360Y198110D01*
X141448Y198010D01*
X141522Y197899D01*
X141581Y197780D01*
X141623Y197654D01*
X141649Y197523D01*
X141658Y197390D01*
Y193390D01*
X141649Y193257D01*
X141623Y193127D01*
X141581Y193000D01*
X141522Y192881D01*
X141448Y192770D01*
X141360Y192670D01*
X141260Y192582D01*
X141205Y192546D01*
X141360Y192391D01*
X141448Y192290D01*
X141522Y192180D01*
X141581Y192060D01*
X141623Y191934D01*
X141649Y191803D01*
X141658Y191671D01*
Y189671D01*
X141649Y189538D01*
X141623Y189407D01*
X141581Y189281D01*
X141522Y189161D01*
X141448Y189051D01*
X141360Y188951D01*
X141260Y188863D01*
X141149Y188789D01*
X141030Y188730D01*
X140904Y188687D01*
X140773Y188661D01*
X140640Y188652D01*
X136640D01*
X136507Y188661D01*
X136376Y188687D01*
X136250Y188730D01*
X136131Y188789D01*
X136020Y188863D01*
X135920Y188951D01*
X135832Y189051D01*
X135758Y189161D01*
X135699Y189281D01*
X135656Y189407D01*
X135631Y189538D01*
X135622Y189671D01*
Y191671D01*
X135631Y191803D01*
X135656Y191934D01*
X135699Y192060D01*
X135758Y192180D01*
X135832Y192290D01*
X135920Y192391D01*
X136075Y192546D01*
X136020Y192582D01*
X135920Y192670D01*
X135832Y192770D01*
X135758Y192881D01*
X135699Y193000D01*
X135656Y193127D01*
X135631Y193257D01*
X135622Y193390D01*
Y197390D01*
X135631Y197523D01*
X135656Y197654D01*
X135699Y197780D01*
X135758Y197899D01*
X135832Y198010D01*
X135920Y198110D01*
X136020Y198198D01*
X136131Y198272D01*
X136250Y198331D01*
X136376Y198374D01*
X136507Y198400D01*
X136640Y198408D01*
X140640D01*
X140773Y198400D01*
D02*
G37*
G36*
X149413D02*
X149544Y198374D01*
X149670Y198331D01*
X149789Y198272D01*
X149900Y198198D01*
X150000Y198110D01*
X150088Y198010D01*
X150162Y197899D01*
X150221Y197780D01*
X150264Y197654D01*
X150289Y197523D01*
X150298Y197390D01*
Y193390D01*
X150289Y193257D01*
X150264Y193127D01*
X150221Y193000D01*
X150162Y192881D01*
X150088Y192770D01*
X150000Y192670D01*
X149900Y192582D01*
X149845Y192546D01*
X150000Y192391D01*
X150088Y192290D01*
X150162Y192180D01*
X150221Y192060D01*
X150264Y191934D01*
X150289Y191803D01*
X150298Y191671D01*
Y189671D01*
X150289Y189538D01*
X150264Y189407D01*
X150221Y189281D01*
X150162Y189161D01*
X150088Y189051D01*
X150000Y188951D01*
X149900Y188863D01*
X149789Y188789D01*
X149670Y188730D01*
X149544Y188687D01*
X149413Y188661D01*
X149280Y188652D01*
X145280D01*
X145147Y188661D01*
X145016Y188687D01*
X144890Y188730D01*
X144771Y188789D01*
X144660Y188863D01*
X144560Y188951D01*
X144472Y189051D01*
X144398Y189161D01*
X144339Y189281D01*
X144297Y189407D01*
X144270Y189538D01*
X144262Y189671D01*
Y191671D01*
X144270Y191803D01*
X144297Y191934D01*
X144339Y192060D01*
X144398Y192180D01*
X144472Y192290D01*
X144560Y192391D01*
X144715Y192546D01*
X144660Y192582D01*
X144560Y192670D01*
X144472Y192770D01*
X144398Y192881D01*
X144339Y193000D01*
X144297Y193127D01*
X144270Y193257D01*
X144262Y193390D01*
Y197390D01*
X144270Y197523D01*
X144297Y197654D01*
X144339Y197780D01*
X144398Y197899D01*
X144472Y198010D01*
X144560Y198110D01*
X144660Y198198D01*
X144771Y198272D01*
X144890Y198331D01*
X145016Y198374D01*
X145147Y198400D01*
X145280Y198408D01*
X149280D01*
X149413Y198400D01*
D02*
G37*
G36*
X158533D02*
X158664Y198374D01*
X158790Y198331D01*
X158909Y198272D01*
X159020Y198198D01*
X159120Y198110D01*
X159208Y198010D01*
X159282Y197899D01*
X159341Y197780D01*
X159383Y197654D01*
X159410Y197523D01*
X159418Y197390D01*
Y193390D01*
X159410Y193257D01*
X159383Y193127D01*
X159341Y193000D01*
X159282Y192881D01*
X159208Y192770D01*
X159120Y192670D01*
X159020Y192582D01*
X158965Y192546D01*
X159120Y192391D01*
X159208Y192290D01*
X159282Y192180D01*
X159341Y192060D01*
X159383Y191934D01*
X159410Y191803D01*
X159418Y191671D01*
Y189671D01*
X159410Y189538D01*
X159383Y189407D01*
X159341Y189281D01*
X159282Y189161D01*
X159208Y189051D01*
X159120Y188951D01*
X159020Y188863D01*
X158909Y188789D01*
X158790Y188730D01*
X158664Y188687D01*
X158533Y188661D01*
X158400Y188652D01*
X154400D01*
X154267Y188661D01*
X154136Y188687D01*
X154010Y188730D01*
X153891Y188789D01*
X153780Y188863D01*
X153680Y188951D01*
X153592Y189051D01*
X153518Y189161D01*
X153459Y189281D01*
X153417Y189407D01*
X153391Y189538D01*
X153382Y189671D01*
Y191671D01*
X153391Y191803D01*
X153417Y191934D01*
X153459Y192060D01*
X153518Y192180D01*
X153592Y192290D01*
X153680Y192391D01*
X153835Y192546D01*
X153780Y192582D01*
X153680Y192670D01*
X153592Y192770D01*
X153518Y192881D01*
X153459Y193000D01*
X153417Y193127D01*
X153391Y193257D01*
X153382Y193390D01*
Y197390D01*
X153391Y197523D01*
X153417Y197654D01*
X153459Y197780D01*
X153518Y197899D01*
X153592Y198010D01*
X153680Y198110D01*
X153780Y198198D01*
X153891Y198272D01*
X154010Y198331D01*
X154136Y198374D01*
X154267Y198400D01*
X154400Y198408D01*
X158400D01*
X158533Y198400D01*
D02*
G37*
G36*
X167343D02*
X167474Y198374D01*
X167600Y198331D01*
X167719Y198272D01*
X167830Y198198D01*
X167930Y198110D01*
X168018Y198010D01*
X168092Y197899D01*
X168151Y197780D01*
X168193Y197654D01*
X168220Y197523D01*
X168228Y197390D01*
Y193390D01*
X168220Y193257D01*
X168193Y193127D01*
X168151Y193000D01*
X168092Y192881D01*
X168018Y192770D01*
X167930Y192670D01*
X167830Y192582D01*
X167775Y192546D01*
X167930Y192391D01*
X168018Y192290D01*
X168092Y192180D01*
X168151Y192060D01*
X168193Y191934D01*
X168220Y191803D01*
X168228Y191671D01*
Y189671D01*
X168220Y189538D01*
X168193Y189407D01*
X168151Y189281D01*
X168092Y189161D01*
X168018Y189051D01*
X167930Y188951D01*
X167830Y188863D01*
X167719Y188789D01*
X167600Y188730D01*
X167474Y188687D01*
X167343Y188661D01*
X167210Y188652D01*
X163210D01*
X163077Y188661D01*
X162946Y188687D01*
X162820Y188730D01*
X162701Y188789D01*
X162590Y188863D01*
X162490Y188951D01*
X162402Y189051D01*
X162328Y189161D01*
X162269Y189281D01*
X162227Y189407D01*
X162201Y189538D01*
X162192Y189671D01*
Y191671D01*
X162201Y191803D01*
X162227Y191934D01*
X162269Y192060D01*
X162328Y192180D01*
X162402Y192290D01*
X162490Y192391D01*
X162645Y192546D01*
X162590Y192582D01*
X162490Y192670D01*
X162402Y192770D01*
X162328Y192881D01*
X162269Y193000D01*
X162227Y193127D01*
X162201Y193257D01*
X162192Y193390D01*
Y197390D01*
X162201Y197523D01*
X162227Y197654D01*
X162269Y197780D01*
X162328Y197899D01*
X162402Y198010D01*
X162490Y198110D01*
X162590Y198198D01*
X162701Y198272D01*
X162820Y198331D01*
X162946Y198374D01*
X163077Y198400D01*
X163210Y198408D01*
X167210D01*
X167343Y198400D01*
D02*
G37*
D37*
X244000Y193300D02*
D03*
Y206000D02*
D03*
D38*
X141600Y6000D02*
D03*
X179700Y6000D02*
D03*
X52700D02*
D03*
X128900D02*
D03*
X167000D02*
D03*
X154300D02*
D03*
X116200D02*
D03*
X205000Y294000D02*
D03*
X217700Y294000D02*
D03*
X78100Y6000D02*
D03*
X90800D02*
D03*
X103500D02*
D03*
X65400D02*
D03*
X40000D02*
D03*
D43*
X230200Y198000D02*
D03*
Y206000D02*
D03*
X177710Y47600D02*
D03*
Y55600D02*
D03*
X116000Y69480D02*
D03*
Y77480D02*
D03*
X177710Y66800D02*
D03*
Y74800D02*
D03*
D44*
X122560Y105500D02*
D03*
X130560D02*
D03*
X151510Y82380D02*
D03*
X159510D02*
D03*
X141980Y283980D02*
D03*
X133980D02*
D03*
D56*
X242000Y193300D02*
D03*
X250000D02*
D03*
X242000Y206000D02*
D03*
X250000D02*
D03*
X141600Y8000D02*
D03*
Y0D02*
D03*
X179700D02*
D03*
Y8000D02*
D03*
X52700Y0D02*
D03*
Y8000D02*
D03*
X128900Y0D02*
D03*
Y8000D02*
D03*
X167000Y0D02*
D03*
Y8000D02*
D03*
X154300Y0D02*
D03*
Y8000D02*
D03*
X116200Y0D02*
D03*
Y8000D02*
D03*
X205000Y300000D02*
D03*
Y292000D02*
D03*
X217700Y300000D02*
D03*
Y292000D02*
D03*
X78100Y0D02*
D03*
Y8000D02*
D03*
X90800Y0D02*
D03*
Y8000D02*
D03*
X103500Y0D02*
D03*
Y8000D02*
D03*
X65400Y0D02*
D03*
Y8000D02*
D03*
X40000Y0D02*
D03*
Y8000D02*
D03*
D57*
X235000Y285000D02*
D03*
X15000Y15000D02*
D03*
D81*
X224255Y86735D02*
D03*
D82*
X214550Y205950D02*
D03*
D83*
X210400Y209200D02*
D03*
Y202700D02*
D03*
X218700Y209200D02*
D03*
Y202700D02*
D03*
D84*
X185480Y97680D02*
D03*
Y108180D02*
D03*
X171980D02*
D03*
Y97680D02*
D03*
D85*
X43370Y45420D02*
D03*
Y105420D02*
D03*
D86*
X132393Y74843D02*
D03*
X138050Y80500D02*
D03*
D87*
X173750Y213210D02*
D03*
X161050D02*
D03*
X148350D02*
D03*
X135650D02*
D03*
Y270710D02*
D03*
X148350D02*
D03*
X161050D02*
D03*
X173750D02*
D03*
D88*
X154700Y241960D02*
D03*
D89*
X108250Y230710D02*
D03*
Y242710D02*
D03*
Y254710D02*
D03*
X10250D02*
D03*
Y242710D02*
D03*
Y230710D02*
D03*
D90*
X110250Y283210D02*
D03*
Y211210D02*
D03*
X8250D02*
D03*
Y283210D02*
D03*
D91*
X77450Y171960D02*
D03*
X41050D02*
D03*
D92*
X113090Y142590D02*
D03*
Y147590D02*
D03*
X141090D02*
D03*
Y142590D02*
D03*
D93*
X117090Y156590D02*
D03*
X122090D02*
D03*
X127090D02*
D03*
X132090D02*
D03*
X137090D02*
D03*
Y133590D02*
D03*
X132090D02*
D03*
X127090D02*
D03*
X122090D02*
D03*
X117090D02*
D03*
D94*
X127090Y145090D02*
D03*
M02*
