G04 Layer_Physical_Order=2*
G04 Layer_Color=36540*
%FSLAX44Y44*%
%MOMM*%
G71*
G01*
G75*
%ADD10C,0.1100*%
%ADD36C,0.2000*%
%ADD39C,0.5000*%
%ADD41C,0.4000*%
%ADD45R,0.9000X0.9000*%
%ADD46R,0.9000X0.9000*%
%ADD47O,0.9500X1.2500*%
%ADD48O,1.5500X1.0000*%
%ADD49C,2.2000*%
%ADD50C,0.4500*%
%ADD51C,0.3000*%
%ADD52C,0.5000*%
%ADD53R,2.5700X1.2800*%
G36*
X102404Y264104D02*
X103595Y263309D01*
X105000Y263029D01*
X167000D01*
X168405Y263309D01*
X169595Y264105D01*
X172720Y267229D01*
X186240D01*
X186934Y266192D01*
X186979Y265959D01*
X186744Y264780D01*
X186809Y264457D01*
X185383Y263031D01*
X177580D01*
X176761Y262868D01*
X176066Y262404D01*
X170246Y256584D01*
X169782Y255889D01*
X169619Y255070D01*
Y205364D01*
X168349Y204979D01*
X168061Y205409D01*
X166953Y206150D01*
X165646Y206410D01*
X164339Y206150D01*
X163231Y205409D01*
X162490Y204301D01*
X162230Y202994D01*
X162490Y201687D01*
X163231Y200579D01*
X164339Y199839D01*
X165646Y199578D01*
X166953Y199839D01*
X168061Y200579D01*
X168349Y201010D01*
X169619Y200625D01*
Y184681D01*
X168366Y184471D01*
X167625Y185580D01*
X166517Y186320D01*
X165210Y186580D01*
X163903Y186320D01*
X162795Y185580D01*
X162054Y184471D01*
X161794Y183164D01*
X162054Y181857D01*
X162795Y180749D01*
X163903Y180009D01*
X165210Y179749D01*
X166517Y180009D01*
X167625Y180749D01*
X168366Y181857D01*
X169619Y181648D01*
Y142607D01*
X127951Y100939D01*
X126681Y101465D01*
Y122162D01*
X126955Y122345D01*
X127696Y123453D01*
X127956Y124760D01*
X127696Y126067D01*
X126955Y127175D01*
X125847Y127916D01*
X124540Y128176D01*
X123233Y127916D01*
X122125Y127175D01*
X121508Y126252D01*
X120795Y126159D01*
X120128Y126263D01*
X119505Y127195D01*
X119212Y127391D01*
X119095Y128215D01*
X119173Y128945D01*
X128047Y137819D01*
X145952D01*
X146135Y137545D01*
X147243Y136804D01*
X148550Y136544D01*
X149857Y136804D01*
X150965Y137545D01*
X151706Y138653D01*
X151966Y139960D01*
X151706Y141267D01*
X150965Y142375D01*
X149857Y143116D01*
X148550Y143376D01*
X147243Y143116D01*
X146135Y142375D01*
X145952Y142101D01*
X127160D01*
X126341Y141938D01*
X125646Y141474D01*
X116613Y132441D01*
X92987D01*
X83688Y141740D01*
X83769Y143040D01*
X85469Y142709D01*
X85485Y142685D01*
X86593Y141944D01*
X87900Y141684D01*
X89207Y141944D01*
X90315Y142685D01*
X91056Y143793D01*
X91316Y145100D01*
X91056Y146407D01*
X90315Y147515D01*
X89207Y148256D01*
X87900Y148516D01*
X87450Y148426D01*
X86825Y149597D01*
X87714Y150486D01*
X88178Y151181D01*
X88341Y152000D01*
Y158445D01*
X91165Y161269D01*
X97812D01*
X97995Y160995D01*
X99103Y160254D01*
X100410Y159994D01*
X101717Y160254D01*
X102825Y160995D01*
X103566Y162103D01*
X103826Y163410D01*
X103566Y164717D01*
X102825Y165825D01*
X101717Y166566D01*
X100410Y166826D01*
X99103Y166566D01*
X97995Y165825D01*
X97812Y165551D01*
X90278D01*
X89459Y165388D01*
X88764Y164924D01*
X84686Y160846D01*
X84222Y160151D01*
X84059Y159332D01*
Y152887D01*
X79886Y148714D01*
X79422Y148019D01*
X79259Y147200D01*
Y141000D01*
X79422Y140181D01*
X79886Y139486D01*
X90586Y128786D01*
X91281Y128322D01*
X92100Y128159D01*
X113907D01*
X114088Y127932D01*
X114470Y126889D01*
X113934Y126087D01*
X113674Y124780D01*
X113934Y123473D01*
X114675Y122365D01*
X114949Y122182D01*
Y98567D01*
X105746Y89364D01*
X105282Y88669D01*
X105119Y87850D01*
Y55300D01*
X105282Y54481D01*
X105746Y53786D01*
X110844Y48688D01*
X110971Y48110D01*
X110696Y47039D01*
X110431Y46888D01*
X109814Y47011D01*
X101911D01*
X100559Y48364D01*
X99864Y48828D01*
X99045Y48991D01*
X96337D01*
X83321Y62007D01*
Y77280D01*
X83158Y78099D01*
X82694Y78794D01*
X78093Y83395D01*
X78513Y84771D01*
X79415Y85374D01*
X80156Y86482D01*
X80416Y87789D01*
X80156Y89096D01*
X79415Y90204D01*
X78307Y90945D01*
X77000Y91205D01*
X75693Y90945D01*
X74585Y90204D01*
X73982Y89302D01*
X72606Y88883D01*
X69601Y91887D01*
Y113990D01*
X69438Y114809D01*
X68974Y115504D01*
X43441Y141037D01*
Y250403D01*
X49062Y256024D01*
X49397Y255994D01*
X50434Y254700D01*
X50499Y254377D01*
X46536Y250414D01*
X46072Y249719D01*
X45909Y248900D01*
Y241610D01*
X46072Y240791D01*
X46536Y240096D01*
X49376Y237256D01*
X50071Y236792D01*
X50890Y236629D01*
X73133D01*
X113499Y196263D01*
Y170068D01*
X113225Y169885D01*
X112484Y168777D01*
X112224Y167470D01*
X112484Y166163D01*
X113225Y165055D01*
X114333Y164314D01*
X115640Y164054D01*
X116947Y164314D01*
X118055Y165055D01*
X118098Y165119D01*
X119625D01*
X119675Y165045D01*
X120783Y164304D01*
X122090Y164044D01*
X123397Y164304D01*
X124505Y165045D01*
X125246Y166153D01*
X125506Y167460D01*
X125246Y168767D01*
X124505Y169875D01*
X124231Y170058D01*
Y197370D01*
X124068Y198189D01*
X123604Y198884D01*
X77274Y245214D01*
X76579Y245678D01*
X75760Y245841D01*
X56408D01*
X56225Y246115D01*
X55117Y246856D01*
X53810Y247116D01*
X52503Y246856D01*
X51461Y246160D01*
X51093Y246237D01*
X50191Y246600D01*
Y248013D01*
X53527Y251349D01*
X53850Y251284D01*
X55157Y251544D01*
X56265Y252285D01*
X57006Y253393D01*
X57266Y254700D01*
X57006Y256007D01*
X56265Y257115D01*
X55157Y257856D01*
X53850Y258116D01*
X52556Y259153D01*
X52526Y259488D01*
X59177Y266139D01*
X85822D01*
X86005Y265865D01*
X87113Y265124D01*
X88420Y264864D01*
X89727Y265124D01*
X90835Y265865D01*
X91576Y266973D01*
X91836Y268280D01*
X91576Y269587D01*
X91060Y270359D01*
X91487Y271469D01*
X91622Y271630D01*
X94880D01*
X102404Y264104D01*
D02*
G37*
G36*
X223330Y234693D02*
Y210600D01*
X223609Y209195D01*
X224405Y208004D01*
X229004Y203405D01*
X230195Y202609D01*
X231600Y202330D01*
X236400D01*
Y200400D01*
X247600D01*
X247859Y199237D01*
Y174810D01*
X197040Y174810D01*
Y2416D01*
X185300D01*
Y13600D01*
X174100D01*
Y2416D01*
X172600D01*
Y13600D01*
X161544D01*
X160748Y14600D01*
X166581Y20433D01*
X167272Y20363D01*
X168384Y19800D01*
X168644Y18493D01*
X169385Y17385D01*
X170493Y16644D01*
X171800Y16384D01*
X173107Y16644D01*
X174215Y17385D01*
X174956Y18493D01*
X175216Y19800D01*
X174956Y21107D01*
X174215Y22215D01*
X174131Y22271D01*
Y27810D01*
X173968Y28629D01*
X173504Y29324D01*
X163814Y39014D01*
X163119Y39478D01*
X162300Y39641D01*
X143300D01*
X142481Y39478D01*
X141786Y39014D01*
X136858Y34086D01*
X136541Y34136D01*
X136486Y34164D01*
X135629Y35567D01*
X135716Y36000D01*
X135456Y37307D01*
X134715Y38415D01*
X133607Y39156D01*
X133458Y39185D01*
X133040Y40563D01*
X135514Y43038D01*
X135978Y43732D01*
X136141Y44552D01*
Y59280D01*
X135978Y60099D01*
X135514Y60794D01*
X120841Y75467D01*
Y82185D01*
X121145Y82585D01*
X121240Y82631D01*
X122666Y81926D01*
X122684Y81833D01*
X123143Y81147D01*
X123384Y80473D01*
X123204Y79345D01*
X122844Y78807D01*
X122584Y77500D01*
X122844Y76193D01*
X123584Y75085D01*
X124693Y74344D01*
X126000Y74084D01*
X127307Y74344D01*
X128415Y75085D01*
X129155Y76193D01*
X129415Y77500D01*
X129155Y78807D01*
X128415Y79915D01*
X128255Y80022D01*
Y80725D01*
X128996Y81833D01*
X129256Y83140D01*
X128996Y84447D01*
X128255Y85555D01*
X127147Y86296D01*
X126123Y86499D01*
X125708Y87311D01*
X125623Y87795D01*
X179364Y141536D01*
X179828Y142231D01*
X179991Y143050D01*
Y213533D01*
X185377Y218919D01*
X209180D01*
X209999Y219082D01*
X210338Y219308D01*
X210760Y219224D01*
X212067Y219484D01*
X213175Y220225D01*
X213916Y221333D01*
X214176Y222640D01*
X213916Y223947D01*
X213175Y225055D01*
X212067Y225796D01*
X210760Y226056D01*
X209453Y225796D01*
X208345Y225055D01*
X207604Y223947D01*
X207456Y223201D01*
X184490D01*
X183671Y223038D01*
X182976Y222574D01*
X176336Y215934D01*
X175872Y215239D01*
X175709Y214420D01*
Y144327D01*
X175171Y143912D01*
X173901Y144535D01*
Y254183D01*
X178467Y258749D01*
X186270D01*
X187089Y258912D01*
X187784Y259376D01*
X189837Y261429D01*
X190160Y261364D01*
X191467Y261624D01*
X192575Y262365D01*
X193090Y263136D01*
X194518Y263504D01*
X223330Y234693D01*
D02*
G37*
G36*
X0Y297584D02*
X199400D01*
Y286400D01*
X210600D01*
Y297584D01*
X247859D01*
Y212763D01*
X247600Y211600D01*
X236400D01*
Y209671D01*
X233120D01*
X230671Y212120D01*
Y236213D01*
X230391Y237618D01*
X229596Y238809D01*
X200065Y268339D01*
X200436Y269764D01*
X201215Y270284D01*
X201955Y271392D01*
X202215Y272700D01*
X201955Y274007D01*
X201215Y275115D01*
X200107Y275855D01*
X198800Y276115D01*
X197493Y275855D01*
X196384Y275115D01*
X195864Y274336D01*
X195754Y274239D01*
X194720Y273922D01*
X194325Y273885D01*
X193718Y274291D01*
X192313Y274571D01*
X176195D01*
X175810Y275840D01*
X176175Y276085D01*
X176916Y277193D01*
X177176Y278500D01*
X176916Y279807D01*
X176175Y280915D01*
X175067Y281656D01*
X173760Y281916D01*
X172453Y281656D01*
X171345Y280915D01*
X170604Y279807D01*
X170344Y278500D01*
X170604Y277193D01*
X171345Y276085D01*
X171710Y275840D01*
X171325Y274571D01*
X171200D01*
X169795Y274291D01*
X168605Y273495D01*
X165480Y270371D01*
X106520D01*
X98995Y277896D01*
X97805Y278691D01*
X96400Y278971D01*
X55800D01*
X54395Y278691D01*
X53205Y277896D01*
X19980Y244671D01*
X720D01*
X-545Y245935D01*
X-1735Y246731D01*
X-3140Y247010D01*
X-12000D01*
X-13405Y246731D01*
X-14595Y245935D01*
X-15391Y244745D01*
X-15670Y243340D01*
X-15391Y241935D01*
X-15124Y241536D01*
X-14695Y240295D01*
X-15491Y239105D01*
X-15770Y237700D01*
X-15491Y236295D01*
X-14695Y235105D01*
X-13505Y234309D01*
X-12100Y234030D01*
X-4100D01*
X-2695Y234309D01*
X-1505Y235105D01*
X395Y237005D01*
X613Y237330D01*
X2430D01*
Y140200D01*
X2709Y138795D01*
X3505Y137605D01*
X4695Y136809D01*
X6100Y136530D01*
X7505Y136809D01*
X8695Y137605D01*
X9491Y138795D01*
X9771Y140200D01*
Y237330D01*
X21500D01*
X22905Y237609D01*
X24095Y238405D01*
X38133Y252442D01*
X39254Y251767D01*
X39159Y251290D01*
Y140619D01*
X38905Y139954D01*
X38036Y139284D01*
X37393Y139156D01*
X36285Y138415D01*
X36102Y138141D01*
X28100D01*
X27281Y137978D01*
X26586Y137514D01*
X2813Y113741D01*
X-10013D01*
X-12259Y115987D01*
Y136813D01*
X-10461Y138611D01*
X-9191Y138085D01*
Y123365D01*
X-9715Y123015D01*
X-10456Y121907D01*
X-10716Y120600D01*
X-10456Y119293D01*
X-9715Y118185D01*
X-8607Y117444D01*
X-7300Y117184D01*
X-5993Y117444D01*
X-4885Y118185D01*
X-4144Y119293D01*
X-3884Y120600D01*
X-4144Y121907D01*
X-4885Y123015D01*
X-4909Y123031D01*
Y216350D01*
X-5072Y217169D01*
X-5536Y217864D01*
X-19459Y231787D01*
Y235842D01*
X-19185Y236025D01*
X-18444Y237133D01*
X-18184Y238440D01*
X-18444Y239747D01*
X-19185Y240855D01*
X-20293Y241596D01*
X-21600Y241856D01*
X-22907Y241596D01*
X-24015Y240855D01*
X-24756Y239747D01*
X-25016Y238440D01*
X-24756Y237133D01*
X-24015Y236025D01*
X-23741Y235842D01*
Y230900D01*
X-23578Y230081D01*
X-23114Y229386D01*
X-9191Y215463D01*
Y152764D01*
X-10461Y152029D01*
X-11400Y152216D01*
X-11865Y152123D01*
X-12340Y152647D01*
X-12713Y153249D01*
X-12484Y154400D01*
X-12744Y155707D01*
X-13485Y156815D01*
X-14593Y157556D01*
X-15900Y157816D01*
X-17207Y157556D01*
X-18315Y156815D01*
X-19056Y155707D01*
X-19316Y154400D01*
X-19056Y153093D01*
X-18315Y151985D01*
X-18041Y151802D01*
Y144287D01*
X-19014Y143314D01*
X-19478Y142619D01*
X-19641Y141800D01*
Y113604D01*
X-19478Y112784D01*
X-19014Y112090D01*
X-14835Y107911D01*
X-15361Y106641D01*
X-29800D01*
X-30619Y106478D01*
X-31314Y106014D01*
X-34728Y102600D01*
X-40600D01*
Y91400D01*
X-29400D01*
Y101872D01*
X-28913Y102359D01*
X-24600D01*
Y91400D01*
X-21961D01*
Y83900D01*
X-21720Y82690D01*
X-21285Y82039D01*
X-21256Y81893D01*
X-20515Y80785D01*
X-19407Y80044D01*
X-18100Y79784D01*
X-16819Y80039D01*
X-3934D01*
X-2724Y80280D01*
X-1699Y80965D01*
X11775Y94439D01*
X19898D01*
X21108Y94680D01*
X22133Y95365D01*
X28407Y101639D01*
X33706D01*
X34287Y100369D01*
X33844Y99707D01*
X33584Y98400D01*
X33844Y97093D01*
X34585Y95985D01*
X35693Y95244D01*
X37000Y94984D01*
X37323Y95049D01*
X38361Y94011D01*
X38217Y93309D01*
X37879Y92697D01*
X37281Y92578D01*
X36586Y92114D01*
X30286Y85814D01*
X29822Y85119D01*
X29659Y84300D01*
Y77400D01*
X29822Y76581D01*
X30286Y75886D01*
X32286Y73886D01*
X32981Y73422D01*
X33800Y73259D01*
X39000D01*
X39819Y73422D01*
X40514Y73886D01*
X42882Y76254D01*
X43205Y76189D01*
X44512Y76449D01*
X45113Y76851D01*
X45486Y76831D01*
X46507Y76552D01*
X46637Y76458D01*
X46886Y76086D01*
X54386Y68586D01*
X55081Y68122D01*
X55900Y67959D01*
X62913D01*
X64959Y65913D01*
Y54600D01*
X65122Y53781D01*
X65586Y53086D01*
X69059Y49613D01*
Y26598D01*
X68785Y26415D01*
X68044Y25307D01*
X67784Y24000D01*
X68044Y22693D01*
X68785Y21585D01*
X69893Y20844D01*
X71200Y20584D01*
X72507Y20844D01*
X73615Y21585D01*
X74356Y22693D01*
X74616Y24000D01*
X74356Y25307D01*
X73615Y26415D01*
X73341Y26598D01*
Y31848D01*
X74203Y32379D01*
X74721Y32144D01*
X75004Y31567D01*
X74744Y30260D01*
X75004Y28953D01*
X75745Y27845D01*
X76853Y27104D01*
X78160Y26844D01*
X79467Y27104D01*
X80575Y27845D01*
X81316Y28953D01*
X81576Y30260D01*
X81316Y31567D01*
X80575Y32675D01*
X79995Y33063D01*
X79645Y34577D01*
X79655Y34593D01*
X79915Y35900D01*
X79655Y37207D01*
X78915Y38315D01*
X77807Y39056D01*
X76500Y39316D01*
X75193Y39056D01*
X74611Y38667D01*
X73341Y39314D01*
Y40925D01*
X74611Y41604D01*
X74696Y41547D01*
X76003Y41287D01*
X77310Y41547D01*
X78418Y42288D01*
X79159Y43396D01*
X79314Y44178D01*
X80623Y44665D01*
X82959Y42329D01*
Y25499D01*
X82385Y25115D01*
X81644Y24007D01*
X81384Y22700D01*
X81644Y21393D01*
X82385Y20285D01*
X82959Y19901D01*
Y17200D01*
X83122Y16381D01*
X83586Y15686D01*
X84642Y14630D01*
X85200Y13590D01*
X85200D01*
X85200Y13590D01*
Y2416D01*
X83700D01*
Y13600D01*
X72500D01*
Y2416D01*
X71000D01*
Y13600D01*
X59800D01*
Y2416D01*
X58300D01*
Y13600D01*
X47100D01*
Y2416D01*
X45600D01*
Y13600D01*
X34400D01*
Y2416D01*
X0D01*
X-359Y2345D01*
X-1881Y3571D01*
X-12004Y12996D01*
X-21428Y23119D01*
X-30107Y33888D01*
X-37995Y45249D01*
X-45053Y57144D01*
X-51244Y69512D01*
X-56536Y82290D01*
X-60904Y95414D01*
X-64325Y108815D01*
X-66781Y122426D01*
X-68259Y136178D01*
X-68753Y150000D01*
X-68259Y163822D01*
X-66781Y177574D01*
X-64325Y191185D01*
X-60904Y204587D01*
X-56536Y217710D01*
X-51244Y230488D01*
X-45053Y242856D01*
X-37995Y254751D01*
X-30107Y266112D01*
X-21428Y276881D01*
X-12004Y287004D01*
X-1881Y296429D01*
X-359Y297655D01*
X0Y297584D01*
D02*
G37*
G36*
X65319Y113103D02*
Y91815D01*
X64049Y91289D01*
X59024Y96314D01*
X58329Y96778D01*
X57510Y96941D01*
X41487D01*
X40351Y98077D01*
X40416Y98400D01*
X40156Y99707D01*
X39415Y100815D01*
X39534Y102263D01*
X39715Y102385D01*
X40456Y103493D01*
X40716Y104800D01*
X40456Y106107D01*
X39715Y107215D01*
X38607Y107956D01*
X37300Y108216D01*
X36019Y107961D01*
X27098D01*
X25889Y107720D01*
X24863Y107035D01*
X23081Y105252D01*
X21703Y105670D01*
X21656Y105907D01*
X20915Y107015D01*
X19807Y107755D01*
X18500Y108015D01*
X17193Y107755D01*
X16085Y107015D01*
X15344Y105907D01*
X15084Y104600D01*
X15344Y103293D01*
X16085Y102185D01*
X16315Y102031D01*
X15930Y100761D01*
X10466D01*
X9256Y100520D01*
X8231Y99835D01*
X-5243Y86361D01*
X-15639D01*
Y91400D01*
X-13400D01*
Y102359D01*
X-9891D01*
X-9506Y101089D01*
X-9915Y100815D01*
X-10656Y99707D01*
X-10916Y98400D01*
X-10656Y97093D01*
X-9915Y95985D01*
X-8807Y95244D01*
X-7500Y94984D01*
X-6193Y95244D01*
X-5085Y95985D01*
X-4344Y97093D01*
X-4084Y98400D01*
X-4344Y99707D01*
X-5085Y100815D01*
X-5494Y101089D01*
X-5109Y102359D01*
X-2387D01*
X-1451Y101423D01*
X-1516Y101100D01*
X-1256Y99793D01*
X-515Y98685D01*
X593Y97944D01*
X1900Y97684D01*
X3207Y97944D01*
X4315Y98685D01*
X5056Y99793D01*
X5316Y101100D01*
X5056Y102407D01*
X4315Y103515D01*
X3207Y104256D01*
X2255Y104445D01*
X1876Y104939D01*
X2345Y106020D01*
X2571Y106209D01*
X9098D01*
X9918Y106372D01*
X10612Y106836D01*
X30135Y126359D01*
X40702D01*
X40885Y126085D01*
X41993Y125344D01*
X43300Y125084D01*
X44607Y125344D01*
X45715Y126085D01*
X46456Y127193D01*
X46716Y128500D01*
X46456Y129807D01*
X45715Y130915D01*
X44607Y131656D01*
X43300Y131916D01*
X41993Y131656D01*
X40885Y130915D01*
X40702Y130641D01*
X29248D01*
X28429Y130478D01*
X27734Y130014D01*
X8452Y110732D01*
X7743Y110819D01*
X7284Y112156D01*
X28987Y133859D01*
X36102D01*
X36285Y133585D01*
X37393Y132844D01*
X38700Y132584D01*
X40007Y132844D01*
X41115Y133585D01*
X41856Y134693D01*
X41868Y134757D01*
X43246Y135176D01*
X65319Y113103D01*
D02*
G37*
%LPC*%
G36*
X83100Y121316D02*
X81793Y121056D01*
X80685Y120315D01*
X79944Y119207D01*
X79684Y117900D01*
X79944Y116593D01*
X80685Y115485D01*
X81793Y114744D01*
X83100Y114484D01*
X84407Y114744D01*
X85515Y115485D01*
X86256Y116593D01*
X86516Y117900D01*
X86256Y119207D01*
X85515Y120315D01*
X84407Y121056D01*
X83100Y121316D01*
D02*
G37*
G36*
X77400Y130415D02*
X76093Y130155D01*
X74985Y129415D01*
X74244Y128307D01*
X73984Y127000D01*
X74244Y125693D01*
X74985Y124585D01*
X76093Y123844D01*
X77400Y123584D01*
X78707Y123844D01*
X79815Y124585D01*
X80555Y125693D01*
X80815Y127000D01*
X80555Y128307D01*
X79815Y129415D01*
X78707Y130155D01*
X77400Y130415D01*
D02*
G37*
G36*
X74400Y145916D02*
X73093Y145656D01*
X71985Y144915D01*
X71244Y143807D01*
X70984Y142500D01*
X71244Y141193D01*
X71985Y140085D01*
X73093Y139344D01*
X74400Y139084D01*
X75707Y139344D01*
X76815Y140085D01*
X77556Y141193D01*
X77816Y142500D01*
X77556Y143807D01*
X76815Y144915D01*
X75707Y145656D01*
X74400Y145916D01*
D02*
G37*
G36*
X146790Y206796D02*
X145483Y206536D01*
X144375Y205795D01*
X143634Y204687D01*
X143374Y203380D01*
X143634Y202073D01*
X144375Y200965D01*
X145483Y200224D01*
X146790Y199964D01*
X148097Y200224D01*
X149205Y200965D01*
X149946Y202073D01*
X150206Y203380D01*
X149946Y204687D01*
X149205Y205795D01*
X148097Y206536D01*
X146790Y206796D01*
D02*
G37*
G36*
X156570D02*
X155263Y206536D01*
X154155Y205795D01*
X153414Y204687D01*
X153154Y203380D01*
X153414Y202073D01*
X154155Y200965D01*
X155263Y200224D01*
X156570Y199964D01*
X157877Y200224D01*
X158985Y200965D01*
X159726Y202073D01*
X159986Y203380D01*
X159726Y204687D01*
X158985Y205795D01*
X157877Y206536D01*
X156570Y206796D01*
D02*
G37*
G36*
X48500Y146016D02*
X47193Y145756D01*
X46085Y145015D01*
X45344Y143907D01*
X45084Y142600D01*
X45344Y141293D01*
X46085Y140185D01*
X47193Y139444D01*
X48500Y139184D01*
X49807Y139444D01*
X50915Y140185D01*
X51656Y141293D01*
X51916Y142600D01*
X51656Y143907D01*
X50915Y145015D01*
X49807Y145756D01*
X48500Y146016D01*
D02*
G37*
G36*
X57133Y146049D02*
X55826Y145789D01*
X54718Y145049D01*
X53978Y143940D01*
X53718Y142633D01*
X53978Y141326D01*
X54718Y140218D01*
X55826Y139478D01*
X57133Y139218D01*
X58440Y139478D01*
X59549Y140218D01*
X60289Y141326D01*
X60549Y142633D01*
X60289Y143940D01*
X59549Y145049D01*
X58440Y145789D01*
X57133Y146049D01*
D02*
G37*
G36*
X65767Y145949D02*
X64460Y145689D01*
X63351Y144949D01*
X62611Y143840D01*
X62351Y142533D01*
X62611Y141226D01*
X63351Y140118D01*
X64460Y139378D01*
X65767Y139118D01*
X67074Y139378D01*
X68182Y140118D01*
X68922Y141226D01*
X69182Y142533D01*
X68922Y143840D01*
X68182Y144949D01*
X67074Y145689D01*
X65767Y145949D01*
D02*
G37*
G36*
X104710Y146006D02*
X103403Y145746D01*
X102295Y145005D01*
X101554Y143897D01*
X101294Y142590D01*
X101554Y141283D01*
X102295Y140175D01*
X103403Y139434D01*
X104710Y139174D01*
X106017Y139434D01*
X107125Y140175D01*
X107866Y141283D01*
X108126Y142590D01*
X107866Y143897D01*
X107125Y145005D01*
X106017Y145746D01*
X104710Y146006D01*
D02*
G37*
G36*
X138640Y190036D02*
X137333Y189776D01*
X136225Y189035D01*
X135484Y187927D01*
X135224Y186620D01*
X135484Y185313D01*
X136225Y184205D01*
X137333Y183464D01*
X138640Y183204D01*
X139947Y183464D01*
X141055Y184205D01*
X141796Y185313D01*
X142056Y186620D01*
X141796Y187927D01*
X141055Y189035D01*
X139947Y189776D01*
X138640Y190036D01*
D02*
G37*
G36*
X147280Y190056D02*
X145973Y189796D01*
X144865Y189055D01*
X144124Y187947D01*
X143864Y186640D01*
X144124Y185333D01*
X144865Y184225D01*
X145973Y183484D01*
X147280Y183224D01*
X148587Y183484D01*
X149695Y184225D01*
X150436Y185333D01*
X150696Y186640D01*
X150436Y187947D01*
X149695Y189055D01*
X148587Y189796D01*
X147280Y190056D01*
D02*
G37*
G36*
X96300Y152516D02*
X94993Y152256D01*
X93885Y151515D01*
X93144Y150407D01*
X92884Y149100D01*
X93144Y147793D01*
X93885Y146685D01*
X94993Y145944D01*
X96300Y145684D01*
X97607Y145944D01*
X98715Y146685D01*
X99456Y147793D01*
X99716Y149100D01*
X99456Y150407D01*
X98715Y151515D01*
X97607Y152256D01*
X96300Y152516D01*
D02*
G37*
G36*
X156400Y189936D02*
X155093Y189676D01*
X153985Y188935D01*
X153244Y187827D01*
X152984Y186520D01*
X153244Y185213D01*
X153985Y184105D01*
X155093Y183364D01*
X156400Y183104D01*
X157707Y183364D01*
X158815Y184105D01*
X159556Y185213D01*
X159816Y186520D01*
X159556Y187827D01*
X158815Y188935D01*
X157707Y189676D01*
X156400Y189936D01*
D02*
G37*
G36*
X154260Y102236D02*
X152953Y101976D01*
X151845Y101235D01*
X151104Y100127D01*
X150844Y98820D01*
X151104Y97513D01*
X151845Y96405D01*
X152953Y95664D01*
X154260Y95404D01*
X155567Y95664D01*
X156675Y96405D01*
X157416Y97513D01*
X157676Y98820D01*
X157416Y100127D01*
X156675Y101235D01*
X155567Y101976D01*
X154260Y102236D01*
D02*
G37*
G36*
X147350Y95606D02*
X146043Y95346D01*
X144935Y94605D01*
X144194Y93497D01*
X143934Y92190D01*
X144194Y90883D01*
X144935Y89775D01*
X146043Y89034D01*
X147350Y88774D01*
X148657Y89034D01*
X149765Y89775D01*
X150506Y90883D01*
X150766Y92190D01*
X150506Y93497D01*
X149765Y94605D01*
X148657Y95346D01*
X147350Y95606D01*
D02*
G37*
G36*
X162600Y98115D02*
X161293Y97855D01*
X160185Y97115D01*
X159444Y96007D01*
X159184Y94699D01*
X159444Y93392D01*
X160185Y92284D01*
X161293Y91544D01*
X162600Y91284D01*
X163907Y91544D01*
X165015Y92284D01*
X165756Y93392D01*
X166016Y94699D01*
X165756Y96007D01*
X165015Y97115D01*
X163907Y97855D01*
X162600Y98115D01*
D02*
G37*
G36*
X164800Y117115D02*
X163493Y116855D01*
X162384Y116115D01*
X161644Y115007D01*
X161384Y113700D01*
X161644Y112393D01*
X162384Y111285D01*
X163493Y110544D01*
X164800Y110284D01*
X166107Y110544D01*
X167215Y111285D01*
X167955Y112393D01*
X168215Y113700D01*
X167955Y115007D01*
X167215Y116115D01*
X166107Y116855D01*
X164800Y117115D01*
D02*
G37*
G36*
X179310Y93066D02*
X178003Y92806D01*
X176895Y92065D01*
X176154Y90957D01*
X175894Y89650D01*
X176154Y88343D01*
X176895Y87235D01*
X178003Y86494D01*
X179310Y86234D01*
X180617Y86494D01*
X181725Y87235D01*
X182466Y88343D01*
X182726Y89650D01*
X182466Y90957D01*
X181725Y92065D01*
X180617Y92806D01*
X179310Y93066D01*
D02*
G37*
G36*
X139000Y95215D02*
X137693Y94955D01*
X136585Y94215D01*
X135844Y93107D01*
X135584Y91800D01*
X135844Y90493D01*
X136585Y89385D01*
X137693Y88644D01*
X139000Y88384D01*
X140307Y88644D01*
X141415Y89385D01*
X142155Y90493D01*
X142415Y91800D01*
X142155Y93107D01*
X141415Y94215D01*
X140307Y94955D01*
X139000Y95215D01*
D02*
G37*
G36*
X186700Y76115D02*
X185392Y75855D01*
X184284Y75115D01*
X183544Y74007D01*
X183284Y72700D01*
X183544Y71393D01*
X184284Y70285D01*
X185392Y69544D01*
X185042Y68368D01*
X185014Y68327D01*
X184754Y67020D01*
X184809Y66747D01*
X183713Y65743D01*
X183098Y65866D01*
X181791Y65606D01*
X180682Y64865D01*
X179942Y63757D01*
X179682Y62450D01*
X179942Y61143D01*
X180682Y60035D01*
X181791Y59294D01*
X183098Y59034D01*
X184405Y59294D01*
X185513Y60035D01*
X186253Y61143D01*
X186513Y62450D01*
X186459Y62723D01*
X187554Y63727D01*
X188170Y63604D01*
X189477Y63864D01*
X190585Y64605D01*
X191326Y65713D01*
X191586Y67020D01*
X191326Y68327D01*
X190585Y69435D01*
X189477Y70176D01*
X189828Y71352D01*
X189855Y71393D01*
X190115Y72700D01*
X189855Y74007D01*
X189115Y75115D01*
X188007Y75855D01*
X186700Y76115D01*
D02*
G37*
G36*
X179140Y84466D02*
X177833Y84206D01*
X176725Y83465D01*
X175984Y82357D01*
X175724Y81050D01*
X175984Y79743D01*
X176725Y78635D01*
X177833Y77894D01*
X179140Y77634D01*
X180447Y77894D01*
X181555Y78635D01*
X182296Y79743D01*
X182556Y81050D01*
X182296Y82357D01*
X181555Y83465D01*
X180447Y84206D01*
X179140Y84466D01*
D02*
G37*
G36*
X191550Y217496D02*
X190243Y217236D01*
X189135Y216495D01*
X188394Y215387D01*
X188134Y214080D01*
X188394Y212773D01*
X189135Y211665D01*
X190243Y210924D01*
X191550Y210664D01*
X192857Y210924D01*
X193965Y211665D01*
X194706Y212773D01*
X194966Y214080D01*
X194706Y215387D01*
X193965Y216495D01*
X192857Y217236D01*
X191550Y217496D01*
D02*
G37*
G36*
X7300Y56016D02*
X5993Y55756D01*
X4885Y55015D01*
X4144Y53907D01*
X3884Y52600D01*
X4144Y51293D01*
X4885Y50185D01*
X5993Y49444D01*
X7300Y49184D01*
X8607Y49444D01*
X9715Y50185D01*
X10456Y51293D01*
X10716Y52600D01*
X10456Y53907D01*
X9715Y55015D01*
X8607Y55756D01*
X7300Y56016D01*
D02*
G37*
G36*
X22300Y67516D02*
X20993Y67256D01*
X19885Y66515D01*
X19144Y65407D01*
X18884Y64100D01*
X19144Y62793D01*
X19885Y61685D01*
X20993Y60944D01*
X22300Y60684D01*
X23607Y60944D01*
X24715Y61685D01*
X25298Y62557D01*
X26495Y62062D01*
X26454Y61860D01*
X26714Y60553D01*
X27455Y59445D01*
X28563Y58704D01*
X29870Y58444D01*
X31177Y58704D01*
X32285Y59445D01*
X33026Y60553D01*
X33286Y61860D01*
X33026Y63167D01*
X32285Y64275D01*
X31177Y65016D01*
X29870Y65276D01*
X28563Y65016D01*
X27455Y64275D01*
X26872Y63403D01*
X25675Y63898D01*
X25716Y64100D01*
X25456Y65407D01*
X24715Y66515D01*
X23607Y67256D01*
X22300Y67516D01*
D02*
G37*
G36*
X-15000Y42916D02*
X-16307Y42656D01*
X-17415Y41915D01*
X-18156Y40807D01*
X-18416Y39500D01*
X-18156Y38193D01*
X-17415Y37085D01*
X-16307Y36344D01*
X-15000Y36084D01*
X-13870Y36309D01*
X-13020Y35985D01*
X-12600Y35760D01*
Y30400D01*
X-1400D01*
Y41600D01*
X-12374D01*
X-12585Y41915D01*
X-13693Y42656D01*
X-15000Y42916D01*
D02*
G37*
G36*
X-1400Y56600D02*
X-12600D01*
Y45400D01*
X-1400D01*
Y56600D01*
D02*
G37*
G36*
X213400Y275716D02*
X212093Y275456D01*
X210985Y274715D01*
X210244Y273607D01*
X209984Y272300D01*
X210244Y270993D01*
X210985Y269885D01*
X212093Y269144D01*
X213400Y268884D01*
X214707Y269144D01*
X215815Y269885D01*
X216556Y270993D01*
X216816Y272300D01*
X216556Y273607D01*
X215815Y274715D01*
X214707Y275456D01*
X213400Y275716D01*
D02*
G37*
G36*
X189970Y286256D02*
X188663Y285996D01*
X187555Y285255D01*
X186814Y284147D01*
X186554Y282840D01*
X186814Y281533D01*
X187555Y280425D01*
X188663Y279684D01*
X189970Y279424D01*
X191277Y279684D01*
X192385Y280425D01*
X193126Y281533D01*
X193386Y282840D01*
X193126Y284147D01*
X192385Y285255D01*
X191277Y285996D01*
X189970Y286256D01*
D02*
G37*
G36*
X155320Y291126D02*
X154013Y290866D01*
X152905Y290125D01*
X152164Y289017D01*
X151904Y287710D01*
X152164Y286403D01*
X152905Y285295D01*
X154013Y284554D01*
X155320Y284294D01*
X156627Y284554D01*
X157735Y285295D01*
X158476Y286403D01*
X158736Y287710D01*
X158476Y289017D01*
X157735Y290125D01*
X156627Y290866D01*
X155320Y291126D01*
D02*
G37*
G36*
X150470Y278716D02*
X149163Y278456D01*
X148055Y277715D01*
X147314Y276607D01*
X147054Y275300D01*
X147314Y273993D01*
X148055Y272885D01*
X149163Y272144D01*
X150470Y271884D01*
X151777Y272144D01*
X152885Y272885D01*
X153626Y273993D01*
X153886Y275300D01*
X153626Y276607D01*
X152885Y277715D01*
X151777Y278456D01*
X150470Y278716D01*
D02*
G37*
G36*
X161050Y280496D02*
X159743Y280236D01*
X158635Y279495D01*
X157894Y278387D01*
X157634Y277080D01*
X157894Y275773D01*
X158635Y274665D01*
X159743Y273924D01*
X161050Y273664D01*
X162357Y273924D01*
X163465Y274665D01*
X164206Y275773D01*
X164466Y277080D01*
X164206Y278387D01*
X163465Y279495D01*
X162357Y280236D01*
X161050Y280496D01*
D02*
G37*
G36*
X49100Y121716D02*
X47793Y121456D01*
X46685Y120715D01*
X45944Y119607D01*
X45684Y118300D01*
X45944Y116993D01*
X46685Y115885D01*
X47793Y115144D01*
X49100Y114884D01*
X50407Y115144D01*
X51515Y115885D01*
X52256Y116993D01*
X52516Y118300D01*
X52256Y119607D01*
X51515Y120715D01*
X50407Y121456D01*
X49100Y121716D01*
D02*
G37*
%LPD*%
D10*
X-35300Y96700D02*
Y99000D01*
D36*
X85100Y17200D02*
Y43216D01*
X148930Y14600D02*
X149230Y14900D01*
X121570Y14600D02*
X148930D01*
X121270Y14900D02*
X121570Y14600D01*
X122854Y17700D02*
X147646D01*
X121654Y18900D02*
X122854Y17700D01*
X147646D02*
X147946Y18000D01*
X146200Y22400D02*
X146500D01*
X139500Y22000D02*
Y22100D01*
X108720Y18900D02*
X121654D01*
X102700Y24920D02*
X108720Y18900D01*
X141600Y27000D02*
X146200Y22400D01*
X153620Y18000D02*
X157640Y22020D01*
X147946Y18000D02*
X153620D01*
X158020Y14900D02*
X167640Y24520D01*
X149230Y14900D02*
X158020D01*
X-29800Y104500D02*
X-1500D01*
X-35300Y99000D02*
X-29800Y104500D01*
X-1500D02*
X1900Y101100D01*
X71200Y24000D02*
Y50500D01*
X55900Y70100D02*
X63800D01*
X48400Y77600D02*
X55900Y70100D01*
X48400Y77600D02*
Y82400D01*
X71200Y24000D02*
X71300D01*
X36200Y80100D02*
X42850Y86750D01*
X52950D01*
X-7050Y120850D02*
Y216350D01*
X-21600Y230900D02*
X-7050Y216350D01*
X-21600Y230900D02*
Y238440D01*
X9098Y108350D02*
X29248Y128500D01*
X43300D01*
X-12246Y108350D02*
X9098D01*
X41300Y251290D02*
X58290Y268280D01*
X107770Y26900D02*
Y32730D01*
X67460Y91000D02*
X81180Y77280D01*
X177850Y143050D02*
Y214420D01*
X118700Y83900D02*
X177850Y143050D01*
X209180Y221060D02*
X210760Y222640D01*
X184490Y221060D02*
X209180D01*
X177850Y214420D02*
X184490Y221060D01*
X118700Y74580D02*
Y83900D01*
X114780Y84740D02*
X171760Y141720D01*
X114780Y61150D02*
Y84740D01*
X167000Y8000D02*
X170030Y11030D01*
X58290Y268280D02*
X88420D01*
X53810Y243700D02*
X75760D01*
X122090Y197370D01*
Y167460D02*
Y197370D01*
X115640Y167470D02*
Y197150D01*
X50890Y238770D02*
X74020D01*
X115640Y197150D01*
X48050Y241610D02*
X50890Y238770D01*
X48050Y241610D02*
Y248900D01*
X53850Y254700D01*
X157640Y22020D02*
Y26060D01*
X171760Y141720D02*
Y255070D01*
X124540Y100450D02*
Y124760D01*
X110970Y86880D02*
X124540Y100450D01*
X117090Y97680D02*
Y124780D01*
X107260Y87850D02*
X117090Y97680D01*
X107260Y55300D02*
Y87850D01*
Y55300D02*
X115010Y47550D01*
X162700Y28700D02*
Y28900D01*
X127160Y139960D02*
X148550D01*
X117500Y130300D02*
X127160Y139960D01*
X92100Y130300D02*
X117500D01*
X81400Y141000D02*
X92100Y130300D01*
X81400Y141000D02*
Y147200D01*
X86200Y152000D01*
Y159332D01*
X90278Y163410D01*
X100410D01*
X171760Y255070D02*
X177580Y260890D01*
X186270D01*
X114780Y61150D02*
X118340Y57590D01*
X124690D01*
X117810Y52550D02*
X121640D01*
X102700Y24920D02*
Y31200D01*
X186270Y260890D02*
X190160Y264780D01*
X119400Y42900D02*
X123580D01*
X116134Y38550D02*
X123614D01*
X114634Y35450D02*
X124898D01*
X123580Y42900D02*
X126700Y46020D01*
Y55580D01*
X124690Y57590D02*
X126700Y55580D01*
X123614Y38550D02*
X130500Y45436D01*
X124898Y35450D02*
X134000Y44552D01*
Y59280D01*
X118700Y74580D02*
X134000Y59280D01*
X110970Y59390D02*
Y86880D01*
Y59390D02*
X117810Y52550D01*
X121390Y62550D02*
X124950D01*
X130500Y57000D01*
Y45436D02*
Y57000D01*
X67460Y91000D02*
Y113990D01*
X41300Y140150D02*
Y251290D01*
Y140150D02*
X67460Y113990D01*
X-10900Y111600D02*
X3700D01*
X-14400Y115100D02*
X-10900Y111600D01*
X-17500Y113604D02*
X-12246Y108350D01*
X3700Y111600D02*
X28100Y136000D01*
X38700D01*
X-17500Y141800D02*
X-15900Y143400D01*
X-17500Y113604D02*
Y141800D01*
X-15900Y143400D02*
Y154400D01*
X-7300Y120600D02*
X-7050Y120850D01*
X-11400Y140700D02*
Y148800D01*
X-14400Y137700D02*
X-11400Y140700D01*
X-14400Y115100D02*
Y137700D01*
X87400Y14900D02*
X121270D01*
X85100Y17200D02*
X87400Y14900D01*
X18200Y104300D02*
X18500Y104600D01*
X171800Y19800D02*
X171990Y19990D01*
Y27810D01*
X162300Y37500D02*
X171990Y27810D01*
X143300Y37500D02*
X162300D01*
X136800Y31000D02*
X143300Y37500D01*
X126800Y31000D02*
X136800D01*
X135600Y27000D02*
X141600D01*
X121200Y25400D02*
X126800Y31000D01*
X107770Y26900D02*
X112670Y22000D01*
X130600D01*
X135600Y27000D01*
X114300Y25400D02*
X121200D01*
X111200Y28500D02*
X114300Y25400D01*
X111200Y28500D02*
Y34200D01*
X99302Y35550D02*
X104950D01*
X107770Y32730D01*
X109814Y44870D02*
X116134Y38550D01*
X108314Y41770D02*
X114634Y35450D01*
X106750Y38650D02*
X111200Y34200D01*
X98450Y38650D02*
X106750D01*
X90810Y30650D02*
X94402D01*
X99302Y35550D01*
X76760Y61156D02*
Y75550D01*
X81180Y61120D02*
Y77280D01*
X101230Y44870D02*
X109814D01*
X100895Y45000D02*
X101100D01*
X101230Y44870D01*
X99611Y41900D02*
X99816D01*
X99946Y41770D01*
X108314D01*
X76760Y61156D02*
X94166Y43750D01*
X81180Y61120D02*
X95450Y46850D01*
X99045D01*
X94166Y43750D02*
X97761D01*
X99611Y41900D01*
X99045Y46850D02*
X100895Y45000D01*
X73300Y60100D02*
X92750Y40650D01*
X96450D01*
X98450Y38650D01*
X67100Y54600D02*
X71200Y50500D01*
X67100Y54600D02*
Y66800D01*
X63800Y70100D02*
X67100Y66800D01*
X70200Y58116D02*
X85100Y43216D01*
X70200Y58116D02*
Y69500D01*
X52950Y86750D02*
X70200Y69500D01*
X73300Y60100D02*
Y71700D01*
X54400Y90600D02*
X73300Y71700D01*
X37000Y98400D02*
X40600Y94800D01*
X57510D01*
X76760Y75550D01*
X38100Y90600D02*
X54400D01*
X31800Y84300D02*
X38100Y90600D01*
X31800Y77400D02*
Y84300D01*
Y77400D02*
X33800Y75400D01*
X39000D01*
X43205Y79605D01*
D39*
X6100Y241000D02*
X21500D01*
X-800D02*
X6100D01*
Y140200D02*
Y241000D01*
X231600Y206000D02*
X242000D01*
X171200Y270900D02*
X192313D01*
X55800Y275300D02*
X96400D01*
X227000Y210600D02*
X231600Y206000D01*
X227000Y210600D02*
Y236213D01*
X192313Y270900D02*
X227000Y236213D01*
X-4100Y237700D02*
X-2200Y239600D01*
X-12100Y237700D02*
X-4100D01*
X-12000Y243340D02*
X-3140D01*
X-2200Y239600D02*
Y242400D01*
X-3140Y243340D02*
X-800Y241000D01*
X21500D02*
X55800Y275300D01*
X96400D02*
X105000Y266700D01*
X167000D01*
X171200Y270900D01*
D41*
X27098Y104800D02*
X37300D01*
X-18800Y83900D02*
Y96700D01*
Y83900D02*
X-18100Y83200D01*
X19898Y97600D02*
X27098Y104800D01*
X10466Y97600D02*
X19898D01*
X-3934Y83200D02*
X10466Y97600D01*
X-18100Y83200D02*
X-3934D01*
D45*
X167000Y8000D02*
D03*
X242000Y191000D02*
D03*
D46*
X-35000Y97000D02*
D03*
X-19000D02*
D03*
X242000Y206000D02*
D03*
X217700Y292000D02*
D03*
D47*
X-27900Y173800D02*
D03*
Y123800D02*
D03*
D48*
X-54900Y183800D02*
D03*
Y113800D02*
D03*
D49*
X15000Y15000D02*
D03*
X235000Y285000D02*
D03*
D50*
X146500Y22400D02*
D03*
X139500Y22100D02*
D03*
X71200Y24000D02*
D03*
X48400Y82400D02*
D03*
X195200Y45600D02*
D03*
X193000Y83200D02*
D03*
X194400Y108000D02*
D03*
X192300Y130200D02*
D03*
X192800Y147100D02*
D03*
X193200Y167400D02*
D03*
X192500Y122400D02*
D03*
X58900Y26700D02*
D03*
X171800Y19800D02*
D03*
X6100Y140200D02*
D03*
X-18100Y83200D02*
D03*
X37300Y104800D02*
D03*
X37000Y98400D02*
D03*
X210760Y222640D02*
D03*
X157640Y26060D02*
D03*
X100410Y163410D02*
D03*
X88420Y268280D02*
D03*
X167640Y24520D02*
D03*
X53850Y254700D02*
D03*
X53810Y243700D02*
D03*
X122090Y167460D02*
D03*
X115640Y167470D02*
D03*
X115010Y47550D02*
D03*
X124540Y124760D02*
D03*
X117090Y124780D02*
D03*
X148550Y139960D02*
D03*
X162700Y28900D02*
D03*
X194100Y95800D02*
D03*
X191300Y6360D02*
D03*
X193380Y22180D02*
D03*
X121390Y62550D02*
D03*
X191000Y41170D02*
D03*
X187796Y31645D02*
D03*
X121640Y52550D02*
D03*
X102700Y31200D02*
D03*
X190160Y264780D02*
D03*
X-12000Y243340D02*
D03*
X119400Y42900D02*
D03*
X-21600Y238440D02*
D03*
X-7300Y120600D02*
D03*
X-12100Y237700D02*
D03*
X38700Y136000D02*
D03*
X43300Y128500D02*
D03*
X-15900Y154400D02*
D03*
X-11400Y148800D02*
D03*
X36200Y80100D02*
D03*
X84800Y22700D02*
D03*
X90810Y30650D02*
D03*
X18500Y104600D02*
D03*
X43205Y79605D02*
D03*
X191381Y58430D02*
D03*
X1900Y101100D02*
D03*
D51*
X241300Y178100D02*
D03*
X236300Y188100D02*
D03*
X231300Y178100D02*
D03*
X221300Y278100D02*
D03*
X226300Y268100D02*
D03*
X221300Y198100D02*
D03*
X226300Y188100D02*
D03*
X221300Y178100D02*
D03*
X211300Y278100D02*
D03*
Y198100D02*
D03*
X216300Y188100D02*
D03*
X211300Y178100D02*
D03*
X201300Y198100D02*
D03*
X206300Y188100D02*
D03*
X201300Y178100D02*
D03*
X191300Y238100D02*
D03*
X196300Y228100D02*
D03*
Y208100D02*
D03*
X191300Y198100D02*
D03*
X196300Y188100D02*
D03*
X191300Y178100D02*
D03*
Y158100D02*
D03*
Y138100D02*
D03*
X161300Y118100D02*
D03*
X156300Y148100D02*
D03*
X141300Y218100D02*
D03*
X146300Y168100D02*
D03*
X131300Y198100D02*
D03*
X136300Y168100D02*
D03*
X121300Y258100D02*
D03*
X126300Y248100D02*
D03*
X121300Y238100D02*
D03*
X126300Y228100D02*
D03*
X121300Y218100D02*
D03*
X126300Y208100D02*
D03*
X111300Y138100D02*
D03*
X101300Y238100D02*
D03*
Y198100D02*
D03*
X106300Y168100D02*
D03*
X101300Y58100D02*
D03*
X96300Y268100D02*
D03*
X91300Y258100D02*
D03*
X96300Y248100D02*
D03*
Y208100D02*
D03*
X91300Y198100D02*
D03*
Y158100D02*
D03*
X81300Y258100D02*
D03*
Y218100D02*
D03*
X86300Y208100D02*
D03*
X81300Y198100D02*
D03*
Y158100D02*
D03*
X86300Y88100D02*
D03*
X71300Y258100D02*
D03*
Y198100D02*
D03*
Y178100D02*
D03*
X61300Y258100D02*
D03*
X66300Y248100D02*
D03*
Y128100D02*
D03*
X61300Y58100D02*
D03*
X56300Y248100D02*
D03*
X51300Y198100D02*
D03*
Y178100D02*
D03*
X41300Y278100D02*
D03*
X46300Y208100D02*
D03*
Y188100D02*
D03*
X31300Y278100D02*
D03*
X36300Y268100D02*
D03*
X31300Y238100D02*
D03*
X36300Y208100D02*
D03*
Y188100D02*
D03*
Y148100D02*
D03*
X26300Y28100D02*
D03*
X16300Y268100D02*
D03*
X1300Y278100D02*
D03*
X6300Y268100D02*
D03*
X1300Y258100D02*
D03*
X6300Y28100D02*
D03*
X1300Y18100D02*
D03*
X-8700Y278100D02*
D03*
X-3700Y268100D02*
D03*
X-8700Y258100D02*
D03*
X-3700Y28100D02*
D03*
X-8700Y18100D02*
D03*
X-3700Y8100D02*
D03*
X-13700Y268100D02*
D03*
X-18700Y258100D02*
D03*
Y218100D02*
D03*
Y178100D02*
D03*
X-13700Y88100D02*
D03*
Y28100D02*
D03*
X-23700Y268100D02*
D03*
X-28700Y258100D02*
D03*
Y218100D02*
D03*
Y198100D02*
D03*
X-23700Y188100D02*
D03*
Y108100D02*
D03*
X-28700Y58100D02*
D03*
X-23700Y48100D02*
D03*
X-33700Y248100D02*
D03*
X-38700Y238100D02*
D03*
Y218100D02*
D03*
Y198100D02*
D03*
X-33700Y188100D02*
D03*
X-38700Y178100D02*
D03*
Y158100D02*
D03*
Y138100D02*
D03*
Y118100D02*
D03*
X-33700Y108100D02*
D03*
Y88100D02*
D03*
X-38700Y78100D02*
D03*
X-33700Y48100D02*
D03*
X-43700Y228100D02*
D03*
X-48700Y218100D02*
D03*
X-43700Y208100D02*
D03*
X-48700Y198100D02*
D03*
X-43700Y188100D02*
D03*
Y168100D02*
D03*
X-48700Y158100D02*
D03*
X-43700Y148100D02*
D03*
X-48700Y138100D02*
D03*
X-43700Y128100D02*
D03*
Y108100D02*
D03*
X-48700Y98100D02*
D03*
X-43700Y88100D02*
D03*
X-48700Y78100D02*
D03*
X-43700Y68100D02*
D03*
X-53700Y208100D02*
D03*
X-58700Y198100D02*
D03*
X-53700Y168100D02*
D03*
X-58700Y158100D02*
D03*
X-53700Y148100D02*
D03*
X-58700Y138100D02*
D03*
X-53700Y128100D02*
D03*
X-58700Y98100D02*
D03*
X-53700Y88100D02*
D03*
D52*
X155100Y71100D02*
D03*
X144100D02*
D03*
Y60100D02*
D03*
X166100D02*
D03*
X155100D02*
D03*
X144100Y49100D02*
D03*
X155100D02*
D03*
X166100D02*
D03*
X29480Y5800D02*
D03*
X3790Y79270D02*
D03*
X115940Y294220D02*
D03*
X231520Y248050D02*
D03*
X27200Y77700D02*
D03*
X102800Y49600D02*
D03*
X166100Y71100D02*
D03*
D53*
X185050Y52700D02*
D03*
M02*
