G04 Layer_Physical_Order=4*
G04 Layer_Color=16711680*
%FSLAX44Y44*%
%MOMM*%
G71*
G01*
G75*
%ADD10R,0.6000X0.4000*%
%ADD16R,0.2000X0.2000*%
%ADD17R,0.2000X0.2000*%
%ADD18R,0.4000X0.6000*%
%ADD29C,0.6000*%
%ADD32C,0.1500*%
%ADD33C,0.2000*%
%ADD34C,0.3000*%
%ADD35C,0.4000*%
%ADD36C,0.5000*%
%ADD40C,0.4500*%
%ADD41C,0.5000*%
%ADD42R,1.2000X0.8000*%
%ADD43R,0.8000X1.2000*%
%ADD44R,3.0000X2.0000*%
%ADD45O,0.2500X0.9000*%
%ADD46O,0.9000X0.2500*%
%ADD47R,1.4000X1.4000*%
%ADD48O,0.6000X0.9500*%
%ADD49R,4.2000X3.4000*%
%ADD50R,0.4000X0.5000*%
%ADD51R,1.1000X1.0000*%
%ADD52R,1.0000X1.8000*%
%ADD53R,1.0000X0.8000*%
%ADD54R,1.5000X1.0000*%
%ADD55R,0.3000X0.3250*%
%ADD56R,0.3250X0.3000*%
%ADD57R,0.5000X0.3000*%
%ADD58R,1.2500X2.1500*%
%ADD59R,1.8000X1.0000*%
%ADD60R,0.5000X0.2500*%
%ADD61R,0.2000X0.2500*%
G36*
X178800Y96181D02*
X174800D01*
Y100181D01*
X176800Y98181D01*
X178800Y100181D01*
Y96181D01*
D02*
G37*
G36*
X250000Y221549D02*
X247838Y221119D01*
X246006Y219894D01*
X245994D01*
X244162Y221119D01*
X243270Y221296D01*
Y215900D01*
X240730D01*
Y221296D01*
X239838Y221119D01*
X238006Y219894D01*
X237410Y219002D01*
X236140Y219388D01*
Y223240D01*
X219870D01*
Y210700D01*
Y198160D01*
X235974D01*
X236140Y198160D01*
X237410Y198362D01*
X238000Y198118D01*
X250000D01*
Y185000D01*
X201401Y185000D01*
X202354Y38067D01*
X201086Y37690D01*
X198970D01*
Y33900D01*
X196430D01*
Y37690D01*
X194160D01*
Y36150D01*
X191700D01*
Y36150D01*
X190603Y36568D01*
X190183Y36848D01*
X189500Y36984D01*
X188600D01*
Y38200D01*
X188583D01*
X188097Y39373D01*
X188962Y40238D01*
X189349Y40817D01*
X189484Y41500D01*
Y43100D01*
X191700D01*
X191700Y49100D01*
X192779Y49560D01*
X193240D01*
Y52830D01*
X187700D01*
X182160D01*
Y49560D01*
X182621D01*
X183700Y49100D01*
X183700Y48290D01*
Y43100D01*
X184981D01*
X185507Y41830D01*
X183338Y39662D01*
X182952Y39083D01*
X182816Y38400D01*
Y38200D01*
X180600D01*
Y32200D01*
X188600D01*
X188600Y32200D01*
X189870Y32417D01*
X190117Y32252D01*
X190800Y32116D01*
X191700D01*
Y31650D01*
X193262D01*
X193642Y31270D01*
X193413Y29792D01*
X193081Y29650D01*
X192200D01*
Y27084D01*
X189870Y24754D01*
X188600Y25280D01*
Y30200D01*
X184310D01*
X184068Y30361D01*
X182800Y30614D01*
X181532Y30361D01*
X181290Y30200D01*
X180600D01*
Y29739D01*
X180457Y29643D01*
X179739Y28568D01*
X179486Y27300D01*
X179739Y26032D01*
X180457Y24957D01*
X180600Y24861D01*
Y24200D01*
X181726D01*
X182800Y23986D01*
X183874Y24200D01*
X186432D01*
X187565Y22930D01*
X187535Y22665D01*
X187218Y21900D01*
Y19900D01*
X187535Y19134D01*
X187616Y19053D01*
X187535Y18646D01*
X187218Y17880D01*
Y13880D01*
X186500Y13082D01*
X185735Y12765D01*
X185418Y12000D01*
Y0D01*
X182882D01*
X182882Y0D01*
Y12000D01*
X182565Y12766D01*
X181800Y13082D01*
X179704D01*
X179684Y13180D01*
X179242Y13842D01*
X179242Y13842D01*
X178082Y15001D01*
Y18200D01*
X177765Y18965D01*
X177684Y19373D01*
X177765Y19454D01*
X178082Y20219D01*
Y22219D01*
X177765Y22985D01*
X177039Y23286D01*
Y23900D01*
X177039Y23900D01*
X176884Y24680D01*
X177200Y25950D01*
X177200Y25950D01*
X177200Y30450D01*
X178279Y30910D01*
X179240D01*
Y33430D01*
X175700D01*
Y34700D01*
X174430D01*
Y38490D01*
X173739D01*
Y42355D01*
X174484Y43100D01*
X178600D01*
X178600Y49100D01*
X179680Y49560D01*
X180140D01*
Y52830D01*
X174600D01*
X169060D01*
Y49560D01*
X169520D01*
X170600Y49100D01*
X170600Y48290D01*
Y45604D01*
X170139Y45226D01*
X168869Y45828D01*
Y46300D01*
X168714Y47080D01*
X168272Y47742D01*
X167610Y48184D01*
X166830Y48339D01*
X166685D01*
X166642Y48547D01*
X167240Y49760D01*
X167240D01*
Y53030D01*
X161700D01*
Y55570D01*
X167240D01*
Y58840D01*
X165377D01*
X164637Y60110D01*
X164672Y60288D01*
X167084Y62700D01*
X171200D01*
X171200Y68700D01*
X172279Y69160D01*
X172740D01*
Y72430D01*
X167200D01*
Y74970D01*
X172740D01*
Y76315D01*
X174010Y76573D01*
X174716Y75516D01*
X176039Y74632D01*
X177600Y74322D01*
X179161Y74632D01*
X180484Y75516D01*
X181368Y76839D01*
X181678Y78400D01*
X181368Y79961D01*
X180484Y81284D01*
X179161Y82168D01*
X177600Y82478D01*
X176039Y82168D01*
X175879Y82060D01*
X171939Y84772D01*
Y94888D01*
X172043Y94957D01*
X172544Y95707D01*
X173713Y95736D01*
X173930Y95668D01*
X174035Y95415D01*
X174102Y94012D01*
X173739Y93468D01*
X173486Y92200D01*
X173739Y90932D01*
X174457Y89857D01*
X175532Y89139D01*
X176800Y88886D01*
X177826Y89090D01*
X178504Y88418D01*
X178714Y88071D01*
X178422Y86600D01*
X178732Y85039D01*
X179616Y83716D01*
X180939Y82832D01*
X182500Y82522D01*
X184061Y82832D01*
X185384Y83716D01*
X186268Y85039D01*
X186578Y86600D01*
X186368Y87656D01*
X187188Y88670D01*
X187346Y88757D01*
X187700Y88686D01*
X188968Y88939D01*
X190043Y89657D01*
X190761Y90732D01*
X191014Y92000D01*
X190761Y93268D01*
X190293Y93969D01*
X190465Y95415D01*
X190782Y96181D01*
Y100181D01*
X190465Y100946D01*
X190465Y101435D01*
X190782Y102200D01*
Y104200D01*
X190465Y104965D01*
X189739Y105266D01*
Y105400D01*
X189739Y105400D01*
X189584Y106180D01*
X189142Y106842D01*
X187239Y108745D01*
Y111552D01*
X187319Y111672D01*
X187494Y112550D01*
Y119050D01*
X187319Y119928D01*
X186822Y120672D01*
X186078Y121169D01*
X185570Y121271D01*
X185272Y121892D01*
X185950Y122506D01*
X192450D01*
X192676Y122551D01*
X192839Y121732D01*
X193557Y120657D01*
X194632Y119939D01*
X195900Y119686D01*
X197168Y119939D01*
X198243Y120657D01*
X198961Y121732D01*
X199214Y123000D01*
X198961Y124268D01*
X198243Y125343D01*
X197168Y126061D01*
X195900Y126314D01*
X195550Y126636D01*
X195490Y126712D01*
X195455Y126846D01*
X195705Y128266D01*
X195842Y128358D01*
X196042Y128558D01*
X196400Y128486D01*
X197668Y128739D01*
X198743Y129457D01*
X199461Y130532D01*
X199714Y131800D01*
X199461Y133068D01*
X198743Y134143D01*
X197668Y134861D01*
X196400Y135114D01*
X195132Y134861D01*
X194057Y134143D01*
X193339Y133068D01*
X193118Y131961D01*
X192450Y132094D01*
X185950D01*
X185272Y132708D01*
X185570Y133329D01*
X186078Y133431D01*
X186822Y133928D01*
X187319Y134672D01*
X187494Y135550D01*
Y142050D01*
X187480Y142121D01*
X188060Y143210D01*
X188431Y143352D01*
X189368Y143539D01*
X190443Y144257D01*
X191161Y145332D01*
X191414Y146600D01*
X191161Y147868D01*
X190443Y148943D01*
X189368Y149661D01*
X188100Y149914D01*
X186832Y149661D01*
X186466Y149417D01*
X185055Y150001D01*
X185011Y150218D01*
X184293Y151293D01*
X183218Y152011D01*
X181950Y152264D01*
X180682Y152011D01*
X179607Y151293D01*
X178889Y150218D01*
X178636Y148950D01*
X178711Y148572D01*
X178316Y147980D01*
X178161Y147200D01*
Y143955D01*
X176891Y143569D01*
X176822Y143672D01*
X176078Y144169D01*
X175200Y144344D01*
X174322Y144169D01*
X173578Y143672D01*
X173416Y143430D01*
X171984D01*
X171822Y143672D01*
X171078Y144169D01*
X170200Y144344D01*
X169322Y144169D01*
X168578Y143672D01*
X168416Y143430D01*
X166984D01*
X166822Y143672D01*
X166078Y144169D01*
X165200Y144344D01*
X164322Y144169D01*
X163578Y143672D01*
X163081Y142928D01*
X162906Y142050D01*
Y135550D01*
X163081Y134672D01*
X163578Y133928D01*
X164322Y133431D01*
X164830Y133329D01*
X165128Y132708D01*
X164450Y132094D01*
X157950D01*
X157072Y131919D01*
X156952Y131839D01*
X154146D01*
X153943Y132143D01*
X152868Y132861D01*
X151600Y133114D01*
X150332Y132861D01*
X149257Y132143D01*
X148539Y131068D01*
X148286Y129800D01*
X148539Y128532D01*
X149257Y127457D01*
X150332Y126739D01*
X151600Y126486D01*
X152868Y126739D01*
X153395Y127091D01*
X154216Y126414D01*
X154367Y126213D01*
X154338Y126070D01*
X161200D01*
Y124800D01*
X162470D01*
Y120648D01*
X162547Y120558D01*
X163028Y119666D01*
X162906Y119050D01*
Y112550D01*
X163081Y111672D01*
X163578Y110928D01*
X164322Y110431D01*
X165200Y110256D01*
X166078Y110431D01*
X166822Y110928D01*
X166984Y111170D01*
X168416D01*
X168578Y110928D01*
X169322Y110431D01*
X170200Y110256D01*
X171078Y110431D01*
X171822Y110928D01*
X171984Y111170D01*
X173416D01*
X173578Y110928D01*
X174322Y110431D01*
X175200Y110256D01*
X176078Y110431D01*
X176156Y110483D01*
X177575Y109943D01*
X177680Y109464D01*
X176755Y108539D01*
X173600D01*
X172820Y108384D01*
X172158Y107942D01*
X168258Y104042D01*
X167816Y103380D01*
X167661Y102600D01*
Y99846D01*
X167357Y99643D01*
X166639Y98568D01*
X166386Y97300D01*
X166639Y96032D01*
X167357Y94957D01*
X167861Y94620D01*
Y92440D01*
X167170D01*
Y86900D01*
X164630D01*
Y92440D01*
X164268D01*
X163463Y93422D01*
X163478Y93500D01*
X163168Y95061D01*
X162284Y96384D01*
X160961Y97268D01*
X160900Y97280D01*
Y104800D01*
X154900D01*
Y97701D01*
X153758Y96955D01*
X152900Y97340D01*
Y104800D01*
X146900D01*
Y96800D01*
X147861D01*
Y96000D01*
X148016Y95220D01*
X148458Y94558D01*
X149158Y93858D01*
X149086Y93500D01*
X148900Y92313D01*
X147632Y92061D01*
X146557Y91343D01*
X145838Y90268D01*
X145586Y89000D01*
X145838Y87732D01*
X146557Y86657D01*
X147632Y85938D01*
X148900Y85686D01*
X150168Y85938D01*
X151243Y86657D01*
X151961Y87732D01*
X152213Y89000D01*
X152400Y90186D01*
X153630Y90431D01*
X153671Y90437D01*
X154900Y89734D01*
Y83298D01*
X154773Y83186D01*
X153724Y82673D01*
X152918Y83211D01*
X151650Y83464D01*
X150382Y83211D01*
X149307Y82493D01*
X148589Y81418D01*
X148336Y80150D01*
X148444Y79610D01*
X148060Y78340D01*
X148060D01*
Y75070D01*
X153600D01*
Y72530D01*
X148060D01*
Y69260D01*
X148060D01*
X148658Y68047D01*
X148615Y67839D01*
X147900D01*
X147900Y67839D01*
X147120Y67684D01*
X146458Y67242D01*
X146458Y67242D01*
X144758Y65542D01*
X144316Y64880D01*
X144161Y64100D01*
Y59546D01*
X143857Y59343D01*
X143139Y58268D01*
X142886Y57000D01*
X142984Y56510D01*
X142570Y55943D01*
Y49700D01*
Y44160D01*
X145840D01*
Y44620D01*
X146300Y45700D01*
X147110Y45700D01*
X152300D01*
Y46620D01*
X153570Y47146D01*
X155858Y44858D01*
X156520Y44416D01*
X157015Y44318D01*
X157700Y43300D01*
X157781Y42030D01*
X157139Y41068D01*
X156886Y39800D01*
X157139Y38532D01*
X157394Y38150D01*
X157296Y38031D01*
X156370Y37200D01*
X150370Y37200D01*
X149910Y38280D01*
Y38740D01*
X146640D01*
Y33200D01*
Y27660D01*
X149910D01*
Y27660D01*
X151123Y28258D01*
X151331Y28215D01*
Y24785D01*
X151123Y24743D01*
X149910Y25340D01*
Y25340D01*
X146640D01*
Y19800D01*
X144100D01*
Y25340D01*
X141039D01*
X140830Y25340D01*
X139560Y25268D01*
X139443Y25443D01*
X138368Y26161D01*
X137100Y26414D01*
X135832Y26161D01*
X135212Y25747D01*
X133943Y25643D01*
X132868Y26361D01*
X131600Y26614D01*
X130332Y26361D01*
X129257Y25643D01*
X128538Y24568D01*
X128286Y23300D01*
X128332Y23070D01*
X127290Y21800D01*
X124900D01*
Y18782D01*
X124883Y18765D01*
X123630Y18219D01*
X122968Y18661D01*
X121961Y19432D01*
X122081Y20034D01*
X122214Y20700D01*
X121961Y21968D01*
X121243Y23043D01*
X120168Y23761D01*
X118900Y24014D01*
X117632Y23761D01*
X116557Y23043D01*
X115839Y21968D01*
X115586Y20700D01*
X115839Y19432D01*
X116557Y18357D01*
X117632Y17639D01*
X118639Y16868D01*
X118519Y16266D01*
X118386Y15600D01*
X118639Y14332D01*
X118689Y14256D01*
X118587Y13948D01*
X117946Y13082D01*
X110300D01*
X109535Y12765D01*
X109218Y12000D01*
Y0D01*
X106682D01*
Y12000D01*
X106365Y12765D01*
X105600Y13082D01*
X97600D01*
X96835Y12765D01*
X96518Y12000D01*
Y0D01*
X93982D01*
Y12000D01*
X93665Y12765D01*
X92900Y13082D01*
X84900D01*
X84135Y12765D01*
X83818Y12000D01*
Y0D01*
X81282D01*
Y12000D01*
X80965Y12765D01*
X80200Y13082D01*
X72200D01*
X71435Y12765D01*
X71118Y12000D01*
Y0D01*
X68582D01*
Y12000D01*
X68265Y12765D01*
X67500Y13082D01*
X59500D01*
X58734Y12765D01*
X58418Y12000D01*
Y0D01*
X55882D01*
Y12000D01*
X55565Y12765D01*
X54800Y13082D01*
X46800D01*
X46035Y12765D01*
X45718Y12000D01*
Y0D01*
X43182D01*
Y12000D01*
X42865Y12765D01*
X42100Y13082D01*
X37021D01*
X36320Y14143D01*
X36285Y14352D01*
X36514Y15500D01*
X36411Y16017D01*
X36200Y17200D01*
X36200Y17200D01*
X36200Y17200D01*
Y25200D01*
X30200D01*
Y17200D01*
X30200Y17200D01*
X29989Y16017D01*
X29886Y15500D01*
X30139Y14232D01*
X30213Y14120D01*
X29400Y13082D01*
X27439D01*
Y17200D01*
X28200D01*
Y25200D01*
X22200D01*
Y17200D01*
X23361D01*
Y13082D01*
X21400D01*
X20635Y12765D01*
X20317Y12000D01*
Y0D01*
X0D01*
Y20318D01*
X12000D01*
X12765Y20635D01*
X13082Y21400D01*
Y29400D01*
X12765Y30165D01*
X12000Y30482D01*
X0D01*
Y33018D01*
X12000D01*
X12765Y33335D01*
X13082Y34100D01*
Y36061D01*
X15100D01*
Y33400D01*
X16517D01*
X17191Y32130D01*
X16986Y31100D01*
X17239Y29832D01*
X17957Y28757D01*
X19032Y28038D01*
X20300Y27786D01*
X21568Y28038D01*
X22643Y28757D01*
X23037Y29346D01*
X23059Y29364D01*
X24392Y29584D01*
X24577Y29539D01*
X24658Y29458D01*
X24658Y29458D01*
X25320Y29016D01*
X26100Y28861D01*
X26880Y29016D01*
X27542Y29458D01*
X27984Y30120D01*
X28139Y30900D01*
X28139Y30900D01*
Y33400D01*
X29100D01*
Y41400D01*
X26112D01*
X25169Y42364D01*
X25361Y43132D01*
X25614Y44400D01*
X25361Y45668D01*
X24986Y46230D01*
X25622Y47500D01*
X29100D01*
Y55500D01*
X28139D01*
Y56300D01*
X27984Y57080D01*
X27542Y57742D01*
X26042Y59241D01*
X26114Y59600D01*
X25861Y60868D01*
X25143Y61943D01*
X24068Y62661D01*
X22800Y62914D01*
X21532Y62661D01*
X20457Y61943D01*
X19739Y60868D01*
X19486Y59600D01*
X19739Y58332D01*
X20457Y57257D01*
X21325Y56677D01*
X20800Y55500D01*
X15100D01*
Y52839D01*
X13082D01*
Y54800D01*
X12765Y55565D01*
X12000Y55882D01*
X0D01*
Y71118D01*
X12000D01*
X12765Y71434D01*
X13082Y72200D01*
Y80200D01*
X12765Y80965D01*
X12000Y81282D01*
X0D01*
Y83251D01*
X2162Y83681D01*
X3994Y84906D01*
X4006D01*
X5838Y83681D01*
X6730Y83504D01*
Y88900D01*
Y94296D01*
X5838Y94119D01*
X4006Y92894D01*
X3994D01*
X2162Y94119D01*
X0Y94549D01*
Y199660D01*
X6030D01*
Y211200D01*
Y222740D01*
X0D01*
Y271660D01*
X6030D01*
Y283200D01*
Y294740D01*
X0D01*
Y300000D01*
X250000D01*
Y221549D01*
D02*
G37*
G36*
X169700Y32450D02*
X171262D01*
X171642Y32070D01*
X171413Y30591D01*
X171080Y30450D01*
X170200D01*
Y25950D01*
X171961D01*
Y24900D01*
X172116Y24120D01*
X172235Y22985D01*
X171918Y22219D01*
Y20219D01*
X172235Y19454D01*
X172316Y19373D01*
X172235Y18965D01*
X171918Y18200D01*
Y14200D01*
X172235Y13435D01*
X172932Y12851D01*
X172718Y12000D01*
Y1270D01*
X171452Y5D01*
X170182Y12D01*
Y12000D01*
X169865Y12765D01*
X169100Y13082D01*
X161100D01*
X160335Y12765D01*
X160018Y12000D01*
Y0D01*
X157482D01*
Y12000D01*
X157165Y12765D01*
X156400Y13082D01*
X150133D01*
X149910Y14260D01*
X149910Y14352D01*
Y14721D01*
X150370Y15800D01*
X151180Y15800D01*
X156370D01*
Y18961D01*
X158339D01*
Y18000D01*
X166339D01*
Y24000D01*
X158339D01*
Y23039D01*
X156370D01*
Y23800D01*
X155409D01*
Y29200D01*
X156370D01*
Y30131D01*
X157158Y30551D01*
X158339Y29811D01*
Y26000D01*
X166339D01*
Y32000D01*
X167335Y32661D01*
X169700D01*
Y32450D01*
D02*
G37*
G36*
X189700Y102200D02*
X187700Y100200D01*
X185700Y102200D01*
Y104200D01*
X189700D01*
Y102200D01*
D02*
G37*
G36*
X178800D02*
X176800Y100200D01*
X174800Y102200D01*
Y104200D01*
X178800D01*
Y102200D01*
D02*
G37*
G36*
X189700Y96181D02*
X185700D01*
Y100181D01*
X187700Y98181D01*
X189700Y100181D01*
Y96181D01*
D02*
G37*
G36*
X192300Y19900D02*
X190300Y17900D01*
X188300Y19900D01*
Y21900D01*
X192300D01*
Y19900D01*
D02*
G37*
G36*
X177000Y20219D02*
X175000Y18219D01*
X173000Y20219D01*
Y22219D01*
X177000D01*
Y20219D01*
D02*
G37*
G36*
Y14200D02*
X173000D01*
Y18200D01*
X175000Y16200D01*
X177000Y18200D01*
Y14200D01*
D02*
G37*
G36*
X192300Y13880D02*
X188300D01*
Y17880D01*
X190300Y15880D01*
X192300Y17880D01*
Y13880D01*
D02*
G37*
%LPC*%
G36*
X13396Y87630D02*
X9270D01*
Y83504D01*
X10162Y83681D01*
X11994Y84906D01*
X13219Y86738D01*
X13396Y87630D01*
D02*
G37*
G36*
X40640Y88730D02*
X35100D01*
X29560D01*
Y86638D01*
X29560Y85826D01*
X28500Y85049D01*
X28381Y85086D01*
X28066Y85297D01*
X26700Y85569D01*
X25334Y85297D01*
X24177Y84523D01*
X23403Y83366D01*
X23131Y82000D01*
Y77200D01*
X23403Y75834D01*
X24177Y74677D01*
X25334Y73903D01*
X26700Y73631D01*
X28066Y73903D01*
X29223Y74677D01*
X29997Y75834D01*
X30269Y77200D01*
Y77494D01*
X31408Y78390D01*
X31722Y78270D01*
X32039Y77068D01*
X31786Y75800D01*
X32039Y74532D01*
X32041Y74528D01*
Y72272D01*
X32039Y72268D01*
X31786Y71000D01*
X32039Y69732D01*
X32201Y69489D01*
X31840Y68783D01*
X31475Y68289D01*
X30332Y68061D01*
X29257Y67343D01*
X28539Y66268D01*
X28286Y65000D01*
X28539Y63732D01*
X29257Y62657D01*
X30332Y61939D01*
X31600Y61686D01*
X32868Y61939D01*
X33943Y62657D01*
X34661Y63732D01*
X34914Y65000D01*
X34661Y66268D01*
X34499Y66511D01*
X34860Y67217D01*
X35225Y67711D01*
X36368Y67939D01*
X37443Y68657D01*
X38161Y69732D01*
X38414Y71000D01*
X38161Y72268D01*
X38159Y72272D01*
Y74528D01*
X38161Y74532D01*
X38414Y75800D01*
X38161Y77068D01*
X38159Y77072D01*
Y78941D01*
X43820D01*
X44850Y78736D01*
X45880Y78941D01*
X48620D01*
X49650Y78736D01*
X50918Y78989D01*
X51993Y79707D01*
X52711Y80782D01*
X52964Y82050D01*
X52711Y83318D01*
X51993Y84393D01*
X50918Y85111D01*
X49650Y85364D01*
X48382Y85111D01*
X48303Y85059D01*
X46197D01*
X46118Y85111D01*
X44850Y85364D01*
X43582Y85111D01*
X43503Y85059D01*
X41744D01*
X40640Y85460D01*
X40640Y86329D01*
Y88730D01*
D02*
G37*
G36*
X134900Y100314D02*
X133632Y100061D01*
X132557Y99343D01*
X131839Y98268D01*
X131586Y97000D01*
X131839Y95732D01*
X132557Y94657D01*
X133632Y93939D01*
X134900Y93686D01*
X135864Y93878D01*
X136114Y93736D01*
X136602Y93276D01*
X136861Y92880D01*
X136686Y92000D01*
X136939Y90732D01*
X137657Y89657D01*
X138732Y88939D01*
X140000Y88686D01*
X141268Y88939D01*
X142343Y89657D01*
X143061Y90732D01*
X143314Y92000D01*
X143061Y93268D01*
X142343Y94343D01*
X141268Y95061D01*
X140000Y95314D01*
X139036Y95122D01*
X138786Y95264D01*
X138298Y95724D01*
X138039Y96120D01*
X138214Y97000D01*
X137961Y98268D01*
X137243Y99343D01*
X136168Y100061D01*
X134900Y100314D01*
D02*
G37*
G36*
X126700Y101914D02*
X125432Y101661D01*
X124357Y100943D01*
X123639Y99868D01*
X123386Y98600D01*
X123639Y97332D01*
X124357Y96257D01*
X124790Y95967D01*
X124522Y94619D01*
X124232Y94561D01*
X124202Y94541D01*
X123040Y94140D01*
X123040Y94140D01*
X123040Y94140D01*
X118770D01*
Y89600D01*
X117500D01*
Y88330D01*
X111960D01*
Y85060D01*
X112421D01*
X113500Y84600D01*
X113500Y83790D01*
Y78600D01*
X115461D01*
Y75527D01*
X115132Y75461D01*
X114057Y74743D01*
X113339Y73668D01*
X113086Y72400D01*
X113339Y71132D01*
X114057Y70057D01*
X115132Y69339D01*
X116400Y69086D01*
X117668Y69339D01*
X118743Y70057D01*
X119461Y71132D01*
X119714Y72400D01*
X119467Y73639D01*
X119539Y74000D01*
Y78600D01*
X121500D01*
X121500Y84600D01*
X122579Y85060D01*
X123040D01*
Y87707D01*
X124205Y88422D01*
X124310Y88423D01*
X125500Y88186D01*
X126768Y88438D01*
X127843Y89157D01*
X128561Y90232D01*
X128813Y91500D01*
X128561Y92768D01*
X127843Y93843D01*
X127409Y94133D01*
X127677Y95481D01*
X127968Y95539D01*
X129043Y96257D01*
X129761Y97332D01*
X130014Y98600D01*
X129761Y99868D01*
X129043Y100943D01*
X127968Y101661D01*
X126700Y101914D01*
D02*
G37*
G36*
X62240Y72540D02*
X58970D01*
Y68270D01*
X62240D01*
Y72540D01*
D02*
G37*
G36*
X107940Y62130D02*
X103670D01*
Y58860D01*
X107940D01*
Y62130D01*
D02*
G37*
G36*
X101130D02*
X96860D01*
Y58860D01*
X101130D01*
Y62130D01*
D02*
G37*
G36*
X107940Y93830D02*
X102400D01*
X96860D01*
Y90560D01*
X97320D01*
X98400Y90100D01*
X98400Y89290D01*
Y84100D01*
X99851D01*
Y81985D01*
X99339Y81218D01*
X99086Y79950D01*
X99339Y78682D01*
X99851Y77915D01*
Y74400D01*
X98400D01*
X98400Y68400D01*
X97320Y67940D01*
X96860D01*
Y64670D01*
X102400D01*
X107940D01*
Y67940D01*
X107479D01*
X106400Y68400D01*
X106400Y69210D01*
Y74400D01*
X104949D01*
Y77915D01*
X105461Y78682D01*
X105714Y79950D01*
X105461Y81218D01*
X104949Y81985D01*
Y84100D01*
X106400D01*
X106400Y90100D01*
X107479Y90560D01*
X107940D01*
Y93830D01*
D02*
G37*
G36*
X62240Y65730D02*
X58970D01*
Y61460D01*
X62240D01*
Y65730D01*
D02*
G37*
G36*
X107940Y99640D02*
X103670D01*
Y96370D01*
X107940D01*
Y99640D01*
D02*
G37*
G36*
X96500Y104813D02*
X95232Y104561D01*
X94157Y103843D01*
X93438Y102768D01*
X93186Y101500D01*
X93438Y100232D01*
X94157Y99157D01*
X95232Y98438D01*
X96500Y98186D01*
X96860Y97891D01*
Y96370D01*
X101130D01*
Y99640D01*
X100577D01*
X99696Y100910D01*
X99813Y101500D01*
X99561Y102768D01*
X98843Y103843D01*
X97768Y104561D01*
X96500Y104813D01*
D02*
G37*
G36*
X159930Y123530D02*
X154338D01*
X154380Y123321D01*
X155218Y122068D01*
X156471Y121230D01*
X157950Y120936D01*
X159930D01*
Y123530D01*
D02*
G37*
G36*
X48630Y103740D02*
X45360D01*
Y99470D01*
X48630D01*
Y103740D01*
D02*
G37*
G36*
Y96930D02*
X45360D01*
Y92660D01*
X48630D01*
Y96930D01*
D02*
G37*
G36*
X116230Y94140D02*
X111960D01*
Y90870D01*
X116230D01*
Y94140D01*
D02*
G37*
G36*
X9270Y94296D02*
Y90170D01*
X13396D01*
X13219Y91062D01*
X11994Y92894D01*
X10162Y94119D01*
X9270Y94296D01*
D02*
G37*
G36*
X40640Y94540D02*
X36370D01*
Y91270D01*
X40640D01*
Y94540D01*
D02*
G37*
G36*
X33830D02*
X29560D01*
Y91270D01*
X33830D01*
Y94540D01*
D02*
G37*
G36*
X91700Y64514D02*
X90432Y64261D01*
X89357Y63543D01*
X88639Y62468D01*
X88386Y61200D01*
X88639Y59932D01*
X89047Y59320D01*
X88284Y58177D01*
X88100Y58214D01*
X86832Y57961D01*
X85757Y57243D01*
X85039Y56168D01*
X84786Y54900D01*
X85039Y53632D01*
X85757Y52557D01*
X86832Y51839D01*
X88100Y51586D01*
X89368Y51839D01*
X90357Y51160D01*
X90479Y50794D01*
X89507Y49692D01*
X89400Y49714D01*
X88132Y49461D01*
X87057Y48743D01*
X86339Y47668D01*
X86086Y46400D01*
X86339Y45132D01*
X87057Y44057D01*
X88132Y43339D01*
X89400Y43086D01*
X90425Y41995D01*
X90386Y41800D01*
X90639Y40532D01*
X91357Y39457D01*
X92432Y38739D01*
X93700Y38486D01*
X94968Y38739D01*
X96043Y39457D01*
X96761Y40532D01*
X97014Y41800D01*
X96761Y43068D01*
X96043Y44143D01*
X94968Y44861D01*
X93700Y45114D01*
X92675Y46205D01*
X92714Y46400D01*
X92461Y47668D01*
X91891Y48522D01*
X92592Y49587D01*
X93600Y49386D01*
X94868Y49639D01*
X95943Y50357D01*
X96661Y51432D01*
X96914Y52700D01*
X96661Y53968D01*
X95943Y55043D01*
X94868Y55761D01*
X93600Y56014D01*
X92332Y55761D01*
X91539Y56685D01*
X91552Y56781D01*
X92399Y58025D01*
X92968Y58139D01*
X94043Y58857D01*
X94761Y59932D01*
X95014Y61200D01*
X94761Y62468D01*
X94043Y63543D01*
X92968Y64261D01*
X91700Y64514D01*
D02*
G37*
G36*
X92330Y35040D02*
X89060D01*
Y30770D01*
X92330D01*
Y35040D01*
D02*
G37*
G36*
X39400Y38814D02*
X38132Y38561D01*
X37057Y37843D01*
X36339Y36768D01*
X36086Y35500D01*
X36339Y34232D01*
X37057Y33157D01*
X38132Y32439D01*
X39400Y32186D01*
X40668Y32439D01*
X40858Y32258D01*
X41520Y31816D01*
X42300Y31661D01*
X43400Y31176D01*
Y29700D01*
X49400D01*
Y37700D01*
X43400D01*
Y37649D01*
X42130Y37264D01*
X41743Y37843D01*
X40668Y38561D01*
X39400Y38814D01*
D02*
G37*
G36*
X113414Y36440D02*
X110144D01*
Y32170D01*
X113414D01*
Y36440D01*
D02*
G37*
G36*
X129400Y40514D02*
X128132Y40261D01*
X127057Y39543D01*
X126339Y38468D01*
X126086Y37200D01*
X126260Y36325D01*
X126314Y36055D01*
X126284Y35790D01*
X125501Y34900D01*
X124528Y34900D01*
X119684Y34900D01*
X119224Y35979D01*
Y36440D01*
X115954D01*
Y30900D01*
Y25360D01*
X119224D01*
Y25821D01*
X119684Y26900D01*
X120494Y26900D01*
X125684D01*
Y28861D01*
X128500D01*
X129280Y29016D01*
X129942Y29458D01*
X130842Y30358D01*
X130842Y30358D01*
X131284Y31020D01*
X131439Y31800D01*
Y34654D01*
X131743Y34857D01*
X132461Y35932D01*
X132714Y37200D01*
X132461Y38468D01*
X131743Y39543D01*
X130668Y40261D01*
X129400Y40514D01*
D02*
G37*
G36*
X137400Y40614D02*
X136132Y40361D01*
X135057Y39643D01*
X134339Y38568D01*
X134086Y37300D01*
X134339Y36032D01*
X135057Y34957D01*
X136132Y34239D01*
X137400Y33986D01*
X138668Y34239D01*
X139560Y34835D01*
X140288Y34627D01*
X140546Y34470D01*
X144100D01*
Y38740D01*
X141722D01*
X140830Y38740D01*
X139861Y39467D01*
X139743Y39643D01*
X138668Y40361D01*
X137400Y40614D01*
D02*
G37*
G36*
X57400Y37700D02*
X51400D01*
Y29700D01*
X57400D01*
Y30401D01*
X58670Y30786D01*
X58957Y30357D01*
X60032Y29639D01*
X61300Y29386D01*
X62568Y29639D01*
X63643Y30357D01*
X64361Y31432D01*
X64614Y32700D01*
X64361Y33968D01*
X63643Y35043D01*
X62568Y35761D01*
X61300Y36014D01*
X60032Y35761D01*
X59999Y35739D01*
X57400D01*
Y37700D01*
D02*
G37*
G36*
X68100Y31014D02*
X66832Y30761D01*
X65757Y30043D01*
X65039Y28968D01*
X64786Y27700D01*
X65039Y26432D01*
X65757Y25357D01*
X66832Y24639D01*
X68100Y24386D01*
X69368Y24639D01*
X70443Y25357D01*
X71161Y26432D01*
X71414Y27700D01*
X71161Y28968D01*
X70443Y30043D01*
X69368Y30761D01*
X68100Y31014D01*
D02*
G37*
G36*
X92330Y28230D02*
X89060D01*
Y23960D01*
X92330D01*
Y28230D01*
D02*
G37*
G36*
X113414Y29630D02*
X110144D01*
Y25360D01*
X113414D01*
Y29630D01*
D02*
G37*
G36*
X144100Y31930D02*
X140830D01*
Y27660D01*
X144100D01*
Y31930D01*
D02*
G37*
G36*
X79000Y29714D02*
X77732Y29461D01*
X76657Y28743D01*
X75939Y27668D01*
X75686Y26400D01*
X75939Y25132D01*
X76657Y24057D01*
X77732Y23339D01*
X79000Y23086D01*
X80268Y23339D01*
X81343Y24057D01*
X82061Y25132D01*
X82314Y26400D01*
X82061Y27668D01*
X81343Y28743D01*
X80268Y29461D01*
X79000Y29714D01*
D02*
G37*
G36*
X186430Y58640D02*
X182160D01*
Y55370D01*
X186430D01*
Y58640D01*
D02*
G37*
G36*
X173330D02*
X169060D01*
Y55370D01*
X173330D01*
Y58640D01*
D02*
G37*
G36*
X98140Y35040D02*
X94870D01*
Y29500D01*
Y23960D01*
X97262D01*
X98140Y23960D01*
X98719Y22930D01*
X98739Y22832D01*
X99457Y21757D01*
X100532Y21039D01*
X101800Y20786D01*
X103068Y21039D01*
X104143Y21757D01*
X104861Y22832D01*
X105114Y24100D01*
X104861Y25368D01*
X104600Y25759D01*
Y33500D01*
X98600Y33500D01*
X98140Y34580D01*
Y35040D01*
D02*
G37*
G36*
X193240Y58640D02*
X188970D01*
Y55370D01*
X193240D01*
Y58640D01*
D02*
G37*
G36*
X180140D02*
X175870D01*
Y55370D01*
X180140D01*
Y58640D01*
D02*
G37*
G36*
X140030Y55240D02*
X136760D01*
Y50970D01*
X140030D01*
Y55240D01*
D02*
G37*
G36*
X67100Y43914D02*
X65832Y43661D01*
X64757Y42943D01*
X64039Y41868D01*
X63786Y40600D01*
X64039Y39332D01*
X64757Y38257D01*
X65832Y37539D01*
X67100Y37286D01*
X68368Y37539D01*
X69443Y38257D01*
X70161Y39332D01*
X70414Y40600D01*
X70161Y41868D01*
X69443Y42943D01*
X68368Y43661D01*
X67100Y43914D01*
D02*
G37*
G36*
X179240Y38490D02*
X176970D01*
Y35970D01*
X179240D01*
Y38490D01*
D02*
G37*
G36*
X109700Y48314D02*
X108432Y48061D01*
X107357Y47343D01*
X106639Y46268D01*
X106386Y45000D01*
X106639Y43732D01*
X107357Y42657D01*
X108432Y41939D01*
X109700Y41686D01*
X110968Y41939D01*
X112043Y42657D01*
X112761Y43732D01*
X113014Y45000D01*
X112761Y46268D01*
X112043Y47343D01*
X110968Y48061D01*
X109700Y48314D01*
D02*
G37*
G36*
X56430Y72540D02*
X53160D01*
Y72080D01*
X52700Y71000D01*
X51890Y71000D01*
X46700D01*
Y63000D01*
X47661D01*
Y60879D01*
X47457Y60743D01*
X46739Y59668D01*
X46486Y58400D01*
X46739Y57132D01*
X46980Y56770D01*
X46302Y55500D01*
X43500D01*
Y53539D01*
X41700D01*
X40920Y53384D01*
X40258Y52942D01*
X36408Y49092D01*
X35966Y48430D01*
X35811Y47650D01*
Y46657D01*
X35507Y46454D01*
X34789Y45379D01*
X34536Y44111D01*
X34789Y42843D01*
X35507Y41768D01*
X36582Y41050D01*
X37850Y40798D01*
X39118Y41050D01*
X40193Y41768D01*
X40326Y41968D01*
X41187Y42697D01*
X41954Y42291D01*
X42332Y42039D01*
X43600Y41786D01*
X44868Y42039D01*
X45943Y42757D01*
X46661Y43832D01*
X46914Y45100D01*
X46689Y46230D01*
X46752Y46501D01*
X47432Y47500D01*
X49500D01*
Y54132D01*
X50376Y54569D01*
X51500Y53817D01*
Y47500D01*
X57500D01*
Y49461D01*
X58100D01*
X58880Y49616D01*
X59542Y50058D01*
X62142Y52658D01*
X62142Y52658D01*
X62584Y53320D01*
X62739Y54100D01*
X62739Y54100D01*
Y54154D01*
X63043Y54357D01*
X63761Y55432D01*
X64014Y56700D01*
X63761Y57968D01*
X63043Y59043D01*
X61968Y59761D01*
X60700Y60014D01*
X59432Y59761D01*
X58357Y59043D01*
X57639Y57968D01*
X57386Y56700D01*
X56330Y55500D01*
X53298D01*
X52620Y56770D01*
X52861Y57132D01*
X53114Y58400D01*
X52895Y59501D01*
X52861Y59668D01*
X52691Y60394D01*
X53599Y61460D01*
X56430D01*
Y67000D01*
Y72540D01*
D02*
G37*
G36*
X140030Y48430D02*
X136760D01*
Y44160D01*
X140030D01*
Y48430D01*
D02*
G37*
G36*
X90900Y129714D02*
X89632Y129461D01*
X88557Y128743D01*
X87839Y127668D01*
X87586Y126400D01*
X87839Y125132D01*
X88557Y124057D01*
X89632Y123339D01*
X90900Y123086D01*
X92168Y123339D01*
X93243Y124057D01*
X93961Y125132D01*
X94214Y126400D01*
X93961Y127668D01*
X93243Y128743D01*
X92168Y129461D01*
X90900Y129714D01*
D02*
G37*
G36*
X113300Y247700D02*
X101300D01*
Y244739D01*
X97046D01*
X96843Y245043D01*
X95768Y245761D01*
X94500Y246014D01*
X93232Y245761D01*
X92157Y245043D01*
X91439Y243968D01*
X91186Y242700D01*
X91439Y241432D01*
X92157Y240357D01*
X93232Y239639D01*
X94500Y239386D01*
X95768Y239639D01*
X96843Y240357D01*
X97046Y240661D01*
X100402D01*
X101300Y239763D01*
X101300Y237700D01*
X100220Y237240D01*
X99760D01*
Y231970D01*
X107300D01*
X114840D01*
Y237240D01*
X114380D01*
X113300Y237700D01*
X113300Y238510D01*
Y247700D01*
D02*
G37*
G36*
X42400Y250114D02*
X41132Y249861D01*
X40057Y249143D01*
X39339Y248068D01*
X39086Y246800D01*
X39339Y245532D01*
X40057Y244457D01*
X41132Y243739D01*
X42400Y243486D01*
X43668Y243739D01*
X44743Y244457D01*
X45461Y245532D01*
X45714Y246800D01*
X45461Y248068D01*
X44743Y249143D01*
X43668Y249861D01*
X42400Y250114D01*
D02*
G37*
G36*
X15300Y247700D02*
X3300D01*
Y237700D01*
X15300D01*
Y247700D01*
D02*
G37*
G36*
X79700Y271214D02*
X78432Y270961D01*
X77357Y270243D01*
X76639Y269168D01*
X76386Y267900D01*
X76639Y266632D01*
X77357Y265557D01*
X78432Y264839D01*
X79700Y264586D01*
X80968Y264839D01*
X82043Y265557D01*
X82761Y266632D01*
X83014Y267900D01*
X82761Y269168D01*
X82043Y270243D01*
X80968Y270961D01*
X79700Y271214D01*
D02*
G37*
G36*
X113300Y259700D02*
X101300D01*
Y256739D01*
X97046D01*
X96843Y257043D01*
X95768Y257761D01*
X94500Y258014D01*
X93232Y257761D01*
X92157Y257043D01*
X91439Y255968D01*
X91186Y254700D01*
X91439Y253432D01*
X92157Y252357D01*
X93232Y251639D01*
X94500Y251386D01*
X95768Y251639D01*
X96843Y252357D01*
X97046Y252661D01*
X101300D01*
Y249700D01*
X113300D01*
Y259700D01*
D02*
G37*
G36*
X42600Y265714D02*
X41332Y265461D01*
X40257Y264743D01*
X39539Y263668D01*
X39286Y262400D01*
X39539Y261132D01*
X40257Y260057D01*
X41332Y259339D01*
X41900Y259226D01*
X42041Y259197D01*
Y257903D01*
X41900Y257874D01*
X41332Y257761D01*
X40257Y257043D01*
X40054Y256739D01*
X15300D01*
Y259700D01*
X3300D01*
Y249700D01*
X15300D01*
Y252661D01*
X40054D01*
X40257Y252357D01*
X41332Y251639D01*
X42600Y251386D01*
X43868Y251639D01*
X44943Y252357D01*
X45661Y253432D01*
X45914Y254700D01*
X45661Y255968D01*
X44943Y257043D01*
X43868Y257761D01*
X43300Y257874D01*
X43158Y257903D01*
Y259197D01*
X43300Y259226D01*
X43868Y259339D01*
X44943Y260057D01*
X45661Y261132D01*
X45914Y262400D01*
X45661Y263668D01*
X44943Y264743D01*
X43868Y265461D01*
X42600Y265714D01*
D02*
G37*
G36*
X175380Y231996D02*
X174488Y231819D01*
X172656Y230594D01*
X171431Y228762D01*
X171001Y226600D01*
Y226120D01*
X175380D01*
Y231996D01*
D02*
G37*
G36*
X114840Y229430D02*
X108570D01*
Y224160D01*
X114840D01*
Y229430D01*
D02*
G37*
G36*
X106030D02*
X99760D01*
Y224160D01*
X106030D01*
Y229430D01*
D02*
G37*
G36*
X179600Y271600D02*
X135600D01*
Y235600D01*
X179600D01*
Y271600D01*
D02*
G37*
G36*
X15300Y235700D02*
X3300D01*
Y225700D01*
X15300D01*
Y228661D01*
X39954D01*
X40157Y228357D01*
X41232Y227639D01*
X42500Y227386D01*
X43768Y227639D01*
X44843Y228357D01*
X45561Y229432D01*
X45814Y230700D01*
X45561Y231968D01*
X44843Y233043D01*
X43768Y233761D01*
X42500Y234014D01*
X41232Y233761D01*
X40157Y233043D01*
X39954Y232739D01*
X15300D01*
Y235700D01*
D02*
G37*
G36*
X177920Y231996D02*
Y226120D01*
X182299D01*
Y226600D01*
X181868Y228762D01*
X180644Y230594D01*
X178812Y231819D01*
X177920Y231996D01*
D02*
G37*
G36*
X14840Y281930D02*
X8570D01*
Y271660D01*
X14840D01*
Y281930D01*
D02*
G37*
G36*
Y294740D02*
X8570D01*
Y284470D01*
X14840D01*
Y294740D01*
D02*
G37*
G36*
X108030D02*
X101760D01*
Y284470D01*
X108030D01*
Y294740D01*
D02*
G37*
G36*
X138550Y288178D02*
X136989Y287868D01*
X135666Y286984D01*
X134782Y285661D01*
X134472Y284100D01*
Y280600D01*
X134782Y279039D01*
X135666Y277716D01*
X136989Y276832D01*
X138550Y276522D01*
X140111Y276832D01*
X141434Y277716D01*
X142318Y279039D01*
X142628Y280600D01*
Y284100D01*
X142318Y285661D01*
X141434Y286984D01*
X140111Y287868D01*
X138550Y288178D01*
D02*
G37*
G36*
X240000Y295814D02*
X238732Y295561D01*
X237657Y294843D01*
X237243D01*
X236168Y295561D01*
X234900Y295814D01*
X233632Y295561D01*
X232557Y294843D01*
X231839Y293768D01*
X231586Y292500D01*
X231839Y291232D01*
X232557Y290157D01*
X233632Y289439D01*
X234900Y289186D01*
X236168Y289439D01*
X237243Y290157D01*
X237657D01*
X238732Y289439D01*
X240000Y289186D01*
X241268Y289439D01*
X242343Y290157D01*
X243061Y291232D01*
X243314Y292500D01*
X243061Y293768D01*
X242343Y294843D01*
X241268Y295561D01*
X240000Y295814D01*
D02*
G37*
G36*
X240700Y287314D02*
X239432Y287061D01*
X239403Y287042D01*
X238350Y286348D01*
X237297Y287042D01*
X237268Y287061D01*
X236000Y287314D01*
X234732Y287061D01*
X233657Y286343D01*
X232939Y285268D01*
X232686Y284000D01*
X232891Y282970D01*
X232217Y281700D01*
X202600D01*
Y272919D01*
X200662D01*
X199932Y274189D01*
X200114Y275100D01*
X199861Y276368D01*
X199143Y277443D01*
X198068Y278161D01*
X196800Y278414D01*
X195532Y278161D01*
X194457Y277443D01*
X193739Y276368D01*
X193486Y275100D01*
X193668Y274189D01*
X192938Y272919D01*
X190449D01*
X189083Y272647D01*
X187926Y271873D01*
X187152Y270716D01*
X186880Y269350D01*
X187152Y267984D01*
X187926Y266827D01*
X189083Y266053D01*
X190449Y265781D01*
X202600D01*
Y259700D01*
X234600D01*
Y279670D01*
X235870Y280712D01*
X236000Y280686D01*
X237268Y280939D01*
X237297Y280958D01*
X238350Y281652D01*
X239403Y280958D01*
X239432Y280939D01*
X240700Y280686D01*
X241968Y280939D01*
X243043Y281657D01*
X243761Y282732D01*
X244014Y284000D01*
X243761Y285268D01*
X243043Y286343D01*
X241968Y287061D01*
X240700Y287314D01*
D02*
G37*
G36*
X116840Y294740D02*
X110570D01*
Y284470D01*
X116840D01*
Y294740D01*
D02*
G37*
G36*
X176650Y288178D02*
X175089Y287868D01*
X173766Y286984D01*
X172882Y285661D01*
X172572Y284100D01*
Y280600D01*
X172882Y279039D01*
X173677Y277850D01*
X173589Y277718D01*
X173336Y276450D01*
X173589Y275182D01*
X174307Y274107D01*
X175382Y273389D01*
X176650Y273136D01*
X177918Y273389D01*
X178993Y274107D01*
X179711Y275182D01*
X179964Y276450D01*
X179711Y277718D01*
X179623Y277850D01*
X180418Y279039D01*
X180728Y280600D01*
Y284100D01*
X180418Y285661D01*
X179534Y286984D01*
X178211Y287868D01*
X176650Y288178D01*
D02*
G37*
G36*
X116840Y281930D02*
X110570D01*
Y271660D01*
X116840D01*
Y281930D01*
D02*
G37*
G36*
X108030D02*
X101760D01*
Y271660D01*
X108030D01*
Y281930D01*
D02*
G37*
G36*
X151250Y288178D02*
X149689Y287868D01*
X148366Y286984D01*
X147482Y285661D01*
X147172Y284100D01*
Y280600D01*
X147482Y279039D01*
X148137Y278059D01*
X147936Y277050D01*
X148189Y275782D01*
X148907Y274707D01*
X149982Y273989D01*
X151250Y273736D01*
X152518Y273989D01*
X153593Y274707D01*
X154311Y275782D01*
X154564Y277050D01*
X154363Y278059D01*
X155018Y279039D01*
X155328Y280600D01*
Y284100D01*
X155018Y285661D01*
X154134Y286984D01*
X152811Y287868D01*
X151250Y288178D01*
D02*
G37*
G36*
X163950D02*
X162389Y287868D01*
X161066Y286984D01*
X160182Y285661D01*
X159872Y284100D01*
Y280600D01*
X160182Y279039D01*
X160868Y278013D01*
X160636Y276850D01*
X160889Y275582D01*
X161607Y274507D01*
X162682Y273789D01*
X163950Y273536D01*
X165218Y273789D01*
X166293Y274507D01*
X167011Y275582D01*
X167264Y276850D01*
X167032Y278013D01*
X167718Y279039D01*
X168028Y280600D01*
Y284100D01*
X167718Y285661D01*
X166834Y286984D01*
X165511Y287868D01*
X163950Y288178D01*
D02*
G37*
G36*
X68900Y280014D02*
X67632Y279761D01*
X66557Y279043D01*
X65839Y277968D01*
X65586Y276700D01*
X65839Y275432D01*
X66557Y274357D01*
X67632Y273639D01*
X68900Y273386D01*
X70168Y273639D01*
X71243Y274357D01*
X71961Y275432D01*
X72214Y276700D01*
X71961Y277968D01*
X71243Y279043D01*
X70168Y279761D01*
X68900Y280014D01*
D02*
G37*
G36*
X144130Y158240D02*
X139860D01*
Y154970D01*
X144130D01*
Y158240D01*
D02*
G37*
G36*
X117375Y176153D02*
X115814Y175843D01*
X114491Y174959D01*
X113607Y173636D01*
X113297Y172075D01*
X113607Y170514D01*
X114491Y169191D01*
X115336Y168627D01*
Y166921D01*
X115032Y166718D01*
X114314Y165643D01*
X114061Y164375D01*
X114314Y163107D01*
X115032Y162032D01*
X115336Y161829D01*
Y160000D01*
X114750D01*
Y154539D01*
X114100D01*
X113320Y154384D01*
X112658Y153942D01*
X112558Y153842D01*
X112200Y153914D01*
X110932Y153661D01*
X109857Y152943D01*
X109139Y151868D01*
X108886Y150600D01*
X109139Y149332D01*
X109857Y148257D01*
X110932Y147539D01*
X111363Y147453D01*
X112758Y146058D01*
X112758Y146058D01*
X113420Y145616D01*
X114200Y145461D01*
X114750Y144417D01*
Y140000D01*
X115761D01*
Y129446D01*
X115457Y129243D01*
X114739Y128168D01*
X114486Y126900D01*
X114739Y125632D01*
X115229Y124898D01*
X115133Y123622D01*
X115027Y123317D01*
X114491Y122959D01*
X113607Y121636D01*
X113297Y120075D01*
X113607Y118514D01*
X114491Y117191D01*
X115814Y116307D01*
X117375Y115997D01*
X118936Y116307D01*
X120259Y117191D01*
X121143Y118514D01*
X121453Y120075D01*
X121143Y121636D01*
X120259Y122959D01*
X119933Y123176D01*
Y124417D01*
X120143Y124557D01*
X120512Y125108D01*
X121900Y125382D01*
X122077Y125339D01*
X123520Y123896D01*
X123322Y122900D01*
X123632Y121339D01*
X124516Y120016D01*
X125839Y119132D01*
X127400Y118822D01*
X128961Y119132D01*
X130284Y120016D01*
X130848Y120861D01*
X142454D01*
X142657Y120557D01*
X143732Y119839D01*
X145000Y119586D01*
X146268Y119839D01*
X147343Y120557D01*
X148061Y121632D01*
X148314Y122900D01*
X148061Y124168D01*
X147343Y125243D01*
X146268Y125961D01*
X145000Y126214D01*
X143732Y125961D01*
X142657Y125243D01*
X142454Y124939D01*
X130848D01*
X130284Y125784D01*
X128961Y126668D01*
X127400Y126978D01*
X126721Y126843D01*
X125822Y127565D01*
X125694Y127717D01*
X126068Y128912D01*
X126365Y129035D01*
X127610Y128721D01*
X127619Y128718D01*
X129619Y128718D01*
X130385Y129035D01*
X130702Y129800D01*
X130702Y132192D01*
X130739Y132380D01*
Y136400D01*
X130584Y137180D01*
X130142Y137842D01*
X129539Y138445D01*
Y138921D01*
X129893Y139750D01*
X130000D01*
X130000Y140000D01*
X135250D01*
X135250Y140000D01*
X136470Y139881D01*
X137132Y139439D01*
X138400Y139186D01*
X138758Y139258D01*
X138858Y139158D01*
X138858Y139158D01*
X139520Y138716D01*
X140300Y138561D01*
X144300D01*
X145080Y138716D01*
X145742Y139158D01*
X146842Y140258D01*
X146842Y140258D01*
X147284Y140920D01*
X147439Y141700D01*
Y142700D01*
X149400D01*
X149400Y148700D01*
X150479Y149160D01*
X150940D01*
Y152430D01*
X145400D01*
X139860D01*
Y150056D01*
X138590Y149378D01*
X138580Y149384D01*
X137800Y149539D01*
X136790D01*
Y151230D01*
X132625D01*
Y153770D01*
X136790D01*
Y156230D01*
X132625D01*
Y157500D01*
X131355D01*
Y161790D01*
X128770D01*
Y157625D01*
X126230D01*
Y161790D01*
X123770D01*
Y157625D01*
X121230D01*
Y161790D01*
X121084D01*
X120405Y163060D01*
X120436Y163107D01*
X120689Y164375D01*
X120436Y165643D01*
X119718Y166718D01*
X119414Y166921D01*
Y168627D01*
X120259Y169191D01*
X121143Y170514D01*
X121453Y172075D01*
X121143Y173636D01*
X120259Y174959D01*
X118936Y175843D01*
X117375Y176153D01*
D02*
G37*
G36*
X136790Y161540D02*
X133895D01*
Y158770D01*
X136790D01*
Y161540D01*
D02*
G37*
G36*
X217330Y209430D02*
X201060D01*
Y198160D01*
X217330D01*
Y209430D01*
D02*
G37*
G36*
X46600Y177950D02*
X33600D01*
Y165950D01*
X45570D01*
X46096Y164680D01*
X44755Y163339D01*
X35600D01*
X34820Y163184D01*
X34158Y162742D01*
X34158Y162742D01*
X31358Y159942D01*
X30916Y159280D01*
X30761Y158500D01*
Y153800D01*
X29800D01*
Y145800D01*
X30761D01*
Y127400D01*
X30916Y126620D01*
X31358Y125958D01*
X33058Y124258D01*
X33058Y124258D01*
X33720Y123816D01*
X34500Y123661D01*
X35500D01*
Y118200D01*
X34421Y117739D01*
X22445D01*
X17954Y122230D01*
X18399Y123500D01*
X25600D01*
Y135500D01*
X5600D01*
Y123500D01*
X13561D01*
Y121700D01*
X13716Y120920D01*
X14158Y120258D01*
X20158Y114258D01*
X20158Y114258D01*
X20820Y113816D01*
X21600Y113661D01*
X30219D01*
X30531Y112391D01*
X30158Y112142D01*
X26773Y108757D01*
X25600Y109243D01*
Y110500D01*
X5600D01*
Y98500D01*
X25600D01*
Y102501D01*
X26180Y102616D01*
X26842Y103058D01*
X32445Y108661D01*
X35500D01*
Y108200D01*
X41510D01*
Y107410D01*
X49030D01*
Y120700D01*
Y133990D01*
X44040D01*
Y134740D01*
X40270D01*
Y130700D01*
X37730D01*
Y134740D01*
X34839D01*
Y145800D01*
X35800D01*
Y153800D01*
X34839D01*
Y157655D01*
X36445Y159261D01*
X45600D01*
X46380Y159416D01*
X47042Y159858D01*
X54045Y166861D01*
X59454D01*
X59657Y166557D01*
X60732Y165839D01*
X62000Y165586D01*
X63268Y165839D01*
X64343Y166557D01*
X65061Y167632D01*
X65314Y168900D01*
X65061Y170168D01*
X64343Y171243D01*
X63268Y171961D01*
X62000Y172214D01*
X60732Y171961D01*
X59657Y171243D01*
X59454Y170939D01*
X53200D01*
X52420Y170784D01*
X51758Y170342D01*
X47870Y166454D01*
X46600Y166980D01*
Y177950D01*
D02*
G37*
G36*
X83000D02*
X70000D01*
Y165950D01*
X81319D01*
X81566Y165613D01*
X81881Y164680D01*
X81339Y163868D01*
X81086Y162600D01*
X81339Y161332D01*
X81384Y161264D01*
X81400Y160000D01*
X81400Y160000D01*
Y153000D01*
X87400D01*
Y153000D01*
X87900D01*
Y153000D01*
X93900D01*
Y153000D01*
X94400D01*
Y153000D01*
X100400D01*
Y160000D01*
X100400Y160000D01*
X100400D01*
X100353Y161270D01*
X100461Y161432D01*
X100714Y162700D01*
X100461Y163968D01*
X99743Y165043D01*
X98668Y165761D01*
X97400Y166014D01*
X96132Y165761D01*
X95057Y165043D01*
X94914Y164829D01*
X93386D01*
X93243Y165043D01*
X92168Y165761D01*
X90900Y166014D01*
X89632Y165761D01*
X88557Y165043D01*
X88380Y164779D01*
X86853D01*
X86743Y164943D01*
X85668Y165661D01*
X84400Y165914D01*
X84242Y165882D01*
X83000Y166930D01*
Y177950D01*
D02*
G37*
G36*
X84400Y150214D02*
X83132Y149961D01*
X82057Y149243D01*
X81339Y148168D01*
X81086Y146900D01*
X81339Y145632D01*
X82057Y144557D01*
X82361Y144354D01*
Y141000D01*
X81400D01*
Y134000D01*
X86360D01*
Y132460D01*
X89630D01*
Y137500D01*
Y142540D01*
X86439D01*
Y144354D01*
X86743Y144557D01*
X87461Y145632D01*
X87714Y146900D01*
X87461Y148168D01*
X86743Y149243D01*
X85668Y149961D01*
X84400Y150214D01*
D02*
G37*
G36*
X101900Y129914D02*
X100632Y129661D01*
X99557Y128943D01*
X98839Y127868D01*
X98586Y126600D01*
X98839Y125332D01*
X99557Y124257D01*
X100632Y123539D01*
X101900Y123286D01*
X103168Y123539D01*
X104243Y124257D01*
X104961Y125332D01*
X105214Y126600D01*
X104961Y127868D01*
X104243Y128943D01*
X103168Y129661D01*
X101900Y129914D01*
D02*
G37*
G36*
X95440Y142540D02*
X92170D01*
Y137500D01*
Y132460D01*
X95440D01*
Y134000D01*
X100400D01*
Y141000D01*
X95440D01*
Y142540D01*
D02*
G37*
G36*
X56600Y161300D02*
X50600D01*
Y153300D01*
X49830Y152349D01*
X49635D01*
X48868Y152861D01*
X47600Y153114D01*
X46332Y152861D01*
X45565Y152349D01*
X43800D01*
Y153800D01*
X37800D01*
Y145800D01*
X43800D01*
Y147251D01*
X45565D01*
X46332Y146739D01*
X47600Y146486D01*
X48868Y146739D01*
X49330Y147047D01*
X50600Y146583D01*
Y139500D01*
X56600D01*
Y147500D01*
X56149D01*
Y153300D01*
X56600D01*
Y161300D01*
D02*
G37*
G36*
X64600D02*
X58600D01*
Y153300D01*
X64600D01*
Y154742D01*
X65870Y155046D01*
X70068Y150848D01*
X69985Y149529D01*
X69557Y149243D01*
X68839Y148168D01*
X68586Y146900D01*
X68839Y145632D01*
X69021Y145359D01*
X68035Y144549D01*
X67642Y144942D01*
X66980Y145384D01*
X66200Y145539D01*
X64600D01*
Y147500D01*
X58600D01*
Y139500D01*
X64600D01*
Y139500D01*
X65870Y139670D01*
X65961Y139609D01*
Y137446D01*
X65657Y137243D01*
X64939Y136168D01*
X64686Y134900D01*
X64772Y134470D01*
X63816Y133200D01*
X59090D01*
Y133990D01*
X51570D01*
Y120700D01*
Y107410D01*
X59090D01*
Y108200D01*
X61354D01*
X61600Y108151D01*
X65444D01*
X66551Y107044D01*
Y102256D01*
X65201Y100906D01*
X64668Y101261D01*
X63400Y101514D01*
X62170Y101269D01*
X62129Y101263D01*
X60900Y101966D01*
Y102200D01*
X54900Y102200D01*
X54440Y103279D01*
Y103740D01*
X51170D01*
Y98200D01*
Y92660D01*
X54440D01*
Y93120D01*
X54900Y94200D01*
X55710Y94200D01*
X60900D01*
Y94434D01*
X62129Y95137D01*
X62170Y95131D01*
X63400Y94886D01*
X64668Y95139D01*
X65435Y95651D01*
X66100D01*
X67076Y95845D01*
X67902Y96398D01*
X69960Y98455D01*
X71338Y98037D01*
X71439Y97532D01*
X72157Y96457D01*
X73232Y95739D01*
X74500Y95486D01*
X75768Y95739D01*
X76843Y96457D01*
X77394Y97282D01*
X77955Y97395D01*
X78246D01*
X78806Y97282D01*
X79357Y96457D01*
X80432Y95739D01*
X81700Y95486D01*
X82968Y95739D01*
X84043Y96457D01*
X84761Y97532D01*
X85014Y98800D01*
X84761Y100068D01*
X84043Y101143D01*
X82968Y101861D01*
X81700Y102114D01*
X80432Y101861D01*
X79357Y101143D01*
X78806Y100318D01*
X78246Y100205D01*
X77955D01*
X77394Y100318D01*
X76843Y101143D01*
X75768Y101861D01*
X74500Y102114D01*
X73232Y101861D01*
X72919Y101652D01*
X71649Y102331D01*
Y108100D01*
X71455Y109075D01*
X70902Y109902D01*
X68302Y112502D01*
X67476Y113055D01*
X66500Y113249D01*
X65100D01*
Y118200D01*
X65100D01*
Y118200D01*
X65100D01*
Y123661D01*
X65390D01*
X66170Y123816D01*
X66831Y124258D01*
X69920Y127346D01*
X71324Y126954D01*
X71857Y126157D01*
X72932Y125439D01*
X74200Y125186D01*
X75468Y125439D01*
X75498Y125459D01*
X76839Y125232D01*
X77557Y124157D01*
X78632Y123439D01*
X79900Y123186D01*
X81168Y123439D01*
X82243Y124157D01*
X82961Y125232D01*
X83214Y126500D01*
X82961Y127768D01*
X82243Y128843D01*
X81168Y129561D01*
X79900Y129814D01*
X78632Y129561D01*
X78601Y129541D01*
X77261Y129768D01*
X76543Y130843D01*
X75468Y131561D01*
X74200Y131814D01*
X74236Y132295D01*
X74289Y132560D01*
Y144626D01*
X74961Y145632D01*
X75214Y146900D01*
X74961Y148168D01*
X74289Y149174D01*
Y151550D01*
X74289Y151550D01*
X74134Y152330D01*
X73692Y152992D01*
X67942Y158742D01*
X67280Y159184D01*
X66500Y159339D01*
X64600D01*
Y161300D01*
D02*
G37*
G36*
X14840Y209930D02*
X8570D01*
Y199660D01*
X14840D01*
Y209930D01*
D02*
G37*
G36*
X182299Y223580D02*
X177920D01*
Y217704D01*
X178812Y217881D01*
X180644Y219106D01*
X181868Y220938D01*
X182299Y223100D01*
Y223580D01*
D02*
G37*
G36*
X175380D02*
X171001D01*
Y223100D01*
X171431Y220938D01*
X172656Y219106D01*
X174488Y217881D01*
X175380Y217704D01*
Y223580D01*
D02*
G37*
G36*
X138550Y230678D02*
X136989Y230368D01*
X135666Y229484D01*
X134782Y228161D01*
X134472Y226600D01*
Y223100D01*
X134782Y221539D01*
X135666Y220216D01*
X136989Y219332D01*
X138550Y219022D01*
X140111Y219332D01*
X141434Y220216D01*
X142318Y221539D01*
X142628Y223100D01*
Y226600D01*
X142318Y228161D01*
X141434Y229484D01*
X140111Y230368D01*
X138550Y230678D01*
D02*
G37*
G36*
X163950D02*
X162389Y230368D01*
X161066Y229484D01*
X160182Y228161D01*
X159872Y226600D01*
Y223100D01*
X160182Y221539D01*
X161066Y220216D01*
X162389Y219332D01*
X163950Y219022D01*
X165511Y219332D01*
X166834Y220216D01*
X167718Y221539D01*
X168028Y223100D01*
Y226600D01*
X167718Y228161D01*
X166834Y229484D01*
X165511Y230368D01*
X163950Y230678D01*
D02*
G37*
G36*
X151250D02*
X149689Y230368D01*
X148366Y229484D01*
X147482Y228161D01*
X147172Y226600D01*
Y223655D01*
X117958Y194442D01*
X117516Y193780D01*
X117361Y193000D01*
Y183300D01*
X117516Y182520D01*
X117958Y181858D01*
X122058Y177758D01*
X122720Y177316D01*
X123500Y177161D01*
X142502D01*
X142622Y177081D01*
X143500Y176906D01*
X149551D01*
X150268Y176468D01*
X150706Y175751D01*
Y169700D01*
X150807Y169191D01*
X147363Y165747D01*
X146932Y165661D01*
X145857Y164943D01*
X145139Y163868D01*
X144886Y162600D01*
X145139Y161332D01*
X145857Y160257D01*
X146932Y159539D01*
X147076Y159510D01*
X146951Y158240D01*
X146670D01*
Y154970D01*
X150940D01*
Y158240D01*
X149449D01*
X149324Y159510D01*
X149468Y159539D01*
X150543Y160257D01*
X151261Y161332D01*
X151514Y162600D01*
X151261Y163868D01*
X151258Y163874D01*
X154442Y167058D01*
X154442Y167058D01*
X154691Y167430D01*
X155961Y167119D01*
Y161227D01*
X155632Y161161D01*
X154557Y160443D01*
X153839Y159368D01*
X153586Y158100D01*
X153839Y156832D01*
X154557Y155757D01*
X155632Y155039D01*
X156900Y154786D01*
X158168Y155039D01*
X159243Y155757D01*
X159334Y155894D01*
X160658Y155588D01*
X160759Y154843D01*
X157708Y151792D01*
X157100Y151913D01*
X155832Y151661D01*
X154757Y150943D01*
X154038Y149868D01*
X153786Y148600D01*
X154038Y147332D01*
X154757Y146257D01*
X155832Y145538D01*
X157100Y145286D01*
X158368Y145538D01*
X159443Y146257D01*
X160161Y147332D01*
X160413Y148600D01*
X160392Y148708D01*
X164442Y152758D01*
X164884Y153420D01*
X165039Y154200D01*
X165039Y154200D01*
Y164319D01*
X166309Y164631D01*
X166558Y164258D01*
X169358Y161458D01*
X169358Y161458D01*
X170020Y161016D01*
X170800Y160861D01*
X179954D01*
X180157Y160557D01*
X181232Y159839D01*
X182500Y159586D01*
X183768Y159839D01*
X184843Y160557D01*
X185561Y161632D01*
X185814Y162900D01*
X185561Y164168D01*
X184843Y165243D01*
X183768Y165961D01*
X182500Y166214D01*
X181232Y165961D01*
X180157Y165243D01*
X179954Y164939D01*
X171645D01*
X170039Y166545D01*
Y168702D01*
X170119Y168822D01*
X170294Y169700D01*
Y175751D01*
X170732Y176468D01*
X171448Y176906D01*
X177500D01*
X178378Y177081D01*
X178498Y177161D01*
X178640D01*
X178665Y177150D01*
X179584Y175891D01*
X179486Y175400D01*
X179739Y174132D01*
X180457Y173057D01*
X181532Y172339D01*
X182800Y172086D01*
X184068Y172339D01*
X185143Y173057D01*
X185861Y174132D01*
X186114Y175400D01*
X185861Y176668D01*
X185143Y177743D01*
X184600Y178106D01*
X184242Y178642D01*
X184242Y178642D01*
X183211Y179673D01*
X183629Y181051D01*
X184068Y181139D01*
X185143Y181857D01*
X185861Y182932D01*
X186114Y184200D01*
X185861Y185468D01*
X185143Y186543D01*
X184068Y187261D01*
X182800Y187514D01*
X182272Y187409D01*
X181751Y187930D01*
X174250D01*
Y190470D01*
X181833D01*
X182303Y190945D01*
X182600Y190886D01*
X183868Y191139D01*
X184943Y191857D01*
X185661Y192932D01*
X185914Y194200D01*
X185661Y195468D01*
X184943Y196543D01*
X183868Y197261D01*
X182600Y197514D01*
X181332Y197261D01*
X180257Y196543D01*
X180054Y196239D01*
X178498D01*
X178378Y196319D01*
X177500Y196494D01*
X171448D01*
X170732Y196932D01*
X170294Y197649D01*
Y203700D01*
X170119Y204578D01*
X170039Y204698D01*
Y209755D01*
X171244Y210960D01*
X179053D01*
X179256Y210657D01*
X180332Y209938D01*
X181600Y209686D01*
X182868Y209938D01*
X183943Y210657D01*
X184661Y211731D01*
X184913Y213000D01*
X184661Y214268D01*
X183943Y215343D01*
X182868Y216061D01*
X181600Y216313D01*
X180332Y216061D01*
X179256Y215343D01*
X179053Y215039D01*
X170402D01*
X170400Y215039D01*
X169620Y214884D01*
X168958Y214442D01*
X166558Y212042D01*
X166116Y211380D01*
X165961Y210600D01*
Y209681D01*
X164691Y209370D01*
X164442Y209742D01*
X160126Y214058D01*
X160313Y215000D01*
X160061Y216268D01*
X159343Y217343D01*
X158268Y218061D01*
X157000Y218313D01*
X155732Y218061D01*
X154657Y217343D01*
X153938Y216268D01*
X153686Y215000D01*
X153938Y213731D01*
X154657Y212656D01*
X155732Y211938D01*
X155765Y211802D01*
X155032Y210361D01*
X153957Y209643D01*
X153445Y208877D01*
X152141Y209065D01*
X151961Y209968D01*
X151243Y211043D01*
X150168Y211761D01*
X148900Y212014D01*
X147632Y211761D01*
X146557Y211043D01*
X145839Y209968D01*
X145586Y208700D01*
X145839Y207432D01*
X146557Y206357D01*
X147632Y205639D01*
X148900Y205386D01*
X149250Y205456D01*
X150756Y203950D01*
X150706Y203700D01*
Y197649D01*
X150268Y196932D01*
X149551Y196494D01*
X143500D01*
X142622Y196319D01*
X142502Y196239D01*
X141045D01*
X138342Y198941D01*
X138414Y199300D01*
X138161Y200568D01*
X137443Y201643D01*
X136368Y202361D01*
X135100Y202614D01*
X133832Y202361D01*
X132757Y201643D01*
X132039Y200568D01*
X131786Y199300D01*
X132039Y198032D01*
X132757Y196957D01*
X133832Y196239D01*
X135100Y195986D01*
X135458Y196058D01*
X138758Y192758D01*
X138758Y192758D01*
X139130Y192509D01*
X138819Y191239D01*
X127646D01*
X127443Y191543D01*
X126368Y192261D01*
X125100Y192514D01*
X123832Y192261D01*
X123727Y192191D01*
X122277Y192750D01*
X122229Y192945D01*
X149046Y219762D01*
X149689Y219332D01*
X151250Y219022D01*
X152811Y219332D01*
X154134Y220216D01*
X155018Y221539D01*
X155328Y223100D01*
Y226600D01*
X155018Y228161D01*
X154134Y229484D01*
X152811Y230368D01*
X151250Y230678D01*
D02*
G37*
G36*
X116840Y222740D02*
X110570D01*
Y212470D01*
X116840D01*
Y222740D01*
D02*
G37*
G36*
Y209930D02*
X110570D01*
Y199660D01*
X116840D01*
Y209930D01*
D02*
G37*
G36*
X108030D02*
X101760D01*
Y199660D01*
X108030D01*
Y209930D01*
D02*
G37*
G36*
X217330Y223240D02*
X201060D01*
Y211970D01*
X217330D01*
Y223240D01*
D02*
G37*
G36*
X14840Y222740D02*
X8570D01*
Y212470D01*
X14840D01*
Y222740D01*
D02*
G37*
G36*
X108030D02*
X101760D01*
Y212470D01*
X108030D01*
Y222740D01*
D02*
G37*
%LPD*%
G36*
X123600Y131800D02*
X125600Y129800D01*
X121600Y129800D01*
Y133800D01*
X125600D01*
X123600Y131800D01*
D02*
G37*
G36*
X129619Y129800D02*
X127619Y129800D01*
X125619Y131800D01*
X127619Y133800D01*
X129619Y133800D01*
X129619Y129800D01*
D02*
G37*
D10*
X167200Y65700D02*
D03*
Y73700D02*
D03*
X153600Y73800D02*
D03*
Y65800D02*
D03*
X117500Y81600D02*
D03*
Y89600D02*
D03*
X161700Y46300D02*
D03*
Y54300D02*
D03*
X35100Y82000D02*
D03*
Y90000D02*
D03*
X145400Y145700D02*
D03*
Y153700D02*
D03*
X187700Y46100D02*
D03*
Y54100D02*
D03*
X174600Y46100D02*
D03*
Y54100D02*
D03*
X102400Y71400D02*
D03*
Y63400D02*
D03*
Y87100D02*
D03*
Y95100D02*
D03*
X184600Y27200D02*
D03*
Y35200D02*
D03*
X162339Y29000D02*
D03*
Y21000D02*
D03*
D16*
X190300Y20400D02*
D03*
Y14880D02*
D03*
X175000Y20720D02*
D03*
Y15200D02*
D03*
X187700Y102700D02*
D03*
Y97181D02*
D03*
X176800Y102700D02*
D03*
Y97181D02*
D03*
D17*
X128120Y131800D02*
D03*
X122600Y131800D02*
D03*
D18*
X149300Y49700D02*
D03*
X141300D02*
D03*
X153370Y33200D02*
D03*
X145370D02*
D03*
X153370Y19800D02*
D03*
X145370D02*
D03*
X157900Y100800D02*
D03*
X149900D02*
D03*
X157900Y86900D02*
D03*
X165900D02*
D03*
X127900Y17800D02*
D03*
X135900D02*
D03*
X101600Y29500D02*
D03*
X93600D02*
D03*
X32800Y149800D02*
D03*
X40800D02*
D03*
X61600Y157300D02*
D03*
X53600D02*
D03*
X61600Y143500D02*
D03*
X53600D02*
D03*
X49900Y98200D02*
D03*
X57900D02*
D03*
X46400Y33700D02*
D03*
X54400D02*
D03*
X26100Y37400D02*
D03*
X18100D02*
D03*
X26100Y51500D02*
D03*
X18100D02*
D03*
X122684Y30900D02*
D03*
X114684D02*
D03*
X49700Y67000D02*
D03*
X57700D02*
D03*
X54500Y51500D02*
D03*
X46500D02*
D03*
X33200Y21200D02*
D03*
X25200D02*
D03*
D29*
X117375Y172075D02*
D03*
Y120075D02*
D03*
X127400Y122900D02*
D03*
X182500Y86600D02*
D03*
X177600Y78400D02*
D03*
X159400Y93500D02*
D03*
X0Y25400D02*
D03*
X8000D02*
D03*
X152400Y8000D02*
D03*
Y0D02*
D03*
X139700Y8000D02*
D03*
Y0D02*
D03*
X165100Y8000D02*
D03*
Y0D02*
D03*
X203200Y8000D02*
D03*
Y0D02*
D03*
X242000Y215900D02*
D03*
X250000D02*
D03*
X242000Y203200D02*
D03*
X250000D02*
D03*
X63500Y8000D02*
D03*
Y0D02*
D03*
X8000Y76200D02*
D03*
X0D02*
D03*
X8000Y88900D02*
D03*
X0D02*
D03*
X8000Y38100D02*
D03*
X0D02*
D03*
X8000Y50800D02*
D03*
X0D02*
D03*
X190500Y8000D02*
D03*
Y0D02*
D03*
X177800Y8000D02*
D03*
Y0D02*
D03*
X38100Y8000D02*
D03*
Y0D02*
D03*
X25400Y8000D02*
D03*
Y0D02*
D03*
X127000Y8000D02*
D03*
Y0D02*
D03*
X50800Y8000D02*
D03*
Y0D02*
D03*
X88900Y8000D02*
D03*
Y0D02*
D03*
X101600Y8000D02*
D03*
Y0D02*
D03*
X114300Y8000D02*
D03*
Y0D02*
D03*
X76200Y8000D02*
D03*
Y0D02*
D03*
D32*
X184600Y35200D02*
X189500D01*
X190800Y33900D02*
X193700D01*
X189500Y35200D02*
X190800Y33900D01*
X184600Y35200D02*
Y38400D01*
X187700Y41500D01*
Y46100D01*
D33*
X157900Y83600D02*
Y100800D01*
X136200Y17600D02*
Y24000D01*
X72250Y132560D02*
Y151550D01*
X182800Y27300D02*
X183699D01*
X184200Y26800D01*
X184600Y27200D01*
X168550Y16450D02*
X168600Y16400D01*
X168550Y16450D02*
Y31450D01*
X173850D01*
X175700Y33300D01*
Y34700D01*
X25450Y31550D02*
Y37250D01*
Y31550D02*
X26100Y30900D01*
Y37400D01*
X23800Y38900D02*
X25450Y37250D01*
X60700Y54100D02*
Y56700D01*
X39400Y35500D02*
X40500D01*
X42300Y33700D01*
X147900Y65800D02*
X153600D01*
X146200Y64100D02*
X147900Y65800D01*
X146200Y57000D02*
Y64100D01*
X117500Y74000D02*
Y81600D01*
X149900Y96000D02*
X152400Y93500D01*
X149900Y96000D02*
Y100800D01*
X101800Y24100D02*
Y29300D01*
X149300Y49700D02*
X153900D01*
X157300Y46300D01*
X161700D01*
X175000Y15200D02*
X177800Y12400D01*
Y8000D02*
Y12400D01*
X190300Y8200D02*
Y14880D01*
X175000Y20720D02*
Y23900D01*
X174000Y24900D02*
X175000Y23900D01*
X174000Y24900D02*
Y28100D01*
X174100Y28200D01*
X8000Y50800D02*
X17400D01*
X8000Y38100D02*
X17400D01*
X127000Y8000D02*
Y16100D01*
X128300Y17400D01*
X122684Y30900D02*
X128500D01*
X129400Y31800D01*
X49700Y58500D02*
Y67000D01*
X187700Y102700D02*
Y105400D01*
X185200Y107900D02*
X187700Y105400D01*
X185200Y107900D02*
Y115800D01*
X176800Y92200D02*
Y97181D01*
X187700Y92000D02*
Y97181D01*
X185200Y138800D02*
Y143700D01*
X188100Y146600D01*
X140200Y194200D02*
X146750D01*
X135100Y199300D02*
X140200Y194200D01*
X168000Y200450D02*
Y210600D01*
X170400Y213000D01*
X15600Y121700D02*
Y129500D01*
Y121700D02*
X21600Y115700D01*
X39000D01*
X15600Y104500D02*
X25400D01*
X31600Y110700D01*
X39000D01*
X32800Y127400D02*
Y149800D01*
Y127400D02*
X34500Y125700D01*
X39000D01*
X61600Y130700D02*
X66000D01*
X61600Y125700D02*
X65390D01*
X61600Y157300D02*
X66500D01*
X122500Y131900D02*
Y142375D01*
Y131900D02*
X122600Y131800D01*
X127500Y137600D02*
Y142375D01*
X128120Y131800D02*
X128700Y132380D01*
Y136400D01*
X127500Y137600D02*
X128700Y136400D01*
X132625Y147500D02*
X137800D01*
X138400Y146900D01*
Y142500D02*
Y146900D01*
X132625Y142500D02*
X138400D01*
X114100Y152500D02*
X117375D01*
X112200Y150600D02*
X114100Y152500D01*
X94500Y254700D02*
X107300D01*
X94500Y242700D02*
X107300D01*
X9300Y254700D02*
X42600D01*
X9300Y230700D02*
X42500D01*
X97400Y156500D02*
Y162700D01*
X90900Y156500D02*
Y162700D01*
X84400Y156500D02*
Y162600D01*
Y137500D02*
Y146900D01*
X117375Y157500D02*
Y164375D01*
X112200Y149500D02*
Y150600D01*
Y149500D02*
X114200Y147500D01*
X117375D01*
Y164375D02*
Y172075D01*
X122600Y127700D02*
Y131800D01*
Y127700D02*
X127400Y122900D01*
X138400Y142500D02*
X140300Y140600D01*
X144300D01*
X145400Y141700D01*
Y145700D01*
X174250Y179200D02*
X180800D01*
X182800Y177200D01*
Y175400D02*
Y177200D01*
X174250Y184200D02*
X182800D01*
X174250Y194200D02*
X182600D01*
X163000Y200450D02*
Y208300D01*
X158000Y200450D02*
Y205600D01*
X153000Y200450D02*
Y204590D01*
X148900Y208690D02*
Y208700D01*
Y208690D02*
X153000Y204590D01*
X125100Y189200D02*
X146750D01*
X139700Y184200D02*
X146750D01*
X123500Y179200D02*
X146750D01*
X119400Y183300D02*
X123500Y179200D01*
X119400Y183300D02*
Y193000D01*
X151250Y224850D01*
X168000Y165700D02*
Y172950D01*
Y165700D02*
X170800Y162900D01*
X182500D01*
X153000Y168500D02*
Y172950D01*
X148200Y163700D02*
X153000Y168500D01*
X148200Y162600D02*
Y163700D01*
X158000Y159200D02*
Y172950D01*
X156900Y158100D02*
X158000Y159200D01*
X163000Y154200D02*
Y172950D01*
X117375Y142500D02*
X117800Y142075D01*
Y126900D02*
Y142075D01*
X117375Y120075D02*
X117800Y120500D01*
Y126900D01*
X189200Y124800D02*
X194100D01*
X195900Y123000D01*
X189200Y129800D02*
X194400D01*
X196400Y131800D01*
X61600Y143500D02*
X66200D01*
X68000Y141700D01*
X66000Y130700D02*
X68000Y132700D01*
X66500Y157300D02*
X72250Y151550D01*
X65390Y125700D02*
X72250Y132560D01*
X68000Y134900D02*
Y141700D01*
Y132700D02*
Y134900D01*
X176800Y105700D02*
X180200Y109100D01*
Y115800D01*
X182500Y105200D02*
X185200Y107900D01*
X182500Y86600D02*
Y105200D01*
X176800Y102700D02*
Y105700D01*
Y106500D01*
X169700Y97300D02*
Y102600D01*
X173600Y106500D01*
X176800D01*
X169700Y97300D02*
X169900Y97100D01*
Y83700D02*
Y97100D01*
Y83700D02*
X177600Y78400D01*
X156300Y207300D02*
X158000Y205600D01*
X176650Y276450D02*
Y282350D01*
X163950Y276850D02*
Y282350D01*
X151250Y277050D02*
Y282350D01*
X25400Y8000D02*
Y21000D01*
X54400Y33700D02*
X60300D01*
X61300Y32700D01*
X54500Y51500D02*
X58100D01*
X60700Y54100D01*
X41700Y51500D02*
X46500D01*
X33200Y15500D02*
Y21200D01*
X157900Y83600D02*
X161800Y79700D01*
X136200Y24000D02*
X137100Y23100D01*
X129400Y31800D02*
Y37200D01*
X160200Y39800D02*
X160300Y39700D01*
X180200Y138800D02*
Y147200D01*
X181950Y148950D01*
X170400Y213000D02*
X170400Y213000D01*
X157000Y214300D02*
X163000Y208300D01*
X157000Y214300D02*
Y215000D01*
X26100Y51500D02*
Y56300D01*
X22800Y59600D02*
X26100Y56300D01*
X127400Y122900D02*
X145000D01*
X151600Y129800D02*
X161200D01*
X32800Y149800D02*
Y158500D01*
X35600Y161300D01*
X45600D01*
X53200Y168900D01*
X62000D01*
X161500Y61000D02*
X162500D01*
X167200Y65700D01*
X37850Y47650D02*
X41700Y51500D01*
X37850Y44111D02*
Y47650D01*
X42300Y33700D02*
X46400D01*
X165900Y86900D02*
X166050Y86750D01*
Y80250D02*
Y86750D01*
X153600Y73800D02*
X167100D01*
X167200Y73700D02*
Y79100D01*
X157400Y148600D02*
X163000Y154200D01*
X157100Y148600D02*
X157400D01*
X170400Y213000D02*
X181600D01*
X153370Y19800D02*
Y33200D01*
X154570Y21000D02*
X162339D01*
X153370Y19800D02*
X154570Y21000D01*
X153370Y33200D02*
X156914D01*
X160200Y36486D01*
Y39800D01*
X162339Y29000D02*
Y33139D01*
X163900Y34700D01*
X171700D01*
Y43200D01*
X174600Y46100D01*
X161700Y46300D02*
X166830D01*
Y39320D02*
Y46300D01*
X190300Y20400D02*
Y22300D01*
X195400Y27400D01*
X195700D01*
D34*
X197100Y15600D02*
X200500D01*
X200900Y10300D02*
X203200Y8000D01*
X200900Y10300D02*
Y37900D01*
X198300Y40500D02*
X200900Y37900D01*
X102400Y71400D02*
Y79950D01*
Y87100D01*
X53600Y143500D02*
Y157300D01*
X40800Y149800D02*
X47600D01*
X53500D01*
X61600Y110700D02*
X66500D01*
X69100Y108100D01*
Y101200D02*
Y108100D01*
X66100Y98200D02*
X69100Y101200D01*
X57900Y98200D02*
X63400D01*
X66100D01*
D35*
X35100Y71000D02*
Y75800D01*
Y82000D01*
X49600D01*
D36*
X26700Y77200D02*
Y82000D01*
X217250Y269350D02*
X218600Y270700D01*
X190449Y269350D02*
X217250D01*
D40*
X182800Y27300D02*
D03*
X192000Y40000D02*
D03*
X197100Y15600D02*
D03*
X168600Y16400D02*
D03*
X241600Y276900D02*
D03*
X245600Y268900D02*
D03*
X241600Y260900D02*
D03*
X245600Y252900D02*
D03*
X241600Y244900D02*
D03*
X245600Y236900D02*
D03*
X241600Y228900D02*
D03*
X245600Y188900D02*
D03*
X237600Y252900D02*
D03*
X233600Y244900D02*
D03*
X237600Y188900D02*
D03*
X229600Y252900D02*
D03*
Y188900D02*
D03*
X221600D02*
D03*
X213600D02*
D03*
X205600Y236900D02*
D03*
X201600Y228900D02*
D03*
X205600Y188900D02*
D03*
X197600Y172900D02*
D03*
X193600Y164900D02*
D03*
X197600Y156900D02*
D03*
X193600Y148900D02*
D03*
X197600Y140900D02*
D03*
X193600Y116900D02*
D03*
X197600Y108900D02*
D03*
Y92900D02*
D03*
X189600Y156900D02*
D03*
X181600D02*
D03*
X169600Y276900D02*
D03*
X153600Y116900D02*
D03*
X157600Y108900D02*
D03*
X145600Y276900D02*
D03*
Y116900D02*
D03*
X149600Y108900D02*
D03*
X141600Y172900D02*
D03*
X129600Y260900D02*
D03*
Y228900D02*
D03*
Y212900D02*
D03*
X125600Y268900D02*
D03*
X121600Y260900D02*
D03*
X125600Y252900D02*
D03*
Y236900D02*
D03*
X121600Y228900D02*
D03*
X125600Y220900D02*
D03*
X121600Y212900D02*
D03*
X125600Y172900D02*
D03*
X117600Y268900D02*
D03*
Y252900D02*
D03*
Y236900D02*
D03*
X113600Y180900D02*
D03*
X109600Y268900D02*
D03*
X105600Y180900D02*
D03*
X109600Y172900D02*
D03*
X101600Y268900D02*
D03*
X97600Y260900D02*
D03*
X89600D02*
D03*
X85600Y252900D02*
D03*
X81600Y244900D02*
D03*
Y228900D02*
D03*
X85600Y220900D02*
D03*
X73600Y244900D02*
D03*
X77600Y236900D02*
D03*
X73600Y212900D02*
D03*
X77600Y204900D02*
D03*
X69600Y268900D02*
D03*
Y236900D02*
D03*
Y220900D02*
D03*
X65600Y196900D02*
D03*
X69600Y188900D02*
D03*
X65600Y180900D02*
D03*
X61600Y268900D02*
D03*
X57600Y260900D02*
D03*
X61600Y220900D02*
D03*
Y204900D02*
D03*
Y188900D02*
D03*
X53600Y268900D02*
D03*
X49600Y260900D02*
D03*
X53600Y252900D02*
D03*
X49600Y212900D02*
D03*
Y196900D02*
D03*
Y180900D02*
D03*
X45600Y268900D02*
D03*
Y236900D02*
D03*
Y220900D02*
D03*
X41600Y212900D02*
D03*
X45600Y204900D02*
D03*
X41600Y196900D02*
D03*
X45600Y188900D02*
D03*
X41600Y180900D02*
D03*
X45600Y156900D02*
D03*
Y140900D02*
D03*
X21600Y284900D02*
D03*
X17600Y276900D02*
D03*
Y68900D02*
D03*
Y4900D02*
D03*
X13600Y268900D02*
D03*
X9600Y116900D02*
D03*
X13600Y60900D02*
D03*
Y12900D02*
D03*
X9600Y4900D02*
D03*
X20300Y31100D02*
D03*
X31600Y65000D02*
D03*
X60700Y56700D02*
D03*
X35100Y71000D02*
D03*
X22300Y44400D02*
D03*
X23800Y38900D02*
D03*
X39400Y35500D02*
D03*
X151650Y80150D02*
D03*
X146200Y57000D02*
D03*
X26700Y82000D02*
D03*
Y77200D02*
D03*
X234900Y292500D02*
D03*
X240000D02*
D03*
X44850Y82050D02*
D03*
X49650D02*
D03*
X35100Y75800D02*
D03*
X236000Y284000D02*
D03*
X240700D02*
D03*
X152400Y93500D02*
D03*
X102400Y79950D02*
D03*
X109700Y45000D02*
D03*
X88100Y54900D02*
D03*
X91700Y61200D02*
D03*
X93600Y52700D02*
D03*
X89400Y46400D02*
D03*
X101800Y24100D02*
D03*
X121700Y15600D02*
D03*
X67100Y40600D02*
D03*
X93700Y41800D02*
D03*
X79000Y26400D02*
D03*
X68100Y27700D02*
D03*
X140000Y92000D02*
D03*
X61300Y32700D02*
D03*
X176800Y92200D02*
D03*
X187700Y92000D02*
D03*
X188100Y146600D02*
D03*
X101900Y126600D02*
D03*
X90900Y126400D02*
D03*
X79900Y126500D02*
D03*
X135100Y199300D02*
D03*
X47600Y149800D02*
D03*
X63400Y98200D02*
D03*
X112200Y150600D02*
D03*
X138400Y142500D02*
D03*
X134900Y97000D02*
D03*
X126700Y98600D02*
D03*
X94500Y254700D02*
D03*
Y242700D02*
D03*
X42600Y254700D02*
D03*
X42500Y230700D02*
D03*
X97400Y162700D02*
D03*
X90900D02*
D03*
X84400Y162600D02*
D03*
Y146900D02*
D03*
X117375Y164375D02*
D03*
X182800Y175400D02*
D03*
Y184200D02*
D03*
X182600Y194200D02*
D03*
X148900Y208700D02*
D03*
X125100Y189200D02*
D03*
X139700Y184200D02*
D03*
X182500Y162900D02*
D03*
X148200Y162600D02*
D03*
X156900Y158100D02*
D03*
X117800Y126900D02*
D03*
X195900Y123000D02*
D03*
X196400Y131800D02*
D03*
X68900Y276700D02*
D03*
X79700Y267900D02*
D03*
X42600Y262400D02*
D03*
X42400Y246800D02*
D03*
X71900Y146900D02*
D03*
X74200Y128500D02*
D03*
X68000Y134900D02*
D03*
X169700Y97300D02*
D03*
X182500Y105200D02*
D03*
X156300Y207300D02*
D03*
X176650Y276450D02*
D03*
X163950Y276850D02*
D03*
X151250Y277050D02*
D03*
X33200Y15500D02*
D03*
X161800Y79700D02*
D03*
X131600Y23300D02*
D03*
X118900Y20700D02*
D03*
X137100Y23100D02*
D03*
X137400Y37300D02*
D03*
X129400Y37200D02*
D03*
X160200Y39800D02*
D03*
X148900Y89000D02*
D03*
X96500Y101500D02*
D03*
X48298Y27298D02*
D03*
X49800Y58400D02*
D03*
X181950Y148950D02*
D03*
X157000Y215000D02*
D03*
X22800Y59600D02*
D03*
X74500Y98800D02*
D03*
X81700D02*
D03*
X145000Y122900D02*
D03*
X151600Y129800D02*
D03*
X62000Y168900D02*
D03*
X161500Y61000D02*
D03*
X162700Y54300D02*
D03*
X116400Y72400D02*
D03*
X73500Y42000D02*
D03*
X43600Y45100D02*
D03*
X37850Y44111D02*
D03*
X197600Y184600D02*
D03*
X125500Y91500D02*
D03*
X96500Y18300D02*
D03*
X157100Y148600D02*
D03*
X198300Y40500D02*
D03*
X181600Y213000D02*
D03*
X190449Y269350D02*
D03*
X196800Y275100D02*
D03*
X166830Y39320D02*
D03*
X181700Y54200D02*
D03*
X179900Y39500D02*
D03*
D41*
X116400Y66000D02*
D03*
X127400D02*
D03*
X116400Y55000D02*
D03*
X127400D02*
D03*
X138400D02*
D03*
X116400Y44000D02*
D03*
X127400D02*
D03*
X138400D02*
D03*
Y66000D02*
D03*
D42*
X6000Y25400D02*
D03*
X244000Y215900D02*
D03*
X244000Y203200D02*
D03*
X6000Y76200D02*
D03*
X6000Y88900D02*
D03*
Y38100D02*
D03*
Y50800D02*
D03*
Y25400D02*
D03*
X244000Y215900D02*
D03*
X244000Y203200D02*
D03*
X6000Y76200D02*
D03*
X6000Y88900D02*
D03*
Y38100D02*
D03*
Y50800D02*
D03*
D43*
X152400Y6000D02*
D03*
X139700D02*
D03*
X165100Y6000D02*
D03*
X203200D02*
D03*
X63500Y6000D02*
D03*
X190500Y6000D02*
D03*
X177800Y6000D02*
D03*
X38100Y6000D02*
D03*
X25400Y6000D02*
D03*
X127000Y6000D02*
D03*
X50800D02*
D03*
X88900D02*
D03*
X101600D02*
D03*
X114300Y6000D02*
D03*
X76200Y6000D02*
D03*
X152400Y6000D02*
D03*
X139700D02*
D03*
X165100Y6000D02*
D03*
X203200D02*
D03*
X63500Y6000D02*
D03*
X190500Y6000D02*
D03*
X177800Y6000D02*
D03*
X38100Y6000D02*
D03*
X25400Y6000D02*
D03*
X127000Y6000D02*
D03*
X50800D02*
D03*
X88900D02*
D03*
X101600D02*
D03*
X114300Y6000D02*
D03*
X76200Y6000D02*
D03*
D44*
X218600Y210700D02*
D03*
Y270700D02*
D03*
D45*
X153000Y200450D02*
D03*
X158000D02*
D03*
X163000D02*
D03*
X168000D02*
D03*
Y172950D02*
D03*
X163000D02*
D03*
X158000D02*
D03*
X153000D02*
D03*
X185200Y115800D02*
D03*
X180200D02*
D03*
X175200D02*
D03*
X170200D02*
D03*
X165200D02*
D03*
Y138800D02*
D03*
X170200D02*
D03*
X175200D02*
D03*
X180200D02*
D03*
X185200D02*
D03*
D46*
X174250Y194200D02*
D03*
Y189200D02*
D03*
Y184200D02*
D03*
Y179200D02*
D03*
X146750D02*
D03*
Y184200D02*
D03*
Y189200D02*
D03*
Y194200D02*
D03*
X189200Y129800D02*
D03*
Y124800D02*
D03*
X161200D02*
D03*
Y129800D02*
D03*
D47*
X160500Y186700D02*
D03*
D48*
X176650Y224850D02*
D03*
X163950D02*
D03*
X151250D02*
D03*
X138550D02*
D03*
Y282350D02*
D03*
X151250D02*
D03*
X163950D02*
D03*
X176650D02*
D03*
D49*
X157600Y253600D02*
D03*
D50*
X97400Y137500D02*
D03*
X90900D02*
D03*
X84400D02*
D03*
Y156500D02*
D03*
X90900D02*
D03*
X97400D02*
D03*
D51*
X40100Y171950D02*
D03*
X76500D02*
D03*
D52*
X7300Y283200D02*
D03*
Y211200D02*
D03*
X109300D02*
D03*
Y283200D02*
D03*
D53*
X9300Y230700D02*
D03*
Y242700D02*
D03*
Y254700D02*
D03*
X107300D02*
D03*
Y242700D02*
D03*
Y230700D02*
D03*
D54*
X175200Y127300D02*
D03*
D55*
X122500Y142375D02*
D03*
X127500D02*
D03*
Y157625D02*
D03*
X122500D02*
D03*
D56*
X132625Y142500D02*
D03*
Y147500D02*
D03*
Y152500D02*
D03*
Y157500D02*
D03*
X117375D02*
D03*
Y152500D02*
D03*
Y147500D02*
D03*
Y142500D02*
D03*
D57*
X39000Y110700D02*
D03*
Y115700D02*
D03*
Y120700D02*
D03*
Y125700D02*
D03*
Y130700D02*
D03*
X61600Y110700D02*
D03*
Y115700D02*
D03*
Y120700D02*
D03*
Y125700D02*
D03*
Y130700D02*
D03*
D58*
X50300Y120700D02*
D03*
D59*
X15600Y129500D02*
D03*
Y104500D02*
D03*
D60*
X195700Y27400D02*
D03*
X173700Y28200D02*
D03*
D61*
X193700Y33900D02*
D03*
X197700D02*
D03*
X171700Y34700D02*
D03*
X175700D02*
D03*
M02*
