G04 Layer_Color=65535*
%FSLAX44Y44*%
%MOMM*%
G71*
G01*
G75*
%ADD32C,0.2000*%
%ADD38C,0.1500*%
%ADD62C,0.1000*%
%ADD63C,0.2500*%
%ADD64C,0.1200*%
%ADD65C,0.0800*%
D32*
X100400Y78000D02*
Y82000D01*
X104400D01*
X150400D02*
X154400D01*
Y78000D02*
Y82000D01*
Y28000D02*
Y32000D01*
X150400Y28000D02*
X154400D01*
X100400D02*
Y32000D01*
Y28000D02*
X104400D01*
X157400Y224900D02*
Y274900D01*
X136900Y224900D02*
X157400D01*
X136900D02*
Y274900D01*
X157400D01*
D38*
X45750Y79050D02*
G03*
X45750Y79050I-1000J0D01*
G01*
X11943Y275500D02*
G03*
X11943Y275500I-4243J0D01*
G01*
X204950Y236450D02*
Y241450D01*
Y257450D02*
Y262450D01*
Y236450D02*
X208950D01*
X230950Y243450D02*
Y255450D01*
X204950Y262450D02*
X208950D01*
X30750Y92050D02*
X40750D01*
X30750Y78050D02*
X40750D01*
X141400Y288500D02*
X169400D01*
X12400D02*
X39400D01*
X169400Y267500D02*
Y288500D01*
Y111500D02*
Y131500D01*
X141400Y111500D02*
X169400D01*
X12400D02*
X39400D01*
X12400D02*
Y131500D01*
Y267500D02*
Y288500D01*
D62*
X38600Y43600D02*
G03*
X38600Y43600I-500J0D01*
G01*
D63*
X96850Y77500D02*
G03*
X96850Y77500I-1250J0D01*
G01*
D64*
X65400Y57000D02*
Y82500D01*
X87000D01*
Y57000D02*
Y82500D01*
X65400Y57000D02*
X87000D01*
X181600Y53400D02*
Y84400D01*
X163600Y53400D02*
X181600D01*
X163600D02*
Y84400D01*
X181600D01*
X75000Y15600D02*
Y25600D01*
Y15600D02*
X91000D01*
Y25600D01*
X75000D02*
X91000D01*
X15300Y34100D02*
X25300D01*
X15300Y18100D02*
Y34100D01*
Y18100D02*
X25300D01*
Y34100D01*
X28100Y24700D02*
X38100D01*
Y40700D01*
X28100D02*
X38100D01*
X28100Y24700D02*
Y40700D01*
X191861Y271368D02*
Y281368D01*
Y271368D02*
X207861D01*
Y281368D01*
X191861D02*
X207861D01*
X208600Y296500D02*
X218600D01*
X208600Y280500D02*
Y296500D01*
Y280500D02*
X218600D01*
Y296500D01*
X107100Y98700D02*
X124100D01*
Y88700D02*
Y98700D01*
X107100Y88700D02*
Y98700D01*
Y88700D02*
X124100D01*
X85600Y98100D02*
X102600D01*
Y88100D02*
Y98100D01*
X85600Y88100D02*
Y98100D01*
Y88100D02*
X102600D01*
X163500Y14700D02*
Y24300D01*
X147900D02*
X163500D01*
X147900Y14700D02*
Y24300D01*
Y14700D02*
X163500D01*
X65000Y86300D02*
Y95900D01*
Y86300D02*
X80600D01*
Y95900D01*
X65000D02*
X80600D01*
X68200Y29700D02*
Y39300D01*
Y29700D02*
X83800D01*
Y39300D01*
X68200D02*
X83800D01*
X65400Y43100D02*
Y52700D01*
Y43100D02*
X81000D01*
Y52700D01*
X65400D02*
X81000D01*
X15600Y93800D02*
X25200D01*
X15600Y78200D02*
Y93800D01*
Y78200D02*
X25200D01*
Y93800D01*
X51600Y63500D02*
X61200D01*
Y79100D01*
X51600D02*
X61200D01*
X51600Y63500D02*
Y79100D01*
X185600Y90200D02*
X195200D01*
X185600Y74600D02*
Y90200D01*
Y74600D02*
X195200D01*
Y90200D01*
X185600Y55000D02*
X195200D01*
Y70600D01*
X185600D02*
X195200D01*
X185600Y55000D02*
Y70600D01*
D65*
X42800Y37900D02*
X55800D01*
X42800Y27900D02*
Y37900D01*
Y27900D02*
X55800D01*
Y37900D01*
X191700Y284800D02*
X204700D01*
Y294800D01*
X191700D02*
X204700D01*
X191700Y284800D02*
Y294800D01*
M02*
