G04 Layer_Color=16711935*
%FSLAX44Y44*%
%MOMM*%
G71*
G01*
G75*
%ADD78R,0.7800X0.5800*%
%ADD81R,0.5800X0.7800*%
%ADD97C,2.3800*%
%ADD98O,1.7300X1.1800*%
%ADD99O,1.1300X1.4300*%
%ADD100R,1.0800X1.0800*%
%ADD101R,1.0800X1.0800*%
%ADD102R,0.7800X0.7800*%
%ADD103R,1.1800X0.9800*%
%ADD104R,1.1800X1.9800*%
%ADD105R,1.2800X1.1800*%
%ADD106R,1.2800X1.8300*%
%ADD107R,3.1800X2.1800*%
%ADD108O,0.7800X1.1300*%
%ADD109R,4.3800X3.5800*%
%ADD110O,1.0800X0.4300*%
%ADD111O,0.4300X1.0800*%
%ADD112R,1.6800X1.1800*%
%ADD113R,1.0300X0.9300*%
G04:AMPARAMS|DCode=114|XSize=0.63mm|YSize=0.41mm|CornerRadius=0mm|HoleSize=0mm|Usage=FLASHONLY|Rotation=180.000|XOffset=0mm|YOffset=0mm|HoleType=Round|Shape=Octagon|*
%AMOCTAGOND114*
4,1,8,-0.3150,0.1025,-0.3150,-0.1025,-0.2125,-0.2050,0.2125,-0.2050,0.3150,-0.1025,0.3150,0.1025,0.2125,0.2050,-0.2125,0.2050,-0.3150,0.1025,0.0*
%
%ADD114OCTAGOND114*%

%ADD115C,0.4300*%
%ADD116R,0.5800X0.6800*%
%ADD117R,2.3300X1.4300*%
%ADD118R,0.4800X0.6800*%
%ADD119R,1.1800X1.9800*%
%ADD120R,0.3800X0.4300*%
%ADD121R,0.6800X0.4300*%
G36*
X50618Y156294D02*
X50733Y156271D01*
X50845Y156233D01*
X50951Y156181D01*
X51049Y156116D01*
X51138Y156038D01*
X51216Y155949D01*
X51281Y155851D01*
X51333Y155745D01*
X51371Y155633D01*
X51394Y155518D01*
X51402Y155400D01*
Y151400D01*
X51394Y151282D01*
X51383Y151224D01*
X51371Y151167D01*
X51352Y151111D01*
X51333Y151055D01*
X51281Y150949D01*
X51216Y150851D01*
X51138Y150762D01*
X51049Y150684D01*
X50951Y150619D01*
X50845Y150567D01*
X50789Y150548D01*
X50733Y150529D01*
X50676Y150517D01*
X50645Y150511D01*
X51138Y150018D01*
X51216Y149930D01*
X51281Y149832D01*
X51333Y149726D01*
X51371Y149614D01*
X51394Y149498D01*
X51402Y149381D01*
Y147381D01*
X51394Y147263D01*
X51371Y147147D01*
X51333Y147035D01*
X51281Y146930D01*
X51216Y146832D01*
X51138Y146743D01*
X51049Y146665D01*
X50951Y146600D01*
X50845Y146547D01*
X50733Y146509D01*
X50618Y146486D01*
X50500Y146479D01*
X46500D01*
X46382Y146486D01*
X46267Y146509D01*
X46155Y146547D01*
X46049Y146600D01*
X45951Y146665D01*
X45862Y146743D01*
X45785Y146832D01*
X45719Y146930D01*
X45667Y147035D01*
X45629Y147147D01*
X45606Y147263D01*
X45598Y147381D01*
Y149381D01*
X45606Y149498D01*
X45610Y149517D01*
X45629Y149614D01*
X45657Y149697D01*
X45667Y149726D01*
X45719Y149832D01*
X45785Y149930D01*
X45862Y150018D01*
X46355Y150511D01*
X46324Y150517D01*
X46267Y150529D01*
X46211Y150548D01*
X46155Y150567D01*
X46049Y150619D01*
X45951Y150684D01*
X45862Y150762D01*
X45785Y150851D01*
X45719Y150949D01*
X45667Y151055D01*
X45648Y151111D01*
X45629Y151167D01*
X45617Y151224D01*
X45606Y151282D01*
X45598Y151400D01*
Y155400D01*
X45606Y155518D01*
X45629Y155633D01*
X45667Y155745D01*
X45719Y155851D01*
X45785Y155949D01*
X45862Y156038D01*
X45951Y156116D01*
X46049Y156181D01*
X46155Y156233D01*
X46267Y156271D01*
X46382Y156294D01*
X46500Y156302D01*
X50500D01*
X50618Y156294D01*
D02*
G37*
G36*
X97418Y143094D02*
X97533Y143071D01*
X97645Y143033D01*
X97751Y142981D01*
X97849Y142915D01*
X97938Y142837D01*
X98016Y142749D01*
X98081Y142651D01*
X98133Y142545D01*
X98171Y142433D01*
X98194Y142317D01*
X98202Y142200D01*
Y140200D01*
X98194Y140082D01*
X98190Y140063D01*
X98171Y139966D01*
X98143Y139883D01*
X98133Y139855D01*
X98081Y139749D01*
X98016Y139651D01*
X97938Y139562D01*
X97445Y139069D01*
X97533Y139052D01*
X97617Y139023D01*
X97645Y139014D01*
X97751Y138961D01*
X97849Y138896D01*
X97938Y138818D01*
X98016Y138729D01*
X98081Y138631D01*
X98133Y138525D01*
X98143Y138497D01*
X98171Y138414D01*
X98190Y138317D01*
X98194Y138298D01*
X98202Y138180D01*
Y134180D01*
X98194Y134063D01*
X98171Y133947D01*
X98133Y133835D01*
X98081Y133729D01*
X98016Y133631D01*
X97938Y133543D01*
X97849Y133465D01*
X97751Y133399D01*
X97645Y133347D01*
X97533Y133309D01*
X97418Y133286D01*
X97300Y133278D01*
X93300D01*
X93182Y133286D01*
X93067Y133309D01*
X92955Y133347D01*
X92849Y133399D01*
X92751Y133465D01*
X92662Y133543D01*
X92584Y133631D01*
X92519Y133729D01*
X92467Y133835D01*
X92429Y133947D01*
X92406Y134063D01*
X92398Y134180D01*
Y138180D01*
X92406Y138298D01*
X92410Y138317D01*
X92429Y138414D01*
X92457Y138497D01*
X92467Y138525D01*
X92519Y138631D01*
X92584Y138729D01*
X92662Y138818D01*
X92751Y138896D01*
X92849Y138961D01*
X92955Y139014D01*
X92983Y139023D01*
X93067Y139052D01*
X93155Y139069D01*
X92662Y139562D01*
X92584Y139651D01*
X92519Y139749D01*
X92467Y139855D01*
X92429Y139966D01*
X92406Y140082D01*
X92398Y140200D01*
Y142200D01*
X92406Y142317D01*
X92429Y142433D01*
X92467Y142545D01*
X92519Y142651D01*
X92584Y142749D01*
X92662Y142837D01*
X92751Y142915D01*
X92849Y142981D01*
X92955Y143033D01*
X93067Y143071D01*
X93182Y143094D01*
X93300Y143102D01*
X97300D01*
X97418Y143094D01*
D02*
G37*
G36*
X67884Y156294D02*
X68000Y156271D01*
X68112Y156233D01*
X68218Y156181D01*
X68316Y156116D01*
X68404Y156038D01*
X68482Y155949D01*
X68548Y155851D01*
X68600Y155745D01*
X68638Y155633D01*
X68661Y155518D01*
X68669Y155400D01*
Y151400D01*
X68661Y151282D01*
X68649Y151224D01*
X68638Y151167D01*
X68619Y151111D01*
X68600Y151055D01*
X68548Y150949D01*
X68482Y150851D01*
X68404Y150762D01*
X68316Y150684D01*
X68218Y150619D01*
X68112Y150567D01*
X68056Y150548D01*
X68000Y150529D01*
X67942Y150517D01*
X67912Y150511D01*
X68404Y150018D01*
X68482Y149930D01*
X68548Y149832D01*
X68600Y149726D01*
X68638Y149614D01*
X68661Y149498D01*
X68669Y149381D01*
Y147381D01*
X68661Y147263D01*
X68638Y147147D01*
X68600Y147035D01*
X68548Y146930D01*
X68482Y146832D01*
X68404Y146743D01*
X68316Y146665D01*
X68218Y146600D01*
X68112Y146547D01*
X68000Y146509D01*
X67884Y146486D01*
X67767Y146479D01*
X63767D01*
X63649Y146486D01*
X63533Y146509D01*
X63422Y146547D01*
X63316Y146600D01*
X63218Y146665D01*
X63129Y146743D01*
X63051Y146832D01*
X62986Y146930D01*
X62933Y147035D01*
X62895Y147147D01*
X62873Y147263D01*
X62865Y147381D01*
Y149381D01*
X62873Y149498D01*
X62876Y149517D01*
X62895Y149614D01*
X62924Y149697D01*
X62933Y149726D01*
X62986Y149832D01*
X63051Y149930D01*
X63129Y150018D01*
X63622Y150511D01*
X63591Y150517D01*
X63533Y150529D01*
X63477Y150548D01*
X63422Y150567D01*
X63316Y150619D01*
X63218Y150684D01*
X63129Y150762D01*
X63051Y150851D01*
X62986Y150949D01*
X62933Y151055D01*
X62914Y151111D01*
X62895Y151167D01*
X62884Y151224D01*
X62873Y151282D01*
X62865Y151400D01*
Y155400D01*
X62873Y155518D01*
X62895Y155633D01*
X62933Y155745D01*
X62986Y155851D01*
X63051Y155949D01*
X63129Y156038D01*
X63218Y156116D01*
X63316Y156181D01*
X63422Y156233D01*
X63533Y156271D01*
X63649Y156294D01*
X63767Y156302D01*
X67767D01*
X67884Y156294D01*
D02*
G37*
G36*
X59251D02*
X59367Y156271D01*
X59479Y156233D01*
X59584Y156181D01*
X59682Y156116D01*
X59771Y156038D01*
X59849Y155949D01*
X59914Y155851D01*
X59967Y155745D01*
X60005Y155633D01*
X60027Y155518D01*
X60035Y155400D01*
Y151400D01*
X60027Y151282D01*
X60016Y151224D01*
X60005Y151167D01*
X59986Y151111D01*
X59967Y151055D01*
X59914Y150949D01*
X59849Y150851D01*
X59771Y150762D01*
X59682Y150684D01*
X59584Y150619D01*
X59479Y150567D01*
X59423Y150548D01*
X59367Y150529D01*
X59309Y150517D01*
X59278Y150511D01*
X59771Y150018D01*
X59849Y149930D01*
X59914Y149832D01*
X59967Y149726D01*
X60005Y149614D01*
X60027Y149498D01*
X60035Y149381D01*
Y147381D01*
X60027Y147263D01*
X60005Y147147D01*
X59967Y147035D01*
X59914Y146930D01*
X59849Y146832D01*
X59771Y146743D01*
X59682Y146665D01*
X59584Y146600D01*
X59479Y146547D01*
X59367Y146509D01*
X59251Y146486D01*
X59133Y146479D01*
X55133D01*
X55016Y146486D01*
X54900Y146509D01*
X54788Y146547D01*
X54682Y146600D01*
X54584Y146665D01*
X54496Y146743D01*
X54418Y146832D01*
X54352Y146930D01*
X54300Y147035D01*
X54262Y147147D01*
X54239Y147263D01*
X54231Y147381D01*
Y149381D01*
X54239Y149498D01*
X54251Y149556D01*
X54262Y149614D01*
X54281Y149670D01*
X54300Y149726D01*
X54352Y149832D01*
X54418Y149930D01*
X54496Y150018D01*
X54988Y150511D01*
X54958Y150517D01*
X54900Y150529D01*
X54844Y150548D01*
X54788Y150567D01*
X54682Y150619D01*
X54584Y150684D01*
X54496Y150762D01*
X54418Y150851D01*
X54352Y150949D01*
X54300Y151055D01*
X54281Y151111D01*
X54262Y151167D01*
X54251Y151224D01*
X54239Y151282D01*
X54231Y151400D01*
Y155400D01*
X54239Y155518D01*
X54262Y155633D01*
X54300Y155745D01*
X54352Y155851D01*
X54418Y155949D01*
X54496Y156038D01*
X54584Y156116D01*
X54682Y156181D01*
X54788Y156233D01*
X54900Y156271D01*
X55016Y156294D01*
X55133Y156302D01*
X59133D01*
X59251Y156294D01*
D02*
G37*
G36*
X-16082Y65694D02*
X-15967Y65671D01*
X-15855Y65633D01*
X-15749Y65581D01*
X-15651Y65516D01*
X-15562Y65438D01*
X-15484Y65349D01*
X-15419Y65251D01*
X-15367Y65145D01*
X-15329Y65033D01*
X-15306Y64918D01*
X-15298Y64800D01*
Y62800D01*
X-15306Y62682D01*
X-15310Y62663D01*
X-15329Y62567D01*
X-15357Y62483D01*
X-15367Y62455D01*
X-15419Y62349D01*
X-15484Y62251D01*
X-15562Y62162D01*
X-16055Y61669D01*
X-15967Y61652D01*
X-15883Y61624D01*
X-15855Y61614D01*
X-15749Y61562D01*
X-15651Y61496D01*
X-15562Y61418D01*
X-15484Y61330D01*
X-15419Y61232D01*
X-15367Y61126D01*
X-15357Y61097D01*
X-15329Y61014D01*
X-15310Y60918D01*
X-15306Y60898D01*
X-15298Y60781D01*
Y56781D01*
X-15306Y56663D01*
X-15329Y56547D01*
X-15367Y56435D01*
X-15419Y56330D01*
X-15484Y56231D01*
X-15562Y56143D01*
X-15651Y56065D01*
X-15749Y55999D01*
X-15855Y55947D01*
X-15967Y55909D01*
X-16082Y55886D01*
X-16200Y55879D01*
X-20200D01*
X-20318Y55886D01*
X-20433Y55909D01*
X-20545Y55947D01*
X-20651Y55999D01*
X-20749Y56065D01*
X-20838Y56143D01*
X-20916Y56231D01*
X-20981Y56330D01*
X-21033Y56435D01*
X-21071Y56547D01*
X-21094Y56663D01*
X-21102Y56781D01*
Y60781D01*
X-21094Y60898D01*
X-21090Y60918D01*
X-21071Y61014D01*
X-21043Y61097D01*
X-21033Y61126D01*
X-20981Y61232D01*
X-20916Y61330D01*
X-20838Y61418D01*
X-20749Y61496D01*
X-20651Y61562D01*
X-20545Y61614D01*
X-20517Y61624D01*
X-20433Y61652D01*
X-20345Y61669D01*
X-20838Y62162D01*
X-20916Y62251D01*
X-20981Y62349D01*
X-21033Y62455D01*
X-21071Y62566D01*
X-21094Y62682D01*
X-21102Y62800D01*
Y64800D01*
X-21094Y64918D01*
X-21071Y65033D01*
X-21033Y65145D01*
X-20981Y65251D01*
X-20916Y65349D01*
X-20838Y65438D01*
X-20749Y65516D01*
X-20651Y65581D01*
X-20545Y65633D01*
X-20433Y65671D01*
X-20318Y65694D01*
X-20200Y65702D01*
X-16200D01*
X-16082Y65694D01*
D02*
G37*
G36*
X64937Y21894D02*
X65053Y21871D01*
X65165Y21833D01*
X65270Y21781D01*
X65368Y21716D01*
X65457Y21638D01*
X65535Y21549D01*
X65601Y21451D01*
X65653Y21345D01*
X65691Y21233D01*
X65714Y21118D01*
X65721Y21000D01*
Y17000D01*
X65714Y16882D01*
X65691Y16767D01*
X65653Y16655D01*
X65601Y16549D01*
X65535Y16451D01*
X65457Y16362D01*
X65368Y16284D01*
X65270Y16219D01*
X65165Y16167D01*
X65053Y16129D01*
X64937Y16106D01*
X64819Y16098D01*
X62819D01*
X62702Y16106D01*
X62644Y16117D01*
X62586Y16129D01*
X62530Y16148D01*
X62474Y16167D01*
X62368Y16219D01*
X62270Y16284D01*
X62182Y16362D01*
X61689Y16855D01*
X61671Y16767D01*
X61643Y16683D01*
X61633Y16655D01*
X61581Y16549D01*
X61515Y16451D01*
X61438Y16362D01*
X61349Y16284D01*
X61251Y16219D01*
X61145Y16167D01*
X61117Y16157D01*
X61033Y16129D01*
X60937Y16110D01*
X60918Y16106D01*
X60800Y16098D01*
X56800D01*
X56682Y16106D01*
X56567Y16129D01*
X56455Y16167D01*
X56349Y16219D01*
X56251Y16284D01*
X56162Y16362D01*
X56084Y16451D01*
X56019Y16549D01*
X55967Y16655D01*
X55929Y16767D01*
X55906Y16882D01*
X55898Y17000D01*
Y21000D01*
X55906Y21118D01*
X55929Y21233D01*
X55967Y21345D01*
X56019Y21451D01*
X56084Y21549D01*
X56162Y21638D01*
X56251Y21716D01*
X56349Y21781D01*
X56455Y21833D01*
X56567Y21871D01*
X56682Y21894D01*
X56800Y21902D01*
X60800D01*
X60918Y21894D01*
X60937Y21890D01*
X61033Y21871D01*
X61117Y21843D01*
X61145Y21833D01*
X61251Y21781D01*
X61349Y21716D01*
X61438Y21638D01*
X61515Y21549D01*
X61581Y21451D01*
X61633Y21345D01*
X61643Y21317D01*
X61671Y21233D01*
X61689Y21145D01*
X62182Y21638D01*
X62270Y21716D01*
X62368Y21781D01*
X62474Y21833D01*
X62586Y21871D01*
X62702Y21894D01*
X62819Y21902D01*
X64819D01*
X64937Y21894D01*
D02*
G37*
G36*
X90018Y143094D02*
X90133Y143071D01*
X90245Y143033D01*
X90351Y142981D01*
X90449Y142915D01*
X90538Y142837D01*
X90616Y142749D01*
X90681Y142651D01*
X90733Y142545D01*
X90771Y142433D01*
X90794Y142317D01*
X90802Y142200D01*
Y140200D01*
X90794Y140082D01*
X90783Y140024D01*
X90771Y139966D01*
X90752Y139910D01*
X90733Y139855D01*
X90681Y139749D01*
X90616Y139651D01*
X90538Y139562D01*
X90045Y139069D01*
X90133Y139052D01*
X90217Y139023D01*
X90245Y139014D01*
X90351Y138961D01*
X90449Y138896D01*
X90538Y138818D01*
X90616Y138729D01*
X90681Y138631D01*
X90733Y138525D01*
X90743Y138497D01*
X90771Y138414D01*
X90790Y138317D01*
X90794Y138298D01*
X90802Y138180D01*
Y134180D01*
X90794Y134063D01*
X90771Y133947D01*
X90733Y133835D01*
X90681Y133729D01*
X90616Y133631D01*
X90538Y133543D01*
X90449Y133465D01*
X90351Y133399D01*
X90245Y133347D01*
X90133Y133309D01*
X90018Y133286D01*
X89900Y133278D01*
X85900D01*
X85782Y133286D01*
X85667Y133309D01*
X85555Y133347D01*
X85449Y133399D01*
X85351Y133465D01*
X85262Y133543D01*
X85184Y133631D01*
X85119Y133729D01*
X85067Y133835D01*
X85029Y133947D01*
X85006Y134063D01*
X84998Y134180D01*
Y138180D01*
X85006Y138298D01*
X85010Y138317D01*
X85029Y138414D01*
X85057Y138497D01*
X85067Y138525D01*
X85119Y138631D01*
X85184Y138729D01*
X85262Y138818D01*
X85351Y138896D01*
X85449Y138961D01*
X85555Y139014D01*
X85583Y139023D01*
X85667Y139052D01*
X85755Y139069D01*
X85262Y139562D01*
X85184Y139651D01*
X85119Y139749D01*
X85067Y139855D01*
X85029Y139966D01*
X85006Y140082D01*
X84998Y140200D01*
Y142200D01*
X85006Y142317D01*
X85029Y142433D01*
X85067Y142545D01*
X85119Y142651D01*
X85184Y142749D01*
X85262Y142837D01*
X85351Y142915D01*
X85449Y142981D01*
X85555Y143033D01*
X85667Y143071D01*
X85782Y143094D01*
X85900Y143102D01*
X89900D01*
X90018Y143094D01*
D02*
G37*
G36*
X-15982Y78575D02*
X-15867Y78552D01*
X-15755Y78514D01*
X-15649Y78462D01*
X-15551Y78396D01*
X-15462Y78318D01*
X-15384Y78230D01*
X-15319Y78132D01*
X-15267Y78026D01*
X-15229Y77914D01*
X-15206Y77798D01*
X-15198Y77681D01*
Y73681D01*
X-15206Y73563D01*
X-15217Y73505D01*
X-15229Y73447D01*
X-15248Y73391D01*
X-15267Y73335D01*
X-15319Y73230D01*
X-15384Y73132D01*
X-15462Y73043D01*
X-15551Y72965D01*
X-15649Y72899D01*
X-15755Y72847D01*
X-15811Y72828D01*
X-15867Y72809D01*
X-15924Y72798D01*
X-15955Y72792D01*
X-15462Y72299D01*
X-15384Y72210D01*
X-15319Y72112D01*
X-15267Y72006D01*
X-15229Y71895D01*
X-15206Y71779D01*
X-15198Y71661D01*
Y69661D01*
X-15206Y69543D01*
X-15229Y69428D01*
X-15267Y69316D01*
X-15319Y69210D01*
X-15384Y69112D01*
X-15462Y69023D01*
X-15551Y68946D01*
X-15649Y68880D01*
X-15755Y68828D01*
X-15867Y68790D01*
X-15982Y68767D01*
X-16100Y68759D01*
X-20100D01*
X-20218Y68767D01*
X-20333Y68790D01*
X-20445Y68828D01*
X-20551Y68880D01*
X-20649Y68946D01*
X-20738Y69023D01*
X-20815Y69112D01*
X-20881Y69210D01*
X-20933Y69316D01*
X-20971Y69428D01*
X-20994Y69543D01*
X-21002Y69661D01*
Y71661D01*
X-20994Y71779D01*
X-20983Y71837D01*
X-20971Y71895D01*
X-20952Y71950D01*
X-20933Y72006D01*
X-20881Y72112D01*
X-20815Y72210D01*
X-20738Y72299D01*
X-20245Y72792D01*
X-20275Y72798D01*
X-20333Y72809D01*
X-20389Y72828D01*
X-20445Y72847D01*
X-20551Y72899D01*
X-20649Y72965D01*
X-20738Y73043D01*
X-20815Y73132D01*
X-20881Y73230D01*
X-20933Y73335D01*
X-20952Y73391D01*
X-20971Y73447D01*
X-20983Y73505D01*
X-20994Y73563D01*
X-21002Y73681D01*
Y77681D01*
X-20994Y77798D01*
X-20971Y77914D01*
X-20933Y78026D01*
X-20881Y78132D01*
X-20815Y78230D01*
X-20738Y78318D01*
X-20649Y78396D01*
X-20551Y78462D01*
X-20445Y78514D01*
X-20333Y78552D01*
X-20218Y78575D01*
X-20100Y78583D01*
X-16100D01*
X-15982Y78575D01*
D02*
G37*
G36*
X76518Y156294D02*
X76633Y156271D01*
X76745Y156233D01*
X76851Y156181D01*
X76949Y156116D01*
X77038Y156038D01*
X77116Y155949D01*
X77181Y155851D01*
X77233Y155745D01*
X77271Y155633D01*
X77294Y155518D01*
X77302Y155400D01*
Y151400D01*
X77294Y151282D01*
X77283Y151224D01*
X77271Y151167D01*
X77252Y151111D01*
X77233Y151055D01*
X77181Y150949D01*
X77116Y150851D01*
X77038Y150762D01*
X76949Y150684D01*
X76851Y150619D01*
X76745Y150567D01*
X76689Y150548D01*
X76634Y150529D01*
X76576Y150517D01*
X76545Y150511D01*
X77038Y150018D01*
X77116Y149930D01*
X77181Y149832D01*
X77233Y149726D01*
X77271Y149614D01*
X77294Y149498D01*
X77302Y149381D01*
Y147381D01*
X77294Y147263D01*
X77271Y147147D01*
X77233Y147035D01*
X77181Y146930D01*
X77116Y146832D01*
X77038Y146743D01*
X76949Y146665D01*
X76851Y146600D01*
X76745Y146547D01*
X76633Y146509D01*
X76518Y146486D01*
X76400Y146479D01*
X72400D01*
X72282Y146486D01*
X72167Y146509D01*
X72055Y146547D01*
X71949Y146600D01*
X71851Y146665D01*
X71762Y146743D01*
X71684Y146832D01*
X71619Y146930D01*
X71567Y147035D01*
X71529Y147147D01*
X71506Y147263D01*
X71498Y147381D01*
Y149381D01*
X71506Y149498D01*
X71517Y149556D01*
X71529Y149614D01*
X71548Y149670D01*
X71567Y149726D01*
X71619Y149832D01*
X71684Y149930D01*
X71762Y150018D01*
X72255Y150511D01*
X72224Y150517D01*
X72167Y150529D01*
X72111Y150548D01*
X72055Y150567D01*
X71949Y150619D01*
X71851Y150684D01*
X71762Y150762D01*
X71684Y150851D01*
X71619Y150949D01*
X71567Y151055D01*
X71548Y151111D01*
X71529Y151167D01*
X71517Y151224D01*
X71506Y151282D01*
X71498Y151400D01*
Y155400D01*
X71506Y155518D01*
X71529Y155633D01*
X71567Y155745D01*
X71619Y155851D01*
X71684Y155949D01*
X71762Y156038D01*
X71851Y156116D01*
X71949Y156181D01*
X72055Y156233D01*
X72167Y156271D01*
X72282Y156294D01*
X72400Y156302D01*
X76400D01*
X76518Y156294D01*
D02*
G37*
G36*
X201544Y227679D02*
X201660Y227656D01*
X201772Y227618D01*
X201877Y227566D01*
X201975Y227500D01*
X202064Y227423D01*
X204892Y224594D01*
X204893Y224594D01*
X204970Y224505D01*
X205036Y224407D01*
X205088Y224301D01*
X205126Y224190D01*
X205149Y224074D01*
X205157Y223956D01*
X205149Y223839D01*
X205126Y223723D01*
X205088Y223611D01*
X205036Y223505D01*
X204970Y223407D01*
X204893Y223319D01*
X203479Y221905D01*
X203478Y221904D01*
X203390Y221827D01*
X203291Y221761D01*
X203186Y221709D01*
X203074Y221671D01*
X202958Y221648D01*
X202841Y221640D01*
X202840Y221640D01*
X202144D01*
X202161Y221614D01*
X202194Y221565D01*
X202246Y221459D01*
X202284Y221348D01*
X202307Y221232D01*
X202315Y221114D01*
X202307Y220996D01*
X202284Y220881D01*
X202256Y220797D01*
X202246Y220769D01*
X202220Y220716D01*
X202194Y220663D01*
X202161Y220614D01*
X202128Y220565D01*
X202050Y220476D01*
X202050Y220476D01*
X199222Y217648D01*
X199133Y217570D01*
X199035Y217505D01*
X198929Y217453D01*
X198891Y217440D01*
X198818Y217415D01*
X198771Y217405D01*
X198702Y217392D01*
X198584Y217384D01*
X198466Y217392D01*
X198402Y217404D01*
X198351Y217415D01*
X198239Y217453D01*
X198133Y217505D01*
X198035Y217570D01*
X197946Y217648D01*
X197946Y217648D01*
X195118Y220476D01*
X195040Y220565D01*
X194975Y220663D01*
X194923Y220769D01*
X194885Y220881D01*
X194862Y220996D01*
X194854Y221114D01*
X194862Y221232D01*
X194885Y221348D01*
X194923Y221459D01*
X194975Y221565D01*
X195040Y221663D01*
X195118Y221752D01*
X195118Y221752D01*
X197946Y224580D01*
X198035Y224658D01*
X198133Y224724D01*
X198239Y224776D01*
X198267Y224785D01*
X198351Y224814D01*
X198447Y224833D01*
X198466Y224837D01*
X198584Y224845D01*
X198702Y224837D01*
X198721Y224833D01*
X198818Y224814D01*
X198901Y224785D01*
X198929Y224776D01*
X199035Y224724D01*
X199110Y224674D01*
Y225371D01*
X199118Y225488D01*
X199122Y225508D01*
X199141Y225604D01*
X199169Y225687D01*
X199179Y225716D01*
X199231Y225821D01*
X199297Y225920D01*
X199374Y226008D01*
X200788Y227422D01*
X200789Y227423D01*
X200877Y227500D01*
X200975Y227566D01*
X201081Y227618D01*
X201148Y227641D01*
X201193Y227656D01*
X201244Y227666D01*
X201309Y227679D01*
X201426Y227687D01*
X201544Y227679D01*
D02*
G37*
G36*
X231348Y218486D02*
X231463Y218463D01*
X231575Y218425D01*
X231681Y218373D01*
X231779Y218307D01*
X231868Y218230D01*
X231945Y218141D01*
X232011Y218043D01*
X232063Y217937D01*
X232101Y217825D01*
X232124Y217710D01*
X232132Y217592D01*
Y213592D01*
X232124Y213474D01*
X232101Y213358D01*
X232063Y213247D01*
X232011Y213141D01*
X231945Y213043D01*
X231868Y212954D01*
X231779Y212876D01*
X231681Y212811D01*
X231575Y212759D01*
X231463Y212721D01*
X231348Y212698D01*
X231230Y212690D01*
X227230D01*
X227112Y212698D01*
X227054Y212709D01*
X226996Y212721D01*
X226941Y212740D01*
X226885Y212759D01*
X226779Y212811D01*
X226681Y212876D01*
X226592Y212954D01*
X226514Y213043D01*
X226449Y213141D01*
X226397Y213247D01*
X226378Y213302D01*
X226359Y213358D01*
X226347Y213416D01*
X226341Y213447D01*
X225848Y212954D01*
X225760Y212876D01*
X225662Y212811D01*
X225556Y212759D01*
X225444Y212721D01*
X225328Y212698D01*
X225211Y212690D01*
X223211D01*
X223093Y212698D01*
X222977Y212721D01*
X222865Y212759D01*
X222760Y212811D01*
X222661Y212876D01*
X222573Y212954D01*
X222495Y213043D01*
X222430Y213141D01*
X222377Y213247D01*
X222339Y213358D01*
X222316Y213474D01*
X222309Y213592D01*
Y217592D01*
X222316Y217710D01*
X222339Y217825D01*
X222377Y217937D01*
X222430Y218043D01*
X222495Y218141D01*
X222573Y218230D01*
X222661Y218307D01*
X222760Y218373D01*
X222865Y218425D01*
X222977Y218463D01*
X223093Y218486D01*
X223211Y218494D01*
X225211D01*
X225328Y218486D01*
X225347Y218482D01*
X225444Y218463D01*
X225527Y218435D01*
X225556Y218425D01*
X225662Y218373D01*
X225760Y218307D01*
X225848Y218230D01*
X226341Y217737D01*
X226347Y217767D01*
X226359Y217825D01*
X226378Y217881D01*
X226397Y217937D01*
X226449Y218043D01*
X226514Y218141D01*
X226592Y218230D01*
X226681Y218307D01*
X226779Y218373D01*
X226885Y218425D01*
X226941Y218444D01*
X226996Y218463D01*
X227054Y218475D01*
X227112Y218486D01*
X227230Y218494D01*
X231230D01*
X231348Y218486D01*
D02*
G37*
G36*
X193918Y256794D02*
X194033Y256771D01*
X194145Y256733D01*
X194251Y256681D01*
X194349Y256616D01*
X194438Y256538D01*
X194515Y256449D01*
X194581Y256351D01*
X194633Y256245D01*
X194671Y256133D01*
X194694Y256018D01*
X194702Y255900D01*
Y251900D01*
X194694Y251782D01*
X194683Y251724D01*
X194671Y251667D01*
X194652Y251611D01*
X194633Y251555D01*
X194581Y251449D01*
X194515Y251351D01*
X194438Y251262D01*
X194349Y251184D01*
X194251Y251119D01*
X194145Y251067D01*
X194089Y251048D01*
X194033Y251029D01*
X193976Y251017D01*
X193945Y251011D01*
X194438Y250518D01*
X194515Y250430D01*
X194581Y250332D01*
X194633Y250226D01*
X194671Y250114D01*
X194694Y249998D01*
X194702Y249881D01*
Y247881D01*
X194694Y247763D01*
X194671Y247647D01*
X194633Y247535D01*
X194581Y247430D01*
X194515Y247332D01*
X194438Y247243D01*
X194349Y247165D01*
X194251Y247099D01*
X194145Y247047D01*
X194033Y247009D01*
X193918Y246986D01*
X193800Y246979D01*
X189800D01*
X189682Y246986D01*
X189567Y247009D01*
X189455Y247047D01*
X189349Y247099D01*
X189251Y247165D01*
X189162Y247243D01*
X189084Y247332D01*
X189019Y247430D01*
X188967Y247535D01*
X188929Y247647D01*
X188906Y247763D01*
X188898Y247881D01*
Y249881D01*
X188906Y249998D01*
X188910Y250018D01*
X188929Y250114D01*
X188957Y250197D01*
X188967Y250226D01*
X189019Y250331D01*
X189084Y250430D01*
X189162Y250518D01*
X189655Y251011D01*
X189624Y251017D01*
X189566Y251029D01*
X189511Y251048D01*
X189455Y251067D01*
X189349Y251119D01*
X189251Y251184D01*
X189162Y251262D01*
X189084Y251351D01*
X189019Y251449D01*
X188967Y251555D01*
X188948Y251611D01*
X188929Y251667D01*
X188917Y251724D01*
X188906Y251782D01*
X188898Y251900D01*
Y255900D01*
X188906Y256018D01*
X188929Y256133D01*
X188967Y256245D01*
X189019Y256351D01*
X189084Y256449D01*
X189162Y256538D01*
X189251Y256616D01*
X189349Y256681D01*
X189455Y256733D01*
X189567Y256771D01*
X189682Y256794D01*
X189800Y256802D01*
X193800D01*
X193918Y256794D01*
D02*
G37*
G36*
X220427Y225534D02*
X220543Y225511D01*
X220655Y225473D01*
X220760Y225421D01*
X220858Y225355D01*
X220947Y225278D01*
X221025Y225189D01*
X221091Y225091D01*
X221143Y224985D01*
X221181Y224873D01*
X221204Y224758D01*
X221211Y224640D01*
Y220640D01*
X221204Y220522D01*
X221181Y220407D01*
X221143Y220295D01*
X221091Y220189D01*
X221025Y220091D01*
X220947Y220002D01*
X220858Y219925D01*
X220760Y219859D01*
X220655Y219807D01*
X220543Y219769D01*
X220427Y219746D01*
X220309Y219738D01*
X218309D01*
X218192Y219746D01*
X218172Y219750D01*
X218076Y219769D01*
X217993Y219797D01*
X217964Y219807D01*
X217858Y219859D01*
X217760Y219925D01*
X217672Y220002D01*
X217179Y220495D01*
X217173Y220464D01*
X217161Y220406D01*
X217142Y220351D01*
X217123Y220295D01*
X217071Y220189D01*
X217006Y220091D01*
X216928Y220002D01*
X216839Y219925D01*
X216741Y219859D01*
X216635Y219807D01*
X216579Y219788D01*
X216523Y219769D01*
X216466Y219757D01*
X216408Y219746D01*
X216290Y219738D01*
X212290D01*
X212172Y219746D01*
X212057Y219769D01*
X211945Y219807D01*
X211839Y219859D01*
X211741Y219925D01*
X211652Y220002D01*
X211574Y220091D01*
X211509Y220189D01*
X211457Y220295D01*
X211419Y220407D01*
X211396Y220522D01*
X211388Y220640D01*
Y224640D01*
X211396Y224758D01*
X211419Y224873D01*
X211457Y224985D01*
X211509Y225091D01*
X211574Y225189D01*
X211652Y225278D01*
X211741Y225355D01*
X211839Y225421D01*
X211945Y225473D01*
X212057Y225511D01*
X212172Y225534D01*
X212290Y225542D01*
X216290D01*
X216408Y225534D01*
X216466Y225523D01*
X216523Y225511D01*
X216579Y225492D01*
X216635Y225473D01*
X216741Y225421D01*
X216839Y225355D01*
X216928Y225278D01*
X217006Y225189D01*
X217071Y225091D01*
X217123Y224985D01*
X217142Y224929D01*
X217161Y224873D01*
X217173Y224816D01*
X217179Y224785D01*
X217672Y225278D01*
X217760Y225355D01*
X217858Y225421D01*
X217964Y225473D01*
X218076Y225511D01*
X218192Y225534D01*
X218309Y225542D01*
X220309D01*
X220427Y225534D01*
D02*
G37*
G36*
X149398Y198284D02*
X149513Y198261D01*
X149625Y198223D01*
X149731Y198171D01*
X149829Y198106D01*
X149918Y198028D01*
X149995Y197939D01*
X150061Y197841D01*
X150113Y197735D01*
X150151Y197623D01*
X150174Y197508D01*
X150182Y197390D01*
Y193390D01*
X150174Y193272D01*
X150163Y193214D01*
X150151Y193157D01*
X150132Y193101D01*
X150113Y193045D01*
X150061Y192939D01*
X149995Y192841D01*
X149918Y192752D01*
X149829Y192675D01*
X149731Y192609D01*
X149625Y192557D01*
X149569Y192538D01*
X149513Y192519D01*
X149456Y192507D01*
X149425Y192501D01*
X149918Y192008D01*
X149995Y191920D01*
X150061Y191822D01*
X150113Y191716D01*
X150151Y191604D01*
X150174Y191488D01*
X150182Y191371D01*
Y189371D01*
X150174Y189253D01*
X150151Y189137D01*
X150113Y189025D01*
X150061Y188920D01*
X149995Y188822D01*
X149918Y188733D01*
X149829Y188655D01*
X149731Y188589D01*
X149625Y188537D01*
X149513Y188499D01*
X149398Y188476D01*
X149280Y188469D01*
X145280D01*
X145162Y188476D01*
X145047Y188499D01*
X144935Y188537D01*
X144829Y188589D01*
X144731Y188655D01*
X144642Y188733D01*
X144565Y188822D01*
X144499Y188920D01*
X144447Y189025D01*
X144409Y189137D01*
X144386Y189253D01*
X144378Y189371D01*
Y191371D01*
X144386Y191488D01*
X144390Y191507D01*
X144409Y191604D01*
X144437Y191687D01*
X144447Y191716D01*
X144499Y191822D01*
X144565Y191920D01*
X144642Y192008D01*
X145135Y192501D01*
X145104Y192507D01*
X145047Y192519D01*
X144991Y192538D01*
X144935Y192557D01*
X144829Y192609D01*
X144731Y192675D01*
X144642Y192752D01*
X144565Y192841D01*
X144499Y192939D01*
X144447Y193045D01*
X144428Y193101D01*
X144409Y193157D01*
X144397Y193214D01*
X144386Y193272D01*
X144378Y193390D01*
Y197390D01*
X144386Y197508D01*
X144409Y197623D01*
X144447Y197735D01*
X144499Y197841D01*
X144565Y197939D01*
X144642Y198028D01*
X144731Y198106D01*
X144829Y198171D01*
X144935Y198223D01*
X145047Y198261D01*
X145162Y198284D01*
X145280Y198292D01*
X149280D01*
X149398Y198284D01*
D02*
G37*
G36*
X140758D02*
X140873Y198261D01*
X140985Y198223D01*
X141091Y198171D01*
X141189Y198106D01*
X141278Y198028D01*
X141355Y197939D01*
X141421Y197841D01*
X141473Y197735D01*
X141511Y197623D01*
X141534Y197508D01*
X141542Y197390D01*
Y193390D01*
X141534Y193272D01*
X141523Y193214D01*
X141511Y193157D01*
X141492Y193101D01*
X141473Y193045D01*
X141421Y192939D01*
X141355Y192841D01*
X141278Y192752D01*
X141189Y192675D01*
X141091Y192609D01*
X140985Y192557D01*
X140929Y192538D01*
X140873Y192519D01*
X140815Y192507D01*
X140785Y192501D01*
X141278Y192008D01*
X141355Y191920D01*
X141421Y191822D01*
X141473Y191716D01*
X141511Y191604D01*
X141534Y191488D01*
X141542Y191371D01*
Y189371D01*
X141534Y189253D01*
X141511Y189137D01*
X141473Y189025D01*
X141421Y188920D01*
X141355Y188822D01*
X141278Y188733D01*
X141189Y188655D01*
X141091Y188589D01*
X140985Y188537D01*
X140873Y188499D01*
X140758Y188476D01*
X140640Y188469D01*
X136640D01*
X136522Y188476D01*
X136407Y188499D01*
X136295Y188537D01*
X136189Y188589D01*
X136091Y188655D01*
X136002Y188733D01*
X135924Y188822D01*
X135859Y188920D01*
X135807Y189025D01*
X135769Y189137D01*
X135746Y189253D01*
X135738Y189371D01*
Y191371D01*
X135746Y191488D01*
X135750Y191507D01*
X135769Y191604D01*
X135797Y191687D01*
X135807Y191716D01*
X135859Y191822D01*
X135924Y191920D01*
X136002Y192008D01*
X136495Y192501D01*
X136464Y192507D01*
X136406Y192519D01*
X136351Y192538D01*
X136295Y192557D01*
X136189Y192609D01*
X136091Y192675D01*
X136002Y192752D01*
X135924Y192841D01*
X135859Y192939D01*
X135807Y193045D01*
X135788Y193101D01*
X135769Y193157D01*
X135757Y193214D01*
X135746Y193272D01*
X135738Y193390D01*
Y197390D01*
X135746Y197508D01*
X135769Y197623D01*
X135807Y197735D01*
X135859Y197841D01*
X135924Y197939D01*
X136002Y198028D01*
X136091Y198106D01*
X136189Y198171D01*
X136295Y198223D01*
X136407Y198261D01*
X136522Y198284D01*
X136640Y198292D01*
X140640D01*
X140758Y198284D01*
D02*
G37*
G36*
X167328D02*
X167443Y198261D01*
X167555Y198223D01*
X167661Y198171D01*
X167759Y198106D01*
X167848Y198028D01*
X167925Y197939D01*
X167991Y197841D01*
X168043Y197735D01*
X168081Y197623D01*
X168104Y197508D01*
X168112Y197390D01*
Y193390D01*
X168104Y193272D01*
X168093Y193214D01*
X168081Y193157D01*
X168062Y193101D01*
X168043Y193045D01*
X167991Y192939D01*
X167925Y192841D01*
X167848Y192752D01*
X167759Y192675D01*
X167661Y192609D01*
X167555Y192557D01*
X167499Y192538D01*
X167444Y192519D01*
X167386Y192507D01*
X167355Y192501D01*
X167848Y192008D01*
X167925Y191920D01*
X167991Y191822D01*
X168043Y191716D01*
X168081Y191604D01*
X168104Y191488D01*
X168112Y191371D01*
Y189371D01*
X168104Y189253D01*
X168081Y189137D01*
X168043Y189025D01*
X167991Y188920D01*
X167925Y188822D01*
X167848Y188733D01*
X167759Y188655D01*
X167661Y188589D01*
X167555Y188537D01*
X167443Y188499D01*
X167328Y188476D01*
X167210Y188469D01*
X163210D01*
X163092Y188476D01*
X162977Y188499D01*
X162865Y188537D01*
X162759Y188589D01*
X162661Y188655D01*
X162572Y188733D01*
X162495Y188822D01*
X162429Y188920D01*
X162377Y189025D01*
X162339Y189137D01*
X162316Y189253D01*
X162308Y189371D01*
Y191371D01*
X162316Y191488D01*
X162320Y191507D01*
X162339Y191604D01*
X162367Y191687D01*
X162377Y191716D01*
X162429Y191822D01*
X162495Y191920D01*
X162572Y192008D01*
X163065Y192501D01*
X163034Y192507D01*
X162977Y192519D01*
X162921Y192538D01*
X162865Y192557D01*
X162759Y192609D01*
X162661Y192675D01*
X162572Y192752D01*
X162495Y192841D01*
X162429Y192939D01*
X162377Y193045D01*
X162358Y193101D01*
X162339Y193157D01*
X162327Y193214D01*
X162316Y193272D01*
X162308Y193390D01*
Y197390D01*
X162316Y197508D01*
X162339Y197623D01*
X162377Y197735D01*
X162429Y197841D01*
X162495Y197939D01*
X162572Y198028D01*
X162661Y198106D01*
X162759Y198171D01*
X162865Y198223D01*
X162977Y198261D01*
X163092Y198284D01*
X163210Y198292D01*
X167210D01*
X167328Y198284D01*
D02*
G37*
G36*
X158518D02*
X158633Y198261D01*
X158745Y198223D01*
X158851Y198171D01*
X158949Y198106D01*
X159038Y198028D01*
X159115Y197939D01*
X159181Y197841D01*
X159233Y197735D01*
X159271Y197623D01*
X159294Y197508D01*
X159302Y197390D01*
Y193390D01*
X159294Y193272D01*
X159283Y193214D01*
X159271Y193157D01*
X159252Y193101D01*
X159233Y193045D01*
X159181Y192939D01*
X159115Y192841D01*
X159038Y192752D01*
X158949Y192675D01*
X158851Y192609D01*
X158745Y192557D01*
X158689Y192538D01*
X158633Y192519D01*
X158576Y192507D01*
X158545Y192501D01*
X159038Y192008D01*
X159115Y191920D01*
X159181Y191822D01*
X159233Y191716D01*
X159271Y191604D01*
X159294Y191488D01*
X159302Y191371D01*
Y189371D01*
X159294Y189253D01*
X159271Y189137D01*
X159233Y189025D01*
X159181Y188920D01*
X159115Y188822D01*
X159038Y188733D01*
X158949Y188655D01*
X158851Y188589D01*
X158745Y188537D01*
X158633Y188499D01*
X158518Y188476D01*
X158400Y188469D01*
X154400D01*
X154282Y188476D01*
X154167Y188499D01*
X154055Y188537D01*
X153949Y188589D01*
X153851Y188655D01*
X153762Y188733D01*
X153685Y188822D01*
X153619Y188920D01*
X153567Y189025D01*
X153529Y189137D01*
X153506Y189253D01*
X153498Y189371D01*
Y191371D01*
X153506Y191488D01*
X153517Y191546D01*
X153529Y191604D01*
X153548Y191660D01*
X153567Y191716D01*
X153619Y191822D01*
X153685Y191920D01*
X153762Y192008D01*
X154255Y192501D01*
X154224Y192507D01*
X154166Y192519D01*
X154111Y192538D01*
X154055Y192557D01*
X153949Y192609D01*
X153851Y192675D01*
X153762Y192752D01*
X153685Y192841D01*
X153619Y192939D01*
X153567Y193045D01*
X153548Y193101D01*
X153529Y193157D01*
X153517Y193214D01*
X153506Y193272D01*
X153498Y193390D01*
Y197390D01*
X153506Y197508D01*
X153529Y197623D01*
X153567Y197735D01*
X153619Y197841D01*
X153685Y197939D01*
X153762Y198028D01*
X153851Y198106D01*
X153949Y198171D01*
X154055Y198223D01*
X154167Y198261D01*
X154282Y198284D01*
X154400Y198292D01*
X158400D01*
X158518Y198284D01*
D02*
G37*
D78*
X-6300Y67900D02*
D03*
Y75900D02*
D03*
X177710Y66800D02*
D03*
Y74800D02*
D03*
X147600Y106200D02*
D03*
Y98200D02*
D03*
X178000Y46000D02*
D03*
Y54000D02*
D03*
X113000Y68400D02*
D03*
Y76400D02*
D03*
X113150Y100550D02*
D03*
Y92550D02*
D03*
X230200Y198000D02*
D03*
Y206000D02*
D03*
X132700Y97600D02*
D03*
Y106600D02*
D03*
X133430Y72050D02*
D03*
Y81050D02*
D03*
X189970Y276950D02*
D03*
Y268950D02*
D03*
X19200Y107200D02*
D03*
Y99200D02*
D03*
X178400Y34000D02*
D03*
Y26000D02*
D03*
D81*
X152200Y65900D02*
D03*
X160200D02*
D03*
X15400Y58200D02*
D03*
X7400D02*
D03*
X87800Y22100D02*
D03*
X95800D02*
D03*
X133980Y283980D02*
D03*
X141980D02*
D03*
X151510Y82380D02*
D03*
X159510D02*
D03*
D97*
X235000Y285000D02*
D03*
X15000Y15000D02*
D03*
D98*
X-54900Y113800D02*
D03*
Y183800D02*
D03*
D99*
X-27900Y123800D02*
D03*
Y173800D02*
D03*
D100*
X-7000Y51000D02*
D03*
Y36000D02*
D03*
X40000Y8000D02*
D03*
X52700D02*
D03*
X65400D02*
D03*
X78100D02*
D03*
X90800Y7990D02*
D03*
X103500Y8000D02*
D03*
X217700Y292000D02*
D03*
X242000Y206000D02*
D03*
X141600Y8000D02*
D03*
X-19000Y97000D02*
D03*
X-35000D02*
D03*
D101*
X205000Y292000D02*
D03*
X242000Y191000D02*
D03*
X128900Y8000D02*
D03*
X116200D02*
D03*
X154300D02*
D03*
X167000D02*
D03*
X179700D02*
D03*
D102*
X6300Y39300D02*
D03*
X28300D02*
D03*
D103*
X110460Y230570D02*
D03*
Y242570D02*
D03*
Y254570D02*
D03*
X12460D02*
D03*
Y242570D02*
D03*
Y230570D02*
D03*
D104*
X112460Y283070D02*
D03*
Y211070D02*
D03*
X10460D02*
D03*
Y283070D02*
D03*
D105*
X79660Y171820D02*
D03*
X43260D02*
D03*
D106*
X207460Y237620D02*
D03*
X240460D02*
D03*
X207340Y258760D02*
D03*
X240340D02*
D03*
D107*
X57400Y37400D02*
D03*
Y97400D02*
D03*
D108*
X173750Y213210D02*
D03*
X161050D02*
D03*
X148350D02*
D03*
X135650D02*
D03*
Y270710D02*
D03*
X148350D02*
D03*
X161050D02*
D03*
X173750D02*
D03*
D109*
X154700Y241960D02*
D03*
D110*
X113090Y142590D02*
D03*
Y147590D02*
D03*
X141090D02*
D03*
Y142590D02*
D03*
D111*
X117090Y156590D02*
D03*
X122090D02*
D03*
X127090D02*
D03*
X132090D02*
D03*
X137090D02*
D03*
Y133590D02*
D03*
X132090D02*
D03*
X127090D02*
D03*
X122090D02*
D03*
X117090D02*
D03*
D112*
X127090Y145090D02*
D03*
D113*
X171980Y97680D02*
D03*
Y108180D02*
D03*
X185480D02*
D03*
Y97680D02*
D03*
D114*
X218700Y202700D02*
D03*
Y209200D02*
D03*
X210400Y202700D02*
D03*
Y209200D02*
D03*
D115*
X214550Y205950D02*
D03*
D116*
X72200Y118900D02*
D03*
X65700D02*
D03*
X59200D02*
D03*
Y137900D02*
D03*
X65700D02*
D03*
X72200D02*
D03*
D117*
X17300Y79400D02*
D03*
D118*
X27300Y68100D02*
D03*
X22300D02*
D03*
X17300D02*
D03*
X12300D02*
D03*
X7300D02*
D03*
X27300Y90700D02*
D03*
X22300D02*
D03*
X17300D02*
D03*
X12300D02*
D03*
X7300D02*
D03*
D119*
X32600Y123500D02*
D03*
X7600D02*
D03*
D120*
X32000Y104800D02*
D03*
X28000D02*
D03*
D121*
X30000Y98300D02*
D03*
M02*
