G04 Layer_Color=16711935*
%FSLAX44Y44*%
%MOMM*%
G71*
G01*
G75*
%ADD46R,0.8000X1.2000*%
%ADD47R,1.2000X0.8000*%
%ADD64R,0.8032X0.6032*%
%ADD66R,0.6032X0.8032*%
%ADD70R,0.7032X0.4532*%
%ADD71R,0.4032X0.4532*%
%ADD81C,0.8032*%
G04:AMPARAMS|DCode=82|XSize=0.6032mm|YSize=0.8032mm|CornerRadius=0mm|HoleSize=0mm|Usage=FLASHONLY|Rotation=315.000|XOffset=0mm|YOffset=0mm|HoleType=Round|Shape=Rectangle|*
%AMROTATEDRECTD82*
4,1,4,-0.4972,-0.0707,0.0707,0.4972,0.4972,0.0707,-0.0707,-0.4972,-0.4972,-0.0707,0.0*
%
%ADD82ROTATEDRECTD82*%

%ADD83R,2.4032X1.2532*%
%ADD84R,1.2532X1.2032*%
%ADD85R,0.5282X0.5032*%
%ADD86R,0.5032X0.5282*%
%ADD87R,1.4532X1.2032*%
%ADD88C,0.7032*%
%ADD89R,0.7032X0.6032*%
G36*
X130433Y111729D02*
X130563Y111703D01*
X130690Y111660D01*
X130809Y111601D01*
X130920Y111527D01*
X131020Y111439D01*
X131108Y111339D01*
X131182Y111229D01*
X131241Y111109D01*
X131284Y110983D01*
X131309Y110852D01*
X131318Y110719D01*
Y106719D01*
X131309Y106587D01*
X131284Y106456D01*
X131241Y106330D01*
X131182Y106210D01*
X131108Y106100D01*
X131020Y105999D01*
X130920Y105912D01*
X130809Y105838D01*
X130690Y105779D01*
X130668Y105772D01*
X131020Y105420D01*
X131108Y105320D01*
X131182Y105209D01*
X131241Y105090D01*
X131284Y104964D01*
X131309Y104833D01*
X131318Y104700D01*
Y102700D01*
X131309Y102567D01*
X131284Y102436D01*
X131241Y102310D01*
X131182Y102191D01*
X131108Y102080D01*
X131020Y101980D01*
X130920Y101892D01*
X130809Y101818D01*
X130690Y101759D01*
X130563Y101716D01*
X130433Y101691D01*
X130300Y101682D01*
X126300D01*
X126167Y101691D01*
X126037Y101716D01*
X125910Y101759D01*
X125791Y101818D01*
X125680Y101892D01*
X125580Y101980D01*
X125492Y102080D01*
X125418Y102191D01*
X125359Y102310D01*
X125316Y102436D01*
X125290Y102567D01*
X125282Y102700D01*
Y104700D01*
X125290Y104833D01*
X125316Y104964D01*
X125359Y105090D01*
X125418Y105209D01*
X125492Y105320D01*
X125580Y105420D01*
X125932Y105772D01*
X125910Y105779D01*
X125791Y105838D01*
X125680Y105912D01*
X125580Y105999D01*
X125492Y106100D01*
X125418Y106210D01*
X125359Y106330D01*
X125316Y106456D01*
X125290Y106587D01*
X125282Y106719D01*
Y110719D01*
X125290Y110852D01*
X125316Y110983D01*
X125359Y111109D01*
X125418Y111229D01*
X125492Y111339D01*
X125580Y111439D01*
X125680Y111527D01*
X125791Y111601D01*
X125910Y111660D01*
X126037Y111703D01*
X126167Y111729D01*
X126300Y111738D01*
X130300D01*
X130433Y111729D01*
D02*
G37*
G36*
X63133Y105829D02*
X63264Y105803D01*
X63390Y105760D01*
X63509Y105701D01*
X63620Y105627D01*
X63720Y105539D01*
X63808Y105439D01*
X63882Y105329D01*
X63941Y105209D01*
X63983Y105083D01*
X64009Y104952D01*
X64018Y104819D01*
Y102819D01*
X64009Y102687D01*
X63983Y102556D01*
X63941Y102430D01*
X63882Y102310D01*
X63808Y102200D01*
X63720Y102099D01*
X63368Y101748D01*
X63390Y101741D01*
X63509Y101682D01*
X63620Y101608D01*
X63720Y101520D01*
X63808Y101420D01*
X63882Y101309D01*
X63941Y101190D01*
X63983Y101063D01*
X64009Y100933D01*
X64018Y100800D01*
Y96800D01*
X64009Y96667D01*
X63983Y96537D01*
X63941Y96410D01*
X63882Y96291D01*
X63808Y96180D01*
X63720Y96080D01*
X63620Y95992D01*
X63509Y95918D01*
X63390Y95859D01*
X63264Y95816D01*
X63133Y95791D01*
X63000Y95782D01*
X59000D01*
X58867Y95791D01*
X58737Y95816D01*
X58610Y95859D01*
X58491Y95918D01*
X58380Y95992D01*
X58280Y96080D01*
X58192Y96180D01*
X58118Y96291D01*
X58059Y96410D01*
X58017Y96537D01*
X57990Y96667D01*
X57982Y96800D01*
Y100800D01*
X57990Y100933D01*
X58017Y101063D01*
X58059Y101190D01*
X58118Y101309D01*
X58192Y101420D01*
X58280Y101520D01*
X58380Y101608D01*
X58491Y101682D01*
X58610Y101741D01*
X58632Y101748D01*
X58280Y102099D01*
X58192Y102200D01*
X58118Y102310D01*
X58059Y102430D01*
X58017Y102556D01*
X57990Y102687D01*
X57982Y102819D01*
Y104819D01*
X57990Y104952D01*
X58017Y105083D01*
X58059Y105209D01*
X58118Y105329D01*
X58192Y105439D01*
X58280Y105539D01*
X58380Y105627D01*
X58491Y105701D01*
X58610Y105760D01*
X58737Y105803D01*
X58867Y105829D01*
X59000Y105838D01*
X63000D01*
X63133Y105829D01*
D02*
G37*
G36*
X139966Y111729D02*
X140097Y111703D01*
X140223Y111660D01*
X140342Y111601D01*
X140453Y111527D01*
X140553Y111439D01*
X140641Y111339D01*
X140715Y111229D01*
X140774Y111109D01*
X140817Y110983D01*
X140843Y110852D01*
X140851Y110719D01*
Y106719D01*
X140843Y106587D01*
X140817Y106456D01*
X140774Y106330D01*
X140715Y106210D01*
X140641Y106100D01*
X140553Y105999D01*
X140453Y105912D01*
X140342Y105838D01*
X140223Y105779D01*
X140202Y105772D01*
X140553Y105420D01*
X140641Y105320D01*
X140715Y105209D01*
X140774Y105090D01*
X140817Y104964D01*
X140843Y104833D01*
X140851Y104700D01*
Y102700D01*
X140843Y102567D01*
X140817Y102436D01*
X140774Y102310D01*
X140715Y102191D01*
X140641Y102080D01*
X140553Y101980D01*
X140453Y101892D01*
X140342Y101818D01*
X140223Y101759D01*
X140097Y101716D01*
X139966Y101691D01*
X139833Y101682D01*
X135833D01*
X135700Y101691D01*
X135570Y101716D01*
X135444Y101759D01*
X135324Y101818D01*
X135213Y101892D01*
X135113Y101980D01*
X135026Y102080D01*
X134952Y102191D01*
X134893Y102310D01*
X134850Y102436D01*
X134824Y102567D01*
X134815Y102700D01*
Y104700D01*
X134824Y104833D01*
X134850Y104964D01*
X134893Y105090D01*
X134952Y105209D01*
X135026Y105320D01*
X135113Y105420D01*
X135465Y105772D01*
X135444Y105779D01*
X135324Y105838D01*
X135213Y105912D01*
X135113Y105999D01*
X135026Y106100D01*
X134952Y106210D01*
X134893Y106330D01*
X134850Y106456D01*
X134824Y106587D01*
X134815Y106719D01*
Y110719D01*
X134824Y110852D01*
X134850Y110983D01*
X134893Y111109D01*
X134952Y111229D01*
X135026Y111339D01*
X135113Y111439D01*
X135213Y111527D01*
X135324Y111601D01*
X135444Y111660D01*
X135570Y111703D01*
X135700Y111729D01*
X135833Y111738D01*
X139833D01*
X139966Y111729D01*
D02*
G37*
G36*
X159033D02*
X159164Y111703D01*
X159290Y111660D01*
X159409Y111601D01*
X159520Y111527D01*
X159620Y111439D01*
X159708Y111339D01*
X159782Y111229D01*
X159841Y111109D01*
X159883Y110983D01*
X159909Y110852D01*
X159918Y110719D01*
Y106719D01*
X159909Y106587D01*
X159883Y106456D01*
X159841Y106330D01*
X159782Y106210D01*
X159708Y106100D01*
X159620Y105999D01*
X159520Y105912D01*
X159409Y105838D01*
X159290Y105779D01*
X159268Y105772D01*
X159620Y105420D01*
X159708Y105320D01*
X159782Y105209D01*
X159841Y105090D01*
X159883Y104964D01*
X159909Y104833D01*
X159918Y104700D01*
Y102700D01*
X159909Y102567D01*
X159883Y102436D01*
X159841Y102310D01*
X159782Y102191D01*
X159708Y102080D01*
X159620Y101980D01*
X159520Y101892D01*
X159409Y101818D01*
X159290Y101759D01*
X159164Y101716D01*
X159033Y101691D01*
X158900Y101682D01*
X154900D01*
X154767Y101691D01*
X154636Y101716D01*
X154510Y101759D01*
X154391Y101818D01*
X154280Y101892D01*
X154180Y101980D01*
X154092Y102080D01*
X154018Y102191D01*
X153959Y102310D01*
X153917Y102436D01*
X153890Y102567D01*
X153882Y102700D01*
Y104700D01*
X153890Y104833D01*
X153917Y104964D01*
X153959Y105090D01*
X154018Y105209D01*
X154092Y105320D01*
X154180Y105420D01*
X154532Y105772D01*
X154510Y105779D01*
X154391Y105838D01*
X154280Y105912D01*
X154180Y105999D01*
X154092Y106100D01*
X154018Y106210D01*
X153959Y106330D01*
X153917Y106456D01*
X153890Y106587D01*
X153882Y106719D01*
Y110719D01*
X153890Y110852D01*
X153917Y110983D01*
X153959Y111109D01*
X154018Y111229D01*
X154092Y111339D01*
X154180Y111439D01*
X154280Y111527D01*
X154391Y111601D01*
X154510Y111660D01*
X154636Y111703D01*
X154767Y111729D01*
X154900Y111738D01*
X158900D01*
X159033Y111729D01*
D02*
G37*
G36*
X149500D02*
X149630Y111703D01*
X149756Y111660D01*
X149876Y111601D01*
X149986Y111527D01*
X150087Y111439D01*
X150174Y111339D01*
X150248Y111229D01*
X150307Y111109D01*
X150350Y110983D01*
X150376Y110852D01*
X150385Y110719D01*
Y106719D01*
X150376Y106587D01*
X150350Y106456D01*
X150307Y106330D01*
X150248Y106210D01*
X150174Y106100D01*
X150087Y105999D01*
X149986Y105912D01*
X149876Y105838D01*
X149756Y105779D01*
X149735Y105772D01*
X150087Y105420D01*
X150174Y105320D01*
X150248Y105209D01*
X150307Y105090D01*
X150350Y104964D01*
X150376Y104833D01*
X150385Y104700D01*
Y102700D01*
X150376Y102567D01*
X150350Y102436D01*
X150307Y102310D01*
X150248Y102191D01*
X150174Y102080D01*
X150087Y101980D01*
X149986Y101892D01*
X149876Y101818D01*
X149756Y101759D01*
X149630Y101716D01*
X149500Y101691D01*
X149367Y101682D01*
X145367D01*
X145234Y101691D01*
X145103Y101716D01*
X144977Y101759D01*
X144858Y101818D01*
X144747Y101892D01*
X144647Y101980D01*
X144559Y102080D01*
X144485Y102191D01*
X144426Y102310D01*
X144383Y102436D01*
X144357Y102567D01*
X144348Y102700D01*
Y104700D01*
X144357Y104833D01*
X144383Y104964D01*
X144426Y105090D01*
X144485Y105209D01*
X144559Y105320D01*
X144647Y105420D01*
X144998Y105772D01*
X144977Y105779D01*
X144858Y105838D01*
X144747Y105912D01*
X144647Y105999D01*
X144559Y106100D01*
X144485Y106210D01*
X144426Y106330D01*
X144383Y106456D01*
X144357Y106587D01*
X144348Y106719D01*
Y110719D01*
X144357Y110852D01*
X144383Y110983D01*
X144426Y111109D01*
X144485Y111229D01*
X144559Y111339D01*
X144647Y111439D01*
X144747Y111527D01*
X144858Y111601D01*
X144977Y111660D01*
X145103Y111703D01*
X145234Y111729D01*
X145367Y111738D01*
X149367D01*
X149500Y111729D01*
D02*
G37*
D46*
X139700Y6000D02*
D03*
X152400Y6100D02*
D03*
X127000Y6000D02*
D03*
X114300Y6000D02*
D03*
X12700Y6000D02*
D03*
X38100Y6000D02*
D03*
X63500Y6000D02*
D03*
X88900Y6000D02*
D03*
D47*
X6000Y88900D02*
D03*
X6000Y76200D02*
D03*
Y63500D02*
D03*
Y50800D02*
D03*
Y38100D02*
D03*
D64*
X165700Y177200D02*
D03*
Y168200D02*
D03*
X20000Y53600D02*
D03*
Y61600D02*
D03*
X130600Y62400D02*
D03*
Y54400D02*
D03*
X117700Y92300D02*
D03*
Y84300D02*
D03*
X117500Y66700D02*
D03*
Y74700D02*
D03*
X20300Y81200D02*
D03*
Y73200D02*
D03*
X33500Y99100D02*
D03*
Y107100D02*
D03*
X20250Y99100D02*
D03*
Y107100D02*
D03*
X7000D02*
D03*
Y99100D02*
D03*
X47400Y89300D02*
D03*
Y81300D02*
D03*
X109000Y111100D02*
D03*
Y103100D02*
D03*
X61500Y87000D02*
D03*
Y79000D02*
D03*
X100400Y40500D02*
D03*
Y32500D02*
D03*
D66*
X160800Y188700D02*
D03*
X168800D02*
D03*
X15100Y21800D02*
D03*
X23100D02*
D03*
X48400D02*
D03*
X40400D02*
D03*
X73500Y21500D02*
D03*
X65500D02*
D03*
X82980Y64900D02*
D03*
X74980D02*
D03*
X97100Y52600D02*
D03*
X105100D02*
D03*
X147400Y80200D02*
D03*
X155400D02*
D03*
X149500Y33900D02*
D03*
X157500D02*
D03*
X155200Y20500D02*
D03*
X147200D02*
D03*
X127800Y74900D02*
D03*
X135800D02*
D03*
X98000Y82200D02*
D03*
X107000D02*
D03*
X107000Y66700D02*
D03*
X98000D02*
D03*
X72500Y44000D02*
D03*
X80500D02*
D03*
X72500Y34300D02*
D03*
X80500D02*
D03*
X103600Y20800D02*
D03*
X95600D02*
D03*
X136100Y25900D02*
D03*
X128100D02*
D03*
D70*
X47000Y108100D02*
D03*
D71*
X45000Y101600D02*
D03*
X49000D02*
D03*
D81*
X144000Y239700D02*
D03*
X10000D02*
D03*
Y125700D02*
D03*
X139700Y8000D02*
D03*
Y0D02*
D03*
X152400Y8100D02*
D03*
Y100D02*
D03*
X0Y88900D02*
D03*
X8000D02*
D03*
X127000Y0D02*
D03*
Y8000D02*
D03*
X0Y76200D02*
D03*
X8000D02*
D03*
X114300Y0D02*
D03*
Y8000D02*
D03*
X0Y63500D02*
D03*
X8000D02*
D03*
X0Y50800D02*
D03*
X8000D02*
D03*
X12700Y0D02*
D03*
Y8000D02*
D03*
X8000Y38100D02*
D03*
X0D02*
D03*
X38100Y8000D02*
D03*
Y0D02*
D03*
X63500Y8000D02*
D03*
Y0D02*
D03*
X88900Y8000D02*
D03*
Y0D02*
D03*
D82*
X178436Y193465D02*
D03*
X172072Y199828D02*
D03*
D83*
X206400Y190000D02*
D03*
Y219500D02*
D03*
X166500Y241400D02*
D03*
Y211900D02*
D03*
D84*
X191150Y204750D02*
D03*
X181750Y226650D02*
D03*
D85*
X52300Y49200D02*
D03*
Y44200D02*
D03*
Y39200D02*
D03*
Y34200D02*
D03*
X37050D02*
D03*
Y39200D02*
D03*
Y44200D02*
D03*
Y49200D02*
D03*
D86*
X47175Y34075D02*
D03*
X42175D02*
D03*
Y49325D02*
D03*
X47175D02*
D03*
D87*
X151600Y49500D02*
D03*
Y64500D02*
D03*
D88*
X35500Y182700D02*
D03*
X118500D02*
D03*
X122500Y139700D02*
D03*
X109500D02*
D03*
X96500D02*
D03*
X83500D02*
D03*
X70500D02*
D03*
X57500D02*
D03*
X44500D02*
D03*
X31500D02*
D03*
X38000Y151200D02*
D03*
X51000D02*
D03*
X64000D02*
D03*
X77000D02*
D03*
X90000D02*
D03*
X103000D02*
D03*
X116000D02*
D03*
X25000Y237200D02*
D03*
X38000D02*
D03*
X51000D02*
D03*
X64000D02*
D03*
X77000D02*
D03*
X90000D02*
D03*
X103000D02*
D03*
X116000D02*
D03*
X24000Y151200D02*
D03*
Y163200D02*
D03*
Y176200D02*
D03*
Y189200D02*
D03*
Y202200D02*
D03*
Y215200D02*
D03*
X129000Y237200D02*
D03*
X31500Y225700D02*
D03*
X44500D02*
D03*
X57500D02*
D03*
X70500D02*
D03*
X83500D02*
D03*
X96500D02*
D03*
X109500D02*
D03*
X122500D02*
D03*
X116000Y214200D02*
D03*
X103000D02*
D03*
X90000D02*
D03*
X77000D02*
D03*
X64000D02*
D03*
X51000D02*
D03*
X38000D02*
D03*
X44500Y162700D02*
D03*
X57500D02*
D03*
X70500D02*
D03*
X83500D02*
D03*
X96500D02*
D03*
X109500D02*
D03*
X44500Y202700D02*
D03*
X57500D02*
D03*
X70500D02*
D03*
X83500D02*
D03*
X96500D02*
D03*
X109500D02*
D03*
X103000Y174200D02*
D03*
X90000D02*
D03*
X51000D02*
D03*
X64000D02*
D03*
X77000D02*
D03*
X51000Y191200D02*
D03*
X64000D02*
D03*
X103000D02*
D03*
X90000D02*
D03*
X77000D02*
D03*
X129000Y128200D02*
D03*
X116000D02*
D03*
X103000D02*
D03*
X90000D02*
D03*
X77000D02*
D03*
X64000D02*
D03*
X51000D02*
D03*
X38000D02*
D03*
X25000D02*
D03*
X141500Y143700D02*
D03*
Y156700D02*
D03*
Y169700D02*
D03*
Y221700D02*
D03*
Y208700D02*
D03*
Y195700D02*
D03*
Y182700D02*
D03*
X12500Y143700D02*
D03*
Y156700D02*
D03*
Y169700D02*
D03*
Y221700D02*
D03*
Y208700D02*
D03*
Y195700D02*
D03*
Y182700D02*
D03*
X130000Y150200D02*
D03*
Y163200D02*
D03*
Y176200D02*
D03*
Y189200D02*
D03*
Y202200D02*
D03*
Y215200D02*
D03*
D89*
X73500Y107800D02*
D03*
Y101300D02*
D03*
Y94800D02*
D03*
X92500D02*
D03*
Y101300D02*
D03*
Y107800D02*
D03*
M02*
