G04*
G04 #@! TF.GenerationSoftware,Altium Limited,Altium Designer,18.1.1 (9)*
G04*
G04 Layer_Physical_Order=2*
G04 Layer_Color=36540*
%FSLAX44Y44*%
%MOMM*%
G71*
G01*
G75*
%ADD13C,0.2000*%
%ADD17R,0.8000X1.2000*%
%ADD62C,0.6000*%
%ADD64C,0.4500*%
%ADD65C,0.5000*%
%ADD66C,0.3000*%
%ADD67R,2.5700X1.2800*%
G36*
X250000Y173990D02*
X197870Y173990D01*
Y0D01*
X184782D01*
Y12000D01*
X184465Y12765D01*
X183700Y13082D01*
X175700D01*
X174935Y12765D01*
X174618Y12000D01*
Y0D01*
X172082D01*
Y12000D01*
X171765Y12765D01*
X171000Y13082D01*
X163000D01*
X162235Y12765D01*
X161918Y12000D01*
Y0D01*
X159382D01*
Y12000D01*
X159334Y12116D01*
X159214Y12987D01*
X159732Y13758D01*
X159822Y13818D01*
X167281Y21278D01*
X167640Y21206D01*
X168908Y21459D01*
X169983Y22177D01*
X170701Y23252D01*
X170954Y24520D01*
X170886Y24859D01*
X170899Y24888D01*
X171987Y25836D01*
X172640Y25706D01*
X173908Y25959D01*
X174983Y26677D01*
X175701Y27752D01*
X175954Y29020D01*
X175701Y30288D01*
X174983Y31363D01*
X173908Y32081D01*
X172640Y32334D01*
X172281Y32262D01*
X169402Y35142D01*
X168740Y35584D01*
X167960Y35739D01*
X145230D01*
X144450Y35584D01*
X143788Y35142D01*
X143788Y35142D01*
X141625Y32979D01*
X119725D01*
X118726Y33977D01*
X119212Y35151D01*
X124520D01*
X125300Y35306D01*
X125962Y35748D01*
X127947Y37734D01*
X128069Y37727D01*
X129243Y37233D01*
X129409Y36402D01*
X130127Y35327D01*
X131202Y34609D01*
X132470Y34356D01*
X133738Y34609D01*
X134813Y35327D01*
X135531Y36402D01*
X135784Y37670D01*
X135531Y38938D01*
X134813Y40013D01*
X133738Y40731D01*
X132907Y40897D01*
X132470Y41715D01*
X132387Y41995D01*
X132370Y42200D01*
X132724Y42730D01*
X132879Y43510D01*
Y57200D01*
X132724Y57980D01*
X132282Y58642D01*
X126272Y64652D01*
X125610Y65094D01*
X124830Y65249D01*
X123276D01*
X123073Y65553D01*
X121998Y66271D01*
X120730Y66524D01*
X119462Y66271D01*
X118387Y65553D01*
X118089Y65108D01*
X116819Y65493D01*
Y83895D01*
X173202Y140278D01*
X173644Y140940D01*
X173799Y141720D01*
Y254225D01*
X191382Y271808D01*
X191382Y271808D01*
X191824Y272470D01*
X191979Y273250D01*
X191979Y273250D01*
Y276224D01*
X192283Y276427D01*
X193001Y277502D01*
X193254Y278770D01*
X193001Y280038D01*
X192283Y281113D01*
X191208Y281831D01*
X189940Y282084D01*
X188672Y281831D01*
X187597Y281113D01*
X186879Y280038D01*
X186626Y278770D01*
X186879Y277502D01*
X187597Y276427D01*
X187901Y276224D01*
Y274095D01*
X170318Y256512D01*
X169876Y255850D01*
X169721Y255070D01*
Y187071D01*
X168451Y186946D01*
X168271Y187848D01*
X167553Y188923D01*
X166478Y189641D01*
X165210Y189894D01*
X163942Y189641D01*
X162867Y188923D01*
X162149Y187848D01*
X161896Y186580D01*
X162149Y185312D01*
X162867Y184237D01*
X163942Y183519D01*
X165210Y183266D01*
X166478Y183519D01*
X167553Y184237D01*
X168271Y185312D01*
X168451Y186214D01*
X169721Y186089D01*
Y142565D01*
X127849Y100693D01*
X126579Y101219D01*
Y122214D01*
X126883Y122417D01*
X127601Y123492D01*
X127854Y124760D01*
X127601Y126028D01*
X126883Y127103D01*
X125808Y127821D01*
X124540Y128074D01*
X123272Y127821D01*
X122197Y127103D01*
X121479Y126028D01*
X121464Y125957D01*
X120169D01*
X120151Y126048D01*
X119433Y127123D01*
X118358Y127841D01*
X117090Y128094D01*
X115822Y127841D01*
X114747Y127123D01*
X114029Y126048D01*
X113776Y124780D01*
X114029Y123512D01*
X114747Y122437D01*
X115051Y122234D01*
Y98525D01*
X105818Y89292D01*
X105376Y88630D01*
X105221Y87850D01*
Y55300D01*
X105376Y54520D01*
X105818Y53858D01*
X111316Y48360D01*
X111285Y47400D01*
X110133Y46529D01*
X109980Y46559D01*
X94175D01*
X83219Y57515D01*
Y77280D01*
X83064Y78060D01*
X82622Y78722D01*
X82622Y78722D01*
X69499Y91845D01*
Y113990D01*
X69499Y113990D01*
X69344Y114770D01*
X68902Y115432D01*
X68902Y115432D01*
X37679Y146655D01*
Y244785D01*
X50065Y257171D01*
X51052Y256362D01*
X50789Y255968D01*
X50536Y254700D01*
X50608Y254342D01*
X46608Y250342D01*
X46166Y249680D01*
X46011Y248900D01*
Y241610D01*
X46166Y240830D01*
X46608Y240168D01*
X49448Y237328D01*
X49448Y237328D01*
X50110Y236886D01*
X50890Y236731D01*
X50890Y236731D01*
X73175D01*
X113601Y196305D01*
Y170016D01*
X113297Y169813D01*
X112579Y168738D01*
X112326Y167470D01*
X112579Y166202D01*
X113297Y165127D01*
X114372Y164409D01*
X115640Y164156D01*
X116908Y164409D01*
X117983Y165127D01*
X118098Y165299D01*
X119625D01*
X119747Y165117D01*
X120822Y164399D01*
X122090Y164146D01*
X123358Y164399D01*
X124433Y165117D01*
X125151Y166192D01*
X125404Y167460D01*
X125151Y168728D01*
X124433Y169803D01*
X124129Y170006D01*
Y197370D01*
X123974Y198150D01*
X123532Y198812D01*
X77202Y245142D01*
X76540Y245584D01*
X75760Y245739D01*
X56356D01*
X56153Y246043D01*
X55078Y246761D01*
X53810Y247014D01*
X52542Y246761D01*
X51467Y246043D01*
X51359Y245882D01*
X50089Y246267D01*
Y248055D01*
X53492Y251458D01*
X53850Y251386D01*
X55118Y251639D01*
X56193Y252357D01*
X56911Y253432D01*
X57164Y254700D01*
X56911Y255968D01*
X56193Y257043D01*
X55118Y257761D01*
X53850Y258014D01*
X52582Y257761D01*
X52188Y257498D01*
X51379Y258485D01*
X59135Y266241D01*
X85874D01*
X86077Y265937D01*
X87152Y265219D01*
X88420Y264966D01*
X89688Y265219D01*
X90763Y265937D01*
X91481Y267012D01*
X91734Y268280D01*
X91481Y269548D01*
X90763Y270623D01*
X89688Y271341D01*
X88420Y271594D01*
X87152Y271341D01*
X86077Y270623D01*
X85874Y270319D01*
X58290D01*
X58290Y270319D01*
X57510Y270164D01*
X56848Y269722D01*
X34198Y247072D01*
X33756Y246410D01*
X33601Y245630D01*
Y145810D01*
X33756Y145030D01*
X34198Y144368D01*
X53990Y124576D01*
X53816Y124204D01*
X53242Y123528D01*
X52210Y123734D01*
X50942Y123481D01*
X49867Y122763D01*
X49149Y121688D01*
X48896Y120420D01*
X49149Y119152D01*
X49867Y118077D01*
X50942Y117359D01*
X52210Y117106D01*
X53478Y117359D01*
X54553Y118077D01*
X55271Y119152D01*
X55524Y120420D01*
X55318Y121452D01*
X55994Y122026D01*
X56366Y122200D01*
X65421Y113145D01*
Y91000D01*
X65576Y90220D01*
X66018Y89558D01*
X66657Y88919D01*
X66131Y87649D01*
X35620D01*
X35620Y87649D01*
X34840Y87494D01*
X34178Y87052D01*
X34178Y87052D01*
X29438Y82312D01*
X28996Y81650D01*
X28841Y80870D01*
Y74680D01*
X28996Y73900D01*
X29438Y73238D01*
X34848Y67828D01*
X35510Y67386D01*
X36290Y67231D01*
X41610D01*
X42390Y67386D01*
X43052Y67828D01*
X45145Y69921D01*
X45587Y70583D01*
X45742Y71363D01*
X45742Y71363D01*
Y73021D01*
X46046Y73224D01*
X46765Y74299D01*
X47017Y75567D01*
X46765Y76835D01*
X46046Y77910D01*
X44971Y78629D01*
X44559Y78711D01*
X44684Y79981D01*
X61935D01*
X65761Y76155D01*
Y34500D01*
X65916Y33720D01*
X66358Y33058D01*
X85513Y13903D01*
X86028Y12780D01*
X85824Y12256D01*
X85718Y12000D01*
Y0D01*
X83182D01*
Y12000D01*
X82865Y12765D01*
X82100Y13082D01*
X74100D01*
X73335Y12765D01*
X73018Y12000D01*
Y0D01*
X70482D01*
Y12000D01*
X70165Y12765D01*
X69400Y13082D01*
X61400D01*
X60635Y12765D01*
X60318Y12000D01*
Y0D01*
X57782D01*
Y12000D01*
X57465Y12765D01*
X56700Y13082D01*
X48700D01*
X47935Y12765D01*
X47618Y12000D01*
Y0D01*
X45082D01*
Y12000D01*
X44765Y12765D01*
X44000Y13082D01*
X36000D01*
X35235Y12765D01*
X34918Y12000D01*
Y0D01*
X0D01*
Y300000D01*
X199918D01*
Y288000D01*
X200235Y287235D01*
X201000Y286918D01*
X209000D01*
X209765Y287235D01*
X210082Y288000D01*
Y300000D01*
X212051D01*
X212052Y300000D01*
X212481Y297838D01*
X213706Y296006D01*
Y295994D01*
X212481Y294161D01*
X212304Y293270D01*
X217700D01*
Y292000D01*
X218970D01*
Y286604D01*
X219862Y286781D01*
X221694Y288006D01*
X222188Y288744D01*
X223313Y288143D01*
X223309Y288133D01*
X222896Y285000D01*
X223309Y281867D01*
X224518Y278948D01*
X226441Y276441D01*
X228948Y274518D01*
X231867Y273309D01*
X235000Y272896D01*
X238133Y273309D01*
X241052Y274518D01*
X243559Y276441D01*
X245482Y278948D01*
X246691Y281867D01*
X247104Y285000D01*
X246691Y288133D01*
X245482Y291052D01*
X243559Y293559D01*
X241052Y295482D01*
X238133Y296691D01*
X235000Y297104D01*
X231867Y296691D01*
X228948Y295482D01*
X226441Y293559D01*
X224518Y291052D01*
X224396Y290758D01*
X223175Y291129D01*
X223349Y292000D01*
X222919Y294161D01*
X221694Y295994D01*
Y296006D01*
X222919Y297838D01*
X223349Y300000D01*
X223349Y300000D01*
X250000D01*
Y173990D01*
D02*
G37*
G36*
X149218Y12000D02*
Y0D01*
X133982D01*
Y12000D01*
X134851Y13221D01*
X148349D01*
X149218Y12000D01*
D02*
G37*
%LPC*%
G36*
X182110Y296284D02*
X180842Y296031D01*
X179767Y295313D01*
X179049Y294238D01*
X178796Y292970D01*
X179049Y291702D01*
X179767Y290627D01*
X180842Y289909D01*
X182110Y289656D01*
X183378Y289909D01*
X184453Y290627D01*
X185171Y291702D01*
X185424Y292970D01*
X185171Y294238D01*
X184453Y295313D01*
X183378Y296031D01*
X182110Y296284D01*
D02*
G37*
G36*
X216430Y290730D02*
X212304D01*
X212481Y289838D01*
X213706Y288006D01*
X215538Y286781D01*
X216430Y286604D01*
Y290730D01*
D02*
G37*
G36*
X155320Y291024D02*
X154052Y290771D01*
X152977Y290053D01*
X152259Y288978D01*
X152006Y287710D01*
X152259Y286442D01*
X152977Y285367D01*
X154052Y284649D01*
X155320Y284396D01*
X156588Y284649D01*
X157663Y285367D01*
X158381Y286442D01*
X158634Y287710D01*
X158381Y288978D01*
X157663Y290053D01*
X156588Y290771D01*
X155320Y291024D01*
D02*
G37*
G36*
X173760Y281814D02*
X172492Y281561D01*
X171417Y280843D01*
X170699Y279768D01*
X170446Y278500D01*
X170699Y277232D01*
X171417Y276157D01*
X172492Y275439D01*
X173760Y275186D01*
X175028Y275439D01*
X176103Y276157D01*
X176821Y277232D01*
X177074Y278500D01*
X176821Y279768D01*
X176103Y280843D01*
X175028Y281561D01*
X173760Y281814D01*
D02*
G37*
G36*
X161050Y280394D02*
X159782Y280141D01*
X158707Y279423D01*
X157989Y278348D01*
X157736Y277080D01*
X157989Y275812D01*
X158707Y274737D01*
X159782Y274019D01*
X161050Y273766D01*
X162318Y274019D01*
X163393Y274737D01*
X164111Y275812D01*
X164364Y277080D01*
X164111Y278348D01*
X163393Y279423D01*
X162318Y280141D01*
X161050Y280394D01*
D02*
G37*
G36*
X150470Y278614D02*
X149202Y278361D01*
X148127Y277643D01*
X147409Y276568D01*
X147156Y275300D01*
X147409Y274032D01*
X148127Y272957D01*
X149202Y272239D01*
X150470Y271986D01*
X151738Y272239D01*
X152813Y272957D01*
X153531Y274032D01*
X153784Y275300D01*
X153531Y276568D01*
X152813Y277643D01*
X151738Y278361D01*
X150470Y278614D01*
D02*
G37*
G36*
X156570Y206694D02*
X155302Y206441D01*
X154227Y205723D01*
X153509Y204648D01*
X153256Y203380D01*
X153509Y202112D01*
X154227Y201037D01*
X155302Y200319D01*
X156570Y200066D01*
X157838Y200319D01*
X158913Y201037D01*
X159631Y202112D01*
X159884Y203380D01*
X159631Y204648D01*
X158913Y205723D01*
X157838Y206441D01*
X156570Y206694D01*
D02*
G37*
G36*
X146790D02*
X145522Y206441D01*
X144447Y205723D01*
X143729Y204648D01*
X143476Y203380D01*
X143729Y202112D01*
X144447Y201037D01*
X145522Y200319D01*
X146790Y200066D01*
X148058Y200319D01*
X149133Y201037D01*
X149851Y202112D01*
X150104Y203380D01*
X149851Y204648D01*
X149133Y205723D01*
X148058Y206441D01*
X146790Y206694D01*
D02*
G37*
G36*
X164460Y205784D02*
X163192Y205531D01*
X162117Y204813D01*
X161399Y203738D01*
X161146Y202470D01*
X161399Y201202D01*
X162117Y200127D01*
X163192Y199409D01*
X164460Y199156D01*
X165728Y199409D01*
X166803Y200127D01*
X167521Y201202D01*
X167774Y202470D01*
X167521Y203738D01*
X166803Y204813D01*
X165728Y205531D01*
X164460Y205784D01*
D02*
G37*
G36*
X147280Y189954D02*
X146012Y189701D01*
X144937Y188983D01*
X144219Y187908D01*
X143966Y186640D01*
X144219Y185372D01*
X144937Y184297D01*
X146012Y183579D01*
X147280Y183326D01*
X148548Y183579D01*
X149623Y184297D01*
X150341Y185372D01*
X150594Y186640D01*
X150341Y187908D01*
X149623Y188983D01*
X148548Y189701D01*
X147280Y189954D01*
D02*
G37*
G36*
X138640Y189934D02*
X137372Y189681D01*
X136297Y188963D01*
X135579Y187888D01*
X135326Y186620D01*
X135579Y185352D01*
X136297Y184277D01*
X137372Y183559D01*
X138640Y183306D01*
X139908Y183559D01*
X140983Y184277D01*
X141701Y185352D01*
X141954Y186620D01*
X141701Y187888D01*
X140983Y188963D01*
X139908Y189681D01*
X138640Y189934D01*
D02*
G37*
G36*
X156400Y189834D02*
X155132Y189581D01*
X154057Y188863D01*
X153339Y187788D01*
X153086Y186520D01*
X153339Y185252D01*
X154057Y184177D01*
X155132Y183459D01*
X156400Y183206D01*
X157668Y183459D01*
X158743Y184177D01*
X159461Y185252D01*
X159714Y186520D01*
X159461Y187788D01*
X158743Y188863D01*
X157668Y189581D01*
X156400Y189834D01*
D02*
G37*
G36*
X48560Y146284D02*
X47292Y146031D01*
X46217Y145313D01*
X45499Y144238D01*
X45246Y142970D01*
X45499Y141702D01*
X46217Y140627D01*
X47292Y139909D01*
X48560Y139656D01*
X49828Y139909D01*
X50903Y140627D01*
X51621Y141702D01*
X51874Y142970D01*
X51621Y144238D01*
X50903Y145313D01*
X49828Y146031D01*
X48560Y146284D01*
D02*
G37*
G36*
X65890Y146064D02*
X64622Y145811D01*
X63547Y145093D01*
X62829Y144018D01*
X62576Y142750D01*
X62829Y141482D01*
X63547Y140407D01*
X64622Y139689D01*
X65890Y139436D01*
X67158Y139689D01*
X68233Y140407D01*
X68951Y141482D01*
X69204Y142750D01*
X68951Y144018D01*
X68233Y145093D01*
X67158Y145811D01*
X65890Y146064D01*
D02*
G37*
G36*
X57070Y146024D02*
X55802Y145771D01*
X54727Y145053D01*
X54009Y143978D01*
X53756Y142710D01*
X54009Y141442D01*
X54727Y140367D01*
X55802Y139649D01*
X57070Y139396D01*
X58338Y139649D01*
X59413Y140367D01*
X60131Y141442D01*
X60384Y142710D01*
X60131Y143978D01*
X59413Y145053D01*
X58338Y145771D01*
X57070Y146024D01*
D02*
G37*
G36*
X74550Y145844D02*
X73282Y145591D01*
X72207Y144873D01*
X71489Y143798D01*
X71236Y142530D01*
X71489Y141262D01*
X72207Y140187D01*
X73282Y139469D01*
X74550Y139216D01*
X75818Y139469D01*
X76893Y140187D01*
X77611Y141262D01*
X77864Y142530D01*
X77611Y143798D01*
X76893Y144873D01*
X75818Y145591D01*
X74550Y145844D01*
D02*
G37*
G36*
X100410Y166724D02*
X99142Y166471D01*
X98067Y165753D01*
X97349Y164678D01*
X97096Y163410D01*
X97349Y162142D01*
X98067Y161067D01*
X98371Y160864D01*
Y153930D01*
X98526Y153150D01*
X98968Y152488D01*
X104333Y147123D01*
X103915Y145745D01*
X103442Y145651D01*
X102367Y144933D01*
X101649Y143858D01*
X101396Y142590D01*
X101649Y141322D01*
X102367Y140247D01*
X103442Y139529D01*
X104710Y139276D01*
X105978Y139529D01*
X107053Y140247D01*
X107771Y141322D01*
X107865Y141795D01*
X109243Y142213D01*
X112938Y138518D01*
X112938Y138518D01*
X113600Y138076D01*
X114380Y137921D01*
X146004D01*
X146207Y137617D01*
X147282Y136899D01*
X148550Y136646D01*
X149818Y136899D01*
X150893Y137617D01*
X151611Y138692D01*
X151864Y139960D01*
X151611Y141228D01*
X150893Y142303D01*
X149818Y143021D01*
X148550Y143274D01*
X147282Y143021D01*
X146207Y142303D01*
X146004Y141999D01*
X115225D01*
X102449Y154775D01*
Y160864D01*
X102753Y161067D01*
X103471Y162142D01*
X103724Y163410D01*
X103471Y164678D01*
X102753Y165753D01*
X101678Y166471D01*
X100410Y166724D01*
D02*
G37*
G36*
X34500Y123764D02*
X33232Y123511D01*
X32157Y122793D01*
X31439Y121718D01*
X31186Y120450D01*
X31439Y119182D01*
X32157Y118107D01*
X33232Y117389D01*
X34500Y117136D01*
X35768Y117389D01*
X36843Y118107D01*
X37561Y119182D01*
X37814Y120450D01*
X37561Y121718D01*
X36843Y122793D01*
X35768Y123511D01*
X34500Y123764D01*
D02*
G37*
G36*
X164910Y117004D02*
X163642Y116751D01*
X162567Y116033D01*
X161849Y114958D01*
X161596Y113690D01*
X161849Y112422D01*
X162567Y111347D01*
X163642Y110629D01*
X164910Y110376D01*
X166178Y110629D01*
X167253Y111347D01*
X167971Y112422D01*
X168224Y113690D01*
X167971Y114958D01*
X167253Y116033D01*
X166178Y116751D01*
X164910Y117004D01*
D02*
G37*
G36*
X154260Y102134D02*
X152992Y101881D01*
X151917Y101163D01*
X151199Y100088D01*
X150946Y98820D01*
X151199Y97552D01*
X151917Y96477D01*
X152992Y95759D01*
X154260Y95506D01*
X155528Y95759D01*
X156603Y96477D01*
X157321Y97552D01*
X157574Y98820D01*
X157321Y100088D01*
X156603Y101163D01*
X155528Y101881D01*
X154260Y102134D01*
D02*
G37*
G36*
X163690Y97044D02*
X162422Y96791D01*
X161347Y96073D01*
X160629Y94998D01*
X160376Y93730D01*
X160629Y92462D01*
X161347Y91387D01*
X162422Y90669D01*
X163690Y90416D01*
X164958Y90669D01*
X166033Y91387D01*
X166751Y92462D01*
X167004Y93730D01*
X166751Y94998D01*
X166033Y96073D01*
X164958Y96791D01*
X163690Y97044D01*
D02*
G37*
G36*
X147350Y95504D02*
X146082Y95251D01*
X145007Y94533D01*
X144289Y93458D01*
X144036Y92190D01*
X144289Y90922D01*
X145007Y89847D01*
X146082Y89129D01*
X147350Y88876D01*
X148618Y89129D01*
X149693Y89847D01*
X150411Y90922D01*
X150664Y92190D01*
X150411Y93458D01*
X149693Y94533D01*
X148618Y95251D01*
X147350Y95504D01*
D02*
G37*
G36*
X179310Y92964D02*
X178042Y92711D01*
X176967Y91993D01*
X176249Y90918D01*
X175996Y89650D01*
X176249Y88382D01*
X176967Y87307D01*
X178042Y86589D01*
X179310Y86336D01*
X180578Y86589D01*
X181653Y87307D01*
X182371Y88382D01*
X182624Y89650D01*
X182371Y90918D01*
X181653Y91993D01*
X180578Y92711D01*
X179310Y92964D01*
D02*
G37*
G36*
X132460Y89284D02*
X131192Y89031D01*
X130117Y88313D01*
X129399Y87238D01*
X129146Y85970D01*
X129399Y84702D01*
X130117Y83627D01*
X131192Y82909D01*
X132460Y82656D01*
X133728Y82909D01*
X134803Y83627D01*
X135521Y84702D01*
X135774Y85970D01*
X135521Y87238D01*
X134803Y88313D01*
X133728Y89031D01*
X132460Y89284D01*
D02*
G37*
G36*
X179140Y84364D02*
X177872Y84111D01*
X176797Y83393D01*
X176079Y82318D01*
X175826Y81050D01*
X176079Y79782D01*
X176797Y78707D01*
X177872Y77989D01*
X179140Y77736D01*
X180408Y77989D01*
X181483Y78707D01*
X182201Y79782D01*
X182454Y81050D01*
X182201Y82318D01*
X181483Y83393D01*
X180408Y84111D01*
X179140Y84364D01*
D02*
G37*
G36*
X126020Y80864D02*
X124752Y80611D01*
X123677Y79893D01*
X122959Y78818D01*
X122706Y77550D01*
X122959Y76282D01*
X123677Y75207D01*
X124752Y74489D01*
X126020Y74236D01*
X127288Y74489D01*
X128363Y75207D01*
X129081Y76282D01*
X129334Y77550D01*
X129081Y78818D01*
X128363Y79893D01*
X127288Y80611D01*
X126020Y80864D01*
D02*
G37*
G36*
X184990Y75864D02*
X183722Y75611D01*
X182647Y74893D01*
X181929Y73818D01*
X181676Y72550D01*
X181929Y71282D01*
X182647Y70207D01*
X183722Y69489D01*
X184306Y69373D01*
X185037Y68385D01*
X185057Y68027D01*
X184856Y67020D01*
X185109Y65752D01*
X185827Y64677D01*
X186902Y63959D01*
X188170Y63706D01*
X189438Y63959D01*
X190513Y64677D01*
X191231Y65752D01*
X191484Y67020D01*
X191231Y68288D01*
X190513Y69363D01*
X189438Y70081D01*
X188854Y70198D01*
X188123Y71185D01*
X188103Y71543D01*
X188304Y72550D01*
X188051Y73818D01*
X187333Y74893D01*
X186258Y75611D01*
X184990Y75864D01*
D02*
G37*
G36*
X29870Y65174D02*
X28602Y64921D01*
X27527Y64203D01*
X26809Y63128D01*
X26556Y61860D01*
X26809Y60592D01*
X27527Y59517D01*
X28602Y58799D01*
X29870Y58546D01*
X31138Y58799D01*
X32213Y59517D01*
X32931Y60592D01*
X33184Y61860D01*
X32931Y63128D01*
X32213Y64203D01*
X31138Y64921D01*
X29870Y65174D01*
D02*
G37*
G36*
X15000Y27104D02*
X11867Y26691D01*
X8948Y25482D01*
X6442Y23558D01*
X4518Y21052D01*
X3309Y18133D01*
X2896Y15000D01*
X3309Y11867D01*
X4518Y8948D01*
X6442Y6442D01*
X8948Y4518D01*
X11867Y3309D01*
X15000Y2896D01*
X18133Y3309D01*
X21052Y4518D01*
X23558Y6442D01*
X25482Y8948D01*
X26691Y11867D01*
X27104Y15000D01*
X26691Y18133D01*
X25482Y21052D01*
X23558Y23558D01*
X21052Y25482D01*
X18133Y26691D01*
X15000Y27104D01*
D02*
G37*
%LPD*%
D13*
X87040Y15260D02*
X158380D01*
X67800Y34500D02*
X87040Y15260D01*
X67800Y34500D02*
Y77000D01*
X62780Y82020D02*
X67800Y77000D01*
X42980Y82020D02*
X62780D01*
X35640Y145810D02*
X67460Y113990D01*
Y91000D02*
Y113990D01*
Y91000D02*
X81180Y77280D01*
X35640Y145810D02*
Y245630D01*
X58290Y268280D01*
X114380Y139960D02*
X148550D01*
X100410Y153930D02*
X114380Y139960D01*
X100410Y153930D02*
Y163410D01*
X107260Y55300D02*
X115010Y47550D01*
X107260Y55300D02*
Y87850D01*
X117090Y97680D01*
Y124780D01*
X117020Y51760D02*
X120850D01*
X110970Y57810D02*
X117020Y51760D01*
X110970Y57810D02*
Y86880D01*
X124540Y100450D01*
Y124760D01*
X189940Y273250D02*
Y278770D01*
X171760Y255070D02*
X189940Y273250D01*
X171760Y141720D02*
Y255070D01*
X114780Y84740D02*
X171760Y141720D01*
X114780Y61150D02*
Y84740D01*
Y61150D02*
X118340Y57590D01*
X124520Y37190D02*
X130840Y43510D01*
X117310Y37190D02*
X124520D01*
X109980Y44520D02*
X117310Y37190D01*
X118340Y57590D02*
X124690D01*
X127510Y54770D01*
Y45690D02*
Y54770D01*
X124370Y42550D02*
X127510Y45690D01*
X121530Y42550D02*
X124370D01*
X124830Y63210D02*
X130840Y57200D01*
Y43510D02*
Y57200D01*
X81180Y56670D02*
Y77280D01*
Y56670D02*
X93330Y44520D01*
X109980D01*
X120730Y63210D02*
X124830D01*
X66700Y85610D02*
X76760Y75550D01*
Y54870D02*
Y75550D01*
Y54870D02*
X90110Y41520D01*
X35620Y85610D02*
X66700D01*
X108300Y41520D02*
X118880Y30940D01*
X90110Y41520D02*
X108300D01*
X118880Y30940D02*
X142470D01*
X118490Y26620D02*
X140620D01*
X106590Y38520D02*
X118490Y26620D01*
X85670Y38520D02*
X106590D01*
X118130Y22370D02*
X147480D01*
X104980Y35520D02*
X118130Y22370D01*
X95680Y35520D02*
X104980D01*
X142470Y30940D02*
X145230Y33700D01*
X167960D01*
X172640Y29020D01*
X38200Y77240D02*
X42980Y82020D01*
X158380Y15260D02*
X167640Y24520D01*
X154170Y18550D02*
X157640Y22020D01*
X103510Y24110D02*
X109070Y18550D01*
X154170D01*
X157640Y22020D02*
Y26060D01*
X147480Y22370D02*
X147910Y22800D01*
X72140Y52050D02*
X85670Y38520D01*
X48050Y248900D02*
X53850Y254700D01*
X48050Y241610D02*
Y248900D01*
Y241610D02*
X50890Y238770D01*
X74020D02*
X115640Y197150D01*
X50890Y238770D02*
X74020D01*
X115640Y167470D02*
Y197150D01*
X122090Y167460D02*
Y197370D01*
X75760Y243700D02*
X122090Y197370D01*
X53810Y243700D02*
X75760D01*
X58290Y268280D02*
X88420D01*
X43703Y71363D02*
Y75567D01*
X41610Y69270D02*
X43703Y71363D01*
X36290Y69270D02*
X41610D01*
X30880Y74680D02*
X36290Y69270D01*
X30880Y74680D02*
Y80870D01*
X35620Y85610D01*
X43273Y75567D02*
X43703D01*
X167640Y24520D02*
Y28220D01*
X72140Y52050D02*
Y72450D01*
X90810Y30650D02*
X95680Y35520D01*
X103510Y24110D02*
Y30660D01*
X167000Y8000D02*
X170030Y11030D01*
D17*
X179700Y6000D02*
D03*
X52700D02*
D03*
X128900D02*
D03*
X167000D02*
D03*
X154300D02*
D03*
X116200D02*
D03*
X205000Y294000D02*
D03*
X217700Y294000D02*
D03*
X78100Y6000D02*
D03*
X90800D02*
D03*
X103500D02*
D03*
X65400D02*
D03*
X40000D02*
D03*
D62*
X179700Y0D02*
D03*
Y8000D02*
D03*
X52700Y0D02*
D03*
Y8000D02*
D03*
X128900Y0D02*
D03*
Y8000D02*
D03*
X167000Y0D02*
D03*
Y8000D02*
D03*
X154300Y0D02*
D03*
Y8000D02*
D03*
X116200Y0D02*
D03*
Y8000D02*
D03*
X205000Y300000D02*
D03*
Y292000D02*
D03*
X217700Y300000D02*
D03*
Y292000D02*
D03*
X78100Y0D02*
D03*
Y8000D02*
D03*
X90800Y0D02*
D03*
Y8000D02*
D03*
X103500Y0D02*
D03*
Y8000D02*
D03*
X65400Y0D02*
D03*
Y8000D02*
D03*
X40000Y0D02*
D03*
Y8000D02*
D03*
D64*
X236000Y246000D02*
D03*
X241000Y216000D02*
D03*
X236000Y206000D02*
D03*
X241000Y196000D02*
D03*
X236000Y186000D02*
D03*
X241000Y176000D02*
D03*
X226000Y246000D02*
D03*
X231000Y216000D02*
D03*
X226000Y206000D02*
D03*
X231000Y196000D02*
D03*
X226000Y186000D02*
D03*
X231000Y176000D02*
D03*
X221000Y276000D02*
D03*
Y216000D02*
D03*
X216000Y206000D02*
D03*
X221000Y196000D02*
D03*
X216000Y186000D02*
D03*
X221000Y176000D02*
D03*
X211000Y276000D02*
D03*
Y256000D02*
D03*
Y216000D02*
D03*
Y196000D02*
D03*
X206000Y186000D02*
D03*
X211000Y176000D02*
D03*
X196000Y286000D02*
D03*
Y266000D02*
D03*
Y226000D02*
D03*
Y206000D02*
D03*
X201000Y176000D02*
D03*
X196000Y166000D02*
D03*
Y146000D02*
D03*
Y126000D02*
D03*
Y106000D02*
D03*
Y86000D02*
D03*
Y66000D02*
D03*
Y46000D02*
D03*
X191000Y256000D02*
D03*
Y236000D02*
D03*
Y216000D02*
D03*
Y196000D02*
D03*
Y156000D02*
D03*
Y136000D02*
D03*
X186000Y126000D02*
D03*
X191000Y116000D02*
D03*
Y76000D02*
D03*
Y16000D02*
D03*
X181000Y276000D02*
D03*
X166000Y126000D02*
D03*
X171000Y116000D02*
D03*
X161000Y176000D02*
D03*
X156000Y166000D02*
D03*
Y146000D02*
D03*
X151000Y176000D02*
D03*
X146000Y166000D02*
D03*
Y126000D02*
D03*
X141000Y216000D02*
D03*
Y176000D02*
D03*
X136000Y166000D02*
D03*
X126000Y266000D02*
D03*
Y246000D02*
D03*
Y226000D02*
D03*
Y206000D02*
D03*
X131000Y176000D02*
D03*
X116000Y266000D02*
D03*
X121000Y256000D02*
D03*
Y236000D02*
D03*
Y216000D02*
D03*
X106000Y266000D02*
D03*
X111000Y176000D02*
D03*
X106000Y166000D02*
D03*
X111000Y136000D02*
D03*
X106000Y126000D02*
D03*
X96000Y266000D02*
D03*
Y246000D02*
D03*
Y206000D02*
D03*
X101000Y176000D02*
D03*
X96000Y86000D02*
D03*
X86000Y246000D02*
D03*
X91000Y236000D02*
D03*
X86000Y206000D02*
D03*
X91000Y156000D02*
D03*
X86000Y86000D02*
D03*
X71000Y256000D02*
D03*
Y216000D02*
D03*
Y136000D02*
D03*
Y16000D02*
D03*
X61000Y256000D02*
D03*
Y136000D02*
D03*
X46000Y286000D02*
D03*
Y266000D02*
D03*
Y226000D02*
D03*
Y206000D02*
D03*
Y186000D02*
D03*
Y126000D02*
D03*
X36000Y286000D02*
D03*
X41000Y276000D02*
D03*
X36000Y266000D02*
D03*
X41000Y216000D02*
D03*
Y196000D02*
D03*
X31000Y276000D02*
D03*
X26000Y86000D02*
D03*
Y26000D02*
D03*
X31000Y16000D02*
D03*
X16000Y266000D02*
D03*
Y126000D02*
D03*
X21000Y116000D02*
D03*
X16000Y106000D02*
D03*
X21000Y96000D02*
D03*
X16000Y86000D02*
D03*
X21000Y76000D02*
D03*
X16000Y66000D02*
D03*
X21000Y56000D02*
D03*
X16000Y46000D02*
D03*
X21000Y36000D02*
D03*
X6000Y266000D02*
D03*
Y186000D02*
D03*
Y166000D02*
D03*
Y146000D02*
D03*
Y126000D02*
D03*
X11000Y116000D02*
D03*
X6000Y106000D02*
D03*
X11000Y96000D02*
D03*
X6000Y86000D02*
D03*
X11000Y76000D02*
D03*
X6000Y66000D02*
D03*
X11000Y56000D02*
D03*
X6000Y46000D02*
D03*
X11000Y36000D02*
D03*
X148550Y139960D02*
D03*
X117090Y124780D02*
D03*
X124540Y124760D02*
D03*
X189940Y278770D02*
D03*
X120850Y51760D02*
D03*
X121530Y42550D02*
D03*
X115010Y47550D02*
D03*
X147910Y22800D02*
D03*
X115640Y167470D02*
D03*
X122090Y167460D02*
D03*
X53810Y243700D02*
D03*
X53850Y254700D02*
D03*
X172640Y29020D02*
D03*
X43703Y75567D02*
D03*
X38200Y77240D02*
D03*
X167640Y24520D02*
D03*
X40760Y47710D02*
D03*
X72140Y72450D02*
D03*
X140620Y26620D02*
D03*
X88420Y268280D02*
D03*
X120730Y63210D02*
D03*
X100410Y163410D02*
D03*
X90810Y30650D02*
D03*
X103510Y30660D02*
D03*
X157640Y26060D02*
D03*
D65*
X166100Y71100D02*
D03*
X155100D02*
D03*
X144100D02*
D03*
Y60100D02*
D03*
X166100D02*
D03*
X155100D02*
D03*
X144100Y49100D02*
D03*
X155100D02*
D03*
X166100D02*
D03*
D66*
X141500Y6900D02*
D03*
X192900Y7600D02*
D03*
X190000Y31800D02*
D03*
D67*
X185050Y52700D02*
D03*
M02*
