G04 Layer_Color=32896*
%FSLAX44Y44*%
%MOMM*%
G71*
G01*
G75*
%ADD34C,0.1500*%
%ADD57C,0.1000*%
%ADD58C,0.1200*%
%ADD59C,0.0800*%
%ADD92C,0.2540*%
D34*
X94000Y112800D02*
G03*
X94000Y112800I-500J0D01*
G01*
X78500Y91800D02*
X87500D01*
X78500Y110800D02*
X87500D01*
X183750Y213650D02*
Y218650D01*
Y234650D02*
Y239650D01*
X179750Y213650D02*
X183750D01*
X157750Y220650D02*
Y232650D01*
X179750Y239650D02*
X183750D01*
X189150Y212750D02*
Y217750D01*
Y191750D02*
Y196750D01*
Y217750D02*
X193150D01*
X215150Y198750D02*
Y210750D01*
X189150Y191750D02*
X193150D01*
X3000Y118700D02*
X151000D01*
X3000D02*
Y246700D01*
X151000D01*
Y118700D02*
Y246700D01*
D57*
X57112Y50400D02*
G03*
X57112Y50400I-112J0D01*
G01*
D58*
X157000Y193500D02*
X171329D01*
X172600Y192229D01*
Y183900D02*
Y192229D01*
X142600Y41500D02*
Y72500D01*
Y41500D02*
X160600D01*
Y72500D01*
X142600D02*
X160600D01*
X36400Y16800D02*
Y26800D01*
X52400D01*
Y16800D02*
Y26800D01*
X36400Y16800D02*
X52400D01*
X61500Y16500D02*
Y26500D01*
X77500D01*
Y16500D02*
Y26500D01*
X61500Y16500D02*
X77500D01*
X93100Y47600D02*
Y57600D01*
X109100D01*
Y47600D02*
Y57600D01*
X93100Y47600D02*
X109100D01*
X11100Y16800D02*
Y26800D01*
X27100D01*
Y16800D02*
Y26800D01*
X11100Y16800D02*
X27100D01*
X70980Y59900D02*
Y69900D01*
X86980D01*
Y59900D02*
Y69900D01*
X70980Y59900D02*
X86980D01*
X42400Y77300D02*
X52400D01*
X42400D02*
Y93300D01*
X52400D01*
Y77300D02*
Y93300D01*
X56500Y91000D02*
X66500D01*
Y75000D02*
Y91000D01*
X56500Y75000D02*
X66500D01*
X56500D02*
Y91000D01*
X94000Y61700D02*
X111000D01*
Y71700D01*
X94000Y61700D02*
Y71700D01*
X111000D01*
X94000Y87200D02*
X111000D01*
X94000Y77200D02*
Y87200D01*
X111000Y77200D02*
Y87200D01*
X94000Y77200D02*
X111000D01*
X165708Y199121D02*
X177728Y187101D01*
X184799Y194172D01*
X165708Y199121D02*
X172779Y206192D01*
X184799Y194172D01*
X170700Y164200D02*
Y181200D01*
X160700D02*
X170700D01*
X160700Y164200D02*
X170700D01*
X160700D02*
Y181200D01*
X159000Y15700D02*
Y25300D01*
X143400Y15700D02*
X159000D01*
X143400D02*
Y25300D01*
X159000D01*
X124000Y70100D02*
Y79700D01*
X139600D01*
Y70100D02*
Y79700D01*
X124000Y70100D02*
X139600D01*
X125800Y66200D02*
X135400D01*
Y50600D02*
Y66200D01*
X125800Y50600D02*
X135400D01*
X125800D02*
Y66200D01*
X112700Y62900D02*
X122300D01*
X112700D02*
Y78500D01*
X122300D01*
Y62900D02*
Y78500D01*
X112900Y96100D02*
X122500D01*
Y80500D02*
Y96100D01*
X112900Y80500D02*
X122500D01*
X112900D02*
Y96100D01*
X84300Y39200D02*
Y48800D01*
X68700Y39200D02*
X84300D01*
X68700D02*
Y48800D01*
X84300D01*
Y29500D02*
Y39100D01*
X68700Y29500D02*
X84300D01*
X68700D02*
Y39100D01*
X84300D01*
X91800Y16000D02*
Y25600D01*
X107400D01*
Y16000D02*
Y25600D01*
X91800Y16000D02*
X107400D01*
X95600Y28700D02*
X105200D01*
X95600D02*
Y44300D01*
X105200D01*
Y28700D02*
Y44300D01*
X124300Y21100D02*
Y30700D01*
X139900D01*
Y21100D02*
Y30700D01*
X124300Y21100D02*
X139900D01*
X104200Y114900D02*
X113800D01*
Y99300D02*
Y114900D01*
X104200Y99300D02*
X113800D01*
X104200D02*
Y114900D01*
X15200Y49800D02*
X24800D01*
X15200D02*
Y65400D01*
X24800D01*
Y49800D02*
Y65400D01*
X15500Y85000D02*
X25100D01*
Y69400D02*
Y85000D01*
X15500Y69400D02*
X25100D01*
X15500D02*
Y85000D01*
X159200Y75400D02*
Y85000D01*
X143600Y75400D02*
X159200D01*
X143600D02*
Y85000D01*
X159200D01*
X161300Y29100D02*
Y38700D01*
X145700Y29100D02*
X161300D01*
X145700D02*
Y38700D01*
X161300D01*
X2200Y95300D02*
X11800D01*
X2200D02*
Y110900D01*
X11800D01*
Y95300D02*
Y110900D01*
X28700Y95300D02*
X38300D01*
X28700D02*
Y110900D01*
X38300D01*
Y95300D02*
Y110900D01*
X15450Y95300D02*
X25050D01*
X15450D02*
Y110900D01*
X25050D01*
Y95300D02*
Y110900D01*
X157000Y183900D02*
Y193500D01*
Y183900D02*
X172600D01*
D59*
X52000Y98100D02*
Y111100D01*
X42000Y98100D02*
X52000D01*
X42000D02*
Y111100D01*
X52000D01*
X33600Y52700D02*
X55800D01*
X33600Y30700D02*
Y52700D01*
Y30700D02*
X55800D01*
Y52700D01*
D92*
X156890Y114497D02*
G03*
X156900Y114300I-1890J-197D01*
G01*
M02*
