G04 Layer_Color=8421504*
%FSLAX44Y44*%
%MOMM*%
G71*
G01*
G75*
%ADD11R,0.2000X0.2000*%
%ADD12R,0.2500X0.5000*%
%ADD13R,0.2500X0.2000*%
%ADD14R,0.6000X0.4000*%
%ADD15R,0.4000X0.6000*%
%ADD16O,0.6000X1.1000*%
%ADD17R,1.3500X0.4000*%
%ADD18R,3.5000X3.5000*%
%ADD19O,0.2500X0.8500*%
%ADD20O,0.8500X0.2500*%
%ADD21C,0.2200*%
%ADD22R,1.2500X1.0000*%
G04:AMPARAMS|DCode=23|XSize=1.8mm|YSize=0.6mm|CornerRadius=0.15mm|HoleSize=0mm|Usage=FLASHONLY|Rotation=270.000|XOffset=0mm|YOffset=0mm|HoleType=Round|Shape=RoundedRectangle|*
%AMROUNDEDRECTD23*
21,1,1.8000,0.3000,0,0,270.0*
21,1,1.5000,0.6000,0,0,270.0*
1,1,0.3000,-0.1500,-0.7500*
1,1,0.3000,-0.1500,0.7500*
1,1,0.3000,0.1500,0.7500*
1,1,0.3000,0.1500,-0.7500*
%
%ADD23ROUNDEDRECTD23*%
G04:AMPARAMS|DCode=24|XSize=1.8mm|YSize=0.6mm|CornerRadius=0.15mm|HoleSize=0mm|Usage=FLASHONLY|Rotation=180.000|XOffset=0mm|YOffset=0mm|HoleType=Round|Shape=RoundedRectangle|*
%AMROUNDEDRECTD24*
21,1,1.8000,0.3000,0,0,180.0*
21,1,1.5000,0.6000,0,0,180.0*
1,1,0.3000,-0.7500,0.1500*
1,1,0.3000,0.7500,0.1500*
1,1,0.3000,0.7500,-0.1500*
1,1,0.3000,-0.7500,-0.1500*
%
%ADD24ROUNDEDRECTD24*%
%ADD25R,1.0500X1.0000*%
%ADD26R,2.2000X1.0500*%
%ADD27R,0.5000X0.5000*%
%ADD28R,0.5000X0.9000*%
%ADD29R,0.3250X0.3000*%
%ADD30R,0.3000X0.3250*%
%ADD31R,0.2000X0.2000*%
G04:AMPARAMS|DCode=32|XSize=1mm|YSize=0.8mm|CornerRadius=0mm|HoleSize=0mm|Usage=FLASHONLY|Rotation=302.000|XOffset=0mm|YOffset=0mm|HoleType=Round|Shape=Rectangle|*
%AMROTATEDRECTD32*
4,1,4,-0.6042,0.2121,0.0743,0.6360,0.6042,-0.2121,-0.0743,-0.6360,-0.6042,0.2121,0.0*
%
%ADD32ROTATEDRECTD32*%

G04:AMPARAMS|DCode=33|XSize=0.4mm|YSize=0.6mm|CornerRadius=0mm|HoleSize=0mm|Usage=FLASHONLY|Rotation=302.000|XOffset=0mm|YOffset=0mm|HoleType=Round|Shape=Rectangle|*
%AMROTATEDRECTD33*
4,1,4,-0.3604,0.0106,0.1484,0.3286,0.3604,-0.0106,-0.1484,-0.3286,-0.3604,0.0106,0.0*
%
%ADD33ROTATEDRECTD33*%

%ADD34C,0.8000*%
G36*
X69600Y18800D02*
X67600Y20800D01*
X65600Y18800D01*
Y22800D01*
X69600D01*
Y18800D01*
D02*
G37*
G36*
X47100Y14900D02*
X43100D01*
Y18900D01*
X45100Y16900D01*
X47100Y18900D01*
Y14900D01*
D02*
G37*
G36*
X67990Y79670D02*
X63990D01*
X65990Y81670D01*
X63990Y83670D01*
X67990D01*
Y79670D01*
D02*
G37*
G36*
X205700Y276500D02*
X201700D01*
X203700Y278500D01*
X201700Y280500D01*
X205700D01*
Y276500D01*
D02*
G37*
G36*
Y264400D02*
X201700D01*
X203700Y266400D01*
X201700Y268400D01*
X205700D01*
Y264400D01*
D02*
G37*
D11*
X67600Y21800D02*
D03*
Y16280D02*
D03*
X45100Y21420D02*
D03*
Y15900D02*
D03*
D12*
X52500Y18900D02*
D03*
X34200Y37300D02*
D03*
X165000Y291200D02*
D03*
D13*
X59000Y16900D02*
D03*
Y20900D02*
D03*
X27700Y39300D02*
D03*
Y35300D02*
D03*
X171500Y293200D02*
D03*
Y289200D02*
D03*
D14*
X129800Y26900D02*
D03*
Y18900D02*
D03*
X27900Y98600D02*
D03*
Y90600D02*
D03*
X-21600Y253140D02*
D03*
Y245140D02*
D03*
X-35800Y233240D02*
D03*
Y225240D02*
D03*
X-2600Y242040D02*
D03*
Y250040D02*
D03*
X-35700Y212240D02*
D03*
Y204240D02*
D03*
X116100Y18600D02*
D03*
Y26600D02*
D03*
X48000Y39200D02*
D03*
Y31200D02*
D03*
X189700Y285300D02*
D03*
Y293300D02*
D03*
X78150Y18600D02*
D03*
Y26600D02*
D03*
X90810Y18600D02*
D03*
Y26600D02*
D03*
X103510Y18600D02*
D03*
Y26600D02*
D03*
X67000Y69000D02*
D03*
Y61000D02*
D03*
X-7300Y106200D02*
D03*
Y114200D02*
D03*
X34200Y26900D02*
D03*
Y18900D02*
D03*
X13000Y72700D02*
D03*
Y80700D02*
D03*
D15*
X60700Y34900D02*
D03*
X68700D02*
D03*
X14500Y96800D02*
D03*
X6500D02*
D03*
X-11100Y186800D02*
D03*
X-3100D02*
D03*
X72300Y47900D02*
D03*
X64300D02*
D03*
X27800Y49200D02*
D03*
X19800D02*
D03*
X94420Y62590D02*
D03*
X86420D02*
D03*
X94370Y77680D02*
D03*
X86370D02*
D03*
X175310Y96710D02*
D03*
X183310D02*
D03*
X162500Y19400D02*
D03*
X154500D02*
D03*
D16*
X-21500Y203040D02*
D03*
X-12000D02*
D03*
X-2500D02*
D03*
X-21500Y229040D02*
D03*
X-12000D02*
D03*
X-2500D02*
D03*
D17*
X-27900Y161800D02*
D03*
Y155300D02*
D03*
Y148800D02*
D03*
Y142300D02*
D03*
Y135800D02*
D03*
D18*
X155100Y60100D02*
D03*
D19*
X137600Y84100D02*
D03*
X142600D02*
D03*
X147600D02*
D03*
X152600D02*
D03*
X157600D02*
D03*
X162600D02*
D03*
X167600D02*
D03*
X172600D02*
D03*
Y36100D02*
D03*
X167600D02*
D03*
X162600D02*
D03*
X157600D02*
D03*
X152600D02*
D03*
X147600D02*
D03*
X142600D02*
D03*
X137600D02*
D03*
D20*
X179100Y77600D02*
D03*
Y72600D02*
D03*
Y67600D02*
D03*
Y62600D02*
D03*
Y57600D02*
D03*
Y52600D02*
D03*
Y47600D02*
D03*
Y42600D02*
D03*
X131100D02*
D03*
Y47600D02*
D03*
Y52600D02*
D03*
Y57600D02*
D03*
Y62600D02*
D03*
Y67600D02*
D03*
Y72600D02*
D03*
Y77600D02*
D03*
D21*
X103500Y44500D02*
D03*
Y40500D02*
D03*
X99500Y44500D02*
D03*
Y40500D02*
D03*
X95500Y44500D02*
D03*
Y40500D02*
D03*
X91500Y44500D02*
D03*
Y40500D02*
D03*
D22*
X110990Y77540D02*
D03*
Y62540D02*
D03*
D23*
X55500Y282300D02*
D03*
X66500D02*
D03*
X77500D02*
D03*
X88500D02*
D03*
X99500D02*
D03*
X110500D02*
D03*
X121500D02*
D03*
X132500D02*
D03*
X143500D02*
D03*
Y106300D02*
D03*
X132500D02*
D03*
X121500D02*
D03*
X110500D02*
D03*
X99500D02*
D03*
X88500D02*
D03*
X77500D02*
D03*
X66500D02*
D03*
X55500D02*
D03*
D24*
X178000Y254800D02*
D03*
Y243800D02*
D03*
Y232800D02*
D03*
Y221800D02*
D03*
Y210800D02*
D03*
Y199800D02*
D03*
Y188800D02*
D03*
Y177800D02*
D03*
Y166800D02*
D03*
Y155800D02*
D03*
Y144800D02*
D03*
Y133800D02*
D03*
X21000D02*
D03*
Y144800D02*
D03*
Y155800D02*
D03*
Y166800D02*
D03*
Y177800D02*
D03*
Y188800D02*
D03*
Y199800D02*
D03*
Y210800D02*
D03*
Y221800D02*
D03*
Y232800D02*
D03*
Y243800D02*
D03*
Y254800D02*
D03*
D25*
X212400Y243800D02*
D03*
D26*
X227650Y229050D02*
D03*
Y258550D02*
D03*
D27*
X204600Y168580D02*
D03*
X217600Y146580D02*
D03*
X244000Y99580D02*
D03*
X217600Y74580D02*
D03*
X195000Y52580D02*
D03*
X244000Y74580D02*
D03*
X217600Y99580D02*
D03*
X244000Y121580D02*
D03*
X217600D02*
D03*
X244000Y146580D02*
D03*
Y168580D02*
D03*
D28*
X195000Y31580D02*
D03*
X244000D02*
D03*
D29*
X38080Y73780D02*
D03*
Y68780D02*
D03*
Y63780D02*
D03*
Y58780D02*
D03*
X53330D02*
D03*
Y63780D02*
D03*
Y68780D02*
D03*
Y73780D02*
D03*
D30*
X43205Y58655D02*
D03*
X48205D02*
D03*
Y73905D02*
D03*
X43205D02*
D03*
D31*
X61470Y81670D02*
D03*
X66990D02*
D03*
X199180Y278500D02*
D03*
X204700D02*
D03*
X199180Y266400D02*
D03*
X204700D02*
D03*
D32*
X-39348Y60701D02*
D03*
X-26100Y39500D02*
D03*
D33*
X-27580Y69008D02*
D03*
X-31820Y75792D02*
D03*
D34*
X-3879Y159951D02*
D03*
X-6100Y146200D02*
D03*
X-9900Y133400D02*
D03*
M02*
