G04 Layer_Color=32896*
%FSLAX44Y44*%
%MOMM*%
G71*
G01*
G75*
%ADD30C,0.2000*%
%ADD35C,0.2500*%
%ADD60C,0.1200*%
%ADD61C,0.0800*%
%ADD62C,0.1500*%
D30*
X21370Y90420D02*
X63370D01*
X21370D02*
Y91420D01*
X21370Y110420D02*
X64370D01*
Y40420D02*
Y110420D01*
X21370Y40420D02*
X64370D01*
X21370D02*
Y110420D01*
X23370Y113420D02*
Y119420D01*
X20370Y116420D02*
X26370D01*
X181700Y241610D02*
Y273960D01*
X179750D02*
X181700D01*
X127700D02*
X129650D01*
X127700Y241610D02*
Y273960D01*
Y209960D02*
Y242310D01*
Y209960D02*
X129650D01*
X181700D02*
Y242310D01*
X179750Y209960D02*
X181700D01*
X108250Y175710D02*
Y298710D01*
X10250D02*
X108250D01*
X10250Y175710D02*
Y298710D01*
Y175710D02*
X108250D01*
X110090Y130590D02*
Y137340D01*
Y130590D02*
X111840D01*
X142340D02*
X144090D01*
Y137340D01*
Y152840D02*
Y159590D01*
X142340D02*
X144090D01*
X110090Y152840D02*
Y159590D01*
X111840D01*
D35*
X186950Y206960D02*
G03*
X186950Y206960I-1250J0D01*
G01*
X104840Y132090D02*
G03*
X104840Y132090I-1250J0D01*
G01*
D60*
X225660Y194510D02*
X234790D01*
X225660D02*
Y209600D01*
X234790D01*
Y194510D02*
Y209600D01*
X166980Y93180D02*
Y112680D01*
X190480D01*
Y93180D02*
Y112680D01*
X166980Y93180D02*
X190480D01*
X119070Y100910D02*
X119070Y110040D01*
X134160D01*
Y100910D02*
Y110040D01*
X119070Y100910D02*
X134160D01*
X173170Y44110D02*
X182300Y44110D01*
X173170Y44110D02*
Y59200D01*
X182300D01*
Y44110D02*
Y59200D01*
X111460Y65990D02*
X120590Y65990D01*
X111460Y65990D02*
Y81080D01*
X120590D01*
Y65990D02*
Y81080D01*
X126715Y75586D02*
X133171Y69130D01*
X126715Y75586D02*
X137385Y86256D01*
X143841Y79800D01*
X133171Y69130D02*
X143841Y79800D01*
X148020Y77790D02*
X148020Y86920D01*
X163110D01*
Y77790D02*
Y86920D01*
X148020Y77790D02*
X163110D01*
X173170Y63310D02*
X182300Y63310D01*
X173170Y63310D02*
Y78400D01*
X182300D01*
Y63310D02*
Y78400D01*
X130490Y279390D02*
X145580D01*
Y288520D01*
X130490D02*
X145580D01*
X130490Y279390D02*
X130490Y288520D01*
D61*
X207700Y200700D02*
G03*
X207700Y200700I-1000J0D01*
G01*
D62*
X209700D02*
X219700D01*
X209700D02*
Y210700D01*
X219700D01*
Y200700D02*
Y210700D01*
X219460Y229620D02*
Y245620D01*
X217460D02*
X219460D01*
X217460Y229620D02*
Y245620D01*
X215460D02*
X232460D01*
X215460Y229620D02*
X232460D01*
X219340Y250760D02*
Y266760D01*
X217340D02*
X219340D01*
X217340Y250760D02*
Y266760D01*
X215340D02*
X232340D01*
X215340Y250760D02*
X232340D01*
M02*
