M48
;Layer_Color=9474304
;FILE_FORMAT=4:4
METRIC,LZ
;TYPE=PLATED
T1F00S00C0.1500
T2F00S00C0.2000
T5F00S00C0.6000
T6F00S00C2.2000
%
T01
X-000037Y000081
X-000087Y000181
X000013
X000063Y000281
X-000037
X-000137
X-000237Y000481
X-000337
X-000287Y000581
X-000437Y000681
X-000487Y000781
X-000387
X-000337Y000881
X-000437
X-000537
X-000587Y000981
X-000487
X-000437Y001081
X-000337
X-000237
X-000387Y001181
X-000437Y001281
X-000537
X-000587Y001381
X-000487
X-000387
X-000137Y000881
X000863
X001013Y000581
X000613
X000263Y000281
X000663Y001281
X001113Y001381
X001613Y001181
X001913Y001381
Y001581
Y001781
X002013
X002113
X002213
X002313
X002413
X002363Y001881
X002263
X002163
X002063
X001963
X001913Y001981
X002013
X002113
X002213
X001963Y002081
Y002281
X001913Y002381
X002113Y002781
X002213
X002263Y002681
X001463Y001681
X001563Y001481
X001363Y001681
X001063
X000913Y001581
X000813
X000713Y001781
Y001981
X000813
X000913
X001013
X000963Y002081
X000863
X000813Y002181
X001213
X001263Y002281
X001213Y002381
X001263Y002481
X001213Y002581
X000913
X000813
X000713
X000613
X000663Y002481
X000563
X000313Y002381
X000363Y002681
X000313Y002781
X000413
X000163Y002681
X000063
X-000037
X-000137
X-000237
X-000287Y002581
X-000187
X-000087
X000013
Y002781
X-000087
X-000337Y002481
X-000387Y002381
X-000437Y002281
X-000487Y002181
X-000387
X-000287
X-000187
X-000287Y001981
X-000387
X-000487
X-000587
X-000537Y002081
X-000437
Y001881
X-000337
X-000237
X-000187Y001781
X-000387
X-000437Y001681
X-000537
X-000587Y001581
X-000487
X-000387
X-000437Y001481
X-000537
X000363
Y001881
X000463
X000513Y001981
X000463Y002081
X000363
X000513Y001781
X001313Y001981
X001263Y002081
X001413Y002181
X001013Y002381
X000963Y002481
Y002681
T02
X-00015Y000395
X000073Y000526
X000223Y000641
X0002987Y0006186
X000272Y000777
X000362Y000801
X00043205Y00079605
X000484Y000824
X0005333Y0007938
X00077Y00087789
X000831Y001179
X000774Y00127
X000744Y001425
X00065767Y00142533
X00057133Y00142633
X000485Y001426
X000387Y00136
X000433Y001285
X000491Y001183
X000373Y001048
X00037Y000984
X000185Y001046
X000019Y001011
X-000075Y000984
X-000073Y001206
X000061Y001402
X0000379Y0007927
X-000181Y000832
X0002948Y000058
X000589Y000267
X000712Y00024
X0007816Y0003026
X000765Y000359
X00076003Y00044703
X000916Y000363
X0009081Y0003065
X001027Y000312
X001161Y000304
X001194Y000429
X0011501Y0004755
X0012164Y0005255
X0012139Y0006255
X00126Y000775
X0012584Y0008314
X00139Y000918
X0012454Y0012476
X0011709Y0012478
X0010471Y0014259
X001028Y000496
X000965Y000226
X000848Y000227
X001395Y000221
X001323Y00036
X0014755Y0003072
X001465Y000224
X0015764Y0002606
X001627Y000289
X0016764Y0002452
X001718Y000198
X0019338Y0002218
X00187796Y00031645
X00191Y0004117
X001952Y000456
X00191381Y0005843
X0018817Y0006702
X001867Y000727
X00183098Y0006245
X001661Y000601
X001551
Y000711
X001441
Y000601
Y000491
X001551
X001661
Y000711
X0017914Y0008105
X0017931Y0008965
X00193Y000832
X001941Y000958
X001944Y00108
X001925Y001224
X001923Y001302
X001648Y001137
X001626Y00094699
X0015426Y0009882
X0014735Y0009219
X0014855Y0013996
X001913Y0000636
X001928Y001471
X001932Y001674
X0016521Y00183164
X001564Y0018652
X0014728Y0018664
X0014679Y0020338
X0015657
X00165646Y00202994
X0019155Y0021408
X0021076Y0022264
X0023152Y0024805
X002134Y002723
X001988Y002727
X0019016Y0026478
X0018997Y0028284
X0017376Y002785
X0016105Y0027708
X0015047Y002753
X0015532Y0028771
X0011594Y0029422
X0008842Y0026828
X0005385Y002547
X0005381Y002437
X-00012Y0024334
X-000121Y002377
X-000216Y0023844
X-000159Y001544
X-000114Y001488
X000879Y001451
X000963Y001491
X0010041Y0016341
X0011564Y0016747
X0012209Y0016746
X0013864Y0018662
T05
X-00007Y00036
Y00051
X-00019Y00097
X-00035
X0004Y00008
X000527
X000654
X000781
X000908Y0000799
X001035Y00008
X001162
X001289
X001416
X001543
X00167
X001797
X00242Y00191
Y00206
X002177Y00292
X00205Y00292
T06
X00015Y00015
X00235Y00285
M30
