G04 Layer_Color=16711935*
%FSLAX44Y44*%
%MOMM*%
G71*
G01*
G75*
%ADD42R,1.2000X0.8000*%
%ADD43R,0.8000X1.2000*%
%ADD66R,0.8032X0.6032*%
%ADD71R,0.6032X0.8032*%
%ADD80C,0.8032*%
%ADD83R,3.2032X2.2032*%
%ADD84O,0.4532X1.1032*%
%ADD85O,1.1032X0.4532*%
%ADD86R,1.6032X1.6032*%
%ADD87O,0.8032X1.1532*%
%ADD88R,4.4032X3.6032*%
%ADD89R,0.6032X0.7032*%
%ADD90R,1.3032X1.2032*%
%ADD91R,1.2032X2.0032*%
%ADD92R,1.2032X1.0032*%
%ADD93R,1.7032X1.2032*%
%ADD94R,0.5032X0.5282*%
%ADD95R,0.5282X0.5032*%
%ADD96R,0.7032X0.5032*%
%ADD97R,1.4532X2.3532*%
%ADD98R,2.0032X1.2032*%
%ADD99R,0.7032X0.4532*%
%ADD100R,0.4032X0.4532*%
G36*
X177133Y23229D02*
X177264Y23203D01*
X177390Y23160D01*
X177509Y23101D01*
X177620Y23027D01*
X177720Y22939D01*
X177808Y22839D01*
X177882Y22729D01*
X177941Y22609D01*
X177983Y22483D01*
X178009Y22352D01*
X178018Y22219D01*
Y20219D01*
X178009Y20087D01*
X177983Y19956D01*
X177941Y19830D01*
X177882Y19710D01*
X177808Y19600D01*
X177720Y19499D01*
X177368Y19148D01*
X177390Y19141D01*
X177509Y19082D01*
X177620Y19008D01*
X177720Y18920D01*
X177808Y18820D01*
X177882Y18709D01*
X177941Y18590D01*
X177983Y18463D01*
X178009Y18333D01*
X178018Y18200D01*
Y14200D01*
X178009Y14067D01*
X177983Y13937D01*
X177941Y13810D01*
X177882Y13691D01*
X177808Y13580D01*
X177720Y13480D01*
X177620Y13392D01*
X177509Y13318D01*
X177390Y13259D01*
X177264Y13217D01*
X177133Y13190D01*
X177000Y13182D01*
X173000D01*
X172867Y13190D01*
X172736Y13217D01*
X172610Y13259D01*
X172491Y13318D01*
X172380Y13392D01*
X172280Y13480D01*
X172192Y13580D01*
X172118Y13691D01*
X172059Y13810D01*
X172017Y13937D01*
X171991Y14067D01*
X171982Y14200D01*
Y18200D01*
X171991Y18333D01*
X172017Y18463D01*
X172059Y18590D01*
X172118Y18709D01*
X172192Y18820D01*
X172280Y18920D01*
X172380Y19008D01*
X172491Y19082D01*
X172610Y19141D01*
X172632Y19148D01*
X172280Y19499D01*
X172192Y19600D01*
X172118Y19710D01*
X172059Y19830D01*
X172017Y19956D01*
X171991Y20087D01*
X171982Y20219D01*
Y22219D01*
X171991Y22352D01*
X172017Y22483D01*
X172059Y22609D01*
X172118Y22729D01*
X172192Y22839D01*
X172280Y22939D01*
X172380Y23027D01*
X172491Y23101D01*
X172610Y23160D01*
X172736Y23203D01*
X172867Y23229D01*
X173000Y23238D01*
X177000D01*
X177133Y23229D01*
D02*
G37*
G36*
X192433Y22909D02*
X192563Y22883D01*
X192690Y22840D01*
X192809Y22782D01*
X192920Y22708D01*
X193020Y22620D01*
X193108Y22520D01*
X193182Y22409D01*
X193241Y22289D01*
X193284Y22163D01*
X193309Y22033D01*
X193318Y21900D01*
Y19900D01*
X193309Y19767D01*
X193284Y19636D01*
X193241Y19510D01*
X193182Y19391D01*
X193108Y19280D01*
X193020Y19180D01*
X192668Y18828D01*
X192690Y18821D01*
X192809Y18762D01*
X192920Y18688D01*
X193020Y18600D01*
X193108Y18500D01*
X193182Y18389D01*
X193241Y18270D01*
X193284Y18144D01*
X193309Y18013D01*
X193318Y17880D01*
Y13880D01*
X193309Y13748D01*
X193284Y13617D01*
X193241Y13491D01*
X193182Y13371D01*
X193108Y13261D01*
X193020Y13160D01*
X192920Y13073D01*
X192809Y12999D01*
X192690Y12940D01*
X192563Y12897D01*
X192433Y12871D01*
X192300Y12862D01*
X188300D01*
X188167Y12871D01*
X188036Y12897D01*
X187910Y12940D01*
X187791Y12999D01*
X187680Y13073D01*
X187580Y13160D01*
X187492Y13261D01*
X187418Y13371D01*
X187359Y13491D01*
X187316Y13617D01*
X187290Y13748D01*
X187282Y13880D01*
Y17880D01*
X187290Y18013D01*
X187316Y18144D01*
X187359Y18270D01*
X187418Y18389D01*
X187492Y18500D01*
X187580Y18600D01*
X187680Y18688D01*
X187791Y18762D01*
X187910Y18821D01*
X187932Y18828D01*
X187580Y19180D01*
X187492Y19280D01*
X187418Y19391D01*
X187359Y19510D01*
X187316Y19636D01*
X187290Y19767D01*
X187282Y19900D01*
Y21900D01*
X187290Y22033D01*
X187316Y22163D01*
X187359Y22289D01*
X187418Y22409D01*
X187492Y22520D01*
X187580Y22620D01*
X187680Y22708D01*
X187791Y22782D01*
X187910Y22840D01*
X188036Y22883D01*
X188167Y22909D01*
X188300Y22918D01*
X192300D01*
X192433Y22909D01*
D02*
G37*
G36*
X178933Y105210D02*
X179063Y105183D01*
X179190Y105141D01*
X179309Y105082D01*
X179420Y105008D01*
X179520Y104920D01*
X179608Y104820D01*
X179682Y104709D01*
X179741Y104590D01*
X179783Y104464D01*
X179809Y104333D01*
X179818Y104200D01*
Y102200D01*
X179809Y102067D01*
X179783Y101936D01*
X179741Y101810D01*
X179682Y101691D01*
X179608Y101580D01*
X179520Y101480D01*
X179168Y101129D01*
X179190Y101121D01*
X179309Y101062D01*
X179420Y100988D01*
X179520Y100900D01*
X179608Y100800D01*
X179682Y100690D01*
X179741Y100570D01*
X179783Y100444D01*
X179809Y100314D01*
X179818Y100181D01*
Y96181D01*
X179809Y96048D01*
X179783Y95917D01*
X179741Y95791D01*
X179682Y95672D01*
X179608Y95561D01*
X179520Y95461D01*
X179420Y95373D01*
X179309Y95299D01*
X179190Y95240D01*
X179063Y95197D01*
X178933Y95171D01*
X178800Y95162D01*
X174800D01*
X174667Y95171D01*
X174536Y95197D01*
X174410Y95240D01*
X174291Y95299D01*
X174180Y95373D01*
X174080Y95461D01*
X173992Y95561D01*
X173918Y95672D01*
X173859Y95791D01*
X173817Y95917D01*
X173790Y96048D01*
X173782Y96181D01*
Y100181D01*
X173790Y100314D01*
X173817Y100444D01*
X173859Y100570D01*
X173918Y100690D01*
X173992Y100800D01*
X174080Y100900D01*
X174180Y100988D01*
X174291Y101062D01*
X174410Y101121D01*
X174432Y101129D01*
X174080Y101480D01*
X173992Y101580D01*
X173918Y101691D01*
X173859Y101810D01*
X173817Y101936D01*
X173790Y102067D01*
X173782Y102200D01*
D01*
Y102200D01*
Y104200D01*
X173790Y104333D01*
X173817Y104464D01*
X173859Y104590D01*
X173918Y104709D01*
X173992Y104820D01*
X174080Y104920D01*
X174180Y105008D01*
X174291Y105082D01*
X174410Y105141D01*
X174536Y105183D01*
X174667Y105210D01*
X174800Y105218D01*
X178800D01*
X178933Y105210D01*
D02*
G37*
G36*
X129752Y134810D02*
X129883Y134783D01*
X130009Y134741D01*
X130128Y134682D01*
X130239Y134608D01*
X130339Y134520D01*
X130427Y134420D01*
X130501Y134309D01*
X130560Y134190D01*
X130603Y134064D01*
X130629Y133933D01*
X130638Y133800D01*
Y133800D01*
D01*
X130638Y129800D01*
X130629Y129667D01*
X130603Y129537D01*
X130560Y129410D01*
X130501Y129291D01*
X130427Y129180D01*
X130339Y129080D01*
X130239Y128992D01*
X130128Y128918D01*
X130009Y128859D01*
X129883Y128816D01*
X129752Y128791D01*
X129619Y128782D01*
X127619Y128782D01*
D01*
X127619D01*
X127486Y128791D01*
X127356Y128816D01*
X127230Y128859D01*
X127110Y128918D01*
X127000Y128992D01*
X126899Y129080D01*
X126548Y129432D01*
X126541Y129410D01*
X126482Y129291D01*
X126408Y129180D01*
X126320Y129080D01*
X126220Y128992D01*
X126109Y128918D01*
X125990Y128859D01*
X125864Y128816D01*
X125733Y128791D01*
X125600Y128782D01*
X121600Y128782D01*
X121467Y128791D01*
X121336Y128816D01*
X121210Y128859D01*
X121091Y128918D01*
X120980Y128992D01*
X120880Y129080D01*
X120792Y129180D01*
X120718Y129291D01*
X120659Y129410D01*
X120617Y129536D01*
X120590Y129667D01*
X120582Y129800D01*
Y133800D01*
X120590Y133933D01*
X120617Y134064D01*
X120659Y134190D01*
X120718Y134309D01*
X120792Y134420D01*
X120880Y134520D01*
X120980Y134608D01*
X121091Y134682D01*
X121210Y134741D01*
X121336Y134783D01*
X121467Y134809D01*
X121600Y134818D01*
X125600D01*
X125733Y134809D01*
X125864Y134783D01*
X125990Y134741D01*
X126109Y134682D01*
X126220Y134608D01*
X126320Y134520D01*
X126408Y134420D01*
X126482Y134309D01*
X126541Y134190D01*
X126548Y134168D01*
X126899Y134520D01*
X127000Y134608D01*
X127110Y134682D01*
X127230Y134741D01*
X127356Y134783D01*
X127486Y134809D01*
X127619Y134818D01*
X129619Y134818D01*
D01*
X129619D01*
X129752Y134810D01*
D02*
G37*
G36*
X189833Y105210D02*
X189963Y105183D01*
X190090Y105141D01*
X190209Y105082D01*
X190320Y105008D01*
X190420Y104920D01*
X190508Y104820D01*
X190582Y104709D01*
X190641Y104590D01*
X190683Y104464D01*
X190709Y104333D01*
X190718Y104200D01*
Y102200D01*
X190709Y102067D01*
X190683Y101936D01*
X190641Y101810D01*
X190582Y101691D01*
X190508Y101580D01*
X190420Y101480D01*
X190068Y101129D01*
X190090Y101121D01*
X190209Y101062D01*
X190320Y100988D01*
X190420Y100900D01*
X190508Y100800D01*
X190582Y100690D01*
X190641Y100570D01*
X190683Y100444D01*
X190709Y100314D01*
X190718Y100181D01*
Y96181D01*
X190709Y96048D01*
X190683Y95917D01*
X190641Y95791D01*
X190582Y95672D01*
X190508Y95561D01*
X190420Y95461D01*
X190320Y95373D01*
X190209Y95299D01*
X190090Y95240D01*
X189963Y95197D01*
X189833Y95171D01*
X189700Y95162D01*
X185700D01*
X185567Y95171D01*
X185436Y95197D01*
X185310Y95240D01*
X185191Y95299D01*
X185080Y95373D01*
X184980Y95461D01*
X184892Y95561D01*
X184818Y95672D01*
X184759Y95791D01*
X184716Y95917D01*
X184690Y96048D01*
X184682Y96181D01*
Y100181D01*
X184690Y100314D01*
X184716Y100444D01*
X184759Y100570D01*
X184818Y100690D01*
X184892Y100800D01*
X184980Y100900D01*
X185080Y100988D01*
X185191Y101062D01*
X185310Y101121D01*
X185332Y101129D01*
X184980Y101480D01*
X184892Y101580D01*
X184818Y101691D01*
X184759Y101810D01*
X184716Y101936D01*
X184690Y102067D01*
X184682Y102200D01*
D01*
Y102200D01*
Y104200D01*
X184690Y104333D01*
X184716Y104464D01*
X184759Y104590D01*
X184818Y104709D01*
X184892Y104820D01*
X184980Y104920D01*
X185080Y105008D01*
X185191Y105082D01*
X185310Y105141D01*
X185436Y105183D01*
X185567Y105210D01*
X185700Y105218D01*
X189700D01*
X189833Y105210D01*
D02*
G37*
D42*
X6000Y25400D02*
D03*
X244000Y215900D02*
D03*
X244000Y203200D02*
D03*
X6000Y76200D02*
D03*
X6000Y88900D02*
D03*
Y38100D02*
D03*
Y50800D02*
D03*
D43*
X152400Y6000D02*
D03*
X139700D02*
D03*
X165100Y6000D02*
D03*
X203200D02*
D03*
X63500Y6000D02*
D03*
X190500Y6000D02*
D03*
X177800Y6000D02*
D03*
X38100Y6000D02*
D03*
X25400Y6000D02*
D03*
X127000Y6000D02*
D03*
X50800D02*
D03*
X88900D02*
D03*
X101600D02*
D03*
X114300Y6000D02*
D03*
X76200Y6000D02*
D03*
D66*
X167200Y65700D02*
D03*
Y73700D02*
D03*
X153600Y73800D02*
D03*
Y65800D02*
D03*
X117500Y81600D02*
D03*
Y89600D02*
D03*
X161700Y46300D02*
D03*
Y54300D02*
D03*
X35100Y82000D02*
D03*
Y90000D02*
D03*
X145400Y145700D02*
D03*
Y153700D02*
D03*
X187700Y46100D02*
D03*
Y54100D02*
D03*
X174600Y46100D02*
D03*
Y54100D02*
D03*
X102400Y71400D02*
D03*
Y63400D02*
D03*
Y87100D02*
D03*
Y95100D02*
D03*
X184600Y27200D02*
D03*
Y35200D02*
D03*
X162339Y29000D02*
D03*
Y21000D02*
D03*
D71*
X149300Y49700D02*
D03*
X141300D02*
D03*
X153370Y33200D02*
D03*
X145370D02*
D03*
X153370Y19800D02*
D03*
X145370D02*
D03*
X157900Y100800D02*
D03*
X149900D02*
D03*
X157900Y86900D02*
D03*
X165900D02*
D03*
X127900Y17800D02*
D03*
X135900D02*
D03*
X101600Y29500D02*
D03*
X93600D02*
D03*
X32800Y149800D02*
D03*
X40800D02*
D03*
X61600Y157300D02*
D03*
X53600D02*
D03*
X61600Y143500D02*
D03*
X53600D02*
D03*
X49900Y98200D02*
D03*
X57900D02*
D03*
X46400Y33700D02*
D03*
X54400D02*
D03*
X26100Y37400D02*
D03*
X18100D02*
D03*
X26100Y51500D02*
D03*
X18100D02*
D03*
X122684Y30900D02*
D03*
X114684D02*
D03*
X49700Y67000D02*
D03*
X57700D02*
D03*
X54500Y51500D02*
D03*
X46500D02*
D03*
X33200Y21200D02*
D03*
X25200D02*
D03*
D80*
X117375Y172075D02*
D03*
Y120075D02*
D03*
X127400Y122900D02*
D03*
X182500Y86600D02*
D03*
X177600Y78400D02*
D03*
X159400Y93500D02*
D03*
X0Y25400D02*
D03*
X8000D02*
D03*
X152400Y8000D02*
D03*
Y0D02*
D03*
X139700Y8000D02*
D03*
Y0D02*
D03*
X165100Y8000D02*
D03*
Y0D02*
D03*
X203200Y8000D02*
D03*
Y0D02*
D03*
X242000Y215900D02*
D03*
X250000D02*
D03*
X242000Y203200D02*
D03*
X250000D02*
D03*
X63500Y8000D02*
D03*
Y0D02*
D03*
X8000Y76200D02*
D03*
X0D02*
D03*
X8000Y88900D02*
D03*
X0D02*
D03*
X8000Y38100D02*
D03*
X0D02*
D03*
X8000Y50800D02*
D03*
X0D02*
D03*
X190500Y8000D02*
D03*
Y0D02*
D03*
X177800Y8000D02*
D03*
Y0D02*
D03*
X38100Y8000D02*
D03*
Y0D02*
D03*
X25400Y8000D02*
D03*
Y0D02*
D03*
X127000Y8000D02*
D03*
Y0D02*
D03*
X50800Y8000D02*
D03*
Y0D02*
D03*
X88900Y8000D02*
D03*
Y0D02*
D03*
X101600Y8000D02*
D03*
Y0D02*
D03*
X114300Y8000D02*
D03*
Y0D02*
D03*
X76200Y8000D02*
D03*
Y0D02*
D03*
D83*
X218600Y210700D02*
D03*
Y270700D02*
D03*
D84*
X153000Y200450D02*
D03*
X158000D02*
D03*
X163000D02*
D03*
X168000D02*
D03*
Y172950D02*
D03*
X163000D02*
D03*
X158000D02*
D03*
X153000D02*
D03*
X185200Y115800D02*
D03*
X180200D02*
D03*
X175200D02*
D03*
X170200D02*
D03*
X165200D02*
D03*
Y138800D02*
D03*
X170200D02*
D03*
X175200D02*
D03*
X180200D02*
D03*
X185200D02*
D03*
D85*
X174250Y194200D02*
D03*
Y189200D02*
D03*
Y184200D02*
D03*
Y179200D02*
D03*
X146750D02*
D03*
Y184200D02*
D03*
Y189200D02*
D03*
Y194200D02*
D03*
X189200Y129800D02*
D03*
Y124800D02*
D03*
X161200D02*
D03*
Y129800D02*
D03*
D86*
X160500Y186700D02*
D03*
D87*
X176650Y224850D02*
D03*
X163950D02*
D03*
X151250D02*
D03*
X138550D02*
D03*
Y282350D02*
D03*
X151250D02*
D03*
X163950D02*
D03*
X176650D02*
D03*
D88*
X157600Y253600D02*
D03*
D89*
X97400Y137500D02*
D03*
X90900D02*
D03*
X84400D02*
D03*
Y156500D02*
D03*
X90900D02*
D03*
X97400D02*
D03*
D90*
X40100Y171950D02*
D03*
X76500D02*
D03*
D91*
X7300Y283200D02*
D03*
Y211200D02*
D03*
X109300D02*
D03*
Y283200D02*
D03*
D92*
X9300Y230700D02*
D03*
Y242700D02*
D03*
Y254700D02*
D03*
X107300D02*
D03*
Y242700D02*
D03*
Y230700D02*
D03*
D93*
X175200Y127300D02*
D03*
D94*
X122500Y142375D02*
D03*
X127500D02*
D03*
Y157625D02*
D03*
X122500D02*
D03*
D95*
X132625Y142500D02*
D03*
Y147500D02*
D03*
Y152500D02*
D03*
Y157500D02*
D03*
X117375D02*
D03*
Y152500D02*
D03*
Y147500D02*
D03*
Y142500D02*
D03*
D96*
X39000Y110700D02*
D03*
Y115700D02*
D03*
Y120700D02*
D03*
Y125700D02*
D03*
Y130700D02*
D03*
X61600Y110700D02*
D03*
Y115700D02*
D03*
Y120700D02*
D03*
Y125700D02*
D03*
Y130700D02*
D03*
D97*
X50300Y120700D02*
D03*
D98*
X15600Y129500D02*
D03*
Y104500D02*
D03*
D99*
X195700Y27400D02*
D03*
X173700Y28200D02*
D03*
D100*
X193700Y33900D02*
D03*
X197700D02*
D03*
X171700Y34700D02*
D03*
X175700D02*
D03*
M02*
