G04 Layer_Color=128*
%FSLAX44Y44*%
%MOMM*%
G71*
G01*
G75*
%ADD14R,0.6000X0.4000*%
%ADD17R,0.4000X0.6000*%
%ADD18R,0.2000X0.2000*%
%ADD28R,0.2000X0.2000*%
%ADD57R,0.6000X0.6000*%
%ADD58R,1.0000X0.8000*%
%ADD59R,1.0000X1.8000*%
%ADD60R,1.1000X1.0000*%
%ADD61R,1.1000X1.6500*%
%ADD62R,3.0000X2.0000*%
%ADD63O,0.6000X0.9500*%
%ADD64R,4.2000X3.4000*%
%ADD65O,0.9000X0.2500*%
%ADD66O,0.2500X0.9000*%
%ADD67R,1.5000X1.0000*%
%ADD68R,0.8500X0.7500*%
G04:AMPARAMS|DCode=69|XSize=0.45mm|YSize=0.23mm|CornerRadius=0mm|HoleSize=0mm|Usage=FLASHONLY|Rotation=180.000|XOffset=0mm|YOffset=0mm|HoleType=Round|Shape=Octagon|*
%AMOCTAGOND69*
4,1,8,-0.2250,0.0575,-0.2250,-0.0575,-0.1675,-0.1150,0.1675,-0.1150,0.2250,-0.0575,0.2250,0.0575,0.1675,0.1150,-0.1675,0.1150,-0.2250,0.0575,0.0*
%
%ADD69OCTAGOND69*%

%ADD70C,0.2500*%
%ADD71P,0.2828X4X180.0*%
%ADD72R,0.4000X0.5000*%
%ADD73R,2.1500X1.2500*%
%ADD74R,0.3000X0.5000*%
%ADD75R,1.0000X1.8000*%
%ADD76R,0.2000X0.2500*%
%ADD77R,0.5000X0.2500*%
G36*
X50500Y151400D02*
X48500Y153400D01*
X46500Y151400D01*
Y155400D01*
X50500D01*
Y151400D01*
D02*
G37*
G36*
X97300Y134180D02*
X93300D01*
Y138180D01*
X95300Y136180D01*
X97300Y138180D01*
Y134180D01*
D02*
G37*
G36*
X67767Y151400D02*
X65767Y153400D01*
X63767Y151400D01*
Y155400D01*
X67767D01*
Y151400D01*
D02*
G37*
G36*
X59133D02*
X57133Y153400D01*
X55133Y151400D01*
Y155400D01*
X59133D01*
Y151400D01*
D02*
G37*
G36*
X-16200Y56781D02*
X-20200D01*
Y60781D01*
X-18200Y58781D01*
X-16200Y60781D01*
Y56781D01*
D02*
G37*
G36*
X58800Y19000D02*
X60800Y17000D01*
X56800D01*
Y21000D01*
X60800D01*
X58800Y19000D01*
D02*
G37*
G36*
X89900Y134180D02*
X85900D01*
Y138180D01*
X87900Y136180D01*
X89900Y138180D01*
Y134180D01*
D02*
G37*
G36*
X-16100Y73681D02*
X-18100Y75681D01*
X-20100Y73681D01*
Y77681D01*
X-16100D01*
Y73681D01*
D02*
G37*
G36*
X76400Y151400D02*
X74400Y153400D01*
X72400Y151400D01*
Y155400D01*
X76400D01*
Y151400D01*
D02*
G37*
G36*
X198584Y221114D02*
X201413D01*
X198584Y218286D01*
X195756Y221114D01*
X198584Y223943D01*
Y221114D01*
D02*
G37*
G36*
X231230Y213592D02*
X227230D01*
X229230Y215592D01*
X227230Y217592D01*
X231230D01*
Y213592D01*
D02*
G37*
G36*
X193800Y251900D02*
X191800Y253900D01*
X189800Y251900D01*
Y255900D01*
X193800D01*
Y251900D01*
D02*
G37*
G36*
X214290Y222640D02*
X216290Y220640D01*
X212290D01*
Y224640D01*
X216290D01*
X214290Y222640D01*
D02*
G37*
G36*
X149280Y193390D02*
X147280Y195390D01*
X145280Y193390D01*
Y197390D01*
X149280D01*
Y193390D01*
D02*
G37*
G36*
X140640D02*
X138640Y195390D01*
X136640Y193390D01*
Y197390D01*
X140640D01*
Y193390D01*
D02*
G37*
G36*
X167210D02*
X165210Y195390D01*
X163210Y193390D01*
Y197390D01*
X167210D01*
Y193390D01*
D02*
G37*
G36*
X158400D02*
X156400Y195390D01*
X154400Y193390D01*
Y197390D01*
X158400D01*
Y193390D01*
D02*
G37*
D14*
X-6300Y67900D02*
D03*
Y75900D02*
D03*
X177710Y66800D02*
D03*
Y74800D02*
D03*
X147600Y106200D02*
D03*
Y98200D02*
D03*
X178000Y46000D02*
D03*
Y54000D02*
D03*
X113000Y68400D02*
D03*
Y76400D02*
D03*
X113150Y100550D02*
D03*
Y92550D02*
D03*
X230200Y198000D02*
D03*
Y206000D02*
D03*
X132700Y97600D02*
D03*
Y106600D02*
D03*
X133430Y72050D02*
D03*
Y81050D02*
D03*
X189970Y276950D02*
D03*
Y268950D02*
D03*
X19200Y107200D02*
D03*
Y99200D02*
D03*
X178400Y34000D02*
D03*
Y26000D02*
D03*
D17*
X152200Y65900D02*
D03*
X160200D02*
D03*
X15400Y58200D02*
D03*
X7400D02*
D03*
X87800Y22100D02*
D03*
X95800D02*
D03*
X133980Y283980D02*
D03*
X141980D02*
D03*
X151510Y82380D02*
D03*
X159510D02*
D03*
D18*
X230230Y215592D02*
D03*
X224710D02*
D03*
X213290Y222640D02*
D03*
X218810D02*
D03*
X63320Y19000D02*
D03*
X57800D02*
D03*
D28*
X191800Y254900D02*
D03*
Y249380D02*
D03*
X165210Y196390D02*
D03*
Y190870D02*
D03*
X156400Y196390D02*
D03*
Y190870D02*
D03*
X147280Y196390D02*
D03*
Y190870D02*
D03*
X65767Y154400D02*
D03*
Y148880D02*
D03*
X74400Y154400D02*
D03*
Y148880D02*
D03*
X57133Y154400D02*
D03*
Y148880D02*
D03*
X138640Y196390D02*
D03*
Y190870D02*
D03*
X48500Y154400D02*
D03*
Y148880D02*
D03*
X87900Y135180D02*
D03*
Y140700D02*
D03*
X95300Y135180D02*
D03*
Y140700D02*
D03*
X-18200Y57781D02*
D03*
Y63300D02*
D03*
X-18100Y76681D02*
D03*
Y71161D02*
D03*
D57*
X6300Y39300D02*
D03*
X28300D02*
D03*
D58*
X110460Y230570D02*
D03*
Y242570D02*
D03*
Y254570D02*
D03*
X12460D02*
D03*
Y242570D02*
D03*
Y230570D02*
D03*
D59*
X112460Y283070D02*
D03*
Y211070D02*
D03*
X10460D02*
D03*
Y283070D02*
D03*
D60*
X79660Y171820D02*
D03*
X43260D02*
D03*
D61*
X207460Y237620D02*
D03*
X240460D02*
D03*
X207340Y258760D02*
D03*
X240340D02*
D03*
D62*
X57400Y37400D02*
D03*
Y97400D02*
D03*
D63*
X173750Y213210D02*
D03*
X161050D02*
D03*
X148350D02*
D03*
X135650D02*
D03*
Y270710D02*
D03*
X148350D02*
D03*
X161050D02*
D03*
X173750D02*
D03*
D64*
X154700Y241960D02*
D03*
D65*
X113090Y142590D02*
D03*
Y147590D02*
D03*
X141090D02*
D03*
Y142590D02*
D03*
D66*
X117090Y156590D02*
D03*
X122090D02*
D03*
X127090D02*
D03*
X132090D02*
D03*
X137090D02*
D03*
Y133590D02*
D03*
X132090D02*
D03*
X127090D02*
D03*
X122090D02*
D03*
X117090D02*
D03*
D67*
X127090Y145090D02*
D03*
D68*
X171980Y97680D02*
D03*
Y108180D02*
D03*
X185480D02*
D03*
Y97680D02*
D03*
D69*
X218700Y202700D02*
D03*
Y209200D02*
D03*
X210400Y202700D02*
D03*
Y209200D02*
D03*
D70*
X214550Y205950D02*
D03*
D71*
X197877Y220407D02*
D03*
X201780Y224310D02*
D03*
D72*
X72200Y118900D02*
D03*
X65700D02*
D03*
X59200D02*
D03*
Y137900D02*
D03*
X65700D02*
D03*
X72200D02*
D03*
D73*
X17300Y79400D02*
D03*
D74*
X27300Y68100D02*
D03*
X22300D02*
D03*
X17300D02*
D03*
X12300D02*
D03*
X7300D02*
D03*
X27300Y90700D02*
D03*
X22300D02*
D03*
X17300D02*
D03*
X12300D02*
D03*
X7300D02*
D03*
D75*
X32600Y123500D02*
D03*
X7600D02*
D03*
D76*
X32000Y104800D02*
D03*
X28000D02*
D03*
D77*
X30000Y98300D02*
D03*
M02*
