G04*
G04 #@! TF.GenerationSoftware,Altium Limited,Altium Designer,18.1.1 (9)*
G04*
G04 Layer_Physical_Order=1*
G04 Layer_Color=255*
%FSLAX44Y44*%
%MOMM*%
G71*
G01*
G75*
%ADD11C,0.2500*%
%ADD13C,0.1200*%
%ADD15C,0.2000*%
%ADD16R,1.2500X1.0000*%
G04:AMPARAMS|DCode=17|XSize=0.5mm|YSize=0.25mm|CornerRadius=0mm|HoleSize=0mm|Usage=FLASHONLY|Rotation=225.000|XOffset=0mm|YOffset=0mm|HoleType=Round|Shape=Rectangle|*
%AMROTATEDRECTD17*
4,1,4,0.0884,0.2652,0.2652,0.0884,-0.0884,-0.2652,-0.2652,-0.0884,0.0884,0.2652,0.0*
%
%ADD17ROTATEDRECTD17*%

G04:AMPARAMS|DCode=18|XSize=0.2mm|YSize=0.25mm|CornerRadius=0mm|HoleSize=0mm|Usage=FLASHONLY|Rotation=225.000|XOffset=0mm|YOffset=0mm|HoleType=Round|Shape=Rectangle|*
%AMROTATEDRECTD18*
4,1,4,-0.0177,0.1591,0.1591,-0.0177,0.0177,-0.1591,-0.1591,0.0177,-0.0177,0.1591,0.0*
%
%ADD18ROTATEDRECTD18*%

%ADD19R,0.2500X0.5000*%
%ADD20R,0.2500X0.2000*%
%ADD21R,0.2000X0.2000*%
%ADD22R,0.2000X0.2000*%
%ADD23R,0.4000X0.6000*%
%ADD24R,0.6000X0.4000*%
%ADD25R,2.2000X1.0500*%
%ADD26R,1.0500X1.0000*%
%ADD27C,0.2200*%
%ADD28O,0.8500X0.2500*%
%ADD29O,0.2500X0.8500*%
%ADD30R,3.5000X3.5000*%
%ADD31R,0.3000X0.3250*%
%ADD32R,0.3250X0.3000*%
G04:AMPARAMS|DCode=33|XSize=1.8mm|YSize=0.6mm|CornerRadius=0.15mm|HoleSize=0mm|Usage=FLASHONLY|Rotation=180.000|XOffset=0mm|YOffset=0mm|HoleType=Round|Shape=RoundedRectangle|*
%AMROUNDEDRECTD33*
21,1,1.8000,0.3000,0,0,180.0*
21,1,1.5000,0.6000,0,0,180.0*
1,1,0.3000,-0.7500,0.1500*
1,1,0.3000,0.7500,0.1500*
1,1,0.3000,0.7500,-0.1500*
1,1,0.3000,-0.7500,-0.1500*
%
%ADD33ROUNDEDRECTD33*%
G04:AMPARAMS|DCode=34|XSize=1.8mm|YSize=0.6mm|CornerRadius=0.15mm|HoleSize=0mm|Usage=FLASHONLY|Rotation=90.000|XOffset=0mm|YOffset=0mm|HoleType=Round|Shape=RoundedRectangle|*
%AMROUNDEDRECTD34*
21,1,1.8000,0.3000,0,0,90.0*
21,1,1.5000,0.6000,0,0,90.0*
1,1,0.3000,0.1500,0.7500*
1,1,0.3000,0.1500,-0.7500*
1,1,0.3000,-0.1500,-0.7500*
1,1,0.3000,-0.1500,0.7500*
%
%ADD34ROUNDEDRECTD34*%
G04:AMPARAMS|DCode=35|XSize=0.4mm|YSize=0.6mm|CornerRadius=0mm|HoleSize=0mm|Usage=FLASHONLY|Rotation=45.000|XOffset=0mm|YOffset=0mm|HoleType=Round|Shape=Rectangle|*
%AMROTATEDRECTD35*
4,1,4,0.0707,-0.3536,-0.3536,0.0707,-0.0707,0.3536,0.3536,-0.0707,0.0707,-0.3536,0.0*
%
%ADD35ROTATEDRECTD35*%

%ADD36R,0.5000X0.5000*%
%ADD37R,0.5000X0.9000*%
%ADD38R,0.8000X1.2000*%
%ADD39R,1.2000X0.8000*%
%ADD60C,0.5000*%
%ADD61C,0.9000*%
%ADD62C,0.3000*%
%ADD63C,0.4000*%
%ADD64R,1.6100X0.3313*%
%ADD65C,0.6000*%
%ADD66C,2.2000*%
%ADD67C,0.4500*%
%ADD68C,0.5000*%
G36*
X205700Y276500D02*
X201700D01*
X203700Y278500D01*
X201700Y280500D01*
X205700D01*
Y276500D01*
D02*
G37*
G36*
X201681Y278500D02*
X199681Y276500D01*
X197681D01*
Y280500D01*
X199681D01*
X201681Y278500D01*
D02*
G37*
G36*
X249981Y211191D02*
X238000D01*
X237158Y210842D01*
X236809Y210000D01*
Y202000D01*
X237158Y201158D01*
X238000Y200809D01*
X249981D01*
Y198945D01*
X247838Y198519D01*
X246006Y197294D01*
X245994D01*
X244162Y198519D01*
X243270Y198696D01*
Y193300D01*
Y187904D01*
X244162Y188081D01*
X245994Y189306D01*
X246006D01*
X247838Y188081D01*
X249981Y187655D01*
Y173990D01*
X197870Y173990D01*
Y56251D01*
X195000D01*
X194645Y56180D01*
X191400D01*
Y54996D01*
X186265D01*
X185805Y55858D01*
X185699Y56266D01*
X185712Y56330D01*
X179100D01*
Y58870D01*
X185712D01*
X185670Y59079D01*
X184832Y60332D01*
X183850Y60989D01*
X184314Y61683D01*
X184496Y62600D01*
X184314Y63517D01*
X184243Y63623D01*
X184856Y64910D01*
X185538Y64929D01*
X185755Y64605D01*
X186863Y63864D01*
X188170Y63604D01*
X189477Y63864D01*
X190585Y64605D01*
X191326Y65713D01*
X191586Y67020D01*
X191326Y68327D01*
X190585Y69435D01*
X189477Y70176D01*
X189828Y71352D01*
X189855Y71393D01*
X190115Y72700D01*
X189855Y74007D01*
X189115Y75115D01*
X188007Y75855D01*
X186700Y76115D01*
X185392Y75855D01*
X185204Y75729D01*
X184288Y76645D01*
X184314Y76683D01*
X184496Y77600D01*
X184314Y78517D01*
X183794Y79294D01*
X183017Y79814D01*
X182337Y79949D01*
X182556Y81050D01*
X182296Y82357D01*
X181555Y83465D01*
X180447Y84206D01*
X179140Y84466D01*
X177833Y84206D01*
X176725Y83465D01*
X176266Y82779D01*
X174996Y83164D01*
Y87100D01*
X175332Y87509D01*
X176712D01*
X176895Y87235D01*
X178003Y86494D01*
X179310Y86234D01*
X180617Y86494D01*
X181725Y87235D01*
X182466Y88343D01*
X182726Y89650D01*
X182676Y89900D01*
X183718Y91170D01*
X187850D01*
Y95440D01*
X183310D01*
Y96710D01*
X182040D01*
Y102250D01*
X178770D01*
Y101931D01*
X178410Y100810D01*
X172210D01*
Y92610D01*
X172210Y92610D01*
X172210D01*
X171903Y91416D01*
X171526Y91164D01*
X171126Y90764D01*
X171011Y90592D01*
X169741Y90977D01*
Y98600D01*
X169578Y99419D01*
X169114Y100114D01*
X166941Y102287D01*
Y111101D01*
X167215Y111285D01*
X167955Y112393D01*
X168215Y113700D01*
X167955Y115007D01*
X167215Y116115D01*
X166107Y116855D01*
X164800Y117115D01*
X163493Y116855D01*
X162384Y116115D01*
X161644Y115007D01*
X161384Y113700D01*
X161644Y112393D01*
X162384Y111285D01*
X162659Y111101D01*
Y101400D01*
X162822Y100581D01*
X163286Y99886D01*
X164051Y99122D01*
X163425Y97951D01*
X162600Y98115D01*
X161293Y97855D01*
X160454Y97295D01*
X159916Y97154D01*
X158792Y97316D01*
X157611Y98497D01*
X157676Y98820D01*
X157416Y100127D01*
X156675Y101235D01*
X155567Y101976D01*
X154260Y102236D01*
X152953Y101976D01*
X151845Y101235D01*
X151104Y100127D01*
X150844Y98820D01*
X151104Y97513D01*
X151845Y96405D01*
X152953Y95664D01*
X154260Y95404D01*
X154583Y95469D01*
X155499Y94553D01*
Y91249D01*
X154229Y90570D01*
X154079Y90670D01*
X153870Y90712D01*
Y84100D01*
X151330D01*
Y91211D01*
X150686Y91791D01*
X150766Y92190D01*
X150506Y93497D01*
X149765Y94605D01*
X148657Y95346D01*
X148503Y96671D01*
X148806Y97124D01*
X149119Y98700D01*
Y104930D01*
X143500D01*
Y106200D01*
X142230D01*
Y117819D01*
X142000D01*
X140424Y117506D01*
X139087Y116613D01*
X138194Y115276D01*
X137881Y113700D01*
X136651D01*
X136449Y114714D01*
X135875Y115575D01*
X135014Y116149D01*
X134000Y116351D01*
X131000D01*
X129986Y116149D01*
X129125Y115575D01*
X128551Y114714D01*
X128349Y113700D01*
X127119D01*
X126806Y115276D01*
X125913Y116613D01*
X124576Y117506D01*
X123000Y117819D01*
X122770D01*
Y106200D01*
Y94581D01*
X123000D01*
X124576Y94894D01*
X125913Y95787D01*
X126806Y97124D01*
X127119Y98700D01*
X128349D01*
X128551Y97685D01*
X129125Y96826D01*
X129986Y96251D01*
X131000Y96049D01*
X134000D01*
X135014Y96251D01*
X135875Y96826D01*
X136449Y97685D01*
X136651Y98700D01*
X137881D01*
X138194Y97124D01*
X138651Y96441D01*
X138099Y95036D01*
X137693Y94955D01*
X136585Y94215D01*
X135844Y93107D01*
X135584Y91800D01*
X135844Y90493D01*
X135942Y90346D01*
X135906Y88794D01*
X135386Y88017D01*
X135204Y87100D01*
Y86191D01*
X130200D01*
X129381Y86028D01*
X128686Y85564D01*
X128639Y85517D01*
X128255Y85555D01*
X127147Y86296D01*
X125840Y86556D01*
X124533Y86296D01*
X123425Y85555D01*
X122684Y84447D01*
X122424Y83140D01*
X122684Y81833D01*
X123425Y80725D01*
X123584Y80618D01*
Y79915D01*
X122844Y78807D01*
X122584Y77500D01*
X122844Y76193D01*
X122999Y75961D01*
X122320Y74691D01*
X119477D01*
X118340Y75828D01*
Y83640D01*
X103640D01*
Y79821D01*
X97470D01*
Y81780D01*
X91270Y81780D01*
X90910Y82901D01*
Y83220D01*
X87640D01*
Y77680D01*
Y72140D01*
X90910D01*
Y72459D01*
X91270Y73580D01*
X92180Y73580D01*
X97470D01*
Y75539D01*
X103640D01*
Y71440D01*
X116672D01*
X117076Y71036D01*
X117476Y70769D01*
X117578Y70270D01*
X117569Y69743D01*
X117476Y69358D01*
X117036Y69064D01*
X116612Y68640D01*
X103640D01*
Y64731D01*
X97520D01*
Y66690D01*
X91320Y66690D01*
X90960Y67811D01*
Y68130D01*
X87690D01*
Y62590D01*
X86420D01*
Y61320D01*
X81880D01*
Y57511D01*
X81880Y57050D01*
X80945Y56241D01*
X71600D01*
X71360Y56193D01*
X70090Y57028D01*
Y60160D01*
X69771D01*
X68650Y60520D01*
X68650Y61430D01*
Y66720D01*
X64038D01*
X63411Y67347D01*
Y68966D01*
X63790Y69219D01*
X67790D01*
X68632Y69568D01*
X70095Y69787D01*
X70833Y69294D01*
X72140Y69034D01*
X73447Y69294D01*
X74555Y70035D01*
X75296Y71143D01*
X75556Y72450D01*
X75296Y73757D01*
X74555Y74865D01*
X73447Y75606D01*
X72140Y75866D01*
X70833Y75606D01*
X70071Y75096D01*
X68632Y75252D01*
X67790Y75601D01*
X63790D01*
X63331Y75907D01*
Y78039D01*
X63990Y78479D01*
X67990D01*
X68832Y78828D01*
X68911Y79019D01*
X70881D01*
X70881Y79019D01*
X71895Y79221D01*
X72755Y79795D01*
X77416Y84456D01*
X78307Y84634D01*
X79415Y85374D01*
X80156Y86482D01*
X80416Y87789D01*
X80156Y89096D01*
X79415Y90204D01*
X78307Y90945D01*
X77000Y91205D01*
X75693Y90945D01*
X74585Y90204D01*
X73844Y89096D01*
X73667Y88205D01*
X70084Y84622D01*
X68832Y84512D01*
X67990Y84861D01*
X63990D01*
X63148Y84512D01*
X61971Y84861D01*
X61971Y84861D01*
X59971D01*
X59129Y84512D01*
X58780Y83670D01*
Y79670D01*
X59049Y79021D01*
Y75302D01*
X58928Y75252D01*
X58580Y74410D01*
Y70410D01*
X58928Y69568D01*
X58620Y68321D01*
X56055D01*
Y73780D01*
X56055Y73780D01*
X56171Y75002D01*
X56486Y75473D01*
X56746Y76780D01*
X56486Y78087D01*
X55745Y79195D01*
X54637Y79936D01*
X53330Y80196D01*
X52660Y80062D01*
X51390Y80924D01*
Y82910D01*
X51041Y83752D01*
X50199Y84101D01*
X48199D01*
X47358Y83752D01*
X47302Y83696D01*
X47022Y83752D01*
X46180Y84101D01*
X46180Y84101D01*
X42180D01*
X41338Y83752D01*
X40989Y82910D01*
Y80933D01*
X39719Y80254D01*
X39507Y80396D01*
X38200Y80656D01*
X36893Y80396D01*
X35785Y79655D01*
X35044Y78547D01*
X34784Y77240D01*
X35044Y75933D01*
X35634Y75050D01*
X35355Y73780D01*
X34275Y73321D01*
X24080D01*
X23261Y73158D01*
X22566Y72694D01*
X20786Y70914D01*
X20322Y70219D01*
X20159Y69400D01*
Y66698D01*
X19885Y66515D01*
X19144Y65407D01*
X18884Y64100D01*
X19144Y62793D01*
X19885Y61685D01*
X20993Y60944D01*
X22300Y60684D01*
X23607Y60944D01*
X24715Y61685D01*
X25298Y62557D01*
X26495Y62062D01*
X26454Y61860D01*
X26714Y60553D01*
X27455Y59445D01*
X27729Y59262D01*
Y58910D01*
X27892Y58091D01*
X28356Y57396D01*
X31086Y54666D01*
X31781Y54202D01*
X32600Y54039D01*
X35355D01*
Y53580D01*
X39165D01*
Y51890D01*
X41935D01*
Y56055D01*
X44475D01*
Y51890D01*
X46935D01*
Y56055D01*
X49475D01*
Y51890D01*
X52060D01*
Y56180D01*
X54600D01*
Y52140D01*
X56916D01*
X57442Y50870D01*
X55923Y49351D01*
X43500D01*
Y49700D01*
X35300D01*
Y43500D01*
X43500D01*
Y45068D01*
X56810D01*
X57629Y45231D01*
X58324Y45696D01*
X61787Y49159D01*
X68800D01*
X69619Y49322D01*
X70314Y49786D01*
X72487Y51959D01*
X113493D01*
X113703Y50706D01*
X112595Y49965D01*
X111854Y48857D01*
X111594Y47550D01*
X111854Y46243D01*
X112595Y45135D01*
X113703Y44394D01*
X115010Y44134D01*
X116317Y44394D01*
X116775Y44700D01*
X117344Y44601D01*
X117506Y44484D01*
X118247Y43217D01*
X118114Y42550D01*
X118374Y41243D01*
X119115Y40135D01*
X120223Y39394D01*
X121530Y39134D01*
X122837Y39394D01*
X123945Y40135D01*
X124128Y40409D01*
X127149D01*
X127183Y40386D01*
X128100Y40204D01*
X130276D01*
X130661Y38934D01*
X129885Y38415D01*
X129144Y37307D01*
X128884Y36000D01*
X129144Y34693D01*
X129885Y33585D01*
X130993Y32844D01*
X132300Y32584D01*
X133607Y32844D01*
X133946Y33071D01*
X134091Y33074D01*
X135330Y32468D01*
X135386Y32183D01*
X135906Y31406D01*
X136683Y30886D01*
X137600Y30704D01*
X138517Y30886D01*
X138559Y30914D01*
X139768Y30195D01*
X139737Y29860D01*
X139313Y29776D01*
X138205Y29035D01*
X137464Y27927D01*
X137204Y26620D01*
X137464Y25313D01*
X138205Y24205D01*
X139313Y23464D01*
X140620Y23204D01*
X141927Y23464D01*
X142401Y23781D01*
X143276Y22970D01*
X143339Y22880D01*
X143084Y21600D01*
X143344Y20293D01*
X144085Y19185D01*
X145193Y18444D01*
X146500Y18184D01*
X147807Y18444D01*
X148915Y19185D01*
X149164Y19557D01*
X149489Y19622D01*
X150130Y20050D01*
X150689Y19937D01*
X151400Y19643D01*
Y15300D01*
X152459D01*
Y13191D01*
X150300D01*
X149458Y12842D01*
X149109Y12000D01*
Y0D01*
X149089Y-30D01*
X146811D01*
X146791Y0D01*
Y12000D01*
X146442Y12842D01*
X145600Y13191D01*
X137600D01*
X136758Y12842D01*
X136409Y12000D01*
Y0D01*
X136389Y-30D01*
X134573D01*
X134549Y0D01*
X134119Y2162D01*
X132894Y3994D01*
Y4006D01*
X134119Y5838D01*
X134296Y6730D01*
X128900D01*
Y8000D01*
D01*
Y6730D01*
X123504D01*
X123681Y5838D01*
X124906Y4006D01*
Y3994D01*
X123681Y2162D01*
X123251Y0D01*
X123227Y-30D01*
X121411D01*
X121391Y0D01*
Y12000D01*
X121042Y12842D01*
X120200Y13191D01*
X118241D01*
Y15500D01*
X120200D01*
Y21700D01*
X112000D01*
Y15500D01*
X113959D01*
Y13191D01*
X112200D01*
X111358Y12842D01*
X111009Y12000D01*
Y0D01*
X110989Y-30D01*
X108711D01*
X108691Y0D01*
Y12000D01*
X108342Y12842D01*
X107500Y13191D01*
X105651D01*
Y15500D01*
X107610D01*
Y21700D01*
X100844D01*
X100260Y22601D01*
X100842Y23500D01*
X107610D01*
Y29700D01*
X107112D01*
X106070Y30970D01*
X106115Y31200D01*
X105855Y32507D01*
X105115Y33615D01*
X104007Y34356D01*
X102700Y34616D01*
X102602Y34596D01*
X101641Y35557D01*
Y37569D01*
X102009Y37885D01*
X102911Y38374D01*
X103500Y38257D01*
X104013Y38359D01*
X105113D01*
X112502Y30970D01*
X112175Y29780D01*
X112110Y29700D01*
X112000D01*
Y23500D01*
X120200D01*
Y29700D01*
X120090D01*
X119516Y30400D01*
X119256Y31707D01*
X118515Y32815D01*
X117407Y33556D01*
X116100Y33816D01*
X115777Y33751D01*
X107514Y42014D01*
X106929Y43080D01*
X106959Y43230D01*
X103500D01*
Y44500D01*
X102230D01*
Y47959D01*
X102080Y47929D01*
X100876Y47124D01*
X100530Y46606D01*
X100358Y46572D01*
X99500Y46743D01*
X98911Y46626D01*
X98136Y46976D01*
X97600Y47404D01*
X97478Y48019D01*
X97014Y48714D01*
X96114Y49614D01*
X95419Y50078D01*
X94600Y50241D01*
X86500D01*
X85681Y50078D01*
X84986Y49614D01*
X82586Y47214D01*
X82122Y46519D01*
X81959Y45700D01*
Y45015D01*
X80689Y44489D01*
X79140Y46038D01*
X78418Y47118D01*
X77338Y47840D01*
X75384Y49794D01*
X71000Y45410D01*
X69953Y45948D01*
X69727Y46174D01*
X67415Y43862D01*
X71332Y39944D01*
X70434Y39046D01*
X71332Y38148D01*
X68122Y34938D01*
X71141Y31919D01*
X74749Y35526D01*
X76019Y35000D01*
Y32858D01*
X75745Y32675D01*
X75004Y31567D01*
X74744Y30260D01*
X74285Y29700D01*
X74050D01*
Y23500D01*
X80430D01*
X80869Y22851D01*
X80114Y21700D01*
X74186D01*
X74050Y21700D01*
X72780Y21406D01*
X71807Y22056D01*
X70500Y22316D01*
X69193Y22056D01*
X68085Y21315D01*
X67344Y20207D01*
X67084Y18900D01*
X67344Y17593D01*
X68085Y16485D01*
X69193Y15744D01*
X70500Y15484D01*
X71807Y15744D01*
X72780Y16394D01*
X73389Y16239D01*
X74050Y15897D01*
Y15500D01*
X76009D01*
Y13191D01*
X74100D01*
X73258Y12842D01*
X72909Y12000D01*
Y0D01*
X72889Y-30D01*
X70611D01*
X70591Y0D01*
Y12000D01*
X70242Y12842D01*
X69400Y13191D01*
X61400D01*
X60558Y12842D01*
X60209Y12000D01*
Y0D01*
X60189Y-30D01*
X57911D01*
X57891Y0D01*
Y12000D01*
X57542Y12842D01*
X57447Y13319D01*
X60114Y15986D01*
X60257Y16200D01*
X61600D01*
Y20096D01*
X62870Y20789D01*
X63900Y20584D01*
X65207Y20844D01*
X66315Y21585D01*
X67056Y22693D01*
X67316Y24000D01*
X67056Y25307D01*
X66315Y26415D01*
X66041Y26598D01*
Y31600D01*
X65878Y32420D01*
X65414Y33114D01*
X59200Y39328D01*
Y42300D01*
X51000D01*
Y39555D01*
X49730Y39170D01*
X49614Y39344D01*
X48234Y40724D01*
X47539Y41188D01*
X46720Y41351D01*
X43500D01*
Y41700D01*
X35300D01*
Y40741D01*
X29281D01*
Y43800D01*
X30100D01*
Y52000D01*
X23900Y52000D01*
X23540Y53121D01*
Y53440D01*
X20270D01*
Y47900D01*
Y42360D01*
X22892D01*
X23277Y41090D01*
X23254Y41074D01*
X22189Y40009D01*
X22041Y40157D01*
X20231Y38347D01*
X19213Y39365D01*
X17608Y37760D01*
X20288Y35080D01*
X19390Y34182D01*
X20288Y33284D01*
X17785Y30781D01*
X19566Y28999D01*
X20146Y29578D01*
X21193Y30116D01*
X24516Y26793D01*
X25548Y27824D01*
X26076Y27296D01*
X26771Y26832D01*
X27590Y26669D01*
X28328D01*
X29309Y25719D01*
Y23719D01*
X29658Y22878D01*
X29714Y22822D01*
X29658Y22542D01*
X29309Y21700D01*
X29309Y21700D01*
Y17700D01*
X29658Y16858D01*
X30500Y16509D01*
X34500D01*
X34644Y16569D01*
X37859D01*
Y13191D01*
X36000D01*
X35158Y12842D01*
X34809Y12000D01*
Y0D01*
X34789Y-30D01*
X-19D01*
Y299970D01*
X199809D01*
Y295461D01*
X199248Y295129D01*
X198539Y294931D01*
X198019Y295278D01*
X197200Y295441D01*
X193800D01*
Y296400D01*
X185600D01*
Y295341D01*
X171500D01*
X171293Y295300D01*
X169150D01*
Y287100D01*
X171293D01*
X171500Y287059D01*
X178453D01*
X181726Y283786D01*
X182421Y283322D01*
X183240Y283159D01*
X185600D01*
Y282200D01*
X186682D01*
X186814Y281533D01*
X187555Y280425D01*
X188663Y279684D01*
X189970Y279424D01*
X190889Y279607D01*
X192159Y278862D01*
Y268994D01*
X192033Y268802D01*
X190889Y268051D01*
X190160Y268196D01*
X188853Y267936D01*
X187745Y267195D01*
X187004Y266087D01*
X186744Y264780D01*
X187004Y263473D01*
X187745Y262365D01*
X188853Y261624D01*
X190160Y261364D01*
X191467Y261624D01*
X192575Y262365D01*
X193316Y263473D01*
X193408Y263938D01*
X194809Y264470D01*
X194881Y264422D01*
X195700Y264259D01*
X196548D01*
X196839Y263558D01*
X197681Y263209D01*
X199681D01*
X200522Y263558D01*
X200578Y263614D01*
X200858Y263558D01*
X201700Y263209D01*
X201700Y263209D01*
X205700D01*
X206542Y263558D01*
X206891Y264400D01*
Y265563D01*
X211122Y269793D01*
X212093Y269144D01*
X213400Y268884D01*
X214707Y269144D01*
X215815Y269885D01*
X216556Y270993D01*
X216816Y272300D01*
X216556Y273607D01*
X215815Y274715D01*
X214707Y275456D01*
X213400Y275716D01*
X212093Y275456D01*
X210985Y274715D01*
X210802Y274441D01*
X210600D01*
X209781Y274278D01*
X209086Y273814D01*
X208003Y272731D01*
X206833Y273357D01*
X206841Y273400D01*
Y276381D01*
X206891Y276500D01*
Y280500D01*
X206542Y281342D01*
X205700Y281691D01*
X201700D01*
X200858Y281342D01*
X199681Y281691D01*
X199681Y281691D01*
X199086Y282961D01*
X199178Y283099D01*
X199341Y283918D01*
Y286316D01*
X200611Y286970D01*
X201000Y286809D01*
X209000D01*
X209842Y287158D01*
X210191Y288000D01*
Y299970D01*
X212057D01*
X212481Y297838D01*
X213706Y296006D01*
Y295994D01*
X212481Y294161D01*
X212304Y293270D01*
X217700D01*
Y292000D01*
X218970D01*
Y286604D01*
X219862Y286781D01*
X221694Y288006D01*
X221910Y288005D01*
X223023Y286729D01*
X222796Y285000D01*
X223211Y281841D01*
X224431Y278898D01*
X226370Y276370D01*
X228898Y274431D01*
X231841Y273211D01*
X235000Y272796D01*
X238159Y273211D01*
X241102Y274431D01*
X243630Y276370D01*
X245569Y278898D01*
X246789Y281841D01*
X247204Y285000D01*
X246789Y288159D01*
X245569Y291102D01*
X243630Y293630D01*
X241102Y295569D01*
X238159Y296789D01*
X235000Y297204D01*
X231841Y296789D01*
X228898Y295569D01*
X226370Y293630D01*
X224431Y291102D01*
X223269Y291600D01*
X223349Y292000D01*
X222919Y294161D01*
X221694Y295994D01*
Y296006D01*
X222919Y297838D01*
X223343Y299970D01*
X249981D01*
Y211191D01*
D02*
G37*
G36*
X205700Y264400D02*
X201700D01*
X203700Y266400D01*
X201700Y268400D01*
X205700D01*
Y264400D01*
D02*
G37*
G36*
X201681Y266400D02*
X199681Y264400D01*
X197681D01*
Y268400D01*
X199681D01*
X201681Y266400D01*
D02*
G37*
G36*
X67990Y79670D02*
X63990D01*
X65990Y81670D01*
X63990Y83670D01*
X67990D01*
Y79670D01*
D02*
G37*
G36*
X63971Y81670D02*
X61971Y79670D01*
X59971D01*
Y83670D01*
X61971D01*
X63971Y81670D01*
D02*
G37*
G36*
X50199Y78910D02*
X48199D01*
X46199Y80910D01*
X48199Y82910D01*
X50199D01*
Y78910D01*
D02*
G37*
G36*
X44180Y80910D02*
X46180Y78910D01*
X42180D01*
Y82910D01*
X46180D01*
X44180Y80910D01*
D02*
G37*
G36*
X67790Y70410D02*
X63790D01*
X65790Y72410D01*
X63790Y74410D01*
X67790D01*
Y70410D01*
D02*
G37*
G36*
X63770Y72410D02*
X61770Y70410D01*
X59770D01*
Y74410D01*
X61770D01*
X63770Y72410D01*
D02*
G37*
G36*
X43210Y23729D02*
X41210Y21729D01*
X39210Y23729D01*
Y25729D01*
X43210D01*
Y23729D01*
D02*
G37*
G36*
X34500Y23719D02*
X32500Y21719D01*
X30500Y23719D01*
Y25719D01*
X34500D01*
Y23719D01*
D02*
G37*
G36*
X43210Y17710D02*
X39210D01*
Y21710D01*
X41210Y19710D01*
X43210Y21710D01*
Y17710D01*
D02*
G37*
G36*
X34500Y17700D02*
X30500D01*
Y21700D01*
X32500Y19700D01*
X34500Y21700D01*
Y17700D01*
D02*
G37*
G36*
X191400Y48980D02*
X194645D01*
X195000Y48910D01*
X197870D01*
Y37290D01*
X197020D01*
X196469Y37180D01*
X191400D01*
Y32031D01*
X191310Y31580D01*
X191400Y31129D01*
Y25980D01*
X196469D01*
X197020Y25870D01*
X197870D01*
Y-30D01*
X184911D01*
X184891Y0D01*
Y12000D01*
X184542Y12842D01*
X183700Y13191D01*
X181841D01*
Y15429D01*
X186414Y20002D01*
X186878Y20697D01*
X187041Y21516D01*
Y28390D01*
X186878Y29209D01*
X186414Y29904D01*
X185587Y30730D01*
Y35435D01*
X186964Y36812D01*
X187428Y37506D01*
X187591Y38326D01*
Y45750D01*
X187428Y46569D01*
X186964Y47264D01*
X185294Y48934D01*
X185372Y49473D01*
X185744Y50204D01*
X191400D01*
Y48980D01*
D02*
G37*
%LPC*%
G36*
X120230Y293819D02*
X120000D01*
X118424Y293506D01*
X117087Y292613D01*
X116764Y292128D01*
X115236D01*
X114913Y292613D01*
X113576Y293506D01*
X112000Y293819D01*
X111770D01*
Y282200D01*
Y270581D01*
X112000D01*
X113576Y270894D01*
X114913Y271787D01*
X115236Y272272D01*
X116764D01*
X117087Y271787D01*
X118424Y270894D01*
X120000Y270581D01*
X120230D01*
Y282200D01*
Y293819D01*
D02*
G37*
G36*
X109230D02*
X109000D01*
X107424Y293506D01*
X106087Y292613D01*
X105194Y291276D01*
X104881Y289700D01*
X103651D01*
X103449Y290714D01*
X102874Y291574D01*
X102015Y292149D01*
X101000Y292351D01*
X98000D01*
X96986Y292149D01*
X96125Y291574D01*
X95551Y290714D01*
X95349Y289700D01*
Y274700D01*
X95551Y273685D01*
X96125Y272826D01*
X96986Y272251D01*
X98000Y272049D01*
X101000D01*
X102015Y272251D01*
X102874Y272826D01*
X103449Y273685D01*
X103651Y274700D01*
X104881D01*
X105194Y273124D01*
X106087Y271787D01*
X107424Y270894D01*
X109000Y270581D01*
X109230D01*
Y282200D01*
Y293819D01*
D02*
G37*
G36*
X216430Y290730D02*
X212304D01*
X212481Y289838D01*
X213706Y288006D01*
X215538Y286781D01*
X216430Y286604D01*
Y290730D01*
D02*
G37*
G36*
X163780Y294870D02*
X159000D01*
X157595Y294591D01*
X156404Y293796D01*
X148921Y286312D01*
X147651Y286838D01*
Y289700D01*
X147449Y290714D01*
X146875Y291574D01*
X146014Y292149D01*
X145000Y292351D01*
X142000D01*
X140985Y292149D01*
X140126Y291574D01*
X139551Y290714D01*
X139349Y289700D01*
Y274700D01*
X139520Y273841D01*
X139417Y273494D01*
X138768Y272571D01*
X137232D01*
X136583Y273494D01*
X136480Y273841D01*
X136651Y274700D01*
Y289700D01*
X136449Y290714D01*
X135875Y291574D01*
X135014Y292149D01*
X134000Y292351D01*
X131000D01*
X129986Y292149D01*
X129125Y291574D01*
X128551Y290714D01*
X128349Y289700D01*
X127119D01*
X126806Y291276D01*
X125913Y292613D01*
X124576Y293506D01*
X123000Y293819D01*
X122770D01*
Y282200D01*
Y270581D01*
X123000D01*
X124576Y270894D01*
X125913Y271787D01*
X126806Y273124D01*
X127119Y274700D01*
X128349D01*
X128551Y273685D01*
X129125Y272826D01*
X129339Y272683D01*
Y271450D01*
X129580Y270240D01*
X130265Y269215D01*
X132305Y267175D01*
X133330Y266490D01*
X134540Y266249D01*
X141840D01*
X143050Y266490D01*
X144075Y267175D01*
X145735Y268835D01*
X146420Y269860D01*
X146661Y271070D01*
Y272683D01*
X146662Y272684D01*
X148055Y272885D01*
X148242Y272760D01*
X149163Y272144D01*
X150470Y271884D01*
X151777Y272144D01*
X152885Y272885D01*
X153626Y273993D01*
X153886Y275300D01*
X153626Y276607D01*
X152885Y277715D01*
X152470Y277993D01*
X152462Y279516D01*
X152595Y279604D01*
X160520Y287530D01*
X163780D01*
X164135Y287600D01*
X167350D01*
Y290695D01*
X167451Y291200D01*
X167350Y291705D01*
Y294800D01*
X164135D01*
X163780Y294870D01*
D02*
G37*
G36*
X173760Y281916D02*
X172453Y281656D01*
X171345Y280915D01*
X170604Y279807D01*
X170344Y278500D01*
X170604Y277193D01*
X171345Y276085D01*
X172453Y275344D01*
X173760Y275084D01*
X175067Y275344D01*
X176175Y276085D01*
X176916Y277193D01*
X177176Y278500D01*
X176916Y279807D01*
X176175Y280915D01*
X175067Y281656D01*
X173760Y281916D01*
D02*
G37*
G36*
X161050Y280496D02*
X159743Y280236D01*
X158635Y279495D01*
X157894Y278387D01*
X157634Y277080D01*
X157894Y275773D01*
X158635Y274665D01*
X159743Y273924D01*
X161050Y273664D01*
X162357Y273924D01*
X163465Y274665D01*
X164206Y275773D01*
X164466Y277080D01*
X164206Y278387D01*
X163465Y279495D01*
X162357Y280236D01*
X161050Y280496D01*
D02*
G37*
G36*
X68000Y292351D02*
X65000D01*
X63986Y292149D01*
X63126Y291574D01*
X62551Y290714D01*
X62349Y289700D01*
Y274700D01*
X62551Y273685D01*
X63126Y272826D01*
X63986Y272251D01*
X65000Y272049D01*
X68000D01*
X69015Y272251D01*
X69875Y272826D01*
X70449Y273685D01*
X70651Y274700D01*
Y289700D01*
X70449Y290714D01*
X69875Y291574D01*
X69015Y292149D01*
X68000Y292351D01*
D02*
G37*
G36*
X57000D02*
X54000D01*
X52986Y292149D01*
X52126Y291574D01*
X51551Y290714D01*
X51349Y289700D01*
Y274700D01*
X51551Y273685D01*
X52126Y272826D01*
X52986Y272251D01*
X54000Y272049D01*
X57000D01*
X58014Y272251D01*
X58875Y272826D01*
X59449Y273685D01*
X59651Y274700D01*
Y289700D01*
X59449Y290714D01*
X58875Y291574D01*
X58014Y292149D01*
X57000Y292351D01*
D02*
G37*
G36*
X90000D02*
X87000D01*
X85985Y292149D01*
X85126Y291574D01*
X84551Y290714D01*
X84349Y289700D01*
Y274700D01*
X84551Y273685D01*
X85126Y272826D01*
X85985Y272251D01*
X86279Y272192D01*
Y270878D01*
X86005Y270695D01*
X85264Y269587D01*
X85004Y268280D01*
X85264Y266973D01*
X86005Y265865D01*
X87113Y265124D01*
X88420Y264864D01*
X89727Y265124D01*
X90835Y265865D01*
X91576Y266973D01*
X91836Y268280D01*
X91576Y269587D01*
X90835Y270695D01*
X90561Y270878D01*
Y272161D01*
X91014Y272251D01*
X91875Y272826D01*
X92449Y273685D01*
X92651Y274700D01*
Y289700D01*
X92449Y290714D01*
X91875Y291574D01*
X91014Y292149D01*
X90000Y292351D01*
D02*
G37*
G36*
X241190Y266340D02*
X228920D01*
Y259820D01*
X241190D01*
Y266340D01*
D02*
G37*
G36*
X226380D02*
X214110D01*
Y259820D01*
X226380D01*
Y266340D01*
D02*
G37*
G36*
X185500Y260319D02*
X179270D01*
Y255970D01*
X189619D01*
Y256200D01*
X189306Y257776D01*
X188413Y259113D01*
X187076Y260006D01*
X185500Y260319D01*
D02*
G37*
G36*
X176730D02*
X170500D01*
X168924Y260006D01*
X167587Y259113D01*
X166694Y257776D01*
X166381Y256200D01*
Y255970D01*
X176730D01*
Y260319D01*
D02*
G37*
G36*
X28500Y258851D02*
X13500D01*
X12486Y258649D01*
X11625Y258074D01*
X11051Y257215D01*
X10849Y256200D01*
Y253200D01*
X11051Y252185D01*
X11625Y251325D01*
X12486Y250751D01*
X13500Y250549D01*
X28500D01*
X29515Y250751D01*
X30375Y251325D01*
X30949Y252185D01*
X31023Y252559D01*
X51252D01*
X51435Y252285D01*
X52543Y251544D01*
X53850Y251284D01*
X55157Y251544D01*
X56265Y252285D01*
X57006Y253393D01*
X57266Y254700D01*
X57006Y256007D01*
X56265Y257115D01*
X55157Y257856D01*
X53850Y258116D01*
X52543Y257856D01*
X51435Y257115D01*
X51252Y256841D01*
X31023D01*
X30949Y257215D01*
X30375Y258074D01*
X29515Y258649D01*
X28500Y258851D01*
D02*
G37*
G36*
X241190Y257280D02*
X228920D01*
Y250760D01*
X241190D01*
Y257280D01*
D02*
G37*
G36*
X226380D02*
X214110D01*
Y251170D01*
X214110Y250760D01*
X213196Y249900D01*
X206050D01*
Y246096D01*
X195349D01*
X194670Y247366D01*
X194955Y247792D01*
X195215Y249100D01*
X194955Y250407D01*
X194215Y251515D01*
X193107Y252255D01*
X191800Y252515D01*
X190736Y252304D01*
X189985Y252803D01*
X189619Y253199D01*
X189619Y253200D01*
Y253430D01*
X178000D01*
X166381D01*
Y253200D01*
X166694Y251624D01*
X167587Y250287D01*
X168924Y249394D01*
X170500Y249081D01*
Y247851D01*
X169485Y247649D01*
X168626Y247075D01*
X168051Y246215D01*
X167849Y245200D01*
Y242200D01*
X168051Y241185D01*
X168626Y240326D01*
X169485Y239751D01*
X170500Y239549D01*
Y238319D01*
X168924Y238006D01*
X167587Y237113D01*
X166694Y235776D01*
X166381Y234200D01*
Y233970D01*
X178000D01*
X189619D01*
Y234200D01*
X189306Y235776D01*
X188413Y237113D01*
X187076Y238006D01*
X185500Y238319D01*
Y239549D01*
X186514Y239751D01*
X187374Y240326D01*
X187949Y241185D01*
X187973Y241304D01*
X206050D01*
Y237700D01*
X213196D01*
X214110Y236840D01*
X214110Y236430D01*
Y230320D01*
X226380D01*
Y236840D01*
X219664D01*
X218750Y237700D01*
X218750Y238110D01*
Y249490D01*
X218750Y249900D01*
X219664Y250760D01*
X226380D01*
Y257280D01*
D02*
G37*
G36*
X28500Y247851D02*
X13500D01*
X12486Y247649D01*
X11625Y247075D01*
X11051Y246215D01*
X10849Y245200D01*
Y242200D01*
X11051Y241185D01*
X11625Y240326D01*
X12486Y239751D01*
X13500Y239549D01*
X28500D01*
X29515Y239751D01*
X30375Y240326D01*
X30949Y241185D01*
X31023Y241559D01*
X51212D01*
X51395Y241285D01*
X52503Y240544D01*
X53810Y240284D01*
X55117Y240544D01*
X56225Y241285D01*
X56966Y242393D01*
X57226Y243700D01*
X56966Y245007D01*
X56225Y246115D01*
X55117Y246856D01*
X53810Y247116D01*
X52503Y246856D01*
X51395Y246115D01*
X51212Y245841D01*
X31023D01*
X30949Y246215D01*
X30375Y247075D01*
X29515Y247649D01*
X28500Y247851D01*
D02*
G37*
G36*
X241190Y236840D02*
X228920D01*
Y230320D01*
X241190D01*
Y236840D01*
D02*
G37*
G36*
X28500Y236851D02*
X13500D01*
X12486Y236649D01*
X11625Y236075D01*
X11051Y235215D01*
X10849Y234200D01*
Y231200D01*
X11051Y230186D01*
X11625Y229326D01*
X12486Y228751D01*
X13500Y228549D01*
X28500D01*
X29515Y228751D01*
X30375Y229326D01*
X30949Y230186D01*
X31151Y231200D01*
Y234200D01*
X30949Y235215D01*
X30375Y236075D01*
X29515Y236649D01*
X28500Y236851D01*
D02*
G37*
G36*
X226380Y227780D02*
X214110D01*
Y225842D01*
X213949Y225706D01*
X212840Y225279D01*
X212067Y225796D01*
X210760Y226056D01*
X209453Y225796D01*
X208345Y225055D01*
X207604Y223947D01*
X207344Y222640D01*
X207604Y221333D01*
X208345Y220225D01*
X209453Y219484D01*
X210760Y219224D01*
X212067Y219484D01*
X213175Y220225D01*
X213255Y220344D01*
X214110Y221260D01*
X226380D01*
Y227780D01*
D02*
G37*
G36*
X189619Y231430D02*
X178000D01*
X166381D01*
Y231200D01*
X166694Y229624D01*
X167587Y228287D01*
X168072Y227964D01*
Y226436D01*
X167587Y226113D01*
X166694Y224776D01*
X166381Y223200D01*
Y222970D01*
X178000D01*
X189619D01*
Y223200D01*
X189306Y224776D01*
X188413Y226113D01*
X187928Y226436D01*
Y227964D01*
X188413Y228287D01*
X189306Y229624D01*
X189619Y231200D01*
Y231430D01*
D02*
G37*
G36*
X28500Y225851D02*
X13500D01*
X12486Y225649D01*
X11625Y225075D01*
X11051Y224214D01*
X10849Y223200D01*
Y220200D01*
X11051Y219186D01*
X11625Y218326D01*
X12486Y217751D01*
X13500Y217549D01*
X28500D01*
X29515Y217751D01*
X30375Y218326D01*
X30949Y219186D01*
X31151Y220200D01*
Y223200D01*
X30949Y224214D01*
X30375Y225075D01*
X29515Y225649D01*
X28500Y225851D01*
D02*
G37*
G36*
X241190Y227780D02*
X228920D01*
Y221260D01*
X232249D01*
X232635Y219990D01*
X232373Y219815D01*
X231633Y218707D01*
X231373Y217400D01*
X231633Y216093D01*
X232373Y214985D01*
X233481Y214244D01*
X234788Y213984D01*
X236095Y214244D01*
X237204Y214985D01*
X237944Y216093D01*
X238204Y217400D01*
X237944Y218707D01*
X237204Y219815D01*
X236942Y219990D01*
X237327Y221260D01*
X241190D01*
Y227780D01*
D02*
G37*
G36*
X189619Y220430D02*
X178000D01*
X166381D01*
Y220200D01*
X166694Y218624D01*
X167587Y217287D01*
X168924Y216394D01*
X170500Y216081D01*
Y214851D01*
X169485Y214649D01*
X168626Y214074D01*
X168051Y213214D01*
X167849Y212200D01*
Y209200D01*
X168051Y208186D01*
X168626Y207325D01*
X169485Y206751D01*
X170500Y206549D01*
X185500D01*
X186514Y206751D01*
X187374Y207325D01*
X187949Y208186D01*
X188151Y209200D01*
Y210911D01*
X188428Y211123D01*
X189421Y211474D01*
X190243Y210924D01*
X191550Y210664D01*
X192857Y210924D01*
X193965Y211665D01*
X194706Y212773D01*
X194966Y214080D01*
X194706Y215387D01*
X193965Y216495D01*
X192857Y217236D01*
X191550Y217496D01*
X190243Y217236D01*
X189742Y216901D01*
X189633Y216828D01*
X188718Y217744D01*
X188795Y217859D01*
X189306Y218624D01*
X189619Y220200D01*
Y220430D01*
D02*
G37*
G36*
X28500Y214851D02*
X13500D01*
X12486Y214649D01*
X11625Y214074D01*
X11051Y213214D01*
X10849Y212200D01*
Y209200D01*
X11051Y208186D01*
X11625Y207325D01*
X12486Y206751D01*
X13500Y206549D01*
X28500D01*
X29515Y206751D01*
X30375Y207325D01*
X30949Y208186D01*
X31151Y209200D01*
Y212200D01*
X30949Y213214D01*
X30375Y214074D01*
X29515Y214649D01*
X28500Y214851D01*
D02*
G37*
G36*
X146790Y206796D02*
X145483Y206536D01*
X144375Y205795D01*
X143634Y204687D01*
X143374Y203380D01*
X143634Y202073D01*
X144375Y200965D01*
X145483Y200224D01*
X146790Y199964D01*
X148097Y200224D01*
X149205Y200965D01*
X149946Y202073D01*
X150206Y203380D01*
X149946Y204687D01*
X149205Y205795D01*
X148097Y206536D01*
X146790Y206796D01*
D02*
G37*
G36*
X28500Y203851D02*
X13500D01*
X12486Y203649D01*
X11625Y203074D01*
X11051Y202215D01*
X10849Y201200D01*
Y198200D01*
X11051Y197185D01*
X11625Y196325D01*
X12486Y195751D01*
X13500Y195549D01*
X28500D01*
X29515Y195751D01*
X30375Y196325D01*
X30949Y197185D01*
X31151Y198200D01*
Y201200D01*
X30949Y202215D01*
X30375Y203074D01*
X29515Y203649D01*
X28500Y203851D01*
D02*
G37*
G36*
X240730Y198696D02*
X239838Y198519D01*
X238006Y197294D01*
X236781Y195462D01*
X236604Y194570D01*
X240730D01*
Y198696D01*
D02*
G37*
G36*
X156570Y206796D02*
X155263Y206536D01*
X154155Y205795D01*
X153414Y204687D01*
X153154Y203380D01*
X153414Y202073D01*
X154155Y200965D01*
X155263Y200224D01*
X156570Y199964D01*
X157877Y200224D01*
X158985Y200965D01*
X159726Y202073D01*
X159826Y202579D01*
X161044Y202470D01*
X161134Y202020D01*
X161304Y201163D01*
X162045Y200055D01*
X163153Y199314D01*
X164460Y199054D01*
X165767Y199314D01*
X166579Y199857D01*
X167598Y199491D01*
X167849Y199294D01*
Y198200D01*
X168051Y197185D01*
X168626Y196325D01*
X169485Y195751D01*
X170500Y195549D01*
Y194319D01*
X168924Y194006D01*
X167587Y193113D01*
X166694Y191776D01*
X166381Y190200D01*
X165952Y189848D01*
X165210Y189996D01*
X163903Y189736D01*
X162795Y188995D01*
X162054Y187887D01*
X161794Y186580D01*
X162054Y185273D01*
X162795Y184165D01*
X163903Y183424D01*
X165210Y183164D01*
X166517Y183424D01*
X167625Y184165D01*
X167670Y184232D01*
X168924Y183394D01*
X170500Y183081D01*
Y181851D01*
X169485Y181649D01*
X168626Y181075D01*
X168051Y180215D01*
X167849Y179200D01*
Y176200D01*
X168051Y175186D01*
X168626Y174326D01*
X169485Y173751D01*
X170500Y173549D01*
X185500D01*
X186514Y173751D01*
X187374Y174326D01*
X187949Y175186D01*
X188151Y176200D01*
Y179200D01*
X187949Y180215D01*
X187374Y181075D01*
X186514Y181649D01*
X185500Y181851D01*
Y183081D01*
X187076Y183394D01*
X188413Y184287D01*
X189306Y185624D01*
X189619Y187200D01*
Y187430D01*
X178000D01*
Y189970D01*
X189619D01*
Y190200D01*
X189306Y191776D01*
X188413Y193113D01*
X187076Y194006D01*
X185500Y194319D01*
Y195549D01*
X186514Y195751D01*
X187374Y196325D01*
X187949Y197185D01*
X188151Y198200D01*
Y201200D01*
X187949Y202215D01*
X187374Y203074D01*
X186514Y203649D01*
X185500Y203851D01*
X170500D01*
X169485Y203649D01*
X169000Y203325D01*
X167792Y203655D01*
X167616Y203777D01*
X166875Y204885D01*
X165767Y205626D01*
X164460Y205886D01*
X163153Y205626D01*
X162045Y204885D01*
X161304Y203777D01*
X161204Y203271D01*
X159986Y203380D01*
X159896Y203831D01*
X159726Y204687D01*
X158985Y205795D01*
X157877Y206536D01*
X156570Y206796D01*
D02*
G37*
G36*
X240730Y192030D02*
X236604D01*
X236781Y191138D01*
X238006Y189306D01*
X239838Y188081D01*
X240730Y187904D01*
Y192030D01*
D02*
G37*
G36*
X147280Y190056D02*
X145973Y189796D01*
X144865Y189055D01*
X144124Y187947D01*
X143864Y186640D01*
X144124Y185333D01*
X144865Y184225D01*
X145973Y183484D01*
X147280Y183224D01*
X148587Y183484D01*
X149695Y184225D01*
X150436Y185333D01*
X150696Y186640D01*
X150436Y187947D01*
X149695Y189055D01*
X148587Y189796D01*
X147280Y190056D01*
D02*
G37*
G36*
X138640Y190036D02*
X137333Y189776D01*
X136225Y189035D01*
X135484Y187927D01*
X135224Y186620D01*
X135484Y185313D01*
X136225Y184205D01*
X137333Y183464D01*
X138640Y183204D01*
X139947Y183464D01*
X141055Y184205D01*
X141796Y185313D01*
X142056Y186620D01*
X141796Y187927D01*
X141055Y189035D01*
X139947Y189776D01*
X138640Y190036D01*
D02*
G37*
G36*
X156400Y189936D02*
X155093Y189676D01*
X153985Y188935D01*
X153244Y187827D01*
X152984Y186520D01*
X153244Y185213D01*
X153985Y184105D01*
X155093Y183364D01*
X156400Y183104D01*
X157707Y183364D01*
X158815Y184105D01*
X159556Y185213D01*
X159816Y186520D01*
X159556Y187827D01*
X158815Y188935D01*
X157707Y189676D01*
X156400Y189936D01*
D02*
G37*
G36*
X28500Y192851D02*
X13500D01*
X12486Y192649D01*
X11625Y192075D01*
X11051Y191215D01*
X10849Y190200D01*
Y187200D01*
X11051Y186185D01*
X11625Y185326D01*
X12486Y184751D01*
X13500Y184549D01*
Y183319D01*
X11924Y183006D01*
X10587Y182113D01*
X9694Y180776D01*
X9381Y179200D01*
Y178970D01*
X21000D01*
X32619D01*
Y179200D01*
X32306Y180776D01*
X31413Y182113D01*
X30076Y183006D01*
X28500Y183319D01*
Y184549D01*
X29515Y184751D01*
X30375Y185326D01*
X30949Y186185D01*
X31151Y187200D01*
Y190200D01*
X30949Y191215D01*
X30375Y192075D01*
X29515Y192649D01*
X28500Y192851D01*
D02*
G37*
G36*
X115640Y170886D02*
X114333Y170626D01*
X113225Y169885D01*
X112484Y168777D01*
X112224Y167470D01*
X112289Y167147D01*
X97432Y152290D01*
X96300Y152516D01*
X94993Y152256D01*
X93885Y151515D01*
X93144Y150407D01*
X92884Y149100D01*
X93144Y147793D01*
X93885Y146685D01*
X93995Y146611D01*
X93610Y145341D01*
X91268D01*
X91056Y146407D01*
X90315Y147515D01*
X89207Y148256D01*
X87900Y148516D01*
X86593Y148256D01*
X85485Y147515D01*
X84744Y146407D01*
X84484Y145100D01*
X84744Y143793D01*
X85485Y142685D01*
X86593Y141944D01*
X87900Y141684D01*
X88223Y141749D01*
X88286Y141686D01*
X88981Y141222D01*
X89800Y141059D01*
X97800D01*
X98619Y141222D01*
X99314Y141686D01*
X100068Y142440D01*
X101414Y141990D01*
X101554Y141283D01*
X102295Y140175D01*
X103403Y139434D01*
X104710Y139174D01*
X106017Y139434D01*
X107125Y140175D01*
X107866Y141283D01*
X108126Y142590D01*
X107866Y143897D01*
X107125Y145005D01*
X106017Y145746D01*
X105310Y145886D01*
X104860Y147232D01*
X106254Y148625D01*
X106344Y148686D01*
X121767Y164109D01*
X122090Y164044D01*
X123397Y164304D01*
X124505Y165045D01*
X125246Y166153D01*
X125506Y167460D01*
X125246Y168767D01*
X124505Y169875D01*
X123397Y170616D01*
X122090Y170876D01*
X120783Y170616D01*
X119675Y169875D01*
X119632Y169811D01*
X118105D01*
X118055Y169885D01*
X116947Y170626D01*
X115640Y170886D01*
D02*
G37*
G36*
X185500Y170851D02*
X170500D01*
X169485Y170649D01*
X168626Y170075D01*
X168051Y169214D01*
X167849Y168200D01*
Y165200D01*
X168051Y164186D01*
X168626Y163326D01*
X169485Y162751D01*
X170500Y162549D01*
X185500D01*
X186514Y162751D01*
X187374Y163326D01*
X187949Y164186D01*
X188151Y165200D01*
Y168200D01*
X187949Y169214D01*
X187374Y170075D01*
X186514Y170649D01*
X185500Y170851D01*
D02*
G37*
G36*
X32619Y176430D02*
X21000D01*
X9381D01*
Y176200D01*
X9694Y174624D01*
X10587Y173287D01*
X11924Y172394D01*
X13500Y172081D01*
Y170851D01*
X12486Y170649D01*
X11625Y170075D01*
X11051Y169214D01*
X10849Y168200D01*
Y165200D01*
X11051Y164186D01*
X11625Y163326D01*
X12486Y162751D01*
X13500Y162549D01*
X28500D01*
X29515Y162751D01*
X30375Y163326D01*
X30949Y164186D01*
X31151Y165200D01*
Y168200D01*
X30949Y169214D01*
X30375Y170075D01*
X29515Y170649D01*
X28500Y170851D01*
Y172081D01*
X30076Y172394D01*
X31413Y173287D01*
X32306Y174624D01*
X32619Y176200D01*
Y176430D01*
D02*
G37*
G36*
X79000Y292351D02*
X76000D01*
X74985Y292149D01*
X74125Y291574D01*
X73551Y290714D01*
X73349Y289700D01*
Y274700D01*
X73551Y273685D01*
X74125Y272826D01*
X74985Y272251D01*
X75359Y272177D01*
Y186320D01*
X75522Y185501D01*
X75986Y184806D01*
X97059Y163733D01*
X96994Y163410D01*
X97254Y162103D01*
X97995Y160995D01*
X99103Y160254D01*
X100410Y159994D01*
X101717Y160254D01*
X102825Y160995D01*
X103566Y162103D01*
X103826Y163410D01*
X103566Y164717D01*
X102825Y165825D01*
X101717Y166566D01*
X100410Y166826D01*
X100087Y166761D01*
X79641Y187207D01*
Y272177D01*
X80014Y272251D01*
X80875Y272826D01*
X81449Y273685D01*
X81651Y274700D01*
Y289700D01*
X81449Y290714D01*
X80875Y291574D01*
X80014Y292149D01*
X79000Y292351D01*
D02*
G37*
G36*
X185500Y159851D02*
X170500D01*
X169485Y159649D01*
X168626Y159074D01*
X168051Y158215D01*
X167849Y157200D01*
Y154200D01*
X168051Y153186D01*
X168626Y152325D01*
X169485Y151751D01*
X170500Y151549D01*
X185500D01*
X186514Y151751D01*
X187374Y152325D01*
X187949Y153186D01*
X188151Y154200D01*
Y157200D01*
X187949Y158215D01*
X187374Y159074D01*
X186514Y159649D01*
X185500Y159851D01*
D02*
G37*
G36*
X28500D02*
X13500D01*
X12486Y159649D01*
X11625Y159074D01*
X11051Y158215D01*
X10849Y157200D01*
Y154200D01*
X11051Y153186D01*
X11625Y152325D01*
X12486Y151751D01*
X13500Y151549D01*
X28500D01*
X29515Y151751D01*
X30375Y152325D01*
X30949Y153186D01*
X31151Y154200D01*
Y157200D01*
X30949Y158215D01*
X30375Y159074D01*
X29515Y159649D01*
X28500Y159851D01*
D02*
G37*
G36*
X75352Y149841D02*
X70933D01*
X70114Y149678D01*
X69419Y149214D01*
X66090Y145885D01*
X65767Y145949D01*
X64460Y145689D01*
X63351Y144949D01*
X62611Y143840D01*
X62351Y142533D01*
X62363Y142473D01*
X61211Y141870D01*
X60522Y142500D01*
X60549Y142633D01*
X60289Y143940D01*
X59549Y145049D01*
X58440Y145789D01*
X57133Y146049D01*
X55826Y145789D01*
X54718Y145049D01*
X53978Y143940D01*
X53718Y142633D01*
X53824Y142100D01*
X52767Y141536D01*
X51870Y142370D01*
X51916Y142600D01*
X51656Y143907D01*
X50915Y145015D01*
X49807Y145756D01*
X48500Y146016D01*
X47193Y145756D01*
X46085Y145015D01*
X45344Y143907D01*
X45084Y142600D01*
X45344Y141293D01*
X46085Y140185D01*
X47193Y139444D01*
X48500Y139184D01*
X48823Y139249D01*
X55086Y132986D01*
X55781Y132522D01*
X56600Y132359D01*
X69113D01*
X74065Y127407D01*
X73984Y127000D01*
X74244Y125693D01*
X74985Y124585D01*
X75359Y124334D01*
Y116223D01*
X74985Y116149D01*
X74125Y115575D01*
X73551Y114714D01*
X73349Y113700D01*
Y98700D01*
X73551Y97685D01*
X74125Y96826D01*
X74985Y96251D01*
X76000Y96049D01*
X79000D01*
X80014Y96251D01*
X80875Y96826D01*
X81449Y97685D01*
X81651Y98700D01*
Y113478D01*
X82108Y114044D01*
X82777Y114549D01*
X83100Y114484D01*
X83215Y114507D01*
X83825Y114073D01*
X84349Y113438D01*
Y98700D01*
X84551Y97685D01*
X85126Y96826D01*
X85985Y96251D01*
X87000Y96049D01*
X90000D01*
X91014Y96251D01*
X91875Y96826D01*
X92449Y97685D01*
X92651Y98700D01*
Y113700D01*
X92449Y114714D01*
X91875Y115575D01*
X91014Y116149D01*
X90641Y116223D01*
Y121572D01*
X91814Y122058D01*
X96582Y117290D01*
X96598Y117243D01*
X96351Y115725D01*
X96125Y115575D01*
X95551Y114714D01*
X95349Y113700D01*
Y98700D01*
X95551Y97685D01*
X96125Y96826D01*
X96986Y96251D01*
X98000Y96049D01*
X101000D01*
X102015Y96251D01*
X102874Y96826D01*
X103449Y97685D01*
X103651Y98700D01*
Y113700D01*
X103449Y114714D01*
X103320Y114908D01*
X104306Y115717D01*
X106349Y113675D01*
Y98700D01*
X106551Y97685D01*
X107126Y96826D01*
X107985Y96251D01*
X109000Y96049D01*
X112000D01*
X113014Y96251D01*
X113875Y96826D01*
X114449Y97685D01*
X114651Y98700D01*
X115881D01*
X116194Y97124D01*
X117087Y95787D01*
X118424Y94894D01*
X120000Y94581D01*
X120230D01*
Y106200D01*
Y117819D01*
X120000D01*
X118424Y117506D01*
X117087Y116613D01*
X116194Y115276D01*
X115881Y113700D01*
X114651D01*
X114449Y114714D01*
X113875Y115575D01*
X113014Y116149D01*
X112000Y116351D01*
X109729D01*
X76866Y149214D01*
X76171Y149678D01*
X75352Y149841D01*
D02*
G37*
G36*
X185500Y148851D02*
X170500D01*
X169485Y148649D01*
X168626Y148075D01*
X168051Y147214D01*
X167849Y146200D01*
Y143200D01*
X168051Y142185D01*
X168626Y141326D01*
X169485Y140751D01*
X170500Y140549D01*
X185500D01*
X186514Y140751D01*
X187374Y141326D01*
X187949Y142185D01*
X188151Y143200D01*
Y146200D01*
X187949Y147214D01*
X187374Y148075D01*
X186514Y148649D01*
X185500Y148851D01*
D02*
G37*
G36*
X28500D02*
X13500D01*
X12486Y148649D01*
X11625Y148075D01*
X11051Y147214D01*
X10849Y146200D01*
Y143200D01*
X11051Y142185D01*
X11625Y141326D01*
X12486Y140751D01*
X13500Y140549D01*
X28500D01*
X29514Y140751D01*
X31171Y140406D01*
X31185Y140385D01*
X32293Y139644D01*
X33600Y139384D01*
X34907Y139644D01*
X36015Y140385D01*
X36756Y141493D01*
X37016Y142800D01*
X36756Y144107D01*
X36015Y145215D01*
X34907Y145956D01*
X33600Y146216D01*
X32421Y145981D01*
X32174Y146024D01*
X31060Y146659D01*
X30949Y147214D01*
X30375Y148075D01*
X29515Y148649D01*
X28500Y148851D01*
D02*
G37*
G36*
X148550Y143376D02*
X147243Y143116D01*
X146135Y142375D01*
X145394Y141267D01*
X145134Y139960D01*
X145394Y138653D01*
X146135Y137545D01*
X147243Y136804D01*
X148550Y136544D01*
X149857Y136804D01*
X150965Y137545D01*
X151706Y138653D01*
X151966Y139960D01*
X151706Y141267D01*
X150965Y142375D01*
X149857Y143116D01*
X148550Y143376D01*
D02*
G37*
G36*
X185500Y137851D02*
X170500D01*
X169485Y137649D01*
X168626Y137074D01*
X168051Y136215D01*
X167849Y135200D01*
Y132200D01*
X168051Y131186D01*
X168626Y130325D01*
X169485Y129751D01*
X170500Y129549D01*
X185500D01*
X186514Y129751D01*
X187374Y130325D01*
X187949Y131186D01*
X188151Y132200D01*
Y135200D01*
X187949Y136215D01*
X187374Y137074D01*
X186514Y137649D01*
X185500Y137851D01*
D02*
G37*
G36*
X28500D02*
X13500D01*
X12486Y137649D01*
X11625Y137074D01*
X11051Y136215D01*
X10849Y135200D01*
Y132200D01*
X11051Y131186D01*
X11625Y130325D01*
X12486Y129751D01*
X13500Y129549D01*
X28500D01*
X29515Y129751D01*
X30375Y130325D01*
X30949Y131186D01*
X31151Y132200D01*
Y135200D01*
X30949Y136215D01*
X30375Y137074D01*
X29515Y137649D01*
X28500Y137851D01*
D02*
G37*
G36*
X117090Y128196D02*
X115783Y127936D01*
X114675Y127195D01*
X113934Y126087D01*
X113674Y124780D01*
X113934Y123473D01*
X114675Y122365D01*
X115783Y121624D01*
X117090Y121364D01*
X118397Y121624D01*
X119505Y122365D01*
X120122Y123288D01*
X120835Y123381D01*
X121502Y123277D01*
X122125Y122345D01*
X123233Y121604D01*
X124540Y121344D01*
X125847Y121604D01*
X126955Y122345D01*
X127696Y123453D01*
X127956Y124760D01*
X127696Y126067D01*
X126955Y127175D01*
X125847Y127916D01*
X124540Y128176D01*
X123233Y127916D01*
X122125Y127175D01*
X121508Y126252D01*
X120795Y126159D01*
X120128Y126263D01*
X119505Y127195D01*
X118397Y127936D01*
X117090Y128196D01*
D02*
G37*
G36*
X145000Y117819D02*
X144770D01*
Y107470D01*
X149119D01*
Y113700D01*
X148806Y115276D01*
X147913Y116613D01*
X146576Y117506D01*
X145000Y117819D01*
D02*
G37*
G36*
X49100Y121716D02*
X47793Y121456D01*
X46685Y120715D01*
X45944Y119607D01*
X45684Y118300D01*
X45944Y116993D01*
X46685Y115885D01*
X47793Y115144D01*
X48832Y114938D01*
X49908Y114076D01*
X49948Y114037D01*
X49881Y113700D01*
Y107470D01*
X54230D01*
Y117819D01*
X54000D01*
X53703Y117760D01*
X53448Y117876D01*
X52416Y118799D01*
X52256Y119607D01*
X51515Y120715D01*
X50407Y121456D01*
X49100Y121716D01*
D02*
G37*
G36*
X187850Y102250D02*
X184580D01*
Y97980D01*
X187850D01*
Y102250D01*
D02*
G37*
G36*
X57000Y117819D02*
X56770D01*
Y106200D01*
Y94581D01*
X57000D01*
X58576Y94894D01*
X59913Y95787D01*
X60806Y97124D01*
X61119Y98700D01*
X62349D01*
X62551Y97685D01*
X63126Y96826D01*
X63986Y96251D01*
X65000Y96049D01*
X68000D01*
X69015Y96251D01*
X69875Y96826D01*
X70449Y97685D01*
X70651Y98700D01*
Y113700D01*
X70449Y114714D01*
X69875Y115575D01*
X69015Y116149D01*
X68000Y116351D01*
X65000D01*
X63986Y116149D01*
X63126Y115575D01*
X62551Y114714D01*
X62349Y113700D01*
X61119D01*
X60806Y115276D01*
X59913Y116613D01*
X58576Y117506D01*
X57000Y117819D01*
D02*
G37*
G36*
X54230Y104930D02*
X49881D01*
Y98700D01*
X50194Y97124D01*
X51087Y95787D01*
X52424Y94894D01*
X54000Y94581D01*
X54230D01*
Y104930D01*
D02*
G37*
G36*
X25300Y114216D02*
X23993Y113956D01*
X22885Y113215D01*
X22144Y112107D01*
X21884Y110800D01*
X22144Y109493D01*
X22885Y108385D01*
X23993Y107644D01*
X25300Y107384D01*
X26059Y106329D01*
Y94700D01*
X25100D01*
Y86500D01*
X31300D01*
Y94700D01*
X30341D01*
Y107900D01*
X30178Y108719D01*
X29714Y109414D01*
X28651Y110477D01*
X28716Y110800D01*
X28456Y112107D01*
X27715Y113215D01*
X26607Y113956D01*
X25300Y114216D01*
D02*
G37*
G36*
X20350Y102566D02*
X19043Y102306D01*
X17935Y101565D01*
X17194Y100457D01*
X16934Y99150D01*
X17194Y97843D01*
X17935Y96735D01*
X18059Y96652D01*
Y94700D01*
X17100D01*
Y86500D01*
X23300D01*
Y94700D01*
X22341D01*
Y96451D01*
X22765Y96735D01*
X23506Y97843D01*
X23766Y99150D01*
X23506Y100457D01*
X22765Y101565D01*
X21657Y102306D01*
X20350Y102566D01*
D02*
G37*
G36*
X85100Y83220D02*
X81830D01*
Y78950D01*
X85100D01*
Y83220D01*
D02*
G37*
G36*
Y76410D02*
X81830D01*
Y72140D01*
X85100D01*
Y76410D01*
D02*
G37*
G36*
X85150Y68130D02*
X81880D01*
Y63860D01*
X85150D01*
Y68130D01*
D02*
G37*
G36*
X7300Y56016D02*
X5993Y55756D01*
X4885Y55015D01*
X4144Y53907D01*
X3884Y52600D01*
X4144Y51293D01*
X4885Y50185D01*
X5993Y49444D01*
X7300Y49184D01*
X8607Y49444D01*
X9715Y50185D01*
X10456Y51293D01*
X10716Y52600D01*
X10456Y53907D01*
X9715Y55015D01*
X8607Y55756D01*
X7300Y56016D01*
D02*
G37*
G36*
X17730Y53440D02*
X14460D01*
Y49170D01*
X17730D01*
Y53440D01*
D02*
G37*
G36*
X104770Y47959D02*
Y45770D01*
X106959D01*
X106929Y45920D01*
X106124Y47124D01*
X104920Y47929D01*
X104770Y47959D01*
D02*
G37*
G36*
X17730Y46630D02*
X14460D01*
Y42360D01*
X17730D01*
Y46630D01*
D02*
G37*
G36*
X65619Y42066D02*
X63306Y39753D01*
X66326Y36734D01*
X68638Y39046D01*
X65619Y42066D01*
D02*
G37*
G36*
X15812Y35964D02*
X14207Y34359D01*
X15988Y32577D01*
X17593Y34182D01*
X15812Y35964D01*
D02*
G37*
G36*
X130170Y13396D02*
Y9270D01*
X134296D01*
X134119Y10162D01*
X132894Y11994D01*
X131062Y13219D01*
X130170Y13396D01*
D02*
G37*
G36*
X127630D02*
X126738Y13219D01*
X124906Y11994D01*
X123681Y10162D01*
X123504Y9270D01*
X127630D01*
Y13396D01*
D02*
G37*
G36*
X15000Y27204D02*
X11841Y26789D01*
X8898Y25569D01*
X6370Y23630D01*
X4431Y21102D01*
X3211Y18159D01*
X2796Y15000D01*
X3211Y11841D01*
X4431Y8898D01*
X6370Y6370D01*
X8898Y4431D01*
X11841Y3211D01*
X15000Y2796D01*
X18159Y3211D01*
X21102Y4431D01*
X23630Y6370D01*
X25569Y8898D01*
X26789Y11841D01*
X27204Y15000D01*
X26789Y18159D01*
X25569Y21102D01*
X23630Y23630D01*
X21102Y25569D01*
X18159Y26789D01*
X15000Y27204D01*
D02*
G37*
%LPD*%
D11*
X179100Y52600D02*
X194980D01*
X178000Y243700D02*
X212300D01*
D13*
X95500Y40500D02*
X99500Y44500D01*
D15*
X63900Y24000D02*
Y31600D01*
X57400Y38100D02*
X63900Y31600D01*
X58600Y17500D02*
Y28800D01*
X56300Y31100D02*
X58600Y28800D01*
X52700Y11600D02*
X58600Y17500D01*
X139000Y91800D02*
X141030D01*
X142600Y90230D01*
X214650Y258550D02*
X217750Y261650D01*
X204700Y266400D02*
X210600Y272300D01*
X217750Y261650D02*
Y291950D01*
X217700Y292000D02*
X217750Y291950D01*
X210600Y272300D02*
X213400D01*
X234788Y216942D02*
Y217400D01*
Y216942D02*
X235055Y216674D01*
X61190Y72490D02*
Y81670D01*
X121640Y52550D02*
X131140D01*
X43703Y71803D02*
Y75567D01*
X43180Y76091D02*
X43703Y75567D01*
X43205Y71305D02*
X43703Y71803D01*
X38200Y71300D02*
Y77240D01*
X197200Y283918D02*
Y293300D01*
X194300Y281018D02*
X197200Y283918D01*
X194300Y267800D02*
Y281018D01*
X190810Y254700D02*
X194660Y258550D01*
X178000Y254700D02*
X190810D01*
X88500Y106200D02*
Y123300D01*
X74200Y137600D02*
X88500Y123300D01*
X62167Y137600D02*
X74200D01*
X110500Y106200D02*
Y112552D01*
X75352Y147700D02*
X110500Y112552D01*
X70933Y147700D02*
X75352D01*
X65767Y142533D02*
X70933Y147700D01*
X97270Y149100D02*
X115640Y167470D01*
X96300Y149100D02*
X97270D01*
X97800Y143200D02*
X104800Y150200D01*
X89800Y143200D02*
X97800D01*
X104800Y150200D02*
X104830D01*
X122090Y167460D01*
X121390Y62550D02*
X131140D01*
X102700Y27410D02*
Y31200D01*
X102809D01*
X103080Y31470D01*
X102700Y31200D02*
Y31470D01*
X99500Y34670D02*
X102700Y31470D01*
Y27410D02*
X103510Y26600D01*
X103080Y31470D02*
X103700Y30850D01*
X121530Y42550D02*
X131140D01*
X116930Y54100D02*
X120410Y57580D01*
X131110D01*
X131140Y57550D01*
X71600Y54100D02*
X116930D01*
X132350Y36050D02*
X137640D01*
X132300Y36000D02*
X132350Y36050D01*
X148670Y21600D02*
X152640Y25570D01*
X146500Y21600D02*
X148670D01*
X183650Y47550D02*
X185450Y45750D01*
X184900Y21516D02*
Y28390D01*
X183446Y36322D02*
X185450Y38326D01*
Y45750D01*
X179700Y16316D02*
X184900Y21516D01*
X179700Y8000D02*
Y16316D01*
X179140Y29460D02*
X181800Y26800D01*
Y22800D02*
Y26800D01*
X167000Y8000D02*
X181800Y22800D01*
X187796Y31645D02*
X190055D01*
X190100Y31600D01*
X183446Y29843D02*
Y36322D01*
Y29843D02*
X184900Y28390D01*
X179290Y72700D02*
X186700D01*
X179140Y72550D02*
X179290Y72700D01*
X164800Y101400D02*
X167600Y98600D01*
Y84100D02*
Y98600D01*
X162600Y84100D02*
Y94699D01*
X157640Y84050D02*
Y95440D01*
X154260Y98820D02*
X157640Y95440D01*
X126000Y77500D02*
X131090D01*
X131140Y77550D01*
X43330Y56180D02*
X53330D01*
X190220Y31580D02*
X195000D01*
X190200Y31600D02*
X190220Y31580D01*
X147560Y30350D02*
X147780Y30130D01*
X142640Y28640D02*
Y36050D01*
X140620Y26620D02*
X142640Y28640D01*
X147640Y29990D02*
X147780Y30130D01*
X142600Y84100D02*
Y90230D01*
X129290Y83140D02*
X130200Y84050D01*
X125840Y83140D02*
X129290D01*
X130200Y84050D02*
X137640D01*
X189700Y283110D02*
X189970Y282840D01*
X183240Y285300D02*
X189700D01*
X179340Y289200D02*
X183240Y285300D01*
X171500Y289200D02*
X179340D01*
X25300Y110800D02*
X28200Y107900D01*
Y90600D02*
Y107900D01*
X20200Y90600D02*
Y99000D01*
X77500Y113050D02*
Y127000D01*
X24080Y71180D02*
X38080D01*
X22300Y69400D02*
X24080Y71180D01*
X22300Y64100D02*
Y69400D01*
X39050Y47210D02*
X56810D01*
X68800Y51300D02*
X71600Y54100D01*
X106000Y40500D02*
X116100Y30400D01*
X103500Y40500D02*
X106000D01*
X99500Y34670D02*
Y40500D01*
X91500D02*
X95500D01*
Y44500D02*
Y47200D01*
X94600Y48100D02*
X95500Y47200D01*
X86500Y48100D02*
X94600D01*
X84100Y45700D02*
X86500Y48100D01*
X84100Y42600D02*
Y45700D01*
X78160Y36660D02*
X84100Y42600D01*
X87400Y34061D02*
X90810Y30650D01*
X87400Y34061D02*
Y42600D01*
X89300Y44500D01*
X91500D01*
X162500Y19000D02*
X171000D01*
X78160Y30260D02*
Y36660D01*
X77400Y127000D02*
Y127100D01*
X74400Y142500D02*
X99500Y117400D01*
X46720Y39210D02*
X48100Y37830D01*
X56600Y134500D02*
X70000D01*
X48500Y142600D02*
X56600Y134500D01*
X70000D02*
X77400Y127100D01*
X57133Y142633D02*
X62167Y137600D01*
X77400Y106300D02*
X77500Y106200D01*
Y113050D01*
X99500Y106200D02*
Y117400D01*
X147640Y84050D02*
Y91900D01*
X87900Y145100D02*
X89800Y143200D01*
X203899Y272600D02*
X204700Y273400D01*
X198700Y272600D02*
X203899D01*
X204700Y273400D02*
Y278500D01*
X195600D02*
X199180D01*
X194300Y267800D02*
X195700Y266400D01*
X118590Y72550D02*
X131140D01*
X113600Y77540D02*
X118590Y72550D01*
X110990Y77540D02*
X113600D01*
X113540Y62540D02*
X118550Y67550D01*
X110990Y62540D02*
X113540D01*
X179140Y29460D02*
Y42550D01*
X190100Y31600D02*
X190200D01*
X162700Y28900D02*
Y36000D01*
X162600Y36100D02*
X162700Y36000D01*
X164800Y101400D02*
Y113700D01*
X116100Y26600D02*
Y30400D01*
Y8100D02*
Y18600D01*
X179140Y47550D02*
X183650D01*
X147350Y92190D02*
X147640Y91900D01*
X147350Y84340D02*
X147640Y84050D01*
X172640Y89250D02*
X173040Y89650D01*
X131100Y47510D02*
X131140Y47550D01*
X115010D02*
X115050Y47510D01*
X203700Y293300D02*
X205000Y292000D01*
X43180Y76091D02*
Y80910D01*
X38080Y71180D02*
X38200Y71300D01*
X167640Y24520D02*
Y36050D01*
X38080Y66180D02*
X53330D01*
X38080Y61180D02*
Y66180D01*
X32600Y56180D02*
X38080D01*
X29870Y58910D02*
X32600Y56180D01*
X29870Y58910D02*
Y61860D01*
X53330Y66180D02*
X60990D01*
X61270Y66460D02*
Y72410D01*
X53330Y56180D02*
Y61180D01*
X48205Y71305D02*
X48700Y71800D01*
Y80910D01*
X61190Y72490D02*
X61270Y72410D01*
X53330Y66180D02*
Y71180D01*
X66790Y72410D02*
X72100D01*
X72140Y72450D01*
X27030Y46120D02*
X27140Y46230D01*
X88420Y282120D02*
X88500Y282200D01*
X88420Y268280D02*
Y282120D01*
X77500Y186320D02*
X100410Y163410D01*
X77500Y186320D02*
Y282200D01*
X187640Y67550D02*
X188170Y67020D01*
X179140Y67550D02*
X187640D01*
X179140Y77550D02*
Y81050D01*
X86370Y62640D02*
Y77680D01*
X94420Y62590D02*
X110940D01*
X94370Y77680D02*
X110850D01*
X78150Y26600D02*
X78160Y26610D01*
Y30260D01*
X147640Y29990D02*
Y36050D01*
X90810Y26600D02*
Y30650D01*
X157640Y26060D02*
Y36050D01*
X103510Y8010D02*
Y18600D01*
X90810Y8010D02*
Y18600D01*
X78150Y8050D02*
Y18600D01*
X167000Y8000D02*
X168872D01*
X53330Y71180D02*
Y76780D01*
X194660Y258550D02*
X214650D01*
X190100Y31600D02*
X190300Y31800D01*
X175300Y89650D02*
Y96700D01*
X173040Y89650D02*
X175300D01*
X179310D01*
X172640Y84050D02*
Y89250D01*
X21000Y243700D02*
X53810D01*
X21000Y254700D02*
X53850D01*
X171500Y293200D02*
X189600D01*
X195700Y266400D02*
X199180D01*
X189700Y293300D02*
X197200D01*
X118550Y67550D02*
X131140D01*
X77500Y113050D02*
X78760D01*
X172600Y20600D02*
Y36100D01*
X154600Y8300D02*
Y17200D01*
X152640Y25570D02*
Y36050D01*
X171000Y19000D02*
X172600Y20600D01*
X52700Y8000D02*
Y11600D01*
X48100Y31400D02*
Y37830D01*
X45110Y28410D02*
X48100Y31400D01*
X27590Y28810D02*
X30490D01*
X61270Y66460D02*
X64110Y63620D01*
X76003Y44703D02*
X76091D01*
X53330Y56180D02*
X63550D01*
X56810Y47210D02*
X60900Y51300D01*
X68800D01*
X28100Y38600D02*
X39400D01*
X27140Y39560D02*
X28100Y38600D01*
X27140Y39560D02*
Y46230D01*
X22218Y37010D02*
X24768Y39560D01*
X27140D01*
X25400Y31000D02*
X27590Y28810D01*
X30490D02*
X32500Y26800D01*
Y24220D02*
Y26800D01*
X41210Y24230D02*
Y28410D01*
X45110D01*
X39050Y39210D02*
X46720D01*
X40000Y8000D02*
Y17920D01*
X32410Y18710D02*
X41210D01*
X115050Y47510D02*
X131100D01*
X96500Y22600D02*
Y22900D01*
X84100Y22200D02*
X84600Y22700D01*
X84800D01*
D16*
X110990Y62540D02*
D03*
Y77540D02*
D03*
D17*
X25400Y31000D02*
D03*
D18*
X22218Y37010D02*
D03*
X19390Y34182D02*
D03*
D19*
X165000Y291200D02*
D03*
D20*
X171500Y289200D02*
D03*
Y293200D02*
D03*
D21*
X32500Y18700D02*
D03*
Y24220D02*
D03*
X41210Y18710D02*
D03*
Y24230D02*
D03*
D22*
X66790Y72410D02*
D03*
X61270D02*
D03*
X43180Y80910D02*
D03*
X48700D02*
D03*
X66990Y81670D02*
D03*
X61470D02*
D03*
X204700Y266400D02*
D03*
X199180D02*
D03*
X204700Y278500D02*
D03*
X199180D02*
D03*
D23*
X154500Y19400D02*
D03*
X162500D02*
D03*
X20200Y90600D02*
D03*
X28200D02*
D03*
X19000Y47900D02*
D03*
X27000D02*
D03*
X58500Y20300D02*
D03*
X50500D02*
D03*
X183310Y96710D02*
D03*
X175310D02*
D03*
X86420Y62590D02*
D03*
X94420D02*
D03*
X86370Y77680D02*
D03*
X94370D02*
D03*
D24*
X116100Y26600D02*
D03*
Y18600D02*
D03*
X103510Y26600D02*
D03*
Y18600D02*
D03*
X90810Y26600D02*
D03*
Y18600D02*
D03*
X78150Y26600D02*
D03*
Y18600D02*
D03*
X55100Y31200D02*
D03*
Y39200D02*
D03*
X39400Y38600D02*
D03*
Y46600D02*
D03*
X189700Y293300D02*
D03*
Y285300D02*
D03*
X64550Y55620D02*
D03*
Y63620D02*
D03*
D25*
X227650Y258550D02*
D03*
Y229050D02*
D03*
D26*
X212400Y243800D02*
D03*
D27*
X91500Y40500D02*
D03*
Y44500D02*
D03*
X95500Y40500D02*
D03*
Y44500D02*
D03*
X99500Y40500D02*
D03*
Y44500D02*
D03*
X103500Y40500D02*
D03*
Y44500D02*
D03*
D28*
X131100Y77600D02*
D03*
Y72600D02*
D03*
Y67600D02*
D03*
Y62600D02*
D03*
Y57600D02*
D03*
Y52600D02*
D03*
Y47600D02*
D03*
Y42600D02*
D03*
X179100D02*
D03*
Y47600D02*
D03*
Y52600D02*
D03*
Y57600D02*
D03*
Y62600D02*
D03*
Y67600D02*
D03*
Y72600D02*
D03*
Y77600D02*
D03*
D29*
X137600Y36100D02*
D03*
X142600D02*
D03*
X147600D02*
D03*
X152600D02*
D03*
X157600D02*
D03*
X162600D02*
D03*
X167600D02*
D03*
X172600D02*
D03*
Y84100D02*
D03*
X167600D02*
D03*
X162600D02*
D03*
X157600D02*
D03*
X152600D02*
D03*
X147600D02*
D03*
X142600D02*
D03*
X137600D02*
D03*
D30*
X155100Y60100D02*
D03*
D31*
X43205Y71305D02*
D03*
X48205D02*
D03*
Y56055D02*
D03*
X43205D02*
D03*
D32*
X53330Y71180D02*
D03*
Y66180D02*
D03*
Y61180D02*
D03*
Y56180D02*
D03*
X38080D02*
D03*
Y61180D02*
D03*
Y66180D02*
D03*
Y71180D02*
D03*
D33*
X21000Y254700D02*
D03*
Y243700D02*
D03*
Y232700D02*
D03*
Y221700D02*
D03*
Y210700D02*
D03*
Y199700D02*
D03*
Y188700D02*
D03*
Y177700D02*
D03*
Y166700D02*
D03*
Y155700D02*
D03*
Y144700D02*
D03*
Y133700D02*
D03*
X178000D02*
D03*
Y144700D02*
D03*
Y155700D02*
D03*
Y166700D02*
D03*
Y177700D02*
D03*
Y188700D02*
D03*
Y199700D02*
D03*
Y210700D02*
D03*
Y221700D02*
D03*
Y232700D02*
D03*
Y243700D02*
D03*
Y254700D02*
D03*
D34*
X55500Y106200D02*
D03*
X66500D02*
D03*
X77500D02*
D03*
X88500D02*
D03*
X99500D02*
D03*
X110500D02*
D03*
X121500D02*
D03*
X132500D02*
D03*
X143500D02*
D03*
Y282200D02*
D03*
X132500D02*
D03*
X121500D02*
D03*
X110500D02*
D03*
X99500D02*
D03*
X88500D02*
D03*
X77500D02*
D03*
X66500D02*
D03*
X55500D02*
D03*
D35*
X70434Y39046D02*
D03*
X76091Y44703D02*
D03*
D36*
X244000Y168580D02*
D03*
Y146580D02*
D03*
X217600Y121580D02*
D03*
X244000D02*
D03*
X217600Y99580D02*
D03*
X244000Y74580D02*
D03*
X195000Y52580D02*
D03*
X217600Y74580D02*
D03*
X244000Y99580D02*
D03*
X217600Y146580D02*
D03*
X204600Y168580D02*
D03*
D37*
X244000Y31580D02*
D03*
X195000D02*
D03*
D38*
X179700Y6000D02*
D03*
X167000D02*
D03*
X154300D02*
D03*
X116200D02*
D03*
X128900D02*
D03*
X217700Y294000D02*
D03*
X205000Y294000D02*
D03*
X141600Y6000D02*
D03*
X103500D02*
D03*
X90800D02*
D03*
X78100D02*
D03*
X65400D02*
D03*
X52700D02*
D03*
X40000D02*
D03*
D39*
X244000Y206000D02*
D03*
Y193300D02*
D03*
Y206000D02*
D03*
Y193300D02*
D03*
D60*
X244000Y146580D02*
Y168580D01*
X217600Y146580D02*
X244000D01*
X217600Y121580D02*
X244000D01*
Y99580D02*
Y121580D01*
X217600Y99580D02*
X244000D01*
X217600Y74580D02*
Y99580D01*
Y74580D02*
X244000D01*
X195000Y52580D02*
X243670D01*
X244000Y31580D02*
Y74580D01*
X217600Y121580D02*
Y146580D01*
X204600Y168580D02*
X244000D01*
X150000Y282200D02*
X159000Y291200D01*
X163780D01*
X143500Y282200D02*
X150000D01*
D61*
X197020Y31580D02*
X242000D01*
D62*
X70881Y81670D02*
X77000Y87789D01*
X66990Y81670D02*
X70881D01*
D63*
X143500Y271070D02*
Y282200D01*
X141840Y269410D02*
X143500Y271070D01*
X134540Y269410D02*
X141840D01*
X132500Y271450D02*
X134540Y269410D01*
X132500Y271450D02*
Y282200D01*
D64*
X182950Y57444D02*
D03*
D65*
X179700Y0D02*
D03*
Y8000D02*
D03*
X167000Y0D02*
D03*
Y8000D02*
D03*
X154300Y0D02*
D03*
Y8000D02*
D03*
X116200Y0D02*
D03*
Y8000D02*
D03*
X128900Y0D02*
D03*
Y8000D02*
D03*
X217700Y300000D02*
D03*
Y292000D02*
D03*
X205000Y300000D02*
D03*
Y292000D02*
D03*
X141600Y0D02*
D03*
Y8000D02*
D03*
X250000Y206000D02*
D03*
X242000D02*
D03*
X250000Y193300D02*
D03*
X242000D02*
D03*
X103500Y0D02*
D03*
Y8000D02*
D03*
X90800Y0D02*
D03*
Y8000D02*
D03*
X78100Y0D02*
D03*
Y8000D02*
D03*
X65400Y0D02*
D03*
Y8000D02*
D03*
X52700Y0D02*
D03*
Y8000D02*
D03*
X40000Y0D02*
D03*
Y8000D02*
D03*
D66*
X235000Y285000D02*
D03*
X15000Y15000D02*
D03*
D67*
X63900Y24000D02*
D03*
X139000Y91800D02*
D03*
X213800Y278199D02*
D03*
X213400Y272300D02*
D03*
X234788Y217400D02*
D03*
X43703Y75567D02*
D03*
X38200Y77240D02*
D03*
X191800Y249100D02*
D03*
X33800Y136900D02*
D03*
X33600Y142800D02*
D03*
X102700Y31200D02*
D03*
X121530Y42550D02*
D03*
X121640Y52550D02*
D03*
X132300Y36000D02*
D03*
X146500Y21600D02*
D03*
X187796Y31645D02*
D03*
X191000Y41170D02*
D03*
X186700Y72700D02*
D03*
X162600Y94699D02*
D03*
X154260Y98820D02*
D03*
X126000Y77500D02*
D03*
X121390Y62550D02*
D03*
X243790Y177110D02*
D03*
X233790D02*
D03*
X228790Y187110D02*
D03*
X223790Y177110D02*
D03*
X213790Y197110D02*
D03*
X218790Y187110D02*
D03*
X213790Y177110D02*
D03*
X208790Y187110D02*
D03*
X203790Y177110D02*
D03*
X193790Y237110D02*
D03*
X198790Y187110D02*
D03*
X193790Y177110D02*
D03*
Y157110D02*
D03*
Y137110D02*
D03*
Y117110D02*
D03*
Y77110D02*
D03*
X188790Y127110D02*
D03*
X153790Y137110D02*
D03*
X148790Y127110D02*
D03*
X138790Y167110D02*
D03*
X128790Y267110D02*
D03*
X123790Y257110D02*
D03*
X128790Y247110D02*
D03*
X123790Y237110D02*
D03*
X128790Y227110D02*
D03*
X123790Y217110D02*
D03*
X128790Y207110D02*
D03*
Y167110D02*
D03*
X118790Y267110D02*
D03*
Y247110D02*
D03*
X108790Y267110D02*
D03*
X103790Y197110D02*
D03*
X108790Y167110D02*
D03*
X98790Y267110D02*
D03*
Y247110D02*
D03*
Y227110D02*
D03*
Y207110D02*
D03*
X93790Y197110D02*
D03*
Y157110D02*
D03*
X83790Y257110D02*
D03*
Y217110D02*
D03*
X88790Y207110D02*
D03*
X83790Y197110D02*
D03*
X63790Y257110D02*
D03*
X68790Y127110D02*
D03*
X43790Y277110D02*
D03*
X48790Y267110D02*
D03*
Y207110D02*
D03*
Y187110D02*
D03*
X33790Y277110D02*
D03*
X38790Y267110D02*
D03*
X33790Y237110D02*
D03*
Y217110D02*
D03*
Y197110D02*
D03*
Y157110D02*
D03*
X38790Y107110D02*
D03*
X23790Y57110D02*
D03*
X147550Y30720D02*
D03*
X125840Y83140D02*
D03*
X190160Y264780D02*
D03*
X189970Y282840D02*
D03*
X25300Y110800D02*
D03*
X22300Y64100D02*
D03*
X7300Y52600D02*
D03*
X20350Y99150D02*
D03*
X77400Y127000D02*
D03*
X49100Y118300D02*
D03*
X77000Y87789D02*
D03*
X96300Y149100D02*
D03*
X87900Y145100D02*
D03*
X198700Y272600D02*
D03*
X193380Y22180D02*
D03*
X191300Y6360D02*
D03*
X190500Y58800D02*
D03*
X194100Y95800D02*
D03*
X162700Y28900D02*
D03*
X164800Y113700D02*
D03*
X116100Y30400D02*
D03*
X155320Y287710D02*
D03*
X147350Y92190D02*
D03*
X179310Y89650D02*
D03*
X104710Y142590D02*
D03*
X148550Y139960D02*
D03*
X117090Y124780D02*
D03*
X124540Y124760D02*
D03*
X115010Y47550D02*
D03*
X115640Y167470D02*
D03*
X122090Y167460D02*
D03*
X53810Y243700D02*
D03*
X53850Y254700D02*
D03*
X167640Y24520D02*
D03*
X29870Y61860D02*
D03*
X72140Y72450D02*
D03*
X140620Y26620D02*
D03*
X88420Y268280D02*
D03*
X100410Y163410D02*
D03*
X165210Y186580D02*
D03*
X164460Y202470D02*
D03*
X156570Y203380D02*
D03*
X146790D02*
D03*
X156400Y186520D02*
D03*
X147280Y186640D02*
D03*
X138640Y186620D02*
D03*
X173760Y278500D02*
D03*
X161050Y277080D02*
D03*
X150470Y275300D02*
D03*
X188170Y67020D02*
D03*
X179140Y81050D02*
D03*
X78160Y30260D02*
D03*
X90810Y30650D02*
D03*
X157640Y26060D02*
D03*
X210760Y222640D02*
D03*
X53330Y76780D02*
D03*
X191550Y214080D02*
D03*
X74400Y142500D02*
D03*
X65767Y142533D02*
D03*
X57133Y142633D02*
D03*
X48500Y142600D02*
D03*
X83100Y117900D02*
D03*
X70500Y18900D02*
D03*
X76003Y44703D02*
D03*
X50500Y20300D02*
D03*
X96500Y22600D02*
D03*
X84800Y22700D02*
D03*
D68*
X27200Y77700D02*
D03*
X166100Y49100D02*
D03*
X155100D02*
D03*
X144100D02*
D03*
X155100Y60100D02*
D03*
X166100D02*
D03*
X144100D02*
D03*
Y71100D02*
D03*
X155100D02*
D03*
X166100D02*
D03*
X231520Y248050D02*
D03*
X115940Y294220D02*
D03*
X3790Y79270D02*
D03*
X100920Y49470D02*
D03*
X29480Y5800D02*
D03*
M02*
