M48
;Layer_Color=9474304
;FILE_FORMAT=4:4
METRIC,LZ
;TYPE=PLATED
T1F00S00C0.2000
T4F00S00C0.6000
T5F00S00C2.2000
%
T01
X-000006Y000072
X-000056Y000172
X-000106Y000272
X-000006
X-000206
X-00015Y000395
X-000206Y000472
X-000306
X-000256Y000572
X-000181Y000832
X-000075Y000984
X000019Y001011
X000185Y001046
X000373Y001048
X00037Y000984
X000362Y000801
X00043205Y00079605
X000484Y000824
X0005333Y0007938
X000272Y000777
X000223Y000641
X0002987Y0006186
X000073Y000526
X0000379Y0007927
X-000406Y000872
Y001072
X-000356Y001172
X-000406Y001272
X-000073Y001206
X000061Y001402
X000387Y00136
X000433Y001285
X000491Y001183
X000485Y001426
X00057133Y00142633
X00065767Y00142533
X000744Y001425
X000774Y00127
X000694Y001272
X000831Y001179
X00077Y00087789
X00076003Y00044703
X000765Y000359
X0007816Y0003026
X0009081Y0003065
X000916Y000363
X001027Y000312
X001161Y000304
X001194Y000429
X0011501Y0004755
X0012164Y0005255
X0012139Y0006255
X00126Y000775
X0012584Y0008314
X00139Y000918
X0012454Y0012476
X0011709Y0012478
X0010471Y0014259
X001028Y000496
X000965Y000226
X000848Y000227
X000712Y00024
X000589Y000267
X0002948Y000058
X001395Y000221
X001323Y00036
X0014755Y0003072
X001465Y000224
X0015764Y0002606
X001627Y000289
X0016764Y0002452
X001718Y000198
X0019338Y0002218
X00187796Y00031645
X00191Y0004117
X001952Y000456
X00191381Y0005843
X0018817Y0006702
X001867Y000727
X00183098Y0006245
X001661Y000601
X001551
Y000711
X001441
Y000601
Y000491
X001551
X001661
Y000711
X0017914Y0008105
X0017931Y0008965
X00193Y000832
X001941Y000958
X001944Y00108
X001925Y001224
X001923Y001302
X001944Y001372
X0014855Y0013996
X001648Y001137
X001626Y00094699
X0015426Y0009882
X0014735Y0009219
X001913Y0000636
X001928Y001471
X001944Y001572
X001932Y001674
X001944Y001772
X002044
X002144
X002244
X002344
X002444
X002294Y001872
X002194
X002094
X001994
X002044Y001972
X002144
X001944
X0019155Y0021408
X001944Y002372
X0021076Y0022264
X0023152Y0024805
X002134Y002723
X001988Y002727
X0019016Y0026478
X0018997Y0028284
X0017376Y002785
X0016105Y0027708
X0015047Y002753
X0015532Y0028771
X0015657Y0020338
X00165646Y00202994
X0014679Y0020338
X0014728Y0018664
X001564Y0018652
X0016521Y00183164
X0013864Y0018662
X001394Y001672
X001294
X0012209Y0016746
X0011564Y0016747
X0010041Y0016341
X000944Y001572
X000963Y001491
X000879Y001451
X000844Y001972
X000944
X001044
X000894Y002072
X000844Y002172
X000994Y002272
Y002472
X001194
X001294
X001244Y002572
Y002372
X001294Y002272
X001244Y002172
X001294Y002072
X000494
Y001872
X000344Y001972
Y002172
Y002372
X0005381Y002437
X0005385Y002547
X000644Y002572
X000844
X0008842Y0026828
X0011594Y0029422
X000094Y002672
X-000006
X-000106
X-000206
X-000056Y002572
X-00012Y0024334
X-000121Y002377
X-000216Y0023844
X-000306Y002472
X-000256Y002172
X-000156
X-000206Y001872
X-000306
X-000406
X-000356Y001972
X-000406Y001672
Y001472
X-000114Y001488
X-000159Y001544
X-000156Y001772
X000344Y001572
T04
X-00007Y00036
Y00051
X-00019Y00097
X-00035
X0004Y00008
X000527
X000654
X000781
X000908Y0000799
X001035Y00008
X001162
X001289
X001416
X001543
X00167
X001797
X00242Y00191
Y00206
X002177Y00292
X00205Y00292
T05
X00015Y00015
X00235Y00285
M30
