G04*
G04 #@! TF.GenerationSoftware,Altium Limited,Altium Designer,18.1.1 (9)*
G04*
G04 Layer_Color=8421504*
%FSLAX44Y44*%
%MOMM*%
G71*
G01*
G75*
%ADD17R,0.4000X0.6000*%
%ADD18R,1.2500X1.0000*%
G04:AMPARAMS|DCode=19|XSize=1.8mm|YSize=0.6mm|CornerRadius=0.15mm|HoleSize=0mm|Usage=FLASHONLY|Rotation=270.000|XOffset=0mm|YOffset=0mm|HoleType=Round|Shape=RoundedRectangle|*
%AMROUNDEDRECTD19*
21,1,1.8000,0.3000,0,0,270.0*
21,1,1.5000,0.6000,0,0,270.0*
1,1,0.3000,-0.1500,-0.7500*
1,1,0.3000,-0.1500,0.7500*
1,1,0.3000,0.1500,0.7500*
1,1,0.3000,0.1500,-0.7500*
%
%ADD19ROUNDEDRECTD19*%
G04:AMPARAMS|DCode=20|XSize=1.8mm|YSize=0.6mm|CornerRadius=0.15mm|HoleSize=0mm|Usage=FLASHONLY|Rotation=180.000|XOffset=0mm|YOffset=0mm|HoleType=Round|Shape=RoundedRectangle|*
%AMROUNDEDRECTD20*
21,1,1.8000,0.3000,0,0,180.0*
21,1,1.5000,0.6000,0,0,180.0*
1,1,0.3000,-0.7500,0.1500*
1,1,0.3000,0.7500,0.1500*
1,1,0.3000,0.7500,-0.1500*
1,1,0.3000,-0.7500,-0.1500*
%
%ADD20ROUNDEDRECTD20*%
%ADD21R,1.0500X1.0000*%
%ADD22R,2.2000X1.0500*%
%ADD23R,0.2500X0.2000*%
%ADD24R,0.2500X0.5000*%
%ADD25R,0.5000X0.5000*%
%ADD26R,0.5000X0.9000*%
%ADD27R,0.6000X0.4000*%
%ADD28R,0.3000X0.3250*%
%ADD29R,0.3250X0.3000*%
%ADD30R,0.2000X0.2000*%
%ADD31R,0.5000X0.2500*%
%ADD32R,0.2000X0.2500*%
%ADD33R,0.2000X0.2000*%
%ADD34O,0.8500X0.2500*%
%ADD35O,0.2500X0.8500*%
%ADD36R,3.5000X3.5000*%
G36*
X48250Y15690D02*
X44250D01*
Y19690D01*
X46250Y17690D01*
X48250Y19690D01*
Y15690D01*
D02*
G37*
G36*
X59140D02*
X55140D01*
Y19690D01*
X57140Y17690D01*
X59140Y19690D01*
Y15690D01*
D02*
G37*
G36*
X67990Y79670D02*
X63990D01*
X65990Y81670D01*
X63990Y83670D01*
X67990D01*
Y79670D01*
D02*
G37*
G36*
X44180Y80910D02*
X46180Y78910D01*
X42180D01*
Y82910D01*
X46180D01*
X44180Y80910D01*
D02*
G37*
G36*
X67790Y70410D02*
X63790D01*
X65790Y72410D01*
X63790Y74410D01*
X67790D01*
Y70410D01*
D02*
G37*
D17*
X94370Y77680D02*
D03*
X86370D02*
D03*
X94420Y62590D02*
D03*
X86420D02*
D03*
X183310Y96710D02*
D03*
X175310D02*
D03*
X28180Y37420D02*
D03*
X36180D02*
D03*
D18*
X110990Y77540D02*
D03*
Y62540D02*
D03*
D19*
X55500Y282200D02*
D03*
X66500D02*
D03*
X77500D02*
D03*
X88500D02*
D03*
X99500D02*
D03*
X110500D02*
D03*
X121500D02*
D03*
X132500D02*
D03*
X143500D02*
D03*
Y106200D02*
D03*
X132500D02*
D03*
X121500D02*
D03*
X110500D02*
D03*
X99500D02*
D03*
X88500D02*
D03*
X77500D02*
D03*
X66500D02*
D03*
X55500D02*
D03*
D20*
X178000Y254700D02*
D03*
Y243700D02*
D03*
Y232700D02*
D03*
Y221700D02*
D03*
Y210700D02*
D03*
Y199700D02*
D03*
Y188700D02*
D03*
Y177700D02*
D03*
Y166700D02*
D03*
Y155700D02*
D03*
Y144700D02*
D03*
Y133700D02*
D03*
X21000D02*
D03*
Y144700D02*
D03*
Y155700D02*
D03*
Y166700D02*
D03*
Y177700D02*
D03*
Y188700D02*
D03*
Y199700D02*
D03*
Y210700D02*
D03*
Y221700D02*
D03*
Y232700D02*
D03*
Y243700D02*
D03*
Y254700D02*
D03*
D21*
X212400Y243800D02*
D03*
D22*
X227650Y229050D02*
D03*
Y258550D02*
D03*
D23*
X171500Y293200D02*
D03*
Y289200D02*
D03*
D24*
X165000Y291200D02*
D03*
D25*
X244000Y168580D02*
D03*
Y146580D02*
D03*
X217600Y121580D02*
D03*
X244000D02*
D03*
X217600Y99580D02*
D03*
X244000Y74580D02*
D03*
X195000Y52580D02*
D03*
X217600Y74580D02*
D03*
X244000Y99580D02*
D03*
X217600Y146580D02*
D03*
X204600Y168580D02*
D03*
D26*
X244000Y31580D02*
D03*
X195000D02*
D03*
D27*
X189700Y285300D02*
D03*
Y293300D02*
D03*
X78150Y18600D02*
D03*
Y26600D02*
D03*
X90810Y18600D02*
D03*
Y26600D02*
D03*
X103510Y18600D02*
D03*
Y26600D02*
D03*
X64110Y55620D02*
D03*
Y63620D02*
D03*
X48090Y30400D02*
D03*
Y38400D02*
D03*
X116100Y26600D02*
D03*
Y18600D02*
D03*
D28*
X43205Y71305D02*
D03*
X48205D02*
D03*
Y56055D02*
D03*
X43205D02*
D03*
D29*
X53330Y71180D02*
D03*
Y66180D02*
D03*
Y61180D02*
D03*
Y56180D02*
D03*
X38080D02*
D03*
Y61180D02*
D03*
Y66180D02*
D03*
Y71180D02*
D03*
D30*
X66990Y81670D02*
D03*
X61470D02*
D03*
X66790Y72410D02*
D03*
X61270D02*
D03*
X43180Y80910D02*
D03*
X48700D02*
D03*
D31*
X35290Y20000D02*
D03*
D32*
X37290Y26500D02*
D03*
X33290D02*
D03*
D33*
X57140Y16690D02*
D03*
Y22210D02*
D03*
X46250Y16690D02*
D03*
Y22210D02*
D03*
D34*
X131100Y77600D02*
D03*
Y72600D02*
D03*
Y67600D02*
D03*
Y62600D02*
D03*
Y57600D02*
D03*
Y52600D02*
D03*
Y47600D02*
D03*
Y42600D02*
D03*
X179100D02*
D03*
Y47600D02*
D03*
Y52600D02*
D03*
Y57600D02*
D03*
Y62600D02*
D03*
Y67600D02*
D03*
Y72600D02*
D03*
Y77600D02*
D03*
D35*
X137600Y36100D02*
D03*
X142600D02*
D03*
X147600D02*
D03*
X152600D02*
D03*
X157600D02*
D03*
X162600D02*
D03*
X167600D02*
D03*
X172600D02*
D03*
Y84100D02*
D03*
X167600D02*
D03*
X162600D02*
D03*
X157600D02*
D03*
X152600D02*
D03*
X147600D02*
D03*
X142600D02*
D03*
X137600D02*
D03*
D36*
X155100Y60100D02*
D03*
M02*
