M48
;Layer_Color=9474304
;FILE_FORMAT=4:4
METRIC,LZ
;TYPE=PLATED
T1F00S00C0.2000
T2F00S00C0.6000
%
T01
X00033Y00016
X000394Y000355
X0003785Y00044111
X000436Y000451
X000498Y000584
X000607Y000567
X000671Y000406
X000735Y00042
X000681Y000277
X000613Y000327
X00048298Y00027298
X00079Y000264
X001018Y000241
X000965Y000183
X001189Y000207
X00121728Y0001575
X001316Y000233
X001371Y000231
X001374Y000373
X001384Y00044
X001274
X001294Y000372
X001164Y00044
X001097Y00045
X001164Y00055
X001274
Y00066
X001164
X001164Y000724
X001024Y0007995
X000965Y001015
X000817Y000988
X000745
X000634Y000982
X0004965Y0008205
X0004485
X000351Y000758
Y00071
X000316Y00065
X000228Y000596
X000132Y000628
X000172Y000708
X000267Y000772
Y00082
X000223Y000444
X000238Y000389
X000203Y000311
X000937Y000418
X000894Y000464
X000881Y000549
X000936Y000527
X000917Y000612
X001384Y00066
Y00055
X0014Y00092
X001349Y00097
X001267Y000986
X001255Y000915
X001178Y001269
X001019Y001266
X000909Y001264
X000799Y001265
X000742Y001285
X00068Y001349
X000452Y001428
X001012
X001384Y001425
X000092Y001188
X00145Y001229
X001516Y001298
X001492Y001108
X001572
X001524Y000935
X001489Y00089
X0015165Y0008015
X001618Y000797
X001615Y00061
X001627Y000543
X001602Y000398
X0016683Y0003932
X001799Y000395
X00192Y0004
X001983Y000405
X001972Y000628
Y000788
Y000948
X001932Y001028
X001972Y001108
X001959Y00123
X001964Y001318
X001972Y001428
X001825Y001052
X001877Y00092
X001768Y000922
X001697Y000973
X001817Y000542
X001828Y000273
X001686Y000164
X001971Y000156
X002012Y000068
X001462Y00057
X001571Y001486
X001569Y001581
X001482Y001626
X001825Y001629
X001892Y001588
X001972
X001932Y001508
X001881Y001466
X0018195Y0014895
X001828Y001754
Y001842
X001826Y001942
X001816Y00213
X00157Y00215
X001563Y002073
X001489Y002087
X001452Y002308
Y002788
X0015125Y0027705
X0016395Y0027685
X0017665Y0027645
X00190449Y0026935
X001968Y002751
X002052Y002388
X002012Y002308
X002412
X002452Y002388
X002372
X002332Y002468
X002412
X002452Y002548
X002372
X002292
X002412Y002628
X002452Y002708
X002372
X00236Y00284
X002407
X0024Y002925
X002349
X002372Y001908
X002292
X002212
X002132
X002052
X001976Y001846
X001972Y001748
X001932Y001668
X002452Y001908
X001397Y001842
X001412Y001748
X001252
X001251Y001892
X001252Y002068
X001212Y002148
X001292
X001252Y002228
X001212Y002308
X001292
X001332Y002548
X001252
X001172
X001132Y002628
X001052
X000972
X000945Y002547
X000852Y002548
X000812Y002468
X000772Y002388
X000692
X000732Y002308
X000812
X000852Y002228
X000732Y002148
X000652
X000612Y002228
X000492Y002148
X000412
X000452Y002068
X000412Y001988
X000492
X000452Y001908
X000412Y001828
X000492
X000652
X000692Y001908
X000612
X000652Y001988
X000772Y002068
X000612Y001748
X00062Y001689
X000844Y001626
X000909Y001627
X000974
X001052Y001668
X001092Y001748
X001052Y001828
X001132
X00117375Y00164375
X001122Y001506
X000844Y001469
X000719
X000476Y001498
X000492Y002308
X000425Y002307
X000452Y002388
X000424Y002468
X000426Y002547
Y002624
X000492Y002628
X000572
X000612Y002708
X000532
X000452
X000532Y002548
X000692
Y002708
X000689Y002767
X000797Y002679
X000852Y002708
X001012
X001252
X001212Y002628
X001292
X000945Y002427
X001351Y001993
X000292Y002868
X000212
X000172Y002788
T02
X000127Y00008
X000254
X000381
X000508
X000635
X000762
X000889
X001016
X001143
X00127
X001397
X00008Y000254
Y000381
Y000508
Y000762
Y000889
X001524Y00008
X001651
X001778
X001905
X00242Y002032
Y002159
M30
