G04 Layer_Color=65535*
%FSLAX44Y44*%
%MOMM*%
G71*
G01*
G75*
%ADD30C,0.2000*%
%ADD36C,0.2500*%
%ADD59C,0.1000*%
%ADD60C,0.2540*%
%ADD61C,0.1200*%
%ADD62C,0.0800*%
%ADD63C,0.1500*%
D30*
X128600Y33600D02*
X132350D01*
X128600D02*
Y37350D01*
X177850Y33600D02*
X181600D01*
Y37350D01*
Y82850D02*
Y86600D01*
X177850D02*
X181600D01*
X128600D02*
X132350D01*
X128600Y82850D02*
Y86600D01*
X210400Y230800D02*
Y256800D01*
X236400D01*
Y230800D02*
Y256800D01*
X210400Y230800D02*
X236400D01*
X145500Y269100D02*
X167500D01*
X145500Y219100D02*
Y269100D01*
Y219100D02*
X167500D01*
Y269100D01*
X21000Y105700D02*
Y254700D01*
Y105700D02*
X178000D01*
Y282700D01*
X21000D02*
X178000D01*
X21000Y254700D02*
Y282700D01*
D36*
X123350Y85100D02*
G03*
X123350Y85100I-1250J0D01*
G01*
D59*
X34242Y72330D02*
G03*
X34242Y72330I-112J0D01*
G01*
D60*
X228643Y243800D02*
G03*
X228643Y243800I-4243J0D01*
G01*
X17243Y267700D02*
G03*
X17243Y267700I-4243J0D01*
G01*
D61*
X120690Y15160D02*
Y30090D01*
X111560Y15160D02*
X120690D01*
X111560D02*
Y30090D01*
X120690D01*
X43500Y26910D02*
Y41840D01*
X52630D01*
Y26910D02*
Y41840D01*
X43500Y26910D02*
X52630Y26910D01*
X24690Y42010D02*
X39620D01*
Y32880D02*
Y42010D01*
X24690Y32880D02*
X39620D01*
X24690D02*
Y42010D01*
X59520Y52130D02*
Y67220D01*
X68650D01*
Y52130D02*
Y67220D01*
X59520Y52130D02*
X68650Y52130D01*
X171710Y92120D02*
X186800D01*
X171710D02*
Y101250D01*
X186800D01*
X186800Y92120D01*
X98970Y30090D02*
X108100D01*
X98970Y15160D02*
Y30090D01*
Y15160D02*
X108100Y15160D01*
X108100Y30090D01*
X86270D02*
X95400D01*
X86270Y15160D02*
Y30090D01*
Y15160D02*
X95400Y15160D01*
X95400Y30090D01*
X73610D02*
X82740Y30090D01*
X73610Y15160D02*
Y30090D01*
Y15160D02*
X82740D01*
X82740Y30090D02*
X82740Y15160D01*
X185160Y296790D02*
X194290Y296790D01*
X185160Y281860D02*
Y296790D01*
Y281860D02*
X194290D01*
X194290Y296790D02*
X194290Y281860D01*
X82930Y67180D02*
X82930Y58050D01*
X98020D01*
Y67180D01*
X82930D02*
X98020D01*
X103490Y56040D02*
Y84040D01*
X118490D01*
Y56040D02*
Y84040D01*
X103490Y56040D02*
X118490D01*
X82880Y73140D02*
Y82270D01*
Y73140D02*
X97970D01*
Y82270D01*
X82880D02*
X97970D01*
D62*
X30790Y17200D02*
X39790Y17200D01*
X30790Y17200D02*
X30790Y29200D01*
X39790D01*
X39790Y17200D02*
X39790Y29200D01*
X35680Y53680D02*
Y73680D01*
Y53680D02*
X55680D01*
Y73680D01*
X35680D02*
X55680D01*
X162200Y286700D02*
X174200D01*
Y295700D01*
X162200D02*
X174200D01*
X162200Y286700D02*
Y295700D01*
D63*
X192500Y174080D02*
X249500D01*
X192500Y22080D02*
Y174080D01*
Y22080D02*
X249500D01*
Y22080D01*
Y174080D01*
M02*
