G04*
G04 #@! TF.GenerationSoftware,Altium Limited,Altium Designer,18.1.1 (9)*
G04*
G04 Layer_Color=128*
%FSLAX44Y44*%
%MOMM*%
G71*
G01*
G75*
%ADD16R,0.2000X0.2500*%
%ADD17R,0.5000X0.2500*%
%ADD25R,0.4000X0.6000*%
%ADD32R,0.6000X0.4000*%
%ADD70C,0.6000*%
%ADD72C,0.5000*%
%ADD74R,0.2000X0.2000*%
%ADD75R,0.5000X0.4000*%
%ADD76R,1.2500X1.0000*%
%ADD77R,0.3000X0.3250*%
%ADD78R,0.3250X0.3000*%
%ADD79R,1.0500X1.0000*%
%ADD80R,2.2000X1.0500*%
G04:AMPARAMS|DCode=81|XSize=0.4mm|YSize=0.6mm|CornerRadius=0mm|HoleSize=0mm|Usage=FLASHONLY|Rotation=315.000|XOffset=0mm|YOffset=0mm|HoleType=Round|Shape=Rectangle|*
%AMROTATEDRECTD81*
4,1,4,-0.3536,-0.0707,0.0707,0.3536,0.3536,0.0707,-0.0707,-0.3536,-0.3536,-0.0707,0.0*
%
%ADD81ROTATEDRECTD81*%

G36*
X63000Y96800D02*
X59000D01*
Y100800D01*
X61000Y98800D01*
X63000Y100800D01*
Y96800D01*
D02*
G37*
G36*
X130300Y106719D02*
X128300Y108719D01*
X126300Y106719D01*
Y110719D01*
X130300D01*
Y106719D01*
D02*
G37*
G36*
X139833D02*
X137833Y108719D01*
X135833Y106719D01*
Y110719D01*
X139833D01*
Y106719D01*
D02*
G37*
G36*
X149367D02*
X147367Y108719D01*
X145367Y106719D01*
Y110719D01*
X149367D01*
Y106719D01*
D02*
G37*
G36*
X158900D02*
X156900Y108719D01*
X154900Y106719D01*
Y110719D01*
X158900D01*
Y106719D01*
D02*
G37*
D16*
X49000Y101600D02*
D03*
X45000D02*
D03*
D17*
X47000Y108100D02*
D03*
D25*
X128100Y25900D02*
D03*
X136100D02*
D03*
X95600Y20800D02*
D03*
X103600D02*
D03*
X80500Y34300D02*
D03*
X72500D02*
D03*
X80500Y44000D02*
D03*
X72500D02*
D03*
X98000Y66700D02*
D03*
X107000D02*
D03*
X107000Y82200D02*
D03*
X98000D02*
D03*
X135800Y74900D02*
D03*
X127800D02*
D03*
X147200Y20500D02*
D03*
X155200D02*
D03*
X157500Y33900D02*
D03*
X149500D02*
D03*
X155400Y80200D02*
D03*
X147400D02*
D03*
X105100Y52600D02*
D03*
X97100D02*
D03*
X74980Y64900D02*
D03*
X82980D02*
D03*
X65500Y21500D02*
D03*
X73500D02*
D03*
X40400Y21800D02*
D03*
X48400D02*
D03*
X23100D02*
D03*
X15100D02*
D03*
X168800Y188700D02*
D03*
X160800D02*
D03*
D32*
X100400Y32500D02*
D03*
Y40500D02*
D03*
X61500Y79000D02*
D03*
Y87000D02*
D03*
X109000Y103100D02*
D03*
Y111100D02*
D03*
X47400Y81300D02*
D03*
Y89300D02*
D03*
X7000Y99100D02*
D03*
Y107100D02*
D03*
X20250D02*
D03*
Y99100D02*
D03*
X33500Y107100D02*
D03*
Y99100D02*
D03*
X20300Y73200D02*
D03*
Y81200D02*
D03*
X117500Y74700D02*
D03*
Y66700D02*
D03*
X117700Y84300D02*
D03*
Y92300D02*
D03*
X130600Y54400D02*
D03*
Y62400D02*
D03*
X20000Y61600D02*
D03*
Y53600D02*
D03*
X165700Y168200D02*
D03*
Y177200D02*
D03*
D70*
X10000Y125700D02*
D03*
Y239700D02*
D03*
X144000D02*
D03*
D72*
X130000Y215200D02*
D03*
Y202200D02*
D03*
Y189200D02*
D03*
Y176200D02*
D03*
Y163200D02*
D03*
Y150200D02*
D03*
X12500Y182700D02*
D03*
Y195700D02*
D03*
Y208700D02*
D03*
Y221700D02*
D03*
Y169700D02*
D03*
Y156700D02*
D03*
Y143700D02*
D03*
X141500Y182700D02*
D03*
Y195700D02*
D03*
Y208700D02*
D03*
Y221700D02*
D03*
Y169700D02*
D03*
Y156700D02*
D03*
Y143700D02*
D03*
X25000Y128200D02*
D03*
X38000D02*
D03*
X51000D02*
D03*
X64000D02*
D03*
X77000D02*
D03*
X90000D02*
D03*
X103000D02*
D03*
X116000D02*
D03*
X129000D02*
D03*
X77000Y191200D02*
D03*
X90000D02*
D03*
X103000D02*
D03*
X64000D02*
D03*
X51000D02*
D03*
X77000Y174200D02*
D03*
X64000D02*
D03*
X51000D02*
D03*
X90000D02*
D03*
X103000D02*
D03*
X109500Y202700D02*
D03*
X96500D02*
D03*
X83500D02*
D03*
X70500D02*
D03*
X57500D02*
D03*
X44500D02*
D03*
X109500Y162700D02*
D03*
X96500D02*
D03*
X83500D02*
D03*
X70500D02*
D03*
X57500D02*
D03*
X44500D02*
D03*
X38000Y214200D02*
D03*
X51000D02*
D03*
X64000D02*
D03*
X77000D02*
D03*
X90000D02*
D03*
X103000D02*
D03*
X116000D02*
D03*
X122500Y225700D02*
D03*
X109500D02*
D03*
X96500D02*
D03*
X83500D02*
D03*
X70500D02*
D03*
X57500D02*
D03*
X44500D02*
D03*
X31500D02*
D03*
X129000Y237200D02*
D03*
X24000Y215200D02*
D03*
Y202200D02*
D03*
Y189200D02*
D03*
Y176200D02*
D03*
Y163200D02*
D03*
Y151200D02*
D03*
X116000Y237200D02*
D03*
X103000D02*
D03*
X90000D02*
D03*
X77000D02*
D03*
X64000D02*
D03*
X51000D02*
D03*
X38000D02*
D03*
X25000D02*
D03*
X116000Y151200D02*
D03*
X103000D02*
D03*
X90000D02*
D03*
X77000D02*
D03*
X64000D02*
D03*
X51000D02*
D03*
X38000D02*
D03*
X31500Y139700D02*
D03*
X44500D02*
D03*
X57500D02*
D03*
X70500D02*
D03*
X83500D02*
D03*
X96500D02*
D03*
X109500D02*
D03*
X122500D02*
D03*
X118500Y182700D02*
D03*
X35500D02*
D03*
D74*
X128300Y109719D02*
D03*
Y104200D02*
D03*
X137833Y109719D02*
D03*
Y104200D02*
D03*
X147367Y109719D02*
D03*
Y104200D02*
D03*
X156900Y109719D02*
D03*
Y104200D02*
D03*
X61000Y103320D02*
D03*
Y97800D02*
D03*
D75*
X92500Y107800D02*
D03*
Y101300D02*
D03*
Y94800D02*
D03*
X73500D02*
D03*
Y101300D02*
D03*
Y107800D02*
D03*
D76*
X151600Y64500D02*
D03*
Y49500D02*
D03*
D77*
X47175Y49325D02*
D03*
X42175D02*
D03*
Y34075D02*
D03*
X47175D02*
D03*
D78*
X37050Y49200D02*
D03*
Y44200D02*
D03*
Y39200D02*
D03*
Y34200D02*
D03*
X52300D02*
D03*
Y39200D02*
D03*
Y44200D02*
D03*
Y49200D02*
D03*
D79*
X181750Y226650D02*
D03*
X191150Y204750D02*
D03*
D80*
X166500Y211900D02*
D03*
Y241400D02*
D03*
X206400Y219500D02*
D03*
Y190000D02*
D03*
D81*
X172072Y199828D02*
D03*
X178436Y193465D02*
D03*
M02*
