G04 Layer_Physical_Order=4*
G04 Layer_Color=16711680*
%FSLAX44Y44*%
%MOMM*%
G71*
G01*
G75*
%ADD14R,0.6000X0.4000*%
%ADD17R,0.4000X0.6000*%
%ADD18R,0.2000X0.2000*%
%ADD28R,0.2000X0.2000*%
%ADD35C,0.1500*%
%ADD37C,0.5000*%
%ADD39C,0.2000*%
%ADD40C,0.4000*%
%ADD42C,0.3000*%
%ADD43C,0.2500*%
%ADD49C,2.2000*%
%ADD50O,1.5500X1.0000*%
%ADD51O,0.9500X1.2500*%
%ADD52R,0.9000X0.9000*%
%ADD53R,0.9000X0.9000*%
%ADD54C,0.4500*%
%ADD55C,0.5000*%
%ADD57R,0.6000X0.6000*%
%ADD58R,1.0000X0.8000*%
%ADD59R,1.0000X1.8000*%
%ADD60R,1.1000X1.0000*%
%ADD61R,1.1000X1.6500*%
%ADD62R,3.0000X2.0000*%
%ADD63O,0.6000X0.9500*%
%ADD64R,4.2000X3.4000*%
%ADD65O,0.9000X0.2500*%
%ADD66O,0.2500X0.9000*%
%ADD67R,1.5000X1.0000*%
%ADD68R,0.8500X0.7500*%
G04:AMPARAMS|DCode=69|XSize=0.45mm|YSize=0.23mm|CornerRadius=0mm|HoleSize=0mm|Usage=FLASHONLY|Rotation=180.000|XOffset=0mm|YOffset=0mm|HoleType=Round|Shape=Octagon|*
%AMOCTAGOND69*
4,1,8,-0.2250,0.0575,-0.2250,-0.0575,-0.1675,-0.1150,0.1675,-0.1150,0.2250,-0.0575,0.2250,0.0575,0.1675,0.1150,-0.1675,0.1150,-0.2250,0.0575,0.0*
%
%ADD69OCTAGOND69*%

%ADD70C,0.2500*%
%ADD71P,0.2828X4X180.0*%
%ADD72R,0.4000X0.5000*%
%ADD73R,2.1500X1.2500*%
%ADD74R,0.3000X0.5000*%
%ADD75R,1.0000X1.8000*%
%ADD76R,0.2000X0.2500*%
%ADD77R,0.5000X0.2500*%
G36*
X58800Y19000D02*
X60800Y17000D01*
X56800D01*
Y21000D01*
X60800D01*
X58800Y19000D01*
D02*
G37*
G36*
X198584Y221114D02*
X201413D01*
X198584Y218286D01*
X195756Y221114D01*
X198584Y223943D01*
Y221114D01*
D02*
G37*
G36*
X204255Y223956D02*
X202841Y222542D01*
X200012D01*
Y225371D01*
X201426Y226785D01*
X204255Y223956D01*
D02*
G37*
G36*
X227211Y215592D02*
X225211Y213592D01*
X223211D01*
Y217592D01*
X225211D01*
X227211Y215592D01*
D02*
G37*
G36*
X231230Y213592D02*
X227230D01*
X229230Y215592D01*
X227230Y217592D01*
X231230D01*
Y213592D01*
D02*
G37*
G36*
X214290Y222640D02*
X216290Y220640D01*
X212290D01*
Y224640D01*
X216290D01*
X214290Y222640D01*
D02*
G37*
G36*
X220309Y220640D02*
X218309D01*
X216309Y222640D01*
X218309Y224640D01*
X220309D01*
Y220640D01*
D02*
G37*
G36*
X0Y297584D02*
X199400D01*
Y286400D01*
X210600D01*
Y297584D01*
X247859D01*
Y268958D01*
X246940Y268110D01*
X246589Y268110D01*
X233740D01*
Y262431D01*
X226160D01*
X224756Y262152D01*
X223565Y261356D01*
X220305Y258095D01*
X219509Y256905D01*
X219230Y255500D01*
Y242220D01*
X218300Y241290D01*
X214060D01*
Y246970D01*
X200860D01*
Y229068D01*
X200860Y228270D01*
X200222Y227264D01*
X199170Y226213D01*
X198822Y225371D01*
X197747Y224786D01*
X197742Y224785D01*
Y224785D01*
X194914Y221956D01*
X194565Y221114D01*
X194644Y220923D01*
X191134Y217413D01*
X190243Y217236D01*
X189135Y216495D01*
X188394Y215387D01*
X188217Y214496D01*
X187516Y213794D01*
X186941Y212934D01*
X186739Y211920D01*
X186739Y211920D01*
Y204170D01*
X186739Y204170D01*
X186941Y203155D01*
X187516Y202295D01*
X188986Y200826D01*
X188986Y200826D01*
X189846Y200251D01*
X190860Y200049D01*
X190860Y200049D01*
X210400D01*
X211415Y200251D01*
X211713Y200450D01*
X212625D01*
X213750Y201575D01*
Y202189D01*
X214550Y202670D01*
X215350Y202189D01*
Y201575D01*
X216475Y200450D01*
X220925D01*
X221034Y200559D01*
X222900D01*
X223390Y200656D01*
X224363Y200107D01*
X224660Y199823D01*
Y199270D01*
X230200D01*
X235740D01*
Y199403D01*
X236400Y200400D01*
X247600Y200400D01*
X247859Y199237D01*
Y174790D01*
X197070Y174790D01*
Y2416D01*
X185300D01*
Y13600D01*
X174100D01*
Y2416D01*
X172600D01*
Y13600D01*
X161400D01*
Y2416D01*
X159900D01*
Y13600D01*
X148700D01*
Y2416D01*
X147200D01*
Y13600D01*
X144139D01*
X144049Y14054D01*
X143475Y14914D01*
X140668Y17721D01*
X141067Y19118D01*
X141915Y19685D01*
X142336Y20315D01*
X143715Y20433D01*
X143806Y20402D01*
X144085Y19985D01*
X145193Y19244D01*
X146500Y18984D01*
X147807Y19244D01*
X148915Y19985D01*
X149655Y21093D01*
X149915Y22400D01*
X149655Y23707D01*
X148915Y24815D01*
X147807Y25556D01*
X146500Y25816D01*
X145193Y25556D01*
X144085Y24815D01*
X143663Y24185D01*
X142284Y24067D01*
X142194Y24098D01*
X141915Y24515D01*
X140807Y25256D01*
X139500Y25516D01*
X138193Y25256D01*
X137085Y24515D01*
X137058Y24475D01*
X135424Y24184D01*
X134951Y24541D01*
Y33937D01*
X135456Y34693D01*
X135716Y36000D01*
X135456Y37307D01*
X134715Y38415D01*
X133607Y39156D01*
X132300Y39416D01*
X130993Y39156D01*
X129885Y38415D01*
X129144Y37307D01*
X128884Y36000D01*
X129144Y34693D01*
X129649Y33937D01*
Y22340D01*
X129649Y22340D01*
X129851Y21326D01*
X130426Y20466D01*
X136378Y14513D01*
X136000Y13600D01*
X136000D01*
Y2416D01*
X121800D01*
Y13600D01*
X110600D01*
Y2416D01*
X109100D01*
Y13600D01*
X97900D01*
Y2416D01*
X96400D01*
Y13590D01*
X85200D01*
Y2416D01*
X83700D01*
Y13600D01*
X72500D01*
Y2416D01*
X71000D01*
Y13600D01*
X59800D01*
Y2416D01*
X58300D01*
Y13600D01*
X54841D01*
Y15616D01*
X56111Y16095D01*
X56800Y15809D01*
X60800D01*
X61642Y16158D01*
X62819Y15809D01*
X62819Y15809D01*
X64819D01*
X65661Y16158D01*
X65952Y16859D01*
X73900D01*
X74719Y17022D01*
X75414Y17486D01*
X80179Y22251D01*
X81557Y21833D01*
X81644Y21393D01*
X82385Y20285D01*
X83493Y19544D01*
X84700Y19304D01*
Y18000D01*
X90900D01*
Y26021D01*
X90900Y26200D01*
X91255Y27323D01*
X92118Y27495D01*
X93226Y28235D01*
X93966Y29343D01*
X94226Y30650D01*
X93966Y31957D01*
X93797Y32211D01*
X94015Y33885D01*
X94755Y34993D01*
X95015Y36300D01*
X94755Y37607D01*
X94015Y38715D01*
X92907Y39455D01*
X91600Y39715D01*
X90293Y39455D01*
X89185Y38715D01*
X88444Y37607D01*
X88184Y36300D01*
X88444Y34993D01*
X88614Y34739D01*
X88395Y33066D01*
X87655Y31957D01*
X87611Y31738D01*
X86341Y31863D01*
Y34200D01*
X86178Y35019D01*
X85714Y35714D01*
X84114Y37314D01*
X83419Y37778D01*
X82600Y37941D01*
X79165D01*
X78915Y38315D01*
X77807Y39056D01*
X76500Y39316D01*
X75862Y40340D01*
X76003Y41287D01*
X77310Y41547D01*
X78418Y42288D01*
X79159Y43396D01*
X79419Y44703D01*
X79159Y46010D01*
X78418Y47118D01*
X77310Y47859D01*
X76003Y48119D01*
X75922Y48102D01*
X74940Y48908D01*
Y49940D01*
X58670D01*
Y37400D01*
Y24860D01*
X67078D01*
X67784Y24000D01*
X68044Y22693D01*
X68232Y22411D01*
X67554Y21141D01*
X65952D01*
X65661Y21842D01*
X64819Y22191D01*
X62819D01*
X61978Y21842D01*
X61922Y21786D01*
X61642Y21842D01*
X60800Y22191D01*
X60800Y22191D01*
X56800D01*
X55958Y21842D01*
X55668Y21141D01*
X54600D01*
X53781Y20978D01*
X53086Y20514D01*
X51186Y18614D01*
X50722Y17919D01*
X50559Y17100D01*
Y13600D01*
X47100D01*
Y2416D01*
X45600D01*
Y13600D01*
X34400D01*
Y2416D01*
X0D01*
X-359Y2345D01*
X-1881Y3571D01*
X-12004Y12996D01*
X-21428Y23119D01*
X-30107Y33888D01*
X-37995Y45249D01*
X-45053Y57144D01*
X-51244Y69512D01*
X-56536Y82290D01*
X-60904Y95414D01*
X-64325Y108815D01*
X-66781Y122426D01*
X-68259Y136178D01*
X-68753Y150000D01*
X-68259Y163822D01*
X-66781Y177574D01*
X-64325Y191185D01*
X-60904Y204587D01*
X-56536Y217710D01*
X-51244Y230488D01*
X-45053Y242856D01*
X-37995Y254751D01*
X-30107Y266112D01*
X-21428Y276881D01*
X-12004Y287004D01*
X-1881Y296429D01*
X-359Y297655D01*
X0Y297584D01*
D02*
G37*
G36*
X64819Y17000D02*
X62819D01*
X60819Y19000D01*
X62819Y21000D01*
X64819D01*
Y17000D01*
D02*
G37*
G36*
X233740Y249410D02*
X246589D01*
X246940Y249410D01*
X247859Y248563D01*
Y247909D01*
X247060Y246970D01*
X246589Y246970D01*
X233860D01*
Y228270D01*
X236968D01*
Y211600D01*
X236400D01*
Y208141D01*
X234300D01*
Y209100D01*
X232361D01*
Y213448D01*
X232421Y213592D01*
Y217592D01*
X232072Y218434D01*
X231230Y218782D01*
X227230D01*
X226388Y218434D01*
X225211Y218782D01*
X225210Y218782D01*
X223211D01*
X222369Y218434D01*
X221291Y218625D01*
X221171Y219844D01*
X221500Y220640D01*
Y224640D01*
X221151Y225482D01*
X220309Y225831D01*
X218309D01*
X217467Y225482D01*
X217412Y225426D01*
X217132Y225482D01*
X216290Y225831D01*
X216290Y225831D01*
X212290D01*
X212120Y225760D01*
X212067Y225796D01*
X210760Y226056D01*
X209453Y225796D01*
X208345Y225055D01*
X207604Y223947D01*
X207344Y222640D01*
X207604Y221333D01*
X208345Y220225D01*
X209453Y219484D01*
X210760Y219224D01*
X212067Y219484D01*
X212120Y219520D01*
X212290Y219449D01*
X216290D01*
X216728Y218276D01*
Y212450D01*
X215471Y211420D01*
X214732Y211503D01*
X213345Y212890D01*
X211670D01*
Y209200D01*
X210400D01*
Y207930D01*
X205610D01*
Y207355D01*
X206344Y206621D01*
X205818Y205351D01*
X192041D01*
Y210762D01*
X192857Y210924D01*
X193965Y211665D01*
X194706Y212773D01*
X194883Y213664D01*
X198393Y217174D01*
X198584Y217095D01*
X199426Y217444D01*
X199426Y217444D01*
X202255Y220272D01*
X202603Y221114D01*
X203682Y221700D01*
X203682Y221700D01*
Y221700D01*
X205097Y223114D01*
X205445Y223956D01*
X205261Y224402D01*
X209128Y228270D01*
X214060D01*
Y233950D01*
X219820D01*
X221225Y234229D01*
X222416Y235025D01*
X225495Y238105D01*
X226291Y239295D01*
X226570Y240700D01*
Y253980D01*
X227681Y255090D01*
X233740D01*
Y249410D01*
D02*
G37*
%LPC*%
G36*
X165646Y206410D02*
X164339Y206150D01*
X163231Y205409D01*
X162490Y204301D01*
X162230Y202994D01*
X162490Y201687D01*
X163231Y200579D01*
X163424Y200450D01*
X163494Y199202D01*
X162946Y198654D01*
X162777Y198401D01*
X162368Y198232D01*
X162019Y197390D01*
Y193390D01*
X162368Y192548D01*
X162019Y191371D01*
X162019Y191371D01*
Y189371D01*
X162368Y188529D01*
X163069Y188238D01*
Y185763D01*
X162795Y185580D01*
X162054Y184471D01*
X161794Y183164D01*
X162054Y181857D01*
X162795Y180749D01*
X163903Y180009D01*
X165210Y179749D01*
X166517Y180009D01*
X167625Y180749D01*
X168366Y181857D01*
X168626Y183164D01*
X168366Y184471D01*
X167625Y185580D01*
X167351Y185763D01*
Y188238D01*
X168052Y188529D01*
X168401Y189371D01*
Y191371D01*
X168052Y192213D01*
X167996Y192268D01*
X168052Y192548D01*
X168401Y193390D01*
X168401Y193390D01*
Y197390D01*
X168052Y198232D01*
X167787Y198342D01*
Y200396D01*
X168061Y200579D01*
X168801Y201687D01*
X169061Y202994D01*
X168801Y204301D01*
X168061Y205409D01*
X166953Y206150D01*
X165646Y206410D01*
D02*
G37*
G36*
X86260Y177920D02*
X73060D01*
Y165720D01*
X86260D01*
Y177920D01*
D02*
G37*
G36*
X49860D02*
X36660D01*
Y165720D01*
X49860D01*
Y177920D01*
D02*
G37*
G36*
X177130Y38540D02*
X172860D01*
Y35270D01*
X177130D01*
Y38540D01*
D02*
G37*
G36*
X183940D02*
X179670D01*
Y35270D01*
X183940D01*
Y38540D01*
D02*
G37*
G36*
X156570Y206796D02*
X155263Y206536D01*
X154155Y205795D01*
X153414Y204687D01*
X153154Y203380D01*
X153414Y202073D01*
X154155Y200965D01*
X154429Y200782D01*
Y198581D01*
X154400D01*
X153558Y198232D01*
X153209Y197390D01*
Y193390D01*
X153558Y192548D01*
X153209Y191371D01*
X153209Y191371D01*
Y189371D01*
X153558Y188529D01*
X153607Y188369D01*
X153244Y187827D01*
X152984Y186520D01*
X153244Y185213D01*
X153985Y184105D01*
X155093Y183364D01*
X156400Y183104D01*
X157707Y183364D01*
X158815Y184105D01*
X159556Y185213D01*
X159816Y186520D01*
X159556Y187827D01*
X159193Y188369D01*
X159242Y188529D01*
X159591Y189371D01*
Y191371D01*
X159242Y192213D01*
X159186Y192268D01*
X159242Y192548D01*
X159591Y193390D01*
X159591Y193390D01*
Y197390D01*
X159242Y198232D01*
X158711Y198452D01*
Y200782D01*
X158985Y200965D01*
X159726Y202073D01*
X159986Y203380D01*
X159726Y204687D01*
X158985Y205795D01*
X157877Y206536D01*
X156570Y206796D01*
D02*
G37*
G36*
X228930Y196730D02*
X224660D01*
Y193460D01*
X228930D01*
Y196730D01*
D02*
G37*
G36*
X98900Y26200D02*
X92700D01*
Y18000D01*
X98900D01*
Y20175D01*
X98915Y20185D01*
X99655Y21293D01*
X99915Y22600D01*
X99655Y23907D01*
X98915Y25015D01*
X98900Y25025D01*
Y26200D01*
D02*
G37*
G36*
X235740Y196730D02*
X231470D01*
Y193460D01*
X235740D01*
Y196730D01*
D02*
G37*
G36*
X18000Y209800D02*
X11730D01*
Y199530D01*
X18000D01*
Y209800D01*
D02*
G37*
G36*
X9190D02*
X2920D01*
Y199530D01*
X9190D01*
Y209800D01*
D02*
G37*
G36*
X102700Y34616D02*
X101393Y34356D01*
X100285Y33615D01*
X99544Y32507D01*
X99284Y31200D01*
X99544Y29893D01*
X100285Y28785D01*
X101393Y28044D01*
X102700Y27784D01*
X104007Y28044D01*
X105115Y28785D01*
X105855Y29893D01*
X106115Y31200D01*
X105855Y32507D01*
X105115Y33615D01*
X104007Y34356D01*
X102700Y34616D01*
D02*
G37*
G36*
X-18100Y86616D02*
X-19407Y86356D01*
X-20515Y85615D01*
X-21256Y84507D01*
X-21516Y83200D01*
X-21256Y81893D01*
X-20515Y80785D01*
X-20241Y80602D01*
Y78813D01*
X-20942Y78523D01*
X-21291Y77681D01*
Y73681D01*
X-20942Y72839D01*
X-21291Y71661D01*
X-21291Y71661D01*
Y69661D01*
X-20942Y68819D01*
X-20241Y68529D01*
Y65974D01*
X-21042Y65642D01*
X-21391Y64800D01*
Y62800D01*
X-21042Y61958D01*
X-20986Y61902D01*
X-21042Y61623D01*
X-21391Y60781D01*
X-21391Y60781D01*
Y56781D01*
X-21042Y55939D01*
X-20200Y55590D01*
X-16200D01*
X-16080Y55640D01*
X-12600D01*
Y45400D01*
X-8239D01*
X-7910Y45180D01*
X-6984Y44996D01*
X-4762Y42773D01*
X-5248Y41600D01*
X-12374D01*
X-12585Y41915D01*
X-13693Y42656D01*
X-15000Y42916D01*
X-16307Y42656D01*
X-17415Y41915D01*
X-18156Y40807D01*
X-18416Y39500D01*
X-18156Y38193D01*
X-17415Y37085D01*
X-16307Y36344D01*
X-15000Y36084D01*
X-13870Y36309D01*
X-13020Y35985D01*
X-12600Y35760D01*
Y30400D01*
X-4383D01*
X-3900Y30304D01*
X12070D01*
X12988Y30486D01*
X13765Y31006D01*
X19692Y36933D01*
X24200D01*
Y35200D01*
X32400D01*
Y43400D01*
X24200D01*
Y41726D01*
X18700D01*
X18700Y41726D01*
X17783Y41543D01*
X17006Y41024D01*
X17006Y41024D01*
X11670Y35688D01*
X10400Y36214D01*
Y43400D01*
X2200D01*
X2200Y43400D01*
Y43400D01*
X1038Y43750D01*
X-1400Y46189D01*
Y55640D01*
X4300D01*
Y54140D01*
X4144Y53907D01*
X3884Y52600D01*
X4144Y51293D01*
X4885Y50185D01*
X5993Y49444D01*
X7300Y49184D01*
X8607Y49444D01*
X9715Y50185D01*
X10456Y51293D01*
X10716Y52600D01*
X10657Y52895D01*
X10500Y54100D01*
X10500Y54100D01*
X10500Y54100D01*
Y62080D01*
X11400Y62649D01*
X12300Y62080D01*
Y54100D01*
X18500D01*
Y56059D01*
X26210D01*
X27029Y56222D01*
X27724Y56686D01*
X29547Y58509D01*
X29870Y58444D01*
X31177Y58704D01*
X32285Y59445D01*
X32468Y59719D01*
X103753D01*
X107486Y55986D01*
X108181Y55522D01*
X109000Y55359D01*
X117960D01*
X118639Y54089D01*
X118484Y53857D01*
X118224Y52550D01*
X118484Y51243D01*
X119225Y50135D01*
X120333Y49394D01*
X121640Y49134D01*
X122947Y49394D01*
X124055Y50135D01*
X124796Y51243D01*
X125056Y52550D01*
X124796Y53857D01*
X124641Y54089D01*
X125320Y55359D01*
X129013D01*
X135459Y48913D01*
Y46600D01*
X135622Y45781D01*
X136086Y45086D01*
X144786Y36386D01*
X145481Y35922D01*
X146300Y35759D01*
X159713D01*
X160558Y34913D01*
Y31498D01*
X160285Y31315D01*
X159544Y30207D01*
X158086Y29387D01*
X157640Y29476D01*
X156333Y29216D01*
X155225Y28475D01*
X154484Y27367D01*
X154224Y26060D01*
X154484Y24753D01*
X155225Y23645D01*
X156333Y22904D01*
X157640Y22644D01*
X158947Y22904D01*
X160055Y23645D01*
X160796Y24753D01*
X162254Y25573D01*
X162700Y25484D01*
X163139Y25572D01*
X164224Y24520D01*
X164484Y23213D01*
X165225Y22105D01*
X166333Y21364D01*
X167640Y21104D01*
X168417Y19964D01*
X168384Y19800D01*
X168644Y18493D01*
X169385Y17385D01*
X170493Y16644D01*
X171800Y16384D01*
X173107Y16644D01*
X174215Y17385D01*
X174398Y17659D01*
X176700D01*
X177519Y17822D01*
X178214Y18286D01*
X179914Y19986D01*
X180378Y20681D01*
X180541Y21500D01*
Y22900D01*
X182500D01*
X182500Y29100D01*
X183621Y29460D01*
X183940D01*
Y32730D01*
X178400D01*
X172860D01*
Y29460D01*
X173179D01*
X174300Y29100D01*
X174300Y28190D01*
Y23686D01*
X173132Y22971D01*
X173030Y22971D01*
X171800Y23216D01*
X171023Y24356D01*
X171056Y24520D01*
X170796Y25827D01*
X170055Y26935D01*
X168947Y27676D01*
X167640Y27936D01*
X167201Y27848D01*
X166115Y28900D01*
X165855Y30207D01*
X165115Y31315D01*
X164841Y31498D01*
Y35800D01*
X164678Y36620D01*
X164214Y37314D01*
X162114Y39414D01*
X161419Y39878D01*
X160600Y40041D01*
X147187D01*
X139741Y47487D01*
Y49800D01*
X139578Y50619D01*
X139114Y51314D01*
X131414Y59014D01*
X130719Y59478D01*
X129900Y59641D01*
X125003D01*
X124324Y60911D01*
X124546Y61243D01*
X124806Y62550D01*
X124546Y63857D01*
X123805Y64965D01*
X122697Y65706D01*
X121390Y65966D01*
X120083Y65706D01*
X119810Y65523D01*
X118540Y66202D01*
Y67130D01*
X113000D01*
X107460D01*
Y65117D01*
X107457Y63861D01*
X107451Y63855D01*
X106372Y63455D01*
X106154Y63374D01*
X105459Y63838D01*
X104640Y64001D01*
X32468D01*
X32285Y64275D01*
X32011Y64458D01*
Y65530D01*
X31848Y66349D01*
X31384Y67044D01*
X29900Y68528D01*
Y70610D01*
X30590D01*
Y78130D01*
X17300D01*
X4010D01*
Y70610D01*
X2893Y70241D01*
X-395D01*
X-760Y71360D01*
X-760Y71511D01*
Y74630D01*
X-6300D01*
X-11840D01*
Y71360D01*
X-11840D01*
X-11560Y70090D01*
X-11568Y70041D01*
X-14909D01*
Y71661D01*
X-15258Y72503D01*
X-15314Y72559D01*
X-15258Y72839D01*
X-14909Y73681D01*
X-14909Y73681D01*
Y77681D01*
X-15258Y78523D01*
X-15959Y78813D01*
Y80602D01*
X-15685Y80785D01*
X-14944Y81893D01*
X-14684Y83200D01*
X-14944Y84507D01*
X-15685Y85615D01*
X-16793Y86356D01*
X-18100Y86616D01*
D02*
G37*
G36*
X147550Y34136D02*
X146243Y33876D01*
X145135Y33135D01*
X144394Y32027D01*
X144134Y30720D01*
X144394Y29413D01*
X145135Y28305D01*
X146243Y27565D01*
X147550Y27305D01*
X148857Y27565D01*
X149965Y28305D01*
X150706Y29413D01*
X150966Y30720D01*
X150706Y32027D01*
X149965Y33135D01*
X148857Y33876D01*
X147550Y34136D01*
D02*
G37*
G36*
X56130Y36130D02*
X39860D01*
Y24860D01*
X56130D01*
Y36130D01*
D02*
G37*
G36*
X116100Y33816D02*
X114793Y33556D01*
X113685Y32815D01*
X112944Y31707D01*
X112684Y30400D01*
X112944Y29093D01*
X113685Y27985D01*
X114793Y27244D01*
X116100Y26984D01*
X117407Y27244D01*
X118515Y27985D01*
X119256Y29093D01*
X119516Y30400D01*
X119256Y31707D01*
X118515Y32815D01*
X117407Y33556D01*
X116100Y33816D01*
D02*
G37*
G36*
X146330Y110740D02*
X142060D01*
Y107470D01*
X146330D01*
Y110740D01*
D02*
G37*
G36*
X118690Y105090D02*
X114420D01*
Y101820D01*
X118690D01*
Y105090D01*
D02*
G37*
G36*
X153140Y110740D02*
X148870D01*
Y107470D01*
X153140D01*
Y110740D01*
D02*
G37*
G36*
X-7300Y124016D02*
X-8607Y123756D01*
X-9715Y123015D01*
X-10456Y121907D01*
X-10716Y120600D01*
X-10456Y119293D01*
X-9715Y118185D01*
X-8607Y117444D01*
X-7300Y117184D01*
X-5993Y117444D01*
X-4885Y118185D01*
X-4144Y119293D01*
X-3884Y120600D01*
X-4144Y121907D01*
X-4885Y123015D01*
X-5993Y123756D01*
X-7300Y124016D01*
D02*
G37*
G36*
X64430Y123940D02*
X61160D01*
Y122500D01*
X56100D01*
Y115300D01*
X61160D01*
Y113860D01*
X64430D01*
Y118900D01*
Y123940D01*
D02*
G37*
G36*
X111880Y105090D02*
X107610D01*
Y101820D01*
X111880D01*
Y105090D01*
D02*
G37*
G36*
X-29400Y102600D02*
X-40600D01*
Y91400D01*
X-29400D01*
Y102600D01*
D02*
G37*
G36*
X-760Y80440D02*
X-5030D01*
Y77170D01*
X-760D01*
Y80440D01*
D02*
G37*
G36*
X-13400Y102600D02*
X-24600D01*
Y91400D01*
X-13400D01*
Y102600D01*
D02*
G37*
G36*
X164800Y117115D02*
X163493Y116855D01*
X162384Y116115D01*
X161644Y115007D01*
X161384Y113700D01*
X161644Y112393D01*
X162384Y111285D01*
X163043Y110845D01*
X163168Y110588D01*
X163279Y109564D01*
X163224Y109312D01*
X157926Y104014D01*
X157462Y103319D01*
X157299Y102500D01*
Y102346D01*
X156029Y101667D01*
X155567Y101976D01*
X154260Y102236D01*
X154122Y102208D01*
X153140Y103014D01*
Y104930D01*
X147600D01*
X142060D01*
Y103327D01*
X140887Y102841D01*
X136800Y106928D01*
Y109700D01*
X128600D01*
Y103500D01*
X134172D01*
X135702Y101970D01*
X135176Y100700D01*
X128600D01*
Y94500D01*
X130929D01*
Y85077D01*
X129659Y84285D01*
X129112Y84419D01*
X128559Y85101D01*
X128255Y85555D01*
X127147Y86296D01*
X125840Y86556D01*
X124533Y86296D01*
X123425Y85555D01*
X123242Y85281D01*
X119447D01*
X116451Y88277D01*
X116937Y89450D01*
X117250D01*
X117250Y95650D01*
X118371Y96010D01*
X118690D01*
Y99280D01*
X113150D01*
X107610D01*
Y96010D01*
X107929D01*
X109050Y95650D01*
X109050Y94740D01*
Y89450D01*
X110759D01*
Y88800D01*
X110922Y87981D01*
X111386Y87286D01*
X117046Y81626D01*
X117741Y81162D01*
X118560Y80999D01*
X122414D01*
X123290Y79882D01*
X123204Y79345D01*
X122844Y78807D01*
X122791Y78541D01*
X117100D01*
Y79500D01*
X108900D01*
X108900Y73300D01*
X107779Y72940D01*
X107460D01*
Y69670D01*
X113000D01*
X118540D01*
Y72940D01*
X118540D01*
X118260Y74210D01*
X118268Y74259D01*
X124870D01*
X124996Y74284D01*
X126000Y74084D01*
X127307Y74344D01*
X127658Y74579D01*
X128855Y74531D01*
X128855D01*
X128855D01*
X128855Y74531D01*
X129210Y74390D01*
X129330Y74285D01*
X129330Y74172D01*
X129330D01*
X129330Y74152D01*
Y68950D01*
X137530D01*
Y70126D01*
X138144Y70536D01*
X140514Y72906D01*
X140978Y73600D01*
X141141Y74420D01*
Y89201D01*
X141415Y89385D01*
X142155Y90493D01*
X142415Y91800D01*
X142155Y93107D01*
X141415Y94215D01*
X140307Y94955D01*
X139000Y95215D01*
X138070Y95030D01*
X137052Y95623D01*
X136800Y95886D01*
Y99076D01*
X138070Y99602D01*
X140986Y96686D01*
X141681Y96222D01*
X142500Y96059D01*
X143500D01*
Y95100D01*
X143738D01*
X144417Y93830D01*
X144194Y93497D01*
X143934Y92190D01*
X144194Y90883D01*
X144935Y89775D01*
X146043Y89034D01*
X146415Y88960D01*
X146970Y87920D01*
X146970Y87555D01*
Y83650D01*
X151510D01*
Y82380D01*
X152780D01*
Y76840D01*
X156050D01*
Y77159D01*
X156410Y78280D01*
X157320Y78280D01*
X162610D01*
Y78909D01*
X172980D01*
X173610Y77900D01*
Y71700D01*
X172489Y71340D01*
X172170D01*
Y68070D01*
X177710D01*
Y65530D01*
X172170D01*
Y62260D01*
X171599Y61227D01*
X166913Y56541D01*
X163487D01*
X162341Y57687D01*
Y61800D01*
X163300D01*
Y70000D01*
X157100Y70000D01*
X156740Y71121D01*
Y71440D01*
X153470D01*
Y65900D01*
Y60360D01*
X156740D01*
Y60360D01*
X158010Y60640D01*
X158059Y60632D01*
Y56800D01*
X158222Y55981D01*
X158686Y55286D01*
X161086Y52886D01*
X161781Y52422D01*
X162600Y52259D01*
X167800D01*
X168619Y52422D01*
X169314Y52886D01*
X172630Y56202D01*
X173900Y55676D01*
X173900Y50900D01*
X172779Y50540D01*
X172460D01*
Y47270D01*
X178000D01*
X183540D01*
Y50540D01*
X183221D01*
X182100Y50900D01*
X182100Y52343D01*
X182313Y52486D01*
X189684Y59857D01*
X190148Y60551D01*
X190311Y61371D01*
Y64422D01*
X190585Y64605D01*
X191326Y65713D01*
X191586Y67020D01*
X191326Y68327D01*
X190585Y69435D01*
X189477Y70176D01*
X189828Y71352D01*
X189855Y71393D01*
X190115Y72700D01*
X189855Y74007D01*
X189115Y75115D01*
X188007Y75855D01*
X187821Y75892D01*
Y92830D01*
X190830D01*
Y102060D01*
X190830Y103330D01*
X190830Y103800D01*
Y113030D01*
X180130D01*
Y103800D01*
X180130Y102530D01*
X180130Y102060D01*
Y93739D01*
X179310Y93066D01*
X178600Y92924D01*
X177440Y93694D01*
X177330Y93868D01*
Y102060D01*
X177330Y103330D01*
X177330Y103800D01*
Y113030D01*
X168765D01*
X168215Y113700D01*
X167955Y115007D01*
X167215Y116115D01*
X166107Y116855D01*
X164800Y117115D01*
D02*
G37*
G36*
X-7500Y101816D02*
X-8807Y101556D01*
X-9915Y100815D01*
X-10656Y99707D01*
X-10916Y98400D01*
X-10656Y97093D01*
X-9915Y95985D01*
X-8807Y95244D01*
X-7500Y94984D01*
X-6193Y95244D01*
X-5085Y95985D01*
X-4344Y97093D01*
X-4084Y98400D01*
X-4344Y99707D01*
X-5085Y100815D01*
X-6193Y101556D01*
X-7500Y101816D01*
D02*
G37*
G36*
X-7570Y80440D02*
X-11840D01*
Y77170D01*
X-7570D01*
Y80440D01*
D02*
G37*
G36*
X183540Y44730D02*
X179270D01*
Y41460D01*
X183540D01*
Y44730D01*
D02*
G37*
G36*
X115640Y170886D02*
X114333Y170626D01*
X113225Y169885D01*
X112484Y168777D01*
X112224Y167470D01*
X112484Y166163D01*
X113225Y165055D01*
X114333Y164314D01*
X114949Y164192D01*
Y160865D01*
X114876Y160757D01*
X114694Y159840D01*
Y153340D01*
X114876Y152423D01*
X115396Y151646D01*
X115979Y151256D01*
X115921Y150418D01*
X115768Y149986D01*
X109840D01*
X108923Y149804D01*
X108815Y149731D01*
X104267D01*
X102691Y151307D01*
Y160905D01*
X102825Y160995D01*
X103566Y162103D01*
X103826Y163410D01*
X103566Y164717D01*
X102825Y165825D01*
X101717Y166566D01*
X100410Y166826D01*
X99103Y166566D01*
X97995Y165825D01*
X97254Y164717D01*
X96994Y163410D01*
X97254Y162103D01*
X97995Y160995D01*
X98409Y160718D01*
Y153131D01*
X97139Y152349D01*
X96300Y152516D01*
X94993Y152256D01*
X93885Y151515D01*
X93144Y150407D01*
X92884Y149100D01*
X93144Y147793D01*
X93159Y147771D01*
Y143332D01*
X92458Y143042D01*
X91254Y143453D01*
X91060Y143786D01*
X91066Y143843D01*
X91316Y145100D01*
X91056Y146407D01*
X90315Y147515D01*
X89207Y148256D01*
X87900Y148516D01*
X86593Y148256D01*
X85485Y147515D01*
X84744Y146407D01*
X84484Y145100D01*
X84744Y143793D01*
X85117Y143235D01*
X85058Y143042D01*
X84709Y142200D01*
Y140200D01*
X85058Y139358D01*
X85114Y139302D01*
X85058Y139022D01*
X84709Y138180D01*
X84709Y138180D01*
Y134180D01*
X85058Y133338D01*
X85859Y133007D01*
Y132600D01*
X86022Y131781D01*
X86486Y131086D01*
X99586Y117986D01*
X100281Y117522D01*
X101100Y117359D01*
X119280D01*
X120099Y117522D01*
X120794Y117986D01*
X124217Y121409D01*
X124540Y121344D01*
X125847Y121604D01*
X126955Y122345D01*
X127696Y123453D01*
X127956Y124760D01*
X127696Y126067D01*
X127264Y126713D01*
X127709Y128017D01*
X127763Y128078D01*
X128007Y128126D01*
X128784Y128646D01*
X128826Y128709D01*
X130354D01*
X130396Y128646D01*
X131173Y128126D01*
X132090Y127944D01*
X133007Y128126D01*
X133784Y128646D01*
X133826Y128709D01*
X135354D01*
X135396Y128646D01*
X136173Y128126D01*
X137090Y127944D01*
X138007Y128126D01*
X138784Y128646D01*
X139304Y129423D01*
X139486Y130340D01*
Y136840D01*
X139304Y137757D01*
X138784Y138534D01*
X138201Y138924D01*
X138259Y139762D01*
X138412Y140194D01*
X143891D01*
X144429Y140093D01*
X145307Y139092D01*
X145394Y138653D01*
X146135Y137545D01*
X147243Y136804D01*
X148550Y136544D01*
X149857Y136804D01*
X150965Y137545D01*
X151706Y138653D01*
X151966Y139960D01*
X151706Y141267D01*
X150965Y142375D01*
X149857Y143116D01*
X148550Y143376D01*
X148227Y143311D01*
X147753Y143785D01*
X147446Y144269D01*
X147542Y145560D01*
X147910Y146111D01*
X147952Y146320D01*
X141090D01*
Y147590D01*
X139820D01*
Y151901D01*
X139364Y152724D01*
X139486Y153340D01*
Y159840D01*
X139304Y160757D01*
X138784Y161534D01*
X138007Y162054D01*
X137090Y162236D01*
X136173Y162054D01*
X135396Y161534D01*
X135354Y161471D01*
X133826D01*
X133784Y161534D01*
X133007Y162054D01*
X132090Y162236D01*
X131173Y162054D01*
X130396Y161534D01*
X130354Y161471D01*
X128826D01*
X128784Y161534D01*
X128007Y162054D01*
X127090Y162236D01*
X126173Y162054D01*
X125501Y161605D01*
X124984Y161726D01*
X124231Y162077D01*
Y164862D01*
X124505Y165045D01*
X125246Y166153D01*
X125506Y167460D01*
X125246Y168767D01*
X124505Y169875D01*
X123397Y170616D01*
X122090Y170876D01*
X120783Y170616D01*
X119675Y169875D01*
X119632Y169811D01*
X118105D01*
X118055Y169885D01*
X116947Y170626D01*
X115640Y170886D01*
D02*
G37*
G36*
X176730Y44730D02*
X172460D01*
Y41460D01*
X176730D01*
Y44730D01*
D02*
G37*
G36*
X56130Y49940D02*
X39860D01*
Y38670D01*
X56130D01*
Y49940D01*
D02*
G37*
G36*
X115010Y50966D02*
X113703Y50706D01*
X112595Y49965D01*
X111854Y48857D01*
X111594Y47550D01*
X111854Y46243D01*
X112595Y45135D01*
X113703Y44394D01*
X115010Y44134D01*
X116012Y43039D01*
X115984Y42900D01*
X116244Y41593D01*
X116985Y40485D01*
X118093Y39744D01*
X119400Y39484D01*
X120707Y39744D01*
X121815Y40485D01*
X122556Y41593D01*
X122816Y42900D01*
X122556Y44207D01*
X121815Y45315D01*
X120707Y46056D01*
X119400Y46316D01*
X118398Y47411D01*
X118426Y47550D01*
X118166Y48857D01*
X117425Y49965D01*
X116317Y50706D01*
X115010Y50966D01*
D02*
G37*
G36*
X144340Y151454D02*
X142360D01*
Y148860D01*
X147952D01*
X147910Y149069D01*
X147072Y150322D01*
X145819Y151160D01*
X144340Y151454D01*
D02*
G37*
G36*
X6100Y143616D02*
X4793Y143356D01*
X3685Y142615D01*
X2944Y141507D01*
X2684Y140200D01*
X2944Y138893D01*
X3685Y137785D01*
X4793Y137044D01*
X6100Y136784D01*
X7407Y137044D01*
X8515Y137785D01*
X9256Y138893D01*
X9516Y140200D01*
X9256Y141507D01*
X8515Y142615D01*
X7407Y143356D01*
X6100Y143616D01*
D02*
G37*
G36*
X150240Y81110D02*
X146970D01*
Y76840D01*
X150240D01*
Y81110D01*
D02*
G37*
G36*
X-15900Y157816D02*
X-17207Y157556D01*
X-18315Y156815D01*
X-19056Y155707D01*
X-19316Y154400D01*
X-19056Y153093D01*
X-18315Y151985D01*
X-17207Y151244D01*
X-15900Y150984D01*
X-15435Y151077D01*
X-14960Y150553D01*
X-14587Y149951D01*
X-14816Y148800D01*
X-14556Y147493D01*
X-13815Y146385D01*
X-12707Y145644D01*
X-11400Y145384D01*
X-10093Y145644D01*
X-8985Y146385D01*
X-8244Y147493D01*
X-7984Y148800D01*
X-8244Y150107D01*
X-8985Y151215D01*
X-10093Y151956D01*
X-11400Y152216D01*
X-11865Y152123D01*
X-12340Y152647D01*
X-12713Y153249D01*
X-12484Y154400D01*
X-12744Y155707D01*
X-13485Y156815D01*
X-14593Y157556D01*
X-15900Y157816D01*
D02*
G37*
G36*
X150930Y64630D02*
X147660D01*
Y60360D01*
X150930D01*
Y64630D01*
D02*
G37*
G36*
Y71440D02*
X147660D01*
Y67170D01*
X150930D01*
Y71440D01*
D02*
G37*
G36*
X111190Y209800D02*
X104920D01*
Y199530D01*
X111190D01*
Y209800D01*
D02*
G37*
G36*
X198800Y276115D02*
X197493Y275855D01*
X196384Y275115D01*
X195644Y274007D01*
X195384Y272700D01*
X195644Y271392D01*
X196384Y270284D01*
X197493Y269544D01*
X198800Y269284D01*
X200107Y269544D01*
X201215Y270284D01*
X201955Y271392D01*
X202215Y272700D01*
X201955Y274007D01*
X201215Y275115D01*
X200107Y275855D01*
X198800Y276115D01*
D02*
G37*
G36*
X88420Y271696D02*
X87113Y271436D01*
X86005Y270695D01*
X85264Y269587D01*
X85004Y268280D01*
X85264Y266973D01*
X86005Y265865D01*
X87113Y265124D01*
X88420Y264864D01*
X89727Y265124D01*
X90835Y265865D01*
X91576Y266973D01*
X91836Y268280D01*
X91576Y269587D01*
X90835Y270695D01*
X89727Y271436D01*
X88420Y271696D01*
D02*
G37*
G36*
X18000Y281800D02*
X11730D01*
Y271530D01*
X18000D01*
Y281800D01*
D02*
G37*
G36*
X9190D02*
X2920D01*
Y271530D01*
X9190D01*
Y281800D01*
D02*
G37*
G36*
X173760Y281916D02*
X172453Y281656D01*
X171345Y280915D01*
X170604Y279807D01*
X170344Y278500D01*
X170604Y277193D01*
X170778Y276933D01*
X170794Y275416D01*
X169888Y274060D01*
X169570Y272460D01*
Y268960D01*
X169888Y267360D01*
X170794Y266004D01*
X172150Y265098D01*
X173750Y264780D01*
X175350Y265098D01*
X176706Y266004D01*
X177612Y267360D01*
X177930Y268960D01*
Y272460D01*
X177612Y274060D01*
X176706Y275416D01*
X176736Y276924D01*
X176916Y277193D01*
X177176Y278500D01*
X176916Y279807D01*
X176175Y280915D01*
X175067Y281656D01*
X173760Y281916D01*
D02*
G37*
G36*
X135650Y276640D02*
X134050Y276322D01*
X132694Y275416D01*
X131788Y274060D01*
X131470Y272460D01*
Y268960D01*
X131788Y267360D01*
X132694Y266004D01*
X134050Y265098D01*
X135650Y264780D01*
X137250Y265098D01*
X138606Y266004D01*
X139512Y267360D01*
X139830Y268960D01*
Y272460D01*
X139512Y274060D01*
X138606Y275416D01*
X137250Y276322D01*
X135650Y276640D01*
D02*
G37*
G36*
X213400Y275716D02*
X212093Y275456D01*
X210985Y274715D01*
X210244Y273607D01*
X209984Y272300D01*
X210244Y270993D01*
X210985Y269885D01*
X211740Y269380D01*
X211354Y268110D01*
X200740D01*
Y261411D01*
X194461D01*
X194460Y261411D01*
X193446Y261210D01*
X192586Y260635D01*
X192586Y260635D01*
X189925Y257974D01*
X189351Y257115D01*
X189305Y256886D01*
X188958Y256742D01*
X188609Y255900D01*
Y251900D01*
X188958Y251058D01*
X188609Y249881D01*
X188609Y249881D01*
Y248758D01*
X179326Y239475D01*
X178751Y238615D01*
X178549Y237600D01*
X178549Y237600D01*
Y219861D01*
X177279Y219265D01*
X175912Y220179D01*
X175020Y220356D01*
Y213210D01*
Y206064D01*
X175912Y206241D01*
X177279Y207155D01*
X178549Y206559D01*
Y188498D01*
X160975Y170924D01*
X160401Y170065D01*
X160199Y169050D01*
X160199Y169050D01*
Y132148D01*
X147202Y119151D01*
X128000D01*
X128000Y119151D01*
X126986Y118949D01*
X126125Y118375D01*
X121102Y113351D01*
X106600D01*
X105585Y113149D01*
X104726Y112575D01*
X104725Y112574D01*
X97025Y104874D01*
X96451Y104015D01*
X96249Y103000D01*
X96249Y103000D01*
Y92898D01*
X85502Y82151D01*
X55213D01*
X54637Y82536D01*
X53330Y82796D01*
X52023Y82536D01*
X51568Y83642D01*
X51556Y83707D01*
X50815Y84815D01*
X50493Y85030D01*
X50879Y86300D01*
X72586D01*
X73500Y86300D01*
X74462Y85557D01*
X74585Y85374D01*
X75693Y84634D01*
X77000Y84374D01*
X78307Y84634D01*
X79415Y85374D01*
X80156Y86482D01*
X80416Y87789D01*
X80156Y89096D01*
X79415Y90204D01*
X78307Y90945D01*
X77000Y91205D01*
X75693Y90945D01*
X74770Y90328D01*
X74038Y90538D01*
X73500Y90867D01*
Y103109D01*
X85695Y115304D01*
X86491Y116495D01*
X86770Y117900D01*
X86491Y119305D01*
X85695Y120495D01*
X84505Y121291D01*
X83100Y121571D01*
X81695Y121291D01*
X80505Y120495D01*
X76570Y116561D01*
X75300Y117087D01*
Y121872D01*
X77077Y123648D01*
X77400Y123584D01*
X78707Y123844D01*
X79815Y124585D01*
X80555Y125693D01*
X80602Y125928D01*
X80771Y126180D01*
X80934Y127000D01*
X80771Y127819D01*
X80602Y128071D01*
X80555Y128307D01*
X79815Y129415D01*
X78707Y130155D01*
X77400Y130415D01*
X76093Y130155D01*
X74985Y129415D01*
X74244Y128307D01*
X73984Y127000D01*
X74049Y126677D01*
X71452Y124080D01*
X70240Y123940D01*
X70240Y123940D01*
X70240Y123940D01*
X66970D01*
Y118900D01*
Y113860D01*
X70240D01*
Y115300D01*
X73513D01*
X74039Y114030D01*
X68509Y108500D01*
X52771D01*
Y118300D01*
X52491Y119705D01*
X51695Y120895D01*
X50505Y121691D01*
X49100Y121971D01*
X47695Y121691D01*
X46505Y120895D01*
X45709Y119705D01*
X45430Y118300D01*
Y108500D01*
X41300D01*
Y107129D01*
X40030Y106744D01*
X39715Y107215D01*
X38607Y107956D01*
X37300Y108216D01*
X35993Y107956D01*
X35244Y107455D01*
X34100Y107150D01*
X34100Y107150D01*
Y107150D01*
X34100Y107150D01*
X26278D01*
X24714Y108714D01*
X24019Y109178D01*
X23300Y109321D01*
Y110300D01*
X17587D01*
X17101Y111473D01*
X25327Y119699D01*
X26500Y119213D01*
Y113400D01*
X38700D01*
Y127944D01*
X39970Y128070D01*
X40039Y127725D01*
X40144Y127193D01*
X40885Y126085D01*
X41993Y125344D01*
X43300Y125084D01*
X44607Y125344D01*
X45715Y126085D01*
X46456Y127193D01*
X46716Y128500D01*
X46456Y129807D01*
X45715Y130915D01*
X44607Y131656D01*
X43300Y131916D01*
X41993Y131656D01*
X40885Y130915D01*
X40144Y129807D01*
X40039Y129275D01*
X39970Y128930D01*
X38700Y129056D01*
Y132584D01*
X40007Y132844D01*
X41115Y133585D01*
X41856Y134693D01*
X42116Y136000D01*
X41856Y137307D01*
X41115Y138415D01*
X40007Y139156D01*
X38700Y139416D01*
X37393Y139156D01*
X36285Y138415D01*
X35544Y137307D01*
X35284Y136000D01*
X35509Y134870D01*
X35185Y134021D01*
X34960Y133600D01*
X26500D01*
Y125641D01*
X26100D01*
X25281Y125478D01*
X24586Y125014D01*
X14873Y115301D01*
X13700Y115787D01*
Y133600D01*
X1500D01*
Y113400D01*
X5209D01*
Y104329D01*
X5130Y104257D01*
X3939Y103767D01*
X3207Y104256D01*
X1900Y104516D01*
X593Y104256D01*
X-515Y103515D01*
X-1256Y102407D01*
X-1516Y101100D01*
X-1256Y99793D01*
X-515Y98685D01*
X593Y97944D01*
X1900Y97684D01*
X3207Y97944D01*
X3939Y98433D01*
X5130Y97943D01*
X5209Y97871D01*
Y94300D01*
X4700D01*
Y88190D01*
X4010D01*
Y80670D01*
X17300D01*
X30590D01*
Y85660D01*
X31340D01*
Y90633D01*
X32513Y91119D01*
X40054Y83578D01*
X39952Y82207D01*
X38694Y82397D01*
X38615Y82515D01*
X37507Y83256D01*
X36200Y83516D01*
X34893Y83256D01*
X33785Y82515D01*
X33044Y81407D01*
X32784Y80100D01*
X33044Y78793D01*
X33785Y77685D01*
X34893Y76944D01*
X36200Y76684D01*
X37507Y76944D01*
X38615Y77685D01*
X38832Y78008D01*
X39103Y78073D01*
X40301Y77922D01*
X40790Y77190D01*
X41898Y76449D01*
X43205Y76189D01*
X44512Y76449D01*
X45620Y77190D01*
X46318Y78234D01*
X47093Y79244D01*
X48400Y78984D01*
X49707Y79244D01*
X50161Y78138D01*
X50174Y78073D01*
X50915Y76965D01*
X52023Y76224D01*
X53330Y75964D01*
X54637Y76224D01*
X55572Y76849D01*
X86600D01*
X86600Y76849D01*
X87614Y77051D01*
X88475Y77625D01*
X100774Y89925D01*
X101349Y90786D01*
X101551Y91800D01*
Y101902D01*
X107698Y108049D01*
X122200D01*
X122200Y108049D01*
X123215Y108251D01*
X124074Y108826D01*
X129098Y113849D01*
X148300D01*
X148300Y113849D01*
X149314Y114051D01*
X150175Y114626D01*
X164725Y129176D01*
X165299Y130035D01*
X165501Y131050D01*
X165501Y131050D01*
Y167952D01*
X183074Y185525D01*
X183649Y186385D01*
X183851Y187400D01*
X183851Y187400D01*
Y236502D01*
X193664Y246315D01*
X193699Y246322D01*
X194394Y246786D01*
X194532Y246993D01*
X194642Y247039D01*
X194771Y247352D01*
X194858Y247481D01*
X194888Y247633D01*
X194991Y247881D01*
Y248149D01*
X195021Y248300D01*
X194991Y248451D01*
Y249881D01*
X194642Y250723D01*
X194586Y250778D01*
X194642Y251058D01*
X194991Y251900D01*
X194991Y251900D01*
Y255542D01*
X195558Y256110D01*
X200740D01*
Y249410D01*
X213940D01*
Y267697D01*
X213940Y268110D01*
X214574Y269118D01*
X214707Y269144D01*
X215815Y269885D01*
X216556Y270993D01*
X216816Y272300D01*
X216556Y273607D01*
X215815Y274715D01*
X214707Y275456D01*
X213400Y275716D01*
D02*
G37*
G36*
X161050Y280496D02*
X159743Y280236D01*
X158635Y279495D01*
X157894Y278387D01*
X157634Y277080D01*
X157894Y275773D01*
X158121Y275434D01*
X158094Y275416D01*
X157188Y274060D01*
X156870Y272460D01*
Y268960D01*
X157188Y267360D01*
X158094Y266004D01*
X159450Y265098D01*
X161050Y264780D01*
X162650Y265098D01*
X164006Y266004D01*
X164912Y267360D01*
X165230Y268960D01*
Y272460D01*
X164912Y274060D01*
X164006Y275416D01*
X163979Y275434D01*
X164206Y275773D01*
X164466Y277080D01*
X164206Y278387D01*
X163465Y279495D01*
X162357Y280236D01*
X161050Y280496D01*
D02*
G37*
G36*
X150470Y278716D02*
X149163Y278456D01*
X148055Y277715D01*
X147314Y276607D01*
X147279Y276427D01*
X146750Y276322D01*
X145394Y275416D01*
X144488Y274060D01*
X144170Y272460D01*
Y268960D01*
X144488Y267360D01*
X145394Y266004D01*
X146750Y265098D01*
X148350Y264780D01*
X149950Y265098D01*
X151306Y266004D01*
X152212Y267360D01*
X152530Y268960D01*
Y272460D01*
X152497Y272626D01*
X152885Y272885D01*
X153626Y273993D01*
X153886Y275300D01*
X153626Y276607D01*
X152885Y277715D01*
X151777Y278456D01*
X150470Y278716D01*
D02*
G37*
G36*
X111190Y281800D02*
X104920D01*
Y271530D01*
X111190D01*
Y281800D01*
D02*
G37*
G36*
X120000Y294610D02*
X113730D01*
Y284340D01*
X120000D01*
Y294610D01*
D02*
G37*
G36*
X18000D02*
X11730D01*
Y284340D01*
X18000D01*
Y294610D01*
D02*
G37*
G36*
X155320Y291126D02*
X154013Y290866D01*
X152905Y290125D01*
X152164Y289017D01*
X151904Y287710D01*
X151969Y287387D01*
X150703Y286121D01*
X145080D01*
Y288080D01*
X138880Y288080D01*
X138520Y289201D01*
Y289520D01*
X135250D01*
Y283980D01*
Y278440D01*
X138520D01*
Y278759D01*
X138880Y279880D01*
X139790Y279880D01*
X145080D01*
Y281839D01*
X151590D01*
X152409Y282002D01*
X153104Y282466D01*
X154997Y284359D01*
X155320Y284294D01*
X156627Y284554D01*
X157735Y285295D01*
X158476Y286403D01*
X158736Y287710D01*
X158476Y289017D01*
X157735Y290125D01*
X156627Y290866D01*
X155320Y291126D01*
D02*
G37*
G36*
X132710Y289520D02*
X129440D01*
Y285250D01*
X132710D01*
Y289520D01*
D02*
G37*
G36*
X111190Y294610D02*
X104920D01*
Y284340D01*
X111190D01*
Y294610D01*
D02*
G37*
G36*
X189970Y286256D02*
X188663Y285996D01*
X187555Y285255D01*
X186814Y284147D01*
X186554Y282840D01*
X186814Y281533D01*
X186957Y281320D01*
X186278Y280050D01*
X185870D01*
Y273850D01*
X194070D01*
Y280050D01*
X193662D01*
X192983Y281320D01*
X193126Y281533D01*
X193386Y282840D01*
X193126Y284147D01*
X192385Y285255D01*
X191277Y285996D01*
X189970Y286256D01*
D02*
G37*
G36*
X120000Y281800D02*
X113730D01*
Y271530D01*
X120000D01*
Y281800D01*
D02*
G37*
G36*
X9190Y294610D02*
X2920D01*
Y284340D01*
X9190D01*
Y294610D01*
D02*
G37*
G36*
X132710Y282710D02*
X129440D01*
Y278440D01*
X132710D01*
Y282710D01*
D02*
G37*
G36*
X194070Y272050D02*
X185870D01*
Y265850D01*
X185956D01*
X186762Y264868D01*
X186744Y264780D01*
X187004Y263473D01*
X187745Y262365D01*
X188853Y261624D01*
X190160Y261364D01*
X191467Y261624D01*
X192575Y262365D01*
X193316Y263473D01*
X193576Y264780D01*
X193501Y265156D01*
X194070Y265850D01*
X194070D01*
Y272050D01*
D02*
G37*
G36*
X18000Y222610D02*
X11730D01*
Y212340D01*
X18000D01*
Y222610D01*
D02*
G37*
G36*
X111190D02*
X104920D01*
Y212340D01*
X111190D01*
Y222610D01*
D02*
G37*
G36*
X120000D02*
X113730D01*
Y212340D01*
X120000D01*
Y222610D01*
D02*
G37*
G36*
X176800Y260060D02*
X132600D01*
Y223860D01*
X176800D01*
Y260060D01*
D02*
G37*
G36*
X172480Y220356D02*
X171588Y220179D01*
X169756Y218954D01*
X168531Y217122D01*
X168102Y214960D01*
Y214480D01*
X172480D01*
Y220356D01*
D02*
G37*
G36*
X9190Y222610D02*
X2920D01*
Y212340D01*
X9190D01*
Y222610D01*
D02*
G37*
G36*
X172480Y211940D02*
X168102D01*
Y211460D01*
X168531Y209298D01*
X169756Y207466D01*
X171588Y206241D01*
X172480Y206064D01*
Y211940D01*
D02*
G37*
G36*
X120000Y209800D02*
X113730D01*
Y199530D01*
X120000D01*
Y209800D01*
D02*
G37*
G36*
X161050Y219140D02*
X159450Y218822D01*
X158094Y217916D01*
X157188Y216560D01*
X156870Y214960D01*
Y211460D01*
X157188Y209860D01*
X158094Y208504D01*
X159450Y207598D01*
X161050Y207280D01*
X162650Y207598D01*
X164006Y208504D01*
X164912Y209860D01*
X165230Y211460D01*
Y214960D01*
X164912Y216560D01*
X164006Y217916D01*
X162650Y218822D01*
X161050Y219140D01*
D02*
G37*
G36*
X148350D02*
X146750Y218822D01*
X145394Y217916D01*
X144488Y216560D01*
X144170Y214960D01*
Y214740D01*
X144146Y214724D01*
X141100Y211678D01*
X139830Y212204D01*
Y214960D01*
X139512Y216560D01*
X138606Y217916D01*
X137250Y218822D01*
X135650Y219140D01*
X134050Y218822D01*
X132694Y217916D01*
X131788Y216560D01*
X131470Y214960D01*
Y211460D01*
X131788Y209860D01*
X132694Y208504D01*
X134050Y207598D01*
X135457Y207318D01*
X135814Y207070D01*
X136497Y206192D01*
X136499Y206154D01*
Y198522D01*
X135798Y198232D01*
X135449Y197390D01*
Y193390D01*
X135798Y192548D01*
X135449Y191371D01*
X135449Y191371D01*
Y189371D01*
X135798Y188529D01*
X135826Y188438D01*
X135484Y187927D01*
X135224Y186620D01*
X135484Y185313D01*
X136225Y184205D01*
X137333Y183464D01*
X138640Y183204D01*
X139947Y183464D01*
X141055Y184205D01*
X141796Y185313D01*
X142056Y186620D01*
X141796Y187927D01*
X141454Y188438D01*
X141482Y188529D01*
X141831Y189371D01*
Y191371D01*
X141482Y192213D01*
X141426Y192268D01*
X141482Y192548D01*
X141831Y193390D01*
X141831Y193390D01*
Y197390D01*
X141482Y198232D01*
X140781Y198522D01*
Y205303D01*
X143941Y208463D01*
X145289Y208398D01*
X145793Y207845D01*
X145497Y206595D01*
X145453Y206516D01*
X144375Y205795D01*
X143634Y204687D01*
X143374Y203380D01*
X143634Y202073D01*
X144375Y200965D01*
X144649Y200782D01*
Y198319D01*
X144438Y198232D01*
X144089Y197390D01*
Y193390D01*
X144438Y192548D01*
X144089Y191371D01*
X144089Y191371D01*
Y189371D01*
X144438Y188529D01*
X144461Y188452D01*
X144124Y187947D01*
X143864Y186640D01*
X144124Y185333D01*
X144865Y184225D01*
X145973Y183484D01*
X147280Y183224D01*
X148587Y183484D01*
X149695Y184225D01*
X150436Y185333D01*
X150696Y186640D01*
X150436Y187947D01*
X150098Y188452D01*
X150122Y188529D01*
X150471Y189371D01*
Y191371D01*
X150122Y192213D01*
X150066Y192268D01*
X150122Y192548D01*
X150471Y193390D01*
X150471Y193390D01*
Y197390D01*
X150122Y198232D01*
X149280Y198581D01*
X148931D01*
Y200782D01*
X149205Y200965D01*
X149946Y202073D01*
X150206Y203380D01*
X149946Y204687D01*
X149205Y205795D01*
X148790Y206072D01*
X149059Y207421D01*
X149950Y207598D01*
X151306Y208504D01*
X152212Y209860D01*
X152530Y211460D01*
Y214960D01*
X152212Y216560D01*
X151306Y217916D01*
X149950Y218822D01*
X148350Y219140D01*
D02*
G37*
G36*
X109190Y229300D02*
X102920D01*
Y224030D01*
X109190D01*
Y229300D01*
D02*
G37*
G36*
X18560Y247670D02*
X6360D01*
Y237470D01*
X18560D01*
Y247670D01*
D02*
G37*
G36*
X-21600Y241856D02*
X-22907Y241596D01*
X-24015Y240855D01*
X-24756Y239747D01*
X-25016Y238440D01*
X-24756Y237133D01*
X-24015Y236025D01*
X-22907Y235284D01*
X-21600Y235024D01*
X-20293Y235284D01*
X-19185Y236025D01*
X-18444Y237133D01*
X-18184Y238440D01*
X-18444Y239747D01*
X-19185Y240855D01*
X-20293Y241596D01*
X-21600Y241856D01*
D02*
G37*
G36*
X53850Y258116D02*
X52543Y257856D01*
X51435Y257115D01*
X50694Y256007D01*
X50434Y254700D01*
X50694Y253393D01*
X51435Y252285D01*
X52543Y251544D01*
X53850Y251284D01*
X55157Y251544D01*
X56265Y252285D01*
X57006Y253393D01*
X57266Y254700D01*
X57006Y256007D01*
X56265Y257115D01*
X55157Y257856D01*
X53850Y258116D01*
D02*
G37*
G36*
X53810Y247116D02*
X52503Y246856D01*
X51395Y246115D01*
X50654Y245007D01*
X50394Y243700D01*
X50654Y242393D01*
X51395Y241285D01*
X52503Y240544D01*
X53810Y240284D01*
X55117Y240544D01*
X56225Y241285D01*
X56966Y242393D01*
X57226Y243700D01*
X56966Y245007D01*
X56225Y246115D01*
X55117Y246856D01*
X53810Y247116D01*
D02*
G37*
G36*
X-12000Y246756D02*
X-13307Y246496D01*
X-14415Y245755D01*
X-15156Y244647D01*
X-15416Y243340D01*
X-15156Y242033D01*
X-14415Y240925D01*
X-14816Y239665D01*
X-15256Y239007D01*
X-15516Y237700D01*
X-15256Y236393D01*
X-14515Y235285D01*
X-13407Y234544D01*
X-12100Y234284D01*
X-10793Y234544D01*
X-9685Y235285D01*
X-8944Y236393D01*
X-8684Y237700D01*
X-8944Y239007D01*
X-9685Y240115D01*
X-9284Y241375D01*
X-8844Y242033D01*
X-8584Y243340D01*
X-8844Y244647D01*
X-9585Y245755D01*
X-10693Y246496D01*
X-12000Y246756D01*
D02*
G37*
G36*
X116560Y259670D02*
X104360D01*
Y256711D01*
X92370D01*
X91551Y256548D01*
X90856Y256084D01*
X62278Y227506D01*
X61391Y227481D01*
X60770Y227630D01*
X60714Y227714D01*
X32344Y256084D01*
X31649Y256548D01*
X30830Y256711D01*
X18560D01*
Y259670D01*
X6360D01*
Y249470D01*
X18560D01*
Y252429D01*
X29943D01*
X57059Y225313D01*
Y219965D01*
X55789Y219439D01*
X43144Y232084D01*
X42449Y232548D01*
X41630Y232711D01*
X18560D01*
Y235670D01*
X6360D01*
Y225470D01*
X18560D01*
Y228429D01*
X40743D01*
X53159Y216013D01*
Y162087D01*
X47663Y156591D01*
X46500D01*
X45658Y156242D01*
X45309Y155400D01*
Y151400D01*
X45658Y150558D01*
X45309Y149381D01*
X45309Y149381D01*
Y147381D01*
X45658Y146539D01*
X46120Y146347D01*
X46174Y145075D01*
X46085Y145015D01*
X45344Y143907D01*
X45084Y142600D01*
X45344Y141293D01*
X46085Y140185D01*
X47193Y139444D01*
X48500Y139184D01*
X49807Y139444D01*
X50915Y140185D01*
X51656Y141293D01*
X51916Y142600D01*
X51656Y143907D01*
X50915Y145015D01*
X50826Y145075D01*
X50880Y146347D01*
X51342Y146539D01*
X51691Y147381D01*
Y149381D01*
X51342Y150223D01*
X51286Y150278D01*
X51342Y150558D01*
X51691Y151400D01*
X51691Y151400D01*
Y154563D01*
X52769Y155641D01*
X52795Y155636D01*
X53943Y155019D01*
Y151400D01*
X54291Y150558D01*
X53943Y149381D01*
X53943Y149381D01*
Y147381D01*
X54291Y146539D01*
X54699Y146370D01*
X54758Y145075D01*
X54718Y145049D01*
X53978Y143940D01*
X53718Y142633D01*
X53978Y141326D01*
X54718Y140218D01*
X55826Y139478D01*
X56100Y139423D01*
Y134300D01*
X61330D01*
X62300Y134300D01*
X63570Y134300D01*
X67830D01*
X68800Y134300D01*
Y134300D01*
X69100D01*
Y134300D01*
X75300D01*
Y139263D01*
X75707Y139344D01*
X76815Y140085D01*
X77556Y141193D01*
X77816Y142500D01*
X77556Y143807D01*
X76815Y144915D01*
X76576Y145075D01*
X76617Y146280D01*
X77242Y146539D01*
X77591Y147381D01*
Y149381D01*
X77242Y150223D01*
X77186Y150278D01*
X77242Y150558D01*
X77591Y151400D01*
X77591Y151400D01*
Y155400D01*
X77242Y156242D01*
X76400Y156591D01*
X75237D01*
X69741Y162087D01*
Y215713D01*
X94457Y240429D01*
X103462D01*
X104360Y239531D01*
X104360Y237470D01*
X103239Y237110D01*
X102920D01*
Y231840D01*
X110460D01*
X118000D01*
Y237110D01*
X117681D01*
X116560Y237470D01*
X116560Y238380D01*
Y247670D01*
X104360D01*
Y244711D01*
X93570D01*
X92751Y244548D01*
X92056Y244084D01*
X67011Y219039D01*
X65741Y219565D01*
Y224913D01*
X93257Y252429D01*
X104360D01*
Y249470D01*
X116560D01*
Y259670D01*
D02*
G37*
G36*
X118000Y229300D02*
X111730D01*
Y224030D01*
X118000D01*
Y229300D01*
D02*
G37*
%LPD*%
G36*
X167210Y191371D02*
Y189371D01*
X163210D01*
Y191371D01*
X165210Y193371D01*
X167210Y191371D01*
D02*
G37*
G36*
Y193390D02*
X165210Y195390D01*
X163210Y193390D01*
Y197390D01*
X167210D01*
Y193390D01*
D02*
G37*
G36*
X158400Y191371D02*
Y189371D01*
X154400D01*
Y191371D01*
X156400Y193371D01*
X158400Y191371D01*
D02*
G37*
G36*
Y193390D02*
X156400Y195390D01*
X154400Y193390D01*
Y197390D01*
X158400D01*
Y193390D01*
D02*
G37*
G36*
X-16200Y56781D02*
X-20200D01*
Y60781D01*
X-18200Y58781D01*
X-16200Y60781D01*
Y56781D01*
D02*
G37*
G36*
X-16100Y71661D02*
Y69661D01*
X-20100D01*
Y71661D01*
X-18100Y73661D01*
X-16100Y71661D01*
D02*
G37*
G36*
X-16200Y62800D02*
X-18200Y60800D01*
X-20200Y62800D01*
Y64800D01*
X-16200D01*
Y62800D01*
D02*
G37*
G36*
X-16100Y73681D02*
X-18100Y75681D01*
X-20100Y73681D01*
Y77681D01*
X-16100D01*
Y73681D01*
D02*
G37*
G36*
X97300Y140200D02*
X95300Y138200D01*
X93300Y140200D01*
Y142200D01*
X97300D01*
Y140200D01*
D02*
G37*
G36*
X89900D02*
X87900Y138200D01*
X85900Y140200D01*
Y142200D01*
X89900D01*
Y140200D01*
D02*
G37*
G36*
Y134180D02*
X85900D01*
Y138180D01*
X87900Y136180D01*
X89900Y138180D01*
Y134180D01*
D02*
G37*
G36*
X97300D02*
X93300D01*
Y138180D01*
X95300Y136180D01*
X97300Y138180D01*
Y134180D01*
D02*
G37*
G36*
X193800Y249881D02*
Y247881D01*
X189800D01*
Y249881D01*
X191800Y251881D01*
X193800Y249881D01*
D02*
G37*
G36*
Y251900D02*
X191800Y253900D01*
X189800Y251900D01*
Y255900D01*
X193800D01*
Y251900D01*
D02*
G37*
G36*
X149280Y191371D02*
Y189371D01*
X145280D01*
Y191371D01*
X147280Y193371D01*
X149280Y191371D01*
D02*
G37*
G36*
X140640D02*
Y189371D01*
X136640D01*
Y191371D01*
X138640Y193371D01*
X140640Y191371D01*
D02*
G37*
G36*
Y193390D02*
X138640Y195390D01*
X136640Y193390D01*
Y197390D01*
X140640D01*
Y193390D01*
D02*
G37*
G36*
X149280D02*
X147280Y195390D01*
X145280Y193390D01*
Y197390D01*
X149280D01*
Y193390D01*
D02*
G37*
G36*
X76400Y151400D02*
X74400Y153400D01*
X72400Y151400D01*
Y155400D01*
X76400D01*
Y151400D01*
D02*
G37*
G36*
X50500Y149381D02*
Y147381D01*
X46500D01*
Y149381D01*
X48500Y151381D01*
X50500Y149381D01*
D02*
G37*
G36*
X59133D02*
Y147381D01*
X55133D01*
Y149381D01*
X57133Y151381D01*
X59133Y149381D01*
D02*
G37*
G36*
Y151400D02*
X57133Y153400D01*
X55133Y151400D01*
Y155400D01*
X59133D01*
Y151400D01*
D02*
G37*
G36*
X67767D02*
X65767Y153400D01*
X63767Y151400D01*
Y155400D01*
X67767D01*
Y151400D01*
D02*
G37*
G36*
X50500D02*
X48500Y153400D01*
X46500Y151400D01*
Y155400D01*
X50500D01*
Y151400D01*
D02*
G37*
G36*
X67767Y149381D02*
Y147381D01*
X63767D01*
Y149381D01*
X65767Y151381D01*
X67767Y149381D01*
D02*
G37*
G36*
X76400D02*
Y147381D01*
X72400D01*
Y149381D01*
X74400Y151381D01*
X76400Y149381D01*
D02*
G37*
%LPC*%
G36*
X209130Y212890D02*
X207455D01*
X205610Y211045D01*
Y210470D01*
X209130D01*
Y212890D01*
D02*
G37*
%LPD*%
D14*
X-6300Y67900D02*
D03*
Y75900D02*
D03*
X177710Y66800D02*
D03*
Y74800D02*
D03*
X147600Y106200D02*
D03*
Y98200D02*
D03*
X178000Y46000D02*
D03*
Y54000D02*
D03*
X113000Y68400D02*
D03*
Y76400D02*
D03*
X113150Y100550D02*
D03*
Y92550D02*
D03*
X230200Y198000D02*
D03*
Y206000D02*
D03*
X132700Y97600D02*
D03*
Y106600D02*
D03*
X133430Y72050D02*
D03*
Y81050D02*
D03*
X189970Y276950D02*
D03*
Y268950D02*
D03*
X19200Y107200D02*
D03*
Y99200D02*
D03*
X178400Y34000D02*
D03*
Y26000D02*
D03*
D17*
X152200Y65900D02*
D03*
X160200D02*
D03*
X15400Y58200D02*
D03*
X7400D02*
D03*
X87800Y22100D02*
D03*
X95800D02*
D03*
X133980Y283980D02*
D03*
X141980D02*
D03*
X151510Y82380D02*
D03*
X159510D02*
D03*
D18*
X230230Y215592D02*
D03*
X224710D02*
D03*
X213290Y222640D02*
D03*
X218810D02*
D03*
X63320Y19000D02*
D03*
X57800D02*
D03*
D28*
X191800Y254900D02*
D03*
Y249380D02*
D03*
X165210Y196390D02*
D03*
Y190870D02*
D03*
X156400Y196390D02*
D03*
Y190870D02*
D03*
X147280Y196390D02*
D03*
Y190870D02*
D03*
X65767Y154400D02*
D03*
Y148880D02*
D03*
X74400Y154400D02*
D03*
Y148880D02*
D03*
X57133Y154400D02*
D03*
Y148880D02*
D03*
X138640Y196390D02*
D03*
Y190870D02*
D03*
X48500Y154400D02*
D03*
Y148880D02*
D03*
X87900Y135180D02*
D03*
Y140700D02*
D03*
X95300Y135180D02*
D03*
Y140700D02*
D03*
X-18200Y57781D02*
D03*
Y63300D02*
D03*
X-18100Y76681D02*
D03*
Y71161D02*
D03*
D35*
X19200Y96600D02*
X20750Y95050D01*
X31250D02*
X43205Y83095D01*
X20750Y95050D02*
X31250D01*
X20800Y95000D02*
X22300Y93500D01*
X43205Y79605D02*
Y83095D01*
X19200Y96600D02*
Y99200D01*
X22300Y90700D02*
Y93500D01*
D37*
X240638Y207362D02*
X242000Y206000D01*
X240460Y237620D02*
X240638Y237442D01*
Y207362D02*
Y237442D01*
X51200Y104400D02*
X53900D01*
X49100Y106500D02*
X51200Y104400D01*
X49100Y106500D02*
Y118300D01*
X53900Y98200D02*
Y104400D01*
X226160Y258760D02*
X240340D01*
X222900Y255500D02*
X226160Y258760D01*
X222900Y240700D02*
Y255500D01*
X219820Y237620D02*
X222900Y240700D01*
X207460Y237620D02*
X219820D01*
X62600Y97400D02*
X83100Y117900D01*
X56800Y97400D02*
X62600D01*
D39*
X12300Y90700D02*
Y109700D01*
X7350Y90700D02*
Y123250D01*
X180448Y59800D02*
X183098Y62450D01*
X173200Y59800D02*
X180448D01*
X167800Y54400D02*
X173200Y59800D01*
X162600Y54400D02*
X167800D01*
X160200Y56800D02*
X162600Y54400D01*
X160200Y56800D02*
Y65900D01*
X188170Y61371D02*
Y67020D01*
X180799Y54000D02*
X188170Y61371D01*
X178000Y54000D02*
X180799D01*
X186220Y72700D02*
X186700D01*
X171770Y66550D02*
X172170Y66950D01*
X176902Y66550D02*
X177710D01*
X176502Y66950D02*
X176902Y66550D01*
X27000Y90400D02*
X27300Y90700D01*
X27000Y83000D02*
Y90400D01*
X19600Y83000D02*
X27000D01*
X17300Y80700D02*
X19600Y83000D01*
X7350Y123250D02*
X7600Y123500D01*
X25600Y104800D02*
X28000D01*
X23200Y107200D02*
X25600Y104800D01*
X19200Y107200D02*
X23200D01*
X84800Y22700D02*
X87200D01*
X-18200Y57781D02*
X6981D01*
X164460Y197140D02*
X165646Y198326D01*
X76400Y35800D02*
X82600D01*
X218870Y218770D02*
Y222640D01*
X185680Y77160D02*
Y97680D01*
X159440Y82450D02*
Y91460D01*
X157900Y93000D02*
X159440Y91460D01*
X157900Y93000D02*
Y96151D01*
X159440Y97691D01*
Y82450D02*
X159510Y82380D01*
X112900Y88800D02*
X118560Y83140D01*
X125840D01*
X142500Y98200D02*
X147600D01*
X134395Y106305D02*
X142500Y98200D01*
X124870Y76400D02*
X125950Y77480D01*
X113000Y76400D02*
X124870D01*
X113000Y68400D02*
X114080Y69480D01*
X181260Y77160D02*
X185680D01*
X178900Y74800D02*
X181260Y77160D01*
X177710Y74800D02*
X178900D01*
X230220Y206020D02*
Y215592D01*
X148350Y273180D02*
X150470Y275300D01*
X151590Y283980D02*
X155320Y287710D01*
X190160Y264780D02*
Y268760D01*
X165646Y198326D02*
Y202994D01*
X119280Y119500D02*
X124540Y124760D01*
X101100Y119500D02*
X119280D01*
X88000Y132600D02*
X101100Y119500D01*
X67600Y216600D02*
X93570Y242570D01*
X67600Y161200D02*
Y216600D01*
Y161200D02*
X74400Y154400D01*
X63600Y225800D02*
X92370Y254570D01*
X63600Y160800D02*
Y225800D01*
Y160800D02*
X65767Y158633D01*
X30830Y254570D02*
X59200Y226200D01*
Y160200D02*
Y226200D01*
X57133Y158133D02*
X59200Y160200D01*
X41630Y230570D02*
X55300Y216900D01*
Y161200D02*
Y216900D01*
X48500Y154400D02*
X55300Y161200D01*
X213290Y222640D02*
X213350D01*
X210760D02*
X213290D01*
X109000Y57500D02*
X129900D01*
X185680Y73240D02*
X186220Y72700D01*
X159440Y97691D02*
Y102500D01*
X165120Y108180D01*
X189970Y276950D02*
Y282840D01*
X22300Y64100D02*
Y68100D01*
X72200Y121800D02*
X77400Y127000D01*
X72200Y118900D02*
Y121800D01*
Y140300D02*
X74400Y142500D01*
X72200Y137900D02*
Y140300D01*
X65700Y137900D02*
Y142467D01*
X57133Y142633D02*
X59200Y140567D01*
Y137900D02*
Y140567D01*
X77400Y127000D02*
X78793D01*
X95300Y135180D02*
Y135280D01*
Y130000D02*
Y135180D01*
X147350Y92190D02*
Y96420D01*
X95300Y148100D02*
X96300Y149100D01*
X95300Y140800D02*
Y148100D01*
X100550Y150420D02*
Y163270D01*
X100410Y163410D02*
X100550Y163270D01*
Y150420D02*
X103380Y147590D01*
X87900Y140700D02*
Y145100D01*
X88000Y132600D02*
Y135080D01*
X87900Y135180D02*
X88000Y135080D01*
X100520Y124780D02*
X117090D01*
X95300Y130000D02*
X100520Y124780D01*
X230200Y198000D02*
X237300D01*
X242000Y193300D01*
X226200Y206000D02*
X230200D01*
X222900Y202700D02*
X226200Y206000D01*
X233200D02*
X233200Y206000D01*
X242000D01*
X231200D02*
X233200D01*
X218700Y202700D02*
X222900D01*
X162700Y28900D02*
Y35800D01*
X160600Y37900D02*
X162700Y35800D01*
X129900Y57500D02*
X137600Y49800D01*
X104640Y61860D02*
X109000Y57500D01*
X141980Y283980D02*
X151590D01*
X165120Y108180D02*
X171980D01*
X104710Y142590D02*
X113090D01*
X145920D02*
X148550Y139960D01*
X141090Y142590D02*
X145920D01*
X117090Y124780D02*
Y133590D01*
X122090Y127210D02*
X124540Y124760D01*
X122090Y127210D02*
Y133590D01*
X115640Y167470D02*
X117090Y166020D01*
Y156590D02*
Y166020D01*
X122090Y156590D02*
Y167460D01*
X103380Y147590D02*
X113090D01*
X145660Y213210D02*
X148350D01*
X138640Y206190D02*
X145660Y213210D01*
X138640Y196390D02*
Y206190D01*
X164460Y197140D02*
X165210Y196390D01*
X156570Y196560D02*
Y203380D01*
X156420Y196410D02*
X156570Y196560D01*
X146790Y196880D02*
Y203380D01*
Y196880D02*
X147280Y196390D01*
X156400Y186520D02*
Y190870D01*
X147280Y186640D02*
Y190870D01*
X138640Y186620D02*
Y190870D01*
X173760Y270720D02*
Y278500D01*
X173750Y270710D02*
X173760Y270720D01*
X161050Y270710D02*
Y277080D01*
X148350Y270710D02*
Y273180D01*
Y209520D02*
Y213210D01*
X177710Y66550D02*
Y66800D01*
X159510Y82380D02*
X160840Y81050D01*
X185680Y73240D02*
Y77160D01*
X218870Y218770D02*
X218900Y218740D01*
X218870Y209370D02*
Y218770D01*
X219351Y215592D02*
X224710D01*
X218810Y222640D02*
X218810Y222640D01*
X218870D01*
X74400Y142500D02*
Y148880D01*
X65767Y142533D02*
Y148880D01*
X57133Y142633D02*
Y148880D01*
X48500Y142600D02*
Y148880D01*
X65767Y154400D02*
Y158633D01*
X92370Y254570D02*
X110460D01*
X93570Y242570D02*
X110460D01*
X57133Y154400D02*
Y158133D01*
X12460Y254570D02*
X30830D01*
X12460Y230570D02*
X41630D01*
X137600Y46600D02*
Y49800D01*
Y46600D02*
X146300Y37900D01*
X160600D01*
X29870Y61860D02*
X104640D01*
X87200Y22700D02*
X87800Y22100D01*
X165210Y183164D02*
Y190870D01*
X112900Y88800D02*
Y91800D01*
X133430Y72050D02*
X136630D01*
X139000Y74420D01*
Y91800D01*
X133070Y81310D02*
Y97860D01*
X30100Y98400D02*
X37000D01*
X12300Y109700D02*
X26100Y123500D01*
X32600D01*
X32000Y104800D02*
X37300D01*
X76400Y35800D02*
X76500Y35900D01*
X7300Y52600D02*
Y58100D01*
X15400Y58200D02*
X26210D01*
X29870Y61860D01*
X27300Y68100D02*
X29870Y65530D01*
Y61860D02*
Y65530D01*
X-6100Y68100D02*
X7300D01*
X-17700Y67900D02*
X-6300D01*
X-18100Y63400D02*
Y71161D01*
Y76681D02*
Y83200D01*
X171800Y19800D02*
X176700D01*
X178400Y21500D01*
Y26000D01*
X191800Y249380D02*
X191800Y249380D01*
X191800Y249380D02*
X192880Y248300D01*
X52700Y8000D02*
Y17100D01*
X54600Y19000D01*
X57800D01*
X63320D02*
X73900D01*
X84200Y29300D01*
Y34200D01*
X82600Y35800D02*
X84200Y34200D01*
X160840Y81050D02*
X179140D01*
X12300Y68100D02*
Y74400D01*
D40*
X-6700Y48100D02*
Y50900D01*
D42*
X53450Y79500D02*
X86600D01*
X53330Y79380D02*
X53450Y79500D01*
X132300Y22340D02*
Y36000D01*
X148300Y116500D02*
X162850Y131050D01*
X128000Y116500D02*
X148300D01*
X122200Y110700D02*
X128000Y116500D01*
X106600Y110700D02*
X122200D01*
X98900Y103000D02*
X106600Y110700D01*
X98900Y91800D02*
Y103000D01*
X86600Y79500D02*
X98900Y91800D01*
X191550Y214080D02*
X197170Y219700D01*
X194460Y258760D02*
X207340D01*
X190860Y202700D02*
X210400D01*
X191800Y254900D02*
Y256100D01*
X194460Y258760D01*
X162850Y131050D02*
Y169050D01*
X181200Y187400D01*
Y237600D01*
X189390Y204170D02*
Y211920D01*
X191550Y214080D01*
X189390Y204170D02*
X190860Y202700D01*
X181200Y237600D02*
X191900Y248300D01*
X141600Y8000D02*
Y13040D01*
X132300Y22340D02*
X141600Y13040D01*
D43*
X-4288Y33088D02*
Y35500D01*
X-3900Y32700D02*
X12070D01*
X-4288Y33088D02*
X-3900Y32700D01*
X2100Y39300D02*
X6000D01*
X-6700Y48100D02*
X2100Y39300D01*
X18700Y39330D02*
X28000D01*
X12070Y32700D02*
X18700Y39330D01*
X201780Y224310D02*
X207460Y229990D01*
Y237620D01*
D49*
X235000Y285000D02*
D03*
X15000Y15000D02*
D03*
D50*
X-54900Y113800D02*
D03*
Y183800D02*
D03*
D51*
X-27900Y123800D02*
D03*
Y173800D02*
D03*
D52*
X-7000Y51000D02*
D03*
Y36000D02*
D03*
X40000Y8000D02*
D03*
X52700D02*
D03*
X65400D02*
D03*
X78100D02*
D03*
X90800Y7990D02*
D03*
X103500Y8000D02*
D03*
X217700Y292000D02*
D03*
X242000Y206000D02*
D03*
X141600Y8000D02*
D03*
X-19000Y97000D02*
D03*
X-35000D02*
D03*
D53*
X205000Y292000D02*
D03*
X242000Y191000D02*
D03*
X128900Y8000D02*
D03*
X116200D02*
D03*
X154300D02*
D03*
X167000D02*
D03*
X179700D02*
D03*
D54*
X1900Y101100D02*
D03*
X191381Y58430D02*
D03*
X183098Y62450D02*
D03*
X188170Y67020D02*
D03*
X186700Y72700D02*
D03*
X91600Y36300D02*
D03*
X43205Y79605D02*
D03*
X18500Y104600D02*
D03*
X96500Y22600D02*
D03*
X90810Y30650D02*
D03*
X84800Y22700D02*
D03*
X53330Y79380D02*
D03*
X36200Y80100D02*
D03*
X-11400Y148800D02*
D03*
X-15900Y154400D02*
D03*
X43300Y128500D02*
D03*
X38700Y136000D02*
D03*
X-12100Y237700D02*
D03*
X-7500Y98400D02*
D03*
X-7300Y120600D02*
D03*
X-21600Y238440D02*
D03*
X76003Y44703D02*
D03*
X119400Y42900D02*
D03*
X-12000Y243340D02*
D03*
X150470Y275300D02*
D03*
X155320Y287710D02*
D03*
X198800Y272700D02*
D03*
X190160Y264780D02*
D03*
X165646Y202994D02*
D03*
X139000Y91800D02*
D03*
X213400Y272300D02*
D03*
X102700Y31200D02*
D03*
X121640Y52550D02*
D03*
X132300Y36000D02*
D03*
X187796Y31645D02*
D03*
X191000Y41170D02*
D03*
X162600Y94699D02*
D03*
X154260Y98820D02*
D03*
X126000Y77500D02*
D03*
X121390Y62550D02*
D03*
X125840Y83140D02*
D03*
X189970Y282840D02*
D03*
X22300Y64100D02*
D03*
X7300Y52600D02*
D03*
X77400Y127000D02*
D03*
X49100Y118300D02*
D03*
X77000Y87789D02*
D03*
X96300Y149100D02*
D03*
X87900Y145100D02*
D03*
X193380Y22180D02*
D03*
X191300Y6360D02*
D03*
X194100Y95800D02*
D03*
X162700Y28900D02*
D03*
X164800Y113700D02*
D03*
X116100Y30400D02*
D03*
X147350Y92190D02*
D03*
X179310Y89650D02*
D03*
X104710Y142590D02*
D03*
X148550Y139960D02*
D03*
X117090Y124780D02*
D03*
X124540Y124760D02*
D03*
X115010Y47550D02*
D03*
X115640Y167470D02*
D03*
X122090Y167460D02*
D03*
X53810Y243700D02*
D03*
X53850Y254700D02*
D03*
X167640Y24520D02*
D03*
X29870Y61860D02*
D03*
X88420Y268280D02*
D03*
X100410Y163410D02*
D03*
X156570Y203380D02*
D03*
X146790D02*
D03*
X156400Y186520D02*
D03*
X147280Y186640D02*
D03*
X138640Y186620D02*
D03*
X173760Y278500D02*
D03*
X161050Y277080D02*
D03*
X179140Y81050D02*
D03*
X157640Y26060D02*
D03*
X210760Y222640D02*
D03*
X191550Y214080D02*
D03*
X74400Y142500D02*
D03*
X65767Y142533D02*
D03*
X57133Y142633D02*
D03*
X48500Y142600D02*
D03*
X83100Y117900D02*
D03*
X165210Y183164D02*
D03*
X37000Y98400D02*
D03*
X37300Y104800D02*
D03*
X76500Y35900D02*
D03*
X-18100Y83200D02*
D03*
X6100Y140200D02*
D03*
X78160Y30260D02*
D03*
X171800Y19800D02*
D03*
X58900Y26700D02*
D03*
X192500Y122400D02*
D03*
X193200Y167400D02*
D03*
X192800Y147100D02*
D03*
X192300Y130200D02*
D03*
X194400Y108000D02*
D03*
X193000Y83200D02*
D03*
X195200Y45600D02*
D03*
X48400Y82400D02*
D03*
X71200Y24000D02*
D03*
X-15000Y39500D02*
D03*
X147550Y30720D02*
D03*
X139500Y22100D02*
D03*
X146500Y22400D02*
D03*
X-40600Y87200D02*
D03*
Y107200D02*
D03*
X-35600Y117200D02*
D03*
X-40600Y127200D02*
D03*
Y147200D02*
D03*
Y167200D02*
D03*
Y187200D02*
D03*
X-35600Y197200D02*
D03*
X-30600Y47200D02*
D03*
X-25600Y57200D02*
D03*
X-30600Y187200D02*
D03*
X-25600Y217200D02*
D03*
X-30600Y247200D02*
D03*
X-20600Y27200D02*
D03*
Y47200D02*
D03*
X-15600Y177200D02*
D03*
X-20600Y187200D02*
D03*
X-15600Y217200D02*
D03*
X-20600Y267200D02*
D03*
X-5600Y17200D02*
D03*
X-10600Y27200D02*
D03*
X-5600Y257200D02*
D03*
X-10600Y267200D02*
D03*
X-600Y7200D02*
D03*
Y27200D02*
D03*
Y267200D02*
D03*
X9400D02*
D03*
X34400Y157200D02*
D03*
Y197200D02*
D03*
Y217200D02*
D03*
Y237200D02*
D03*
X49400Y187200D02*
D03*
Y207200D02*
D03*
X64400Y257200D02*
D03*
X69400Y127200D02*
D03*
X84400Y197200D02*
D03*
Y217200D02*
D03*
Y257200D02*
D03*
X94400Y157200D02*
D03*
Y197200D02*
D03*
X89400Y207200D02*
D03*
X104400Y197200D02*
D03*
X99400Y227200D02*
D03*
Y247200D02*
D03*
X124400Y217200D02*
D03*
Y237200D02*
D03*
X119400Y247200D02*
D03*
X124400Y257200D02*
D03*
X129400Y167200D02*
D03*
Y207200D02*
D03*
Y227200D02*
D03*
Y247200D02*
D03*
X139400Y167200D02*
D03*
X194400Y137200D02*
D03*
Y157200D02*
D03*
Y177200D02*
D03*
Y197200D02*
D03*
Y237200D02*
D03*
X204400Y177200D02*
D03*
X199400Y187200D02*
D03*
X204400Y197200D02*
D03*
X214400Y177200D02*
D03*
X209400Y187200D02*
D03*
X214400Y197200D02*
D03*
X224400Y177200D02*
D03*
X219400Y187200D02*
D03*
X234400Y177200D02*
D03*
X229400Y187200D02*
D03*
X244400Y177200D02*
D03*
D55*
X166100Y71100D02*
D03*
X102800Y49600D02*
D03*
X27200Y77700D02*
D03*
X231520Y248050D02*
D03*
X115940Y294220D02*
D03*
X3790Y79270D02*
D03*
X29480Y5800D02*
D03*
X166100Y49100D02*
D03*
X155100D02*
D03*
X144100D02*
D03*
X155100Y60100D02*
D03*
X166100D02*
D03*
X144100D02*
D03*
Y71100D02*
D03*
X155100D02*
D03*
D57*
X6300Y39300D02*
D03*
X28300D02*
D03*
D58*
X110460Y230570D02*
D03*
Y242570D02*
D03*
Y254570D02*
D03*
X12460D02*
D03*
Y242570D02*
D03*
Y230570D02*
D03*
D59*
X112460Y283070D02*
D03*
Y211070D02*
D03*
X10460D02*
D03*
Y283070D02*
D03*
D60*
X79660Y171820D02*
D03*
X43260D02*
D03*
D61*
X207460Y237620D02*
D03*
X240460D02*
D03*
X207340Y258760D02*
D03*
X240340D02*
D03*
D62*
X57400Y37400D02*
D03*
Y97400D02*
D03*
D63*
X173750Y213210D02*
D03*
X161050D02*
D03*
X148350D02*
D03*
X135650D02*
D03*
Y270710D02*
D03*
X148350D02*
D03*
X161050D02*
D03*
X173750D02*
D03*
D64*
X154700Y241960D02*
D03*
D65*
X113090Y142590D02*
D03*
Y147590D02*
D03*
X141090D02*
D03*
Y142590D02*
D03*
D66*
X117090Y156590D02*
D03*
X122090D02*
D03*
X127090D02*
D03*
X132090D02*
D03*
X137090D02*
D03*
Y133590D02*
D03*
X132090D02*
D03*
X127090D02*
D03*
X122090D02*
D03*
X117090D02*
D03*
D67*
X127090Y145090D02*
D03*
D68*
X171980Y97680D02*
D03*
Y108180D02*
D03*
X185480D02*
D03*
Y97680D02*
D03*
D69*
X218700Y202700D02*
D03*
Y209200D02*
D03*
X210400Y202700D02*
D03*
Y209200D02*
D03*
D70*
X214550Y205950D02*
D03*
D71*
X197877Y220407D02*
D03*
X201780Y224310D02*
D03*
D72*
X72200Y118900D02*
D03*
X65700D02*
D03*
X59200D02*
D03*
Y137900D02*
D03*
X65700D02*
D03*
X72200D02*
D03*
D73*
X17300Y79400D02*
D03*
D74*
X27300Y68100D02*
D03*
X22300D02*
D03*
X17300D02*
D03*
X12300D02*
D03*
X7300D02*
D03*
X27300Y90700D02*
D03*
X22300D02*
D03*
X17300D02*
D03*
X12300D02*
D03*
X7300D02*
D03*
D75*
X32600Y123500D02*
D03*
X7600D02*
D03*
D76*
X32000Y104800D02*
D03*
X28000D02*
D03*
D77*
X30000Y98300D02*
D03*
M02*
