M48
;Layer_Color=9474304
;FILE_FORMAT=4:4
METRIC,LZ
;TYPE=PLATED
T1F00S00C0.2000
T2F00S00C0.6000
%
T01
X00033Y00016
X000394Y000355
X0003785Y00044111
X000436Y000451
X000498Y000584
X000607Y000567
X000671Y000406
X000735Y00042
X000681Y000277
X000613Y000327
X00048298Y00027298
X00079Y000264
X001018Y000241
X000965Y000183
X001189Y000207
X00121728Y0001575
X001316Y000233
X001371Y000231
X001374Y000373
X001384Y00044
X001274
X001294Y000372
X001164Y00044
X001097Y00045
X001164Y00055
X001274
Y00066
X001164
X001164Y000724
X001024Y0007995
X000965Y001015
X000817Y000988
X000745
X000634Y000982
X00044Y00095
X0004485Y0008205
X0004965
X000351Y000758
Y00071
X000316Y00065
X000228Y000596
X00012Y00063
X00016Y00071
X000267Y000772
Y00082
X000223Y000444
X000238Y000389
X000203Y000311
X000937Y000418
X000894Y000464
X000881Y000549
X000936Y000527
X000917Y000612
X001384Y00066
Y00055
X0014Y00092
X001349Y00097
X001267Y000986
X001255Y000915
X001178Y001269
X001019Y001266
X000909Y001264
X000799Y001265
X000742Y001285
X00068Y001349
X00008Y00119
X001384Y001425
X001516Y001298
X00145Y001229
X00148Y00111
X00156
X001524Y000935
X001489Y00089
X0015165Y0008015
X001618Y000797
X001615Y00061
X001627Y000543
X001602Y000398
X0016683Y0003932
X001799Y000395
X00192Y0004
X001983Y000405
X002Y00055
Y00071
Y00087
X00196Y00095
X001877Y00092
X001768Y000922
X001697Y000973
X001825Y001052
X00196Y00111
X002Y00119
X001959Y00123
X001964Y001318
X002Y00103
X001817Y000542
X001828Y000273
X001686Y000164
X001971Y000156
X002Y00007
X001462Y00057
X001571Y001486
X001569Y001581
X001482Y001626
X001825Y001629
X00188Y00159
X00196
X00192Y00151
X002
X00196Y00143
X001881Y001466
X0018195Y0014895
X001828Y001754
Y001842
X001826Y001942
X001816Y00213
X00157Y00215
X001563Y002073
X001489Y002087
X00144Y00231
X0015125Y0027705
X0016395Y0027685
X0017665Y0027645
X00190449Y0026935
X001968Y002751
X00204Y00239
X002Y00231
X0024
X00244Y00239
X0024Y00247
X00232
X00236Y00255
X00244
X0024Y00263
X00244Y00271
X002407Y00284
X00236
X002349Y002925
X0024
X00228Y00255
Y00191
X00236
X00244
X0022
X00212
X00204
X001976Y001846
X00196Y00175
X002Y00167
X001397Y001842
X001251Y001892
X00124Y00207
X0012Y00215
X00128
X00132Y00223
X00124
X0012Y00231
X00128
Y00247
X0012
X00124Y00255
X00132
X00128Y00263
X0012
X00112
X00104
X00096
X000945Y002547
X00084Y00255
X0008Y00247
X00076Y00239
X00068
Y00255
Y00271
X000689Y002767
X0006Y00271
X00052
X00056Y00263
X00052Y00255
X000426Y002547
Y002624
X000424Y002468
X00044Y00239
X000425Y002307
X00044Y00223
X00048Y00215
X00044Y00207
X00048Y00199
X00044Y00191
X00048Y00183
X00064
X00068Y00191
X0006
X00064Y00199
X0006Y00207
X00076
X00072Y00215
X00068Y00223
X0006
X00084
X0008Y00231
X000945Y002427
X00116Y00255
X00124Y00271
X001
X000797Y002679
X0002Y00271
X00016Y00279
X0002Y00287
X00028
X0006Y00175
X00062Y001689
X00064Y00151
X000719Y001469
X000844
Y001626
X000909Y001627
X000974
X00104Y00167
X00108Y00175
X00104Y00183
X00112
X00117375Y00164375
X001122Y001506
X000476Y001498
X00044Y00143
X001351Y001993
T02
X000127Y00008
X000254
X000381
X000508
X000635
X000762
X000889
X001016
X001143
X00127
X001397
X00008Y000254
Y000381
Y000508
Y000762
Y000889
X001524Y00008
X001651
X001778
X001905
X00242Y002032
Y002159
M30
