G04*
G04 #@! TF.GenerationSoftware,Altium Limited,Altium Designer,18.1.1 (9)*
G04*
G04 Layer_Physical_Order=1*
G04 Layer_Color=255*
%FSLAX44Y44*%
%MOMM*%
G71*
G01*
G75*
%ADD12C,0.2500*%
%ADD14C,0.2000*%
%ADD17R,0.4000X0.6000*%
%ADD18R,1.2500X1.0000*%
G04:AMPARAMS|DCode=19|XSize=1.8mm|YSize=0.6mm|CornerRadius=0.15mm|HoleSize=0mm|Usage=FLASHONLY|Rotation=270.000|XOffset=0mm|YOffset=0mm|HoleType=Round|Shape=RoundedRectangle|*
%AMROUNDEDRECTD19*
21,1,1.8000,0.3000,0,0,270.0*
21,1,1.5000,0.6000,0,0,270.0*
1,1,0.3000,-0.1500,-0.7500*
1,1,0.3000,-0.1500,0.7500*
1,1,0.3000,0.1500,0.7500*
1,1,0.3000,0.1500,-0.7500*
%
%ADD19ROUNDEDRECTD19*%
G04:AMPARAMS|DCode=20|XSize=1.8mm|YSize=0.6mm|CornerRadius=0.15mm|HoleSize=0mm|Usage=FLASHONLY|Rotation=180.000|XOffset=0mm|YOffset=0mm|HoleType=Round|Shape=RoundedRectangle|*
%AMROUNDEDRECTD20*
21,1,1.8000,0.3000,0,0,180.0*
21,1,1.5000,0.6000,0,0,180.0*
1,1,0.3000,-0.7500,0.1500*
1,1,0.3000,0.7500,0.1500*
1,1,0.3000,0.7500,-0.1500*
1,1,0.3000,-0.7500,-0.1500*
%
%ADD20ROUNDEDRECTD20*%
%ADD21R,1.0500X1.0000*%
%ADD22R,2.2000X1.0500*%
%ADD23R,0.2500X0.2000*%
%ADD24R,0.2500X0.5000*%
%ADD25R,0.5000X0.5000*%
%ADD26R,0.5000X0.9000*%
%ADD27R,0.6000X0.4000*%
%ADD28R,0.3000X0.3250*%
%ADD29R,0.3250X0.3000*%
%ADD30R,0.2000X0.2000*%
%ADD31R,0.5000X0.2500*%
%ADD32R,0.2000X0.2500*%
%ADD33R,0.2000X0.2000*%
%ADD34O,0.8500X0.2500*%
%ADD35O,0.2500X0.8500*%
%ADD36R,3.5000X3.5000*%
%ADD38R,0.8000X1.2000*%
%ADD39R,1.2000X0.8000*%
%ADD58C,0.5000*%
%ADD59C,0.3350*%
%ADD60C,0.9000*%
%ADD61C,0.3000*%
%ADD62R,1.6100X0.3313*%
%ADD63C,2.2000*%
%ADD64C,0.6000*%
%ADD65C,0.4500*%
%ADD66C,0.5000*%
G36*
X250000Y211082D02*
X238000D01*
X237235Y210765D01*
X236918Y210000D01*
Y209569D01*
X229570D01*
X228204Y209297D01*
X227047Y208523D01*
X226273Y207366D01*
X226001Y206000D01*
X226273Y204634D01*
X227047Y203477D01*
X228204Y202703D01*
X229570Y202431D01*
X236918D01*
Y202000D01*
X237235Y201235D01*
X238000Y200918D01*
X250000D01*
Y198948D01*
X247838Y198519D01*
X246006Y197294D01*
X245994D01*
X244162Y198519D01*
X243270Y198696D01*
Y193300D01*
Y187904D01*
X244162Y188081D01*
X245994Y189306D01*
X246006D01*
X247838Y188081D01*
X250000Y187652D01*
Y173990D01*
X197870Y173990D01*
Y56149D01*
X195000D01*
X194655Y56080D01*
X191500D01*
Y55277D01*
X186517D01*
X185885Y56330D01*
X179100D01*
Y58870D01*
X185712D01*
X185670Y59079D01*
X184832Y60332D01*
X183767Y61045D01*
X184219Y61722D01*
X184394Y62600D01*
X184219Y63478D01*
X183722Y64222D01*
X183694Y64241D01*
X184079Y65511D01*
X185270D01*
X185827Y64677D01*
X186902Y63959D01*
X188170Y63706D01*
X189438Y63959D01*
X190513Y64677D01*
X191231Y65752D01*
X191484Y67020D01*
X191231Y68288D01*
X190513Y69363D01*
X189438Y70081D01*
X188854Y70198D01*
X188123Y71185D01*
X188103Y71543D01*
X188304Y72550D01*
X188051Y73818D01*
X187333Y74893D01*
X186258Y75611D01*
X185152Y75831D01*
X184806Y76162D01*
X184278Y77017D01*
X184394Y77600D01*
X184219Y78478D01*
X183722Y79222D01*
X182978Y79719D01*
X182370Y80629D01*
X182454Y81050D01*
X182201Y82318D01*
X181483Y83393D01*
X180408Y84111D01*
X179140Y84364D01*
X177872Y84111D01*
X176797Y83393D01*
X175115Y83162D01*
X174894Y83329D01*
Y87100D01*
X175313Y87611D01*
X176764D01*
X176967Y87307D01*
X178042Y86589D01*
X179310Y86336D01*
X180578Y86589D01*
X181653Y87307D01*
X182371Y88382D01*
X182624Y89650D01*
X182371Y90918D01*
X181653Y91993D01*
X181349Y92196D01*
Y93710D01*
X183310D01*
X183310Y99710D01*
X184389Y100170D01*
X184850D01*
Y103440D01*
X179310D01*
X173770D01*
Y100170D01*
X174230D01*
X175310Y99710D01*
X175310Y98900D01*
Y93710D01*
X177271D01*
Y92196D01*
X176967Y91993D01*
X176764Y91689D01*
X173040D01*
X172260Y91534D01*
X171639Y91119D01*
X171588Y91093D01*
X170295Y91208D01*
X170093Y91323D01*
X169917Y91655D01*
X169979Y91970D01*
X169979Y91970D01*
Y98260D01*
X169824Y99040D01*
X169382Y99702D01*
X169382Y99702D01*
X166839Y102245D01*
Y111154D01*
X167143Y111357D01*
X167861Y112432D01*
X168113Y113700D01*
X167861Y114968D01*
X167143Y116043D01*
X166068Y116761D01*
X164800Y117013D01*
X163532Y116761D01*
X162457Y116043D01*
X161738Y114968D01*
X161486Y113700D01*
X161738Y112432D01*
X162457Y111357D01*
X162761Y111154D01*
Y101400D01*
X162916Y100620D01*
X163358Y99958D01*
X165420Y97896D01*
X165405Y97860D01*
X164700Y96887D01*
X164631Y96856D01*
X163690Y97044D01*
X162422Y96791D01*
X161347Y96073D01*
X160940Y95463D01*
X160513Y95455D01*
X159614Y95766D01*
X159524Y96220D01*
X159082Y96882D01*
X157502Y98462D01*
X157574Y98820D01*
X157321Y100088D01*
X156603Y101163D01*
X155528Y101881D01*
X154260Y102134D01*
X152992Y101881D01*
X151917Y101163D01*
X151199Y100088D01*
X150946Y98820D01*
X151199Y97552D01*
X151917Y96477D01*
X152992Y95759D01*
X154260Y95506D01*
X154619Y95578D01*
X155601Y94595D01*
Y91181D01*
X154331Y90502D01*
X154079Y90670D01*
X153870Y90712D01*
Y84100D01*
X151330D01*
Y91073D01*
X150624Y91665D01*
X150578Y91758D01*
X150664Y92190D01*
X150411Y93458D01*
X149693Y94533D01*
X148858Y95091D01*
X148616Y95270D01*
X148443Y96581D01*
X148806Y97124D01*
X149119Y98700D01*
Y104930D01*
X143500D01*
X137881D01*
Y98700D01*
X138194Y97124D01*
X139087Y95787D01*
X140424Y94894D01*
X142000Y94581D01*
X143511D01*
X144176Y93620D01*
X144259Y93311D01*
X144036Y92190D01*
X144289Y90922D01*
X144871Y90050D01*
X144840Y89837D01*
X143536Y89215D01*
X143478Y89220D01*
X142600Y89394D01*
X141722Y89220D01*
X140978Y88722D01*
X140816Y88480D01*
X139384D01*
X139222Y88722D01*
X138478Y89220D01*
X137600Y89394D01*
X136722Y89220D01*
X135978Y88722D01*
X135882Y88689D01*
X134404Y88580D01*
X133728Y89031D01*
X132460Y89284D01*
X131192Y89031D01*
X130117Y88313D01*
X129399Y87238D01*
X129146Y85970D01*
X129399Y84702D01*
X130117Y83627D01*
X131192Y82909D01*
X132460Y82656D01*
X132818Y82728D01*
X132938Y82608D01*
X132938Y82608D01*
X133600Y82166D01*
X134380Y82011D01*
X134522D01*
X135031Y81086D01*
X134341Y79956D01*
X134100Y79894D01*
X128362D01*
X127288Y80611D01*
X126020Y80864D01*
X124752Y80611D01*
X123677Y79893D01*
X122959Y78818D01*
X122706Y77550D01*
X122959Y76282D01*
X123241Y75859D01*
X122562Y74589D01*
X118240D01*
Y83540D01*
X103740D01*
Y79719D01*
X97370D01*
Y81680D01*
X91370Y81680D01*
X90910Y82760D01*
Y83220D01*
X87640D01*
Y77680D01*
Y72140D01*
X90910D01*
Y72600D01*
X91370Y73680D01*
X92180Y73680D01*
X97370D01*
Y75641D01*
X103740D01*
Y71540D01*
X114106D01*
X114538Y71108D01*
X115132Y70711D01*
X115208Y70136D01*
X115211Y69937D01*
X115143Y69383D01*
X114558Y68992D01*
X114106Y68540D01*
X103740D01*
Y64629D01*
X97420D01*
Y66590D01*
X91420Y66590D01*
X90960Y67670D01*
Y68130D01*
X87690D01*
Y62590D01*
Y57050D01*
X90960D01*
Y57510D01*
X91420Y58590D01*
X92230Y58590D01*
X97420D01*
Y60551D01*
X103740D01*
Y56540D01*
X114827D01*
X115313Y55367D01*
X114265Y54319D01*
X82580D01*
X81800Y54164D01*
X81138Y53722D01*
X81138Y53722D01*
X67855Y40439D01*
X52090D01*
Y41400D01*
X44090D01*
Y35400D01*
X52090D01*
Y36361D01*
X68700D01*
X69480Y36516D01*
X70142Y36958D01*
X83425Y50241D01*
X111372D01*
X112051Y48971D01*
X111949Y48818D01*
X111696Y47550D01*
X111949Y46282D01*
X112667Y45207D01*
X113742Y44489D01*
X115010Y44236D01*
X116278Y44489D01*
X116921Y44918D01*
X117618Y44830D01*
X117918Y44473D01*
X118421Y43578D01*
X118216Y42550D01*
X118469Y41282D01*
X119187Y40207D01*
X120262Y39489D01*
X121530Y39236D01*
X122798Y39489D01*
X123873Y40207D01*
X124076Y40511D01*
X127177D01*
X127222Y40481D01*
X128100Y40306D01*
X128795D01*
X129474Y39036D01*
X129409Y38938D01*
X129156Y37670D01*
X129409Y36402D01*
X130127Y35327D01*
X131202Y34609D01*
X132470Y34356D01*
X132898Y34441D01*
X133310Y34166D01*
X134090Y34011D01*
X134090Y34011D01*
X135306D01*
Y33100D01*
X135481Y32222D01*
X135978Y31478D01*
X136722Y30981D01*
X137600Y30806D01*
X138478Y30981D01*
X139222Y31478D01*
X139331Y31640D01*
X140601Y31255D01*
Y29930D01*
X139352Y29681D01*
X138277Y28963D01*
X137559Y27888D01*
X137306Y26620D01*
X137559Y25352D01*
X138277Y24277D01*
X139352Y23559D01*
X140620Y23306D01*
X141888Y23559D01*
X142963Y24277D01*
X143681Y25352D01*
X143934Y26620D01*
X144963Y27420D01*
X145791Y26583D01*
X145689Y25225D01*
X145567Y25143D01*
X144849Y24068D01*
X144596Y22800D01*
X144849Y21532D01*
X145567Y20457D01*
X146642Y19739D01*
X147910Y19486D01*
X149178Y19739D01*
X149791Y20148D01*
X149990Y20016D01*
X150770Y19861D01*
X151550Y20016D01*
X152212Y20458D01*
X154082Y22328D01*
X154082Y22328D01*
X154447Y22874D01*
X154449Y22877D01*
X154729Y23040D01*
X155885Y23324D01*
X156372Y22999D01*
X157640Y22746D01*
X158908Y22999D01*
X159983Y23717D01*
X160701Y24792D01*
X160703Y24798D01*
X161432Y25838D01*
X162700Y25586D01*
X163266Y25699D01*
X164360Y24690D01*
X164326Y24520D01*
X164579Y23252D01*
X165297Y22177D01*
X166372Y21459D01*
X167640Y21206D01*
X168622Y21402D01*
X169599Y20898D01*
X169940Y20621D01*
X170025Y19909D01*
X166155Y16039D01*
X160300D01*
X160300Y16039D01*
X159520Y15884D01*
X158858Y15442D01*
X158858Y15442D01*
X156499Y13082D01*
X150300D01*
X149535Y12765D01*
X149218Y12000D01*
Y0D01*
X146682D01*
Y12000D01*
X146365Y12765D01*
X145600Y13082D01*
X137600D01*
X136834Y12765D01*
X136517Y12000D01*
Y0D01*
X134549D01*
X134549Y0D01*
X134119Y2162D01*
X132894Y3994D01*
Y4006D01*
X134119Y5838D01*
X134296Y6730D01*
X128900D01*
X123504D01*
X123681Y5838D01*
X124906Y4006D01*
Y3994D01*
X123681Y2162D01*
X123251Y0D01*
X123251Y0D01*
X121282D01*
Y12000D01*
X120965Y12765D01*
X120200Y13082D01*
X118139D01*
Y15600D01*
X120100D01*
Y21600D01*
X112100D01*
Y15600D01*
X114061D01*
Y13082D01*
X112200D01*
X111435Y12765D01*
X111118Y12000D01*
Y0D01*
X108582D01*
Y12000D01*
X108265Y12765D01*
X107500Y13082D01*
X105549D01*
Y15600D01*
X107510D01*
Y21600D01*
X99510D01*
Y15600D01*
X101471D01*
Y13082D01*
X99500D01*
X98735Y12765D01*
X98418Y12000D01*
Y0D01*
X95882D01*
Y12000D01*
X95565Y12765D01*
X94800Y13082D01*
X92850D01*
Y15600D01*
X94810D01*
Y21600D01*
X86810D01*
Y15600D01*
X88771D01*
Y13082D01*
X86800D01*
X86035Y12765D01*
X85718Y12000D01*
Y0D01*
X83182D01*
Y12000D01*
X82865Y12765D01*
X82100Y13082D01*
X80189D01*
Y15600D01*
X82150D01*
Y21600D01*
X74150D01*
Y15600D01*
X76111D01*
Y13082D01*
X74100D01*
X73335Y12765D01*
X73018Y12000D01*
Y0D01*
X70482D01*
Y12000D01*
X70165Y12765D01*
X69400Y13082D01*
X61400D01*
X60635Y12765D01*
X60318Y12000D01*
Y0D01*
X57782D01*
Y12000D01*
X57465Y12765D01*
X56700Y13082D01*
X48700D01*
X47935Y12765D01*
X47618Y12000D01*
Y0D01*
X45082D01*
Y12000D01*
X44765Y12765D01*
X44216Y12993D01*
X43763Y13831D01*
X43598Y14352D01*
X43797Y14651D01*
X44146D01*
X44250Y14608D01*
X48250D01*
X48354Y14651D01*
X55036D01*
X55140Y14608D01*
X59140D01*
X59905Y14925D01*
X60222Y15690D01*
Y19690D01*
X59905Y20456D01*
X60222Y21410D01*
Y23410D01*
X59905Y24175D01*
X59179Y24476D01*
Y29020D01*
X59179Y29020D01*
X59024Y29800D01*
X58582Y30462D01*
X58582Y30462D01*
X57202Y31842D01*
X56540Y32284D01*
X55760Y32439D01*
X52090D01*
Y33400D01*
X44090D01*
Y28539D01*
X39329D01*
Y31370D01*
X39174Y32150D01*
X39180Y33420D01*
X39180Y33420D01*
X39180Y33420D01*
Y41420D01*
X33180Y41420D01*
X32720Y42499D01*
Y42960D01*
X29450D01*
Y37420D01*
Y31880D01*
X32720D01*
Y31880D01*
X33674Y32220D01*
X34168Y31135D01*
X33860Y30428D01*
X33714Y30290D01*
X29750D01*
Y27770D01*
X33290D01*
Y25230D01*
X29750D01*
Y22710D01*
X30710D01*
X31790Y22250D01*
Y17750D01*
X38380D01*
X38988Y16562D01*
X38558Y16132D01*
X38116Y15470D01*
X37961Y14690D01*
Y13082D01*
X36000D01*
X35235Y12765D01*
X34918Y12000D01*
Y0D01*
X0D01*
Y300000D01*
X199918D01*
Y288000D01*
X200235Y287235D01*
X201000Y286918D01*
X209000D01*
X209765Y287235D01*
X210082Y288000D01*
Y300000D01*
X212051D01*
X212052Y300000D01*
X212481Y297838D01*
X213706Y296006D01*
Y295994D01*
X212481Y294161D01*
X212304Y293270D01*
X217700D01*
Y292000D01*
X218970D01*
Y286604D01*
X219862Y286781D01*
X221694Y288006D01*
X222188Y288744D01*
X223313Y288143D01*
X223309Y288133D01*
X222896Y285000D01*
X223309Y281867D01*
X224518Y278948D01*
X226441Y276441D01*
X228948Y274518D01*
X231867Y273309D01*
X235000Y272896D01*
X238133Y273309D01*
X241052Y274518D01*
X243559Y276441D01*
X245482Y278948D01*
X246691Y281867D01*
X247104Y285000D01*
X246691Y288133D01*
X245482Y291052D01*
X243559Y293559D01*
X241052Y295482D01*
X238133Y296691D01*
X235000Y297104D01*
X231867Y296691D01*
X228948Y295482D01*
X226441Y293559D01*
X224518Y291052D01*
X224396Y290758D01*
X223175Y291129D01*
X223349Y292000D01*
X222919Y294161D01*
X221694Y295994D01*
Y296006D01*
X222919Y297838D01*
X223349Y300000D01*
X223349Y300000D01*
X250000D01*
Y211082D01*
D02*
G37*
G36*
X59140Y21410D02*
X57140Y19410D01*
X55140Y21410D01*
Y23410D01*
X59140D01*
Y21410D01*
D02*
G37*
G36*
X48250D02*
X46250Y19410D01*
X44250Y21410D01*
Y23410D01*
X48250D01*
Y21410D01*
D02*
G37*
G36*
X59140Y15690D02*
X55140D01*
Y19690D01*
X57140Y17690D01*
X59140Y19690D01*
Y15690D01*
D02*
G37*
G36*
X48250D02*
X44250D01*
Y19690D01*
X46250Y17690D01*
X48250Y19690D01*
Y15690D01*
D02*
G37*
G36*
X191500Y49080D02*
X194655D01*
X195000Y49012D01*
X197870D01*
Y37188D01*
X197020D01*
X196478Y37080D01*
X191500D01*
Y32021D01*
X191412Y31580D01*
X191500Y31139D01*
Y26080D01*
X196478D01*
X197020Y25972D01*
X197870D01*
Y0D01*
X184782D01*
Y12000D01*
X184465Y12765D01*
X183700Y13082D01*
X181739D01*
Y15613D01*
X186342Y20215D01*
X186784Y20877D01*
X186939Y21657D01*
Y28390D01*
X186784Y29170D01*
X186342Y29832D01*
X186342Y29832D01*
X185485Y30688D01*
Y38505D01*
X186792Y39812D01*
X186792Y39812D01*
X187234Y40473D01*
X187389Y41254D01*
X187389Y41254D01*
Y45850D01*
X187389Y45850D01*
X187234Y46630D01*
X186792Y47292D01*
X185531Y48553D01*
X186057Y49823D01*
X191500D01*
Y49080D01*
D02*
G37*
%LPC*%
G36*
X193700Y296300D02*
X185700D01*
Y295239D01*
X184503D01*
X184453Y295313D01*
X183378Y296031D01*
X182110Y296284D01*
X180842Y296031D01*
X179767Y295313D01*
X179718Y295239D01*
X171500D01*
X171303Y295200D01*
X169250D01*
Y287200D01*
X171303D01*
X171500Y287161D01*
X176985D01*
X180288Y283858D01*
X180950Y283416D01*
X181730Y283261D01*
X185700D01*
Y282300D01*
X187087D01*
X187445Y281467D01*
X187541Y281030D01*
X186879Y280038D01*
X186626Y278770D01*
X186879Y277502D01*
X187597Y276427D01*
X188672Y275709D01*
X189940Y275456D01*
X191208Y275709D01*
X192283Y276427D01*
X193001Y277502D01*
X193254Y278770D01*
X193001Y280038D01*
X192339Y281030D01*
X192435Y281467D01*
X192793Y282300D01*
X193700D01*
Y288300D01*
X185700D01*
Y287339D01*
X182575D01*
X181414Y288500D01*
X182040Y289670D01*
X182110Y289656D01*
X183378Y289909D01*
X184453Y290627D01*
X185700Y290300D01*
Y290300D01*
X193700D01*
Y296300D01*
D02*
G37*
G36*
X120230Y293819D02*
X120000D01*
X118424Y293506D01*
X117087Y292613D01*
X116764Y292128D01*
X115236D01*
X114913Y292613D01*
X113576Y293506D01*
X112000Y293819D01*
X111770D01*
Y282200D01*
Y270581D01*
X112000D01*
X113576Y270894D01*
X114913Y271787D01*
X115236Y272272D01*
X116764D01*
X117087Y271787D01*
X118424Y270894D01*
X120000Y270581D01*
X120230D01*
Y282200D01*
Y293819D01*
D02*
G37*
G36*
X216430Y290730D02*
X212304D01*
X212481Y289838D01*
X213706Y288006D01*
X215538Y286781D01*
X216430Y286604D01*
Y290730D01*
D02*
G37*
G36*
X163780Y294769D02*
X159000D01*
X157634Y294497D01*
X156477Y293723D01*
X148819Y286066D01*
X147549Y286486D01*
Y289700D01*
X147355Y290675D01*
X146802Y291502D01*
X145976Y292055D01*
X145000Y292249D01*
X142000D01*
X141025Y292055D01*
X140198Y291502D01*
X139645Y290675D01*
X139451Y289700D01*
Y274700D01*
X139645Y273725D01*
X140198Y272898D01*
X141025Y272345D01*
X142000Y272151D01*
X145000D01*
X145976Y272345D01*
X146690Y272822D01*
X146920Y272903D01*
X148127Y272957D01*
X149202Y272239D01*
X150470Y271986D01*
X151738Y272239D01*
X152813Y272957D01*
X153531Y274032D01*
X153784Y275300D01*
X153531Y276568D01*
X152813Y277643D01*
X152289Y277993D01*
X152206Y279465D01*
X152523Y279677D01*
X160478Y287631D01*
X163780D01*
X164125Y287700D01*
X167250D01*
Y290705D01*
X167349Y291200D01*
X167250Y291695D01*
Y294700D01*
X164125D01*
X163780Y294769D01*
D02*
G37*
G36*
X123000Y293819D02*
X122770D01*
Y283470D01*
X127119D01*
Y289700D01*
X126806Y291276D01*
X125913Y292613D01*
X124576Y293506D01*
X123000Y293819D01*
D02*
G37*
G36*
X109230D02*
X109000D01*
X107424Y293506D01*
X106087Y292613D01*
X105194Y291276D01*
X104881Y289700D01*
Y283470D01*
X109230D01*
Y293819D01*
D02*
G37*
G36*
X173760Y281814D02*
X172492Y281561D01*
X171417Y280843D01*
X170699Y279768D01*
X170446Y278500D01*
X170699Y277232D01*
X171417Y276157D01*
X172492Y275439D01*
X173760Y275186D01*
X175028Y275439D01*
X176103Y276157D01*
X176821Y277232D01*
X177074Y278500D01*
X176821Y279768D01*
X176103Y280843D01*
X175028Y281561D01*
X173760Y281814D01*
D02*
G37*
G36*
X161050Y280394D02*
X159782Y280141D01*
X158707Y279423D01*
X157989Y278348D01*
X157736Y277080D01*
X157989Y275812D01*
X158707Y274737D01*
X159782Y274019D01*
X161050Y273766D01*
X162318Y274019D01*
X163393Y274737D01*
X164111Y275812D01*
X164364Y277080D01*
X164111Y278348D01*
X163393Y279423D01*
X162318Y280141D01*
X161050Y280394D01*
D02*
G37*
G36*
X134000Y292249D02*
X131000D01*
X130025Y292055D01*
X129198Y291502D01*
X128645Y290675D01*
X128451Y289700D01*
Y274700D01*
X128645Y273725D01*
X129198Y272898D01*
X130025Y272345D01*
X131000Y272151D01*
X134000D01*
X134975Y272345D01*
X135802Y272898D01*
X136355Y273725D01*
X136549Y274700D01*
Y289700D01*
X136355Y290675D01*
X135802Y291502D01*
X134975Y292055D01*
X134000Y292249D01*
D02*
G37*
G36*
X101000D02*
X98000D01*
X97025Y292055D01*
X96198Y291502D01*
X95645Y290675D01*
X95451Y289700D01*
Y274700D01*
X95645Y273725D01*
X96198Y272898D01*
X97025Y272345D01*
X98000Y272151D01*
X101000D01*
X101975Y272345D01*
X102802Y272898D01*
X103355Y273725D01*
X103549Y274700D01*
Y289700D01*
X103355Y290675D01*
X102802Y291502D01*
X101975Y292055D01*
X101000Y292249D01*
D02*
G37*
G36*
X68000D02*
X65000D01*
X64025Y292055D01*
X63198Y291502D01*
X62645Y290675D01*
X62451Y289700D01*
Y274700D01*
X62645Y273725D01*
X63198Y272898D01*
X64025Y272345D01*
X65000Y272151D01*
X68000D01*
X68976Y272345D01*
X69802Y272898D01*
X70355Y273725D01*
X70549Y274700D01*
Y289700D01*
X70355Y290675D01*
X69802Y291502D01*
X68976Y292055D01*
X68000Y292249D01*
D02*
G37*
G36*
X57000D02*
X54000D01*
X53025Y292055D01*
X52198Y291502D01*
X51645Y290675D01*
X51451Y289700D01*
Y274700D01*
X51645Y273725D01*
X52198Y272898D01*
X53025Y272345D01*
X54000Y272151D01*
X57000D01*
X57975Y272345D01*
X58802Y272898D01*
X59355Y273725D01*
X59549Y274700D01*
Y289700D01*
X59355Y290675D01*
X58802Y291502D01*
X57975Y292055D01*
X57000Y292249D01*
D02*
G37*
G36*
X127119Y280930D02*
X122770D01*
Y270581D01*
X123000D01*
X124576Y270894D01*
X125913Y271787D01*
X126806Y273124D01*
X127119Y274700D01*
Y280930D01*
D02*
G37*
G36*
X109230D02*
X104881D01*
Y274700D01*
X105194Y273124D01*
X106087Y271787D01*
X107424Y270894D01*
X109000Y270581D01*
X109230D01*
Y280930D01*
D02*
G37*
G36*
X90000Y292249D02*
X87000D01*
X86025Y292055D01*
X85198Y291502D01*
X84645Y290675D01*
X84451Y289700D01*
Y274700D01*
X84645Y273725D01*
X85198Y272898D01*
X86025Y272345D01*
X86381Y272274D01*
Y270826D01*
X86077Y270623D01*
X85359Y269548D01*
X85106Y268280D01*
X85359Y267012D01*
X86077Y265937D01*
X87152Y265219D01*
X88420Y264966D01*
X89688Y265219D01*
X90763Y265937D01*
X91481Y267012D01*
X91734Y268280D01*
X91481Y269548D01*
X90763Y270623D01*
X90459Y270826D01*
Y272242D01*
X90975Y272345D01*
X91802Y272898D01*
X92355Y273725D01*
X92549Y274700D01*
Y289700D01*
X92355Y290675D01*
X91802Y291502D01*
X90975Y292055D01*
X90000Y292249D01*
D02*
G37*
G36*
X241190Y266340D02*
X228920D01*
Y259820D01*
X241190D01*
Y266340D01*
D02*
G37*
G36*
X226380D02*
X214110D01*
Y259820D01*
X226380D01*
Y266340D01*
D02*
G37*
G36*
X185500Y260319D02*
X179270D01*
Y255970D01*
X189619D01*
Y256200D01*
X189306Y257776D01*
X188413Y259113D01*
X187076Y260006D01*
X185500Y260319D01*
D02*
G37*
G36*
X176730D02*
X170500D01*
X168924Y260006D01*
X167587Y259113D01*
X166694Y257776D01*
X166381Y256200D01*
Y255970D01*
X176730D01*
Y260319D01*
D02*
G37*
G36*
X28500Y258749D02*
X13500D01*
X12525Y258555D01*
X11698Y258002D01*
X11145Y257175D01*
X10951Y256200D01*
Y253200D01*
X11145Y252225D01*
X11698Y251398D01*
X12525Y250845D01*
X13500Y250651D01*
X28500D01*
X29475Y250845D01*
X30302Y251398D01*
X30855Y252225D01*
X30942Y252661D01*
X51304D01*
X51507Y252357D01*
X52582Y251639D01*
X53850Y251386D01*
X55118Y251639D01*
X56193Y252357D01*
X56911Y253432D01*
X57164Y254700D01*
X56911Y255968D01*
X56193Y257043D01*
X55118Y257761D01*
X53850Y258014D01*
X52582Y257761D01*
X51507Y257043D01*
X51304Y256739D01*
X30942D01*
X30855Y257175D01*
X30302Y258002D01*
X29475Y258555D01*
X28500Y258749D01*
D02*
G37*
G36*
X241190Y257280D02*
X228920D01*
Y250760D01*
X241190D01*
Y257280D01*
D02*
G37*
G36*
X176730Y253430D02*
X166381D01*
Y253200D01*
X166694Y251624D01*
X167587Y250287D01*
X168924Y249394D01*
X170500Y249081D01*
X176730D01*
Y253430D01*
D02*
G37*
G36*
X226380Y257280D02*
X214110D01*
Y251070D01*
X214110Y250760D01*
X213362Y249800D01*
X206150D01*
Y245994D01*
X195646D01*
X194928Y247264D01*
X195114Y248200D01*
X194861Y249468D01*
X194143Y250543D01*
X193068Y251261D01*
X191800Y251514D01*
X190532Y251261D01*
X190429Y251192D01*
X189385Y252022D01*
X189619Y253200D01*
Y253430D01*
X179270D01*
Y249081D01*
X185500D01*
X187076Y249394D01*
X187483Y249666D01*
X188626Y248902D01*
X188486Y248200D01*
X188673Y247264D01*
X188643Y247211D01*
X187484Y246731D01*
X187302Y247002D01*
X186475Y247555D01*
X185500Y247749D01*
X170500D01*
X169525Y247555D01*
X168698Y247002D01*
X168145Y246175D01*
X167951Y245200D01*
Y242200D01*
X168145Y241225D01*
X168698Y240398D01*
X169525Y239845D01*
X170500Y239651D01*
X185500D01*
X186475Y239845D01*
X187302Y240398D01*
X187855Y241225D01*
X187891Y241406D01*
X206150D01*
Y237800D01*
X213362D01*
X214110Y236840D01*
X214110Y236530D01*
Y230320D01*
X226380D01*
Y236840D01*
X219398D01*
X218650Y237800D01*
X218650Y238110D01*
Y249490D01*
X218650Y249800D01*
X219398Y250760D01*
X226380D01*
Y257280D01*
D02*
G37*
G36*
X28500Y247749D02*
X13500D01*
X12525Y247555D01*
X11698Y247002D01*
X11145Y246175D01*
X10951Y245200D01*
Y242200D01*
X11145Y241225D01*
X11698Y240398D01*
X12525Y239845D01*
X13500Y239651D01*
X28500D01*
X29475Y239845D01*
X30302Y240398D01*
X30855Y241225D01*
X30942Y241661D01*
X51264D01*
X51467Y241357D01*
X52542Y240639D01*
X53810Y240386D01*
X55078Y240639D01*
X56153Y241357D01*
X56871Y242432D01*
X57124Y243700D01*
X56871Y244968D01*
X56153Y246043D01*
X55078Y246761D01*
X53810Y247014D01*
X52542Y246761D01*
X51467Y246043D01*
X51264Y245739D01*
X30942D01*
X30855Y246175D01*
X30302Y247002D01*
X29475Y247555D01*
X28500Y247749D01*
D02*
G37*
G36*
X185500Y238319D02*
X179270D01*
Y233970D01*
X189619D01*
Y234200D01*
X189306Y235776D01*
X188413Y237113D01*
X187076Y238006D01*
X185500Y238319D01*
D02*
G37*
G36*
X176730D02*
X170500D01*
X168924Y238006D01*
X167587Y237113D01*
X166694Y235776D01*
X166381Y234200D01*
Y233970D01*
X176730D01*
Y238319D01*
D02*
G37*
G36*
X241190Y236840D02*
X228920D01*
Y230320D01*
X241190D01*
Y236840D01*
D02*
G37*
G36*
X28500Y236749D02*
X13500D01*
X12525Y236555D01*
X11698Y236002D01*
X11145Y235175D01*
X10951Y234200D01*
Y231200D01*
X11145Y230225D01*
X11698Y229398D01*
X12525Y228845D01*
X13500Y228651D01*
X28500D01*
X29475Y228845D01*
X30302Y229398D01*
X30855Y230225D01*
X31049Y231200D01*
Y234200D01*
X30855Y235175D01*
X30302Y236002D01*
X29475Y236555D01*
X28500Y236749D01*
D02*
G37*
G36*
X226380Y227780D02*
X214110D01*
Y225721D01*
X213773Y225474D01*
X212840Y225159D01*
X212028Y225701D01*
X210760Y225954D01*
X209492Y225701D01*
X208417Y224983D01*
X207699Y223908D01*
X207446Y222640D01*
X207699Y221372D01*
X208417Y220297D01*
X209492Y219579D01*
X210760Y219326D01*
X212028Y219579D01*
X213103Y220297D01*
X213187Y220422D01*
X214110Y221260D01*
X215094Y221260D01*
X226380D01*
Y227780D01*
D02*
G37*
G36*
X189619Y231430D02*
X178000D01*
X166381D01*
Y231200D01*
X166694Y229624D01*
X167587Y228287D01*
X168072Y227964D01*
Y226436D01*
X167587Y226113D01*
X166694Y224776D01*
X166381Y223200D01*
Y222970D01*
X178000D01*
X189619D01*
Y223200D01*
X189306Y224776D01*
X188413Y226113D01*
X187928Y226436D01*
Y227964D01*
X188413Y228287D01*
X189306Y229624D01*
X189619Y231200D01*
Y231430D01*
D02*
G37*
G36*
X241190Y227780D02*
X228920D01*
Y221260D01*
X241190D01*
Y227780D01*
D02*
G37*
G36*
X28500Y225749D02*
X13500D01*
X12525Y225555D01*
X11698Y225002D01*
X11145Y224175D01*
X10951Y223200D01*
Y220200D01*
X11145Y219225D01*
X11698Y218398D01*
X12525Y217845D01*
X13500Y217651D01*
X28500D01*
X29475Y217845D01*
X30302Y218398D01*
X30855Y219225D01*
X31049Y220200D01*
Y223200D01*
X30855Y224175D01*
X30302Y225002D01*
X29475Y225555D01*
X28500Y225749D01*
D02*
G37*
G36*
X189619Y220430D02*
X179270D01*
Y216081D01*
X185500D01*
X187076Y216394D01*
X188413Y217287D01*
X189306Y218624D01*
X189619Y220200D01*
Y220430D01*
D02*
G37*
G36*
X176730D02*
X166381D01*
Y220200D01*
X166694Y218624D01*
X167587Y217287D01*
X168924Y216394D01*
X170500Y216081D01*
X176730D01*
Y220430D01*
D02*
G37*
G36*
X234788Y219988D02*
X233520Y219736D01*
X232445Y219018D01*
X231727Y217943D01*
X231475Y216674D01*
X231727Y215406D01*
X232445Y214331D01*
X233520Y213613D01*
X234788Y213361D01*
X236056Y213613D01*
X237131Y214331D01*
X237850Y215406D01*
X238102Y216674D01*
X237850Y217943D01*
X237131Y219018D01*
X236056Y219736D01*
X234788Y219988D01*
D02*
G37*
G36*
X185500Y214749D02*
X170500D01*
X169525Y214555D01*
X168698Y214002D01*
X168145Y213175D01*
X167951Y212200D01*
Y209200D01*
X168145Y208225D01*
X168698Y207398D01*
X169525Y206845D01*
X170500Y206651D01*
X185500D01*
X186475Y206845D01*
X187302Y207398D01*
X187855Y208225D01*
X188049Y209200D01*
Y212200D01*
X187855Y213175D01*
X187302Y214002D01*
X186475Y214555D01*
X185500Y214749D01*
D02*
G37*
G36*
X28500D02*
X13500D01*
X12525Y214555D01*
X11698Y214002D01*
X11145Y213175D01*
X10951Y212200D01*
Y209200D01*
X11145Y208225D01*
X11698Y207398D01*
X12525Y206845D01*
X13500Y206651D01*
X28500D01*
X29475Y206845D01*
X30302Y207398D01*
X30855Y208225D01*
X31049Y209200D01*
Y212200D01*
X30855Y213175D01*
X30302Y214002D01*
X29475Y214555D01*
X28500Y214749D01*
D02*
G37*
G36*
X156570Y206694D02*
X155302Y206441D01*
X154227Y205723D01*
X153509Y204648D01*
X153256Y203380D01*
X153509Y202112D01*
X154227Y201037D01*
X155302Y200319D01*
X156570Y200066D01*
X157838Y200319D01*
X158913Y201037D01*
X159631Y202112D01*
X159884Y203380D01*
X159631Y204648D01*
X158913Y205723D01*
X157838Y206441D01*
X156570Y206694D01*
D02*
G37*
G36*
X146790D02*
X145522Y206441D01*
X144447Y205723D01*
X143729Y204648D01*
X143476Y203380D01*
X143729Y202112D01*
X144447Y201037D01*
X145522Y200319D01*
X146790Y200066D01*
X148058Y200319D01*
X149133Y201037D01*
X149851Y202112D01*
X150104Y203380D01*
X149851Y204648D01*
X149133Y205723D01*
X148058Y206441D01*
X146790Y206694D01*
D02*
G37*
G36*
X164460Y205784D02*
X163192Y205531D01*
X162117Y204813D01*
X161399Y203738D01*
X161146Y202470D01*
X161399Y201202D01*
X162117Y200127D01*
X163192Y199409D01*
X164460Y199156D01*
X165728Y199409D01*
X166681Y200045D01*
X167252Y199905D01*
X167951Y199559D01*
Y198200D01*
X168145Y197225D01*
X168698Y196398D01*
X169525Y195845D01*
X170500Y195651D01*
X185500D01*
X186475Y195845D01*
X187302Y196398D01*
X187855Y197225D01*
X188049Y198200D01*
Y201200D01*
X187855Y202175D01*
X187302Y203002D01*
X186475Y203555D01*
X185500Y203749D01*
X170500D01*
X169525Y203555D01*
X168932Y203159D01*
X167994Y203355D01*
X167554Y203576D01*
X167521Y203738D01*
X166803Y204813D01*
X165728Y205531D01*
X164460Y205784D01*
D02*
G37*
G36*
X28500Y203749D02*
X13500D01*
X12525Y203555D01*
X11698Y203002D01*
X11145Y202175D01*
X10951Y201200D01*
Y198200D01*
X11145Y197225D01*
X11698Y196398D01*
X12525Y195845D01*
X13500Y195651D01*
X28500D01*
X29475Y195845D01*
X30302Y196398D01*
X30855Y197225D01*
X31049Y198200D01*
Y201200D01*
X30855Y202175D01*
X30302Y203002D01*
X29475Y203555D01*
X28500Y203749D01*
D02*
G37*
G36*
X240730Y198696D02*
X239838Y198519D01*
X238006Y197294D01*
X236781Y195462D01*
X236604Y194570D01*
X240730D01*
Y198696D01*
D02*
G37*
G36*
X185500Y194319D02*
X179270D01*
Y189970D01*
X189619D01*
Y190200D01*
X189306Y191776D01*
X188413Y193113D01*
X187076Y194006D01*
X185500Y194319D01*
D02*
G37*
G36*
X176730D02*
X170500D01*
X168924Y194006D01*
X167587Y193113D01*
X166694Y191776D01*
X166525Y190927D01*
X165247Y189886D01*
X165210Y189894D01*
X163942Y189641D01*
X162867Y188923D01*
X162149Y187848D01*
X161896Y186580D01*
X162149Y185312D01*
X162867Y184237D01*
X163942Y183519D01*
X165210Y183266D01*
X166478Y183519D01*
X167553Y184237D01*
X168643Y183582D01*
X168924Y183394D01*
X170500Y183081D01*
X176730D01*
Y188700D01*
Y194319D01*
D02*
G37*
G36*
X240730Y192030D02*
X236604D01*
X236781Y191138D01*
X238006Y189306D01*
X239838Y188081D01*
X240730Y187904D01*
Y192030D01*
D02*
G37*
G36*
X28500Y192749D02*
X13500D01*
X12525Y192555D01*
X11698Y192002D01*
X11145Y191175D01*
X10951Y190200D01*
Y187200D01*
X11145Y186225D01*
X11698Y185398D01*
X12525Y184845D01*
X13500Y184651D01*
X28500D01*
X29475Y184845D01*
X30302Y185398D01*
X30855Y186225D01*
X31049Y187200D01*
Y190200D01*
X30855Y191175D01*
X30302Y192002D01*
X29475Y192555D01*
X28500Y192749D01*
D02*
G37*
G36*
X147280Y189954D02*
X146012Y189701D01*
X144937Y188983D01*
X144219Y187908D01*
X143966Y186640D01*
X144219Y185372D01*
X144937Y184297D01*
X146012Y183579D01*
X147280Y183326D01*
X148548Y183579D01*
X149623Y184297D01*
X150341Y185372D01*
X150594Y186640D01*
X150341Y187908D01*
X149623Y188983D01*
X148548Y189701D01*
X147280Y189954D01*
D02*
G37*
G36*
X138640Y189934D02*
X137372Y189681D01*
X136297Y188963D01*
X135579Y187888D01*
X135326Y186620D01*
X135579Y185352D01*
X136297Y184277D01*
X137372Y183559D01*
X138640Y183306D01*
X139908Y183559D01*
X140983Y184277D01*
X141701Y185352D01*
X141954Y186620D01*
X141701Y187888D01*
X140983Y188963D01*
X139908Y189681D01*
X138640Y189934D01*
D02*
G37*
G36*
X156400Y189834D02*
X155132Y189581D01*
X154057Y188863D01*
X153339Y187788D01*
X153086Y186520D01*
X153339Y185252D01*
X154057Y184177D01*
X155132Y183459D01*
X156400Y183206D01*
X157668Y183459D01*
X158743Y184177D01*
X159461Y185252D01*
X159714Y186520D01*
X159461Y187788D01*
X158743Y188863D01*
X157668Y189581D01*
X156400Y189834D01*
D02*
G37*
G36*
X189619Y187430D02*
X179270D01*
Y183081D01*
X185500D01*
X187076Y183394D01*
X188413Y184287D01*
X189306Y185624D01*
X189619Y187200D01*
Y187430D01*
D02*
G37*
G36*
X28500Y183319D02*
X22270D01*
Y178970D01*
X32619D01*
Y179200D01*
X32306Y180776D01*
X31413Y182113D01*
X30076Y183006D01*
X28500Y183319D01*
D02*
G37*
G36*
X19730D02*
X13500D01*
X11924Y183006D01*
X10587Y182113D01*
X9694Y180776D01*
X9381Y179200D01*
Y178970D01*
X19730D01*
Y183319D01*
D02*
G37*
G36*
X185500Y181749D02*
X170500D01*
X169525Y181555D01*
X168698Y181002D01*
X168145Y180175D01*
X167951Y179200D01*
Y176200D01*
X168145Y175225D01*
X168698Y174398D01*
X169525Y173845D01*
X170500Y173651D01*
X185500D01*
X186475Y173845D01*
X187302Y174398D01*
X187855Y175225D01*
X188049Y176200D01*
Y179200D01*
X187855Y180175D01*
X187302Y181002D01*
X186475Y181555D01*
X185500Y181749D01*
D02*
G37*
G36*
X32619Y176430D02*
X22270D01*
Y172081D01*
X28500D01*
X30076Y172394D01*
X31413Y173287D01*
X32306Y174624D01*
X32619Y176200D01*
Y176430D01*
D02*
G37*
G36*
X19730D02*
X9381D01*
Y176200D01*
X9694Y174624D01*
X10587Y173287D01*
X11924Y172394D01*
X13500Y172081D01*
X19730D01*
Y176430D01*
D02*
G37*
G36*
X115640Y170784D02*
X114372Y170531D01*
X113297Y169813D01*
X112579Y168738D01*
X112326Y167470D01*
X112579Y166202D01*
X113297Y165127D01*
X114372Y164409D01*
X115640Y164156D01*
X116908Y164409D01*
X117983Y165127D01*
X118098Y165299D01*
X119625D01*
X119747Y165117D01*
X120822Y164399D01*
X122090Y164146D01*
X123358Y164399D01*
X124433Y165117D01*
X125151Y166192D01*
X125404Y167460D01*
X125151Y168728D01*
X124433Y169803D01*
X123358Y170521D01*
X122090Y170774D01*
X120822Y170521D01*
X119747Y169803D01*
X119632Y169631D01*
X118105D01*
X117983Y169813D01*
X116908Y170531D01*
X115640Y170784D01*
D02*
G37*
G36*
X185500Y170749D02*
X170500D01*
X169525Y170555D01*
X168698Y170002D01*
X168145Y169175D01*
X167951Y168200D01*
Y165200D01*
X168145Y164225D01*
X168698Y163398D01*
X169525Y162845D01*
X170500Y162651D01*
X185500D01*
X186475Y162845D01*
X187302Y163398D01*
X187855Y164225D01*
X188049Y165200D01*
Y168200D01*
X187855Y169175D01*
X187302Y170002D01*
X186475Y170555D01*
X185500Y170749D01*
D02*
G37*
G36*
X28500D02*
X13500D01*
X12525Y170555D01*
X11698Y170002D01*
X11145Y169175D01*
X10951Y168200D01*
Y165200D01*
X11145Y164225D01*
X11698Y163398D01*
X12525Y162845D01*
X13500Y162651D01*
X28500D01*
X29475Y162845D01*
X30302Y163398D01*
X30855Y164225D01*
X31049Y165200D01*
Y168200D01*
X30855Y169175D01*
X30302Y170002D01*
X29475Y170555D01*
X28500Y170749D01*
D02*
G37*
G36*
X79000Y292249D02*
X76000D01*
X75025Y292055D01*
X74198Y291502D01*
X73645Y290675D01*
X73451Y289700D01*
Y274700D01*
X73645Y273725D01*
X74198Y272898D01*
X75025Y272345D01*
X75461Y272258D01*
Y186320D01*
X75616Y185540D01*
X76058Y184878D01*
X97168Y163769D01*
X97096Y163410D01*
X97349Y162142D01*
X98067Y161067D01*
X99142Y160349D01*
X100410Y160096D01*
X101678Y160349D01*
X102753Y161067D01*
X103471Y162142D01*
X103724Y163410D01*
X103471Y164678D01*
X102753Y165753D01*
X101678Y166471D01*
X100410Y166724D01*
X100051Y166652D01*
X79539Y187165D01*
Y272258D01*
X79975Y272345D01*
X80802Y272898D01*
X81355Y273725D01*
X81549Y274700D01*
Y289700D01*
X81355Y290675D01*
X80802Y291502D01*
X79975Y292055D01*
X79000Y292249D01*
D02*
G37*
G36*
X185500Y159749D02*
X170500D01*
X169525Y159555D01*
X168698Y159002D01*
X168145Y158175D01*
X167951Y157200D01*
Y154200D01*
X168145Y153225D01*
X168698Y152398D01*
X169525Y151845D01*
X170500Y151651D01*
X185500D01*
X186475Y151845D01*
X187302Y152398D01*
X187855Y153225D01*
X188049Y154200D01*
Y157200D01*
X187855Y158175D01*
X187302Y159002D01*
X186475Y159555D01*
X185500Y159749D01*
D02*
G37*
G36*
X28500D02*
X13500D01*
X12525Y159555D01*
X11698Y159002D01*
X11145Y158175D01*
X10951Y157200D01*
Y154200D01*
X11145Y153225D01*
X11698Y152398D01*
X12525Y151845D01*
X13500Y151651D01*
X28500D01*
X29475Y151845D01*
X30302Y152398D01*
X30855Y153225D01*
X31049Y154200D01*
Y157200D01*
X30855Y158175D01*
X30302Y159002D01*
X29475Y159555D01*
X28500Y159749D01*
D02*
G37*
G36*
X185500Y148749D02*
X170500D01*
X169525Y148555D01*
X168698Y148002D01*
X168145Y147175D01*
X167951Y146200D01*
Y143200D01*
X168145Y142225D01*
X168698Y141398D01*
X169525Y140845D01*
X170500Y140651D01*
X185500D01*
X186475Y140845D01*
X187302Y141398D01*
X187855Y142225D01*
X188049Y143200D01*
Y146200D01*
X187855Y147175D01*
X187302Y148002D01*
X186475Y148555D01*
X185500Y148749D01*
D02*
G37*
G36*
X28500D02*
X13500D01*
X12525Y148555D01*
X11698Y148002D01*
X11145Y147175D01*
X10951Y146200D01*
Y143200D01*
X11145Y142225D01*
X11698Y141398D01*
X12525Y140845D01*
X13500Y140651D01*
X28500D01*
X29475Y140845D01*
X30302Y141398D01*
X30855Y142225D01*
X31049Y143200D01*
Y146200D01*
X30855Y147175D01*
X30302Y148002D01*
X29475Y148555D01*
X28500Y148749D01*
D02*
G37*
G36*
X148550Y143274D02*
X147282Y143021D01*
X146207Y142303D01*
X145489Y141228D01*
X145236Y139960D01*
X145489Y138692D01*
X146207Y137617D01*
X147282Y136899D01*
X148550Y136646D01*
X149818Y136899D01*
X150893Y137617D01*
X151611Y138692D01*
X151864Y139960D01*
X151611Y141228D01*
X150893Y142303D01*
X149818Y143021D01*
X148550Y143274D01*
D02*
G37*
G36*
X185500Y137749D02*
X170500D01*
X169525Y137555D01*
X168698Y137002D01*
X168145Y136175D01*
X167951Y135200D01*
Y132200D01*
X168145Y131225D01*
X168698Y130398D01*
X169525Y129845D01*
X170500Y129651D01*
X185500D01*
X186475Y129845D01*
X187302Y130398D01*
X187855Y131225D01*
X188049Y132200D01*
Y135200D01*
X187855Y136175D01*
X187302Y137002D01*
X186475Y137555D01*
X185500Y137749D01*
D02*
G37*
G36*
X28500D02*
X13500D01*
X12525Y137555D01*
X11698Y137002D01*
X11145Y136175D01*
X10951Y135200D01*
Y132200D01*
X11145Y131225D01*
X11698Y130398D01*
X12525Y129845D01*
X13500Y129651D01*
X28500D01*
X29475Y129845D01*
X30302Y130398D01*
X30855Y131225D01*
X31049Y132200D01*
Y135200D01*
X30855Y136175D01*
X30302Y137002D01*
X29475Y137555D01*
X28500Y137749D01*
D02*
G37*
G36*
X80000Y162839D02*
X51000D01*
X50220Y162684D01*
X49558Y162242D01*
X49558Y162242D01*
X40108Y152792D01*
X39666Y152130D01*
X39511Y151350D01*
Y140000D01*
X39666Y139220D01*
X40108Y138558D01*
X44148Y134518D01*
X44148Y134518D01*
X44810Y134076D01*
X45590Y133921D01*
X45590Y133921D01*
X53970D01*
X54750Y134076D01*
X55412Y134518D01*
X58512Y137618D01*
X58512Y137618D01*
X58954Y138280D01*
X59109Y139060D01*
X59109Y139060D01*
Y140164D01*
X59413Y140367D01*
X60131Y141442D01*
X60384Y142710D01*
X60131Y143978D01*
X59413Y145053D01*
X58338Y145771D01*
X57070Y146024D01*
X55802Y145771D01*
X54727Y145053D01*
X54009Y143978D01*
X53756Y142710D01*
X54009Y141442D01*
X54727Y140367D01*
X54271Y139144D01*
X53125Y137999D01*
X46435D01*
X43589Y140845D01*
Y150505D01*
X51845Y158761D01*
X79155D01*
X108461Y129455D01*
Y116142D01*
X108025Y116055D01*
X107198Y115502D01*
X106645Y114675D01*
X106451Y113700D01*
Y98700D01*
X106645Y97725D01*
X107198Y96898D01*
X108025Y96345D01*
X109000Y96151D01*
X112000D01*
X112975Y96345D01*
X113802Y96898D01*
X114355Y97725D01*
X114549Y98700D01*
Y113700D01*
X114355Y114675D01*
X113802Y115502D01*
X112975Y116055D01*
X112539Y116142D01*
Y124490D01*
X113809Y124615D01*
X114029Y123512D01*
X114747Y122437D01*
X115822Y121719D01*
X117090Y121466D01*
X118358Y121719D01*
X119433Y122437D01*
X120151Y123512D01*
X120166Y123583D01*
X121460D01*
X121479Y123492D01*
X122197Y122417D01*
X123272Y121699D01*
X124540Y121446D01*
X125808Y121699D01*
X126883Y122417D01*
X127601Y123492D01*
X127854Y124760D01*
X127601Y126028D01*
X126883Y127103D01*
X125808Y127821D01*
X124540Y128074D01*
X123272Y127821D01*
X122197Y127103D01*
X121479Y126028D01*
X121464Y125957D01*
X120169D01*
X120151Y126048D01*
X119433Y127123D01*
X118358Y127841D01*
X117090Y128094D01*
X115822Y127841D01*
X114747Y127123D01*
X114029Y126048D01*
X113809Y124945D01*
X112539Y125070D01*
Y130300D01*
X112539Y130300D01*
X112384Y131080D01*
X111942Y131742D01*
X111942Y131742D01*
X105538Y138146D01*
X105956Y139524D01*
X105978Y139529D01*
X107053Y140247D01*
X107771Y141322D01*
X108024Y142590D01*
X107771Y143858D01*
X107053Y144933D01*
X105978Y145651D01*
X104710Y145904D01*
X103442Y145651D01*
X102367Y144933D01*
X101649Y143858D01*
X101644Y143836D01*
X100266Y143418D01*
X81442Y162242D01*
X80780Y162684D01*
X80000Y162839D01*
D02*
G37*
G36*
X34500Y123764D02*
X33232Y123511D01*
X32157Y122793D01*
X31439Y121718D01*
X31186Y120450D01*
X31439Y119182D01*
X32157Y118107D01*
X33232Y117389D01*
X34500Y117136D01*
X35768Y117389D01*
X36843Y118107D01*
X37561Y119182D01*
X37814Y120450D01*
X37561Y121718D01*
X36843Y122793D01*
X35768Y123511D01*
X34500Y123764D01*
D02*
G37*
G36*
X145000Y117819D02*
X144770D01*
Y107470D01*
X149119D01*
Y113700D01*
X148806Y115276D01*
X147913Y116613D01*
X146576Y117506D01*
X145000Y117819D01*
D02*
G37*
G36*
X123000D02*
X122770D01*
Y107470D01*
X127119D01*
Y113700D01*
X126806Y115276D01*
X125913Y116613D01*
X124576Y117506D01*
X123000Y117819D01*
D02*
G37*
G36*
X142230D02*
X142000D01*
X140424Y117506D01*
X139087Y116613D01*
X138194Y115276D01*
X137881Y113700D01*
Y107470D01*
X142230D01*
Y117819D01*
D02*
G37*
G36*
X120230D02*
X120000D01*
X118424Y117506D01*
X117087Y116613D01*
X116194Y115276D01*
X115881Y113700D01*
Y107470D01*
X120230D01*
Y117819D01*
D02*
G37*
G36*
X52210Y123734D02*
X50942Y123481D01*
X49867Y122763D01*
X49149Y121688D01*
X48969Y120783D01*
X43498Y115312D01*
X42945Y114486D01*
X42751Y113510D01*
Y95810D01*
X42945Y94834D01*
X43498Y94008D01*
X48758Y88748D01*
X49584Y88195D01*
X50560Y88001D01*
X70964D01*
X71351Y87614D01*
Y84526D01*
X71044Y84219D01*
X68845D01*
X68755Y84435D01*
X67990Y84752D01*
X63990D01*
X63225Y84435D01*
X62271Y84752D01*
X60271D01*
X59505Y84435D01*
X59188Y83670D01*
Y81858D01*
X59151Y81670D01*
Y74803D01*
X58988Y74410D01*
Y70410D01*
X59231Y69823D01*
Y68219D01*
X55955D01*
Y73680D01*
X55955Y73680D01*
X56003Y74930D01*
X56391Y75512D01*
X56644Y76780D01*
X56391Y78048D01*
X55673Y79123D01*
X54598Y79841D01*
X53330Y80094D01*
X52252Y79879D01*
X51683Y80124D01*
X50982Y80647D01*
Y82910D01*
X50665Y83675D01*
X49899Y83992D01*
X47899D01*
X47899Y83992D01*
X47899Y83992D01*
X47040Y83707D01*
X46180Y83992D01*
X42180D01*
X41415Y83675D01*
X41098Y82910D01*
Y80740D01*
X39828Y80061D01*
X39468Y80301D01*
X38200Y80554D01*
X36932Y80301D01*
X35857Y79583D01*
X35139Y78508D01*
X34886Y77240D01*
X35139Y75972D01*
X35821Y74950D01*
X35793Y74810D01*
X35455Y73680D01*
X35455D01*
Y68680D01*
Y58219D01*
X33445D01*
X32207Y59457D01*
X32213Y59517D01*
X32931Y60592D01*
X33184Y61860D01*
X32931Y63128D01*
X32213Y64203D01*
X31138Y64921D01*
X29870Y65174D01*
X28602Y64921D01*
X27527Y64203D01*
X26809Y63128D01*
X26556Y61860D01*
X26809Y60592D01*
X27527Y59517D01*
X27831Y59314D01*
Y58910D01*
X27986Y58130D01*
X28428Y57468D01*
X31158Y54738D01*
X31158Y54738D01*
X31820Y54296D01*
X32600Y54141D01*
X35455D01*
Y53680D01*
X39165D01*
Y51890D01*
X41935D01*
Y56055D01*
X44475D01*
Y51890D01*
X46935D01*
Y56055D01*
X49475D01*
Y51890D01*
X52060D01*
Y56180D01*
X54600D01*
Y52140D01*
X57300D01*
X57495Y52140D01*
X58570Y51669D01*
Y51080D01*
X62840D01*
Y55620D01*
X64110D01*
Y56890D01*
X69650D01*
Y60160D01*
X69189D01*
X68110Y60620D01*
X68110Y61430D01*
Y66620D01*
X63994D01*
X63309Y67305D01*
Y69007D01*
X63790Y69328D01*
X67790D01*
X68555Y69645D01*
X68564Y69667D01*
X69001Y69823D01*
X70029Y69952D01*
X70872Y69389D01*
X72140Y69136D01*
X73408Y69389D01*
X74483Y70107D01*
X75201Y71182D01*
X75454Y72450D01*
X75201Y73718D01*
X74483Y74793D01*
X73408Y75511D01*
X72140Y75764D01*
X70872Y75511D01*
X70025Y74945D01*
X68930Y75060D01*
X68555Y75175D01*
X67790Y75492D01*
X63790D01*
X63229Y75867D01*
Y78079D01*
X63990Y78588D01*
X67990D01*
X68755Y78905D01*
X68845Y79121D01*
X72100D01*
X73075Y79315D01*
X73902Y79868D01*
X75702Y81668D01*
X76255Y82495D01*
X76449Y83470D01*
Y88670D01*
X76255Y89645D01*
X75702Y90472D01*
X73822Y92352D01*
X72996Y92905D01*
X72020Y93099D01*
X51616D01*
X47849Y96866D01*
Y112319D01*
X48762Y113054D01*
X49881Y112572D01*
Y107470D01*
X55500D01*
X61119D01*
Y113700D01*
X60806Y115276D01*
X59913Y116613D01*
X58576Y117506D01*
X57000Y117819D01*
X55908D01*
X55230Y119089D01*
X55271Y119152D01*
X55524Y120420D01*
X55271Y121688D01*
X54553Y122763D01*
X53478Y123481D01*
X52210Y123734D01*
D02*
G37*
G36*
X184850Y109250D02*
X180580D01*
Y105980D01*
X184850D01*
Y109250D01*
D02*
G37*
G36*
X178040D02*
X173770D01*
Y105980D01*
X178040D01*
Y109250D01*
D02*
G37*
G36*
X134000Y116249D02*
X131000D01*
X130025Y116055D01*
X129198Y115502D01*
X128645Y114675D01*
X128451Y113700D01*
Y98700D01*
X128645Y97725D01*
X129198Y96898D01*
X130025Y96345D01*
X131000Y96151D01*
X134000D01*
X134975Y96345D01*
X135802Y96898D01*
X136355Y97725D01*
X136549Y98700D01*
Y113700D01*
X136355Y114675D01*
X135802Y115502D01*
X134975Y116055D01*
X134000Y116249D01*
D02*
G37*
G36*
X53770Y155869D02*
X52990Y155714D01*
X52328Y155272D01*
X52328Y155272D01*
X47118Y150062D01*
X46676Y149400D01*
X46521Y148620D01*
Y145516D01*
X46217Y145313D01*
X45499Y144238D01*
X45246Y142970D01*
X45499Y141702D01*
X46217Y140627D01*
X47292Y139909D01*
X48560Y139656D01*
X49828Y139909D01*
X50903Y140627D01*
X51621Y141702D01*
X51874Y142970D01*
X51621Y144238D01*
X50903Y145313D01*
X50599Y145516D01*
Y147775D01*
X54615Y151791D01*
X65898D01*
X65932Y151749D01*
X66357Y150521D01*
X64448Y148612D01*
X64006Y147950D01*
X63851Y147170D01*
Y145296D01*
X63547Y145093D01*
X62829Y144018D01*
X62576Y142750D01*
X62829Y141482D01*
X63547Y140407D01*
X64622Y139689D01*
X65890Y139436D01*
X67158Y139689D01*
X68233Y140407D01*
X68951Y141482D01*
X69204Y142750D01*
X68951Y144018D01*
X68233Y145093D01*
X68152Y145147D01*
X68069Y146465D01*
X68955Y147351D01*
X73868D01*
X74062Y147042D01*
X73451Y145625D01*
X73282Y145591D01*
X72207Y144873D01*
X71489Y143798D01*
X71236Y142530D01*
X71489Y141262D01*
X72207Y140187D01*
X73282Y139469D01*
X74550Y139216D01*
X75461Y138245D01*
Y116142D01*
X75025Y116055D01*
X74198Y115502D01*
X73645Y114675D01*
X73451Y113700D01*
Y98700D01*
X73645Y97725D01*
X74198Y96898D01*
X75025Y96345D01*
X76000Y96151D01*
X79000D01*
X79975Y96345D01*
X80802Y96898D01*
X81355Y97725D01*
X81549Y98700D01*
Y113700D01*
X81355Y114675D01*
X80802Y115502D01*
X79975Y116055D01*
X79539Y116142D01*
Y139580D01*
X79539Y139580D01*
X79384Y140360D01*
X78942Y141022D01*
X78942Y141022D01*
X78528Y141436D01*
X78510Y141478D01*
X78566Y141784D01*
X79935Y142211D01*
X86461Y135685D01*
Y116142D01*
X86025Y116055D01*
X85198Y115502D01*
X84645Y114675D01*
X84451Y113700D01*
Y98700D01*
X84645Y97725D01*
X85198Y96898D01*
X86025Y96345D01*
X87000Y96151D01*
X90000D01*
X90975Y96345D01*
X91802Y96898D01*
X92355Y97725D01*
X92549Y98700D01*
Y113700D01*
X92355Y114675D01*
X91802Y115502D01*
X90975Y116055D01*
X90539Y116142D01*
Y134190D01*
X91713Y134676D01*
X97461Y128928D01*
Y116142D01*
X97025Y116055D01*
X96198Y115502D01*
X95645Y114675D01*
X95451Y113700D01*
Y98700D01*
X95645Y97725D01*
X96198Y96898D01*
X97025Y96345D01*
X98000Y96151D01*
X101000D01*
X101975Y96345D01*
X102802Y96898D01*
X103355Y97725D01*
X103549Y98700D01*
Y113700D01*
X103355Y114675D01*
X102802Y115502D01*
X101975Y116055D01*
X101539Y116142D01*
Y129773D01*
X101539Y129773D01*
X101384Y130553D01*
X100942Y131215D01*
X100942Y131215D01*
X76885Y155272D01*
X76223Y155714D01*
X75443Y155869D01*
X53770D01*
X53770Y155869D01*
D02*
G37*
G36*
X68000Y116249D02*
X65000D01*
X64025Y116055D01*
X63198Y115502D01*
X62645Y114675D01*
X62451Y113700D01*
Y98700D01*
X62645Y97725D01*
X63198Y96898D01*
X64025Y96345D01*
X65000Y96151D01*
X68000D01*
X68976Y96345D01*
X69802Y96898D01*
X70355Y97725D01*
X70549Y98700D01*
Y113700D01*
X70355Y114675D01*
X69802Y115502D01*
X68976Y116055D01*
X68000Y116249D01*
D02*
G37*
G36*
X127119Y104930D02*
X122770D01*
Y94581D01*
X123000D01*
X124576Y94894D01*
X125913Y95787D01*
X126806Y97124D01*
X127119Y98700D01*
Y104930D01*
D02*
G37*
G36*
X120230D02*
X115881D01*
Y98700D01*
X116194Y97124D01*
X117087Y95787D01*
X118424Y94894D01*
X120000Y94581D01*
X120230D01*
Y104930D01*
D02*
G37*
G36*
X61119D02*
X56770D01*
Y94581D01*
X57000D01*
X58576Y94894D01*
X59913Y95787D01*
X60806Y97124D01*
X61119Y98700D01*
Y104930D01*
D02*
G37*
G36*
X54230D02*
X49881D01*
Y98700D01*
X50194Y97124D01*
X51087Y95787D01*
X52424Y94894D01*
X54000Y94581D01*
X54230D01*
Y104930D01*
D02*
G37*
G36*
X85100Y83220D02*
X81830D01*
Y78950D01*
X85100D01*
Y83220D01*
D02*
G37*
G36*
Y76410D02*
X81830D01*
Y72140D01*
X85100D01*
Y76410D01*
D02*
G37*
G36*
X85150Y68130D02*
X81880D01*
Y63860D01*
X85150D01*
Y68130D01*
D02*
G37*
G36*
Y61320D02*
X81880D01*
Y57050D01*
X85150D01*
Y61320D01*
D02*
G37*
G36*
X69650Y54350D02*
X65380D01*
Y51080D01*
X69650D01*
Y54350D01*
D02*
G37*
G36*
X26910Y42960D02*
X23640D01*
Y38690D01*
X26910D01*
Y42960D01*
D02*
G37*
G36*
Y36150D02*
X23640D01*
Y31880D01*
X26910D01*
Y36150D01*
D02*
G37*
G36*
X116100Y33714D02*
X114832Y33461D01*
X113757Y32743D01*
X113039Y31668D01*
X112786Y30400D01*
X112130Y29600D01*
X112100D01*
Y23600D01*
X120100D01*
Y29600D01*
X120070D01*
X119414Y30400D01*
X119161Y31668D01*
X118443Y32743D01*
X117368Y33461D01*
X116100Y33714D01*
D02*
G37*
G36*
X103510Y33974D02*
X102242Y33721D01*
X101167Y33003D01*
X100449Y31928D01*
X100196Y30660D01*
X100232Y30480D01*
X99510Y29600D01*
X99510D01*
Y23600D01*
X107510D01*
Y29600D01*
X107510D01*
X106788Y30480D01*
X106824Y30660D01*
X106571Y31928D01*
X105853Y33003D01*
X104778Y33721D01*
X103510Y33974D01*
D02*
G37*
G36*
X90810Y33964D02*
X89542Y33712D01*
X88467Y32994D01*
X87749Y31918D01*
X87497Y30650D01*
X87531Y30478D01*
X86810Y29600D01*
X86810D01*
Y23600D01*
X94810D01*
Y29600D01*
X94810D01*
X94090Y30478D01*
X94124Y30650D01*
X93872Y31918D01*
X93153Y32994D01*
X92079Y33712D01*
X90810Y33964D01*
D02*
G37*
G36*
X78160Y33574D02*
X76892Y33321D01*
X75817Y32603D01*
X75099Y31528D01*
X74846Y30260D01*
X74304Y29600D01*
X74150D01*
Y23600D01*
X82150D01*
Y29600D01*
X82015D01*
X81474Y30260D01*
X81221Y31528D01*
X80503Y32603D01*
X79428Y33321D01*
X78160Y33574D01*
D02*
G37*
G36*
X130170Y13396D02*
Y9270D01*
X134296D01*
X134119Y10162D01*
X132894Y11994D01*
X131062Y13219D01*
X130170Y13396D01*
D02*
G37*
G36*
X127630D02*
X126738Y13219D01*
X124906Y11994D01*
X123681Y10162D01*
X123504Y9270D01*
X127630D01*
Y13396D01*
D02*
G37*
G36*
X15000Y27104D02*
X11867Y26691D01*
X8948Y25482D01*
X6442Y23558D01*
X4518Y21052D01*
X3309Y18133D01*
X2896Y15000D01*
X3309Y11867D01*
X4518Y8948D01*
X6442Y6442D01*
X8948Y4518D01*
X11867Y3309D01*
X15000Y2896D01*
X18133Y3309D01*
X21052Y4518D01*
X23558Y6442D01*
X25482Y8948D01*
X26691Y11867D01*
X27104Y15000D01*
X26691Y18133D01*
X25482Y21052D01*
X23558Y23558D01*
X21052Y25482D01*
X18133Y26691D01*
X15000Y27104D01*
D02*
G37*
%LPD*%
G36*
X67990Y79670D02*
X63990D01*
X65990Y81670D01*
X63990Y83670D01*
X67990D01*
Y79670D01*
D02*
G37*
G36*
X64271Y81670D02*
X62271Y79670D01*
X60271D01*
Y83670D01*
X62271D01*
X64271Y81670D01*
D02*
G37*
G36*
X49899Y78910D02*
X47899D01*
X45899Y80910D01*
X47899Y82910D01*
X49899D01*
Y78910D01*
D02*
G37*
G36*
X44180Y80910D02*
X46180Y78910D01*
X42180D01*
Y82910D01*
X46180D01*
X44180Y80910D01*
D02*
G37*
G36*
X67790Y70410D02*
X63790D01*
X65790Y72410D01*
X63790Y74410D01*
X67790D01*
Y70410D01*
D02*
G37*
G36*
X64070Y72410D02*
X62070Y70410D01*
X60070D01*
Y74410D01*
X62070D01*
X64070Y72410D01*
D02*
G37*
D12*
X178000Y243700D02*
X212300D01*
D14*
X154300Y8000D02*
X160300Y14000D01*
X183446Y29843D02*
Y39350D01*
Y29843D02*
X184900Y28390D01*
Y21657D02*
Y28390D01*
X187700Y31600D02*
X190200D01*
X190220Y31580D01*
X187700Y31600D02*
X190100D01*
X190300Y31800D01*
X190220Y31580D02*
X195000D01*
X181900Y22900D02*
Y26700D01*
X179140Y29460D02*
X181900Y26700D01*
X179140Y29460D02*
Y42550D01*
X183650Y47550D02*
X185350Y45850D01*
Y41254D02*
Y45850D01*
X183446Y39350D02*
X185350Y41254D01*
X179700Y16457D02*
X184900Y21657D01*
X195040Y229050D02*
X200940D01*
X43330Y56180D02*
X53330D01*
X121390Y62550D02*
X131140D01*
X214650Y258550D02*
Y279070D01*
X191390Y232700D02*
X195040Y229050D01*
X214650Y279070D02*
X217700Y282120D01*
X61190Y72490D02*
Y81670D01*
X234788Y216674D02*
X235055D01*
X28180Y28280D02*
X29960Y26500D01*
X190810Y254700D02*
X194660Y258550D01*
X115050Y47510D02*
X131100D01*
X120410Y57580D02*
X131110D01*
X162640Y84050D02*
Y92680D01*
X157640Y84050D02*
Y95440D01*
X126020Y77550D02*
X131140D01*
X116000Y67550D02*
X131140D01*
X121530Y42550D02*
X131140D01*
X121640Y52550D02*
X131140D01*
X172600Y19600D02*
Y29100D01*
X167000Y14000D02*
X172600Y19600D01*
X160300Y14000D02*
X167000D01*
X194660Y258550D02*
X214650D01*
X178000Y254700D02*
X190810D01*
X53330Y71180D02*
Y76780D01*
X28180Y28280D02*
Y37420D01*
X200940Y229050D02*
X203140Y231250D01*
X209270Y227290D02*
X212890D01*
X214650Y229050D01*
X206780Y229780D02*
X209270Y227290D01*
X206780Y229780D02*
Y231130D01*
X206660Y231250D02*
X206780Y231130D01*
X167000Y8000D02*
X181900Y22900D01*
X179700Y8000D02*
Y16457D01*
X172600Y29100D02*
Y36100D01*
X167000Y8000D02*
X168872D01*
X78150Y8050D02*
Y18600D01*
X90810Y8010D02*
Y18600D01*
X103510Y8010D02*
Y18600D01*
X157640Y26060D02*
Y36050D01*
X103510Y26600D02*
Y30660D01*
X90810Y26600D02*
Y30650D01*
X147640Y29990D02*
Y36050D01*
Y29990D02*
X148330Y29300D01*
X78160Y26610D02*
Y30260D01*
X78150Y26600D02*
X78160Y26610D01*
X94370Y77680D02*
X110850D01*
X94420Y62590D02*
X110940D01*
X86370Y62640D02*
Y77680D01*
X115980Y72550D02*
X131140D01*
X110990Y77540D02*
X115980Y72550D01*
X179140D02*
X184990D01*
X179140Y77550D02*
Y81050D01*
X152640Y23770D02*
Y36050D01*
X179140Y67550D02*
X187640D01*
X188170Y67020D01*
X132460Y85970D02*
X134380Y84050D01*
X137640D01*
X65890Y142750D02*
Y147170D01*
X48560Y142970D02*
Y148620D01*
X57070Y139060D02*
Y142710D01*
X53970Y135960D02*
X57070Y139060D01*
X45590Y135960D02*
X53970D01*
X41550Y140000D02*
X45590Y135960D01*
X65890Y147170D02*
X68110Y149390D01*
X77500Y186320D02*
Y282200D01*
Y186320D02*
X100410Y163410D01*
X110990Y62540D02*
X116000Y67550D01*
X120730Y63210D02*
X121390Y62550D01*
X88420Y268280D02*
Y282120D01*
X88500Y282200D01*
X37290Y26500D02*
X47270D01*
X48090Y27320D01*
Y30400D01*
X37290Y26500D02*
Y31370D01*
X36070Y32590D02*
X37290Y31370D01*
X36070Y32590D02*
Y37310D01*
X36180Y37420D01*
X29960Y26500D02*
X33290D01*
X142640Y28640D02*
Y36050D01*
X140620Y26620D02*
X142640Y28640D01*
X72100Y72410D02*
X72140Y72450D01*
X66790Y72410D02*
X72100D01*
X53330Y66180D02*
Y71180D01*
X61190Y72490D02*
X61270Y72410D01*
X48700Y71800D02*
Y80910D01*
X48205Y71305D02*
X48700Y71800D01*
X35290Y20000D02*
X38940D01*
X41150Y22210D01*
X46250D01*
Y16690D02*
X57140D01*
X42000D02*
X46250D01*
X40000Y14690D02*
X42000Y16690D01*
X40000Y8000D02*
Y14690D01*
X48090Y30400D02*
X55760D01*
X57140Y29020D01*
Y22210D02*
Y29020D01*
X154260Y98820D02*
X157640Y95440D01*
X162640Y92680D02*
X163690Y93730D01*
X53330Y56180D02*
Y61180D01*
X28180Y37420D02*
Y43420D01*
X32470Y47710D01*
X40760D01*
X43205Y50155D01*
Y56055D01*
X53330Y56180D02*
X63550D01*
X61270Y66460D02*
Y72410D01*
Y66460D02*
X64110Y63620D01*
X53330Y66180D02*
X60990D01*
X29870Y58910D02*
Y61860D01*
Y58910D02*
X32600Y56180D01*
X38080D01*
Y61180D02*
Y66180D01*
X53330D01*
X167640Y24520D02*
Y36050D01*
X38200Y71300D02*
Y77240D01*
X38080Y71180D02*
X38200Y71300D01*
X43205Y71305D02*
X43703Y71803D01*
Y75567D01*
X43180Y76091D02*
Y80910D01*
Y76091D02*
X43703Y75567D01*
X21000Y254700D02*
X53850D01*
X21000Y243700D02*
X53810D01*
X189600Y293200D02*
X189700Y293300D01*
X171500Y289200D02*
X177830D01*
X181730Y285300D01*
X189700D01*
X203700Y293300D02*
X205000Y292000D01*
X150770Y21900D02*
X152640Y23770D01*
X149870Y22800D02*
X150770Y21900D01*
X147910Y22800D02*
X149870D01*
X131110Y57580D02*
X131140Y57550D01*
X115110Y52280D02*
X120410Y57580D01*
X132470Y37670D02*
X134090Y36050D01*
X115010Y47550D02*
X115050Y47510D01*
X131100D02*
X131140Y47550D01*
X120850Y51760D02*
X121640Y52550D01*
X189700Y279010D02*
X189940Y278770D01*
Y285060D01*
X74550Y142530D02*
X77500Y139580D01*
Y106200D02*
Y139580D01*
X68110Y149390D02*
X75640D01*
X88500Y136530D01*
Y106200D02*
Y136530D01*
X48560Y148620D02*
X53770Y153830D01*
X179310Y89650D02*
Y96710D01*
X173040Y89650D02*
X179310D01*
X172640Y89250D02*
X173040Y89650D01*
X172640Y84050D02*
Y89250D01*
X147350Y84340D02*
X147640Y84050D01*
Y91900D01*
X147350Y92190D02*
X147640Y91900D01*
X178000Y232700D02*
X191390D01*
X217700Y282120D02*
Y292000D01*
X171500Y293200D02*
X189600D01*
X179140Y47550D02*
X183650D01*
X41550Y140000D02*
Y151350D01*
X51000Y160800D01*
X80000D01*
X53770Y153830D02*
X75443D01*
X99500Y129773D01*
Y106200D02*
Y129773D01*
X110500Y106200D02*
Y130300D01*
X80000Y160800D02*
X110500Y130300D01*
X116100Y8100D02*
Y18600D01*
Y26600D02*
Y30400D01*
X134090Y36050D02*
X137640D01*
X48090Y38400D02*
X68700D01*
X82580Y52280D01*
X115110D01*
X164800Y101400D02*
Y113700D01*
X167600Y84100D02*
Y91630D01*
X167940Y91970D01*
Y98260D01*
X164800Y101400D02*
X167940Y98260D01*
X162600Y36100D02*
X162700Y36000D01*
Y28900D02*
Y36000D01*
X203140Y231250D02*
X206660D01*
D17*
X94370Y77680D02*
D03*
X86370D02*
D03*
X94420Y62590D02*
D03*
X86420D02*
D03*
X28180Y37420D02*
D03*
X36180D02*
D03*
D18*
X110990Y77540D02*
D03*
Y62540D02*
D03*
D19*
X55500Y282200D02*
D03*
X66500D02*
D03*
X77500D02*
D03*
X88500D02*
D03*
X99500D02*
D03*
X110500D02*
D03*
X121500D02*
D03*
X132500D02*
D03*
X143500D02*
D03*
Y106200D02*
D03*
X132500D02*
D03*
X121500D02*
D03*
X110500D02*
D03*
X99500D02*
D03*
X88500D02*
D03*
X77500D02*
D03*
X66500D02*
D03*
X55500D02*
D03*
D20*
X178000Y254700D02*
D03*
Y243700D02*
D03*
Y232700D02*
D03*
Y221700D02*
D03*
Y210700D02*
D03*
Y199700D02*
D03*
Y188700D02*
D03*
Y177700D02*
D03*
Y166700D02*
D03*
Y155700D02*
D03*
Y144700D02*
D03*
Y133700D02*
D03*
X21000D02*
D03*
Y144700D02*
D03*
Y155700D02*
D03*
Y166700D02*
D03*
Y177700D02*
D03*
Y188700D02*
D03*
Y199700D02*
D03*
Y210700D02*
D03*
Y221700D02*
D03*
Y232700D02*
D03*
Y243700D02*
D03*
Y254700D02*
D03*
D21*
X212400Y243800D02*
D03*
D22*
X227650Y229050D02*
D03*
Y258550D02*
D03*
D23*
X171500Y293200D02*
D03*
Y289200D02*
D03*
D24*
X165000Y291200D02*
D03*
D25*
X244000Y168580D02*
D03*
Y146580D02*
D03*
X217600Y121580D02*
D03*
X244000D02*
D03*
X217600Y99580D02*
D03*
X244000Y74580D02*
D03*
X195000Y52580D02*
D03*
X217600Y74580D02*
D03*
X244000Y99580D02*
D03*
X217600Y146580D02*
D03*
X204600Y168580D02*
D03*
D26*
X244000Y31580D02*
D03*
X195000D02*
D03*
D27*
X189700Y285300D02*
D03*
Y293300D02*
D03*
X78150Y18600D02*
D03*
Y26600D02*
D03*
X90810Y18600D02*
D03*
Y26600D02*
D03*
X103510Y18600D02*
D03*
Y26600D02*
D03*
X179310Y104710D02*
D03*
Y96710D02*
D03*
X64110Y55620D02*
D03*
Y63620D02*
D03*
X48090Y30400D02*
D03*
Y38400D02*
D03*
X116100Y26600D02*
D03*
Y18600D02*
D03*
D28*
X43205Y71305D02*
D03*
X48205D02*
D03*
Y56055D02*
D03*
X43205D02*
D03*
D29*
X53330Y71180D02*
D03*
Y66180D02*
D03*
Y61180D02*
D03*
Y56180D02*
D03*
X38080D02*
D03*
Y61180D02*
D03*
Y66180D02*
D03*
Y71180D02*
D03*
D30*
X66990Y81670D02*
D03*
X61470D02*
D03*
X66790Y72410D02*
D03*
X61270D02*
D03*
X43180Y80910D02*
D03*
X48700D02*
D03*
D31*
X35290Y20000D02*
D03*
D32*
X37290Y26500D02*
D03*
X33290D02*
D03*
D33*
X57140Y16690D02*
D03*
Y22210D02*
D03*
X46250Y16690D02*
D03*
Y22210D02*
D03*
D34*
X131100Y77600D02*
D03*
Y72600D02*
D03*
Y67600D02*
D03*
Y62600D02*
D03*
Y57600D02*
D03*
Y52600D02*
D03*
Y47600D02*
D03*
Y42600D02*
D03*
X179100D02*
D03*
Y47600D02*
D03*
Y52600D02*
D03*
Y57600D02*
D03*
Y62600D02*
D03*
Y67600D02*
D03*
Y72600D02*
D03*
Y77600D02*
D03*
D35*
X137600Y36100D02*
D03*
X142600D02*
D03*
X147600D02*
D03*
X152600D02*
D03*
X157600D02*
D03*
X162600D02*
D03*
X167600D02*
D03*
X172600D02*
D03*
Y84100D02*
D03*
X167600D02*
D03*
X162600D02*
D03*
X157600D02*
D03*
X152600D02*
D03*
X147600D02*
D03*
X142600D02*
D03*
X137600D02*
D03*
D36*
X155100Y60100D02*
D03*
D38*
X40000Y6000D02*
D03*
X65400D02*
D03*
X103500D02*
D03*
X90800D02*
D03*
X78100D02*
D03*
X217700Y294000D02*
D03*
X205000Y294000D02*
D03*
X116200Y6000D02*
D03*
X154300D02*
D03*
X167000D02*
D03*
X128900D02*
D03*
X52700D02*
D03*
X179700D02*
D03*
X141600Y6000D02*
D03*
D39*
X244000Y206000D02*
D03*
Y193300D02*
D03*
Y206000D02*
D03*
Y193300D02*
D03*
D58*
X229570Y206000D02*
X242000D01*
X244000Y146580D02*
Y168580D01*
X217600Y146580D02*
X244000D01*
X217600Y121580D02*
X244000D01*
Y99580D02*
Y121580D01*
X217600Y99580D02*
X244000D01*
X217600Y74580D02*
Y99580D01*
Y74580D02*
X244000D01*
X195000Y52580D02*
X243670D01*
X244000Y31580D02*
Y74580D01*
X217600Y121580D02*
Y146580D01*
X204600Y168580D02*
X244000D01*
X143500Y282200D02*
X150000D01*
X159000Y291200D02*
X163780D01*
X150000Y282200D02*
X159000Y291200D01*
D59*
X179140Y52550D02*
X194970D01*
D60*
X197020Y31580D02*
X242000D01*
D61*
X45300Y95810D02*
X50560Y90550D01*
X45300Y95810D02*
Y113510D01*
X52210Y120420D01*
X72100Y81670D02*
X73900Y83470D01*
X66990Y81670D02*
X72100D01*
X50560Y90550D02*
X72020D01*
X73900Y88670D01*
Y83470D02*
Y88670D01*
D62*
X182950Y57444D02*
D03*
D63*
X15000Y15000D02*
D03*
X235000Y285000D02*
D03*
D64*
X40000Y8000D02*
D03*
Y0D02*
D03*
X65400Y8000D02*
D03*
Y0D02*
D03*
X103500Y8000D02*
D03*
Y0D02*
D03*
X90800Y8000D02*
D03*
Y0D02*
D03*
X78100Y8000D02*
D03*
Y0D02*
D03*
X217700Y292000D02*
D03*
Y300000D02*
D03*
X205000Y292000D02*
D03*
Y300000D02*
D03*
X116200Y8000D02*
D03*
Y0D02*
D03*
X154300Y8000D02*
D03*
Y0D02*
D03*
X167000Y8000D02*
D03*
Y0D02*
D03*
X128900Y8000D02*
D03*
Y0D02*
D03*
X52700Y8000D02*
D03*
Y0D02*
D03*
X179700Y8000D02*
D03*
Y0D02*
D03*
X141600D02*
D03*
Y8000D02*
D03*
X250000Y206000D02*
D03*
X242000D02*
D03*
X250000Y193300D02*
D03*
X242000D02*
D03*
D65*
X177300Y24800D02*
D03*
X187700Y31600D02*
D03*
X190500Y58800D02*
D03*
X190000Y22700D02*
D03*
Y42400D02*
D03*
X194100Y95800D02*
D03*
X236100Y186300D02*
D03*
X241100Y176300D02*
D03*
X226100Y186300D02*
D03*
X231100Y176300D02*
D03*
X221100Y276300D02*
D03*
Y196300D02*
D03*
X216100Y186300D02*
D03*
X221100Y176300D02*
D03*
X211100Y276300D02*
D03*
Y216300D02*
D03*
X206100Y186300D02*
D03*
X211100Y176300D02*
D03*
X196100Y286300D02*
D03*
Y266300D02*
D03*
Y226300D02*
D03*
Y206300D02*
D03*
Y186300D02*
D03*
X201100Y176300D02*
D03*
X196100Y166300D02*
D03*
Y146300D02*
D03*
Y126300D02*
D03*
Y106300D02*
D03*
Y86300D02*
D03*
Y66300D02*
D03*
Y46300D02*
D03*
X191100Y236300D02*
D03*
Y196300D02*
D03*
Y176300D02*
D03*
Y156300D02*
D03*
Y136300D02*
D03*
X186100Y126300D02*
D03*
X191100Y116300D02*
D03*
Y76300D02*
D03*
Y16300D02*
D03*
X181100Y276300D02*
D03*
X171100Y116300D02*
D03*
X161100Y176300D02*
D03*
X156100Y146300D02*
D03*
X151100Y176300D02*
D03*
X146100Y166300D02*
D03*
Y126300D02*
D03*
X141100Y216300D02*
D03*
Y176300D02*
D03*
X136100Y166300D02*
D03*
X126100Y266300D02*
D03*
Y246300D02*
D03*
Y226300D02*
D03*
Y206300D02*
D03*
X131100Y176300D02*
D03*
X116100Y266300D02*
D03*
X121100Y256300D02*
D03*
Y236300D02*
D03*
Y216300D02*
D03*
X106100Y266300D02*
D03*
X111100Y176300D02*
D03*
X106100Y166300D02*
D03*
X111100Y136300D02*
D03*
X106100Y126300D02*
D03*
X96100Y266300D02*
D03*
Y246300D02*
D03*
Y206300D02*
D03*
X101100Y176300D02*
D03*
X96100Y86300D02*
D03*
X86100Y246300D02*
D03*
X91100Y236300D02*
D03*
X86100Y206300D02*
D03*
X91100Y156300D02*
D03*
X86100Y86300D02*
D03*
X81100Y36300D02*
D03*
X71100Y256300D02*
D03*
Y216300D02*
D03*
Y136300D02*
D03*
X66100Y126300D02*
D03*
X71100Y16300D02*
D03*
X61100Y256300D02*
D03*
Y136300D02*
D03*
X46100Y286300D02*
D03*
Y266300D02*
D03*
Y226300D02*
D03*
Y206300D02*
D03*
Y186300D02*
D03*
Y126300D02*
D03*
X36100Y286300D02*
D03*
X41100Y276300D02*
D03*
X36100Y266300D02*
D03*
X41100Y216300D02*
D03*
Y196300D02*
D03*
X36100Y126300D02*
D03*
X31100Y276300D02*
D03*
X26100Y86300D02*
D03*
Y66300D02*
D03*
Y26300D02*
D03*
X16100Y266300D02*
D03*
Y126300D02*
D03*
X21100Y116300D02*
D03*
X16100Y106300D02*
D03*
X21100Y96300D02*
D03*
X16100Y86300D02*
D03*
X21100Y76300D02*
D03*
X16100Y66300D02*
D03*
X21100Y56300D02*
D03*
X16100Y46300D02*
D03*
X21100Y36300D02*
D03*
X6100Y266300D02*
D03*
Y186300D02*
D03*
Y166300D02*
D03*
Y146300D02*
D03*
Y126300D02*
D03*
X11100Y116300D02*
D03*
X6100Y106300D02*
D03*
X11100Y96300D02*
D03*
X6100Y86300D02*
D03*
X11100Y76300D02*
D03*
X6100Y66300D02*
D03*
X11100Y56300D02*
D03*
X6100Y46300D02*
D03*
X11100Y36300D02*
D03*
X6100Y26300D02*
D03*
X191800Y248200D02*
D03*
X234788Y216674D02*
D03*
X53330Y76780D02*
D03*
X210760Y222640D02*
D03*
X172600Y29100D02*
D03*
X157640Y26060D02*
D03*
X103510Y30660D02*
D03*
X90810Y30650D02*
D03*
X148330Y29300D02*
D03*
X78160Y30260D02*
D03*
X184990Y72550D02*
D03*
X179140Y81050D02*
D03*
X126020Y77550D02*
D03*
X188170Y67020D02*
D03*
X132460Y85970D02*
D03*
X150470Y275300D02*
D03*
X161050Y277080D02*
D03*
X173760Y278500D02*
D03*
X138640Y186620D02*
D03*
X74550Y142530D02*
D03*
X147280Y186640D02*
D03*
X65890Y142750D02*
D03*
X156400Y186520D02*
D03*
X48560Y142970D02*
D03*
X146790Y203380D02*
D03*
X156570D02*
D03*
X164460Y202470D02*
D03*
X165210Y186580D02*
D03*
X57070Y142710D02*
D03*
X100410Y163410D02*
D03*
X120730Y63210D02*
D03*
X88420Y268280D02*
D03*
X140620Y26620D02*
D03*
X72140Y72450D02*
D03*
X154260Y98820D02*
D03*
X163690Y93730D02*
D03*
X40760Y47710D02*
D03*
X29870Y61860D02*
D03*
X167640Y24520D02*
D03*
X38200Y77240D02*
D03*
X43703Y75567D02*
D03*
X53850Y254700D02*
D03*
X53810Y243700D02*
D03*
X122090Y167460D02*
D03*
X115640Y167470D02*
D03*
X147910Y22800D02*
D03*
X115010Y47550D02*
D03*
X121530Y42550D02*
D03*
X132470Y37670D02*
D03*
X120850Y51760D02*
D03*
X189940Y278770D02*
D03*
X124540Y124760D02*
D03*
X117090Y124780D02*
D03*
X148550Y139960D02*
D03*
X104710Y142590D02*
D03*
X179310Y89650D02*
D03*
X147350Y92190D02*
D03*
X182110Y292970D02*
D03*
X52210Y120420D02*
D03*
X34500Y120450D02*
D03*
X155320Y287710D02*
D03*
X192900Y7600D02*
D03*
X116100Y30400D02*
D03*
X164800Y113700D02*
D03*
X162700Y28900D02*
D03*
D66*
X166100Y49100D02*
D03*
X155100D02*
D03*
X144100D02*
D03*
X155100Y60100D02*
D03*
X166100D02*
D03*
X144100D02*
D03*
Y71100D02*
D03*
X155100D02*
D03*
X166100D02*
D03*
M02*
