G04*
G04 #@! TF.GenerationSoftware,Altium Limited,Altium Designer,18.1.1 (9)*
G04*
G04 Layer_Physical_Order=3*
G04 Layer_Color=16440176*
%FSLAX44Y44*%
%MOMM*%
G71*
G01*
G75*
%ADD10C,0.2500*%
%ADD12C,0.1500*%
%ADD15C,0.2000*%
%ADD63C,0.5000*%
%ADD67C,0.3000*%
%ADD68C,0.1800*%
%ADD70R,0.9000X0.9000*%
%ADD71R,0.9000X0.9000*%
%ADD72C,0.4500*%
%ADD74C,0.4000*%
D10*
X87542Y47100D02*
X91100D01*
X91500Y46700D01*
X64943Y24500D02*
X87542Y47100D01*
X55800Y24500D02*
X64943D01*
X41901Y38400D02*
X55800Y24500D01*
X27600Y38400D02*
X41901D01*
X24800Y13900D02*
X28500Y17600D01*
Y26100D01*
X25000Y29600D02*
X28500Y26100D01*
X25000Y35800D02*
X27600Y38400D01*
X25000Y29600D02*
Y35800D01*
D12*
X111800Y28000D02*
X119200Y35400D01*
X107043Y28000D02*
X111800D01*
X119200Y35400D02*
Y63300D01*
X50000Y218200D02*
X57300D01*
X45800Y214000D02*
X50000Y218200D01*
X45800Y103450D02*
X52770Y96480D01*
X32064Y79910D02*
X43670D01*
X45700Y81940D01*
X34080Y77000D02*
X44296D01*
X48200Y80905D01*
X52770Y94033D02*
Y96480D01*
X48200Y89463D02*
X52770Y94033D01*
X48200Y80905D02*
Y89463D01*
X72400Y50600D02*
X85430Y63630D01*
X48400Y153643D02*
Y156957D01*
X45800Y159557D02*
Y214000D01*
Y103450D02*
Y151043D01*
X48400Y153643D01*
X45800Y159557D02*
X48400Y156957D01*
X45700Y93300D02*
X47200Y94800D01*
X45700Y81940D02*
Y93300D01*
X78400Y49200D02*
X81400Y52200D01*
X119200Y63300D02*
X123600Y67700D01*
X135200D01*
X72400Y39800D02*
Y50600D01*
X81400Y52200D02*
X89800D01*
X85430Y63630D02*
X94226D01*
X99400Y58456D01*
Y35643D02*
Y58456D01*
Y35643D02*
X107043Y28000D01*
X78400Y42200D02*
Y49200D01*
X53600Y35643D02*
X59143Y30100D01*
X63735Y27600D02*
X65436Y29300D01*
X65500D01*
X78400Y42200D01*
X59143Y30100D02*
X62700D01*
X72400Y39800D01*
X18950Y55900D02*
X23040Y59990D01*
Y70886D01*
X21490Y54904D02*
X25540Y58954D01*
Y68460D01*
X23040Y70886D02*
X32064Y79910D01*
X25540Y68460D02*
X34080Y77000D01*
X56943Y27600D02*
X63735D01*
X53600Y35643D02*
Y44500D01*
X49900Y48200D02*
X53600Y44500D01*
X39400Y48200D02*
X49900D01*
X21490Y46710D02*
Y54904D01*
X18950Y45050D02*
Y55900D01*
X24100Y44100D02*
X35300D01*
X21490Y46710D02*
X24100Y44100D01*
X35300D02*
X39400Y48200D01*
X18950Y45050D02*
X22600Y41400D01*
X43143D01*
X56943Y27600D01*
D15*
X141157Y79757D02*
Y81122D01*
X157700Y100200D02*
X165900Y92000D01*
X157700Y100200D02*
Y111200D01*
X162200Y108600D02*
X166400Y112800D01*
X162000Y127089D02*
X167400Y132490D01*
X157700Y111200D02*
X161800Y115300D01*
X166400Y112800D02*
Y125300D01*
X156500Y127600D02*
Y128900D01*
Y127410D02*
Y127600D01*
X155100Y149000D02*
X156500Y150400D01*
X157860Y130250D02*
X163900Y136290D01*
Y219900D01*
X156200Y134500D02*
X160900Y139200D01*
X157850Y130250D02*
X157860D01*
X156500Y128900D02*
X157850Y130250D01*
X167400Y132490D02*
Y216700D01*
X170400Y129300D02*
Y195000D01*
X162400Y67900D02*
Y69040D01*
X154220Y61080D02*
X162290Y69150D01*
X162400Y69040D01*
X159046Y72750D02*
X165900Y79604D01*
X154200Y22061D02*
Y37680D01*
X150246Y18107D02*
X154200Y22061D01*
X144083Y18107D02*
X150246D01*
X117100Y15800D02*
X117124D01*
X117100Y15825D02*
X117164Y15761D01*
X137740Y24450D02*
X144083Y18107D01*
X125725Y24450D02*
X137740D01*
X117100Y15825D02*
X125725Y24450D01*
X160000Y85200D02*
Y85200D01*
X157950Y83150D02*
X160000Y85200D01*
X104500Y10200D02*
Y19400D01*
X153600Y160300D02*
X156400D01*
X145650Y152350D02*
X153600Y160300D01*
X129950Y152350D02*
X145650D01*
X127500Y149000D02*
X155100D01*
X125900Y156400D02*
X129950Y152350D01*
X76400Y192600D02*
X82800Y186200D01*
X76400Y192600D02*
Y198100D01*
X79400Y201100D01*
X87500D01*
X90400Y198200D01*
X125900Y156400D02*
Y168300D01*
X102200Y192000D02*
X125900Y168300D01*
X86300Y192000D02*
X102200D01*
X82900Y195400D02*
X86300Y192000D01*
X96900Y204200D02*
X133100Y168000D01*
X89100Y204200D02*
X96900D01*
X83300Y210000D02*
X89100Y204200D01*
X137600Y171200D02*
X142100D01*
X99000Y209800D02*
X137600Y171200D01*
X96400Y209800D02*
X99000D01*
X69200Y222100D02*
X77000Y229900D01*
X133100Y168000D02*
X148100D01*
X149900Y169800D01*
X156200D01*
X142100Y171200D02*
X150500Y179600D01*
X156400D01*
X183550Y208150D02*
X200750D01*
X180500Y229800D02*
X201500D01*
X156500Y127410D02*
X157100Y126810D01*
X165900Y79604D02*
Y92000D01*
X122000Y154500D02*
Y165100D01*
X82800Y186200D02*
X100900D01*
X122000Y165100D01*
X72500Y199200D02*
X83300Y210000D01*
X120000Y137300D02*
Y146500D01*
X125000Y151500D01*
X122000Y154500D02*
X125000Y151500D01*
X127500Y149000D01*
X120000Y137300D02*
X131600Y125700D01*
Y103800D02*
Y125700D01*
X123544Y114987D02*
Y120856D01*
X127794Y109894D02*
Y123006D01*
X138122Y86633D02*
X141657D01*
X126770Y98970D02*
X131600Y103800D01*
X124790Y98970D02*
X126770D01*
X141657Y86633D02*
X145140Y83150D01*
X157950D01*
X86750Y84500D02*
X103490D01*
X50950Y82760D02*
X53440Y85250D01*
X60350D01*
X66300Y79300D01*
X104600D01*
X50950Y79450D02*
Y82760D01*
X36100Y73300D02*
X44800D01*
X50950Y79450D01*
X69618Y95900D02*
X73350Y99632D01*
X55200Y80800D02*
Y81000D01*
X160900Y139200D02*
Y198700D01*
X158300Y201300D02*
X160900Y198700D01*
X170400Y195000D02*
X183550Y208150D01*
X166400Y125300D02*
X170400Y129300D01*
X167400Y216700D02*
X180500Y229800D01*
X120000Y102100D02*
X127794Y109894D01*
X120000Y97000D02*
Y102100D01*
X64000Y232817D02*
X68632Y237450D01*
X89050D01*
X137600Y188900D01*
X64000Y174000D02*
Y232817D01*
Y174000D02*
X73350Y164650D01*
Y99632D02*
Y164650D01*
X81540Y166450D02*
X84350D01*
X127794Y123006D01*
X80297Y163450D02*
X80950D01*
X123544Y120856D01*
X69200Y174547D02*
X80297Y163450D01*
X72500Y175490D02*
X81540Y166450D01*
X72500Y175490D02*
Y199200D01*
X69200Y174547D02*
Y222100D01*
X122100Y81910D02*
X133400D01*
X138122Y86633D01*
X105950Y77950D02*
X139350D01*
X141157Y79757D01*
X104600Y79300D02*
X105950Y77950D01*
X154220Y37680D02*
Y61080D01*
X120000Y97000D02*
X122280Y94720D01*
X128536D01*
X129959Y96143D01*
X116760Y87250D02*
X122100Y81910D01*
X103490Y84500D02*
X106240Y87250D01*
X116760D01*
X91900Y32000D02*
Y38200D01*
Y32000D02*
X104500Y19400D01*
X28290Y65490D02*
X36100Y73300D01*
X28290Y50490D02*
Y65490D01*
X25900Y48100D02*
X28290Y50490D01*
X208250Y241050D02*
X208950Y241750D01*
X185050Y241050D02*
X208250D01*
X163900Y219900D02*
X185050Y241050D01*
D63*
X158346Y73450D02*
X159046Y72750D01*
X37800Y216500D02*
X53300Y232000D01*
X26800Y107000D02*
X37800Y118000D01*
X27800Y85100D02*
X40900D01*
X66150Y64150D02*
X69000Y67000D01*
X75900Y73900D01*
X18790Y76090D02*
X27800Y85100D01*
X75900Y73900D02*
X101000D01*
X66150Y48950D02*
Y64150D01*
X26600Y106800D02*
X26800Y107000D01*
X26600Y100900D02*
Y106800D01*
X37800Y118000D02*
Y216500D01*
X101450Y73450D02*
X158346D01*
X101000Y73900D02*
X101450Y73450D01*
X61300Y44100D02*
X66150Y48950D01*
X33750Y64150D02*
X39150D01*
X66150D01*
X18790Y61750D02*
Y76090D01*
X32850Y63250D02*
X33750Y64150D01*
X32850Y50450D02*
Y63250D01*
Y50450D02*
X33600Y49700D01*
D67*
X81550Y8350D02*
Y15050D01*
X80000Y6800D02*
X81550Y8350D01*
Y15050D02*
X84000Y17500D01*
X73700Y6800D02*
X80000D01*
X71000Y9500D02*
X73700Y6800D01*
X71000Y9500D02*
Y14600D01*
X66400Y19200D02*
X71000Y14600D01*
X54600Y19200D02*
X66400D01*
X41600Y32200D02*
X54600Y19200D01*
X105817Y4900D02*
X108918Y8000D01*
X99200Y4900D02*
X105817D01*
X108918Y8000D02*
X114300D01*
X98000Y6100D02*
X99200Y4900D01*
X55200Y80800D02*
X69000Y67000D01*
X67200Y95900D02*
X69618D01*
X54200Y89700D02*
X69700D01*
X92700Y112700D01*
X101700D01*
X102787Y41414D02*
X106500Y37700D01*
X102787Y41414D02*
Y72113D01*
X106500Y37700D02*
X107300D01*
X98000Y6100D02*
Y14400D01*
X94900Y17500D02*
X98000Y14400D01*
X84000Y17500D02*
X94900D01*
X29600Y32200D02*
X41600D01*
D68*
X76300Y15250D02*
Y16831D01*
X76300Y16831D02*
X76300Y16831D01*
X76300Y16831D02*
X83100Y23631D01*
Y37200D01*
X136340Y27800D02*
X142690Y34150D01*
X122500Y27800D02*
X136340D01*
X83100Y37200D02*
X88400Y42500D01*
X95100D02*
X96500Y41100D01*
X118300Y23600D02*
X122500Y27800D01*
X88400Y42500D02*
X95100D01*
X107695Y23600D02*
X118300D01*
X96500Y34795D02*
Y41100D01*
Y34795D02*
X107695Y23600D01*
D70*
X127000Y8000D02*
D03*
D71*
X114300D02*
D03*
D72*
X141157Y81122D02*
D03*
X162200Y108600D02*
D03*
X162000Y127089D02*
D03*
X161800Y115300D02*
D03*
X156500Y127600D02*
D03*
X156100Y134500D02*
D03*
X156500Y150400D02*
D03*
X162400Y67900D02*
D03*
X159046Y72750D02*
D03*
X117100Y15800D02*
D03*
X76300Y15250D02*
D03*
X160000Y85200D02*
D03*
X40900Y85100D02*
D03*
X82900Y195400D02*
D03*
X90400Y198200D02*
D03*
X96400Y209800D02*
D03*
X83300Y210000D02*
D03*
X156400Y160300D02*
D03*
Y179600D02*
D03*
X156200Y169800D02*
D03*
X77000Y229900D02*
D03*
X53300Y232000D02*
D03*
X50100Y228900D02*
D03*
X33750Y64150D02*
D03*
X26800Y107000D02*
D03*
X201500Y229800D02*
D03*
X208950Y241750D02*
D03*
X200750Y208150D02*
D03*
X158300Y201300D02*
D03*
X137600Y188900D02*
D03*
X57300Y218200D02*
D03*
X123544Y114987D02*
D03*
X129959Y96143D02*
D03*
X124790Y98970D02*
D03*
X101000Y73900D02*
D03*
X86750Y84500D02*
D03*
X55200Y81000D02*
D03*
X67200Y95900D02*
D03*
X54200Y89700D02*
D03*
X101700Y112700D02*
D03*
X26600Y100900D02*
D03*
X47200Y94800D02*
D03*
X135200Y67700D02*
D03*
X142690Y34150D02*
D03*
X104400Y10200D02*
D03*
X89800Y52200D02*
D03*
X91500Y46700D02*
D03*
X91900Y38200D02*
D03*
X107300Y37700D02*
D03*
X24800Y13900D02*
D03*
X61300Y44100D02*
D03*
X39150Y64150D02*
D03*
X18790Y61750D02*
D03*
X33600Y49700D02*
D03*
X25900Y48100D02*
D03*
X29600Y32200D02*
D03*
D74*
X29600Y32200D01*
M02*
