G04*
G04 #@! TF.GenerationSoftware,Altium Limited,Altium Designer,18.1.1 (9)*
G04*
G04 Layer_Physical_Order=2*
G04 Layer_Color=36540*
%FSLAX44Y44*%
%MOMM*%
G71*
G01*
G75*
%ADD15C,0.2000*%
%ADD38R,0.8000X1.2000*%
%ADD39R,1.2000X0.8000*%
%ADD65C,0.6000*%
%ADD67C,0.4500*%
%ADD68C,0.5000*%
%ADD69R,2.5700X1.2800*%
G36*
X250000Y211191D02*
X238000D01*
X237158Y210842D01*
X236809Y210000D01*
Y202000D01*
X237158Y201158D01*
X238000Y200809D01*
X250000D01*
Y198948D01*
X247838Y198519D01*
X246006Y197294D01*
X245994D01*
X244162Y198519D01*
X243270Y198696D01*
Y193300D01*
Y187904D01*
X244162Y188081D01*
X245994Y189306D01*
X246006D01*
X247838Y188081D01*
X250000Y187652D01*
Y176076D01*
X248730Y174810D01*
X197040Y174810D01*
Y269D01*
X197040Y269D01*
X195898Y0D01*
X184891D01*
Y12000D01*
X184542Y12842D01*
X183700Y13191D01*
X175700D01*
X174858Y12842D01*
X174509Y12000D01*
Y0D01*
X172191D01*
Y12000D01*
X171842Y12842D01*
X171000Y13191D01*
X163000D01*
X162158Y12842D01*
X161809Y12000D01*
Y0D01*
X159491D01*
Y12000D01*
X159142Y12842D01*
X159117Y12969D01*
X167317Y21169D01*
X167640Y21104D01*
X168947Y21364D01*
X170055Y22105D01*
X170796Y23213D01*
X171056Y24520D01*
X170796Y25827D01*
X170055Y26935D01*
X168947Y27676D01*
X167640Y27936D01*
X167201Y27848D01*
X166115Y28900D01*
X165855Y30207D01*
X165115Y31315D01*
X164007Y32056D01*
X162700Y32316D01*
X161393Y32056D01*
X160285Y31315D01*
X159544Y30207D01*
X158086Y29387D01*
X157640Y29476D01*
X156333Y29216D01*
X155225Y28475D01*
X154484Y27367D01*
X154224Y26060D01*
X154484Y24753D01*
X155225Y23645D01*
X154964Y22372D01*
X151983Y19391D01*
X150464D01*
X149729Y20661D01*
X149916Y21600D01*
X149656Y22907D01*
X148915Y24015D01*
X147807Y24756D01*
X146500Y25016D01*
X145193Y24756D01*
X143973Y25468D01*
X143849Y25681D01*
X144036Y26620D01*
X143776Y27927D01*
X143035Y29035D01*
X141927Y29776D01*
X140620Y30036D01*
X139313Y29776D01*
X138205Y29035D01*
X137641Y28191D01*
X120064D01*
X119410Y29321D01*
X119728Y30227D01*
X121011Y30631D01*
X121506Y30136D01*
X122201Y29672D01*
X123020Y29509D01*
X134102D01*
X134921Y29672D01*
X135616Y30136D01*
X138234Y32754D01*
X138698Y33449D01*
X138861Y34268D01*
Y56560D01*
X138698Y57379D01*
X138234Y58074D01*
X120841Y75467D01*
Y82185D01*
X121145Y82585D01*
X121240Y82631D01*
X122666Y81926D01*
X122684Y81833D01*
X123425Y80725D01*
X123584Y80618D01*
Y79915D01*
X122844Y78807D01*
X122584Y77500D01*
X122844Y76193D01*
X123584Y75085D01*
X124693Y74344D01*
X126000Y74084D01*
X127307Y74344D01*
X128415Y75085D01*
X129155Y76193D01*
X129415Y77500D01*
X129155Y78807D01*
X128415Y79915D01*
X128255Y80022D01*
Y80725D01*
X128996Y81833D01*
X129256Y83140D01*
X128996Y84447D01*
X128255Y85555D01*
X127147Y86296D01*
X126123Y86499D01*
X125708Y87311D01*
X125623Y87795D01*
X179364Y141536D01*
X179828Y142231D01*
X179991Y143050D01*
Y213533D01*
X185377Y218919D01*
X209180D01*
X209999Y219082D01*
X210338Y219308D01*
X210760Y219224D01*
X212067Y219484D01*
X213175Y220225D01*
X213916Y221333D01*
X214176Y222640D01*
X213916Y223947D01*
X213175Y225055D01*
X212067Y225796D01*
X210760Y226056D01*
X209453Y225796D01*
X208345Y225055D01*
X207604Y223947D01*
X207456Y223201D01*
X184490D01*
X183671Y223038D01*
X182976Y222574D01*
X176336Y215934D01*
X175872Y215239D01*
X175709Y214420D01*
Y144327D01*
X175171Y143912D01*
X173901Y144535D01*
Y254183D01*
X178467Y258749D01*
X186270D01*
X187089Y258912D01*
X187784Y259376D01*
X189837Y261429D01*
X190160Y261364D01*
X191467Y261624D01*
X192575Y262365D01*
X193316Y263473D01*
X193576Y264780D01*
X193316Y266087D01*
X192575Y267195D01*
X191467Y267936D01*
X190160Y268196D01*
X188853Y267936D01*
X187745Y267195D01*
X187004Y266087D01*
X186744Y264780D01*
X186809Y264457D01*
X185383Y263031D01*
X177580D01*
X176761Y262868D01*
X176066Y262404D01*
X170246Y256584D01*
X169782Y255889D01*
X169619Y255070D01*
Y205364D01*
X168349Y204979D01*
X168061Y205409D01*
X166953Y206150D01*
X165646Y206410D01*
X164339Y206150D01*
X163231Y205409D01*
X162490Y204301D01*
X162230Y202994D01*
X162490Y201687D01*
X163231Y200579D01*
X164339Y199839D01*
X165646Y199578D01*
X166953Y199839D01*
X168061Y200579D01*
X168349Y201010D01*
X169619Y200625D01*
Y188097D01*
X168366Y187887D01*
X167625Y188995D01*
X166517Y189736D01*
X165210Y189996D01*
X163903Y189736D01*
X162795Y188995D01*
X162054Y187887D01*
X161794Y186580D01*
X162054Y185273D01*
X162795Y184165D01*
X163903Y183424D01*
X165210Y183164D01*
X166517Y183424D01*
X167625Y184165D01*
X168366Y185273D01*
X169619Y185063D01*
Y142607D01*
X127951Y100939D01*
X126681Y101465D01*
Y122162D01*
X126955Y122345D01*
X127696Y123453D01*
X127956Y124760D01*
X127696Y126067D01*
X126955Y127175D01*
X125847Y127916D01*
X124540Y128176D01*
X123233Y127916D01*
X122125Y127175D01*
X121508Y126252D01*
X120795Y126159D01*
X120128Y126263D01*
X119505Y127195D01*
X119212Y127391D01*
X119095Y128215D01*
X119173Y128945D01*
X128047Y137819D01*
X145952D01*
X146135Y137545D01*
X147243Y136804D01*
X148550Y136544D01*
X149857Y136804D01*
X150965Y137545D01*
X151706Y138653D01*
X151966Y139960D01*
X151706Y141267D01*
X150965Y142375D01*
X149857Y143116D01*
X148550Y143376D01*
X147243Y143116D01*
X146135Y142375D01*
X145952Y142101D01*
X127160D01*
X126341Y141938D01*
X125646Y141474D01*
X116613Y132441D01*
X92987D01*
X83688Y141740D01*
X83769Y143040D01*
X85469Y142709D01*
X85485Y142685D01*
X86593Y141944D01*
X87900Y141684D01*
X89207Y141944D01*
X90315Y142685D01*
X91056Y143793D01*
X91316Y145100D01*
X91056Y146407D01*
X90315Y147515D01*
X89207Y148256D01*
X87900Y148516D01*
X87450Y148426D01*
X86825Y149597D01*
X87714Y150486D01*
X88178Y151181D01*
X88341Y152000D01*
Y158445D01*
X91165Y161269D01*
X97812D01*
X97995Y160995D01*
X99103Y160254D01*
X100410Y159994D01*
X101717Y160254D01*
X102825Y160995D01*
X103566Y162103D01*
X103826Y163410D01*
X103566Y164717D01*
X102825Y165825D01*
X101717Y166566D01*
X100410Y166826D01*
X99103Y166566D01*
X97995Y165825D01*
X97812Y165551D01*
X90278D01*
X89459Y165388D01*
X88764Y164924D01*
X84686Y160846D01*
X84222Y160151D01*
X84059Y159332D01*
Y152887D01*
X79886Y148714D01*
X79422Y148019D01*
X79259Y147200D01*
Y141000D01*
X79422Y140181D01*
X79886Y139486D01*
X90586Y128786D01*
X91281Y128322D01*
X92100Y128159D01*
X113907D01*
X114088Y127932D01*
X114470Y126889D01*
X113934Y126087D01*
X113674Y124780D01*
X113934Y123473D01*
X114675Y122365D01*
X114949Y122182D01*
Y98567D01*
X105746Y89364D01*
X105282Y88669D01*
X105119Y87850D01*
Y55300D01*
X105282Y54481D01*
X105746Y53786D01*
X110844Y48688D01*
X110971Y48110D01*
X110696Y47039D01*
X110431Y46888D01*
X109814Y47011D01*
X93867D01*
X83321Y57557D01*
Y77280D01*
X83158Y78099D01*
X82694Y78794D01*
X78093Y83395D01*
X78513Y84771D01*
X79415Y85374D01*
X80156Y86482D01*
X80416Y87789D01*
X80156Y89096D01*
X79415Y90204D01*
X78307Y90945D01*
X77000Y91205D01*
X75693Y90945D01*
X74585Y90204D01*
X73982Y89302D01*
X72606Y88883D01*
X69601Y91887D01*
Y113990D01*
X69438Y114809D01*
X68974Y115504D01*
X43441Y141037D01*
Y250403D01*
X49062Y256024D01*
X49397Y255994D01*
X50434Y254700D01*
X50499Y254377D01*
X46536Y250414D01*
X46072Y249719D01*
X45909Y248900D01*
Y241610D01*
X46072Y240791D01*
X46536Y240096D01*
X49376Y237256D01*
X50071Y236792D01*
X50890Y236629D01*
X73133D01*
X113499Y196263D01*
Y170068D01*
X113225Y169885D01*
X112484Y168777D01*
X112224Y167470D01*
X112484Y166163D01*
X113225Y165055D01*
X114333Y164314D01*
X115640Y164054D01*
X116947Y164314D01*
X118055Y165055D01*
X118098Y165119D01*
X119625D01*
X119675Y165045D01*
X120783Y164304D01*
X122090Y164044D01*
X123397Y164304D01*
X124505Y165045D01*
X125246Y166153D01*
X125506Y167460D01*
X125246Y168767D01*
X124505Y169875D01*
X124231Y170058D01*
Y197370D01*
X124068Y198189D01*
X123604Y198884D01*
X77274Y245214D01*
X76579Y245678D01*
X75760Y245841D01*
X56408D01*
X56225Y246115D01*
X55117Y246856D01*
X53810Y247116D01*
X52503Y246856D01*
X51461Y246160D01*
X51093Y246237D01*
X50191Y246600D01*
Y248013D01*
X53527Y251349D01*
X53850Y251284D01*
X55157Y251544D01*
X56265Y252285D01*
X57006Y253393D01*
X57266Y254700D01*
X57006Y256007D01*
X56265Y257115D01*
X55157Y257856D01*
X53850Y258116D01*
X52556Y259153D01*
X52526Y259488D01*
X59177Y266139D01*
X85822D01*
X86005Y265865D01*
X87113Y265124D01*
X88420Y264864D01*
X89727Y265124D01*
X90835Y265865D01*
X91576Y266973D01*
X91836Y268280D01*
X91576Y269587D01*
X90835Y270695D01*
X89727Y271436D01*
X88420Y271696D01*
X87113Y271436D01*
X86005Y270695D01*
X85822Y270421D01*
X58290D01*
X57471Y270258D01*
X56776Y269794D01*
X39786Y252804D01*
X39322Y252109D01*
X39159Y251290D01*
Y140150D01*
X39322Y139331D01*
X39786Y138636D01*
X65319Y113103D01*
Y91000D01*
X65482Y90181D01*
X65946Y89486D01*
X66411Y89021D01*
X65885Y87751D01*
X39730D01*
X38911Y87588D01*
X38216Y87124D01*
X31986Y80894D01*
X31522Y80199D01*
X31359Y79380D01*
Y75700D01*
X31522Y74881D01*
X31986Y74186D01*
X38416Y67756D01*
X39111Y67292D01*
X39930Y67129D01*
X60043D01*
X61759Y65413D01*
Y33700D01*
X61922Y32881D01*
X62386Y32186D01*
X68061Y26511D01*
X67984Y26204D01*
X66615Y25967D01*
X66315Y26415D01*
X65207Y27156D01*
X63900Y27416D01*
X62593Y27156D01*
X61485Y26415D01*
X60744Y25307D01*
X60484Y24000D01*
X60744Y22693D01*
X61485Y21585D01*
X62593Y20844D01*
X63900Y20584D01*
X65207Y20844D01*
X66315Y21585D01*
X67056Y22693D01*
X67089Y22861D01*
X68359Y22736D01*
Y21498D01*
X68085Y21315D01*
X67344Y20207D01*
X67084Y18900D01*
X67344Y17593D01*
X68085Y16485D01*
X69193Y15744D01*
X70500Y15484D01*
X71807Y15744D01*
X72915Y16485D01*
X73656Y17593D01*
X73916Y18900D01*
X73656Y20207D01*
X72915Y21315D01*
X72641Y21498D01*
Y27100D01*
X72478Y27919D01*
X72014Y28614D01*
X66041Y34587D01*
Y47293D01*
X67311Y47819D01*
X69512Y45618D01*
Y42901D01*
X69675Y42082D01*
X70139Y41387D01*
X72687Y38839D01*
X73382Y38375D01*
X74201Y38212D01*
X76918D01*
X82959Y32171D01*
Y25499D01*
X82385Y25115D01*
X81644Y24007D01*
X81384Y22700D01*
X81644Y21393D01*
X82385Y20285D01*
X82959Y19901D01*
Y17200D01*
X83122Y16381D01*
X83586Y15686D01*
X86036Y13236D01*
X85958Y12842D01*
X85609Y12000D01*
Y0D01*
X83291D01*
Y12000D01*
X82942Y12842D01*
X82100Y13191D01*
X74100D01*
X73258Y12842D01*
X72909Y12000D01*
Y0D01*
X70591D01*
Y12000D01*
X70242Y12842D01*
X69400Y13191D01*
X61400D01*
X60558Y12842D01*
X60209Y12000D01*
Y0D01*
X57891D01*
Y12000D01*
X57542Y12842D01*
X56700Y13191D01*
X48700D01*
X47858Y12842D01*
X47509Y12000D01*
Y0D01*
X45191D01*
Y12000D01*
X44842Y12842D01*
X44000Y13191D01*
X36000D01*
X35158Y12842D01*
X34809Y12000D01*
Y0D01*
X0D01*
Y300000D01*
X199809D01*
Y288000D01*
X200158Y287158D01*
X201000Y286809D01*
X209000D01*
X209842Y287158D01*
X210191Y288000D01*
Y300000D01*
X212051D01*
X212052Y300000D01*
X212481Y297838D01*
X213706Y296006D01*
Y295994D01*
X212481Y294161D01*
X212304Y293270D01*
X217700D01*
Y292000D01*
X218970D01*
Y286604D01*
X219862Y286781D01*
X221694Y288006D01*
X221910Y288005D01*
X223023Y286729D01*
X222796Y285000D01*
X223211Y281841D01*
X224431Y278898D01*
X226370Y276370D01*
X228898Y274431D01*
X231841Y273211D01*
X235000Y272796D01*
X238159Y273211D01*
X241102Y274431D01*
X243630Y276370D01*
X245569Y278898D01*
X246789Y281841D01*
X247204Y285000D01*
X246789Y288159D01*
X245569Y291102D01*
X243630Y293630D01*
X241102Y295569D01*
X238159Y296789D01*
X235000Y297204D01*
X231841Y296789D01*
X228898Y295569D01*
X226370Y293630D01*
X224431Y291102D01*
X223269Y291600D01*
X223349Y292000D01*
X222919Y294161D01*
X221694Y295994D01*
Y296006D01*
X222919Y297838D01*
X223349Y300000D01*
X223349Y300000D01*
X250000D01*
Y211191D01*
D02*
G37*
%LPC*%
G36*
X216430Y290730D02*
X212304D01*
X212481Y289838D01*
X213706Y288006D01*
X215538Y286781D01*
X216430Y286604D01*
Y290730D01*
D02*
G37*
G36*
X155320Y291126D02*
X154013Y290866D01*
X152905Y290125D01*
X152164Y289017D01*
X151904Y287710D01*
X152164Y286403D01*
X152905Y285295D01*
X154013Y284554D01*
X155320Y284294D01*
X156627Y284554D01*
X157735Y285295D01*
X158476Y286403D01*
X158736Y287710D01*
X158476Y289017D01*
X157735Y290125D01*
X156627Y290866D01*
X155320Y291126D01*
D02*
G37*
G36*
X189970Y286256D02*
X188663Y285996D01*
X187555Y285255D01*
X186814Y284147D01*
X186554Y282840D01*
X186814Y281533D01*
X187555Y280425D01*
X188663Y279684D01*
X189970Y279424D01*
X191277Y279684D01*
X192385Y280425D01*
X193126Y281533D01*
X193386Y282840D01*
X193126Y284147D01*
X192385Y285255D01*
X191277Y285996D01*
X189970Y286256D01*
D02*
G37*
G36*
X173760Y281916D02*
X172453Y281656D01*
X171345Y280915D01*
X170604Y279807D01*
X170344Y278500D01*
X170604Y277193D01*
X171345Y276085D01*
X172453Y275344D01*
X173760Y275084D01*
X175067Y275344D01*
X176175Y276085D01*
X176916Y277193D01*
X177176Y278500D01*
X176916Y279807D01*
X176175Y280915D01*
X175067Y281656D01*
X173760Y281916D01*
D02*
G37*
G36*
X161050Y280496D02*
X159743Y280236D01*
X158635Y279495D01*
X157894Y278387D01*
X157634Y277080D01*
X157894Y275773D01*
X158635Y274665D01*
X159743Y273924D01*
X161050Y273664D01*
X162357Y273924D01*
X163465Y274665D01*
X164206Y275773D01*
X164466Y277080D01*
X164206Y278387D01*
X163465Y279495D01*
X162357Y280236D01*
X161050Y280496D01*
D02*
G37*
G36*
X150470Y278716D02*
X149163Y278456D01*
X148055Y277715D01*
X147314Y276607D01*
X147054Y275300D01*
X147314Y273993D01*
X148055Y272885D01*
X149163Y272144D01*
X150470Y271884D01*
X151777Y272144D01*
X152885Y272885D01*
X153626Y273993D01*
X153886Y275300D01*
X153626Y276607D01*
X152885Y277715D01*
X151777Y278456D01*
X150470Y278716D01*
D02*
G37*
G36*
X198700Y276015D02*
X197393Y275755D01*
X196284Y275015D01*
X195544Y273907D01*
X195284Y272600D01*
X195544Y271292D01*
X196284Y270184D01*
X197393Y269444D01*
X198700Y269184D01*
X200007Y269444D01*
X201115Y270184D01*
X201855Y271292D01*
X202115Y272600D01*
X201855Y273907D01*
X201115Y275015D01*
X200007Y275755D01*
X198700Y276015D01*
D02*
G37*
G36*
X213400Y275716D02*
X212093Y275456D01*
X210985Y274715D01*
X210244Y273607D01*
X209984Y272300D01*
X210244Y270993D01*
X210985Y269885D01*
X212093Y269144D01*
X213400Y268884D01*
X214707Y269144D01*
X215815Y269885D01*
X216556Y270993D01*
X216816Y272300D01*
X216556Y273607D01*
X215815Y274715D01*
X214707Y275456D01*
X213400Y275716D01*
D02*
G37*
G36*
X191800Y252515D02*
X190492Y252255D01*
X189384Y251515D01*
X188644Y250407D01*
X188384Y249100D01*
X188644Y247792D01*
X189384Y246684D01*
X190492Y245944D01*
X191800Y245684D01*
X193107Y245944D01*
X194215Y246684D01*
X194955Y247792D01*
X195215Y249100D01*
X194955Y250407D01*
X194215Y251515D01*
X193107Y252255D01*
X191800Y252515D01*
D02*
G37*
G36*
X234788Y220816D02*
X233481Y220556D01*
X232373Y219815D01*
X231633Y218707D01*
X231373Y217400D01*
X231633Y216093D01*
X232373Y214985D01*
X233481Y214244D01*
X234788Y213984D01*
X236095Y214244D01*
X237204Y214985D01*
X237944Y216093D01*
X238204Y217400D01*
X237944Y218707D01*
X237204Y219815D01*
X236095Y220556D01*
X234788Y220816D01*
D02*
G37*
G36*
X191550Y217496D02*
X190243Y217236D01*
X189135Y216495D01*
X188394Y215387D01*
X188134Y214080D01*
X188394Y212773D01*
X189135Y211665D01*
X190243Y210924D01*
X191550Y210664D01*
X192857Y210924D01*
X193965Y211665D01*
X194706Y212773D01*
X194966Y214080D01*
X194706Y215387D01*
X193965Y216495D01*
X192857Y217236D01*
X191550Y217496D01*
D02*
G37*
G36*
X156570Y206796D02*
X155263Y206536D01*
X154155Y205795D01*
X153414Y204687D01*
X153154Y203380D01*
X153414Y202073D01*
X154155Y200965D01*
X155263Y200224D01*
X156570Y199964D01*
X157877Y200224D01*
X158985Y200965D01*
X159726Y202073D01*
X159986Y203380D01*
X159726Y204687D01*
X158985Y205795D01*
X157877Y206536D01*
X156570Y206796D01*
D02*
G37*
G36*
X146790D02*
X145483Y206536D01*
X144375Y205795D01*
X143634Y204687D01*
X143374Y203380D01*
X143634Y202073D01*
X144375Y200965D01*
X145483Y200224D01*
X146790Y199964D01*
X148097Y200224D01*
X149205Y200965D01*
X149946Y202073D01*
X150206Y203380D01*
X149946Y204687D01*
X149205Y205795D01*
X148097Y206536D01*
X146790Y206796D01*
D02*
G37*
G36*
X240730Y198696D02*
X239838Y198519D01*
X238006Y197294D01*
X236781Y195462D01*
X236604Y194570D01*
X240730D01*
Y198696D01*
D02*
G37*
G36*
Y192030D02*
X236604D01*
X236781Y191138D01*
X238006Y189306D01*
X239838Y188081D01*
X240730Y187904D01*
Y192030D01*
D02*
G37*
G36*
X147280Y190056D02*
X145973Y189796D01*
X144865Y189055D01*
X144124Y187947D01*
X143864Y186640D01*
X144124Y185333D01*
X144865Y184225D01*
X145973Y183484D01*
X147280Y183224D01*
X148587Y183484D01*
X149695Y184225D01*
X150436Y185333D01*
X150696Y186640D01*
X150436Y187947D01*
X149695Y189055D01*
X148587Y189796D01*
X147280Y190056D01*
D02*
G37*
G36*
X138640Y190036D02*
X137333Y189776D01*
X136225Y189035D01*
X135484Y187927D01*
X135224Y186620D01*
X135484Y185313D01*
X136225Y184205D01*
X137333Y183464D01*
X138640Y183204D01*
X139947Y183464D01*
X141055Y184205D01*
X141796Y185313D01*
X142056Y186620D01*
X141796Y187927D01*
X141055Y189035D01*
X139947Y189776D01*
X138640Y190036D01*
D02*
G37*
G36*
X156400Y189936D02*
X155093Y189676D01*
X153985Y188935D01*
X153244Y187827D01*
X152984Y186520D01*
X153244Y185213D01*
X153985Y184105D01*
X155093Y183364D01*
X156400Y183104D01*
X157707Y183364D01*
X158815Y184105D01*
X159556Y185213D01*
X159816Y186520D01*
X159556Y187827D01*
X158815Y188935D01*
X157707Y189676D01*
X156400Y189936D01*
D02*
G37*
G36*
X96300Y152516D02*
X94993Y152256D01*
X93885Y151515D01*
X93144Y150407D01*
X92884Y149100D01*
X93144Y147793D01*
X93885Y146685D01*
X94993Y145944D01*
X96300Y145684D01*
X97607Y145944D01*
X98715Y146685D01*
X99456Y147793D01*
X99716Y149100D01*
X99456Y150407D01*
X98715Y151515D01*
X97607Y152256D01*
X96300Y152516D01*
D02*
G37*
G36*
X33600Y146216D02*
X32293Y145956D01*
X31185Y145215D01*
X30444Y144107D01*
X30184Y142800D01*
X30444Y141493D01*
X31185Y140385D01*
X32293Y139644D01*
X33600Y139384D01*
X34907Y139644D01*
X36015Y140385D01*
X36756Y141493D01*
X37016Y142800D01*
X36756Y144107D01*
X36015Y145215D01*
X34907Y145956D01*
X33600Y146216D01*
D02*
G37*
G36*
X57133Y146049D02*
X55826Y145789D01*
X54718Y145049D01*
X53978Y143940D01*
X53718Y142633D01*
X53978Y141326D01*
X54718Y140218D01*
X55826Y139478D01*
X57133Y139218D01*
X58440Y139478D01*
X59549Y140218D01*
X60289Y141326D01*
X60549Y142633D01*
X60289Y143940D01*
X59549Y145049D01*
X58440Y145789D01*
X57133Y146049D01*
D02*
G37*
G36*
X48500Y146016D02*
X47193Y145756D01*
X46085Y145015D01*
X45344Y143907D01*
X45084Y142600D01*
X45344Y141293D01*
X46085Y140185D01*
X47193Y139444D01*
X48500Y139184D01*
X49807Y139444D01*
X50915Y140185D01*
X51656Y141293D01*
X51916Y142600D01*
X51656Y143907D01*
X50915Y145015D01*
X49807Y145756D01*
X48500Y146016D01*
D02*
G37*
G36*
X104710Y146006D02*
X103403Y145746D01*
X102295Y145005D01*
X101554Y143897D01*
X101294Y142590D01*
X101554Y141283D01*
X102295Y140175D01*
X103403Y139434D01*
X104710Y139174D01*
X106017Y139434D01*
X107125Y140175D01*
X107866Y141283D01*
X108126Y142590D01*
X107866Y143897D01*
X107125Y145005D01*
X106017Y145746D01*
X104710Y146006D01*
D02*
G37*
G36*
X65767Y145949D02*
X64460Y145689D01*
X63351Y144949D01*
X62611Y143840D01*
X62351Y142533D01*
X62611Y141226D01*
X63351Y140118D01*
X64460Y139378D01*
X65767Y139118D01*
X67074Y139378D01*
X68182Y140118D01*
X68922Y141226D01*
X69182Y142533D01*
X68922Y143840D01*
X68182Y144949D01*
X67074Y145689D01*
X65767Y145949D01*
D02*
G37*
G36*
X74400Y145916D02*
X73093Y145656D01*
X71985Y144915D01*
X71244Y143807D01*
X70984Y142500D01*
X71244Y141193D01*
X71985Y140085D01*
X73093Y139344D01*
X74400Y139084D01*
X75707Y139344D01*
X76815Y140085D01*
X77556Y141193D01*
X77816Y142500D01*
X77556Y143807D01*
X76815Y144915D01*
X75707Y145656D01*
X74400Y145916D01*
D02*
G37*
G36*
X77400Y130415D02*
X76093Y130155D01*
X74985Y129415D01*
X74244Y128307D01*
X73984Y127000D01*
X74244Y125693D01*
X74985Y124585D01*
X76093Y123844D01*
X77400Y123584D01*
X78707Y123844D01*
X79815Y124585D01*
X80555Y125693D01*
X80815Y127000D01*
X80555Y128307D01*
X79815Y129415D01*
X78707Y130155D01*
X77400Y130415D01*
D02*
G37*
G36*
X49100Y121716D02*
X47793Y121456D01*
X46685Y120715D01*
X45944Y119607D01*
X45684Y118300D01*
X45944Y116993D01*
X46685Y115885D01*
X47793Y115144D01*
X49100Y114884D01*
X50407Y115144D01*
X51515Y115885D01*
X52256Y116993D01*
X52516Y118300D01*
X52256Y119607D01*
X51515Y120715D01*
X50407Y121456D01*
X49100Y121716D01*
D02*
G37*
G36*
X83100Y121316D02*
X81793Y121056D01*
X80685Y120315D01*
X79944Y119207D01*
X79684Y117900D01*
X79944Y116593D01*
X80685Y115485D01*
X81793Y114744D01*
X83100Y114484D01*
X84407Y114744D01*
X85515Y115485D01*
X86256Y116593D01*
X86516Y117900D01*
X86256Y119207D01*
X85515Y120315D01*
X84407Y121056D01*
X83100Y121316D01*
D02*
G37*
G36*
X164800Y117115D02*
X163493Y116855D01*
X162384Y116115D01*
X161644Y115007D01*
X161384Y113700D01*
X161644Y112393D01*
X162384Y111285D01*
X163493Y110544D01*
X164800Y110284D01*
X166107Y110544D01*
X167215Y111285D01*
X167955Y112393D01*
X168215Y113700D01*
X167955Y115007D01*
X167215Y116115D01*
X166107Y116855D01*
X164800Y117115D01*
D02*
G37*
G36*
X25300Y114216D02*
X23993Y113956D01*
X22885Y113215D01*
X22144Y112107D01*
X21884Y110800D01*
X22144Y109493D01*
X22885Y108385D01*
X23993Y107644D01*
X25300Y107384D01*
X26607Y107644D01*
X27715Y108385D01*
X28456Y109493D01*
X28716Y110800D01*
X28456Y112107D01*
X27715Y113215D01*
X26607Y113956D01*
X25300Y114216D01*
D02*
G37*
G36*
X20350Y102566D02*
X19043Y102306D01*
X17935Y101565D01*
X17194Y100457D01*
X16934Y99150D01*
X17194Y97843D01*
X17935Y96735D01*
X19043Y95994D01*
X20350Y95734D01*
X21657Y95994D01*
X22765Y96735D01*
X23506Y97843D01*
X23766Y99150D01*
X23506Y100457D01*
X22765Y101565D01*
X21657Y102306D01*
X20350Y102566D01*
D02*
G37*
G36*
X154260Y102236D02*
X152953Y101976D01*
X151845Y101235D01*
X151104Y100127D01*
X150844Y98820D01*
X151104Y97513D01*
X151845Y96405D01*
X152953Y95664D01*
X154260Y95404D01*
X155567Y95664D01*
X156675Y96405D01*
X157416Y97513D01*
X157676Y98820D01*
X157416Y100127D01*
X156675Y101235D01*
X155567Y101976D01*
X154260Y102236D01*
D02*
G37*
G36*
X162600Y98115D02*
X161293Y97855D01*
X160185Y97115D01*
X159444Y96007D01*
X159184Y94699D01*
X159444Y93392D01*
X160185Y92284D01*
X161293Y91544D01*
X162600Y91284D01*
X163907Y91544D01*
X165015Y92284D01*
X165756Y93392D01*
X166016Y94699D01*
X165756Y96007D01*
X165015Y97115D01*
X163907Y97855D01*
X162600Y98115D01*
D02*
G37*
G36*
X147350Y95606D02*
X146043Y95346D01*
X144935Y94605D01*
X144194Y93497D01*
X143934Y92190D01*
X144194Y90883D01*
X144935Y89775D01*
X146043Y89034D01*
X147350Y88774D01*
X148657Y89034D01*
X149765Y89775D01*
X150506Y90883D01*
X150766Y92190D01*
X150506Y93497D01*
X149765Y94605D01*
X148657Y95346D01*
X147350Y95606D01*
D02*
G37*
G36*
X139000Y95215D02*
X137693Y94955D01*
X136585Y94215D01*
X135844Y93107D01*
X135584Y91800D01*
X135844Y90493D01*
X136585Y89385D01*
X137693Y88644D01*
X139000Y88384D01*
X140307Y88644D01*
X141415Y89385D01*
X142155Y90493D01*
X142415Y91800D01*
X142155Y93107D01*
X141415Y94215D01*
X140307Y94955D01*
X139000Y95215D01*
D02*
G37*
G36*
X179310Y93066D02*
X178003Y92806D01*
X176895Y92065D01*
X176154Y90957D01*
X175894Y89650D01*
X176154Y88343D01*
X176895Y87235D01*
X178003Y86494D01*
X179310Y86234D01*
X180617Y86494D01*
X181725Y87235D01*
X182466Y88343D01*
X182726Y89650D01*
X182466Y90957D01*
X181725Y92065D01*
X180617Y92806D01*
X179310Y93066D01*
D02*
G37*
G36*
X179140Y84466D02*
X177833Y84206D01*
X176725Y83465D01*
X175984Y82357D01*
X175724Y81050D01*
X175984Y79743D01*
X176725Y78635D01*
X177833Y77894D01*
X179140Y77634D01*
X180447Y77894D01*
X181555Y78635D01*
X182296Y79743D01*
X182556Y81050D01*
X182296Y82357D01*
X181555Y83465D01*
X180447Y84206D01*
X179140Y84466D01*
D02*
G37*
G36*
X186700Y76115D02*
X185392Y75855D01*
X184284Y75115D01*
X183544Y74007D01*
X183284Y72700D01*
X183544Y71393D01*
X184284Y70285D01*
X185392Y69544D01*
X185042Y68368D01*
X185014Y68327D01*
X184754Y67020D01*
X185014Y65713D01*
X185755Y64605D01*
X186863Y63864D01*
X188170Y63604D01*
X189477Y63864D01*
X190585Y64605D01*
X191326Y65713D01*
X191586Y67020D01*
X191326Y68327D01*
X190585Y69435D01*
X189477Y70176D01*
X189828Y71352D01*
X189855Y71393D01*
X190115Y72700D01*
X189855Y74007D01*
X189115Y75115D01*
X188007Y75855D01*
X186700Y76115D01*
D02*
G37*
G36*
X22300Y67516D02*
X20993Y67256D01*
X19885Y66515D01*
X19144Y65407D01*
X18884Y64100D01*
X19144Y62793D01*
X19885Y61685D01*
X20993Y60944D01*
X22300Y60684D01*
X23607Y60944D01*
X24715Y61685D01*
X25298Y62557D01*
X26495Y62062D01*
X26454Y61860D01*
X26714Y60553D01*
X27455Y59445D01*
X28563Y58704D01*
X29870Y58444D01*
X31177Y58704D01*
X32285Y59445D01*
X33026Y60553D01*
X33286Y61860D01*
X33026Y63167D01*
X32285Y64275D01*
X31177Y65016D01*
X29870Y65276D01*
X28563Y65016D01*
X27455Y64275D01*
X26872Y63403D01*
X25675Y63898D01*
X25716Y64100D01*
X25456Y65407D01*
X24715Y66515D01*
X23607Y67256D01*
X22300Y67516D01*
D02*
G37*
G36*
X7300Y56016D02*
X5993Y55756D01*
X4885Y55015D01*
X4144Y53907D01*
X3884Y52600D01*
X4144Y51293D01*
X4885Y50185D01*
X5993Y49444D01*
X7300Y49184D01*
X8607Y49444D01*
X9715Y50185D01*
X10456Y51293D01*
X10716Y52600D01*
X10456Y53907D01*
X9715Y55015D01*
X8607Y55756D01*
X7300Y56016D01*
D02*
G37*
G36*
X147550Y34136D02*
X146243Y33876D01*
X145135Y33135D01*
X144394Y32027D01*
X144134Y30720D01*
X144394Y29413D01*
X145135Y28305D01*
X146243Y27565D01*
X147550Y27305D01*
X148857Y27565D01*
X149965Y28305D01*
X150706Y29413D01*
X150966Y30720D01*
X150706Y32027D01*
X149965Y33135D01*
X148857Y33876D01*
X147550Y34136D01*
D02*
G37*
G36*
X78160Y33676D02*
X76853Y33416D01*
X75745Y32675D01*
X75004Y31567D01*
X74744Y30260D01*
X75004Y28953D01*
X75745Y27845D01*
X76853Y27104D01*
X78160Y26844D01*
X79467Y27104D01*
X80575Y27845D01*
X81316Y28953D01*
X81576Y30260D01*
X81316Y31567D01*
X80575Y32675D01*
X79467Y33416D01*
X78160Y33676D01*
D02*
G37*
G36*
X15000Y27204D02*
X11841Y26789D01*
X8898Y25569D01*
X6370Y23630D01*
X4431Y21102D01*
X3211Y18159D01*
X2796Y15000D01*
X3211Y11841D01*
X4431Y8898D01*
X6370Y6370D01*
X8898Y4431D01*
X11841Y3211D01*
X15000Y2796D01*
X18159Y3211D01*
X21102Y4431D01*
X23630Y6370D01*
X25569Y8898D01*
X26789Y11841D01*
X27204Y15000D01*
X26789Y18159D01*
X25569Y21102D01*
X23630Y23630D01*
X21102Y25569D01*
X18159Y26789D01*
X15000Y27204D01*
D02*
G37*
%LPD*%
D15*
X70500Y18900D02*
Y27100D01*
X63900Y33700D02*
X70500Y27100D01*
X85100Y17200D02*
Y33058D01*
X67790Y50368D02*
X71653Y46505D01*
X67790Y50368D02*
Y68010D01*
X77805Y40353D02*
X85100Y33058D01*
X74201Y40353D02*
X77805D01*
X71653Y42901D02*
X74201Y40353D01*
X71653Y42901D02*
Y46505D01*
X85100Y17200D02*
X88150Y14150D01*
X57680Y82020D02*
X65000Y74700D01*
Y70800D02*
Y74700D01*
Y70800D02*
X67790Y68010D01*
X42980Y82020D02*
X57680D01*
X33500Y75700D02*
X39930Y69270D01*
X33500Y75700D02*
Y79380D01*
X39930Y69270D02*
X43703D01*
X33500Y79380D02*
X39730Y85610D01*
X43273Y75567D02*
X43703D01*
Y69270D02*
Y75567D01*
X38200Y77240D02*
X42980Y82020D01*
X125430Y38100D02*
X132100Y44770D01*
X116584Y38100D02*
X125430D01*
X109814Y44870D02*
X116584Y38100D01*
X140050Y26050D02*
X140620Y26620D01*
X111070Y28470D02*
X113490Y26050D01*
X119920Y34750D02*
X123020Y31650D01*
X115334Y34750D02*
X119920D01*
X113490Y26050D02*
X140050D01*
X108334Y41750D02*
X115334Y34750D01*
X104950Y35550D02*
X107770Y32730D01*
X90810Y30650D02*
X95710Y35550D01*
X107050Y38650D02*
X111070Y34630D01*
X102700Y24920D02*
X110370Y17250D01*
X95710Y35550D02*
X104950D01*
X94426Y38650D02*
X107050D01*
X94296Y38520D02*
X94426Y38650D01*
X90950Y41750D02*
X108334D01*
X76760Y55940D02*
X90950Y41750D01*
X92980Y44870D02*
X109814D01*
X81180Y56670D02*
X92980Y44870D01*
X102700Y24920D02*
Y31200D01*
X88680Y38520D02*
X94296D01*
X121530Y42550D02*
X124370D01*
X127510Y45690D01*
X72140Y55060D02*
X88680Y38520D01*
X111070Y28470D02*
Y34630D01*
X117810Y52550D02*
X121640D01*
X117020Y51760D02*
X117810Y52550D01*
X124690Y57590D02*
X127510Y54770D01*
X118340Y57590D02*
X124690D01*
X114780Y61150D02*
X118340Y57590D01*
X136720Y34268D02*
Y56560D01*
X134102Y31650D02*
X136720Y34268D01*
X123020Y31650D02*
X134102D01*
X118700Y74580D02*
X136720Y56560D01*
X107770Y26900D02*
X112400Y22270D01*
X157270Y14150D02*
X167640Y24520D01*
X152870Y17250D02*
X157640Y22020D01*
X110370Y17250D02*
X152870D01*
X88150Y14150D02*
X157270D01*
X145830Y22270D02*
X146500Y21600D01*
X112400Y22270D02*
X145830D01*
X121390Y62550D02*
X124170D01*
X124830Y63210D01*
X39730Y85610D02*
X66700D01*
X186270Y260890D02*
X190160Y264780D01*
X177580Y260890D02*
X186270D01*
X171760Y255070D02*
X177580Y260890D01*
X41300Y140150D02*
Y251290D01*
Y140150D02*
X67460Y113990D01*
X90278Y163410D02*
X100410D01*
X86200Y159332D02*
X90278Y163410D01*
X86200Y152000D02*
Y159332D01*
X81400Y147200D02*
X86200Y152000D01*
X81400Y141000D02*
Y147200D01*
Y141000D02*
X92100Y130300D01*
X117500D01*
X127160Y139960D01*
X148550D01*
X162700Y28700D02*
Y28900D01*
X107260Y55300D02*
X115010Y47550D01*
X107260Y55300D02*
Y87850D01*
X117090Y97680D01*
Y124780D01*
X110970Y57810D02*
X117020Y51760D01*
X110970Y57810D02*
Y86880D01*
X124540Y100450D01*
Y124760D01*
X171760Y141720D02*
Y255070D01*
X127510Y45690D02*
Y54770D01*
X157640Y22020D02*
Y26060D01*
X48050Y248900D02*
X53850Y254700D01*
X48050Y241610D02*
Y248900D01*
Y241610D02*
X50890Y238770D01*
X74020D02*
X115640Y197150D01*
X50890Y238770D02*
X74020D01*
X115640Y167470D02*
Y197150D01*
X122090Y167460D02*
Y197370D01*
X75760Y243700D02*
X122090Y197370D01*
X53810Y243700D02*
X75760D01*
X58290Y268280D02*
X88420D01*
X167000Y8000D02*
X170030Y11030D01*
X114780Y61150D02*
Y84740D01*
X171760Y141720D01*
X118700Y74580D02*
Y83900D01*
X132100Y44770D02*
Y55940D01*
X124830Y63210D02*
X132100Y55940D01*
X177850Y214420D02*
X184490Y221060D01*
X209180D01*
X210760Y222640D01*
X43703Y69270D02*
X60930D01*
X63900Y66300D01*
X118700Y83900D02*
X177850Y143050D01*
Y214420D01*
X67460Y91000D02*
X81180Y77280D01*
X66700Y85610D02*
X76760Y75550D01*
X81180Y56670D02*
Y77280D01*
X76760Y55940D02*
Y75550D01*
X72140Y55060D02*
Y72450D01*
X63900Y33700D02*
Y66300D01*
X107770Y26900D02*
Y32730D01*
X67460Y91000D02*
Y113990D01*
X41300Y251290D02*
X58290Y268280D01*
D38*
X179700Y6000D02*
D03*
X167000D02*
D03*
X154300D02*
D03*
X116200D02*
D03*
X128900D02*
D03*
X217700Y294000D02*
D03*
X205000Y294000D02*
D03*
X141600Y6000D02*
D03*
X103500D02*
D03*
X90800D02*
D03*
X78100D02*
D03*
X65400D02*
D03*
X52700D02*
D03*
X40000D02*
D03*
D39*
X244000Y206000D02*
D03*
Y193300D02*
D03*
D65*
X179700Y0D02*
D03*
Y8000D02*
D03*
X167000Y0D02*
D03*
Y8000D02*
D03*
X154300Y0D02*
D03*
Y8000D02*
D03*
X116200Y0D02*
D03*
Y8000D02*
D03*
X128900Y0D02*
D03*
Y8000D02*
D03*
X217700Y300000D02*
D03*
Y292000D02*
D03*
X205000Y300000D02*
D03*
Y292000D02*
D03*
X141600Y0D02*
D03*
Y8000D02*
D03*
X250000Y206000D02*
D03*
X242000D02*
D03*
X250000Y193300D02*
D03*
X242000D02*
D03*
X103500Y0D02*
D03*
Y8000D02*
D03*
X90800Y0D02*
D03*
Y8000D02*
D03*
X78100Y0D02*
D03*
Y8000D02*
D03*
X65400Y0D02*
D03*
Y8000D02*
D03*
X52700Y0D02*
D03*
Y8000D02*
D03*
X40000Y0D02*
D03*
Y8000D02*
D03*
D67*
X213800Y278199D02*
D03*
X43703Y75567D02*
D03*
X38200Y77240D02*
D03*
X33800Y136900D02*
D03*
X102700Y31200D02*
D03*
X121530Y42550D02*
D03*
X121640Y52550D02*
D03*
X146500Y21600D02*
D03*
X187796Y31645D02*
D03*
X191000Y41170D02*
D03*
X121390Y62550D02*
D03*
X243790Y177110D02*
D03*
X233790D02*
D03*
X228790Y187110D02*
D03*
X223790Y177110D02*
D03*
X213790Y197110D02*
D03*
X218790Y187110D02*
D03*
X213790Y177110D02*
D03*
X208790Y187110D02*
D03*
X203790Y177110D02*
D03*
X193790Y237110D02*
D03*
X198790Y187110D02*
D03*
X193790Y177110D02*
D03*
Y157110D02*
D03*
Y137110D02*
D03*
Y117110D02*
D03*
Y77110D02*
D03*
X188790Y127110D02*
D03*
X153790Y137110D02*
D03*
X148790Y127110D02*
D03*
X138790Y167110D02*
D03*
X128790Y267110D02*
D03*
X123790Y257110D02*
D03*
X128790Y247110D02*
D03*
X123790Y237110D02*
D03*
X128790Y227110D02*
D03*
X123790Y217110D02*
D03*
X128790Y207110D02*
D03*
Y167110D02*
D03*
X118790Y267110D02*
D03*
Y247110D02*
D03*
X108790Y267110D02*
D03*
X103790Y197110D02*
D03*
X108790Y167110D02*
D03*
X98790Y267110D02*
D03*
Y247110D02*
D03*
Y227110D02*
D03*
Y207110D02*
D03*
X93790Y197110D02*
D03*
Y157110D02*
D03*
X83790Y257110D02*
D03*
Y217110D02*
D03*
X88790Y207110D02*
D03*
X83790Y197110D02*
D03*
X63790Y257110D02*
D03*
X68790Y127110D02*
D03*
X43790Y277110D02*
D03*
X48790Y267110D02*
D03*
Y207110D02*
D03*
Y187110D02*
D03*
X33790Y277110D02*
D03*
X38790Y267110D02*
D03*
X33790Y237110D02*
D03*
Y217110D02*
D03*
Y197110D02*
D03*
Y157110D02*
D03*
X38790Y107110D02*
D03*
X23790Y57110D02*
D03*
X190160Y264780D02*
D03*
X193380Y22180D02*
D03*
X191300Y6360D02*
D03*
X190500Y58800D02*
D03*
X194100Y95800D02*
D03*
X162700Y28900D02*
D03*
X148550Y139960D02*
D03*
X117090Y124780D02*
D03*
X124540Y124760D02*
D03*
X115010Y47550D02*
D03*
X115640Y167470D02*
D03*
X122090Y167460D02*
D03*
X53810Y243700D02*
D03*
X53850Y254700D02*
D03*
X167640Y24520D02*
D03*
X72140Y72450D02*
D03*
X140620Y26620D02*
D03*
X88420Y268280D02*
D03*
X100410Y163410D02*
D03*
X90810Y30650D02*
D03*
X157640Y26060D02*
D03*
X210760Y222640D02*
D03*
X70500Y18900D02*
D03*
X50500Y20300D02*
D03*
X84800Y22700D02*
D03*
D68*
X27200Y77700D02*
D03*
X166100Y49100D02*
D03*
X155100D02*
D03*
X144100D02*
D03*
X155100Y60100D02*
D03*
X166100D02*
D03*
X144100D02*
D03*
Y71100D02*
D03*
X155100D02*
D03*
X166100D02*
D03*
X231520Y248050D02*
D03*
X115940Y294220D02*
D03*
X3790Y79270D02*
D03*
X100920Y49470D02*
D03*
X29480Y5800D02*
D03*
D69*
X185050Y52700D02*
D03*
M02*
