G04 Layer_Physical_Order=1*
G04 Layer_Color=255*
%FSLAX44Y44*%
%MOMM*%
G71*
G01*
G75*
%ADD10C,0.8000*%
%ADD11R,0.4000X0.6000*%
%ADD12R,2.0000X3.0000*%
%ADD13R,0.6000X0.4000*%
%ADD14O,0.9000X0.2500*%
%ADD15O,0.2500X0.9000*%
%ADD16R,1.5000X1.0000*%
%ADD17R,2.8000X2.8000*%
%ADD18O,0.2000X0.8500*%
%ADD19O,0.8500X0.2000*%
%ADD20C,0.2500*%
G04:AMPARAMS|DCode=21|XSize=0.45mm|YSize=0.23mm|CornerRadius=0mm|HoleSize=0mm|Usage=FLASHONLY|Rotation=0.000|XOffset=0mm|YOffset=0mm|HoleType=Round|Shape=Octagon|*
%AMOCTAGOND21*
4,1,8,0.2250,-0.0575,0.2250,0.0575,0.1675,0.1150,-0.1675,0.1150,-0.2250,0.0575,-0.2250,-0.0575,-0.1675,-0.1150,0.1675,-0.1150,0.2250,-0.0575,0.0*
%
%ADD21OCTAGOND21*%

%ADD22C,0.2200*%
%ADD23R,3.4000X4.2000*%
%ADD24O,0.9500X0.6000*%
%ADD25R,0.8000X1.0000*%
%ADD26R,1.8000X1.0000*%
%ADD27R,1.0000X1.1000*%
%ADD28R,0.2000X0.2000*%
%ADD29R,0.2000X0.2500*%
%ADD30R,0.5000X0.2500*%
%ADD31R,0.8500X0.7500*%
%ADD32R,0.5000X0.5000*%
%ADD33R,0.5000X0.9000*%
%ADD34C,0.1500*%
%ADD35C,0.2000*%
%ADD36C,0.2500*%
%ADD37C,0.3000*%
%ADD38C,0.2300*%
%ADD39C,0.2510*%
%ADD40C,0.1800*%
%ADD41C,0.5000*%
%ADD42C,0.9000*%
%ADD43R,0.5000X0.5000*%
%ADD44R,0.5000X0.9000*%
%ADD45R,0.9000X0.9000*%
%ADD46R,0.9000X0.9000*%
%ADD47C,0.4500*%
%ADD48C,0.5000*%
G36*
X99080Y5900D02*
X101080Y3900D01*
X97080D01*
Y7900D01*
X101080D01*
X99080Y5900D01*
D02*
G37*
G36*
X79666Y3900D02*
X77666D01*
X75666Y5900D01*
X77666Y7900D01*
X79666D01*
Y3900D01*
D02*
G37*
G36*
X105100D02*
X103100D01*
X101100Y5900D01*
X103100Y7900D01*
X105100D01*
Y3900D01*
D02*
G37*
G36*
X48700Y45400D02*
X44700D01*
X46700Y47400D01*
X44700Y49400D01*
X48700D01*
Y45400D01*
D02*
G37*
G36*
X44681Y47400D02*
X42681Y45400D01*
X40681D01*
Y49400D01*
X42681D01*
X44681Y47400D01*
D02*
G37*
G36*
X73647Y5900D02*
X75647Y3900D01*
X71647D01*
Y7900D01*
X75647D01*
X73647Y5900D01*
D02*
G37*
G36*
X22780D02*
X24780Y3900D01*
X20780D01*
Y7900D01*
X24780D01*
X22780Y5900D01*
D02*
G37*
G36*
X220000Y180000D02*
X171000D01*
Y47169D01*
X165500D01*
X165155Y47100D01*
X162000D01*
Y45949D01*
X157232D01*
X156890Y46380D01*
X149450D01*
Y48920D01*
X156272D01*
X156855Y49916D01*
X162893D01*
X163682Y49389D01*
X164950Y49136D01*
X166218Y49389D01*
X167293Y50107D01*
X168011Y51182D01*
X168263Y52450D01*
X168011Y53718D01*
X167293Y54793D01*
X166218Y55511D01*
X165693Y55616D01*
X164614Y56700D01*
X164361Y57968D01*
X164311Y58044D01*
X164108Y59299D01*
X165183Y60017D01*
X165901Y61092D01*
X166154Y62360D01*
X165901Y63628D01*
X165358Y64441D01*
X165183Y64758D01*
X165190Y66226D01*
X165461Y66632D01*
X165713Y67900D01*
X165461Y69168D01*
X164743Y70243D01*
X163668Y70961D01*
X163218Y71051D01*
X162386Y71374D01*
X162296Y72430D01*
X162360Y72750D01*
X162108Y74018D01*
X161389Y75093D01*
X160314Y75811D01*
X159046Y76064D01*
X157778Y75811D01*
X156703Y75093D01*
X155985Y74018D01*
X155732Y72750D01*
X155937Y71721D01*
X153905Y69689D01*
X146343D01*
X146077Y69812D01*
X145362Y70527D01*
X145333Y70591D01*
X145812Y71861D01*
X148700D01*
X149480Y72016D01*
X150142Y72458D01*
X159641Y81958D01*
X160000Y81886D01*
X161268Y82138D01*
X162343Y82857D01*
X163061Y83932D01*
X163313Y85200D01*
X163061Y86468D01*
X162343Y87543D01*
X161268Y88261D01*
X160000Y88513D01*
X158732Y88261D01*
X157657Y87543D01*
X156938Y86468D01*
X156686Y85200D01*
X156757Y84841D01*
X147855Y75939D01*
X145239D01*
Y77150D01*
X145084Y77930D01*
X144642Y78592D01*
X144219Y79854D01*
X144471Y81122D01*
X144219Y82390D01*
X143500Y83465D01*
X142425Y84183D01*
X141157Y84435D01*
X139889Y84183D01*
X138814Y83465D01*
X138096Y82390D01*
X137844Y81122D01*
X137913Y80774D01*
X137758Y80620D01*
X137316Y79959D01*
X137265Y79703D01*
X136063Y79060D01*
X135891Y79052D01*
X135200Y79189D01*
X134509Y79052D01*
X134381Y79058D01*
X133239Y79773D01*
Y83560D01*
X133284Y83627D01*
X133439Y84407D01*
X133439Y84407D01*
Y86254D01*
X133743Y86457D01*
X134461Y87532D01*
X134714Y88800D01*
X134461Y90068D01*
X133743Y91143D01*
X132668Y91861D01*
X131887Y92017D01*
X131640Y93358D01*
X132302Y93800D01*
X133020Y94875D01*
X133272Y96143D01*
X133020Y97411D01*
X132302Y98486D01*
X131227Y99204D01*
X129959Y99457D01*
X128691Y99204D01*
X127863Y100179D01*
X127851Y100238D01*
X127133Y101313D01*
X126058Y102031D01*
X124790Y102284D01*
X123522Y102031D01*
X122447Y101313D01*
X121729Y100238D01*
X121476Y98970D01*
X121729Y97702D01*
X122447Y96627D01*
X123522Y95909D01*
X124790Y95656D01*
X126058Y95909D01*
X126885Y94934D01*
X126897Y94875D01*
X127616Y93800D01*
X128691Y93082D01*
X129280Y92964D01*
X129584Y91752D01*
X128792Y90858D01*
X128412Y90821D01*
X127431Y90996D01*
X126883Y91817D01*
X125808Y92535D01*
X124540Y92787D01*
X123272Y92535D01*
X122197Y91817D01*
X121638Y90981D01*
X120249Y90574D01*
X119562Y91262D01*
X118983Y91649D01*
X118300Y91784D01*
X106262D01*
X105784Y92262D01*
Y96186D01*
X108262Y98664D01*
X108649Y99242D01*
X108784Y99925D01*
X110054Y100506D01*
X110181Y100422D01*
X111000Y100259D01*
X111513Y100361D01*
X113200D01*
X113980Y100516D01*
X114642Y100958D01*
X114942Y101258D01*
X115300Y101186D01*
X116568Y101439D01*
X117643Y102157D01*
X118361Y103232D01*
X118614Y104500D01*
X118361Y105768D01*
X117981Y106337D01*
X117657Y106867D01*
X118278Y107947D01*
X118443Y108057D01*
X119161Y109132D01*
X119414Y110400D01*
X119161Y111668D01*
X118443Y112743D01*
X117368Y113461D01*
X116100Y113714D01*
X114832Y113461D01*
X114559Y113279D01*
X113749Y114265D01*
X114642Y115158D01*
X114642Y115158D01*
X115084Y115820D01*
X115239Y116600D01*
X115239Y116600D01*
Y118354D01*
X115543Y118557D01*
X116261Y119632D01*
X116514Y120900D01*
X116261Y122168D01*
X115543Y123243D01*
X114468Y123961D01*
X113200Y124214D01*
X111932Y123961D01*
X110857Y123243D01*
X110139Y122168D01*
X109886Y120900D01*
X110139Y119632D01*
X110857Y118557D01*
X110877Y118128D01*
X109714Y117015D01*
X109624Y117024D01*
X108420Y117829D01*
X108270Y117859D01*
Y114400D01*
X105730D01*
Y117859D01*
X105580Y117829D01*
X104376Y117024D01*
X103571Y115820D01*
X102291Y115896D01*
X101700Y116014D01*
X100840Y116719D01*
Y126240D01*
X89570D01*
Y108700D01*
X88300D01*
Y107430D01*
X75760D01*
Y91160D01*
X85860D01*
X86484Y90399D01*
X86737Y89131D01*
X86810Y89022D01*
X86806Y88952D01*
X86167Y87698D01*
X85482Y87561D01*
X84407Y86843D01*
X83689Y85768D01*
X83436Y84500D01*
X83689Y83232D01*
X84407Y82157D01*
X85360Y81520D01*
Y78970D01*
X90900D01*
X96440D01*
Y82240D01*
X90560D01*
X89867Y83510D01*
X90064Y84500D01*
X89811Y85768D01*
X89739Y85877D01*
X89742Y85947D01*
X90381Y87201D01*
X91066Y87337D01*
X92141Y88056D01*
X92860Y89131D01*
X93112Y90399D01*
X93737Y91160D01*
X100840D01*
Y100362D01*
X102110Y101404D01*
X102200Y101386D01*
X103219Y101589D01*
X104363Y101065D01*
X104541Y100951D01*
X104686Y100134D01*
X102738Y98187D01*
X102352Y97608D01*
X102216Y96925D01*
Y91523D01*
X102352Y90840D01*
X102738Y90261D01*
X104262Y88738D01*
X104840Y88351D01*
X105523Y88216D01*
X117561D01*
X121416Y84361D01*
Y81338D01*
X120470Y80767D01*
Y73900D01*
X117930D01*
Y81026D01*
X117239Y81509D01*
Y82427D01*
X117313Y82801D01*
X117061Y84069D01*
X116343Y85144D01*
X115268Y85862D01*
X114000Y86114D01*
X112732Y85862D01*
X111816Y85250D01*
X111657Y85144D01*
X110343Y85343D01*
X109268Y86061D01*
X108000Y86314D01*
X106732Y86061D01*
X105657Y85343D01*
X104939Y84268D01*
X104686Y83000D01*
X104939Y81732D01*
X105657Y80657D01*
X106210Y80287D01*
X106281Y79865D01*
X106155Y78857D01*
X105758Y78592D01*
X105316Y77930D01*
X105161Y77150D01*
Y75939D01*
X103546D01*
X103343Y76243D01*
X102268Y76961D01*
X101000Y77214D01*
X99732Y76961D01*
X98657Y76243D01*
X97939Y75168D01*
X97686Y73900D01*
X97939Y72632D01*
X98657Y71557D01*
X99551Y70959D01*
X99519Y70214D01*
X99340Y69689D01*
X97895D01*
X96442Y71142D01*
X95780Y71584D01*
X95603Y71619D01*
X95557Y72065D01*
X96440Y73160D01*
X96440D01*
Y76430D01*
X90900D01*
X85360D01*
Y73160D01*
X85821D01*
X86900Y72700D01*
X86900Y71890D01*
Y68619D01*
X86416Y68266D01*
X85630Y68017D01*
X85283Y68249D01*
X84600Y68384D01*
X83450D01*
Y71350D01*
X81082D01*
X80239Y72200D01*
X80084Y72980D01*
X79642Y73642D01*
X79642Y73642D01*
X78432Y74852D01*
X78700Y75500D01*
X78700D01*
Y83500D01*
X72700Y83500D01*
X72240Y84579D01*
Y85040D01*
X68970D01*
Y79500D01*
Y73960D01*
X72240D01*
Y73960D01*
X73172Y74574D01*
X73563Y74638D01*
X73686Y74574D01*
X73816Y73920D01*
X74258Y73258D01*
X74896Y72620D01*
X74370Y71350D01*
X72950D01*
Y61850D01*
X72950Y61850D01*
Y60850D01*
X72950D01*
X72950Y60580D01*
Y51384D01*
X69950D01*
Y60580D01*
X69950Y60850D01*
Y61850D01*
X69950Y62120D01*
Y71350D01*
X59450D01*
Y62120D01*
X59450Y61850D01*
Y60850D01*
X59450Y60580D01*
Y59239D01*
X56485D01*
X56442Y59447D01*
X57040Y60660D01*
X57040D01*
Y63930D01*
X51500D01*
X45960D01*
Y60660D01*
X46420D01*
X47500Y60200D01*
X47500Y59390D01*
Y54200D01*
X55500D01*
Y55161D01*
X59450D01*
Y52133D01*
X59097Y51819D01*
X58194Y51316D01*
X57200Y51514D01*
X55932Y51261D01*
X54857Y50543D01*
X54138Y49468D01*
X53886Y48200D01*
X54138Y46932D01*
X54857Y45857D01*
X55932Y45139D01*
X56861Y44954D01*
X57539Y44439D01*
X58006Y43824D01*
X57744Y42583D01*
X57151Y42285D01*
X56532Y42161D01*
X55457Y41443D01*
X54739Y40368D01*
X54486Y39100D01*
X54739Y37832D01*
X55457Y36757D01*
X56532Y36039D01*
X56555Y36034D01*
X57638Y35468D01*
X57386Y34200D01*
X57639Y32932D01*
X58357Y31857D01*
X59432Y31139D01*
X60700Y30886D01*
X61968Y31139D01*
X63043Y31857D01*
X63761Y32932D01*
X63824Y33248D01*
X64833Y34077D01*
X65175Y34025D01*
X66800Y33702D01*
X68751Y34090D01*
X70405Y35195D01*
X70489Y35322D01*
X71686Y34826D01*
X71402Y33400D01*
X71790Y31449D01*
X72895Y29795D01*
X74549Y28690D01*
X76500Y28302D01*
X78451Y28690D01*
X78592Y28784D01*
X78888Y28488D01*
X79467Y28101D01*
X80150Y27966D01*
X83660D01*
Y24520D01*
X82606Y24020D01*
X82390Y23977D01*
X81780Y24384D01*
X81000Y24539D01*
X79700D01*
Y25500D01*
X71700D01*
Y25500D01*
X70493Y25652D01*
X69822Y26322D01*
X69078Y26819D01*
X68200Y26994D01*
X65733D01*
X65273Y28198D01*
Y28490D01*
X63003D01*
Y24700D01*
X60463D01*
Y28490D01*
X58193D01*
Y25335D01*
X56987Y24625D01*
X56923Y24630D01*
X56100Y24794D01*
X54750D01*
Y25500D01*
X46750D01*
X46750Y25500D01*
Y25500D01*
X45628Y25916D01*
X45222Y26322D01*
X44478Y26819D01*
X43600Y26994D01*
X40267D01*
X39807Y28198D01*
Y28490D01*
X37537D01*
Y24700D01*
X34997D01*
Y28490D01*
X33909D01*
X33141Y28490D01*
X33075Y28514D01*
X32652Y29729D01*
X32843Y29857D01*
X33561Y30932D01*
X33814Y32200D01*
X33795Y32291D01*
X35856Y34351D01*
X37700D01*
Y32900D01*
X43700D01*
X44160Y31820D01*
Y31360D01*
X47430D01*
Y36900D01*
X48700D01*
Y38170D01*
X53240D01*
Y42440D01*
X50684D01*
X49878Y43422D01*
X49914Y43600D01*
X49661Y44868D01*
X49600Y44960D01*
X49782Y45400D01*
Y49400D01*
X49465Y50165D01*
X48700Y50482D01*
X44700D01*
X43935Y50165D01*
X42690Y50479D01*
X42681Y50482D01*
X40681D01*
X40639Y50510D01*
Y53754D01*
X40943Y53957D01*
X41661Y55032D01*
X41914Y56300D01*
X41661Y57568D01*
X40943Y58643D01*
X39868Y59361D01*
X38600Y59613D01*
X37332Y59361D01*
X36257Y58643D01*
X35538Y57568D01*
X35286Y56300D01*
X35538Y55032D01*
X36037Y54285D01*
X35962Y53558D01*
X35175Y52985D01*
X34771Y52781D01*
X33600Y53014D01*
X32332Y52761D01*
X31257Y52043D01*
X30539Y50968D01*
X30370Y50121D01*
X29100Y50246D01*
Y54600D01*
X23100D01*
X22640Y55679D01*
Y56140D01*
X19370D01*
Y50600D01*
Y45060D01*
X22640D01*
X22640Y45060D01*
X22791Y45115D01*
X24061Y44225D01*
Y42300D01*
X23100D01*
Y34300D01*
X26583D01*
X27351Y33030D01*
X27186Y32200D01*
X27438Y30932D01*
X28157Y29857D01*
X29232Y29139D01*
X30500Y28886D01*
X31529Y29091D01*
X31721Y29129D01*
X32033Y28893D01*
X32727Y28252D01*
X32727Y27392D01*
Y25212D01*
X32290Y24866D01*
X31457Y24428D01*
X30900Y24539D01*
X28600D01*
Y25500D01*
X20600D01*
X20600Y25500D01*
Y25500D01*
X19513Y25971D01*
X19342Y26142D01*
X18680Y26584D01*
X17900Y26739D01*
X16800D01*
Y26950D01*
X14340D01*
Y28490D01*
X12070D01*
Y24700D01*
X10800D01*
Y23430D01*
X7260D01*
Y20910D01*
X8221D01*
X9300Y20450D01*
Y15950D01*
X10506D01*
Y13500D01*
X7200D01*
Y2500D01*
X18200D01*
Y3606D01*
X19820D01*
X20015Y3135D01*
X20780Y2818D01*
X24780D01*
X25546Y3135D01*
X26791Y2821D01*
X26800Y2818D01*
X28800D01*
X29565Y3135D01*
X29866Y3861D01*
X30600D01*
X31330Y4006D01*
X31388Y4012D01*
X32600Y3304D01*
Y2500D01*
X43600D01*
Y3606D01*
X45253D01*
X45448Y3135D01*
X46214Y2818D01*
X50214D01*
X50979Y3135D01*
X51387Y3216D01*
X51468Y3135D01*
X52233Y2818D01*
X54233D01*
X54998Y3135D01*
X55194Y3606D01*
X56100D01*
X56730Y3731D01*
X57601Y3265D01*
X58000Y2936D01*
Y2500D01*
X69000D01*
Y3606D01*
X70686D01*
X70882Y3135D01*
X71647Y2818D01*
X75647D01*
X76412Y3135D01*
X77657Y2821D01*
X77666Y2818D01*
X79666D01*
X80432Y3135D01*
X80733Y3861D01*
X81500D01*
X82130Y3986D01*
X82453Y3896D01*
X83400Y3237D01*
Y2500D01*
X94400D01*
Y3606D01*
X96120D01*
X96315Y3135D01*
X97080Y2818D01*
X101080D01*
X101846Y3135D01*
X103091Y2821D01*
X103100Y2818D01*
X105100D01*
X105865Y3135D01*
X106182Y3900D01*
Y5268D01*
X106619Y5922D01*
X106794Y6800D01*
X106774Y6900D01*
X106794Y7000D01*
X106794Y7000D01*
Y7824D01*
X106843Y7857D01*
X107530Y8885D01*
X107626Y8905D01*
X108800Y8629D01*
Y2500D01*
X119800D01*
Y13500D01*
X119800Y13500D01*
X120131Y14478D01*
X120131Y14478D01*
X120132Y14478D01*
X120161Y14532D01*
X120161Y14532D01*
X120413Y15800D01*
X120309Y16325D01*
X120642Y16658D01*
X121084Y17320D01*
X121239Y18100D01*
X121239Y18100D01*
Y19527D01*
X122381Y20242D01*
X122509Y20248D01*
X122985Y20154D01*
X123438Y19763D01*
X123980Y18971D01*
X123886Y18500D01*
X124138Y17232D01*
X124857Y16157D01*
X125932Y15439D01*
X127200Y15186D01*
X128468Y15439D01*
X129543Y16157D01*
X130261Y17232D01*
X130271Y17282D01*
X131613Y17520D01*
X132057Y16857D01*
X133132Y16139D01*
X134400Y15886D01*
X135668Y16139D01*
X135891Y16287D01*
X137161Y15609D01*
Y13500D01*
X134200D01*
Y2500D01*
X145200D01*
Y11961D01*
X146028Y12737D01*
X146759Y12735D01*
X146900Y12606D01*
Y2500D01*
X157900D01*
Y13500D01*
X154439D01*
Y14100D01*
X154284Y14880D01*
X153842Y15542D01*
X153842Y15542D01*
X152342Y17042D01*
X151680Y17484D01*
X150900Y17639D01*
X146745D01*
X145239Y19145D01*
Y20759D01*
X145364Y20868D01*
X146509Y21321D01*
X147232Y20838D01*
X148500Y20586D01*
X149768Y20838D01*
X150843Y21557D01*
X151561Y22632D01*
X151813Y23900D01*
X151561Y25168D01*
X151489Y25276D01*
Y29611D01*
X152700D01*
X153480Y29766D01*
X154142Y30208D01*
X154584Y30870D01*
X154739Y31650D01*
X154584Y32430D01*
X154142Y33092D01*
Y34208D01*
X154584Y34870D01*
X154739Y35650D01*
X154584Y36430D01*
X154142Y37092D01*
Y38208D01*
X154584Y38870D01*
X154739Y39650D01*
X154654Y40081D01*
X155221Y41073D01*
X155496Y41351D01*
X162000D01*
Y40100D01*
X165155D01*
X165500Y40031D01*
X171000D01*
Y28208D01*
X169500D01*
Y28600D01*
X161500D01*
Y16600D01*
X169500D01*
Y16992D01*
X171000D01*
Y0D01*
X0D01*
Y250000D01*
X6560D01*
Y245770D01*
X18100D01*
X29640D01*
Y250000D01*
X78560D01*
Y245770D01*
X90100D01*
X101640D01*
Y250000D01*
X220000D01*
Y180000D01*
D02*
G37*
G36*
X28800Y3900D02*
X26800D01*
X24800Y5900D01*
X26800Y7900D01*
X28800D01*
Y3900D01*
D02*
G37*
G36*
X54233D02*
X52233D01*
X50233Y5900D01*
X52233Y7900D01*
X54233D01*
Y3900D01*
D02*
G37*
G36*
X48214Y5900D02*
X50214Y3900D01*
X46214D01*
Y7900D01*
X50214D01*
X48214Y5900D01*
D02*
G37*
%LPC*%
G36*
X64000Y127113D02*
X62732Y126861D01*
X61657Y126143D01*
X60939Y125068D01*
X60686Y123800D01*
X60939Y122532D01*
X61657Y121457D01*
X61882Y121306D01*
X61861Y121200D01*
X62016Y120420D01*
X62458Y119758D01*
X63120Y119316D01*
X63900Y119161D01*
X64680Y119316D01*
X65342Y119758D01*
X65442Y119858D01*
X65442Y119858D01*
X65884Y120520D01*
X66028Y121247D01*
X66343Y121457D01*
X67061Y122532D01*
X67313Y123800D01*
X67061Y125068D01*
X66343Y126143D01*
X65268Y126861D01*
X64000Y127113D01*
D02*
G37*
G36*
X16300Y133714D02*
X15032Y133461D01*
X14265Y132949D01*
X11000D01*
X10025Y132755D01*
X9198Y132202D01*
X8446Y131450D01*
X7200Y131698D01*
X5249Y131310D01*
X3595Y130205D01*
X2490Y128551D01*
X2102Y126600D01*
X2490Y124649D01*
X3595Y122995D01*
X5249Y121890D01*
X7200Y121502D01*
X9151Y121890D01*
X10805Y122995D01*
X11910Y124649D01*
X12298Y126600D01*
X13344Y127851D01*
X14265D01*
X15032Y127339D01*
X16300Y127086D01*
X17568Y127339D01*
X18643Y128057D01*
X19361Y129132D01*
X19614Y130400D01*
X19361Y131668D01*
X18643Y132743D01*
X17568Y133461D01*
X16300Y133714D01*
D02*
G37*
G36*
X126630Y123864D02*
X124650D01*
X123171Y123570D01*
X121918Y122732D01*
X121080Y121479D01*
X121038Y121270D01*
X126630D01*
Y123864D01*
D02*
G37*
G36*
X87030Y126240D02*
X75760D01*
Y109970D01*
X87030D01*
Y126240D01*
D02*
G37*
G36*
X61000Y113613D02*
X59732Y113361D01*
X58657Y112643D01*
X57938Y111568D01*
X57686Y110300D01*
X57938Y109032D01*
X58657Y107957D01*
X59732Y107238D01*
X61000Y106986D01*
X62268Y107238D01*
X63343Y107957D01*
X64061Y109032D01*
X64314Y110300D01*
X64061Y111568D01*
X63343Y112643D01*
X62268Y113361D01*
X61000Y113613D01*
D02*
G37*
G36*
X51000Y124714D02*
X49732Y124461D01*
X48657Y123743D01*
X47939Y122668D01*
X47686Y121400D01*
X47939Y120132D01*
X48657Y119057D01*
X49732Y118339D01*
X51000Y118086D01*
X52268Y118339D01*
X53343Y119057D01*
X54061Y120132D01*
X54314Y121400D01*
X54061Y122668D01*
X53343Y123743D01*
X52268Y124461D01*
X51000Y124714D01*
D02*
G37*
G36*
X39300Y124700D02*
X17300D01*
Y116522D01*
X16712Y116188D01*
X16030Y116002D01*
X15118Y116611D01*
X13850Y116864D01*
X12582Y116611D01*
X11815Y116099D01*
X11510D01*
X10805Y117155D01*
X9151Y118260D01*
X7200Y118648D01*
X5249Y118260D01*
X3595Y117155D01*
X2490Y115501D01*
X2102Y113550D01*
X2490Y111599D01*
X3595Y109945D01*
X5249Y108840D01*
X7200Y108452D01*
X9151Y108840D01*
X10805Y109945D01*
X11510Y111001D01*
X11815D01*
X12582Y110489D01*
X13850Y110236D01*
X15118Y110489D01*
X16030Y111098D01*
X16712Y110912D01*
X17300Y110577D01*
Y103547D01*
X16818Y103226D01*
X16030Y102985D01*
X15168Y103561D01*
X13900Y103814D01*
X12632Y103561D01*
X11865Y103049D01*
X11510D01*
X10805Y104105D01*
X9151Y105210D01*
X7200Y105598D01*
X5249Y105210D01*
X3595Y104105D01*
X2490Y102451D01*
X2102Y100500D01*
X2490Y98549D01*
X3595Y96895D01*
X5249Y95790D01*
X7200Y95402D01*
X9151Y95790D01*
X10805Y96895D01*
X11510Y97951D01*
X11865D01*
X12632Y97439D01*
X13900Y97186D01*
X15168Y97439D01*
X16030Y98014D01*
X16818Y97774D01*
X17300Y97453D01*
Y92700D01*
X39300D01*
Y124700D01*
D02*
G37*
G36*
X16830Y141230D02*
X6560D01*
Y134960D01*
X16830D01*
Y141230D01*
D02*
G37*
G36*
X77140Y143230D02*
X71870D01*
Y136960D01*
X77140D01*
Y143230D01*
D02*
G37*
G36*
X44400Y158614D02*
X43132Y158361D01*
X42057Y157643D01*
X41339Y156568D01*
X41086Y155300D01*
X41339Y154032D01*
X42057Y152957D01*
X43132Y152239D01*
X44400Y151986D01*
X44561Y151854D01*
Y150500D01*
X41600D01*
Y138500D01*
X51600D01*
Y150500D01*
X48639D01*
Y153100D01*
X48484Y153880D01*
X48042Y154542D01*
X47642Y154942D01*
X47714Y155300D01*
X47461Y156568D01*
X46743Y157643D01*
X45668Y158361D01*
X44400Y158614D01*
D02*
G37*
G36*
X148700Y143814D02*
X147432Y143561D01*
X146357Y142843D01*
X145639Y141768D01*
X145386Y140500D01*
X145480Y140027D01*
X145316Y139780D01*
X145203Y139213D01*
X144987Y139039D01*
X144646Y138870D01*
X143891Y138679D01*
X143168Y139161D01*
X141900Y139414D01*
X140632Y139161D01*
X139557Y138443D01*
X139479Y138326D01*
X139280Y138224D01*
X137874Y138210D01*
X137642Y138442D01*
X136980Y138884D01*
X136200Y139039D01*
X132446D01*
X132243Y139343D01*
X131168Y140061D01*
X129900Y140314D01*
X128632Y140061D01*
X127557Y139343D01*
X126839Y138268D01*
X126586Y137000D01*
X126839Y135732D01*
X127557Y134657D01*
X128632Y133939D01*
X128776Y133910D01*
X129781Y133128D01*
X129606Y132250D01*
Y125750D01*
X129728Y125134D01*
X129247Y124242D01*
X129170Y124151D01*
Y120000D01*
X127900D01*
Y118730D01*
X121038D01*
X121080Y118521D01*
X121667Y117642D01*
X121201Y117330D01*
X120482Y116255D01*
X120230Y114987D01*
X120482Y113719D01*
X121201Y112644D01*
X122276Y111926D01*
X123544Y111674D01*
X124812Y111926D01*
X125887Y112644D01*
X125928Y112706D01*
X131150D01*
X131828Y112092D01*
X131530Y111470D01*
X131022Y111369D01*
X130278Y110872D01*
X129781Y110128D01*
X129606Y109250D01*
Y102750D01*
X129781Y101872D01*
X130278Y101128D01*
X131022Y100631D01*
X131900Y100456D01*
X132778Y100631D01*
X133522Y101128D01*
X133591Y101231D01*
X134861Y100845D01*
Y94100D01*
X135016Y93320D01*
X135458Y92658D01*
X135613Y92503D01*
X135613Y92503D01*
X135613Y92503D01*
X137498Y90618D01*
X137498Y90618D01*
X138160Y90176D01*
X138940Y90021D01*
X138940Y90021D01*
X140494D01*
X140697Y89717D01*
X141772Y88999D01*
X143040Y88746D01*
X143981Y88933D01*
X145251Y88217D01*
Y87790D01*
X145406Y87010D01*
X145848Y86348D01*
X145858Y86338D01*
X146520Y85896D01*
X147300Y85741D01*
X147300Y85741D01*
X148014D01*
X148217Y85437D01*
X149292Y84719D01*
X150560Y84466D01*
X151828Y84719D01*
X152903Y85437D01*
X153621Y86512D01*
X153874Y87780D01*
X153621Y89048D01*
X152903Y90123D01*
X151828Y90841D01*
X150560Y91094D01*
X150311Y91044D01*
X149329Y91850D01*
Y95982D01*
X150599Y96660D01*
X150632Y96639D01*
X151900Y96386D01*
X153168Y96639D01*
X154243Y97357D01*
X154961Y98432D01*
X155214Y99700D01*
X154961Y100968D01*
X154243Y102043D01*
X154076Y102155D01*
X154194Y102750D01*
Y109250D01*
X154019Y110128D01*
X153522Y110872D01*
X152778Y111369D01*
X152270Y111470D01*
X151972Y112092D01*
X152650Y112706D01*
X159150D01*
X159603Y112207D01*
X159857Y110943D01*
X159139Y109868D01*
X158886Y108600D01*
X159139Y107332D01*
X159857Y106257D01*
X160932Y105539D01*
X161415Y105442D01*
X161683Y104094D01*
X161457Y103943D01*
X160739Y102868D01*
X160486Y101600D01*
X160739Y100332D01*
X161457Y99257D01*
X162532Y98539D01*
X163800Y98286D01*
X165068Y98539D01*
X166143Y99257D01*
X166861Y100332D01*
X167114Y101600D01*
X166861Y102868D01*
X166143Y103943D01*
X165068Y104661D01*
X164585Y104757D01*
X164317Y106106D01*
X164543Y106257D01*
X165261Y107332D01*
X165514Y108600D01*
X165261Y109868D01*
X164543Y110943D01*
X163979Y111320D01*
X163876Y112746D01*
X163892Y112789D01*
X164143Y112957D01*
X164861Y114032D01*
X165114Y115300D01*
X164861Y116568D01*
X164427Y117219D01*
X164443Y118757D01*
X165161Y119832D01*
X165414Y121100D01*
X165161Y122368D01*
X164443Y123443D01*
X164343Y123510D01*
Y124100D01*
X164477Y124948D01*
X165061Y125821D01*
X165313Y127089D01*
X165061Y128357D01*
X164343Y129432D01*
X163268Y130151D01*
X162000Y130403D01*
X160732Y130151D01*
X159657Y129432D01*
X159184D01*
X158843Y129943D01*
X158129Y130420D01*
X157974Y131586D01*
X158042Y131889D01*
X158443Y132157D01*
X159161Y133232D01*
X159413Y134500D01*
X159161Y135768D01*
X158443Y136843D01*
X157943Y137177D01*
Y137657D01*
X158661Y138732D01*
X158914Y140000D01*
X158661Y141268D01*
X157943Y142343D01*
X156868Y143061D01*
X155600Y143314D01*
X154332Y143061D01*
X153257Y142343D01*
X153014Y141980D01*
X152626Y141914D01*
X151553Y142079D01*
X151043Y142843D01*
X149968Y143561D01*
X148700Y143814D01*
D02*
G37*
G36*
X57800Y158314D02*
X56532Y158061D01*
X55457Y157343D01*
X54739Y156268D01*
X54486Y155000D01*
X54739Y153732D01*
X55457Y152657D01*
X56051Y152260D01*
Y150500D01*
X53600D01*
Y138500D01*
X63600Y138500D01*
X64060Y137421D01*
Y136960D01*
X69330D01*
Y144500D01*
Y152040D01*
X64060D01*
Y151580D01*
X63600Y150500D01*
X62790Y150500D01*
X61149D01*
Y154200D01*
X61052Y154689D01*
X61114Y155000D01*
X60861Y156268D01*
X60143Y157343D01*
X59068Y158061D01*
X57800Y158314D01*
D02*
G37*
G36*
X29640Y141230D02*
X19370D01*
Y134960D01*
X29640D01*
Y141230D01*
D02*
G37*
G36*
X88830D02*
X78560D01*
Y134960D01*
X88830D01*
Y141230D01*
D02*
G37*
G36*
X101640D02*
X91370D01*
Y134960D01*
X101640D01*
Y141230D01*
D02*
G37*
G36*
X68600Y111114D02*
X67332Y110861D01*
X66257Y110143D01*
X65539Y109068D01*
X65286Y107800D01*
X65539Y106532D01*
X66257Y105457D01*
X66157Y104043D01*
X65438Y102968D01*
X65186Y101700D01*
X65438Y100432D01*
X65618Y100163D01*
X65894Y99107D01*
X65294Y98535D01*
X64857Y98243D01*
X64139Y97168D01*
X63886Y95900D01*
X64139Y94632D01*
X64857Y93557D01*
X65932Y92839D01*
X67200Y92586D01*
X68468Y92839D01*
X69543Y93557D01*
X70261Y94632D01*
X70514Y95900D01*
X70261Y97168D01*
X70082Y97437D01*
X69806Y98493D01*
X70406Y99064D01*
X70843Y99357D01*
X71561Y100432D01*
X71814Y101700D01*
X71561Y102968D01*
X70843Y104043D01*
X70943Y105457D01*
X71661Y106532D01*
X71914Y107800D01*
X71661Y109068D01*
X70943Y110143D01*
X69868Y110861D01*
X68600Y111114D01*
D02*
G37*
G36*
X16830Y56140D02*
X13560D01*
Y51870D01*
X16830D01*
Y56140D01*
D02*
G37*
G36*
X50230Y69740D02*
X45960D01*
Y66470D01*
X50230D01*
Y69740D01*
D02*
G37*
G36*
X57040D02*
X52770D01*
Y66470D01*
X57040D01*
Y69740D01*
D02*
G37*
G36*
X16830Y49330D02*
X13560D01*
Y45060D01*
X16830D01*
Y49330D01*
D02*
G37*
G36*
X9530Y28490D02*
X7260D01*
Y25970D01*
X9530D01*
Y28490D01*
D02*
G37*
G36*
X53240Y35630D02*
X49970D01*
Y31360D01*
X53240D01*
Y35630D01*
D02*
G37*
G36*
X13500Y43600D02*
X2500D01*
Y32600D01*
X13500D01*
Y36061D01*
X15100D01*
Y34300D01*
X21100D01*
Y42300D01*
X15100D01*
Y40139D01*
X13500D01*
Y43600D01*
D02*
G37*
G36*
Y81700D02*
X2500D01*
Y70700D01*
X13500D01*
Y81700D01*
D02*
G37*
G36*
X55250Y91021D02*
X53982Y90769D01*
X52907Y90051D01*
X52189Y88976D01*
X51936Y87708D01*
X52189Y86440D01*
X52907Y85365D01*
X53982Y84646D01*
X55250Y84394D01*
X56518Y84646D01*
X57593Y85365D01*
X58311Y86440D01*
X58564Y87708D01*
X58311Y88976D01*
X57593Y90051D01*
X56518Y90769D01*
X55250Y91021D01*
D02*
G37*
G36*
X157700Y96514D02*
X156432Y96261D01*
X155357Y95543D01*
X154639Y94468D01*
X154386Y93200D01*
X154639Y91932D01*
X155357Y90857D01*
X156432Y90139D01*
X157700Y89886D01*
X158968Y90139D01*
X160043Y90857D01*
X160761Y91932D01*
X161014Y93200D01*
X160761Y94468D01*
X160043Y95543D01*
X158968Y96261D01*
X157700Y96514D01*
D02*
G37*
G36*
X47200Y97114D02*
X45932Y96861D01*
X44857Y96143D01*
X44138Y95068D01*
X43886Y93800D01*
X44138Y92532D01*
X44857Y91457D01*
X45932Y90738D01*
X47200Y90486D01*
X48468Y90738D01*
X49543Y91457D01*
X50261Y92532D01*
X50514Y93800D01*
X50261Y95068D01*
X49543Y96143D01*
X48468Y96861D01*
X47200Y97114D01*
D02*
G37*
G36*
X40900Y88414D02*
X39632Y88161D01*
X38557Y87443D01*
X37839Y86368D01*
X37586Y85100D01*
X37839Y83832D01*
X38557Y82757D01*
X39632Y82039D01*
X40900Y81786D01*
X42168Y82039D01*
X43243Y82757D01*
X43961Y83832D01*
X44214Y85100D01*
X43961Y86368D01*
X43243Y87443D01*
X42168Y88161D01*
X40900Y88414D01*
D02*
G37*
G36*
X31695Y74340D02*
X30020D01*
Y71920D01*
X33540D01*
Y72495D01*
X31695Y74340D01*
D02*
G37*
G36*
X27480D02*
X25805D01*
X24343Y72878D01*
X22760Y72665D01*
X22625Y72800D01*
X21174D01*
X20450Y72944D01*
X17950D01*
X17072Y72769D01*
X16328Y72272D01*
X15278Y71222D01*
X14781Y70478D01*
X14606Y69600D01*
Y69396D01*
X13500Y69000D01*
X13336Y69000D01*
X2500D01*
Y58000D01*
X13500D01*
Y61370D01*
X13589Y61563D01*
X14770Y61679D01*
X14939Y60832D01*
X15657Y59757D01*
X16732Y59039D01*
X18000Y58786D01*
X19268Y59039D01*
X20343Y59757D01*
X21061Y60832D01*
X21232Y61687D01*
X21544Y62000D01*
X22625D01*
X23700Y63075D01*
Y63990D01*
X23965Y64319D01*
X24366D01*
X25500Y63158D01*
Y63075D01*
X26575Y62000D01*
X28538D01*
X28750Y61958D01*
X31306D01*
X31407Y61807D01*
X32482Y61089D01*
X33750Y60836D01*
X35018Y61089D01*
X35531Y61431D01*
X36450Y61702D01*
X37369Y61431D01*
X37882Y61089D01*
X39150Y60836D01*
X40418Y61089D01*
X41493Y61807D01*
X42211Y62882D01*
X42464Y64150D01*
X42211Y65418D01*
X41493Y66493D01*
X40418Y67211D01*
X39150Y67464D01*
X37882Y67211D01*
X37369Y66869D01*
X36450Y66598D01*
X35531Y66869D01*
X35018Y67211D01*
X33954Y67423D01*
X33595Y68061D01*
X33430Y68695D01*
X33540Y68805D01*
Y69380D01*
X28750D01*
Y70650D01*
X27480D01*
Y74340D01*
D02*
G37*
G36*
X66430Y85040D02*
X63160D01*
Y79259D01*
X61890Y78874D01*
X61443Y79543D01*
X60368Y80261D01*
X59100Y80513D01*
X57832Y80261D01*
X56757Y79543D01*
X56038Y78468D01*
X55786Y77200D01*
X56038Y75932D01*
X56757Y74857D01*
X57832Y74138D01*
X59100Y73886D01*
X60368Y74138D01*
X61443Y74857D01*
X61890Y75526D01*
X63160Y75141D01*
Y73960D01*
X66430D01*
Y79500D01*
Y85040D01*
D02*
G37*
G36*
X57300Y221514D02*
X56032Y221261D01*
X54957Y220543D01*
X54239Y219468D01*
X53986Y218200D01*
X54239Y216932D01*
X54957Y215857D01*
X56032Y215139D01*
X57300Y214886D01*
X58568Y215139D01*
X59643Y215857D01*
X60361Y216932D01*
X60614Y218200D01*
X60361Y219468D01*
X59643Y220543D01*
X58568Y221261D01*
X57300Y221514D01*
D02*
G37*
G36*
X6300Y218214D02*
X5032Y217961D01*
X3957Y217243D01*
X3239Y216168D01*
X2986Y214900D01*
X3239Y213632D01*
X3957Y212557D01*
X5032Y211839D01*
X6300Y211586D01*
X7568Y211839D01*
X8643Y212557D01*
X9361Y213632D01*
X9614Y214900D01*
X9361Y216168D01*
X8643Y217243D01*
X7568Y217961D01*
X6300Y218214D01*
D02*
G37*
G36*
X153200Y224928D02*
X149700D01*
X148139Y224618D01*
X146816Y223734D01*
X145932Y222411D01*
X145622Y220850D01*
X145932Y219289D01*
X146816Y217966D01*
X148139Y217082D01*
X149700Y216772D01*
X153200D01*
X154761Y217082D01*
X156084Y217966D01*
X156968Y219289D01*
X157278Y220850D01*
X156968Y222411D01*
X156084Y223734D01*
X154761Y224618D01*
X153200Y224928D01*
D02*
G37*
G36*
X75600Y248500D02*
X65600D01*
Y236500D01*
X68561D01*
Y235246D01*
X68257Y235043D01*
X67539Y233968D01*
X67286Y232700D01*
X67539Y231432D01*
X68257Y230357D01*
X69332Y229639D01*
X70600Y229386D01*
X71868Y229639D01*
X72463Y230036D01*
X72658Y230014D01*
X73769Y229482D01*
X73939Y228632D01*
X74657Y227557D01*
X75732Y226839D01*
X77000Y226586D01*
X78268Y226839D01*
X79343Y227557D01*
X80061Y228632D01*
X80314Y229900D01*
X80061Y231168D01*
X79343Y232243D01*
X78268Y232961D01*
X77000Y233214D01*
X75732Y232961D01*
X75137Y232564D01*
X74942Y232586D01*
X73830Y233118D01*
X73661Y233968D01*
X72943Y235043D01*
X72639Y235246D01*
Y236500D01*
X75600D01*
Y248500D01*
D02*
G37*
G36*
X6300Y231214D02*
X5032Y230961D01*
X3957Y230243D01*
X3239Y229168D01*
X2986Y227900D01*
X3239Y226632D01*
X3957Y225557D01*
X5032Y224839D01*
X6300Y224586D01*
X7568Y224839D01*
X8643Y225557D01*
X9361Y226632D01*
X9614Y227900D01*
X9361Y229168D01*
X8643Y230243D01*
X7568Y230961D01*
X6300Y231214D01*
D02*
G37*
G36*
X6000Y205514D02*
X4732Y205261D01*
X3657Y204543D01*
X2939Y203468D01*
X2686Y202200D01*
X2939Y200932D01*
X3657Y199857D01*
X4732Y199139D01*
X6000Y198886D01*
X7268Y199139D01*
X8343Y199857D01*
X9061Y200932D01*
X9314Y202200D01*
X9061Y203468D01*
X8343Y204543D01*
X7268Y205261D01*
X6000Y205514D01*
D02*
G37*
G36*
X90400Y201514D02*
X89132Y201261D01*
X88057Y200543D01*
X87339Y199468D01*
X87086Y198200D01*
X87339Y196932D01*
X88057Y195857D01*
X89132Y195139D01*
X90400Y194886D01*
X91668Y195139D01*
X92743Y195857D01*
X93461Y196932D01*
X93714Y198200D01*
X93461Y199468D01*
X92743Y200543D01*
X91668Y201261D01*
X90400Y201514D01*
D02*
G37*
G36*
X135350Y218200D02*
X123350D01*
Y205200D01*
X135350D01*
Y218200D01*
D02*
G37*
G36*
X83300Y213314D02*
X82032Y213061D01*
X80957Y212343D01*
X80239Y211268D01*
X79986Y210000D01*
X80239Y208732D01*
X80957Y207657D01*
X82032Y206939D01*
X83300Y206686D01*
X84568Y206939D01*
X85643Y207657D01*
X86361Y208732D01*
X86614Y210000D01*
X86361Y211268D01*
X85643Y212343D01*
X84568Y213061D01*
X83300Y213314D01*
D02*
G37*
G36*
X96400Y212013D02*
X95132Y211761D01*
X94057Y211043D01*
X93338Y209968D01*
X93086Y208700D01*
X93338Y207432D01*
X94057Y206357D01*
X95132Y205638D01*
X96400Y205386D01*
X97668Y205638D01*
X98743Y206357D01*
X99461Y207432D01*
X99713Y208700D01*
X99461Y209968D01*
X98743Y211043D01*
X97668Y211761D01*
X96400Y212013D01*
D02*
G37*
G36*
X16830Y243230D02*
X6560D01*
Y236960D01*
X16830D01*
Y243230D01*
D02*
G37*
G36*
X153200Y239198D02*
X152720D01*
Y234820D01*
X158596D01*
X158419Y235712D01*
X157194Y237544D01*
X155362Y238769D01*
X153200Y239198D01*
D02*
G37*
G36*
X29640Y243230D02*
X19370D01*
Y236960D01*
X29640D01*
Y243230D01*
D02*
G37*
G36*
X101640D02*
X91370D01*
Y236960D01*
X101640D01*
Y243230D01*
D02*
G37*
G36*
X88830D02*
X78560D01*
Y236960D01*
X88830D01*
Y243230D01*
D02*
G37*
G36*
X158596Y232280D02*
X152720D01*
Y227901D01*
X153200D01*
X155362Y228331D01*
X157194Y229556D01*
X158419Y231388D01*
X158596Y232280D01*
D02*
G37*
G36*
X150180D02*
X144304D01*
X144481Y231388D01*
X145706Y229556D01*
X147538Y228331D01*
X149700Y227901D01*
X150180D01*
Y232280D01*
D02*
G37*
G36*
X63600Y248500D02*
X53600D01*
Y237668D01*
X53600Y237652D01*
Y237652D01*
X53600Y236549D01*
X53537Y235823D01*
X53376Y235471D01*
X52666Y235187D01*
X53300Y235314D01*
X53358Y235432D01*
X53300Y235314D01*
X52032Y235061D01*
X50957Y234343D01*
X50239Y233268D01*
X50179Y232967D01*
X49550Y232731D01*
X48471Y233511D01*
X48397Y233654D01*
X48361Y233836D01*
X48484Y234020D01*
X48639Y234800D01*
Y236500D01*
X51600D01*
Y248500D01*
X41600D01*
Y236500D01*
X41639D01*
X42318Y235230D01*
X42043Y234818D01*
X41790Y233550D01*
X42043Y232282D01*
X42761Y231207D01*
X43836Y230489D01*
X45104Y230236D01*
X46107Y230436D01*
X46881Y229900D01*
X47210Y229521D01*
X47086Y228899D01*
X47339Y227631D01*
X48057Y226556D01*
X49132Y225838D01*
X50400Y225586D01*
X51668Y225838D01*
X52743Y226556D01*
X53461Y227631D01*
X53686Y228763D01*
X54568Y228939D01*
X55643Y229657D01*
X56361Y230732D01*
X56614Y232000D01*
X56361Y233268D01*
X55643Y234343D01*
X54666Y234996D01*
X54585Y235050D01*
X54568Y235061D01*
X54564Y235064D01*
X54501Y235108D01*
X54326Y235231D01*
X54724Y236500D01*
X54845Y236500D01*
X54846Y236500D01*
X54850Y236500D01*
X63600D01*
Y248500D01*
D02*
G37*
G36*
X150180Y239198D02*
X149700D01*
X147538Y238769D01*
X145706Y237544D01*
X144481Y235712D01*
X144304Y234820D01*
X150180D01*
Y239198D01*
D02*
G37*
G36*
X208950Y245064D02*
X207682Y244811D01*
X206607Y244093D01*
X205889Y243018D01*
X205636Y241750D01*
X205889Y240482D01*
X206607Y239407D01*
X206911Y239204D01*
Y237571D01*
X205639Y237318D01*
X204316Y236434D01*
X203432Y235111D01*
X203207Y233979D01*
X202201Y233147D01*
X201931Y233028D01*
X201500Y233114D01*
X200232Y232861D01*
X199470Y232352D01*
X198411Y232745D01*
X198200Y232915D01*
Y236500D01*
X162200D01*
Y204351D01*
X160930Y203755D01*
X160339Y204247D01*
Y206800D01*
X160184Y207580D01*
X159742Y208242D01*
X159742Y208242D01*
X158392Y209592D01*
X157730Y210034D01*
X156950Y210189D01*
X156648D01*
X156084Y211034D01*
X154761Y211918D01*
X153200Y212228D01*
X149700D01*
X148139Y211918D01*
X146816Y211034D01*
X145932Y209711D01*
X145622Y208150D01*
X145932Y206589D01*
X146816Y205266D01*
X148139Y204382D01*
X149700Y204072D01*
X153200D01*
X154761Y204382D01*
X155341Y203301D01*
X155433Y202859D01*
X155239Y202568D01*
X154986Y201300D01*
X155175Y200352D01*
X154515Y199554D01*
X154181Y199333D01*
X153200Y199528D01*
X149700D01*
X148139Y199218D01*
X146816Y198334D01*
X145932Y197011D01*
X145622Y195450D01*
X145932Y193889D01*
X146816Y192566D01*
X148139Y191682D01*
X149700Y191372D01*
X153200D01*
X154761Y191682D01*
X156084Y192566D01*
X156968Y193889D01*
X157278Y195450D01*
X156968Y197011D01*
X157774Y198091D01*
X158300Y197986D01*
X159568Y198239D01*
X160643Y198957D01*
X160930Y199386D01*
X162200Y199001D01*
Y192500D01*
X198200D01*
Y204418D01*
X199470Y205097D01*
X199482Y205089D01*
X200750Y204836D01*
X202018Y205089D01*
X202672Y205525D01*
X204042Y205411D01*
X204288Y205309D01*
X204316Y205266D01*
X205639Y204382D01*
X207200Y204072D01*
X210700D01*
X212261Y204382D01*
X213584Y205266D01*
X214468Y206589D01*
X214778Y208150D01*
X214468Y209711D01*
X213584Y211034D01*
X212261Y211918D01*
X210700Y212228D01*
X207200D01*
X205639Y211918D01*
X204316Y211034D01*
X204288Y210991D01*
X204042Y210889D01*
X202672Y210775D01*
X202018Y211211D01*
X200750Y211464D01*
X199482Y211211D01*
X199470Y211203D01*
X198200Y211882D01*
Y223078D01*
X199461Y223100D01*
X199616Y222320D01*
X200058Y221658D01*
X202308Y219408D01*
X202308Y219408D01*
X202970Y218966D01*
X203750Y218811D01*
X203752D01*
X204316Y217966D01*
X205639Y217082D01*
X207200Y216772D01*
X210700D01*
X212261Y217082D01*
X213584Y217966D01*
X214468Y219289D01*
X214778Y220850D01*
X214468Y222411D01*
X213584Y223734D01*
X212261Y224618D01*
X210700Y224928D01*
X207200D01*
X205639Y224618D01*
X204809Y224063D01*
X203539Y224683D01*
Y227254D01*
X203843Y227457D01*
X204561Y228532D01*
X204639Y228923D01*
X205592Y229742D01*
X205993Y229712D01*
X207200Y229472D01*
X210700D01*
X212261Y229782D01*
X213584Y230666D01*
X214468Y231989D01*
X214778Y233550D01*
X214468Y235111D01*
X213584Y236434D01*
X212261Y237318D01*
X210989Y237571D01*
Y239204D01*
X211293Y239407D01*
X212011Y240482D01*
X212264Y241750D01*
X212011Y243018D01*
X211293Y244093D01*
X210218Y244811D01*
X208950Y245064D01*
D02*
G37*
G36*
X82900Y198714D02*
X81632Y198461D01*
X80557Y197743D01*
X79839Y196668D01*
X79586Y195400D01*
X79839Y194132D01*
X80557Y193057D01*
X81632Y192339D01*
X82900Y192086D01*
X84168Y192339D01*
X85243Y193057D01*
X85961Y194132D01*
X86214Y195400D01*
X85961Y196668D01*
X85243Y197743D01*
X84168Y198461D01*
X82900Y198714D01*
D02*
G37*
G36*
X77140Y152040D02*
X71870D01*
Y145770D01*
X77140D01*
Y152040D01*
D02*
G37*
G36*
X6100Y165914D02*
X4832Y165661D01*
X3757Y164943D01*
X3039Y163868D01*
X2786Y162600D01*
X3039Y161332D01*
X3757Y160257D01*
X4832Y159539D01*
X6100Y159286D01*
X7368Y159539D01*
X8443Y160257D01*
X9161Y161332D01*
X9414Y162600D01*
X9161Y163868D01*
X8443Y164943D01*
X7368Y165661D01*
X6100Y165914D01*
D02*
G37*
G36*
X137700Y166013D02*
X136432Y165761D01*
X135357Y165043D01*
X134638Y163968D01*
X134386Y162700D01*
X134638Y161432D01*
X134908Y161028D01*
X134144Y159885D01*
X134000Y159914D01*
X132732Y159661D01*
X131657Y158943D01*
X130939Y157868D01*
X130686Y156600D01*
X130939Y155332D01*
X131657Y154257D01*
X132732Y153539D01*
X133413Y153403D01*
X137758Y149058D01*
X137758Y149058D01*
X138420Y148616D01*
X139200Y148461D01*
X144414D01*
X144715Y147735D01*
X145481Y147418D01*
X149481D01*
X150246Y147735D01*
X150654Y147816D01*
X150735Y147735D01*
X151500Y147418D01*
X153500D01*
X154265Y147735D01*
X154522Y147813D01*
X155232Y147339D01*
X156500Y147086D01*
X157768Y147339D01*
X158843Y148057D01*
X159561Y149132D01*
X159814Y150400D01*
X159561Y151668D01*
X158843Y152743D01*
X157768Y153461D01*
X156500Y153714D01*
X155232Y153461D01*
X154728Y153125D01*
X154265Y153265D01*
X153500Y153582D01*
X151500D01*
X150735Y153265D01*
X150654Y153184D01*
X150246Y153265D01*
X149481Y153582D01*
X145481D01*
X144715Y153265D01*
X144414Y152539D01*
X140045D01*
X137093Y155491D01*
X137314Y156600D01*
X137095Y157697D01*
X137395Y158322D01*
X137862Y158956D01*
X138677Y159039D01*
X138991Y158725D01*
X138991Y158725D01*
X139653Y158283D01*
X140433Y158127D01*
X144414D01*
X144715Y157401D01*
X145481Y157084D01*
X149481D01*
X150246Y157401D01*
X151491Y157088D01*
X151500Y157084D01*
X153500D01*
X154265Y157401D01*
X154694Y157531D01*
X155132Y157239D01*
X156400Y156986D01*
X157668Y157239D01*
X158743Y157957D01*
X159461Y159032D01*
X159714Y160300D01*
X159461Y161568D01*
X158743Y162643D01*
X157668Y163361D01*
X156400Y163614D01*
X155132Y163361D01*
X154419Y162885D01*
X154265Y162932D01*
X153500Y163249D01*
X151500D01*
X150735Y162932D01*
X150654Y162851D01*
X150246Y162932D01*
X149481Y163249D01*
X145481D01*
X144715Y162932D01*
X144414Y162206D01*
X142184D01*
X141013Y162700D01*
X140761Y163968D01*
X140043Y165043D01*
X138968Y165761D01*
X137700Y166013D01*
D02*
G37*
G36*
X29640Y150040D02*
X19370D01*
Y143770D01*
X29640D01*
Y150040D01*
D02*
G37*
G36*
X88830D02*
X78560D01*
Y143770D01*
X88830D01*
Y150040D01*
D02*
G37*
G36*
X6300Y152714D02*
X5032Y152461D01*
X3957Y151743D01*
X3239Y150668D01*
X2986Y149400D01*
X3239Y148132D01*
X3957Y147057D01*
X5032Y146339D01*
X6300Y146086D01*
X6560Y145873D01*
Y143770D01*
X16830D01*
Y150040D01*
X9486D01*
X9361Y150668D01*
X8643Y151743D01*
X7568Y152461D01*
X6300Y152714D01*
D02*
G37*
G36*
X101640Y150040D02*
X91370D01*
Y143770D01*
X101640D01*
Y150040D01*
D02*
G37*
G36*
X6200Y178814D02*
X4932Y178561D01*
X3857Y177843D01*
X3139Y176768D01*
X2886Y175500D01*
X3139Y174232D01*
X3857Y173157D01*
X4932Y172439D01*
X6200Y172186D01*
X7468Y172439D01*
X8543Y173157D01*
X9261Y174232D01*
X9514Y175500D01*
X9261Y176768D01*
X8543Y177843D01*
X7468Y178561D01*
X6200Y178814D01*
D02*
G37*
G36*
X137600Y192214D02*
X136332Y191961D01*
X135257Y191243D01*
X134539Y190168D01*
X134286Y188900D01*
X134539Y187632D01*
X135257Y186557D01*
X135561Y186354D01*
Y184500D01*
X135716Y183720D01*
X136158Y183058D01*
X138489Y180727D01*
X138071Y179349D01*
X137632Y179261D01*
X136620Y178585D01*
X136266Y178659D01*
X135350Y179023D01*
Y181800D01*
X123350D01*
Y168800D01*
X135350D01*
Y172127D01*
X136620Y172833D01*
X136775Y172736D01*
X136861Y172568D01*
Y172300D01*
X137016Y171520D01*
X137458Y170858D01*
X139925Y168391D01*
X139925Y168391D01*
X140586Y167949D01*
X141367Y167794D01*
X141367Y167794D01*
X144414D01*
X144715Y167068D01*
X145481Y166751D01*
X149481D01*
X150246Y167068D01*
X151491Y166755D01*
X151500Y166751D01*
X153500D01*
X154265Y167068D01*
X154385Y167104D01*
X154932Y166739D01*
X156200Y166486D01*
X157468Y166739D01*
X158543Y167457D01*
X159261Y168532D01*
X159514Y169800D01*
X159261Y171068D01*
X158543Y172143D01*
X157468Y172861D01*
X156200Y173114D01*
X154932Y172861D01*
X154453Y172542D01*
X154265Y172599D01*
X153500Y172916D01*
X151500D01*
X150735Y172599D01*
X150654Y172518D01*
X150246Y172599D01*
X149481Y172916D01*
X145481D01*
X144715Y172599D01*
X144414Y171873D01*
X142211D01*
X141512Y172572D01*
X141243Y173857D01*
X141961Y174932D01*
X142214Y176200D01*
X142187Y176332D01*
X142672Y176985D01*
X143241Y177447D01*
X144492Y177275D01*
X144715Y176735D01*
X145481Y176418D01*
X149481D01*
X150246Y176735D01*
X150654Y176816D01*
X150735Y176735D01*
X151500Y176418D01*
X153500D01*
X154265Y176735D01*
X154660Y176854D01*
X155132Y176539D01*
X156400Y176286D01*
X157668Y176539D01*
X158743Y177257D01*
X159461Y178332D01*
X159714Y179600D01*
X159461Y180868D01*
X158743Y181943D01*
X157668Y182661D01*
X156400Y182914D01*
X155132Y182661D01*
X154454Y182208D01*
X154265Y182265D01*
X153500Y182582D01*
X151500D01*
X150735Y182265D01*
X150654Y182184D01*
X150246Y182265D01*
X149481Y182582D01*
X145481D01*
X144715Y182265D01*
X143283Y182126D01*
X142517Y182892D01*
X141855Y183334D01*
X141599Y183385D01*
X139795Y185189D01*
X139880Y186515D01*
X139943Y186557D01*
X140661Y187632D01*
X140914Y188900D01*
X140661Y190168D01*
X139943Y191243D01*
X138868Y191961D01*
X137600Y192214D01*
D02*
G37*
G36*
X83300Y175113D02*
X82032Y174861D01*
X80957Y174143D01*
X80238Y173068D01*
X79986Y171800D01*
X80238Y170532D01*
X80957Y169457D01*
X82032Y168738D01*
X83300Y168486D01*
X84568Y168738D01*
X85643Y169457D01*
X86361Y170532D01*
X86614Y171800D01*
X86361Y173068D01*
X85643Y174143D01*
X84568Y174861D01*
X83300Y175113D01*
D02*
G37*
G36*
X210700Y199528D02*
X207200D01*
X205639Y199218D01*
X204316Y198334D01*
X203432Y197011D01*
X203122Y195450D01*
X203432Y193889D01*
X204316Y192566D01*
X205639Y191682D01*
X207200Y191372D01*
X210700D01*
X212261Y191682D01*
X213584Y192566D01*
X214468Y193889D01*
X214778Y195450D01*
X214468Y197011D01*
X213584Y198334D01*
X212261Y199218D01*
X210700Y199528D01*
D02*
G37*
G36*
X6300Y192214D02*
X5032Y191961D01*
X3957Y191243D01*
X3239Y190168D01*
X2986Y188900D01*
X3239Y187632D01*
X3957Y186557D01*
X5032Y185839D01*
X6300Y185586D01*
X7568Y185839D01*
X8643Y186557D01*
X9361Y187632D01*
X9614Y188900D01*
X9361Y190168D01*
X8643Y191243D01*
X7568Y191961D01*
X6300Y192214D01*
D02*
G37*
%LPD*%
G36*
X147481Y150500D02*
X149481Y148500D01*
X145481D01*
Y152500D01*
X149481D01*
X147481Y150500D01*
D02*
G37*
G36*
X153500Y158167D02*
X151500D01*
X149500Y160167D01*
X151500Y162167D01*
X153500D01*
Y158167D01*
D02*
G37*
G36*
Y148500D02*
X151500D01*
X149500Y150500D01*
X151500Y152500D01*
X153500D01*
Y148500D01*
D02*
G37*
G36*
X147481Y160167D02*
X149481Y158167D01*
X145481D01*
Y162167D01*
X149481D01*
X147481Y160167D01*
D02*
G37*
G36*
Y179500D02*
X149481Y177500D01*
X145481D01*
Y181500D01*
X149481D01*
X147481Y179500D01*
D02*
G37*
G36*
X153500Y177500D02*
X151500D01*
X149500Y179500D01*
X151500Y181500D01*
X153500D01*
Y177500D01*
D02*
G37*
G36*
X147481Y169833D02*
X149481Y167833D01*
X145481D01*
Y171833D01*
X149481D01*
X147481Y169833D01*
D02*
G37*
G36*
X153500Y167833D02*
X151500D01*
X149500Y169833D01*
X151500Y171833D01*
X153500D01*
Y167833D01*
D02*
G37*
D10*
X7200Y100500D02*
D03*
Y113550D02*
D03*
Y126600D02*
D03*
X76500Y33400D02*
D03*
X66800Y38800D02*
D03*
X84500Y43100D02*
D03*
D11*
X40700Y36900D02*
D03*
X48700D02*
D03*
X75700Y79500D02*
D03*
X67700D02*
D03*
X26100Y38300D02*
D03*
X18100D02*
D03*
X26100Y50600D02*
D03*
X18100D02*
D03*
D12*
X28300Y108700D02*
D03*
X88300D02*
D03*
D13*
X51500Y57200D02*
D03*
Y65200D02*
D03*
X90900Y69700D02*
D03*
Y77700D02*
D03*
X24600Y14500D02*
D03*
Y22500D02*
D03*
X75700Y14500D02*
D03*
Y22500D02*
D03*
X50750Y14500D02*
D03*
Y22500D02*
D03*
D14*
X155900Y115000D02*
D03*
Y120000D02*
D03*
X127900D02*
D03*
Y115000D02*
D03*
D15*
X151900Y129000D02*
D03*
X146900D02*
D03*
X141900D02*
D03*
X136900D02*
D03*
X131900D02*
D03*
Y106000D02*
D03*
X136900D02*
D03*
X141900D02*
D03*
X146900D02*
D03*
X151900D02*
D03*
D16*
X141900Y117500D02*
D03*
D17*
X125200Y49650D02*
D03*
D18*
X107200Y73900D02*
D03*
X111200D02*
D03*
X115200D02*
D03*
X119200D02*
D03*
X123200D02*
D03*
X127200D02*
D03*
X131200D02*
D03*
X135200D02*
D03*
X139200D02*
D03*
X143200D02*
D03*
Y25400D02*
D03*
X139200D02*
D03*
X135200D02*
D03*
X131200D02*
D03*
X127200D02*
D03*
X123200D02*
D03*
X119200D02*
D03*
X115200D02*
D03*
X111200D02*
D03*
X107200D02*
D03*
D19*
X149450Y67650D02*
D03*
Y63650D02*
D03*
Y59650D02*
D03*
Y55650D02*
D03*
Y51650D02*
D03*
Y47650D02*
D03*
Y43650D02*
D03*
Y39650D02*
D03*
Y35650D02*
D03*
Y31650D02*
D03*
X100950D02*
D03*
Y35650D02*
D03*
Y39650D02*
D03*
Y43650D02*
D03*
Y47650D02*
D03*
Y51650D02*
D03*
Y55650D02*
D03*
Y59650D02*
D03*
Y63650D02*
D03*
Y67650D02*
D03*
D20*
X24600Y67400D02*
D03*
D21*
X28750Y70650D02*
D03*
Y64150D02*
D03*
X20450Y70650D02*
D03*
Y64150D02*
D03*
D22*
X111000Y102400D02*
D03*
X107000D02*
D03*
X111000Y106400D02*
D03*
X107000D02*
D03*
X111000Y110400D02*
D03*
X107000D02*
D03*
X111000Y114400D02*
D03*
X107000D02*
D03*
D23*
X180200Y214500D02*
D03*
D24*
X208950Y233550D02*
D03*
Y220850D02*
D03*
Y208150D02*
D03*
Y195450D02*
D03*
X151450D02*
D03*
Y208150D02*
D03*
Y220850D02*
D03*
Y233550D02*
D03*
D25*
X70600Y144500D02*
D03*
X58600D02*
D03*
X46600D02*
D03*
Y242500D02*
D03*
X58600D02*
D03*
X70600D02*
D03*
D26*
X18100Y142500D02*
D03*
X90100D02*
D03*
Y244500D02*
D03*
X18100D02*
D03*
D27*
X129350Y175300D02*
D03*
Y211700D02*
D03*
D28*
X42180Y47400D02*
D03*
X47700D02*
D03*
X27300Y5900D02*
D03*
X21780D02*
D03*
X103600D02*
D03*
X98080D02*
D03*
X78167D02*
D03*
X72647D02*
D03*
X52733D02*
D03*
X47214D02*
D03*
X152000Y169833D02*
D03*
X146481D02*
D03*
X152000Y179500D02*
D03*
X146481D02*
D03*
X152000Y150500D02*
D03*
X146481D02*
D03*
X152000Y160167D02*
D03*
X146481D02*
D03*
D29*
X10800Y24700D02*
D03*
X14800D02*
D03*
X87200D02*
D03*
X91200D02*
D03*
X61733D02*
D03*
X65733D02*
D03*
X36267D02*
D03*
X40267D02*
D03*
D30*
X12800Y18200D02*
D03*
X89200D02*
D03*
X63733D02*
D03*
X38267D02*
D03*
D31*
X78200Y66600D02*
D03*
Y56100D02*
D03*
X64700D02*
D03*
Y66600D02*
D03*
D32*
X165500Y43600D02*
D03*
D33*
Y22600D02*
D03*
D34*
X158700Y22400D02*
X164400D01*
X165800Y11800D02*
Y31400D01*
X123200Y73900D02*
Y85100D01*
X118300Y90000D02*
X123200Y85100D01*
X135200Y67700D02*
Y73900D01*
X153175Y51700D02*
X164100D01*
X164150Y51650D02*
X164950Y52450D01*
X104000Y96925D02*
X107000Y99925D01*
X104000Y91523D02*
Y96925D01*
Y91523D02*
X105523Y90000D01*
X118300D01*
X107000Y99925D02*
Y102400D01*
X164100Y51700D02*
X164150Y51650D01*
X153125D02*
X153175Y51700D01*
X94093Y59650D02*
X100950D01*
X91493Y62250D02*
X94093Y59650D01*
X87240Y62250D02*
X91493D01*
X94335Y63650D02*
X100950D01*
X92735Y65250D02*
X94335Y63650D01*
X85950Y65250D02*
X92735D01*
X84750Y59760D02*
X87240Y62250D01*
X84750Y50050D02*
Y59760D01*
X84600Y66600D02*
X85950Y65250D01*
X95675Y33150D02*
X97175Y31650D01*
X91293Y33150D02*
X95675D01*
X84500Y39943D02*
X91293Y33150D01*
X84300Y49600D02*
X84750Y50050D01*
X66500Y49600D02*
X84300D01*
X94536Y30400D02*
X106035Y18900D01*
X93500Y27900D02*
X105300Y16100D01*
X88500Y27900D02*
X93500D01*
X115200Y20971D02*
Y25400D01*
X110329Y16100D02*
X115200Y20971D01*
X105300Y16100D02*
X110329D01*
X89800Y52200D02*
X90350Y51650D01*
X86650Y29750D02*
X88500Y27900D01*
X80150Y29750D02*
X86650D01*
X89536Y30400D02*
X94536D01*
X97175Y31650D02*
X100950D01*
X87685Y32250D02*
X89536Y30400D01*
X87660Y32250D02*
X87685D01*
X85360Y34550D02*
X87660Y32250D01*
X109100Y18900D02*
X111200Y21000D01*
X106035Y18900D02*
X109100D01*
X111200Y21000D02*
Y25400D01*
X84500Y39943D02*
Y42690D01*
X76500Y33400D02*
X80150Y29750D01*
X64700Y66600D02*
X78200Y56100D01*
X149450Y51650D02*
X153125D01*
X77668Y40500D02*
X85360Y34550D01*
X68500Y40500D02*
X77668D01*
X66800Y38800D02*
X68500Y40500D01*
X64700Y51400D02*
X66500Y49600D01*
X64700Y51400D02*
Y56100D01*
X78200Y66600D02*
X84600D01*
D35*
X137600Y184500D02*
Y188900D01*
X147300Y87780D02*
X150560D01*
X141144Y81122D02*
X141157D01*
X138940Y92060D02*
X143040D01*
X147290Y87790D02*
Y105610D01*
X151900Y99700D02*
Y106000D01*
X161000Y120000D02*
X162100Y121100D01*
X155900Y120000D02*
X161000D01*
X160000Y85200D02*
Y85200D01*
X127200Y73900D02*
Y86814D01*
X124540Y89474D02*
X127200Y86814D01*
X152100Y150400D02*
X156500D01*
X136900Y94100D02*
X137055Y93945D01*
X136900Y94100D02*
Y106000D01*
X114000Y82801D02*
X115199D01*
X111200Y73900D02*
Y79590D01*
X108000Y82790D02*
X111200Y79590D01*
X108000Y82790D02*
Y83000D01*
X131400Y84407D02*
Y88800D01*
X113400Y106400D02*
X115300Y104500D01*
X113200Y102400D02*
X115300Y104500D01*
X111000Y110400D02*
X116100D01*
X123544Y114987D02*
X123556Y115000D01*
X111000Y106400D02*
X113400D01*
X90900Y82640D02*
X94048Y85788D01*
X90900Y77700D02*
Y82640D01*
X147200Y139000D02*
X148700Y140500D01*
X141900Y129000D02*
Y136100D01*
X129900Y137000D02*
X136200D01*
X136900Y136300D01*
Y129000D02*
Y136300D01*
X155590Y140000D02*
X155600D01*
X147200Y129300D02*
Y139000D01*
X161550Y63650D02*
X162840Y62360D01*
X160090Y56700D02*
X161300D01*
X159046Y71946D02*
Y72750D01*
X137055Y93945D02*
X138940Y92060D01*
X137055Y93945D02*
X137055D01*
X141900Y99600D02*
Y106000D01*
X152100Y179600D02*
X156400D01*
X152034Y169800D02*
X156200D01*
X138900Y172300D02*
Y176200D01*
X111000Y102400D02*
X113200D01*
X147290Y87790D02*
X147300Y87780D01*
X113200Y116600D02*
Y120900D01*
X136200Y49650D02*
X138200Y47650D01*
X94048Y85788D02*
Y94649D01*
X90900D02*
X94048D01*
X90900D02*
Y106100D01*
X152134Y160300D02*
X156400D01*
X151850Y129050D02*
Y136260D01*
X155590Y140000D01*
X137600Y184500D02*
X140650Y181450D01*
X141075D01*
X143025Y179500D01*
X146481D01*
X137700Y162700D02*
X137900D01*
X104000Y110400D02*
X107000D01*
X101700Y112700D02*
X104000Y110400D01*
X102200Y104700D02*
X103900Y106400D01*
X46600Y43600D02*
Y44700D01*
X38600Y48100D02*
Y56300D01*
X26100Y38300D02*
Y50600D01*
X68500Y101699D02*
Y101700D01*
X68300Y101500D02*
X68500Y101699D01*
X64000Y121300D02*
Y123800D01*
X63900Y121200D02*
X64000Y121300D01*
X68500Y107900D02*
X68600Y107800D01*
X45104Y233550D02*
X45350D01*
X46600Y234800D01*
X38600Y48100D02*
X39300Y47400D01*
X137900Y162700D02*
X140433Y160167D01*
X146900Y129000D02*
X147200Y129300D01*
X103900Y106400D02*
X107000D01*
X104850Y117950D02*
X107000Y115800D01*
X88300Y108700D02*
X97550Y117950D01*
X104850D01*
X154750Y67650D02*
X159046Y71946D01*
X149450Y67650D02*
X154750D01*
X89000Y58000D02*
X91500D01*
X93850Y55650D01*
X91500Y46700D02*
Y47600D01*
Y46700D02*
X92450Y47650D01*
X101000Y73900D02*
X107200D01*
X92450Y47650D02*
X100950D01*
X73400Y27000D02*
X84900D01*
X70900Y29500D02*
X73400Y27000D01*
X108600Y32100D02*
X108760D01*
X107180Y37700D02*
X107300D01*
X107700D01*
X131200Y25400D02*
Y32000D01*
X134400Y18100D02*
Y19200D01*
X139200Y16576D02*
X139650Y17025D01*
X139200Y8500D02*
Y16576D01*
X123200Y31900D02*
X123300Y32000D01*
X122600Y12400D02*
Y13900D01*
X127200Y18500D02*
Y24800D01*
X139650Y17025D02*
Y21375D01*
X145900Y15600D02*
X150900D01*
X143200Y18300D02*
X145900Y15600D01*
X143200Y18300D02*
Y25400D01*
X148500Y23900D02*
X149450Y24850D01*
X116864Y15800D02*
X117100D01*
X116900D02*
X117100D01*
X139200Y21824D02*
Y25400D01*
Y21824D02*
X139650Y21375D01*
X93850Y55650D02*
X100950D01*
X76000Y22500D02*
X81000D01*
X82150Y21350D01*
Y6550D02*
Y21350D01*
X39300Y47400D02*
X42180D01*
X36267Y24700D02*
Y29133D01*
X51500Y65200D02*
X63300D01*
X10800Y27900D02*
X12400Y29500D01*
X10800Y24700D02*
Y27900D01*
X107200Y25400D02*
Y30540D01*
X90350Y51650D02*
X100950D01*
X119200Y73900D02*
Y82600D01*
X115199Y82801D02*
X115200Y82800D01*
Y73900D02*
Y82800D01*
X131200Y84207D02*
X131400Y84407D01*
X84900Y27000D02*
X87200Y24700D01*
X91450Y47650D02*
X91500Y47600D01*
X142690Y34150D02*
X143260D01*
X143310Y34100D01*
X142850Y39650D02*
X149450D01*
X143310Y34100D02*
X144860Y35650D01*
X149450D01*
X97050Y67650D02*
X100950D01*
X95000Y69700D02*
X97050Y67650D01*
X46600Y144500D02*
Y153100D01*
Y142500D02*
Y144500D01*
X44400Y155300D02*
X46600Y153100D01*
Y234800D02*
Y240500D01*
X70600Y232700D02*
Y240500D01*
X139200Y79178D02*
X141144Y81122D01*
X139200Y73900D02*
Y79178D01*
X119200Y55650D02*
Y73900D01*
X107700Y37700D02*
X108100Y37300D01*
X105130Y35650D02*
X107180Y37700D01*
X88300Y108700D02*
X90900Y106100D01*
X67700Y74400D02*
Y79500D01*
X64700Y71400D02*
X67700Y74400D01*
X64700Y66600D02*
Y71400D01*
X122600Y12400D02*
X127000Y8000D01*
X157140Y59650D02*
X160090Y56700D01*
X149450Y59650D02*
X157140D01*
X142800Y56700D02*
X143850Y55650D01*
X149450D01*
X108100Y37300D02*
X108100Y37300D01*
X105750Y39650D02*
X108100Y37300D01*
X119200Y55650D02*
X125200Y49650D01*
X100950Y35650D02*
X105130D01*
X150900Y15600D02*
X152400Y14100D01*
X119200Y18100D02*
Y25400D01*
X135200Y18500D02*
Y25400D01*
X111000Y114400D02*
X113200Y116600D01*
X146900Y106000D02*
X147290Y105610D01*
X131200Y73900D02*
Y84207D01*
X46600Y44700D02*
X47300Y45400D01*
X123556Y115000D02*
X127900D01*
X84500Y42690D02*
Y43100D01*
X151850Y129050D02*
X151900Y129000D01*
X123200Y25400D02*
X123200Y25400D01*
X61733Y24700D02*
Y29467D01*
X27300Y5900D02*
X30600D01*
X17900Y24700D02*
X20100Y22500D01*
X14800Y24700D02*
X17900D01*
X78167Y5900D02*
X81500D01*
X141367Y169833D02*
X146481D01*
X138900Y172300D02*
X141367Y169833D01*
X140433Y160167D02*
X146481D01*
X134000Y155700D02*
Y156600D01*
Y155700D02*
X139200Y150500D01*
X146481D01*
X158300Y201300D02*
Y206800D01*
X156950Y208150D02*
X158300Y206800D01*
X151450Y208150D02*
X156950D01*
X200750D02*
X208950D01*
Y233550D02*
Y241750D01*
X203750Y220850D02*
X208950D01*
X201500Y223100D02*
X203750Y220850D01*
X201500Y223100D02*
Y229800D01*
X100950Y39650D02*
X105750D01*
X107000Y114400D02*
Y115800D01*
X143200Y73900D02*
X148700D01*
X152400Y8100D02*
Y14100D01*
X8000Y50800D02*
X17900D01*
X8000Y38100D02*
X17900D01*
X78200Y66600D02*
Y72200D01*
X75700Y74700D02*
X78200Y72200D01*
X75700Y74700D02*
Y79500D01*
X51500Y57200D02*
X63600D01*
X90900Y69700D02*
X95000D01*
X152000Y150500D02*
X152100Y150400D01*
X152000Y160167D02*
X152134Y160300D01*
X152000Y169833D02*
X152034Y169800D01*
X152000Y179500D02*
X152100Y179600D01*
X123200Y25400D02*
X123200Y25401D01*
Y31900D01*
X138200Y47650D02*
X149450D01*
X107200Y30540D02*
X108760Y32100D01*
X134300Y18000D02*
X134400Y18100D01*
X116900Y15800D02*
X119200Y18100D01*
X148700Y73900D02*
X160000Y85200D01*
X30600Y5900D02*
Y13743D01*
X30900Y14043D01*
Y22500D01*
X20100D02*
X24600D01*
X30900D01*
X81500Y5900D02*
X82150Y6550D01*
X149450Y24850D02*
Y31650D01*
Y63650D02*
X161550D01*
D36*
X104400Y6900D02*
X104500Y6800D01*
X91500Y24700D02*
X104500Y11700D01*
Y10200D02*
Y11700D01*
Y7000D02*
Y10200D01*
X104400Y6900D02*
X104500Y7000D01*
X24900Y13900D02*
X25500Y14500D01*
X17650Y64150D02*
X20450D01*
X18400Y62100D02*
X20450Y64150D01*
X18000Y62100D02*
X18400D01*
X56100Y17478D02*
Y22500D01*
Y17478D02*
X56700Y16878D01*
Y12322D02*
Y16878D01*
X56100Y11722D02*
X56700Y12322D01*
X56100Y5900D02*
Y11722D01*
X52733Y5900D02*
X56100D01*
X43600Y24700D02*
X45800Y22500D01*
X40267Y24700D02*
X43600D01*
X45800Y22500D02*
X50750D01*
X24800Y13900D02*
X24900D01*
X68200Y24700D02*
X70400Y22500D01*
X65733Y24700D02*
X68200D01*
X14800Y5900D02*
X21780D01*
X12800Y8100D02*
Y18200D01*
X50750Y22500D02*
X56100D01*
X38267Y8167D02*
Y18200D01*
X40200Y5900D02*
X47214D01*
X65600D02*
X72647D01*
X63500Y8000D02*
Y17967D01*
X91000Y5900D02*
X98080D01*
X88900Y8000D02*
Y17900D01*
X17950Y70650D02*
X20450D01*
X16900Y64900D02*
X17650Y64150D01*
X16900Y64900D02*
Y69600D01*
X17950Y70650D01*
X75700Y22500D02*
X76000D01*
X70400D02*
X75700D01*
D37*
X33600Y49700D02*
X35058Y48242D01*
Y37042D02*
Y48242D01*
X30100Y32200D02*
X35058Y37158D01*
Y37042D02*
Y37158D01*
Y37042D02*
X35200Y36900D01*
X40700D01*
X58600Y144500D02*
Y154200D01*
Y142500D02*
Y144500D01*
X57800Y155000D02*
X58600Y154200D01*
X7200Y100500D02*
X13900D01*
X7200Y113550D02*
X13850D01*
X11000Y130400D02*
X16300D01*
X7200Y126600D02*
X11000Y130400D01*
D38*
X28750Y64150D02*
X33750D01*
D39*
X149450Y43650D02*
X165450D01*
D40*
X106650D02*
X107900Y44900D01*
X100950Y43650D02*
X106650D01*
D41*
X214500Y137600D02*
Y159600D01*
X188100Y137600D02*
X214500D01*
X188100Y112600D02*
X214500D01*
Y90600D02*
Y112600D01*
X188100Y90600D02*
X214500D01*
X188100Y65600D02*
Y90600D01*
Y65600D02*
X214500D01*
X165500Y43600D02*
X214170D01*
X214500Y22600D02*
Y65600D01*
X188100Y112600D02*
Y137600D01*
X175100Y159600D02*
X214500D01*
D42*
X167520Y22600D02*
X212500D01*
D43*
X175100Y159600D02*
D03*
X188100Y137600D02*
D03*
X188100Y90600D02*
D03*
X214500Y65600D02*
D03*
X188100D02*
D03*
X214500Y90600D02*
D03*
X214500Y112600D02*
D03*
X188100D02*
D03*
X214500Y137600D02*
D03*
Y159600D02*
D03*
D44*
X214500Y22601D02*
D03*
D45*
X8000Y38100D02*
D03*
X88900Y8000D02*
D03*
X12700D02*
D03*
X63500D02*
D03*
X38100D02*
D03*
X8000Y88900D02*
D03*
Y63500D02*
D03*
Y76200D02*
D03*
X114300Y8000D02*
D03*
D46*
X8000Y50800D02*
D03*
X127000Y8000D02*
D03*
X139700D02*
D03*
X152400D02*
D03*
D47*
X137600Y188900D02*
D03*
X150560Y87780D02*
D03*
X141157Y81122D02*
D03*
X143040Y92060D02*
D03*
X151900Y99700D02*
D03*
X157700Y93200D02*
D03*
X162200Y108600D02*
D03*
X162000Y127089D02*
D03*
X161800Y115300D02*
D03*
X162100Y121100D02*
D03*
X160000Y85200D02*
D03*
X163800Y101600D02*
D03*
X156100Y134500D02*
D03*
X156500Y127600D02*
D03*
X156500Y150400D02*
D03*
X129959Y96143D02*
D03*
X124790Y98970D02*
D03*
X124540Y89474D02*
D03*
X114000Y82801D02*
D03*
X108000Y83000D02*
D03*
X135200Y67700D02*
D03*
X141900Y66400D02*
D03*
X131400Y88800D02*
D03*
X115300Y104500D02*
D03*
X116100Y110400D02*
D03*
X123544Y114987D02*
D03*
X86750Y84500D02*
D03*
X175000Y183000D02*
D03*
X148700Y140500D02*
D03*
X141900Y136100D02*
D03*
X129900Y137000D02*
D03*
X155600Y140000D02*
D03*
X162840Y62360D02*
D03*
X167500Y59000D02*
D03*
X161300Y56700D02*
D03*
X162400Y67900D02*
D03*
X167500Y73000D02*
D03*
X159046Y72750D02*
D03*
X164950Y52450D02*
D03*
X141900Y99600D02*
D03*
X156400Y179600D02*
D03*
X156200Y169800D02*
D03*
X138900Y176200D02*
D03*
X104500Y10200D02*
D03*
X108000Y94000D02*
D03*
X113200Y120900D02*
D03*
X89798Y90399D02*
D03*
X96400Y208700D02*
D03*
X93768Y220300D02*
D03*
X80000Y220600D02*
D03*
X87000D02*
D03*
X156400Y160300D02*
D03*
X137700Y162700D02*
D03*
X83300Y171800D02*
D03*
X102200Y104700D02*
D03*
X19400Y31000D02*
D03*
X30500Y32200D02*
D03*
X18000Y62100D02*
D03*
X25900Y48100D02*
D03*
X46600Y43600D02*
D03*
X57200Y48200D02*
D03*
X38600Y56300D02*
D03*
X33600Y49700D02*
D03*
X57800Y39100D02*
D03*
X60700Y34200D02*
D03*
X33750Y64150D02*
D03*
X68500Y101700D02*
D03*
X55100Y72600D02*
D03*
X59100Y77200D02*
D03*
X55250Y87708D02*
D03*
X47200Y93800D02*
D03*
X64000Y123800D02*
D03*
X61000Y110300D02*
D03*
X67200Y95900D02*
D03*
X76500Y87000D02*
D03*
X40900Y85100D02*
D03*
X68600Y107800D02*
D03*
X50400Y228899D02*
D03*
X45104Y233550D02*
D03*
X89000Y58000D02*
D03*
X91500Y46700D02*
D03*
X101000Y73900D02*
D03*
X91900Y38200D02*
D03*
X75100Y21500D02*
D03*
X107900Y44900D02*
D03*
X108600Y32100D02*
D03*
X107300Y37700D02*
D03*
X131200Y32000D02*
D03*
X134400Y19200D02*
D03*
X123300Y32000D02*
D03*
X122600Y13900D02*
D03*
X127200Y18500D02*
D03*
X148500Y23900D02*
D03*
X159200Y29200D02*
D03*
X158700Y22400D02*
D03*
X117100Y15800D02*
D03*
X89800Y52200D02*
D03*
X76300Y15250D02*
D03*
X61300Y44100D02*
D03*
X166700Y232400D02*
D03*
X201500Y246200D02*
D03*
X194300Y245300D02*
D03*
X186400Y245400D02*
D03*
X23100Y21700D02*
D03*
X39150Y64150D02*
D03*
X13500Y31000D02*
D03*
X24800Y13900D02*
D03*
X216500Y241000D02*
D03*
X188500Y185000D02*
D03*
X181500D02*
D03*
X167500Y3000D02*
D03*
X164000Y10000D02*
D03*
X160500Y3000D02*
D03*
X136000Y234000D02*
D03*
X132500Y227000D02*
D03*
X118500Y199000D02*
D03*
X115000Y220000D02*
D03*
X90500Y227000D02*
D03*
X83500Y129000D02*
D03*
X55500Y185000D02*
D03*
X31000Y234000D02*
D03*
Y192000D02*
D03*
Y178000D02*
D03*
X27500Y171000D02*
D03*
X31000Y164000D02*
D03*
X20500Y227000D02*
D03*
Y171000D02*
D03*
X17000Y234000D02*
D03*
Y192000D02*
D03*
Y178000D02*
D03*
X6500Y17000D02*
D03*
X158700Y15600D02*
D03*
X167800Y37200D02*
D03*
X142690Y34150D02*
D03*
X142850Y39650D02*
D03*
X51000Y121400D02*
D03*
X57800Y155000D02*
D03*
X44400Y155300D02*
D03*
X26600Y100900D02*
D03*
X101700Y112700D02*
D03*
X70600Y232700D02*
D03*
X195000Y185000D02*
D03*
X200000D02*
D03*
X205000D02*
D03*
X210000D02*
D03*
X215000D02*
D03*
X142800Y56700D02*
D03*
X57300Y218200D02*
D03*
X134000Y156600D02*
D03*
X158300Y201300D02*
D03*
X200750Y208150D02*
D03*
X208950Y241750D02*
D03*
X201500Y229800D02*
D03*
X6300Y227900D02*
D03*
Y214900D02*
D03*
X6000Y202200D02*
D03*
X6300Y188900D02*
D03*
X26800Y107000D02*
D03*
X13900Y100500D02*
D03*
X13850Y113550D02*
D03*
X16300Y130400D02*
D03*
X6300Y149400D02*
D03*
X6100Y162600D02*
D03*
X6200Y175500D02*
D03*
X53300Y232000D02*
D03*
X77000Y229900D02*
D03*
X83300Y210000D02*
D03*
X90400Y198200D02*
D03*
X82900Y195400D02*
D03*
X45700Y19700D02*
D03*
X51200Y14600D02*
D03*
X165800Y31400D02*
D03*
D48*
X136200Y49650D02*
D03*
Y38650D02*
D03*
Y60650D02*
D03*
X125200Y38650D02*
D03*
X114200D02*
D03*
X125200Y49650D02*
D03*
X114200D02*
D03*
X125200Y60650D02*
D03*
X114200D02*
D03*
M02*
