G04 Layer_Color=65535*
%FSLAX44Y44*%
%MOMM*%
G71*
G01*
G75*
%ADD25C,0.2540*%
%ADD39C,0.2500*%
%ADD40C,0.1200*%
%ADD41C,0.2000*%
%ADD42C,0.0800*%
%ADD43C,0.1500*%
%ADD44C,0.1600*%
D25*
X215643Y243800D02*
G03*
X215643Y243800I-4243J0D01*
G01*
X169393Y78350D02*
G03*
X169393Y78350I-4243J0D01*
G01*
X17243Y267700D02*
G03*
X17243Y267700I-4243J0D01*
G01*
X187092Y305090D02*
Y320325D01*
X194709D01*
X197249Y317786D01*
Y312708D01*
X194709Y310168D01*
X187092D01*
X192170D02*
X197249Y305090D01*
X202327Y317786D02*
X204866Y320325D01*
X209945D01*
X212484Y317786D01*
Y315247D01*
X207405Y310168D01*
Y307629D02*
Y305090D01*
D39*
X62450Y64800D02*
G03*
X62450Y64800I-1250J0D01*
G01*
D40*
X194290Y296790D02*
X194290Y281860D01*
X185160D02*
X194290D01*
X185160D02*
Y296790D01*
X194290Y296790D01*
X169690Y41700D02*
Y56790D01*
X160560Y41700D02*
X169690D01*
X160560D02*
Y56790D01*
X169690D01*
X160510Y20510D02*
Y35600D01*
X169640D01*
Y20510D02*
Y35600D01*
X160510Y20510D02*
X169640D01*
X173510Y36590D02*
X188600D01*
Y27460D02*
Y36590D01*
X173510Y27460D02*
X188600D01*
X173510D02*
Y36590D01*
X137890Y28400D02*
Y43490D01*
X128760Y28400D02*
X137890D01*
X128760D02*
Y43490D01*
X137890D01*
X156700Y27460D02*
Y36590D01*
X141700Y27460D02*
X156700D01*
X141700D02*
Y36590D01*
X156700D01*
D41*
X197400Y230800D02*
X223400D01*
Y256800D01*
X197400D02*
X223400D01*
X197400Y230800D02*
Y256800D01*
X178150Y64350D02*
Y90350D01*
X152150D02*
X178150D01*
X152150Y64350D02*
Y90350D01*
Y64350D02*
X178150D01*
X67700Y62550D02*
Y66300D01*
X71450D01*
X116950D02*
X120700D01*
Y62550D02*
Y66300D01*
Y13300D02*
Y17050D01*
X116950Y13300D02*
X120700D01*
X67700D02*
Y17050D01*
Y13300D02*
X71450D01*
X21000Y254700D02*
Y282700D01*
X178000D01*
Y105700D02*
Y282700D01*
X21000Y105700D02*
X178000D01*
X21000D02*
Y254700D01*
X167500Y219100D02*
Y269100D01*
X145500Y219100D02*
X167500D01*
X145500D02*
Y269100D01*
X167500D01*
D42*
X162200Y286700D02*
Y295700D01*
X174200D01*
Y286700D02*
Y295700D01*
X162200Y286700D02*
X174200D01*
D43*
X249500Y1500D02*
Y153500D01*
Y1500D02*
Y1500D01*
X192500Y1500D02*
X249500D01*
X192500D02*
Y153500D01*
X249500D01*
D44*
X220698Y277497D02*
X217699D01*
X219198D01*
Y270000D01*
X217699Y268500D01*
X216199D01*
X214700Y270000D01*
X223697Y268500D02*
X226696D01*
X225197D01*
Y277497D01*
X223697Y275998D01*
X132403Y79498D02*
Y76499D01*
Y77998D01*
X139901D01*
X141400Y76499D01*
Y74999D01*
X139901Y73500D01*
X133902Y82497D02*
X132403Y83997D01*
Y86996D01*
X133902Y88495D01*
X135402D01*
X136902Y86996D01*
Y85496D01*
Y86996D01*
X138401Y88495D01*
X139901D01*
X141400Y86996D01*
Y83997D01*
X139901Y82497D01*
X148902Y48998D02*
X147403Y47498D01*
Y44500D01*
X148902Y43000D01*
X154901D01*
X156400Y44500D01*
Y47498D01*
X154901Y48998D01*
X156400Y57995D02*
Y51997D01*
X150402Y57995D01*
X148902D01*
X147403Y56496D01*
Y53497D01*
X148902Y51997D01*
X164398Y14498D02*
X162899Y15997D01*
X159900D01*
X158400Y14498D01*
Y8500D01*
X159900Y7000D01*
X162899D01*
X164398Y8500D01*
X171896Y7000D02*
Y15997D01*
X167397Y11499D01*
X173395D01*
X180998Y47298D02*
X179499Y48797D01*
X176500D01*
X175000Y47298D01*
Y41300D01*
X176500Y39800D01*
X179499D01*
X180998Y41300D01*
X183997Y39800D02*
X186996D01*
X185497D01*
Y48797D01*
X183997Y47298D01*
X130602Y14898D02*
X129103Y13399D01*
Y10400D01*
X130602Y8900D01*
X136601D01*
X138100Y10400D01*
Y13399D01*
X136601Y14898D01*
X130602Y17897D02*
X129103Y19397D01*
Y22396D01*
X130602Y23895D01*
X132102D01*
X133602Y22396D01*
Y20896D01*
Y22396D01*
X135101Y23895D01*
X136601D01*
X138100Y22396D01*
Y19397D01*
X136601Y17897D01*
X143300Y23197D02*
Y14200D01*
X149298D01*
X152297D02*
X155296D01*
X153797D01*
Y23197D01*
X152297Y21698D01*
X83100Y88735D02*
Y73500D01*
X90717D01*
X93257Y76039D01*
Y86196D01*
X90717Y88735D01*
X83100D01*
X108492Y73500D02*
X98335D01*
X108492Y83657D01*
Y86196D01*
X105953Y88735D01*
X100874D01*
X98335Y86196D01*
X186300Y293935D02*
Y278700D01*
X193918D01*
X196457Y281239D01*
Y291396D01*
X193918Y293935D01*
X186300D01*
X201535Y278700D02*
X206613D01*
X204074D01*
Y293935D01*
X201535Y291396D01*
X147203Y283600D02*
Y289598D01*
Y286599D01*
X156200D01*
Y292597D02*
Y295596D01*
Y294097D01*
X147203D01*
X148702Y292597D01*
X219998Y170997D02*
X216999D01*
X218498D01*
Y163500D01*
X216999Y162000D01*
X215499D01*
X214000Y163500D01*
X228995Y162000D02*
X222997D01*
X228995Y167998D01*
Y169498D01*
X227496Y170997D01*
X224497D01*
X222997Y169498D01*
M02*
