G04 Layer_Color=8388736*
%FSLAX44Y44*%
%MOMM*%
G71*
G01*
G75*
%ADD66R,0.9300X1.0300*%
%ADD67R,1.4300X1.1800*%
%ADD68R,0.4300X0.6800*%
%ADD69R,0.4300X0.3800*%
%ADD70R,0.5800X0.7800*%
%ADD71R,0.7800X0.5800*%
%ADD72R,2.3800X1.2300*%
%ADD73R,1.2300X1.1800*%
%ADD74C,0.4000*%
G04:AMPARAMS|DCode=75|XSize=0.63mm|YSize=0.41mm|CornerRadius=0mm|HoleSize=0mm|Usage=FLASHONLY|Rotation=0.000|XOffset=0mm|YOffset=0mm|HoleType=Round|Shape=Octagon|*
%AMOCTAGOND75*
4,1,8,0.3150,-0.1025,0.3150,0.1025,0.2125,0.2050,-0.2125,0.2050,-0.3150,0.1025,-0.3150,-0.1025,-0.2125,-0.2050,0.2125,-0.2050,0.3150,-0.1025,0.0*
%
%ADD75OCTAGOND75*%

%ADD76C,0.4300*%
%ADD77O,1.0300X0.3800*%
%ADD78O,0.3800X1.0300*%
%ADD79R,2.9800X2.9800*%
G04:AMPARAMS|DCode=80|XSize=1.98mm|YSize=0.78mm|CornerRadius=0.24mm|HoleSize=0mm|Usage=FLASHONLY|Rotation=270.000|XOffset=0mm|YOffset=0mm|HoleType=Round|Shape=RoundedRectangle|*
%AMROUNDEDRECTD80*
21,1,1.9800,0.3000,0,0,270.0*
21,1,1.5000,0.7800,0,0,270.0*
1,1,0.4800,-0.1500,-0.7500*
1,1,0.4800,-0.1500,0.7500*
1,1,0.4800,0.1500,0.7500*
1,1,0.4800,0.1500,-0.7500*
%
%ADD80ROUNDEDRECTD80*%
G04:AMPARAMS|DCode=81|XSize=1.98mm|YSize=0.78mm|CornerRadius=0.24mm|HoleSize=0mm|Usage=FLASHONLY|Rotation=180.000|XOffset=0mm|YOffset=0mm|HoleType=Round|Shape=RoundedRectangle|*
%AMROUNDEDRECTD81*
21,1,1.9800,0.3000,0,0,180.0*
21,1,1.5000,0.7800,0,0,180.0*
1,1,0.4800,-0.7500,0.1500*
1,1,0.4800,0.7500,0.1500*
1,1,0.4800,0.7500,-0.1500*
1,1,0.4800,-0.7500,-0.1500*
%
%ADD81ROUNDEDRECTD81*%
%ADD82C,0.7800*%
%ADD83R,1.0800X1.0800*%
%ADD84R,1.0800X1.0800*%
%ADD85C,0.2000*%
G36*
X70218Y25694D02*
X70333Y25671D01*
X70445Y25633D01*
X70551Y25581D01*
X70649Y25516D01*
X70738Y25438D01*
X70816Y25349D01*
X70881Y25251D01*
X70933Y25145D01*
X70971Y25034D01*
X70994Y24918D01*
X71002Y24800D01*
Y22800D01*
X70994Y22682D01*
X70971Y22567D01*
X70933Y22455D01*
X70881Y22349D01*
X70816Y22251D01*
X70738Y22162D01*
X70245Y21669D01*
X70333Y21652D01*
X70417Y21623D01*
X70445Y21614D01*
X70551Y21562D01*
X70649Y21496D01*
X70738Y21418D01*
X70816Y21330D01*
X70881Y21232D01*
X70933Y21126D01*
X70943Y21098D01*
X70971Y21014D01*
X70990Y20917D01*
X70994Y20898D01*
X71002Y20781D01*
Y16781D01*
X70994Y16663D01*
X70971Y16547D01*
X70933Y16436D01*
X70881Y16330D01*
X70816Y16232D01*
X70738Y16143D01*
X70649Y16065D01*
X70551Y15999D01*
X70445Y15947D01*
X70333Y15909D01*
X70218Y15886D01*
X70100Y15879D01*
X66100D01*
X65982Y15886D01*
X65866Y15909D01*
X65755Y15947D01*
X65649Y15999D01*
X65551Y16065D01*
X65462Y16143D01*
X65384Y16232D01*
X65319Y16330D01*
X65267Y16436D01*
X65229Y16547D01*
X65206Y16663D01*
X65198Y16781D01*
Y20781D01*
X65206Y20898D01*
X65210Y20917D01*
X65229Y21014D01*
X65257Y21098D01*
X65267Y21126D01*
X65319Y21232D01*
X65384Y21330D01*
X65462Y21418D01*
X65551Y21496D01*
X65649Y21562D01*
X65755Y21614D01*
X65783Y21623D01*
X65866Y21652D01*
X65955Y21669D01*
X65462Y22162D01*
X65384Y22251D01*
X65319Y22349D01*
X65267Y22455D01*
X65257Y22483D01*
X65229Y22567D01*
X65210Y22663D01*
X65206Y22682D01*
X65198Y22800D01*
Y24800D01*
X65206Y24918D01*
X65229Y25034D01*
X65267Y25145D01*
X65319Y25251D01*
X65384Y25349D01*
X65462Y25438D01*
X65551Y25516D01*
X65649Y25581D01*
X65755Y25633D01*
X65866Y25671D01*
X65982Y25694D01*
X66100Y25702D01*
X70100D01*
X70218Y25694D01*
D02*
G37*
G36*
X46318D02*
X46433Y25671D01*
X46545Y25633D01*
X46651Y25581D01*
X46749Y25516D01*
X46838Y25438D01*
X46915Y25349D01*
X46981Y25251D01*
X47033Y25145D01*
X47071Y25034D01*
X47094Y24918D01*
X47102Y24800D01*
Y22800D01*
X47094Y22682D01*
X47071Y22567D01*
X47033Y22455D01*
X46981Y22349D01*
X46915Y22251D01*
X46838Y22162D01*
X46345Y21669D01*
X46433Y21652D01*
X46517Y21623D01*
X46545Y21614D01*
X46651Y21562D01*
X46749Y21496D01*
X46838Y21418D01*
X46915Y21330D01*
X46981Y21232D01*
X47033Y21126D01*
X47043Y21098D01*
X47071Y21014D01*
X47090Y20917D01*
X47094Y20898D01*
X47102Y20781D01*
Y16781D01*
X47094Y16663D01*
X47071Y16547D01*
X47033Y16436D01*
X46981Y16330D01*
X46915Y16232D01*
X46838Y16143D01*
X46749Y16065D01*
X46651Y15999D01*
X46545Y15947D01*
X46433Y15909D01*
X46318Y15886D01*
X46200Y15879D01*
X42200D01*
X42082Y15886D01*
X41967Y15909D01*
X41855Y15947D01*
X41749Y15999D01*
X41651Y16065D01*
X41562Y16143D01*
X41484Y16232D01*
X41419Y16330D01*
X41367Y16436D01*
X41329Y16547D01*
X41306Y16663D01*
X41298Y16781D01*
Y20781D01*
X41306Y20898D01*
X41310Y20917D01*
X41329Y21014D01*
X41357Y21098D01*
X41367Y21126D01*
X41419Y21232D01*
X41484Y21330D01*
X41562Y21418D01*
X41651Y21496D01*
X41749Y21562D01*
X41855Y21614D01*
X41883Y21623D01*
X41967Y21652D01*
X42055Y21669D01*
X41562Y22162D01*
X41484Y22251D01*
X41419Y22349D01*
X41367Y22455D01*
X41357Y22483D01*
X41329Y22567D01*
X41310Y22663D01*
X41306Y22682D01*
X41298Y22800D01*
Y24800D01*
X41306Y24918D01*
X41329Y25034D01*
X41367Y25145D01*
X41419Y25251D01*
X41484Y25349D01*
X41562Y25438D01*
X41651Y25516D01*
X41749Y25581D01*
X41855Y25633D01*
X41967Y25671D01*
X42082Y25694D01*
X42200Y25702D01*
X46200D01*
X46318Y25694D01*
D02*
G37*
G36*
X58268Y25694D02*
X58383Y25671D01*
X58495Y25633D01*
X58601Y25581D01*
X58699Y25516D01*
X58788Y25438D01*
X58865Y25349D01*
X58931Y25251D01*
X58983Y25145D01*
X59021Y25034D01*
X59044Y24918D01*
X59052Y24800D01*
Y22800D01*
X59044Y22682D01*
X59021Y22567D01*
X58983Y22455D01*
X58931Y22349D01*
X58865Y22251D01*
X58788Y22162D01*
X58295Y21669D01*
X58326Y21663D01*
X58383Y21652D01*
X58439Y21633D01*
X58495Y21614D01*
X58601Y21562D01*
X58699Y21496D01*
X58788Y21418D01*
X58865Y21330D01*
X58931Y21232D01*
X58983Y21126D01*
X59002Y21070D01*
X59021Y21014D01*
X59033Y20956D01*
X59044Y20898D01*
X59052Y20781D01*
Y16781D01*
X59044Y16663D01*
X59021Y16547D01*
X58983Y16436D01*
X58931Y16330D01*
X58865Y16231D01*
X58788Y16143D01*
X58699Y16065D01*
X58601Y15999D01*
X58495Y15947D01*
X58383Y15909D01*
X58268Y15886D01*
X58150Y15879D01*
X54150D01*
X54032Y15886D01*
X53917Y15909D01*
X53805Y15947D01*
X53699Y15999D01*
X53601Y16065D01*
X53512Y16143D01*
X53434Y16231D01*
X53369Y16330D01*
X53317Y16436D01*
X53279Y16547D01*
X53256Y16663D01*
X53248Y16781D01*
Y20781D01*
X53256Y20898D01*
X53267Y20956D01*
X53279Y21014D01*
X53298Y21070D01*
X53317Y21126D01*
X53369Y21232D01*
X53434Y21330D01*
X53512Y21418D01*
X53601Y21496D01*
X53699Y21562D01*
X53805Y21614D01*
X53861Y21633D01*
X53917Y21652D01*
X53974Y21663D01*
X54005Y21669D01*
X53512Y22162D01*
X53434Y22251D01*
X53369Y22349D01*
X53317Y22455D01*
X53307Y22483D01*
X53279Y22567D01*
X53260Y22663D01*
X53256Y22682D01*
X53248Y22800D01*
Y24800D01*
X53256Y24918D01*
X53279Y25034D01*
X53317Y25145D01*
X53369Y25251D01*
X53434Y25349D01*
X53512Y25438D01*
X53601Y25516D01*
X53699Y25581D01*
X53805Y25633D01*
X53917Y25671D01*
X54032Y25694D01*
X54150Y25702D01*
X58150D01*
X58268Y25694D01*
D02*
G37*
G36*
X171671Y27269D02*
X171787Y27246D01*
X171899Y27208D01*
X172005Y27156D01*
X172103Y27090D01*
X172192Y27013D01*
X173605Y25598D01*
X173606Y25598D01*
X173683Y25510D01*
X173749Y25412D01*
X173801Y25306D01*
X173839Y25194D01*
X173862Y25078D01*
X173870Y24960D01*
Y24264D01*
X173945Y24314D01*
X174051Y24366D01*
X174162Y24404D01*
X174278Y24427D01*
X174396Y24434D01*
X174514Y24427D01*
X174571Y24415D01*
X174629Y24404D01*
X174685Y24385D01*
X174741Y24366D01*
X174847Y24314D01*
X174945Y24248D01*
X175034Y24170D01*
X177862Y21342D01*
X177862Y21342D01*
X177903Y21295D01*
X177940Y21253D01*
X178005Y21155D01*
X178058Y21049D01*
X178095Y20938D01*
X178118Y20822D01*
X178126Y20704D01*
X178118Y20586D01*
X178095Y20471D01*
X178058Y20359D01*
X178005Y20253D01*
X177940Y20155D01*
X177862Y20066D01*
X175034Y17238D01*
X174945Y17160D01*
X174847Y17095D01*
X174741Y17042D01*
X174629Y17004D01*
X174513Y16982D01*
X174396Y16974D01*
X174278Y16982D01*
X174162Y17004D01*
X174051Y17042D01*
X173945Y17095D01*
X173847Y17160D01*
X173758Y17238D01*
X170930Y20066D01*
X170930Y20066D01*
X170852Y20155D01*
X170786Y20253D01*
X170734Y20359D01*
X170696Y20471D01*
X170673Y20586D01*
X170665Y20704D01*
X170673Y20822D01*
X170685Y20880D01*
X170696Y20938D01*
X170715Y20993D01*
X170734Y21049D01*
X170786Y21155D01*
X170837Y21230D01*
X170140D01*
X170140D01*
D01*
X170022Y21238D01*
X169906Y21261D01*
X169794Y21299D01*
X169688Y21351D01*
X169590Y21416D01*
X169502Y21494D01*
X169501Y21495D01*
X168088Y22908D01*
X168088Y22908D01*
X168010Y22997D01*
X167944Y23095D01*
X167892Y23201D01*
X167854Y23313D01*
X167831Y23429D01*
X167823Y23546D01*
X167831Y23664D01*
X167854Y23780D01*
X167892Y23891D01*
X167909Y23926D01*
X167944Y23997D01*
X167983Y24056D01*
X168010Y24095D01*
X168078Y24173D01*
X168088Y24184D01*
X170916Y27013D01*
X171005Y27090D01*
X171103Y27156D01*
X171208Y27208D01*
X171264Y27227D01*
X171320Y27246D01*
X171436Y27269D01*
X171554Y27277D01*
X171671Y27269D01*
D02*
G37*
G36*
X232437Y295394D02*
X232553Y295371D01*
X232665Y295333D01*
X232771Y295281D01*
X232869Y295215D01*
X232957Y295138D01*
X233035Y295049D01*
X233101Y294951D01*
X233153Y294845D01*
X233191Y294733D01*
X233214Y294618D01*
X233221Y294500D01*
Y290500D01*
X233214Y290382D01*
X233191Y290267D01*
X233153Y290155D01*
X233101Y290049D01*
X233035Y289951D01*
X232957Y289862D01*
X232869Y289785D01*
X232771Y289719D01*
X232665Y289667D01*
X232553Y289629D01*
X232437Y289606D01*
X232320Y289598D01*
X228320D01*
X228202Y289606D01*
X228144Y289617D01*
X228086Y289629D01*
X228030Y289648D01*
X227974Y289667D01*
X227869Y289719D01*
X227771Y289785D01*
X227682Y289862D01*
X227604Y289951D01*
X227539Y290049D01*
X227486Y290155D01*
X227467Y290211D01*
X227448Y290267D01*
X227437Y290324D01*
X227431Y290355D01*
X226938Y289862D01*
X226849Y289785D01*
X226751Y289719D01*
X226645Y289667D01*
X226617Y289657D01*
X226534Y289629D01*
X226437Y289610D01*
X226418Y289606D01*
X226300Y289598D01*
X224300D01*
X224182Y289606D01*
X224067Y289629D01*
X223955Y289667D01*
X223849Y289719D01*
X223751Y289785D01*
X223662Y289862D01*
X223585Y289951D01*
X223519Y290049D01*
X223467Y290155D01*
X223429Y290267D01*
X223406Y290382D01*
X223398Y290500D01*
Y294500D01*
X223406Y294618D01*
X223429Y294733D01*
X223467Y294845D01*
X223519Y294951D01*
X223585Y295049D01*
X223662Y295138D01*
X223751Y295215D01*
X223849Y295281D01*
X223955Y295333D01*
X224067Y295371D01*
X224182Y295394D01*
X224300Y295402D01*
X226300D01*
X226418Y295394D01*
X226534Y295371D01*
X226645Y295333D01*
X226751Y295281D01*
X226849Y295215D01*
X226938Y295138D01*
X227431Y294645D01*
X227437Y294676D01*
X227448Y294733D01*
X227467Y294789D01*
X227486Y294845D01*
X227539Y294951D01*
X227604Y295049D01*
X227682Y295138D01*
X227771Y295215D01*
X227869Y295281D01*
X227974Y295333D01*
X228030Y295352D01*
X228086Y295371D01*
X228144Y295383D01*
X228202Y295394D01*
X228320Y295402D01*
X232320D01*
X232437Y295394D01*
D02*
G37*
G36*
X232437Y286894D02*
X232553Y286871D01*
X232665Y286833D01*
X232771Y286781D01*
X232869Y286716D01*
X232957Y286638D01*
X233035Y286549D01*
X233101Y286451D01*
X233153Y286345D01*
X233191Y286233D01*
X233214Y286118D01*
X233222Y286000D01*
Y282000D01*
X233214Y281882D01*
X233191Y281767D01*
X233153Y281655D01*
X233101Y281549D01*
X233035Y281451D01*
X232957Y281362D01*
X232869Y281285D01*
X232771Y281219D01*
X232665Y281167D01*
X232553Y281129D01*
X232437Y281106D01*
X232320Y281098D01*
X228320D01*
X228202Y281106D01*
X228144Y281117D01*
X228086Y281129D01*
X228030Y281148D01*
X227974Y281167D01*
X227869Y281219D01*
X227771Y281285D01*
X227682Y281362D01*
X227604Y281451D01*
X227539Y281549D01*
X227486Y281655D01*
X227467Y281711D01*
X227448Y281766D01*
X227437Y281824D01*
X227431Y281855D01*
X226938Y281362D01*
X226849Y281285D01*
X226751Y281219D01*
X226645Y281167D01*
X226590Y281148D01*
X226534Y281129D01*
X226476Y281117D01*
X226418Y281106D01*
X226300Y281098D01*
X224300D01*
X224182Y281106D01*
X224067Y281129D01*
X223955Y281167D01*
X223849Y281219D01*
X223751Y281285D01*
X223662Y281362D01*
X223585Y281451D01*
X223519Y281549D01*
X223467Y281655D01*
X223429Y281767D01*
X223406Y281882D01*
X223398Y282000D01*
Y286000D01*
X223406Y286118D01*
X223429Y286233D01*
X223467Y286345D01*
X223519Y286451D01*
X223585Y286549D01*
X223662Y286638D01*
X223751Y286716D01*
X223849Y286781D01*
X223955Y286833D01*
X224067Y286871D01*
X224182Y286894D01*
X224300Y286902D01*
X226300D01*
X226418Y286894D01*
X226534Y286871D01*
X226645Y286833D01*
X226751Y286781D01*
X226849Y286716D01*
X226938Y286638D01*
X227431Y286145D01*
X227437Y286176D01*
X227448Y286233D01*
X227467Y286289D01*
X227486Y286345D01*
X227539Y286451D01*
X227604Y286549D01*
X227682Y286638D01*
X227771Y286716D01*
X227869Y286781D01*
X227974Y286833D01*
X228030Y286852D01*
X228086Y286871D01*
X228144Y286883D01*
X228202Y286894D01*
X228320Y286902D01*
X232320D01*
X232437Y286894D01*
D02*
G37*
G36*
X183868Y28072D02*
X183984Y28049D01*
X184096Y28011D01*
X184202Y27959D01*
X184300Y27893D01*
X184389Y27815D01*
X185802Y26401D01*
X185803Y26401D01*
X185881Y26312D01*
X185946Y26214D01*
X185998Y26109D01*
X186036Y25997D01*
X186059Y25881D01*
X186067Y25763D01*
Y25066D01*
X186142Y25117D01*
X186248Y25169D01*
X186359Y25207D01*
X186475Y25230D01*
X186593Y25238D01*
X186711Y25230D01*
X186730Y25226D01*
X186826Y25207D01*
X186910Y25178D01*
X186938Y25169D01*
X187044Y25117D01*
X187142Y25051D01*
X187231Y24973D01*
X190059Y22145D01*
X190059Y22145D01*
X190100Y22098D01*
X190137Y22056D01*
X190202Y21958D01*
X190255Y21852D01*
X190268Y21814D01*
X190293Y21741D01*
X190311Y21648D01*
X190315Y21625D01*
X190323Y21507D01*
X190315Y21389D01*
X190293Y21274D01*
X190255Y21162D01*
X190202Y21056D01*
X190137Y20958D01*
X190059Y20869D01*
X187231Y18041D01*
X187142Y17963D01*
X187044Y17898D01*
X186938Y17845D01*
X186900Y17832D01*
X186826Y17808D01*
X186711Y17785D01*
X186593Y17777D01*
X186475Y17785D01*
X186360Y17808D01*
X186248Y17845D01*
X186142Y17898D01*
X186044Y17963D01*
X185955Y18041D01*
X183127Y20869D01*
X183127Y20869D01*
X183049Y20958D01*
X182983Y21056D01*
X182931Y21162D01*
X182893Y21274D01*
X182870Y21389D01*
X182863Y21507D01*
X182870Y21625D01*
X182893Y21741D01*
X182931Y21852D01*
X182983Y21958D01*
X183034Y22033D01*
X182337D01*
D01*
X182337D01*
X182219Y22041D01*
X182103Y22064D01*
X181991Y22102D01*
X181886Y22154D01*
X181787Y22220D01*
X181699Y22297D01*
X181699Y22297D01*
X180285Y23711D01*
X180285Y23712D01*
X180207Y23800D01*
X180141Y23898D01*
X180089Y24004D01*
X180051Y24116D01*
X180028Y24232D01*
X180020Y24349D01*
X180028Y24467D01*
X180047Y24560D01*
X180051Y24583D01*
X180089Y24694D01*
X180106Y24729D01*
X180141Y24800D01*
X180180Y24859D01*
X180207Y24898D01*
X180275Y24976D01*
X180285Y24987D01*
X183113Y27815D01*
X183202Y27893D01*
X183300Y27959D01*
X183406Y28011D01*
X183444Y28024D01*
X183517Y28049D01*
X183633Y28072D01*
X183751Y28080D01*
X183868Y28072D01*
D02*
G37*
D66*
X71000Y63000D02*
D03*
X81500D02*
D03*
Y76500D02*
D03*
X71000D02*
D03*
D67*
X172600Y76400D02*
D03*
Y61400D02*
D03*
D68*
X52800Y32900D02*
D03*
X194700Y289800D02*
D03*
D69*
X46300Y34900D02*
D03*
Y30900D02*
D03*
X201200Y287800D02*
D03*
Y291800D02*
D03*
D70*
X79000Y20600D02*
D03*
X87000D02*
D03*
X195861Y276368D02*
D03*
X203861D02*
D03*
X120100Y93700D02*
D03*
X111100D02*
D03*
X98600Y93100D02*
D03*
X89600D02*
D03*
X159700Y19500D02*
D03*
X151700D02*
D03*
X68800Y91100D02*
D03*
X76800D02*
D03*
X72000Y34500D02*
D03*
X80000D02*
D03*
X69200Y47900D02*
D03*
X77200D02*
D03*
D71*
X20300Y30100D02*
D03*
Y22100D02*
D03*
X33100Y28700D02*
D03*
Y36700D02*
D03*
X213600Y292500D02*
D03*
Y284500D02*
D03*
X20400Y90000D02*
D03*
Y82000D02*
D03*
X56400Y67300D02*
D03*
Y75300D02*
D03*
X190400Y86400D02*
D03*
Y78400D02*
D03*
Y58800D02*
D03*
Y66800D02*
D03*
D72*
X222200Y264200D02*
D03*
Y234700D02*
D03*
D73*
X206950Y249450D02*
D03*
D74*
X53800Y53800D02*
D03*
Y49800D02*
D03*
X49800Y53800D02*
D03*
Y49800D02*
D03*
X45800Y53800D02*
D03*
Y49800D02*
D03*
X41800Y53800D02*
D03*
Y49800D02*
D03*
D75*
X31750Y82050D02*
D03*
Y88550D02*
D03*
X40050Y82050D02*
D03*
Y88550D02*
D03*
D76*
X35900Y85300D02*
D03*
D77*
X103150Y73000D02*
D03*
Y69000D02*
D03*
Y65000D02*
D03*
Y61000D02*
D03*
Y57000D02*
D03*
Y53000D02*
D03*
Y49000D02*
D03*
Y45000D02*
D03*
Y41000D02*
D03*
Y37000D02*
D03*
X151650D02*
D03*
Y41000D02*
D03*
Y45000D02*
D03*
Y49000D02*
D03*
Y53000D02*
D03*
Y57000D02*
D03*
Y61000D02*
D03*
Y65000D02*
D03*
Y69000D02*
D03*
Y73000D02*
D03*
D78*
X109400Y30750D02*
D03*
X113400D02*
D03*
X117400D02*
D03*
X121400D02*
D03*
X125400D02*
D03*
X129400D02*
D03*
X133400D02*
D03*
X137400D02*
D03*
X141400D02*
D03*
X145400D02*
D03*
Y79250D02*
D03*
X141400D02*
D03*
X137400D02*
D03*
X133400D02*
D03*
X129400D02*
D03*
X125400D02*
D03*
X121400D02*
D03*
X117400D02*
D03*
X113400D02*
D03*
X109400D02*
D03*
D79*
X127400Y55000D02*
D03*
D80*
X46900Y288000D02*
D03*
X57900D02*
D03*
X68900D02*
D03*
X79900D02*
D03*
X90900D02*
D03*
X101900D02*
D03*
X112900D02*
D03*
X123900D02*
D03*
X134900D02*
D03*
Y112000D02*
D03*
X123900D02*
D03*
X112900D02*
D03*
X101900D02*
D03*
X90900D02*
D03*
X79900D02*
D03*
X68900D02*
D03*
X57900D02*
D03*
X46900D02*
D03*
D81*
X169400Y260500D02*
D03*
Y249500D02*
D03*
Y238500D02*
D03*
Y227500D02*
D03*
Y216500D02*
D03*
Y205500D02*
D03*
Y194500D02*
D03*
Y183500D02*
D03*
Y172500D02*
D03*
Y161500D02*
D03*
Y150500D02*
D03*
Y139500D02*
D03*
X12400D02*
D03*
Y150500D02*
D03*
Y161500D02*
D03*
Y172500D02*
D03*
Y183500D02*
D03*
Y194500D02*
D03*
Y205500D02*
D03*
Y216500D02*
D03*
Y227500D02*
D03*
Y238500D02*
D03*
Y249500D02*
D03*
Y260500D02*
D03*
D82*
X32600Y47700D02*
D03*
X31600Y57900D02*
D03*
X60400Y40600D02*
D03*
X60700Y49800D02*
D03*
X182000Y289800D02*
D03*
D83*
X76200Y8000D02*
D03*
X88900D02*
D03*
X152400D02*
D03*
X139700D02*
D03*
X165100D02*
D03*
X101600D02*
D03*
X114300D02*
D03*
X12700D02*
D03*
X242000Y215900D02*
D03*
X63500Y8000D02*
D03*
X8000Y76200D02*
D03*
X38100Y8000D02*
D03*
X190500D02*
D03*
X25400D02*
D03*
X127000D02*
D03*
D84*
X242000Y203200D02*
D03*
X8000Y88900D02*
D03*
Y38100D02*
D03*
Y50800D02*
D03*
X177800Y8000D02*
D03*
X8000Y25400D02*
D03*
X50800Y8000D02*
D03*
D85*
X116400Y66000D02*
D03*
X127400D02*
D03*
X138400D02*
D03*
X116400Y55000D02*
D03*
X127400D02*
D03*
X138400D02*
D03*
X116400Y44000D02*
D03*
X127400D02*
D03*
X138400D02*
D03*
M02*
