G04*
G04 #@! TF.GenerationSoftware,Altium Limited,Altium Designer,18.1.1 (9)*
G04*
G04 Layer_Color=8388736*
%FSLAX44Y44*%
%MOMM*%
G71*
G01*
G75*
%ADD38R,0.8000X1.2000*%
%ADD39R,1.2000X0.8000*%
%ADD40R,1.4532X1.2032*%
G04:AMPARAMS|DCode=41|XSize=0.7032mm|YSize=0.4532mm|CornerRadius=0mm|HoleSize=0mm|Usage=FLASHONLY|Rotation=225.000|XOffset=0mm|YOffset=0mm|HoleType=Round|Shape=Rectangle|*
%AMROTATEDRECTD41*
4,1,4,0.0884,0.4089,0.4089,0.0884,-0.0884,-0.4089,-0.4089,-0.0884,0.0884,0.4089,0.0*
%
%ADD41ROTATEDRECTD41*%

G04:AMPARAMS|DCode=42|XSize=0.4032mm|YSize=0.4532mm|CornerRadius=0mm|HoleSize=0mm|Usage=FLASHONLY|Rotation=225.000|XOffset=0mm|YOffset=0mm|HoleType=Round|Shape=Rectangle|*
%AMROTATEDRECTD42*
4,1,4,-0.0177,0.3028,0.3028,-0.0177,0.0177,-0.3028,-0.3028,0.0177,-0.0177,0.3028,0.0*
%
%ADD42ROTATEDRECTD42*%

%ADD43R,0.4532X0.7032*%
%ADD44R,0.4532X0.4032*%
%ADD45R,0.6032X0.8032*%
%ADD46R,0.8032X0.6032*%
%ADD47R,2.4032X1.2532*%
%ADD48R,1.2532X1.2032*%
%ADD49C,0.4232*%
%ADD50O,1.0532X0.4532*%
%ADD51O,0.4532X1.0532*%
%ADD52R,3.7032X3.7032*%
%ADD53R,0.5032X0.5282*%
%ADD54R,0.5282X0.5032*%
G04:AMPARAMS|DCode=55|XSize=2.0032mm|YSize=0.8032mm|CornerRadius=0.2516mm|HoleSize=0mm|Usage=FLASHONLY|Rotation=180.000|XOffset=0mm|YOffset=0mm|HoleType=Round|Shape=RoundedRectangle|*
%AMROUNDEDRECTD55*
21,1,2.0032,0.3000,0,0,180.0*
21,1,1.5000,0.8032,0,0,180.0*
1,1,0.5032,-0.7500,0.1500*
1,1,0.5032,0.7500,0.1500*
1,1,0.5032,0.7500,-0.1500*
1,1,0.5032,-0.7500,-0.1500*
%
%ADD55ROUNDEDRECTD55*%
G04:AMPARAMS|DCode=56|XSize=2.0032mm|YSize=0.8032mm|CornerRadius=0.2516mm|HoleSize=0mm|Usage=FLASHONLY|Rotation=90.000|XOffset=0mm|YOffset=0mm|HoleType=Round|Shape=RoundedRectangle|*
%AMROUNDEDRECTD56*
21,1,2.0032,0.3000,0,0,90.0*
21,1,1.5000,0.8032,0,0,90.0*
1,1,0.5032,0.1500,0.7500*
1,1,0.5032,0.1500,-0.7500*
1,1,0.5032,-0.1500,-0.7500*
1,1,0.5032,-0.1500,0.7500*
%
%ADD56ROUNDEDRECTD56*%
G04:AMPARAMS|DCode=57|XSize=0.6032mm|YSize=0.8032mm|CornerRadius=0mm|HoleSize=0mm|Usage=FLASHONLY|Rotation=45.000|XOffset=0mm|YOffset=0mm|HoleType=Round|Shape=Rectangle|*
%AMROTATEDRECTD57*
4,1,4,0.0707,-0.4972,-0.4972,0.0707,-0.0707,0.4972,0.4972,-0.0707,0.0707,-0.4972,0.0*
%
%ADD57ROTATEDRECTD57*%

%ADD58C,0.8032*%
%ADD59C,2.4032*%
G36*
X205833Y281509D02*
X205963Y281483D01*
X206090Y281441D01*
X206209Y281382D01*
X206320Y281308D01*
X206420Y281220D01*
X206508Y281120D01*
X206582Y281009D01*
X206641Y280890D01*
X206684Y280763D01*
X206709Y280633D01*
X206718Y280500D01*
Y276500D01*
X206709Y276367D01*
X206684Y276236D01*
X206641Y276110D01*
X206582Y275991D01*
X206508Y275880D01*
X206420Y275780D01*
X206320Y275692D01*
X206209Y275618D01*
X206090Y275559D01*
X205963Y275516D01*
X205833Y275490D01*
X205700Y275482D01*
X201700D01*
X201567Y275490D01*
X201437Y275516D01*
X201310Y275559D01*
X201191Y275618D01*
X201080Y275692D01*
X200980Y275780D01*
X200892Y275880D01*
X200856Y275935D01*
X200701Y275780D01*
X200600Y275692D01*
X200490Y275618D01*
X200370Y275559D01*
X200244Y275516D01*
X200114Y275490D01*
X199981Y275482D01*
X197981D01*
X197848Y275490D01*
X197717Y275516D01*
X197591Y275559D01*
X197472Y275618D01*
X197361Y275692D01*
X197261Y275780D01*
X197173Y275880D01*
X197099Y275991D01*
X197040Y276110D01*
X196997Y276236D01*
X196971Y276367D01*
X196962Y276500D01*
Y280500D01*
X196971Y280633D01*
X196997Y280763D01*
X197040Y280890D01*
X197099Y281009D01*
X197173Y281120D01*
X197261Y281220D01*
X197361Y281308D01*
X197472Y281382D01*
X197591Y281441D01*
X197717Y281483D01*
X197848Y281509D01*
X197981Y281518D01*
X199981D01*
X200114Y281509D01*
X200244Y281483D01*
X200370Y281441D01*
X200490Y281382D01*
X200600Y281308D01*
X200701Y281220D01*
X200856Y281065D01*
X200892Y281120D01*
X200980Y281220D01*
X201080Y281308D01*
X201191Y281382D01*
X201310Y281441D01*
X201437Y281483D01*
X201567Y281509D01*
X201700Y281518D01*
X205700D01*
X205833Y281509D01*
D02*
G37*
G36*
Y269410D02*
X205963Y269384D01*
X206090Y269341D01*
X206209Y269282D01*
X206320Y269208D01*
X206420Y269120D01*
X206508Y269020D01*
X206582Y268909D01*
X206641Y268790D01*
X206684Y268664D01*
X206709Y268533D01*
X206718Y268400D01*
Y264400D01*
X206709Y264267D01*
X206684Y264137D01*
X206641Y264010D01*
X206582Y263891D01*
X206508Y263780D01*
X206420Y263680D01*
X206320Y263592D01*
X206209Y263518D01*
X206090Y263459D01*
X205963Y263417D01*
X205833Y263391D01*
X205700Y263382D01*
X201700D01*
X201567Y263391D01*
X201437Y263417D01*
X201310Y263459D01*
X201191Y263518D01*
X201080Y263592D01*
X200980Y263680D01*
X200892Y263780D01*
X200856Y263835D01*
X200701Y263680D01*
X200600Y263592D01*
X200490Y263518D01*
X200370Y263459D01*
X200244Y263417D01*
X200114Y263391D01*
X199981Y263382D01*
X197981D01*
X197848Y263391D01*
X197717Y263417D01*
X197591Y263459D01*
X197472Y263518D01*
X197361Y263592D01*
X197261Y263680D01*
X197173Y263780D01*
X197099Y263891D01*
X197040Y264010D01*
X196997Y264137D01*
X196971Y264267D01*
X196962Y264400D01*
Y268400D01*
X196971Y268533D01*
X196997Y268664D01*
X197040Y268790D01*
X197099Y268909D01*
X197173Y269020D01*
X197261Y269120D01*
X197361Y269208D01*
X197472Y269282D01*
X197591Y269341D01*
X197717Y269384D01*
X197848Y269410D01*
X197981Y269418D01*
X199981D01*
X200114Y269410D01*
X200244Y269384D01*
X200370Y269341D01*
X200490Y269282D01*
X200600Y269208D01*
X200701Y269120D01*
X200856Y268965D01*
X200892Y269020D01*
X200980Y269120D01*
X201080Y269208D01*
X201191Y269282D01*
X201310Y269341D01*
X201437Y269384D01*
X201567Y269410D01*
X201700Y269418D01*
X205700D01*
X205833Y269410D01*
D02*
G37*
G36*
X68123Y84679D02*
X68254Y84654D01*
X68380Y84611D01*
X68499Y84552D01*
X68610Y84478D01*
X68710Y84390D01*
X68798Y84290D01*
X68872Y84179D01*
X68931Y84060D01*
X68973Y83933D01*
X69000Y83803D01*
X69008Y83670D01*
Y79670D01*
X69000Y79537D01*
X68973Y79406D01*
X68931Y79280D01*
X68872Y79161D01*
X68798Y79050D01*
X68710Y78950D01*
X68610Y78862D01*
X68499Y78788D01*
X68380Y78729D01*
X68254Y78686D01*
X68123Y78660D01*
X67990Y78652D01*
X63990D01*
X63857Y78660D01*
X63727Y78686D01*
X63600Y78729D01*
X63481Y78788D01*
X63370Y78862D01*
X63270Y78950D01*
X63182Y79050D01*
X63146Y79105D01*
X62991Y78950D01*
X62891Y78862D01*
X62780Y78788D01*
X62660Y78729D01*
X62534Y78686D01*
X62403Y78660D01*
X62271Y78652D01*
X60271D01*
X60138Y78660D01*
X60007Y78686D01*
X59881Y78729D01*
X59762Y78788D01*
X59651Y78862D01*
X59551Y78950D01*
X59463Y79050D01*
X59389Y79161D01*
X59330Y79280D01*
X59287Y79406D01*
X59261Y79537D01*
X59252Y79670D01*
Y83670D01*
X59261Y83803D01*
X59287Y83933D01*
X59330Y84060D01*
X59389Y84179D01*
X59463Y84290D01*
X59551Y84390D01*
X59651Y84478D01*
X59762Y84552D01*
X59881Y84611D01*
X60007Y84654D01*
X60138Y84679D01*
X60271Y84688D01*
X62271D01*
X62403Y84679D01*
X62534Y84654D01*
X62660Y84611D01*
X62780Y84552D01*
X62891Y84478D01*
X62991Y84390D01*
X63146Y84235D01*
X63182Y84290D01*
X63270Y84390D01*
X63370Y84478D01*
X63481Y84552D01*
X63600Y84611D01*
X63727Y84654D01*
X63857Y84679D01*
X63990Y84688D01*
X67990D01*
X68123Y84679D01*
D02*
G37*
G36*
X50032Y83919D02*
X50163Y83893D01*
X50289Y83851D01*
X50409Y83792D01*
X50519Y83718D01*
X50619Y83630D01*
X50707Y83530D01*
X50781Y83419D01*
X50840Y83300D01*
X50883Y83174D01*
X50909Y83043D01*
X50918Y82910D01*
Y78910D01*
X50909Y78777D01*
X50883Y78646D01*
X50840Y78520D01*
X50781Y78401D01*
X50707Y78290D01*
X50619Y78190D01*
X50519Y78102D01*
X50409Y78028D01*
X50289Y77969D01*
X50163Y77927D01*
X50032Y77901D01*
X49899Y77892D01*
X47899D01*
X47766Y77901D01*
X47636Y77927D01*
X47510Y77969D01*
X47390Y78028D01*
X47280Y78102D01*
X47179Y78190D01*
X47024Y78345D01*
X46988Y78290D01*
X46900Y78190D01*
X46800Y78102D01*
X46689Y78028D01*
X46570Y77969D01*
X46444Y77927D01*
X46313Y77901D01*
X46180Y77892D01*
X42180D01*
X42047Y77901D01*
X41916Y77927D01*
X41790Y77969D01*
X41671Y78028D01*
X41560Y78102D01*
X41460Y78190D01*
X41372Y78290D01*
X41298Y78401D01*
X41239Y78520D01*
X41196Y78646D01*
X41171Y78777D01*
X41162Y78910D01*
Y82910D01*
X41171Y83043D01*
X41196Y83174D01*
X41239Y83300D01*
X41298Y83419D01*
X41372Y83530D01*
X41460Y83630D01*
X41560Y83718D01*
X41671Y83792D01*
X41790Y83851D01*
X41916Y83893D01*
X42047Y83919D01*
X42180Y83928D01*
X46180D01*
X46313Y83919D01*
X46444Y83893D01*
X46570Y83851D01*
X46689Y83792D01*
X46800Y83718D01*
X46900Y83630D01*
X46988Y83530D01*
X47024Y83475D01*
X47179Y83630D01*
X47280Y83718D01*
X47390Y83792D01*
X47510Y83851D01*
X47636Y83893D01*
X47766Y83919D01*
X47899Y83928D01*
X49899D01*
X50032Y83919D01*
D02*
G37*
G36*
X67923Y75420D02*
X68053Y75394D01*
X68179Y75351D01*
X68299Y75292D01*
X68410Y75218D01*
X68510Y75130D01*
X68597Y75030D01*
X68671Y74919D01*
X68730Y74800D01*
X68773Y74674D01*
X68799Y74543D01*
X68808Y74410D01*
Y70410D01*
X68799Y70277D01*
X68773Y70146D01*
X68730Y70020D01*
X68671Y69901D01*
X68597Y69790D01*
X68510Y69690D01*
X68410Y69602D01*
X68299Y69528D01*
X68179Y69469D01*
X68053Y69426D01*
X67923Y69401D01*
X67790Y69392D01*
X63790D01*
X63657Y69401D01*
X63526Y69426D01*
X63400Y69469D01*
X63281Y69528D01*
X63170Y69602D01*
X63070Y69690D01*
X62982Y69790D01*
X62945Y69845D01*
X62790Y69690D01*
X62690Y69602D01*
X62579Y69528D01*
X62460Y69469D01*
X62334Y69426D01*
X62203Y69401D01*
X62070Y69392D01*
X60070D01*
X59937Y69401D01*
X59807Y69426D01*
X59681Y69469D01*
X59561Y69528D01*
X59450Y69602D01*
X59350Y69690D01*
X59262Y69790D01*
X59188Y69901D01*
X59130Y70020D01*
X59087Y70146D01*
X59061Y70277D01*
X59052Y70410D01*
Y74410D01*
X59061Y74543D01*
X59087Y74674D01*
X59130Y74800D01*
X59188Y74919D01*
X59262Y75030D01*
X59350Y75130D01*
X59450Y75218D01*
X59561Y75292D01*
X59681Y75351D01*
X59807Y75394D01*
X59937Y75420D01*
X60070Y75428D01*
X62070D01*
X62203Y75420D01*
X62334Y75394D01*
X62460Y75351D01*
X62579Y75292D01*
X62690Y75218D01*
X62790Y75130D01*
X62945Y74975D01*
X62982Y75030D01*
X63070Y75130D01*
X63170Y75218D01*
X63281Y75292D01*
X63400Y75351D01*
X63526Y75394D01*
X63657Y75420D01*
X63790Y75428D01*
X67790D01*
X67923Y75420D01*
D02*
G37*
G36*
X43343Y26439D02*
X43474Y26413D01*
X43600Y26370D01*
X43719Y26311D01*
X43830Y26237D01*
X43930Y26149D01*
X44018Y26049D01*
X44092Y25938D01*
X44151Y25819D01*
X44194Y25693D01*
X44219Y25562D01*
X44228Y25429D01*
Y23429D01*
X44219Y23296D01*
X44194Y23166D01*
X44151Y23040D01*
X44092Y22920D01*
X44018Y22810D01*
X43930Y22709D01*
X43775Y22554D01*
X43830Y22518D01*
X43930Y22430D01*
X44018Y22330D01*
X44092Y22219D01*
X44151Y22100D01*
X44194Y21974D01*
X44219Y21843D01*
X44228Y21710D01*
Y17710D01*
X44219Y17577D01*
X44194Y17447D01*
X44151Y17320D01*
X44092Y17201D01*
X44018Y17090D01*
X43930Y16990D01*
X43830Y16902D01*
X43719Y16828D01*
X43600Y16769D01*
X43474Y16726D01*
X43343Y16701D01*
X43210Y16692D01*
X39210D01*
X39077Y16701D01*
X38946Y16726D01*
X38820Y16769D01*
X38701Y16828D01*
X38590Y16902D01*
X38490Y16990D01*
X38402Y17090D01*
X38328Y17201D01*
X38269Y17320D01*
X38226Y17447D01*
X38201Y17577D01*
X38192Y17710D01*
Y21710D01*
X38201Y21843D01*
X38226Y21974D01*
X38269Y22100D01*
X38328Y22219D01*
X38402Y22330D01*
X38490Y22430D01*
X38590Y22518D01*
X38645Y22554D01*
X38490Y22709D01*
X38402Y22810D01*
X38328Y22920D01*
X38269Y23040D01*
X38226Y23166D01*
X38201Y23296D01*
X38192Y23429D01*
Y25429D01*
X38201Y25562D01*
X38226Y25693D01*
X38269Y25819D01*
X38328Y25938D01*
X38402Y26049D01*
X38490Y26149D01*
X38590Y26237D01*
X38701Y26311D01*
X38820Y26370D01*
X38946Y26413D01*
X39077Y26439D01*
X39210Y26448D01*
X43210D01*
X43343Y26439D01*
D02*
G37*
G36*
X34633Y26429D02*
X34764Y26403D01*
X34890Y26360D01*
X35009Y26301D01*
X35120Y26227D01*
X35220Y26139D01*
X35308Y26039D01*
X35382Y25928D01*
X35441Y25809D01*
X35484Y25683D01*
X35510Y25552D01*
X35518Y25419D01*
Y23419D01*
X35510Y23286D01*
X35484Y23156D01*
X35441Y23030D01*
X35382Y22910D01*
X35308Y22800D01*
X35220Y22699D01*
X35065Y22544D01*
X35120Y22508D01*
X35220Y22420D01*
X35308Y22320D01*
X35382Y22209D01*
X35441Y22090D01*
X35484Y21964D01*
X35510Y21833D01*
X35518Y21700D01*
Y17700D01*
X35510Y17567D01*
X35484Y17436D01*
X35441Y17310D01*
X35382Y17191D01*
X35308Y17080D01*
X35220Y16980D01*
X35120Y16892D01*
X35009Y16818D01*
X34890Y16759D01*
X34764Y16717D01*
X34633Y16690D01*
X34500Y16682D01*
X30500D01*
X30367Y16690D01*
X30236Y16717D01*
X30110Y16759D01*
X29991Y16818D01*
X29880Y16892D01*
X29780Y16980D01*
X29692Y17080D01*
X29618Y17191D01*
X29559Y17310D01*
X29516Y17436D01*
X29490Y17567D01*
X29482Y17700D01*
Y21700D01*
X29490Y21833D01*
X29516Y21964D01*
X29559Y22090D01*
X29618Y22209D01*
X29692Y22320D01*
X29780Y22420D01*
X29880Y22508D01*
X29935Y22544D01*
X29780Y22699D01*
X29692Y22800D01*
X29618Y22910D01*
X29559Y23030D01*
X29516Y23156D01*
X29490Y23286D01*
X29482Y23419D01*
Y25419D01*
X29490Y25552D01*
X29516Y25683D01*
X29559Y25809D01*
X29618Y25928D01*
X29692Y26039D01*
X29780Y26139D01*
X29880Y26227D01*
X29991Y26301D01*
X30110Y26360D01*
X30236Y26403D01*
X30367Y26429D01*
X30500Y26438D01*
X34500D01*
X34633Y26429D01*
D02*
G37*
D38*
X179700Y6000D02*
D03*
X167000D02*
D03*
X154300D02*
D03*
X116200D02*
D03*
X128900D02*
D03*
X217700Y294000D02*
D03*
X205000Y294000D02*
D03*
X141600Y6000D02*
D03*
X103500D02*
D03*
X90800D02*
D03*
X78100D02*
D03*
X65400D02*
D03*
X52700D02*
D03*
X40000D02*
D03*
D39*
X244000Y206000D02*
D03*
Y193300D02*
D03*
D40*
X110990Y62540D02*
D03*
Y77540D02*
D03*
D41*
X25400Y31000D02*
D03*
D42*
X22218Y37010D02*
D03*
X19390Y34182D02*
D03*
D43*
X165000Y291200D02*
D03*
D44*
X171500Y289200D02*
D03*
Y293200D02*
D03*
D45*
X162500Y19400D02*
D03*
X154500D02*
D03*
X28200Y90600D02*
D03*
X20200D02*
D03*
X27000Y47900D02*
D03*
X19000D02*
D03*
X50500Y20300D02*
D03*
X58500D02*
D03*
X183310Y96710D02*
D03*
X175310D02*
D03*
X86420Y62590D02*
D03*
X94420D02*
D03*
X86370Y77680D02*
D03*
X94370D02*
D03*
D46*
X116100Y18600D02*
D03*
Y26600D02*
D03*
X103510Y18600D02*
D03*
Y26600D02*
D03*
X90810Y18600D02*
D03*
Y26600D02*
D03*
X78150Y18600D02*
D03*
Y26600D02*
D03*
X55100Y39200D02*
D03*
Y31200D02*
D03*
X39400Y46600D02*
D03*
Y38600D02*
D03*
X189700Y285300D02*
D03*
Y293300D02*
D03*
X64110Y55620D02*
D03*
Y63620D02*
D03*
D47*
X227650Y258550D02*
D03*
Y229050D02*
D03*
D48*
X212400Y243800D02*
D03*
D49*
X91500Y40500D02*
D03*
Y44500D02*
D03*
X95500Y40500D02*
D03*
Y44500D02*
D03*
X99500Y40500D02*
D03*
Y44500D02*
D03*
X103500Y40500D02*
D03*
Y44500D02*
D03*
D50*
X131100Y77600D02*
D03*
Y72600D02*
D03*
Y67600D02*
D03*
Y62600D02*
D03*
Y57600D02*
D03*
Y52600D02*
D03*
Y47600D02*
D03*
Y42600D02*
D03*
X179100D02*
D03*
Y47600D02*
D03*
Y52600D02*
D03*
Y57600D02*
D03*
Y62600D02*
D03*
Y67600D02*
D03*
Y72600D02*
D03*
Y77600D02*
D03*
D51*
X137600Y36100D02*
D03*
X142600D02*
D03*
X147600D02*
D03*
X152600D02*
D03*
X157600D02*
D03*
X162600D02*
D03*
X167600D02*
D03*
X172600D02*
D03*
Y84100D02*
D03*
X167600D02*
D03*
X162600D02*
D03*
X157600D02*
D03*
X152600D02*
D03*
X147600D02*
D03*
X142600D02*
D03*
X137600D02*
D03*
D52*
X155100Y60100D02*
D03*
D53*
X43205Y71305D02*
D03*
X48205D02*
D03*
Y56055D02*
D03*
X43205D02*
D03*
D54*
X53330Y71180D02*
D03*
Y66180D02*
D03*
Y61180D02*
D03*
Y56180D02*
D03*
X38080D02*
D03*
Y61180D02*
D03*
Y66180D02*
D03*
Y71180D02*
D03*
D55*
X21000Y254700D02*
D03*
Y243700D02*
D03*
Y232700D02*
D03*
Y221700D02*
D03*
Y210700D02*
D03*
Y199700D02*
D03*
Y188700D02*
D03*
Y177700D02*
D03*
Y166700D02*
D03*
Y155700D02*
D03*
Y144700D02*
D03*
Y133700D02*
D03*
X178000D02*
D03*
Y144700D02*
D03*
Y155700D02*
D03*
Y166700D02*
D03*
Y177700D02*
D03*
Y188700D02*
D03*
Y199700D02*
D03*
Y210700D02*
D03*
Y221700D02*
D03*
Y232700D02*
D03*
Y243700D02*
D03*
Y254700D02*
D03*
D56*
X55500Y106200D02*
D03*
X66500D02*
D03*
X77500D02*
D03*
X88500D02*
D03*
X99500D02*
D03*
X110500D02*
D03*
X121500D02*
D03*
X132500D02*
D03*
X143500D02*
D03*
Y282200D02*
D03*
X132500D02*
D03*
X121500D02*
D03*
X110500D02*
D03*
X99500D02*
D03*
X88500D02*
D03*
X77500D02*
D03*
X66500D02*
D03*
X55500D02*
D03*
D57*
X70434Y39046D02*
D03*
X76091Y44703D02*
D03*
D58*
X179700Y0D02*
D03*
Y8000D02*
D03*
X167000Y0D02*
D03*
Y8000D02*
D03*
X154300Y0D02*
D03*
Y8000D02*
D03*
X116200Y0D02*
D03*
Y8000D02*
D03*
X128900Y0D02*
D03*
Y8000D02*
D03*
X217700Y300000D02*
D03*
Y292000D02*
D03*
X205000Y300000D02*
D03*
Y292000D02*
D03*
X141600Y0D02*
D03*
Y8000D02*
D03*
X250000Y206000D02*
D03*
X242000D02*
D03*
X250000Y193300D02*
D03*
X242000D02*
D03*
X103500Y0D02*
D03*
Y8000D02*
D03*
X90800Y0D02*
D03*
Y8000D02*
D03*
X78100Y0D02*
D03*
Y8000D02*
D03*
X65400Y0D02*
D03*
Y8000D02*
D03*
X52700Y0D02*
D03*
Y8000D02*
D03*
X40000Y0D02*
D03*
Y8000D02*
D03*
D59*
X235000Y285000D02*
D03*
X15000Y15000D02*
D03*
M02*
