M48
;Layer_Color=9474304
;FILE_FORMAT=4:4
METRIC,LZ
;TYPE=PLATED
T1F00S00C0.2000
T2F00S00C0.6000
T3F00S00C2.2000
%
T01
X0000532Y0002644
X0001032Y0003644
X0002032
X0001532Y0004644
X0000532
X0001032Y0005644
X0002032
X0002987Y0006186
X0002532Y0006644
X0001532
X0000532
X0001032Y0007644
X0002032
X0001532Y0008644
X0002532
X0002032Y0009644
X0001032
X0000532Y0010644
X0001532
X0002032Y0011644
X0001032
X0000532Y0012644
X0001532
X0003532
X000345Y0012045
X0004532Y0012644
X0005221Y0012042
X0006532Y0012644
X0007032Y0013644
X0007455Y0014253
X0006589Y0014275
X0005707Y0014271
X0010471Y0014259
X0010532Y0012644
X0011709Y0012478
X0012454Y0012476
X0013246Y0008597
X0012602Y0007755
X0012073Y0006321
X0012085Y0005176
X0012153Y0004255
X0011501Y0004755
X001161Y000304
X0010351Y0003066
X0009081Y0003065
X0007816Y0003026
X0008032Y0003644
X0007032Y0001644
X0003032
X0002532Y0002644
X0004076Y0004771
X00043703Y00075567
X000382Y0007724
X0005333Y0007678
X0007214Y0007245
X0008532Y0008644
X0009532
X0013247Y0003767
X0014062Y0002662
X0000532Y0008644
X0014735Y0009219
X0015426Y0009882
X0016369Y0009373
X0017931Y0008965
X0017914Y0008105
X0018499Y0007255
X0018817Y0006702
X0019532Y0006644
X001905Y000588
X0019Y000424
X0019532Y0004644
X001877Y000316
X0019Y000227
X0019032Y0001644
X001929Y000076
X001773Y000248
X001726Y000291
X0016764Y0002452
X001627Y000289
X0015764Y0002606
X0014833Y000293
X0014791Y000228
X001441Y000491
Y000601
Y000711
X001551
X001661
Y000601
X001551
Y000491
X001661
X0019032Y0007644
X0019532Y0008644
X001941Y000958
X0019532Y0010644
X0019032Y0011644
X0018532Y0012644
X0019532
X0019032Y0013644
X0017032Y0011644
X001648Y001137
X0014532Y0012644
X0014855Y0013996
X0015532Y0014644
X0014532Y0016644
X0015032Y0017644
X0016032
X001564Y0018652
X0016521Y0018658
X0016446Y0020247
X0015657Y0020338
X0014679
X0014728Y0018664
X0019532Y0018644
X0020532
X0021532
X0022532
X0023532
X0024032Y0017644
X0023032
X0022032
X0021032
X0020032
X0019032
X0019532Y0016644
X0019032Y0015644
X0019532Y0014644
X0019032Y0019644
X0019532Y0020644
Y0022644
X0019032Y0023644
X001918Y002482
X0019532Y0026644
X0018994Y0027877
X0018032Y0027644
X0017376Y002785
X0016105Y0027708
X0015047Y002753
X0015532Y0028771
X0018211Y0029297
X0022032Y0027644
X0021076Y0022264
X0021032Y0021644
X00234788Y00216674
X0022032Y0019644
X0013864Y0018662
X0014032Y0017644
X0013032
X0013532Y0016644
X0012209Y0016746
X0011564Y0016747
X0010532Y0016644
X0010041Y0016341
X0010032Y0017644
X0011032
Y0015644
X0009532Y0020644
X0008532
X0009032Y0021644
Y0023644
X0010032
X0009532Y0024644
X0008532
X0008842Y0026828
X0009532Y0026644
X0010532
X0011532
X0012532
X0013032Y0025644
X0012032
X0012532Y0024644
X0013032Y0023644
X0012032
X0012532Y0022644
X0013032Y0021644
X0012032
X0012532Y0020644
X0007032Y0021644
X0004032
X0004532Y0022644
Y0020644
X0004032Y0019644
X0004532Y0018644
X0000532
Y0016644
Y0014644
X0004856Y0014297
X0005381Y002437
X0005385Y002547
X0006032Y0025644
X0007032
X0004532Y0026644
X0003532
X0004032Y0027644
X0003032
X0003532Y0028644
X0004532
X0001532Y0026644
X0000532
T02
X0004Y0
Y00008
X000527
Y0
X000654
Y00008
X000781
Y0
X000908
Y00008
X001035
Y0
X001162
Y00008
X001289
Y0
X001416Y0
Y00008
X001543
Y0
X00167
Y00008
X001797
Y0
X00242Y001933
X0025
Y00206
X00242
X002177Y00292
Y003
X00205Y003
Y00292
T03
X00015Y00015
X00235Y00285
M30
