G04*
G04 #@! TF.GenerationSoftware,Altium Limited,Altium Designer,18.1.1 (9)*
G04*
G04 Layer_Physical_Order=3*
G04 Layer_Color=16440176*
%FSLAX44Y44*%
%MOMM*%
G71*
G01*
G75*
%ADD13C,0.2000*%
%ADD17R,0.8000X1.2000*%
%ADD57C,0.3000*%
%ADD58C,0.5000*%
%ADD62C,0.6000*%
%ADD64C,0.4500*%
D13*
X132470Y85960D02*
X132760Y85670D01*
X132460Y85970D02*
X132470Y85960D01*
X29870Y75460D02*
X68100Y113690D01*
X164910D01*
X29870Y61860D02*
Y75460D01*
X135650Y98820D02*
X154260D01*
X65400Y28570D02*
X135650Y98820D01*
X65400Y8000D02*
Y28570D01*
X132490Y104730D02*
X160870D01*
X52700Y24940D02*
X132490Y104730D01*
X52700Y8000D02*
Y24940D01*
X160870Y104730D02*
X163690Y101910D01*
Y93730D02*
Y101910D01*
X57070Y138930D02*
Y142710D01*
X54130Y135990D02*
X57070Y138930D01*
X45950Y135990D02*
X54130D01*
X41670Y140270D02*
X45950Y135990D01*
X41670Y140270D02*
Y166660D01*
X72710Y197700D01*
X155820D01*
X165210Y188310D01*
Y186580D02*
Y188310D01*
X164460Y269200D02*
X173760Y278500D01*
X164460Y202470D02*
Y269200D01*
X156570Y203380D02*
Y272300D01*
X156420Y272450D02*
X156570Y272300D01*
X146790Y271620D02*
X150470Y275300D01*
X146790Y203380D02*
Y271620D01*
X149050Y193870D02*
X156400Y186520D01*
X77800Y193870D02*
X149050D01*
X48560Y164630D02*
X77800Y193870D01*
X143050Y190870D02*
X147280Y186640D01*
X65890Y172780D02*
X83980Y190870D01*
X143050D01*
X65890Y142750D02*
Y172780D01*
X48560Y142970D02*
Y164630D01*
X74550Y142530D02*
Y173070D01*
X88100Y186620D01*
X138640D01*
X156420Y272450D02*
X161050Y277080D01*
X78160Y25940D02*
Y30260D01*
Y25940D02*
X87070Y17030D01*
X151690D01*
X153220Y18560D01*
Y24410D01*
X148330Y29300D02*
X153220Y24410D01*
D17*
X179700Y6000D02*
D03*
X52700D02*
D03*
X128900D02*
D03*
X167000D02*
D03*
X154300D02*
D03*
X116200D02*
D03*
X205000Y294000D02*
D03*
X217700Y294000D02*
D03*
X78100Y6000D02*
D03*
X90800D02*
D03*
X103500D02*
D03*
X65400D02*
D03*
X40000D02*
D03*
D57*
X132760Y85670D02*
X168040D01*
X172020Y89650D01*
X179310D01*
X132470Y37670D02*
Y85960D01*
D58*
X24200Y284440D02*
X33220Y293460D01*
X181620D01*
X182110Y292970D01*
X30470Y120450D02*
X34500D01*
X52210Y120420D02*
X82540D01*
X24200Y126720D02*
Y284440D01*
Y126720D02*
X30470Y120450D01*
X160470Y153020D02*
X179310Y134180D01*
Y89650D02*
Y134180D01*
X82540Y120420D02*
X104710Y142590D01*
X115140Y153020D01*
X160470D01*
X205000Y197550D01*
Y292000D01*
D62*
X179700Y0D02*
D03*
Y8000D02*
D03*
X52700Y0D02*
D03*
Y8000D02*
D03*
X128900Y0D02*
D03*
Y8000D02*
D03*
X167000Y0D02*
D03*
Y8000D02*
D03*
X154300Y0D02*
D03*
Y8000D02*
D03*
X116200Y0D02*
D03*
Y8000D02*
D03*
X205000Y300000D02*
D03*
Y292000D02*
D03*
X217700Y300000D02*
D03*
Y292000D02*
D03*
X78100Y0D02*
D03*
Y8000D02*
D03*
X90800Y0D02*
D03*
Y8000D02*
D03*
X103500Y0D02*
D03*
Y8000D02*
D03*
X65400Y0D02*
D03*
Y8000D02*
D03*
X40000Y0D02*
D03*
Y8000D02*
D03*
D64*
X34500Y120450D02*
D03*
X52210Y120420D02*
D03*
X182110Y292970D02*
D03*
X179310Y89650D02*
D03*
X164910Y113690D02*
D03*
X104710Y142590D02*
D03*
X132470Y37670D02*
D03*
X29870Y61860D02*
D03*
X163690Y93730D02*
D03*
X154260Y98820D02*
D03*
X57070Y142710D02*
D03*
X165210Y186580D02*
D03*
X164460Y202470D02*
D03*
X156570Y203380D02*
D03*
X146790D02*
D03*
X48560Y142970D02*
D03*
X156400Y186520D02*
D03*
X65890Y142750D02*
D03*
X147280Y186640D02*
D03*
X74550Y142530D02*
D03*
X138640Y186620D02*
D03*
X173760Y278500D02*
D03*
X161050Y277080D02*
D03*
X150470Y275300D02*
D03*
X132460Y85970D02*
D03*
X78160Y30260D02*
D03*
X148330Y29300D02*
D03*
M02*
