G04 Layer_Color=8421504*
%FSLAX44Y44*%
%MOMM*%
G71*
G01*
G75*
%ADD10C,0.8000*%
%ADD11R,0.4000X0.6000*%
%ADD12R,2.0000X3.0000*%
%ADD13R,0.6000X0.4000*%
%ADD14O,0.9000X0.2500*%
%ADD15O,0.2500X0.9000*%
%ADD16R,1.5000X1.0000*%
%ADD17R,2.8000X2.8000*%
%ADD18O,0.2000X0.8500*%
%ADD19O,0.8500X0.2000*%
%ADD20C,0.2500*%
G04:AMPARAMS|DCode=21|XSize=0.45mm|YSize=0.23mm|CornerRadius=0mm|HoleSize=0mm|Usage=FLASHONLY|Rotation=0.000|XOffset=0mm|YOffset=0mm|HoleType=Round|Shape=Octagon|*
%AMOCTAGOND21*
4,1,8,0.2250,-0.0575,0.2250,0.0575,0.1675,0.1150,-0.1675,0.1150,-0.2250,0.0575,-0.2250,-0.0575,-0.1675,-0.1150,0.1675,-0.1150,0.2250,-0.0575,0.0*
%
%ADD21OCTAGOND21*%

%ADD22C,0.2200*%
%ADD23R,3.4000X4.2000*%
%ADD24O,0.9500X0.6000*%
%ADD25R,0.8000X1.0000*%
%ADD26R,1.8000X1.0000*%
%ADD27R,1.0000X1.1000*%
%ADD28R,0.2000X0.2000*%
%ADD29R,0.2000X0.2500*%
%ADD30R,0.5000X0.2500*%
%ADD31R,0.8500X0.7500*%
%ADD32R,0.5000X0.5000*%
%ADD33R,0.5000X0.9000*%
G36*
X73647Y5900D02*
X75647Y3900D01*
X71647D01*
Y7900D01*
X75647D01*
X73647Y5900D01*
D02*
G37*
G36*
X99080D02*
X101080Y3900D01*
X97080D01*
Y7900D01*
X101080D01*
X99080Y5900D01*
D02*
G37*
G36*
X22780D02*
X24780Y3900D01*
X20780D01*
Y7900D01*
X24780D01*
X22780Y5900D01*
D02*
G37*
G36*
X48214D02*
X50214Y3900D01*
X46214D01*
Y7900D01*
X50214D01*
X48214Y5900D01*
D02*
G37*
G36*
X48700Y45400D02*
X44700D01*
X46700Y47400D01*
X44700Y49400D01*
X48700D01*
Y45400D01*
D02*
G37*
G36*
X147481Y169833D02*
X149481Y167833D01*
X145481D01*
Y171833D01*
X149481D01*
X147481Y169833D01*
D02*
G37*
G36*
Y179500D02*
X149481Y177500D01*
X145481D01*
Y181500D01*
X149481D01*
X147481Y179500D01*
D02*
G37*
G36*
Y150500D02*
X149481Y148500D01*
X145481D01*
Y152500D01*
X149481D01*
X147481Y150500D01*
D02*
G37*
G36*
Y160167D02*
X149481Y158167D01*
X145481D01*
Y162167D01*
X149481D01*
X147481Y160167D01*
D02*
G37*
D10*
X7200Y100500D02*
D03*
Y113550D02*
D03*
Y126600D02*
D03*
X76500Y33400D02*
D03*
X66800Y38800D02*
D03*
X84500Y43100D02*
D03*
D11*
X40700Y36900D02*
D03*
X48700D02*
D03*
X75700Y79500D02*
D03*
X67700D02*
D03*
X26100Y38300D02*
D03*
X18100D02*
D03*
X26100Y50600D02*
D03*
X18100D02*
D03*
D12*
X28300Y108700D02*
D03*
X88300D02*
D03*
D13*
X51500Y57200D02*
D03*
Y65200D02*
D03*
X90900Y69700D02*
D03*
Y77700D02*
D03*
X24600Y14500D02*
D03*
Y22500D02*
D03*
X75700Y14500D02*
D03*
Y22500D02*
D03*
X50750Y14500D02*
D03*
Y22500D02*
D03*
D14*
X155900Y115000D02*
D03*
Y120000D02*
D03*
X127900D02*
D03*
Y115000D02*
D03*
D15*
X151900Y129000D02*
D03*
X146900D02*
D03*
X141900D02*
D03*
X136900D02*
D03*
X131900D02*
D03*
Y106000D02*
D03*
X136900D02*
D03*
X141900D02*
D03*
X146900D02*
D03*
X151900D02*
D03*
D16*
X141900Y117500D02*
D03*
D17*
X125200Y49650D02*
D03*
D18*
X107200Y73900D02*
D03*
X111200D02*
D03*
X115200D02*
D03*
X119200D02*
D03*
X123200D02*
D03*
X127200D02*
D03*
X131200D02*
D03*
X135200D02*
D03*
X139200D02*
D03*
X143200D02*
D03*
Y25400D02*
D03*
X139200D02*
D03*
X135200D02*
D03*
X131200D02*
D03*
X127200D02*
D03*
X123200D02*
D03*
X119200D02*
D03*
X115200D02*
D03*
X111200D02*
D03*
X107200D02*
D03*
D19*
X149450Y67650D02*
D03*
Y63650D02*
D03*
Y59650D02*
D03*
Y55650D02*
D03*
Y51650D02*
D03*
Y47650D02*
D03*
Y43650D02*
D03*
Y39650D02*
D03*
Y35650D02*
D03*
Y31650D02*
D03*
X100950D02*
D03*
Y35650D02*
D03*
Y39650D02*
D03*
Y43650D02*
D03*
Y47650D02*
D03*
Y51650D02*
D03*
Y55650D02*
D03*
Y59650D02*
D03*
Y63650D02*
D03*
Y67650D02*
D03*
D20*
X24600Y67400D02*
D03*
D21*
X28750Y70650D02*
D03*
Y64150D02*
D03*
X20450Y70650D02*
D03*
Y64150D02*
D03*
D22*
X111000Y102400D02*
D03*
X107000D02*
D03*
X111000Y106400D02*
D03*
X107000D02*
D03*
X111000Y110400D02*
D03*
X107000D02*
D03*
X111000Y114400D02*
D03*
X107000D02*
D03*
D23*
X180200Y214500D02*
D03*
D24*
X208950Y233550D02*
D03*
Y220850D02*
D03*
Y208150D02*
D03*
Y195450D02*
D03*
X151450D02*
D03*
Y208150D02*
D03*
Y220850D02*
D03*
Y233550D02*
D03*
D25*
X70600Y144500D02*
D03*
X58600D02*
D03*
X46600D02*
D03*
Y242500D02*
D03*
X58600D02*
D03*
X70600D02*
D03*
D26*
X18100Y142500D02*
D03*
X90100D02*
D03*
Y244500D02*
D03*
X18100D02*
D03*
D27*
X129350Y175300D02*
D03*
Y211700D02*
D03*
D28*
X42180Y47400D02*
D03*
X47700D02*
D03*
X27300Y5900D02*
D03*
X21780D02*
D03*
X103600D02*
D03*
X98080D02*
D03*
X78167D02*
D03*
X72647D02*
D03*
X52733D02*
D03*
X47214D02*
D03*
X152000Y169833D02*
D03*
X146481D02*
D03*
X152000Y179500D02*
D03*
X146481D02*
D03*
X152000Y150500D02*
D03*
X146481D02*
D03*
X152000Y160167D02*
D03*
X146481D02*
D03*
D29*
X10800Y24700D02*
D03*
X14800D02*
D03*
X87200D02*
D03*
X91200D02*
D03*
X61733D02*
D03*
X65733D02*
D03*
X36267D02*
D03*
X40267D02*
D03*
D30*
X12800Y18200D02*
D03*
X89200D02*
D03*
X63733D02*
D03*
X38267D02*
D03*
D31*
X78200Y66600D02*
D03*
Y56100D02*
D03*
X64700D02*
D03*
Y66600D02*
D03*
D32*
X165500Y43600D02*
D03*
D33*
Y22600D02*
D03*
M02*
