G04*
G04 #@! TF.GenerationSoftware,Altium Limited,Altium Designer,18.1.1 (9)*
G04*
G04 Layer_Color=32896*
%FSLAX44Y44*%
%MOMM*%
G71*
G01*
G75*
%ADD11C,0.1500*%
%ADD12C,0.1000*%
%ADD14C,0.0800*%
%ADD15C,0.1200*%
%ADD90C,0.2540*%
D11*
X94000Y112800D02*
G03*
X94000Y112800I-500J0D01*
G01*
X78500Y91800D02*
X87500D01*
X78500Y110800D02*
X87500D01*
X3000Y118700D02*
X151000D01*
X3000D02*
Y246700D01*
X151000D01*
Y118700D02*
Y246700D01*
X179750Y239650D02*
X183750D01*
X157750Y220650D02*
Y232650D01*
X179750Y213650D02*
X183750D01*
Y234650D02*
Y239650D01*
Y213650D02*
Y218650D01*
X189150Y191750D02*
X193150D01*
X215150Y198750D02*
Y210750D01*
X189150Y217750D02*
X193150D01*
X189150Y191750D02*
Y196750D01*
Y212750D02*
Y217750D01*
D12*
X57112Y50400D02*
G03*
X57112Y50400I-112J0D01*
G01*
D14*
X52000Y98100D02*
Y111100D01*
X42000Y98100D02*
X52000D01*
X42000D02*
Y111100D01*
X52000D01*
X33600Y52700D02*
X55800D01*
X33600Y30700D02*
Y52700D01*
Y30700D02*
X55800D01*
Y52700D01*
D15*
X92000Y19250D02*
Y28850D01*
X107600D01*
Y19250D02*
Y28850D01*
X92000Y19250D02*
X107600D01*
X56500Y75000D02*
Y91000D01*
Y75000D02*
X66500D01*
Y91000D01*
X56500D02*
X66500D01*
X104200Y99300D02*
Y114900D01*
Y99300D02*
X113800D01*
Y114900D01*
X104200D02*
X113800D01*
X42400Y77300D02*
X52400D01*
X42400D02*
Y93300D01*
X52400D01*
Y77300D02*
Y93300D01*
X2200Y95300D02*
X11800D01*
X2200D02*
Y110900D01*
X11800D01*
Y95300D02*
Y110900D01*
X25050Y95300D02*
Y110900D01*
X15450D02*
X25050D01*
X15450Y95300D02*
Y110900D01*
Y95300D02*
X25050D01*
X38300D02*
Y110900D01*
X28700D02*
X38300D01*
X28700Y95300D02*
Y110900D01*
Y95300D02*
X38300D01*
X15500Y69400D02*
Y85000D01*
Y69400D02*
X25100D01*
Y85000D01*
X15500D02*
X25100D01*
X84300Y29500D02*
Y39100D01*
X68700Y29500D02*
X84300D01*
X68700D02*
Y39100D01*
X84300D01*
Y39200D02*
Y48800D01*
X68700Y39200D02*
X84300D01*
X68700D02*
Y48800D01*
X84300D01*
X122300Y62900D02*
Y78500D01*
X112700D02*
X122300D01*
X112700Y62900D02*
Y78500D01*
Y62900D02*
X122300D01*
X112900Y80500D02*
Y96100D01*
Y80500D02*
X122500D01*
Y96100D01*
X112900D02*
X122500D01*
X94000Y71700D02*
X111000D01*
X94000Y61700D02*
Y71700D01*
X111000Y61700D02*
Y71700D01*
X94000Y61700D02*
X111000D01*
X94000Y77200D02*
X111000D01*
Y87200D01*
X94000Y77200D02*
Y87200D01*
X111000D01*
X124000Y70100D02*
X139600D01*
Y79700D01*
X124000D02*
X139600D01*
X124000Y70100D02*
Y79700D01*
X135500Y43900D02*
Y59500D01*
X125900D02*
X135500D01*
X125900Y43900D02*
Y59500D01*
Y43900D02*
X135500D01*
X143400Y25300D02*
X159000D01*
X143400Y15700D02*
Y25300D01*
Y15700D02*
X159000D01*
Y25300D01*
X159700Y29000D02*
Y38600D01*
X144100Y29000D02*
X159700D01*
X144100D02*
Y38600D01*
X159700D01*
X159200Y75400D02*
Y85000D01*
X143600Y75400D02*
X159200D01*
X143600D02*
Y85000D01*
X159200D01*
X142600Y41500D02*
Y72500D01*
Y41500D02*
X160600D01*
Y72500D01*
X142600D02*
X160600D01*
X105950Y32150D02*
Y48150D01*
X95950D02*
X105950D01*
X95950Y32150D02*
Y48150D01*
Y32150D02*
X105950D01*
X70980Y59900D02*
Y69900D01*
X86980D01*
Y59900D02*
Y69900D01*
X70980Y59900D02*
X86980D01*
X61500Y16500D02*
Y26500D01*
X77500D01*
Y16500D02*
Y26500D01*
X61500Y16500D02*
X77500D01*
X36400Y16800D02*
Y26800D01*
X52400D01*
Y16800D02*
Y26800D01*
X36400Y16800D02*
X52400D01*
X11100D02*
X27100D01*
Y26800D01*
X11100D02*
X27100D01*
X11100Y16800D02*
Y26800D01*
X24800Y49800D02*
Y65400D01*
X15200D02*
X24800D01*
X15200Y49800D02*
Y65400D01*
Y49800D02*
X24800D01*
X160700Y164200D02*
Y181200D01*
Y164200D02*
X170700D01*
X160700Y181200D02*
X170700D01*
Y164200D02*
Y181200D01*
X172779Y206192D02*
X184799Y194172D01*
X165708Y199121D02*
X172779Y206192D01*
X177728Y187101D02*
X184799Y194172D01*
X165708Y199121D02*
X177728Y187101D01*
X157000Y183900D02*
X172600D01*
Y193500D01*
X157000D02*
X172600D01*
X157000Y183900D02*
Y193500D01*
D90*
X124088Y113719D02*
G03*
X124088Y113719I-3606J0D01*
G01*
M02*
