G04 Layer_Color=8388736*
%FSLAX44Y44*%
%MOMM*%
G71*
G01*
G75*
%ADD62C,0.9800*%
%ADD63R,0.5800X0.7800*%
%ADD64R,2.1800X3.1800*%
%ADD65R,0.7800X0.5800*%
%ADD66O,1.0800X0.4300*%
%ADD67O,0.4300X1.0800*%
%ADD68R,1.6800X1.1800*%
%ADD69R,2.9800X2.9800*%
%ADD70O,0.3800X1.0300*%
%ADD71O,1.0300X0.3800*%
%ADD72C,0.4300*%
G04:AMPARAMS|DCode=73|XSize=0.63mm|YSize=0.41mm|CornerRadius=0mm|HoleSize=0mm|Usage=FLASHONLY|Rotation=0.000|XOffset=0mm|YOffset=0mm|HoleType=Round|Shape=Octagon|*
%AMOCTAGOND73*
4,1,8,0.3150,-0.1025,0.3150,0.1025,0.2125,0.2050,-0.2125,0.2050,-0.3150,0.1025,-0.3150,-0.1025,-0.2125,-0.2050,0.2125,-0.2050,0.3150,-0.1025,0.0*
%
%ADD73OCTAGOND73*%

%ADD74C,0.4000*%
%ADD75R,3.5800X4.3800*%
%ADD76O,1.1300X0.7800*%
%ADD77R,0.9800X1.1800*%
%ADD78R,1.9800X1.1800*%
%ADD79R,1.1800X1.2800*%
%ADD80R,0.3800X0.4300*%
%ADD81R,0.6800X0.4300*%
%ADD82R,1.0300X0.9300*%
%ADD83R,1.0800X1.0800*%
%ADD84R,1.0800X1.0800*%
G36*
X79784Y8794D02*
X79900Y8771D01*
X80012Y8733D01*
X80117Y8681D01*
X80216Y8615D01*
X80304Y8538D01*
X80382Y8449D01*
X80448Y8351D01*
X80500Y8245D01*
X80538Y8133D01*
X80561Y8018D01*
X80568Y7900D01*
Y3900D01*
X80561Y3782D01*
X80538Y3667D01*
X80500Y3555D01*
X80448Y3449D01*
X80382Y3351D01*
X80304Y3262D01*
X80216Y3184D01*
X80117Y3119D01*
X80012Y3067D01*
X79900Y3029D01*
X79784Y3006D01*
X79666Y2998D01*
X77666D01*
X77549Y3006D01*
X77433Y3029D01*
X77321Y3067D01*
X77215Y3119D01*
X77117Y3184D01*
X77029Y3262D01*
X76536Y3755D01*
X76518Y3667D01*
X76490Y3583D01*
X76480Y3555D01*
X76428Y3449D01*
X76363Y3351D01*
X76285Y3262D01*
X76196Y3184D01*
X76098Y3119D01*
X75992Y3067D01*
X75964Y3057D01*
X75880Y3029D01*
X75784Y3010D01*
X75765Y3006D01*
X75647Y2998D01*
X71647D01*
X71529Y3006D01*
X71414Y3029D01*
X71302Y3067D01*
X71196Y3119D01*
X71098Y3184D01*
X71009Y3262D01*
X70932Y3351D01*
X70866Y3449D01*
X70814Y3555D01*
X70776Y3667D01*
X70753Y3782D01*
X70745Y3900D01*
Y7900D01*
X70753Y8018D01*
X70776Y8133D01*
X70814Y8245D01*
X70866Y8351D01*
X70932Y8449D01*
X71009Y8538D01*
X71098Y8615D01*
X71196Y8681D01*
X71302Y8733D01*
X71414Y8771D01*
X71529Y8794D01*
X71647Y8802D01*
X75647D01*
X75765Y8794D01*
X75784Y8790D01*
X75880Y8771D01*
X75964Y8743D01*
X75992Y8733D01*
X76098Y8681D01*
X76196Y8615D01*
X76285Y8538D01*
X76363Y8449D01*
X76428Y8351D01*
X76480Y8245D01*
X76490Y8217D01*
X76518Y8133D01*
X76536Y8045D01*
X77029Y8538D01*
X77117Y8615D01*
X77215Y8681D01*
X77321Y8733D01*
X77350Y8743D01*
X77433Y8771D01*
X77530Y8790D01*
X77549Y8794D01*
X77666Y8802D01*
X79666D01*
X79784Y8794D01*
D02*
G37*
G36*
X105218D02*
X105333Y8771D01*
X105445Y8733D01*
X105551Y8681D01*
X105649Y8615D01*
X105737Y8538D01*
X105815Y8449D01*
X105881Y8351D01*
X105933Y8245D01*
X105971Y8133D01*
X105994Y8018D01*
X106002Y7900D01*
Y3900D01*
X105994Y3782D01*
X105971Y3667D01*
X105933Y3555D01*
X105881Y3449D01*
X105815Y3351D01*
X105737Y3262D01*
X105649Y3184D01*
X105551Y3119D01*
X105445Y3067D01*
X105333Y3029D01*
X105218Y3006D01*
X105100Y2998D01*
X103100D01*
X102982Y3006D01*
X102866Y3029D01*
X102755Y3067D01*
X102649Y3119D01*
X102551Y3184D01*
X102462Y3262D01*
X101969Y3755D01*
X101952Y3667D01*
X101923Y3583D01*
X101914Y3555D01*
X101861Y3449D01*
X101796Y3351D01*
X101718Y3262D01*
X101629Y3184D01*
X101531Y3119D01*
X101426Y3067D01*
X101397Y3057D01*
X101314Y3029D01*
X101217Y3010D01*
X101198Y3006D01*
X101080Y2998D01*
X97080D01*
X96963Y3006D01*
X96847Y3029D01*
X96735Y3067D01*
X96629Y3119D01*
X96531Y3184D01*
X96443Y3262D01*
X96365Y3351D01*
X96299Y3449D01*
X96247Y3555D01*
X96209Y3667D01*
X96186Y3782D01*
X96178Y3900D01*
Y7900D01*
X96186Y8018D01*
X96209Y8133D01*
X96247Y8245D01*
X96299Y8351D01*
X96365Y8449D01*
X96443Y8538D01*
X96531Y8615D01*
X96629Y8681D01*
X96735Y8733D01*
X96847Y8771D01*
X96963Y8794D01*
X97080Y8802D01*
X101080D01*
X101198Y8794D01*
X101217Y8790D01*
X101314Y8771D01*
X101397Y8743D01*
X101426Y8733D01*
X101531Y8681D01*
X101629Y8615D01*
X101718Y8538D01*
X101796Y8449D01*
X101861Y8351D01*
X101914Y8245D01*
X101923Y8217D01*
X101952Y8133D01*
X101969Y8045D01*
X102462Y8538D01*
X102551Y8615D01*
X102649Y8681D01*
X102755Y8733D01*
X102783Y8743D01*
X102866Y8771D01*
X102963Y8790D01*
X102982Y8794D01*
X103100Y8802D01*
X105100D01*
X105218Y8794D01*
D02*
G37*
G36*
X28918D02*
X29033Y8771D01*
X29145Y8733D01*
X29251Y8681D01*
X29349Y8615D01*
X29437Y8538D01*
X29515Y8449D01*
X29581Y8351D01*
X29633Y8245D01*
X29671Y8133D01*
X29694Y8018D01*
X29702Y7900D01*
Y3900D01*
X29694Y3782D01*
X29671Y3667D01*
X29633Y3555D01*
X29581Y3449D01*
X29515Y3351D01*
X29437Y3262D01*
X29349Y3184D01*
X29251Y3119D01*
X29145Y3067D01*
X29033Y3029D01*
X28918Y3006D01*
X28800Y2998D01*
X26800D01*
X26682Y3006D01*
X26566Y3029D01*
X26455Y3067D01*
X26349Y3119D01*
X26251Y3184D01*
X26162Y3262D01*
X25669Y3755D01*
X25652Y3667D01*
X25623Y3583D01*
X25614Y3555D01*
X25561Y3449D01*
X25496Y3351D01*
X25418Y3262D01*
X25329Y3184D01*
X25231Y3119D01*
X25126Y3067D01*
X25097Y3057D01*
X25014Y3029D01*
X24917Y3010D01*
X24898Y3006D01*
X24780Y2998D01*
X20780D01*
X20663Y3006D01*
X20547Y3029D01*
X20435Y3067D01*
X20329Y3119D01*
X20231Y3184D01*
X20143Y3262D01*
X20065Y3351D01*
X19999Y3449D01*
X19947Y3555D01*
X19909Y3667D01*
X19886Y3782D01*
X19878Y3900D01*
Y7900D01*
X19886Y8018D01*
X19909Y8133D01*
X19947Y8245D01*
X19999Y8351D01*
X20065Y8449D01*
X20143Y8538D01*
X20231Y8615D01*
X20329Y8681D01*
X20435Y8733D01*
X20547Y8771D01*
X20663Y8794D01*
X20780Y8802D01*
X24780D01*
X24898Y8794D01*
X24917Y8790D01*
X25014Y8771D01*
X25097Y8743D01*
X25126Y8733D01*
X25231Y8681D01*
X25329Y8615D01*
X25418Y8538D01*
X25496Y8449D01*
X25561Y8351D01*
X25614Y8245D01*
X25623Y8217D01*
X25652Y8133D01*
X25669Y8045D01*
X26162Y8538D01*
X26251Y8615D01*
X26349Y8681D01*
X26455Y8733D01*
X26510Y8752D01*
X26566Y8771D01*
X26624Y8783D01*
X26682Y8794D01*
X26800Y8802D01*
X28800D01*
X28918Y8794D01*
D02*
G37*
G36*
X54351D02*
X54467Y8771D01*
X54578Y8733D01*
X54684Y8681D01*
X54782Y8615D01*
X54871Y8538D01*
X54949Y8449D01*
X55014Y8351D01*
X55066Y8245D01*
X55104Y8133D01*
X55127Y8018D01*
X55135Y7900D01*
Y3900D01*
X55127Y3782D01*
X55104Y3667D01*
X55066Y3555D01*
X55014Y3449D01*
X54949Y3351D01*
X54871Y3262D01*
X54782Y3184D01*
X54684Y3119D01*
X54578Y3067D01*
X54467Y3029D01*
X54351Y3006D01*
X54233Y2998D01*
X52233D01*
X52115Y3006D01*
X52000Y3029D01*
X51888Y3067D01*
X51782Y3119D01*
X51684Y3184D01*
X51595Y3262D01*
X51102Y3755D01*
X51085Y3667D01*
X51057Y3583D01*
X51047Y3555D01*
X50995Y3449D01*
X50929Y3351D01*
X50851Y3262D01*
X50763Y3184D01*
X50665Y3119D01*
X50559Y3067D01*
X50531Y3057D01*
X50447Y3029D01*
X50351Y3010D01*
X50331Y3006D01*
X50214Y2998D01*
X46214D01*
X46096Y3006D01*
X45980Y3029D01*
X45869Y3067D01*
X45763Y3119D01*
X45665Y3184D01*
X45576Y3262D01*
X45498Y3351D01*
X45433Y3449D01*
X45380Y3555D01*
X45342Y3667D01*
X45319Y3782D01*
X45312Y3900D01*
Y7900D01*
X45319Y8018D01*
X45342Y8133D01*
X45380Y8245D01*
X45433Y8351D01*
X45498Y8449D01*
X45576Y8538D01*
X45665Y8615D01*
X45763Y8681D01*
X45869Y8733D01*
X45980Y8771D01*
X46096Y8794D01*
X46214Y8802D01*
X50214D01*
X50331Y8794D01*
X50351Y8790D01*
X50447Y8771D01*
X50531Y8743D01*
X50559Y8733D01*
X50665Y8681D01*
X50763Y8615D01*
X50851Y8538D01*
X50929Y8449D01*
X50995Y8351D01*
X51047Y8245D01*
X51057Y8217D01*
X51085Y8133D01*
X51102Y8045D01*
X51595Y8538D01*
X51684Y8615D01*
X51782Y8681D01*
X51888Y8733D01*
X51916Y8743D01*
X52000Y8771D01*
X52096Y8790D01*
X52115Y8794D01*
X52233Y8802D01*
X54233D01*
X54351Y8794D01*
D02*
G37*
G36*
X48818Y50294D02*
X48933Y50271D01*
X49045Y50233D01*
X49151Y50181D01*
X49249Y50115D01*
X49338Y50038D01*
X49415Y49949D01*
X49481Y49851D01*
X49533Y49745D01*
X49571Y49633D01*
X49594Y49518D01*
X49602Y49400D01*
Y45400D01*
X49594Y45282D01*
X49571Y45167D01*
X49533Y45055D01*
X49481Y44949D01*
X49415Y44851D01*
X49338Y44762D01*
X49249Y44685D01*
X49151Y44619D01*
X49045Y44567D01*
X48933Y44529D01*
X48818Y44506D01*
X48700Y44498D01*
X44700D01*
X44582Y44506D01*
X44524Y44517D01*
X44467Y44529D01*
X44411Y44548D01*
X44355Y44567D01*
X44249Y44619D01*
X44151Y44685D01*
X44062Y44762D01*
X43984Y44851D01*
X43919Y44949D01*
X43867Y45055D01*
X43848Y45111D01*
X43829Y45167D01*
X43817Y45224D01*
X43811Y45255D01*
X43318Y44762D01*
X43230Y44685D01*
X43132Y44619D01*
X43026Y44567D01*
X42997Y44557D01*
X42914Y44529D01*
X42818Y44510D01*
X42798Y44506D01*
X42681Y44498D01*
X40681D01*
X40563Y44506D01*
X40447Y44529D01*
X40335Y44567D01*
X40230Y44619D01*
X40132Y44685D01*
X40043Y44762D01*
X39965Y44851D01*
X39899Y44949D01*
X39847Y45055D01*
X39809Y45167D01*
X39786Y45282D01*
X39779Y45400D01*
Y49400D01*
X39786Y49518D01*
X39809Y49633D01*
X39847Y49745D01*
X39899Y49851D01*
X39965Y49949D01*
X40043Y50038D01*
X40132Y50115D01*
X40230Y50181D01*
X40335Y50233D01*
X40447Y50271D01*
X40563Y50294D01*
X40681Y50302D01*
X42681D01*
X42798Y50294D01*
X42914Y50271D01*
X43026Y50233D01*
X43132Y50181D01*
X43230Y50115D01*
X43318Y50038D01*
X43811Y49545D01*
X43817Y49576D01*
X43829Y49633D01*
X43848Y49689D01*
X43867Y49745D01*
X43919Y49851D01*
X43984Y49949D01*
X44062Y50038D01*
X44151Y50115D01*
X44249Y50181D01*
X44355Y50233D01*
X44411Y50252D01*
X44467Y50271D01*
X44524Y50283D01*
X44582Y50294D01*
X44700Y50302D01*
X48700D01*
X48818Y50294D01*
D02*
G37*
G36*
X153618Y172728D02*
X153733Y172705D01*
X153845Y172667D01*
X153951Y172614D01*
X154049Y172549D01*
X154138Y172471D01*
X154216Y172382D01*
X154281Y172284D01*
X154333Y172178D01*
X154371Y172067D01*
X154394Y171951D01*
X154402Y171833D01*
Y167833D01*
X154394Y167716D01*
X154371Y167600D01*
X154333Y167488D01*
X154281Y167382D01*
X154216Y167284D01*
X154138Y167196D01*
X154049Y167118D01*
X153951Y167052D01*
X153845Y167000D01*
X153733Y166962D01*
X153618Y166939D01*
X153500Y166931D01*
X151500D01*
X151382Y166939D01*
X151267Y166962D01*
X151155Y167000D01*
X151049Y167052D01*
X150951Y167118D01*
X150862Y167196D01*
X150369Y167688D01*
X150352Y167600D01*
X150323Y167516D01*
X150314Y167488D01*
X150262Y167382D01*
X150196Y167284D01*
X150118Y167196D01*
X150030Y167118D01*
X149932Y167052D01*
X149826Y167000D01*
X149797Y166990D01*
X149714Y166962D01*
X149618Y166943D01*
X149598Y166939D01*
X149481Y166931D01*
X145481D01*
X145363Y166939D01*
X145247Y166962D01*
X145135Y167000D01*
X145030Y167052D01*
X144931Y167118D01*
X144843Y167196D01*
X144765Y167284D01*
X144699Y167382D01*
X144647Y167488D01*
X144609Y167600D01*
X144586Y167716D01*
X144579Y167833D01*
Y171833D01*
X144586Y171951D01*
X144609Y172067D01*
X144647Y172178D01*
X144699Y172284D01*
X144765Y172382D01*
X144843Y172471D01*
X144931Y172549D01*
X145030Y172614D01*
X145135Y172667D01*
X145247Y172705D01*
X145363Y172728D01*
X145481Y172735D01*
X149481D01*
X149598Y172728D01*
X149618Y172724D01*
X149714Y172705D01*
X149797Y172676D01*
X149826Y172667D01*
X149932Y172614D01*
X150030Y172549D01*
X150118Y172471D01*
X150196Y172382D01*
X150262Y172284D01*
X150314Y172178D01*
X150323Y172150D01*
X150352Y172067D01*
X150369Y171978D01*
X150862Y172471D01*
X150951Y172549D01*
X151049Y172614D01*
X151155Y172667D01*
X151183Y172676D01*
X151267Y172705D01*
X151363Y172724D01*
X151382Y172728D01*
X151500Y172735D01*
X153500D01*
X153618Y172728D01*
D02*
G37*
G36*
Y182394D02*
X153733Y182371D01*
X153845Y182333D01*
X153951Y182281D01*
X154049Y182215D01*
X154138Y182138D01*
X154216Y182049D01*
X154281Y181951D01*
X154333Y181845D01*
X154371Y181733D01*
X154394Y181618D01*
X154402Y181500D01*
Y177500D01*
X154394Y177382D01*
X154371Y177267D01*
X154333Y177155D01*
X154281Y177049D01*
X154216Y176951D01*
X154138Y176862D01*
X154049Y176784D01*
X153951Y176719D01*
X153845Y176667D01*
X153733Y176629D01*
X153618Y176606D01*
X153500Y176598D01*
X151500D01*
X151382Y176606D01*
X151267Y176629D01*
X151155Y176667D01*
X151049Y176719D01*
X150951Y176784D01*
X150862Y176862D01*
X150369Y177355D01*
X150363Y177324D01*
X150352Y177267D01*
X150333Y177211D01*
X150314Y177155D01*
X150262Y177049D01*
X150196Y176951D01*
X150118Y176862D01*
X150030Y176784D01*
X149932Y176719D01*
X149826Y176667D01*
X149770Y176648D01*
X149714Y176629D01*
X149656Y176617D01*
X149598Y176606D01*
X149481Y176598D01*
X145481D01*
X145363Y176606D01*
X145247Y176629D01*
X145135Y176667D01*
X145030Y176719D01*
X144931Y176784D01*
X144843Y176862D01*
X144765Y176951D01*
X144699Y177049D01*
X144647Y177155D01*
X144609Y177267D01*
X144586Y177382D01*
X144579Y177500D01*
Y181500D01*
X144586Y181618D01*
X144609Y181733D01*
X144647Y181845D01*
X144699Y181951D01*
X144765Y182049D01*
X144843Y182138D01*
X144931Y182215D01*
X145030Y182281D01*
X145135Y182333D01*
X145247Y182371D01*
X145363Y182394D01*
X145481Y182402D01*
X149481D01*
X149598Y182394D01*
X149656Y182383D01*
X149714Y182371D01*
X149770Y182352D01*
X149826Y182333D01*
X149932Y182281D01*
X150030Y182215D01*
X150118Y182138D01*
X150196Y182049D01*
X150262Y181951D01*
X150314Y181845D01*
X150333Y181789D01*
X150352Y181733D01*
X150363Y181675D01*
X150369Y181645D01*
X150862Y182138D01*
X150951Y182215D01*
X151049Y182281D01*
X151155Y182333D01*
X151183Y182343D01*
X151267Y182371D01*
X151363Y182390D01*
X151382Y182394D01*
X151500Y182402D01*
X153500D01*
X153618Y182394D01*
D02*
G37*
G36*
Y153394D02*
X153733Y153371D01*
X153845Y153333D01*
X153951Y153281D01*
X154049Y153216D01*
X154138Y153138D01*
X154216Y153049D01*
X154281Y152951D01*
X154333Y152845D01*
X154371Y152733D01*
X154394Y152618D01*
X154402Y152500D01*
Y148500D01*
X154394Y148382D01*
X154371Y148267D01*
X154333Y148155D01*
X154281Y148049D01*
X154216Y147951D01*
X154138Y147862D01*
X154049Y147785D01*
X153951Y147719D01*
X153845Y147667D01*
X153733Y147629D01*
X153618Y147606D01*
X153500Y147598D01*
X151500D01*
X151382Y147606D01*
X151267Y147629D01*
X151155Y147667D01*
X151049Y147719D01*
X150951Y147785D01*
X150862Y147862D01*
X150369Y148355D01*
X150352Y148267D01*
X150323Y148183D01*
X150314Y148155D01*
X150262Y148049D01*
X150196Y147951D01*
X150118Y147862D01*
X150030Y147785D01*
X149932Y147719D01*
X149826Y147667D01*
X149797Y147657D01*
X149714Y147629D01*
X149618Y147610D01*
X149598Y147606D01*
X149481Y147598D01*
X145481D01*
X145363Y147606D01*
X145247Y147629D01*
X145135Y147667D01*
X145030Y147719D01*
X144931Y147785D01*
X144843Y147862D01*
X144765Y147951D01*
X144699Y148049D01*
X144647Y148155D01*
X144609Y148267D01*
X144586Y148382D01*
X144579Y148500D01*
Y152500D01*
X144586Y152618D01*
X144609Y152733D01*
X144647Y152845D01*
X144699Y152951D01*
X144765Y153049D01*
X144843Y153138D01*
X144931Y153216D01*
X145030Y153281D01*
X145135Y153333D01*
X145247Y153371D01*
X145363Y153394D01*
X145481Y153402D01*
X149481D01*
X149598Y153394D01*
X149618Y153390D01*
X149714Y153371D01*
X149797Y153343D01*
X149826Y153333D01*
X149932Y153281D01*
X150030Y153216D01*
X150118Y153138D01*
X150196Y153049D01*
X150262Y152951D01*
X150314Y152845D01*
X150323Y152817D01*
X150352Y152733D01*
X150369Y152645D01*
X150862Y153138D01*
X150951Y153216D01*
X151049Y153281D01*
X151155Y153333D01*
X151183Y153343D01*
X151267Y153371D01*
X151363Y153390D01*
X151382Y153394D01*
X151500Y153402D01*
X153500D01*
X153618Y153394D01*
D02*
G37*
G36*
Y163061D02*
X153733Y163038D01*
X153845Y163000D01*
X153951Y162948D01*
X154049Y162882D01*
X154138Y162804D01*
X154216Y162716D01*
X154281Y162618D01*
X154333Y162512D01*
X154371Y162400D01*
X154394Y162284D01*
X154402Y162167D01*
Y158167D01*
X154394Y158049D01*
X154371Y157933D01*
X154333Y157822D01*
X154281Y157716D01*
X154216Y157618D01*
X154138Y157529D01*
X154049Y157451D01*
X153951Y157386D01*
X153845Y157333D01*
X153733Y157296D01*
X153618Y157273D01*
X153500Y157265D01*
X151500D01*
X151382Y157273D01*
X151267Y157296D01*
X151155Y157333D01*
X151049Y157386D01*
X150951Y157451D01*
X150862Y157529D01*
X150369Y158022D01*
X150363Y157991D01*
X150352Y157933D01*
X150333Y157877D01*
X150314Y157822D01*
X150262Y157716D01*
X150196Y157618D01*
X150118Y157529D01*
X150030Y157451D01*
X149932Y157386D01*
X149826Y157333D01*
X149770Y157314D01*
X149714Y157296D01*
X149656Y157284D01*
X149598Y157273D01*
X149481Y157265D01*
X145481D01*
X145363Y157273D01*
X145247Y157296D01*
X145135Y157333D01*
X145030Y157386D01*
X144931Y157451D01*
X144843Y157529D01*
X144765Y157618D01*
X144699Y157716D01*
X144647Y157822D01*
X144609Y157933D01*
X144586Y158049D01*
X144579Y158167D01*
Y162167D01*
X144586Y162284D01*
X144609Y162400D01*
X144647Y162512D01*
X144699Y162618D01*
X144765Y162716D01*
X144843Y162804D01*
X144931Y162882D01*
X145030Y162948D01*
X145135Y163000D01*
X145247Y163038D01*
X145363Y163061D01*
X145481Y163069D01*
X149481D01*
X149598Y163061D01*
X149656Y163049D01*
X149714Y163038D01*
X149770Y163019D01*
X149826Y163000D01*
X149932Y162948D01*
X150030Y162882D01*
X150118Y162804D01*
X150196Y162716D01*
X150262Y162618D01*
X150314Y162512D01*
X150333Y162456D01*
X150352Y162400D01*
X150363Y162342D01*
X150369Y162312D01*
X150862Y162804D01*
X150951Y162882D01*
X151049Y162948D01*
X151155Y163000D01*
X151183Y163010D01*
X151267Y163038D01*
X151363Y163057D01*
X151382Y163061D01*
X151500Y163069D01*
X153500D01*
X153618Y163061D01*
D02*
G37*
D62*
X7200Y100500D02*
D03*
Y113550D02*
D03*
Y126600D02*
D03*
X76500Y33400D02*
D03*
X66800Y38800D02*
D03*
X84500Y43100D02*
D03*
D63*
X40700Y36900D02*
D03*
X48700D02*
D03*
X75700Y79500D02*
D03*
X67700D02*
D03*
X26100Y38300D02*
D03*
X18100D02*
D03*
X26100Y50600D02*
D03*
X18100D02*
D03*
D64*
X28300Y108700D02*
D03*
X88300D02*
D03*
D65*
X51500Y57200D02*
D03*
Y65200D02*
D03*
X90900Y69700D02*
D03*
Y77700D02*
D03*
X24600Y14500D02*
D03*
Y22500D02*
D03*
X75700Y14500D02*
D03*
Y22500D02*
D03*
X50750Y14500D02*
D03*
Y22500D02*
D03*
D66*
X155900Y115000D02*
D03*
Y120000D02*
D03*
X127900D02*
D03*
Y115000D02*
D03*
D67*
X151900Y129000D02*
D03*
X146900D02*
D03*
X141900D02*
D03*
X136900D02*
D03*
X131900D02*
D03*
Y106000D02*
D03*
X136900D02*
D03*
X141900D02*
D03*
X146900D02*
D03*
X151900D02*
D03*
D68*
X141900Y117500D02*
D03*
D69*
X125200Y49650D02*
D03*
D70*
X107200Y73900D02*
D03*
X111200D02*
D03*
X115200D02*
D03*
X119200D02*
D03*
X123200D02*
D03*
X127200D02*
D03*
X131200D02*
D03*
X135200D02*
D03*
X139200D02*
D03*
X143200D02*
D03*
Y25400D02*
D03*
X139200D02*
D03*
X135200D02*
D03*
X131200D02*
D03*
X127200D02*
D03*
X123200D02*
D03*
X119200D02*
D03*
X115200D02*
D03*
X111200D02*
D03*
X107200D02*
D03*
D71*
X149450Y67650D02*
D03*
Y63650D02*
D03*
Y59650D02*
D03*
Y55650D02*
D03*
Y51650D02*
D03*
Y47650D02*
D03*
Y43650D02*
D03*
Y39650D02*
D03*
Y35650D02*
D03*
Y31650D02*
D03*
X100950D02*
D03*
Y35650D02*
D03*
Y39650D02*
D03*
Y43650D02*
D03*
Y47650D02*
D03*
Y51650D02*
D03*
Y55650D02*
D03*
Y59650D02*
D03*
Y63650D02*
D03*
Y67650D02*
D03*
D72*
X24600Y67400D02*
D03*
D73*
X28750Y70650D02*
D03*
Y64150D02*
D03*
X20450Y70650D02*
D03*
Y64150D02*
D03*
D74*
X111000Y102400D02*
D03*
X107000D02*
D03*
X111000Y106400D02*
D03*
X107000D02*
D03*
X111000Y110400D02*
D03*
X107000D02*
D03*
X111000Y114400D02*
D03*
X107000D02*
D03*
D75*
X180200Y214500D02*
D03*
D76*
X208950Y233550D02*
D03*
Y220850D02*
D03*
Y208150D02*
D03*
Y195450D02*
D03*
X151450D02*
D03*
Y208150D02*
D03*
Y220850D02*
D03*
Y233550D02*
D03*
D77*
X70600Y144500D02*
D03*
X58600D02*
D03*
X46600D02*
D03*
Y242500D02*
D03*
X58600D02*
D03*
X70600D02*
D03*
D78*
X18100Y142500D02*
D03*
X90100D02*
D03*
Y244500D02*
D03*
X18100D02*
D03*
D79*
X129350Y175300D02*
D03*
Y211700D02*
D03*
D80*
X10800Y24700D02*
D03*
X14800D02*
D03*
X87200D02*
D03*
X91200D02*
D03*
X61733D02*
D03*
X65733D02*
D03*
X36267D02*
D03*
X40267D02*
D03*
D81*
X12800Y18200D02*
D03*
X89200D02*
D03*
X63733D02*
D03*
X38267D02*
D03*
D82*
X78200Y66600D02*
D03*
Y56100D02*
D03*
X64700D02*
D03*
Y66600D02*
D03*
D83*
X8000Y38100D02*
D03*
X88900Y8000D02*
D03*
X12700D02*
D03*
X63500D02*
D03*
X38100D02*
D03*
X8000Y88900D02*
D03*
Y63500D02*
D03*
Y76200D02*
D03*
X114300Y8000D02*
D03*
D84*
X8000Y50800D02*
D03*
X127000Y8000D02*
D03*
X139700D02*
D03*
X152400D02*
D03*
M02*
